<?xml version="1.0" encoding="UTF-8"?><svg id="a" xmlns="http://www.w3.org/2000/svg" viewBox="0 0 1061.91 1180.99"><defs><style>.b{fill:#fff;}.c{fill:#b3d133;}.d{fill:#390075;}.e{opacity:.3;}.f{opacity:.3;}.g{opacity:.6;}.h{opacity:.7;}</style></defs><g><rect class="d" x="474.79" y="970.05" width="112.33" height="123.43"/><path class="d" d="M416.01,1093.48h229.88c41.81,0,75.76,33.95,75.76,75.76H340.25c0-41.81,33.95-75.76,75.76-75.76Z"/><g class="g"><path class="b" d="M714.95,1138.11c-13.6-13.09-32.09-21.12-52.47-21.12h-229.86c-20.92,0-39.85,8.46-53.57,22.18-8.35,8.35-14.73,18.61-18.46,30.05h-20.34c0-20.89,8.46-39.85,22.18-53.57,13.71-13.71,32.64-22.18,53.57-22.18h229.9c30.72,0,57.17,18.34,69.04,44.63Z"/></g><path class="d" d="M1050.14,270.6V895.6c0,41.1-33.31,74.45-74.45,74.45H86.2c-41.1,0-74.45-33.35-74.45-74.45V270.6c0-41.1,33.35-74.45,74.45-74.45H975.69c41.14,0,74.45,33.35,74.45,74.45Z"/><polygon class="b" points="16.6 844.38 16.6 871.13 16.6 906.22 21.81 923.75 41.66 953.45 70.03 970.05 982.82 970.05 1026.46 946.26 1044.64 917.16 1050.15 895.6 1050.15 844.38 16.6 844.38"/><path class="d" d="M1050.14,270.6V840.74H11.75V270.6c0-41.1,33.35-74.45,74.45-74.45H975.69c41.14,0,74.45,33.35,74.45,74.45Z"/><g class="g"><path class="b" d="M1050.14,270.6v28.33c0-41.1-33.31-74.45-74.45-74.45H86.2c-41.1,0-74.45,33.35-74.45,74.45v-28.33c0-41.1,33.35-74.45,74.45-74.45H975.69c41.14,0,74.45,33.35,74.45,74.45Z"/></g><rect class="b" x="58.78" y="280.4" width="944.35" height="507.44" rx="26.45" ry="26.45"/><g class="g"><path class="b" d="M1003.12,757.75v26.14c0,14.62-11.83,26.45-26.45,26.45H85.22c-14.62,0-26.45-11.83-26.45-26.45v-26.14c0,14.62,11.83,26.45,26.45,26.45H976.67c14.62,0,26.45-11.83,26.45-26.45Z"/></g><path d="M975.7,981.8H86.21c-47.53,0-86.21-38.67-86.21-86.21V270.6c0-47.53,38.67-86.21,86.21-86.21H975.7c47.53,0,86.21,38.67,86.21,86.21V895.6c0,47.53-38.67,86.21-86.21,86.21ZM86.21,207.91c-34.57,0-62.69,28.13-62.69,62.7V895.6c0,34.57,28.12,62.69,62.69,62.69H975.7c34.57,0,62.7-28.12,62.7-62.69V270.6c0-34.57-28.13-62.7-62.7-62.7H86.21Z"/><path d="M976.68,797.64H85.23c-19.99,0-36.25-16.26-36.25-36.25V306.85c0-19.99,16.26-36.25,36.25-36.25H976.68c19.99,0,36.25,16.26,36.25,36.25v454.54c0,19.99-16.26,36.25-36.25,36.25ZM85.23,290.19c-9.18,0-16.65,7.47-16.65,16.65v454.54c0,9.18,7.47,16.65,16.65,16.65H976.68c9.18,0,16.65-7.47,16.65-16.65V306.85c0-9.18-7.47-16.65-16.65-16.65H85.23Z"/><path d="M1050.15,857.81H11.76c-5.41,0-9.8-4.39-9.8-9.8s4.39-9.8,9.8-9.8H1050.15c5.41,0,9.8,4.39,9.8,9.8s-4.39,9.8-9.8,9.8Z"/><circle cx="530.95" cy="905.76" r="31"/><path d="M587.12,1105.23h-112.33c-6.49,0-11.76-5.26-11.76-11.76v-123.43c0-6.49,5.26-11.76,11.76-11.76h112.33c6.49,0,11.76,5.26,11.76,11.76v123.43c0,6.49-5.26,11.76-11.76,11.76Zm-100.57-23.51h88.82v-99.92h-88.82v99.92Z"/><path d="M721.65,1180.99H340.25c-6.49,0-11.76-5.26-11.76-11.76,0-48.26,39.26-87.51,87.51-87.51h229.88c48.26,0,87.51,39.26,87.51,87.51,0,6.49-5.26,11.76-11.76,11.76Zm-368.56-23.51h355.72c-5.53-29.69-31.64-52.25-62.92-52.25h-229.88c-31.28,0-57.38,22.55-62.92,52.25Z"/><g class="e"><rect x="474.79" y="970.05" width="112.33" height="52.9"/></g></g><g><g><g><path class="c" d="M727.27,460.04c-2.36,13.21-31.56,63.19-41.63,77.58-9.44,13.5-20.51,23.43-34.6,32.04-13.61,8.36-23.41,16.25-37.57,23.55-14.95,7.66-27.1,20.55-33.93,35.85-3.29,7.48-3.67,16.65-10.11,21.69-3.73,2.93-7.9,7.89-18.1,4.61-17.24-5.63-54.32-13.85-73.24-20.16-24.87-7.2-66.32-28.16-77.91-31.97-8.76-2.89-7.55-16.74-6.81-26,.79-9.17,3.02-18.42,1.63-27.55-1.42-9.27-6.36-17.51-10.66-25.81-21.59-41.54-28.66-89.25-28.4-136.09,.1-16.72,23.16-77.09,45.1-97.41,15.77-14.65,31.83-27.85,49.75-39.9,18.77-12.59,40.97-17.91,63.21-22.13,21.76-4.17,58.71-1.01,80.47,3.43,37.49,7.61,69.03,21.04,101.05,64.52,20.04,27.21,34.79,54.68,35.66,95.71,.5,26.4-.69,50.29-3.9,68.04Z"/><path d="M622.31,230.58c-42.81-14.32-91.4-16.87-134.92-4.72-75.44,21.06-142.37,98.64-139.41,179.13,1.1,29.95,5.29,59.94,14.76,88.45,4.31,12.98,10.23,24.91,15.93,37.3,8.66,18.81,6.31,32.86,6.08,52.12-.09,7.37,.81,12.69,2.9,16.98-8.34,4.02-14.59,11.86-11.83,22.38,.04,.17,.15,.33,.2,.5-16.61,11.29-14.22,22.13-3.16,31.77-28.28,21.68,8.86,40.76,47.1,53.55-1.24,6.11-2.6,12.86-1.77,18.61,1.22,8.38,10.83,12.14,17.93,14.31,8.27,2.53,20.13,5.55,28.68,3.51,8.41-2.01,12.99-11.84,16.08-19.74,18.45,5.06,50.04,18.14,68.26,8.19,8.97-4.9,9.57-13.5,6.02-21.14,12.09-2.19,18.51-9.54,12.95-25.83,6.66-5.26,7.66-14.51,1.82-25.5,1.91-1.14,3.81-2.51,5.7-4.42,8.36-8.52,8.88-19.75,14.62-29.92,9.7-17.17,26.48-24.73,42.4-34.67,19.73-12.32,40.22-24.57,55.02-42.88,50.32-62.24,72.65-151.95,34.18-226.17-21.25-41-55.1-76.95-99.54-91.81Zm-217.34,383.33c23.07,10.55,46.34,21.46,70.57,29.07,21.41,6.77,43.35,12.14,65.11,17.71,6.09,1.56,11.65,2.92,16.93,2.99,11.25,20.18-34.89,9.49-45.93,6.27-13.62-3.97-27-8.68-40.35-13.48-14.49-5.2-29.01-10.38-43.32-16.08-6.71-2.67-57.05-28.01-31.42-31.03,2.39,1.55,5.12,3.04,8.41,4.54Zm72.71-84.23c7.35-27.8,17.21-56.18,19.75-84.99,13.13,.09,26.36-1.99,37.5-5.2,7.11,11.52,16.79,21.64,27.71,28.94-32.13,47.79-49.41,111.45-63.27,165.26-6.55-2.23-12.92-4.47-18.79-6.33-8.89-2.79-17.58-6.11-26.17-9.65,7.76-29.34,15.52-58.69,23.28-88.03Zm58.86-119.31c-2.6-11.54-2.07-29.69,11.66-35.02,16.46-6.39,20.06,8.71,18.21,21.47-1.92,13.32-11.59,22.71-24.57,28.56-2.3-4.82-4.14-9.84-5.31-15.02Zm-24.62,284.84c-16.59-4.57-32.79-10.39-49.11-15.84-13.86-4.63-27.7-9.19-41.37-14.37-9.58-3.63-56.9-17.46-38.66-31.89,16.06,15.45,53.52,23.71,68.24,29.09,30.66,11.2,63.57,25.67,96.44,28.3,3.31,.26,6.31,.18,9.03-.16,4.1,18.37-37.55,6.81-44.57,4.87Zm-53.54,37.32c-5.66,.31-13.19-1.64-18.5-3.27-4.68-1.44-8.45-2.17-9.27-6.5-.54-2.89,.25-7.23,1.03-10.98,14.4,4.37,27.95,7.76,37.16,9.99-2.12,5.08-5.15,10.47-10.42,10.76Zm50.19-13.39c-13.63-3.25-27.21-6.93-40.75-10.52-13.06-3.46-26.13-6.97-39.07-10.88-4.31-1.3-66.18-20.67-46.79-34.81,.47-.35,.84-.72,1.16-1.11,24.39,14.66,64.76,25.54,75.91,29.27,9.03,3.02,51.91,19.44,81.69,21.29,14.4,15.25-26.9,8.02-32.15,6.76Zm179.12-199.88c-12.89,20.91-27.77,34.52-48.18,48.04-16.96,11.24-37.33,20-51.54,34.83-15.82,16.52-18.08,43.57-45.3,42.1-9.91-.54-20.81-3.3-31.59-6.67,8.22-31.52,17.82-62.6,29.83-92.89,8.92-22.49,18.39-48.63,32.28-70.31,2.83,1.32,5.7,2.51,8.61,3.42,23.76,7.37,70.16,2.39,67.7-33.33-.79-11.46-12.95-17.65-23.05-19.51-20.56-3.77-38.8,11.52-51.01,26.2-1.91,2.29-3.72,4.7-5.54,7.1-2.84-1.83-5.47-3.81-7.81-5.91-5.61-5.05-10.63-10.91-14.83-17.3,27.9-12.3,46.8-40.25,24.91-69.14-15.95-21.05-45.99,6.12-48.87,25.02-1.97,12.93,.67,26.33,6.33,38.72-10.06,2.62-21.07,3.56-31.59,3,.29-26.68-6.42-61.32-39.24-60.21-20.15,.69-27,24.03-20.56,40.69,7.51,19.4,26.05,28.27,46.63,30.78-2.42,24.43-10.02,48.29-16.28,71.97-8.55,32.34-17.1,64.67-25.65,97.01-3.24-1.41-6.48-2.83-9.71-4.26-6.44-2.86-14.87-5.34-20.79-9.26-12.4-8.2-10.96-16.88-9.82-30.97,3.11-38.37-24.01-70.86-31.8-108.06-7.79-37.15-10.49-72.63,3.43-108.14,15.51-39.58,39.61-66.14,74.4-90.37,73.59-51.26,188.17-30.64,240.7,39.92,28.86,38.78,35.83,79.39,33.06,127.15-2.03,34.93-16.63,61.02-34.72,90.36Zm-107.11-55.37c2.85-3.67,5.86-7.16,9.08-10.38,11.71-11.73,16.09-14.54,32.6-10.24,12.74,3.32,19.65,5.41,8.66,15.88-13.54,12.89-33.65,11.84-50.34,4.75Zm-94.98-32.69c-9.79-1.77-18.53-4.98-24.78-9.55-8.28-6.05-18.44-21.31-10.13-31.57,19.09-23.56,34.34,21.42,34.87,32.4,.14,2.92,.08,5.82,.03,8.72Z"/></g><g><path class="c" d="M343.62,90.22c24.1,9.03,43.59,31.15,55.31,53.48,5.17,9.84,12.68,24.51,9.29,35.82-3.87,12.91-17.03,15.05-27.93,10.13-22.44-10.12-41.52-31.69-52.51-53.34-4.78-9.42-11.11-22.87-8.31-33.61,2.7-10.35,14.12-16.19,24.14-12.48Z"/><path d="M381.08,197.83c-1.28-.41-2.55-.9-3.81-1.47-22.12-9.98-43.08-31.18-56.05-56.72-6.52-12.83-12.1-26.41-8.86-38.8,1.8-6.91,6.53-12.79,12.98-16.15,6.49-3.38,14.1-3.88,20.85-1.38,0,0,.02,0,.03,.01,23.22,8.7,44.82,29.46,59.25,56.95,5.29,10.08,14.15,26.95,9.83,41.36-2.16,7.22-6.69,12.58-13.09,15.5-6.25,2.85-13.77,3.07-21.12,.7Zm-40.44-100.85c-2.76-.89-5.83-.61-8.5,.78-2.76,1.44-4.78,3.92-5.53,6.8-2.27,8.69,4.5,22.01,7.75,28.41,11.33,22.3,30.1,41.45,48.97,49.96,4.58,2.05,9.34,2.36,12.76,.8,2.49-1.14,4.16-3.21,5.09-6.33,2.59-8.65-4.79-22.72-8.76-30.28-12.58-23.96-31.78-42.65-51.36-50-.14-.05-.28-.1-.41-.14Z"/><path class="c" d="M557.22,13.96c16.34,19.88,22.16,48.79,21.13,73.98-.45,11.11-1.28,27.57-9.88,35.66-9.81,9.24-22.27,4.5-29.25-5.21-14.36-19.99-20.09-48.21-18.78-72.46,.57-10.55,1.82-25.36,9.63-33.25,7.52-7.61,20.33-6.95,27.15,1.28Z"/><path d="M549.11,134.73c-6.05-1.95-11.64-6.15-15.87-12.03-14.16-19.71-21.69-48.55-20.15-77.15,.78-14.37,2.73-28.92,11.74-38.03,5.02-5.08,12.06-7.81,19.32-7.48,7.32,.32,14.15,3.69,18.74,9.24,0,0,.01,.01,.02,.02,15.75,19.16,24.06,47.94,22.8,78.96-.46,11.37-1.24,30.41-12.19,40.72-5.49,5.17-12.09,7.54-19.09,6.87-1.8-.17-3.58-.55-5.33-1.11Zm-2.59-119.44c-.96-.31-1.97-.49-3.01-.54-3.11-.13-6.1,1-8.19,3.12-6.32,6.39-7.12,21.3-7.51,28.47-1.35,24.98,5.32,50.94,17.4,67.76,2.92,4.07,6.9,6.72,10.64,7.07,2.73,.26,5.2-.7,7.57-2.93,6.57-6.19,7.22-22.07,7.57-30.6,1.1-27.04-6.17-52.83-19.45-68.99-1.31-1.58-3.06-2.74-5.03-3.37Z"/><path class="c" d="M819.44,161.42c-12.93,22.25-37.99,37.79-61.95,45.62-10.57,3.45-26.28,8.42-36.87,3.19-12.09-5.97-11.99-19.3-5.33-29.23,13.72-20.44,38.17-35.65,61.35-42.88,10.08-3.15,24.4-7.14,34.52-2.58,9.75,4.39,13.61,16.63,8.28,25.89Z"/><path d="M720.98,218.3c-1.24-.4-2.45-.88-3.63-1.47-6.76-3.34-11.29-8.7-13.1-15.5-2.07-7.79-.28-16.7,4.92-24.45,13.53-20.15,37.93-37.28,65.27-45.8,13.74-4.29,28.08-7.53,39.74-2.27,6.51,2.93,11.52,8.58,13.76,15.49,2.25,6.97,1.48,14.54-2.12,20.79,0,0,0,.02-.01,.02-12.46,21.45-36.53,39.28-66.04,48.92-9.87,3.23-25.83,8.44-38.79,4.26Zm85.78-76.58c-8.33-2.69-21.44,1.41-27.93,3.43-23.88,7.45-45.88,22.76-57.43,39.95-2.79,4.16-3.88,8.81-2.92,12.44,.7,2.65,2.47,4.63,5.39,6.08,8.09,3.98,23.2-.94,31.32-3.59,25.72-8.4,47.35-24.21,57.86-42.3,1.52-2.65,1.83-5.89,.86-8.9-.96-2.96-3.07-5.36-5.79-6.59-.44-.2-.9-.38-1.38-.53Zm12.68,19.7h0Z"/><path class="c" d="M886.34,371.28c-22.17,13.07-51.63,14.33-76.36,9.42-10.9-2.17-27.03-5.54-33.7-15.28-7.61-11.13-1-22.7,9.68-28.09,21.97-11.09,50.74-12.38,74.49-7.33,10.33,2.2,24.77,5.73,31.36,14.66,6.35,8.6,3.72,21.16-5.47,26.62Z"/><path d="M792.37,383.98c-8.51-2.75-17.14-7.04-22.17-14.41-4.26-6.22-5.58-13.11-3.83-19.93,2.01-7.81,7.94-14.7,16.27-18.91,21.67-10.94,51.33-13.91,79.34-7.95,14.07,3,28.14,7.18,35.76,17.49,4.24,5.74,5.84,13.12,4.4,20.25-1.45,7.18-5.84,13.4-12.03,17.09h-.02c-21.37,12.61-51.08,16.36-81.53,10.31-4.54-.9-10.33-2.05-16.17-3.94Zm78.58-43.73c-4.52-1.46-9-2.41-12.04-3.05-24.47-5.2-51.15-2.64-69.64,6.69-4.47,2.26-7.7,5.78-8.64,9.42-.68,2.65-.12,5.25,1.72,7.94,5.1,7.46,20.69,10.55,29.06,12.21,26.55,5.27,53.15,2.09,71.17-8.53,2.62-1.56,4.48-4.23,5.11-7.33,.62-3.05-.05-6.18-1.82-8.58-3.02-4.09-9.02-6.87-14.92-8.77Zm15.38,31.02h0Z"/></g><g class="h"><path class="b" d="M695.85,413.05c13.89-30.54-6.6-68.06-13.07-79.91-6.78-12.41-15.35-21.71-32.51-40.3-9.95-10.79-16.03-15.09-24.61-17.75-9.77-3.04-21.81-.84-27.7,7.53-6.55,9.33-3.3,22.66,3.6,31.74,6.9,9.07,16.74,15.37,25.01,23.21,12.41,11.76,21.27,27.21,25.17,43.85,3.27,13.97,.82,18.68,6.78,29.4,1.27,2.29,10.96,19.28,22.16,17.95,8.47-1,13.46-11.98,15.17-15.73Z"/></g><g class="h"><path class="b" d="M582.66,252.94c4.46,5.56,6.61,14.32,2.39,21.79-4.38,7.74-13.58,10.77-20.74,9.03-7.91-1.92-14.17-8.74-16.39-16.57-.5-1.75-1.08-3.75-.78-6.37,.82-7.14,7.46-13.04,14.4-14.87,7.5-1.98,16,.62,21.12,7Z"/></g><g class="f"><path d="M589.25,630.85c-18.26-5.57-52.31-13.24-70.18-19.19-24.87-7.2-66.32-28.16-77.91-31.97-8.76-2.89-7.55-16.74-6.81-26,.79-9.17,3.02-18.42,1.63-27.55-1.42-9.27-6.36-17.51-10.66-25.81-21.59-41.54-28.66-89.25-28.4-136.09,.1-16.72,23.16-77.09,45.1-97.41,2.64-2.45,5.3-4.85,7.96-7.22-13.79,10.02-26.6,20.79-39.22,32.51-21.94,20.32-45,80.69-45.1,97.41-.25,46.84,6.81,94.55,28.4,136.09,4.31,8.31,9.25,16.54,10.66,25.81,1.4,9.13-.84,18.38-1.63,27.55-.75,9.25-1.96,23.1,6.81,26,11.59,3.8,53.04,24.76,77.91,31.97,18.92,6.3,56,14.53,73.24,20.16,10.2,3.29,14.37-1.67,18.1-4.61,6.43-5.03,6.82-14.17,10.09-21.64Z"/></g></g><path class="d" d="M405,613.78c23.07,10.55,46.34,21.46,70.57,29.07,21.41,6.77,43.35,12.14,65.11,17.71,6.09,1.56,11.65,2.92,16.93,2.99,11.25,20.18-34.89,9.49-45.93,6.27-13.62-3.97-27-8.68-40.35-13.48-14.49-5.2-29.01-10.38-43.32-16.08-6.71-2.67-57.05-28.01-31.42-31.03,2.39,1.55,5.12,3.04,8.41,4.54Z"/><path class="d" d="M511.96,695.07c-16.59-4.57-32.79-10.39-49.11-15.84-13.86-4.63-27.7-9.19-41.37-14.37-9.58-3.63-56.9-17.46-38.66-31.89,16.06,15.45,53.52,23.71,68.24,29.09,30.66,11.2,63.57,25.67,96.44,28.3,3.31,.26,6.31,.18,9.03-.16,4.1,18.37-37.55,6.81-44.57,4.87Z"/><path class="d" d="M458.42,732.39c-5.66,.31-13.19-1.64-18.5-3.27-4.68-1.44-8.45-2.17-9.27-6.5-.54-2.89,.25-7.23,1.03-10.98,14.4,4.37,27.95,7.76,37.16,9.99-2.12,5.08-5.15,10.47-10.42,10.76Z"/><path class="d" d="M508.62,719c-13.63-3.25-27.21-6.93-40.75-10.52-13.06-3.46-26.13-6.97-39.07-10.88-4.31-1.3-66.18-20.67-46.79-34.81,.47-.35,.84-.72,1.16-1.11,24.39,14.66,64.76,25.54,75.91,29.27,9.03,3.02,51.91,19.44,81.69,21.29,14.4,15.25-26.9,8.02-32.15,6.76Z"/></g></svg>