<?xml version="1.0" encoding="UTF-8"?><svg id="a" xmlns="http://www.w3.org/2000/svg" viewBox="0 0 1317.24 1229.31"><defs><style>.b,.c{fill:#fff;}.d,.e{fill:#b3d133;}.f{fill:#390075;}.e{fill-rule:evenodd;}.c{opacity:.51;}</style></defs><g><circle class="f" cx="684.82" cy="640.99" r="444"/><circle class="b" cx="684.82" cy="640.99" r="383.43"/><g><g><g><rect x="673.82" y="274.34" width="20.69" height="69.84" rx="9.96" ry="9.96"/><rect x="675.12" y="937.8" width="20.69" height="69.84" rx="9.97" ry="9.97"/></g><g><rect x="1006.2" y="605.42" width="20.69" height="69.84" rx="9.96" ry="9.96" transform="translate(1656.89 -376.21) rotate(90)"/><rect x="342.74" y="606.72" width="20.69" height="69.84" rx="9.96" ry="9.96" transform="translate(994.72 288.55) rotate(90)"/></g><g><path d="M919.36,382.29h.76c5.5,0,9.97,4.47,9.97,9.97v25.79c0,5.5-4.47,9.97-9.97,9.97h-.76c-5.5,0-9.97-4.47-9.97-9.97v-25.79c0-5.5,4.47-9.97,9.97-9.97Z" transform="translate(556.13 -531.79) rotate(45.02)"/><path d="M451.3,849.22h.76c5.5,0,9.97,4.47,9.97,9.97v31.72c0,5.5-4.46,9.96-9.96,9.96h-.76c-5.5,0-9.97-4.47-9.97-9.97v-31.71c0-5.5,4.47-9.97,9.97-9.97Z" transform="translate(751.3 -63.01) rotate(45.02)"/></g><g><path d="M920.27,853.35h.76c5.5,0,9.97,4.47,9.97,9.97v25.79c0,5.5-4.46,9.96-9.96,9.96h-.76c-5.5,0-9.97-4.47-9.97-9.97v-25.79c0-5.5,4.46-9.96,9.96-9.96Z" transform="translate(2191.24 845.15) rotate(135.02)"/><path d="M450.38,382.33h.76c5.5,0,9.97,4.47,9.97,9.97v31.72c0,5.5-4.46,9.96-9.96,9.96h-.76c-5.5,0-9.97-4.47-9.97-9.97v-31.71c0-5.5,4.47-9.97,9.97-9.97Z" transform="translate(1058.13 378.2) rotate(135.02)"/></g></g><g><path class="d" d="M850.75,644.06h-124.64c.07-1.01,.13-2.04,.13-3.07,0-18.96-12.75-34.93-30.13-39.84v-205.99c0-6.08-4.93-11-11-11h-.84c-6.08,0-11,4.93-11,11v206.07c-17.24,5.01-29.85,20.91-29.85,39.76,0,22.87,18.54,41.41,41.41,41.41,13.06,0,24.7-6.05,32.29-15.49h133.64c6.08,0,11-4.93,11-11v-.84c0-6.08-4.93-11-11-11Z"/><path d="M685.1,384.15c6.08,0,11,4.93,11,11v205.99c17.39,4.91,30.13,20.89,30.13,39.84,0,1.03-.05,2.06-.13,3.07h124.64c6.08,0,11,4.93,11,11v.84c0,6.08-4.93,11-11,11h-133.64c-7.59,9.44-19.23,15.49-32.29,15.49-22.87,0-41.41-18.54-41.41-41.41,0-18.86,12.61-34.76,29.85-39.76v-206.07c0-6.08,4.93-11,11-11h.84m0-19h-.84c-16.54,0-30,13.46-30,30v193.75c-6.74,3.97-12.73,9.24-17.5,15.49-8.08,10.59-12.35,23.25-12.35,36.6,0,33.31,27.1,60.41,60.41,60.41,15.11,0,29.39-5.55,40.4-15.49h125.53c16.54,0,30-13.46,30-30v-.84c0-16.54-13.46-30-30-30h-107.63c-2.04-7.49-5.53-14.53-10.37-20.83-4.81-6.27-10.85-11.53-17.65-15.49v-193.58c0-16.54-13.46-30-30-30h0Z"/></g></g><path class="c" d="M698.81,193.84c-92.27,0-177.96,28.15-248.96,76.32,63.22-34.62,135.79-54.32,212.96-54.32,245.21,0,444,198.79,444,444,0,152.95-77.34,287.83-195.04,367.68,137.68-75.4,231.04-221.64,231.04-389.68,0-245.21-198.79-444-444-444Z"/><path d="M684.82,169.99c-260.13,0-471,210.87-471,471s210.87,471,471,471,471-210.87,471-471-210.87-471-471-471Zm0,915c-245.21,0-444-198.79-444-444S439.6,196.99,684.82,196.99s444,198.79,444,444-198.79,444-444,444Z"/></g><g><path class="e" d="M1256.85,397.4l-.77-1.97-.59-2.03c-19.37-66.41-54.88-126.03-111.69-187.52-40.11-39.87-86.88-75.22-131.78-99.6l-32.34-17.56,13.51-55.14-131.66,34.64,89.1,98.12,11.21-61.75,59.74,37.43c49.52,31.03,92.67,69.21,128.25,113.49,36.3,45.16,64.16,95.97,82.81,151.04,23.98,64.74,34.48,132.39,31.21,201.1-3.16,66.41-18.99,130.93-47.05,191.77-15.96,34.6-35.41,66.99-58.15,96.91l9.14,31.31c29.5-35.46,55.21-74.99,76.44-118.01,29.96-64.4,46.34-132.79,48.68-203.31,2.37-71.35-9.75-141.63-36.04-208.91Z"/><path d="M993.18,33.57l-13.51,55.14,32.34,17.56c44.9,24.38,91.67,59.73,131.78,99.6,56.81,61.49,92.31,121.11,111.69,187.52l.59,2.03,.77,1.97c26.29,67.27,38.41,137.56,36.04,208.91-2.34,70.51-18.72,138.91-48.68,203.31-21.24,43.02-46.94,82.55-76.44,118.01l-9.14-31.31c22.74-29.92,42.2-62.32,58.15-96.91,28.06-60.83,43.89-125.35,47.05-191.77,3.27-68.71-7.23-136.36-31.21-201.1-18.66-55.07-46.52-105.88-82.81-151.04-35.58-44.27-78.73-82.46-128.25-113.49l-59.74-37.43-11.21,61.75-89.1-98.12,131.66-34.64M1026.18,0l-39.12,10.29-131.66,34.64-38.36,10.09,26.66,29.36,89.1,98.12,32.79,36.11,8.71-47.99,4.86-26.79,29.62,18.56c47.23,29.6,88.37,65.99,122.27,108.17,34.52,42.95,61.03,91.29,78.78,143.68l.11,.32,.12,.32c22.85,61.69,32.86,126.15,29.74,191.6-3.01,63.31-18.1,124.82-44.86,182.83-15.15,32.85-33.81,63.94-55.46,92.43l-7.34,9.66,3.4,11.64,9.14,31.31,12.67,43.43,28.93-34.78c30.88-37.12,57.64-78.42,79.52-122.74l.12-.25,.12-.25c31.33-67.35,48.46-138.89,50.91-212.66,2.48-74.63-10.19-148.13-37.68-218.47l-.38-.98-.29-1.01c-20.46-70.14-57.67-132.77-117.11-197.11l-.35-.38-.36-.36c-41.68-41.43-90.43-78.25-137.26-103.68l-16.04-8.71,9.09-37.12,9.63-39.29h0Z"/></g><g><path class="e" d="M117.9,889.28l-.85-1.94-1.02-1.86c-33.26-60.66-50.31-127.92-53.62-211.57,.17-56.56,8.25-114.62,22.75-163.62l10.45-35.29-48.54-29.44,117.59-68.61,6.38,132.38-51.59-35.74-15.77,68.71c-13.07,56.96-16.58,114.47-10.44,170.93,6.27,57.6,22.5,113.23,48.24,165.36,28.82,62.74,69.24,118,120.13,164.27,49.19,44.73,106.01,79.16,168.87,102.33,35.75,13.18,72.41,22.33,109.65,27.41l15.68,28.6c-45.93-4.21-92.06-13.99-137.5-29.39-66.72-24.35-126.66-61.14-178.18-109.34-52.13-48.77-93.25-107.05-122.24-173.2Z"/><path d="M164.66,376.96l6.38,132.38-51.59-35.74-15.77,68.71c-13.07,56.96-16.58,114.47-10.44,170.93,6.27,57.6,22.5,113.23,48.24,165.36,28.82,62.74,69.24,118,120.13,164.27,49.19,44.73,106.01,79.16,168.87,102.33,35.75,13.18,72.41,22.33,109.65,27.41l15.68,28.6c-45.93-4.21-92.06-13.99-137.5-29.39-66.72-24.35-126.66-61.14-178.18-109.34-52.13-48.77-93.25-107.05-122.24-173.2l-.85-1.94-1.02-1.86c-33.26-60.66-50.31-127.92-53.62-211.57,.17-56.56,8.25-114.62,22.76-163.62l10.45-35.29-48.54-29.44,117.59-68.61m22.13-40.77l-34.26,19.99-117.59,68.61L0,445.16l34.59,20.98,32.68,19.82-5.18,17.5c-15.13,51.1-23.57,111.61-23.75,170.38v.51l.02,.51c3.47,87.52,21.44,158.12,56.57,222.19l.51,.92,.42,.96c30.3,69.17,73.31,130.1,127.84,181.12,53.89,50.43,116.6,88.91,186.38,114.37l.26,.1,.26,.09c46.82,15.87,94.94,26.15,143.02,30.56l45.05,4.13-21.75-39.67-15.68-28.6-5.83-10.64-12.02-1.64c-35.45-4.83-70.64-13.63-104.58-26.14-59.94-22.1-114.11-54.92-161-97.56-48.48-44.08-86.99-96.74-114.45-156.51l-.14-.31-.15-.3c-24.49-49.6-39.93-102.52-45.89-157.3-5.85-53.79-2.5-108.62,9.97-162.95l7.82-34.07,22.38,15.5,40.09,27.78-2.35-48.72-6.38-132.38-1.91-39.62h0Z"/></g></svg>