<?xml version="1.0" encoding="utf-8"?>
<!-- Generator: Adobe Illustrator 26.2.1, SVG Export Plug-In . SVG Version: 6.00 Build 0)  -->
<svg version="1.1" id="a" xmlns="http://www.w3.org/2000/svg" xmlns:xlink="http://www.w3.org/1999/xlink" x="0px" y="0px"
	 viewBox="0 0 460.8 464.3" style="enable-background:new 0 0 460.8 464.3;" xml:space="preserve">
<style type="text/css">
	.st0{fill:#B3D133;}
	.st1{opacity:0.7;}
	.st2{fill:#FFFFFF;}
	.st3{fill:#390075;}
	.st4{opacity:0.3;}
	.st5{fill:#C3B2D3;}
	.st6{opacity:0.35;}
	.st7{opacity:0.48;}
	.st8{opacity:0.29;}
</style>
<g>
	<g>
		<g>
			<path class="st0" d="M386.4,348.8l-16.3,95.7c-6.6-1.8-13.2-3.5-19.8-5c-0.1,2.3-0.3,4.6-0.6,6.8c-0.1,0.6-0.2,1.3-0.4,1.9v0
				c-1.1,3.6-4,6.3-7.8,7c-3.9,0.8-7.9,1.4-11.9,2c-7.6,1.1-15.4,1.9-23,2.2c-9.1,0.4-18.1,0.3-26.6-0.5c-3.4-0.3-6.3-2.3-7.9-5.2
				c-0.7-1.2-1.1-2.6-1.2-4.1c-0.6-6.8-1.1-13.5-1.6-20.1c-11.8-0.3-23.7-0.2-35.7,0.4c-0.4,6.5-0.9,13.1-1.5,19.8
				c-0.4,4.9-4.3,8.8-9.1,9.2c-9.9,1-20.5,1-31.2,0.2c-10.1-0.7-20.4-2.1-30.3-4c-4.4-0.8-7.7-4.5-8.2-8.9c-0.2-2-0.4-4.1-0.5-6.3
				c-0.6,0.1-1.1,0.2-1.7,0.3c-6.3,1.3-12.6,2.6-18.9,4.1l-12.6-79.4c3.2-32.9,20.6-75.2,37.6-103.6c7.2-12,14.3-21.5,20.2-26.8
				c0,0,14.2-3.7,34.1-7.4c29.7-5.6,72.1-11.1,98.9-4.5c7,1.7,13,4.3,17.3,7.9c12.6,10.4,31.9,25.8,41.5,46.5
				c2.1,4.6,4.1,9.2,6,13.7c9.3,22.2,8.2,47.5,10.4,54.9C386.1,347.8,386.4,348.8,386.4,348.8L386.4,348.8z"/>
			<g class="st1">
				<path class="st2" d="M227.8,353.4c0,0,1.3,64.7-6.6,82.9c0,0,8.3,12.9,9.3,12.8C235.3,448.2,232.1,353.3,227.8,353.4z"/>
			</g>
			<g>
				<path class="st2" d="M306.6,459.5c-9.1,0.4-18.1,0.3-26.6-0.5c-3.4-0.3-6.3-2.3-7.9-5.2C277.9,429.7,300.8,434.6,306.6,459.5
					L306.6,459.5z"/>
				<path class="st3" d="M296.5,460.3c-5.8,0-11.3-0.2-16.5-0.8c-3.5-0.3-6.6-2.4-8.3-5.5l-0.1-0.2l0-0.2
					c2.4-10.1,8.2-16.2,15.5-16.2h0c7.5,0,16.6,6.8,20.1,21.9l0.2,0.7l-0.7,0C303.1,460.2,299.8,460.3,296.5,460.3L296.5,460.3z
					 M272.7,453.7c1.5,2.6,4.2,4.4,7.3,4.7c8,0.8,16.6,1,25.8,0.5c-3-12-10.6-20.3-18.8-20.3h0C280.4,438.6,275.1,444.3,272.7,453.7
					L272.7,453.7z"/>
			</g>
			<path class="st2" d="M349.3,448.2L349.3,448.2c-1.1,3.6-4,6.4-7.8,7.1c-3.9,0.8-7.9,1.4-11.9,2c-7.6,1.1-15.4,1.9-23,2.2
				c-5.5-23.6,18.1-30.5,22.4-8.4C329.1,431.6,350.3,423.6,349.3,448.2L349.3,448.2z"/>
			<path class="st2" d="M195.8,459.5c9.1,0.4,18.1,0.3,26.6-0.5c3.4-0.3,6.3-2.3,7.9-5.2C224.5,429.7,201.6,434.6,195.8,459.5z"/>
			<path class="st2" d="M153.1,448.2L153.1,448.2c1.1,3.6,4,6.4,7.8,7.1c3.9,0.8,7.9,1.4,11.9,2c7.6,1.1,15.4,1.9,23,2.2
				c5.5-23.6-18.1-30.5-22.4-8.4C173.3,431.6,152.1,423.6,153.1,448.2L153.1,448.2z"/>
			<path class="st3" d="M206.3,464.3c-17.5,0-33.9-2.3-45.8-4.6c-6.3-1.2-11.1-6.4-11.9-12.9c-0.1-0.4-0.1-0.9-0.1-1.3
				c-5.2,1.1-10.3,2.2-15.4,3.4c-1.2,0.3-2.5,0-3.6-0.7c-1.1-0.7-1.7-1.8-1.9-3.1L115,365.8c-0.1-0.4-0.1-0.8,0-1.1
				c3.1-32.5,15-93.1,59.3-133.3c0.5-0.5,1.2-0.9,1.9-1c4.9-1.3,120.2-30.9,154.2-3.1c24.5,16.8,42.7,43.2,52.7,76.2
				c7.6,24.9,7.9,44.5,7.9,45.4c0,0.3,0,0.5-0.1,0.8l-16.3,95.7c-0.2,1.3-1,2.4-2,3.1c-1.1,0.7-2.4,0.9-3.7,0.5
				c-4.7-1.3-9.5-2.6-14.5-3.7c-0.1,0.6-0.1,1.1-0.2,1.7c-0.7,6.5-5.5,11.7-11.9,12.9c-15.6,3-39.2,6.1-62.8,3.8
				c-7-0.7-12.6-6.3-13.2-13.4c-0.5-5.8-0.9-11.1-1.3-16.1c-8.9-0.2-18-0.1-27.2,0.3c-0.4,5-0.8,10.2-1.3,15.8
				c-0.6,7.1-6.2,12.7-13.2,13.4C217.6,464,211.9,464.3,206.3,464.3L206.3,464.3z M152.7,435.5c1,0,2,0.3,2.8,1c1,0.8,1.7,2,1.8,3.3
				c0.1,2.2,0.3,4.2,0.5,6c0.3,2.5,2.1,4.5,4.5,5c21.3,4.1,42.7,5.4,60.2,3.7c2.7-0.3,4.8-2.4,5-5.1c0.6-7,1.1-13.5,1.5-19.6
				c0.1-2.3,2-4.1,4.3-4.3c12.2-0.6,24.3-0.7,36.1-0.4c2.4,0.1,4.3,1.9,4.4,4.3c0.4,6.1,0.9,12.6,1.5,20c0.2,2.7,2.4,4.9,5,5.1
				c17.5,1.7,38.9,0.4,60.2-3.7c2.4-0.5,4.2-2.5,4.5-5c0.2-2.2,0.4-4.4,0.5-6.5c0.1-1.3,0.7-2.6,1.8-3.4c1.1-0.8,2.4-1.1,3.7-0.8
				c5.2,1.2,10.2,2.4,15.2,3.7l15.4-90.3c-0.2-5.9-3.6-77.5-56.8-113.9c-0.1-0.1-0.2-0.2-0.3-0.2c-24.8-20.6-112.1-3.9-145.1,4.5
				c-41.1,37.9-52.4,94.9-55.4,126.1l11.8,74.1c5.3-1.2,10.6-2.3,16-3.4C152.1,435.6,152.4,435.5,152.7,435.5L152.7,435.5z"/>
			<g class="st1">
				<path class="st2" d="M333.1,353.4c0,0,7.1,42.3,7.5,77.5l7.5,2.7C348.1,433.5,348.3,374.8,333.1,353.4L333.1,353.4z"/>
			</g>
			<path class="st3" d="M233.6,434.5c-0.1,0-0.2,0-0.3,0c-2.5-0.2-4.4-2.3-4.2-4.8c1.9-29.3,1.3-53.8-1.7-77.1
				c-0.3-2.5,1.4-4.8,3.9-5.1c2.5-0.3,4.8,1.4,5.1,3.9c3.1,23.9,3.7,49,1.8,78.9C238,432.7,236,434.5,233.6,434.5L233.6,434.5z"/>
			<path class="st3" d="M152.7,444.6c-2.4,0-4.4-1.9-4.5-4.3c-1.8-31.3,6.9-72.1,16.4-93.6c1-2.3,3.7-3.3,6-2.3c2.3,1,3.3,3.7,2.3,6
				c-9,20.5-17.3,59.5-15.6,89.4c0.1,2.5-1.8,4.7-4.3,4.8C152.9,444.6,152.8,444.6,152.7,444.6L152.7,444.6z"/>
			<path class="st3" d="M196.3,462.7c-0.2,0-0.5,0-0.7-0.1c-1.8-0.4-2.8-2.1-2.4-3.9c1.7-7.2,0.5-13.3-3.2-16.3c-2-1.6-4.4-2-6.6-1
				c-3,1.4-5.1,4.9-6.2,9.9c0,2.1-0.2,4.2-0.7,6.5c-0.3,1.6-1.9,2.8-3.6,2.6c-1.7-0.2-2.9-1.6-2.9-3.3c0.1-2.2,0.3-4.4,0.6-6.3
				c-0.1-6.3-2.7-11.1-5.8-13.4c-0.8-0.6-3-2-4.8-1c-1.8,0.9-3.6,4.5-3.3,11.7c0.1,1.8-1.3,3.3-3.1,3.4c-1.8,0.1-3.3-1.3-3.4-3.1
				c-0.5-12,4-16.2,6.7-17.7c3.5-1.9,7.9-1.2,11.7,1.6c2.3,1.7,4.6,4.4,6.1,8c1.6-2.1,3.5-3.7,5.7-4.7c4.5-2.1,9.5-1.4,13.4,1.8
				c2.3,1.9,4,4.4,5.1,7.4c4.4-6.3,10.3-10,16.7-10h0c8.6,0,15.3,6.8,18.1,18.2c0.4,1.7-0.7,3.5-2.4,3.9c-1.7,0.4-3.5-0.7-3.9-2.4
				c-2-8.3-6.4-13.2-11.8-13.2h0c-5.8,0-13.3,5.9-16.4,18.9C199.2,461.7,197.8,462.7,196.3,462.7L196.3,462.7z"/>
			<path class="st3" d="M269.3,434.1c-2.4,0-4.4-1.9-4.5-4.3c-1.9-29.7-1.3-54.6,1.8-78.5c0.3-2.5,2.6-4.2,5.1-3.9
				c2.5,0.3,4.2,2.6,3.9,5.1c-3,23.3-3.6,47.7-1.8,76.8c0.2,2.5-1.7,4.7-4.2,4.8C269.5,434.1,269.4,434.1,269.3,434.1L269.3,434.1z"
				/>
			<path class="st3" d="M350.3,444.1c-0.1,0-0.2,0-0.2,0c-2.5-0.1-4.4-2.3-4.3-4.8c1.6-29.8-6.7-68.6-15.6-88.9c-1-2.3,0-5,2.3-6
				c2.3-1,5,0,6,2.3c9.4,21.2,18,61.8,16.4,93C354.7,442.2,352.7,444.1,350.3,444.1L350.3,444.1z"/>
			<path class="st3" d="M306.6,462.7c-1.5,0-2.8-1-3.2-2.5l0,0c-3-13-10.6-18.9-16.4-18.9c-5.4,0-9.8,4.9-11.8,13.2
				c-0.4,1.8-2.2,2.8-3.9,2.4c-1.8-0.4-2.8-2.2-2.4-3.9c2.7-11.4,9.5-18.2,18.1-18.2h0c6.4,0,12.3,3.8,16.7,10c1-3,2.8-5.6,5.1-7.4
				c3.9-3.2,8.9-3.9,13.4-1.8c2.2,1,4.1,2.6,5.7,4.7c1.6-3.6,3.9-6.3,6.1-8c3.8-2.9,8.2-3.5,11.7-1.6c2.7,1.4,7.2,5.6,6.7,17.7
				c-0.1,1.8-1.6,3.2-3.4,3.1c-1.8-0.1-3.2-1.6-3.1-3.4c0.3-7.2-1.5-10.7-3.3-11.7c-1.8-1-4,0.4-4.8,1c-3.1,2.3-5.7,7.1-5.8,13.4
				c0.4,2,0.6,4.1,0.6,6.3c0,1.7-1.2,3.1-2.9,3.3c-1.7,0.2-3.2-0.9-3.5-2.6c-0.5-2.3-0.7-4.5-0.7-6.5c-1-5-3.2-8.5-6.2-9.9
				c-2.2-1-4.6-0.7-6.6,1c-3.7,3-4.9,9.1-3.2,16.3c0.4,1.8-0.7,3.5-2.4,3.9C307.1,462.7,306.8,462.8,306.6,462.7L306.6,462.7z"/>
			<g class="st4">
				<path class="st3" d="M166.8,353.1l-28.1,23.7c0,0,9.6,38.4-5,65.7l18.1-4.5C153.3,409.4,157.8,381,166.8,353.1L166.8,353.1z"/>
			</g>
			<g class="st4">
				<path class="st3" d="M234.2,378.3c9.8,10.4,20.7,13.2,34.1,0l-1,48.7h-31L234.2,378.3L234.2,378.3z"/>
			</g>
			<g class="st4">
				<path class="st3" d="M192.6,458.6c0,0-0.3,0.2-0.9,0.6c-10.1-0.7-20.4-2.1-30.3-4c-4.4-0.8-7.7-4.5-8.2-8.9
					c-0.2-2-0.4-4.1-0.5-6.3c-0.6,0.1-1.1,0.2-1.7,0.3L151,440l15.1-87.2c0,0,21.9-5.8,15.4,40.9S170.7,453.5,192.6,458.6
					L192.6,458.6z"/>
			</g>
			<g class="st4">
				<path class="st3" d="M271.3,359.2c0,0,19.8-11.5,20.2,17.1c0.4,28.6-8.1,81.7,24.3,81.6l-31.7,3.7l-14.5-10.1L271.3,359.2
					L271.3,359.2z"/>
			</g>
		</g>
		<g>
			<g>
				<path class="st0" d="M118.5,453.8c-25.9,7.2-55-16.2-64.9-52.2c-2.9-10.6-3.3-21.2-1.7-31c1.4-8.6,4.4-16.5,8.5-23.4
					c5.2-8.8,12.2-15.8,20.1-20.2c2.8-1.5,5.8-2.8,8.8-3.6c14-3.9,27,1.8,36.8,13.4c8.4,9.9,14.4,24,16.9,40.3
					C148.7,414.1,144.3,446.6,118.5,453.8L118.5,453.8z"/>
				<path class="st3" d="M108.9,455.7c-23.4,0-47.2-22.1-56-53.9c-2.8-10.3-3.4-20.8-1.7-31.2c1.4-8.4,4.4-16.5,8.6-23.6
					c5.3-8.9,12.3-16,20.3-20.4c2.9-1.6,5.9-2.8,8.9-3.7c13.5-3.8,26.8,1.1,37.4,13.6c8.5,10.1,14.6,24.5,17.1,40.6
					c4.7,30.8,4.2,69.2-25,77.3C115.4,455.2,112.2,455.7,108.9,455.7L108.9,455.7z M98,322.8c-2.8,0-5.7,0.4-8.6,1.2
					c-2.9,0.8-5.8,2-8.6,3.5c-7.8,4.3-14.7,11.2-19.9,19.9c-4.1,7-7.1,15-8.4,23.2c-1.7,10.3-1.2,20.6,1.6,30.7
					c8.7,31.3,32,53,54.8,53c3.2,0,6.3-0.4,9.4-1.3c28.4-7.9,28.8-45.6,24.1-75.9c-2.4-15.9-8.4-30.1-16.8-40
					C117.6,327.8,108,322.8,98,322.8L98,322.8z"/>
			</g>
			<g class="st1">
				<path class="st2" d="M118.6,453.7c18.5-11.3,21.3-40.5,16.3-73.1c-2.5-16.3-8.6-30.5-16.9-40.3c-9.8-11.6-22.8-17.3-36.8-13.4
					c-0.3,0.1-0.7,0.2-1,0.3c0.1-0.1,0.2-0.1,0.3-0.2c2.8-1.5,5.8-2.8,8.8-3.6c14-3.9,27,1.8,36.8,13.4c8.4,9.9,14.4,24,16.9,40.3
					C148.7,414,144.4,446.4,118.6,453.7L118.6,453.7z"/>
			</g>
			<g>
				<path class="st2" d="M51.9,370.6c1.4-8.6,4.4-16.5,8.5-23.4C75.3,362.3,68,379.4,51.9,370.6z"/>
				<path class="st3" d="M60,373.6c-2.5,0-5.4-0.8-8.5-2.5l-0.4-0.2l0.1-0.4c1.4-8.4,4.4-16.5,8.6-23.6l0.4-0.7l0.5,0.5
					c8.9,9.1,9.9,18.7,6.3,23.5C65.4,372.5,63,373.7,60,373.6L60,373.6z M52.5,370.3c5.9,3.1,11,2.8,13.7-0.7
					c3.2-4.3,2.3-13-5.7-21.4C56.6,354.9,53.9,362.5,52.5,370.3z"/>
			</g>
			<g>
				<path class="st2" d="M80.5,327.1c8.9,21.3-1.2,33.9-20.1,20.2C65.6,338.5,72.5,331.4,80.5,327.1z"/>
				<path class="st3" d="M74.3,353.6c-4.1,0-9-2-14.3-5.9l-0.4-0.3l0.3-0.5c5.3-8.9,12.3-16,20.3-20.4l0.6-0.3l0.2,0.6
					c4.7,11.2,4.4,20.7-0.7,24.8C78.6,352.9,76.6,353.6,74.3,353.6L74.3,353.6z M61.2,347.1c7.7,5.5,14.4,6.8,18.4,3.6
					c4.6-3.6,4.8-12.5,0.6-22.8C72.7,332.1,66.2,338.8,61.2,347.1z"/>
			</g>
			<g class="st4">
				<path class="st3" d="M141.2,431.2c-4,11.3-11.2,19.4-22.7,22.6c-25.9,7.2-55-16.2-64.9-52.2c-2.9-10.6-3.3-21.2-1.7-31
					c1.4-8.6,4.4-16.5,8.5-23.4c1.7-2.9,3.7-5.7,5.8-8.2c-2.3,5.1-3.9,10.7-4.9,16.5c-1.6,9.8-1.3,20.3,1.7,31
					c10,36,39.1,59.3,64.9,52.2C133.2,437.2,137.6,434.6,141.2,431.2L141.2,431.2z"/>
			</g>
			<g>
				<path class="st2" d="M126.1,336.8c-4.8,14.8-24.7,10.5-19.1-13.3c-5.8,22.3-19.5,18.1-26.5,3.5c2.8-1.5,5.8-2.8,8.8-3.6
					C103.3,319.6,116.2,325.2,126.1,336.8L126.1,336.8z"/>
				<path class="st3" d="M116.1,346c-0.8,0-1.6-0.1-2.4-0.3c-4.8-1.3-8.7-6.6-8.3-15.7c-2.6,6-6.2,9.4-10.3,9.8
					c-5.5,0.5-11.3-4.2-15.2-12.4l-0.2-0.5l0.5-0.3c2.9-1.6,5.9-2.8,8.9-3.7c13.5-3.8,26.8,1.1,37.4,13.6l0.2,0.2l-0.1,0.3
					C124.6,343.2,120.2,346,116.1,346L116.1,346z M107.4,324.3c-2.6,12,1.4,18.8,6.6,20.2c4,1.1,9.2-1.1,11.4-7.6
					C120,330.7,113.9,326.4,107.4,324.3z M81.3,327.3c3.7,7.4,8.9,11.7,13.7,11.2c4.8-0.5,8.8-5.6,11.3-14.6
					c-5.4-1.5-11.1-1.5-16.8,0.1C86.7,324.8,83.9,325.9,81.3,327.3z"/>
			</g>
			<path class="st3" d="M109,459.5c-25.1,0-50.4-23.2-59.7-56.7c-5-17.9-3.3-36.7,4.7-53c7.6-15.5,20.1-26.7,34.1-30.6
				c10.4-2.9,20.9-1.2,30.2,4.9c14.6,9.5,25.5,29.1,29.1,52.5l0,0c7.1,46.3-2.5,74.5-27.7,81.5C116.1,459,112.6,459.5,109,459.5
				L109,459.5z M98,326.6c-2.5,0-5.1,0.4-7.6,1.1c-11.6,3.2-22,12.7-28.5,26c-7.1,14.4-8.5,31-4.1,46.8
				c8.2,29.6,29.9,50.2,51.1,50.2c2.8,0,5.7-0.4,8.4-1.1c25.7-7.1,25.8-42.9,21.4-71.7l0,0c-3.2-20.9-12.6-38.3-25.1-46.4
				C108.5,328.3,103.4,326.7,98,326.6L98,326.6z"/>
			<path class="st3" d="M60,376.2c-2.8,0-6-0.8-9.6-2.8c-1.5-0.8-2.1-2.8-1.3-4.3c0.8-1.5,2.7-2.1,4.3-1.3c4.8,2.6,8.8,2.7,10.8,0.2
				c2.6-3.5,1.4-11.1-6-18.6c-1.2-1.2-1.2-3-0.2-4.3c1.1-1.2,2.9-1.5,4.2-0.5c6.8,5,12.7,6.5,15.8,4c3.1-2.4,4.1-9.7-0.4-20.4
				c-0.7-1.6,0.1-3.4,1.6-4.1c1.6-0.7,3.4,0,4.1,1.5c3.1,6.5,7.7,10.6,11.4,10.3c3.7-0.4,7.1-5.2,9.2-13.2c0.4-1.7,2.1-2.7,3.8-2.3
				c1.7,0.4,2.7,2.1,2.3,3.8c-2.5,10.6,0.7,16.6,4.7,17.8c2.8,0.8,6.6-0.8,8.4-6.2c0.5-1.7,2.3-2.6,4-2c1.7,0.5,2.6,2.3,2,4
				c-2.9,8.9-10.3,12-16.1,10.3c-4.2-1.2-7.8-4.6-9.4-10.4c-2.8,3.1-5.8,4.2-8.3,4.5c-2.9,0.3-5.8-0.6-8.5-2.4
				c0.3,6-1.4,10.9-5,13.8c-3.1,2.5-7.3,3.1-12,1.9c2.8,6.7,2,12.7-0.8,16.3C67.3,374.3,64.2,376.2,60,376.2L60,376.2z"/>
		</g>
		<g>
			<g>
				<path class="st0" d="M388.7,453.8c25.9,7.2,55-16.2,65-52.2c3-10.6,3.3-21.2,1.6-31c-1.5-8.6-4.4-16.5-8.5-23.4
					c-5.2-8.8-12.2-15.8-20.1-20.2c-2.8-1.5-5.8-2.8-8.8-3.6c-14-3.9-27,1.8-36.8,13.4c-8.4,9.9-14.5,24-17,40.3
					C358.5,414.1,362.8,446.6,388.7,453.8L388.7,453.8z"/>
				<path class="st3" d="M398.3,455.7c-3.2,0-6.5-0.4-9.7-1.3c-29.2-8.1-29.7-46.5-25-77.3c2.5-16.1,8.5-30.6,17.1-40.6
					c10.6-12.5,23.9-17.3,37.4-13.6c3,0.8,6,2.1,8.9,3.7c8,4.4,15,11.5,20.3,20.4c4.2,7.1,7.2,15.2,8.6,23.6
					c1.8,10.4,1.2,20.9-1.7,31.2C445.4,433.6,421.6,455.7,398.3,455.7L398.3,455.7z M388.9,453.2c25.5,7.1,54.3-16.1,64.2-51.8
					c2.8-10.1,3.4-20.5,1.6-30.7c-1.4-8.2-4.3-16.3-8.4-23.2c-5.2-8.7-12-15.6-19.9-19.9c-2.8-1.6-5.7-2.8-8.6-3.5
					c-13.1-3.6-25.9,1.1-36.2,13.2c-8.4,9.9-14.4,24.1-16.8,40C360.1,407.6,360.5,445.3,388.9,453.2L388.9,453.2z"/>
			</g>
			<g class="st4">
				<path class="st3" d="M422.2,447.5c-10.5,6.8-22.3,9.4-33.4,6.3c-25.9-7.2-30.2-39.7-24.6-76.6c2.5-16.3,8.6-30.5,17-40.3
					c6.4-7.5,14-12.5,22.5-14.1c-2.9,2.1-5.7,4.7-8.2,7.7c-8.4,9.9-14.5,24-17,40.3c-5.7,36.9-1.3,69.4,24.6,76.6
					C409.3,449.2,415.8,449.1,422.2,447.5L422.2,447.5z"/>
			</g>
			<g class="st1">
				<path class="st2" d="M453.7,401.6c-9.1,32.9-34.2,55.2-58.2,53.3c20.5-4.2,39.9-24.6,47.7-52.7c3-10.6,3.3-21.2,1.6-31
					c-1.5-8.6-4.4-16.5-8.5-23.4c-5.2-8.8-12.2-15.8-20.1-20.2c-2.8-1.5-5.8-2.8-8.8-3.6c-1.8-0.5-3.6-0.8-5.4-1
					c5.1-1.2,10.5-1.2,16,0.4c3,0.8,6,2,8.8,3.6c7.9,4.4,14.9,11.4,20.1,20.2c4.1,6.9,7.1,14.9,8.5,23.4
					C457,380.4,456.6,391,453.7,401.6L453.7,401.6z"/>
			</g>
			<g>
				<path class="st2" d="M455.3,370.6c-1.5-8.6-4.4-16.5-8.5-23.4C431.9,362.3,439.2,379.4,455.3,370.6z"/>
				<path class="st3" d="M447.2,373.6c-2.9,0-5.4-1.1-7.1-3.4c-3.6-4.8-2.6-14.4,6.3-23.5l0.5-0.5l0.4,0.7
					c4.2,7.1,7.2,15.2,8.6,23.6l0.1,0.4l-0.4,0.2C452.6,372.8,449.7,373.6,447.2,373.6L447.2,373.6z M446.7,348.2
					c-8,8.4-8.9,17.1-5.7,21.4c2.7,3.6,7.8,3.8,13.7,0.7C453.3,362.5,450.6,354.9,446.7,348.2z"/>
			</g>
			<g>
				<path class="st2" d="M426.7,327.1c-8.9,21.3,1.2,33.9,20.1,20.2C441.6,338.5,434.7,331.4,426.7,327.1L426.7,327.1z"/>
				<path class="st3" d="M432.8,353.6c-2.3,0-4.3-0.6-6-1.9c-5.1-4.1-5.4-13.6-0.7-24.8l0.2-0.6l0.6,0.3c8,4.4,15,11.5,20.3,20.4
					l0.3,0.5l-0.4,0.3C441.8,351.6,436.9,353.6,432.8,353.6L432.8,353.6z M427,327.9c-4.2,10.3-3.9,19.2,0.6,22.8
					c4,3.2,10.7,1.8,18.4-3.6C441,338.7,434.5,332.1,427,327.9z"/>
			</g>
			<g>
				<path class="st2" d="M381.1,336.8c4.8,14.8,24.7,10.5,19.1-13.3c5.8,22.3,19.5,18.1,26.5,3.5c-2.8-1.5-5.8-2.8-8.8-3.6
					C403.9,319.6,390.9,325.2,381.1,336.8L381.1,336.8z"/>
				<path class="st3" d="M391.1,346c-4.1,0-8.6-2.8-10.6-9l-0.1-0.3l0.2-0.2c10.6-12.5,23.9-17.3,37.4-13.6c3,0.8,6,2.1,8.9,3.7
					l0.5,0.3l-0.2,0.5c-3.9,8.2-9.7,12.9-15.1,12.4c-4.2-0.4-7.7-3.8-10.3-9.8c0.5,9.1-3.5,14.4-8.3,15.7
					C392.7,345.9,391.9,346,391.1,346L391.1,346z M381.8,337c2.2,6.4,7.4,8.7,11.4,7.6c5.2-1.5,9.2-8.3,6.6-20.2
					C393.3,326.4,387.2,330.6,381.8,337L381.8,337z M400.9,324c2.4,9,6.4,14.1,11.3,14.6s10.1-3.8,13.7-11.2
					c-2.7-1.4-5.4-2.5-8.1-3.3C412.1,322.4,406.4,322.4,400.9,324L400.9,324z"/>
			</g>
			<path class="st3" d="M398.4,459.5c-3.6,0-7.3-0.5-10.8-1.5c-25.2-7-34.9-35.2-27.8-81.5c3.6-23.4,14.5-43,29.1-52.5
				c9.4-6.1,19.8-7.7,30.2-4.9c27.2,7.6,49.9,43.7,38.8,83.6c-5.1,18.3-15,34.1-28,44.5C419.9,455.3,409,459.5,398.4,459.5
				L398.4,459.5z M409.2,326.6c-5.3,0-10.5,1.6-15.5,4.8c-12.5,8.1-21.9,25.4-25.1,46.4l0,0c-4.4,28.8-4.3,64.6,21.4,71.7
				c11.1,3.1,23.4-0.1,34.5-9.1c11.5-9.3,20.4-23.5,25-40c9.4-33.8-9.5-66.3-32.7-72.7C414.2,327,411.7,326.6,409.2,326.6
				L409.2,326.6z M364.2,377.2L364.2,377.2z"/>
			<path class="st3" d="M447.2,376.2c-4.2,0-7.4-1.9-9.2-4.4c-2.8-3.7-3.6-9.6-0.8-16.3c-4.7,1.2-8.8,0.6-12-1.9
				c-3.6-2.8-5.3-7.7-5-13.8c-2.7,1.8-5.6,2.6-8.5,2.4c-2.5-0.2-5.5-1.3-8.3-4.5c-1.6,5.7-5.2,9.2-9.4,10.4
				c-5.8,1.6-13.2-1.4-16.1-10.3c-0.5-1.7,0.4-3.4,2-4c1.7-0.5,3.4,0.4,4,2c1.7,5.4,5.6,7,8.4,6.2c4-1.1,7.2-7.1,4.7-17.8
				c-0.4-1.7,0.6-3.4,2.3-3.8s3.4,0.6,3.8,2.3c2.1,8,5.4,12.9,9.2,13.2s8.3-3.8,11.4-10.3c0.7-1.5,2.6-2.2,4.1-1.5
				c1.6,0.7,2.3,2.5,1.6,4.1c-4.5,10.8-3.5,18-0.4,20.4c3.1,2.4,9,0.9,15.8-4c1.3-1,3.2-0.8,4.2,0.5c1.1,1.2,1,3.1-0.1,4.3
				c-7.4,7.5-8.6,15.2-6,18.6c1.9,2.5,5.9,2.5,10.8-0.2c1.5-0.8,3.4-0.3,4.3,1.3s0.3,3.4-1.3,4.3C453.2,375.4,450,376.2,447.2,376.2
				L447.2,376.2z"/>
		</g>
	</g>
	<g>
		<path class="st4" d="M363.4,279.1c-21.4,9.7,1.7-13-28.3,4.4c-25.7,14.9-50.5,13.8-65.1-2.2c0.9,7.4,2.8,14.7,6.1,21
			c12.9,24.4,41.7,28.8,71.6,11.4s9-5,30.3-14.7"/>
	</g>
	<g>
		<g>
			<g>
				<g>
					<g>
						<path class="st5" d="M153.4,63.9L151,92.7l-17.6-1.4l-0.4,4.4c-0.5,6.6-6.3,11.5-12.9,11l-7.6-0.6c-6.6-0.5-11.5-6.3-11-12.9
							l3-36.9c0.5-6.6,6.3-11.5,12.9-11l7.6,0.6c6.6,0.5,11.5,6.3,11,12.9l-0.3,3.7C135.8,62.5,153.4,63.9,153.4,63.9z"/>
						<g class="st1">
							<path class="st2" d="M141.3,64.9l-0.3,3.7l11.9,1l0.5-5.7l-12.1-1C141.4,63.6,141.4,64.3,141.3,64.9L141.3,64.9z"/>
							<path class="st2" d="M106.9,99.3l3-36.9c0.5-6.6,6.3-11.5,12.9-11l7.6,0.6c1.8,0.1,3.5,0.7,5,1.5c-1.6-4.2-5.5-7.4-10.2-7.7
								l-7.6-0.6c-6.6-0.5-12.4,4.4-12.9,11l-3,36.9c-0.4,4.8,2.1,9.1,6,11.4C107,102.8,106.7,101.1,106.9,99.3z"/>
						</g>
						<g class="st4">
							<path class="st3" d="M145.3,63.3l-0.5,6.4c-0.6,7.3-7,12.7-14.3,12.2l0,0c-2.4-0.2-4.5,1.6-4.7,4l0,0
								c-0.5,6.6-6.3,11.5-12.9,11l-7.6-0.6c-1.3-0.1-2.5-0.4-3.6-0.9c0.6,5.6,5.1,10.2,10.9,10.7l7.6,0.6c6.6,0.5,12.4-4.4,12.9-11
								l0.4-4.4l17.6,1.4l2.3-28.8L145.3,63.3L145.3,63.3z"/>
						</g>
						<path class="st3" d="M119.8,110.6l-7.6-0.6c-8.8-0.7-15.4-8.4-14.6-17.2l3-36.9c0.7-8.8,8.4-15.4,17.2-14.6l7.6,0.6
							c8.7,0.7,15.2,8.3,14.7,16.9l13.6,1.1c2.2,0.2,3.9,2.1,3.7,4.3L155.1,93c-0.2,2.2-2.1,3.9-4.3,3.7l-13.6-1.1l0,0.4
							C136.4,104.7,128.6,111.3,119.8,110.6L119.8,110.6z M117.2,49.3c-4.4-0.4-8.2,2.9-8.5,7.3l-3,36.9c-0.4,4.4,2.9,8.2,7.3,8.6
							l7.6,0.6c4.4,0.4,8.2-2.9,8.6-7.3l0.4-4.4c0.2-2.2,2.1-3.9,4.3-3.7l13.6,1.1l1.7-20.7l-13.6-1.1c-2.2-0.2-3.9-2.1-3.7-4.3
							l0.3-3.7c0.4-4.4-2.9-8.2-7.3-8.5L117.2,49.3L117.2,49.3z"/>
					</g>
					<path class="st0" d="M9.2,398.1C37.5,269,119.8,147.8,119.8,147.9c0.6-135,83.9-161,151-131.4l151.3,109.4
						c2.9,55-82.4,136.7-209.1,139.6C86.8,274.8,60.6,393.5,60.6,393.5l-18.9-33.9L9.2,398.1L9.2,398.1z"/>
					<g class="st6">
						<path class="st2" d="M29,376c33.5-115.9,102.1-217,102.1-217C131.7,24,215-2,282.1,27.6l140.6,101.6c0-0.9,0-1.9-0.1-2.8
							L271.3,17.1c-67-29.6-150.4-3.6-151,131.4c0,0-82.3,121.1-110.6,250.3L29,376L29,376z"/>
						<path class="st2" d="M53,370.8l-3,3.5l11.1,19.9c0,0,0.5-2.2,1.6-5.9L53,370.8L53,370.8z"/>
					</g>
					<g>
						<path class="st3" d="M306.9,38.8c32.5,20.8,58.3,45.1,58.3,45.1l14.7,9.3l7.2,4.6c9.2,18.7,12.4,39,6.9,59.6l-15.2,11.4
							l8.9-44.3l-36.2,27l8.8-43.6l-35.7,26.6l8.2-40.4l-33.1,24.7l8.8-43.6l-35.7,26.6l9.1-44.9l-36.7,27.4l7.4-36.6l-29.9,22.3
							l8.9-44.3l-36.2,27l8.7-43.2c13.1-2.5,27.1-2.9,41.3-1.4l5.3,3.3C250.7,11.4,274.5,18,306.9,38.8L306.9,38.8z"/>
						<path class="st3" d="M203.4,9.5l-34.9,26l2.8-14.1C181.1,15.7,192,11.8,203.4,9.5z"/>
					</g>
					<g>
						<path class="st3" d="M127.9,81.1L355,108.5c1.5,0.2,3-1.2,3.2-3c0.2-1.8-0.8-3.5-2.4-3.7L128.7,74.5c-1.5-0.2-3,1.2-3.2,3
							C125.3,79.3,126.4,81,127.9,81.1z"/>
						<path class="st3" d="M331.7,118.6c2.2,0.3,4.2-1.7,4.6-4.3l2.8-23.3c0.3-2.6-1.2-5-3.4-5.3s-4.2,1.7-4.6,4.3l-2.8,23.3
							C328,116,329.5,118.4,331.7,118.6z"/>
						<path class="st3" d="M297.4,114.5c2.2,0.3,4.2-1.7,4.6-4.3l2.8-23.3c0.3-2.6-1.2-5-3.4-5.3s-4.2,1.7-4.6,4.3l-2.8,23.3
							C293.7,111.9,295.2,114.2,297.4,114.5z"/>
						<path class="st3" d="M260,110c2.2,0.3,4.2-1.7,4.6-4.3l2.8-23.3c0.3-2.6-1.2-5-3.4-5.3c-2.2-0.3-4.2,1.7-4.6,4.3l-2.8,23.3
							C256.2,107.4,257.8,109.7,260,110z"/>
						<path class="st3" d="M153.6,97.2c2.2,0.3,4.2-1.7,4.6-4.3l2.8-23.3c0.3-2.6-1.2-5-3.4-5.3c-2.2-0.3-4.2,1.7-4.6,4.3l-2.8,23.3
							C149.9,94.6,151.4,96.9,153.6,97.2z"/>
						<path class="st3" d="M187.9,101.3c2.2,0.3,4.2-1.7,4.6-4.3l2.8-23.3c0.3-2.6-1.2-5-3.4-5.3c-2.2-0.3-4.2,1.7-4.6,4.3
							l-2.8,23.3C184.2,98.7,185.7,101.1,187.9,101.3z"/>
						<path class="st3" d="M222.3,105.4c2.2,0.3,4.2-1.7,4.6-4.3l2.8-23.3c0.3-2.6-1.2-5-3.4-5.3c-2.2-0.3-4.2,1.7-4.6,4.3
							l-2.8,23.3C218.5,102.8,220.1,105.2,222.3,105.4z"/>
					</g>
					<path class="st3" d="M0,417.6l3.8-20.5C17,326.9,46.6,262,69.1,219.9c12.7-23.8,24.6-43,32.4-54.9c7-10.7,10.7-16.2,12.9-19
						c1.5-80,30.8-115.5,55.3-131.2C198.4-3.7,236.1-4.9,273,11.4l0.5,0.2l153.9,111.2l0.1,2.6c1.2,22-10.2,47.2-32.1,70.7
						c-41.8,45.1-109.9,73-182.2,74.6c-50.4,3.8-90.5,25.7-119.1,65c-21.5,29.6-28.2,58.6-28.2,58.8l-3.1,14.1l-22-39.5L0,417.6z
						 M123.3,152.5C114.4,164.8,46.5,262,19.1,377.9L42.6,350L59,379.5c4.1-11.9,12.1-30.5,26-49.7c21.1-29.1,60.3-64.9,127.6-69.9
						l0.3,0c69.4-1.6,134.7-28.2,174.5-71.1c18.6-20.1,29.2-41.8,29.2-60.1L268.1,21.2c-33.3-14.5-67-13.5-92.5,2.9
						c-22.4,14.4-49.2,47.5-50.2,123.8l0,3.8L123.3,152.5L123.3,152.5z"/>
					<g>
						<path class="st0" d="M257.9,237.8c0,0,7.6,41.2,29,58.6c21.4,17.4,49.6,10.2,70.4-17.6c20.8-27.8,29.1-56.6,44.9-73.8
							c15.8-17.3,55.6-25.4,51.5-58.9c-4.1-33.5-15.4-56-51.8-66.8S279,94.8,279,94.8L257.9,237.8L257.9,237.8z"/>
						<g class="st7">
							<path class="st2" d="M378.9,89.2c39.7,12.6,52.5,37,57.8,72.9c0.8,5.7,0.5,10.6-0.8,15.1c8.9-7.7,15.2-17.4,13.4-31.7
								c-4.1-33.5-15.4-56-51.8-66.8s-123,15.5-123,15.5l-0.2,1.6C305,89.1,353.2,81,378.9,89.2L378.9,89.2z"/>
						</g>
						<path class="st3" d="M307.2,310.5c-8.2-1-16.1-4.3-23.1-10c-2.7-1.5-14.9-9.4-23.3-27.8c-12-26.4-10.6-61,4.1-102.9l9.4,3.3
							c-13.5,38.4-15.2,71.2-4.8,94.8c7.7,17.5,19.5,24,19.6,24l0.4,0.2l0.4,0.3c7.9,6.4,17.1,9.2,26.5,8
							c12.9-1.6,26-10.4,36.7-24.7c9.9-13.3,17.1-27.1,23.5-39.4c6.8-13.1,13.3-25.5,21.8-34.8c5.4-5.9,12.9-10.6,20.9-15.5
							c16.3-10.1,31.7-19.6,29.3-39.4c-3.8-30.9-13.2-52.2-48.3-62.7C366,73.7,281.3,99.3,280.4,99.6l-2.9-9.6
							c3.6-1.1,88.4-26.7,125.9-15.6c42.5,12.7,51.7,41.7,55.4,71c3.2,26.2-17.4,38.9-34,49.2c-7.3,4.5-14.3,8.8-18.8,13.7
							c-7.6,8.3-13.5,19.6-20.3,32.7c-6.5,12.6-13.9,26.8-24.3,40.8c-12.4,16.5-27.8,26.7-43.5,28.7
							C314.3,310.9,310.7,310.9,307.2,310.5L307.2,310.5z"/>
					</g>
					<g>
						<path class="st5" d="M279.5,76l-6.5,31.6l19.4,4l-1,4.8c-1.5,7.2,3.2,14.3,10.4,15.8l8.4,1.7c7.2,1.5,14.3-3.2,15.8-10.4
							l8.3-40.5c1.5-7.2-3.2-14.3-10.4-15.8l-8.4-1.7c-7.2-1.5-14.3,3.2-15.8,10.4l-0.8,4.1L279.5,76L279.5,76z"/>
						<g class="st1">
							<path class="st2" d="M292.1,80.9l-0.8,4.1l-13.1-2.7l1.3-6.3l13.2,2.7C292.5,79.4,292.3,80.1,292.1,80.9L292.1,80.9z"/>
							<path class="st2" d="M318.4,128.5l8.3-40.5c1.5-7.2-3.2-14.3-10.4-15.8l-8.4-1.7c-2-0.4-4-0.3-5.8,0.1c3-4,8.2-6.2,13.4-5.1
								l8.4,1.7c7.2,1.5,11.9,8.6,10.4,15.8l-8.3,40.5c-1.1,5.3-5.1,9.1-10,10.3C317.2,132.3,318,130.5,318.4,128.5L318.4,128.5z"/>
						</g>
						<g class="st4">
							<path class="st3" d="M288.4,77.8l-1.4,7c-1.7,8,3.5,15.9,11.6,17.5l0,0c2.7,0.5,4.4,3.1,3.8,5.8l0,0
								c-1.5,7.2,3.2,14.3,10.4,15.8l8.4,1.7c1.4,0.3,2.8,0.3,4.2,0.2c-2.4,5.9-8.7,9.4-15.1,8.1l-8.4-1.7
								c-7.2-1.5-11.9-8.6-10.4-15.8l1-4.8l-19.4-4l6.5-31.6L288.4,77.8L288.4,77.8z"/>
						</g>
						<path class="st3" d="M287,115.5l0.1-0.4l-15-3.1c-2.4-0.5-4-2.9-3.5-5.3l6.5-31.6c0.5-2.4,2.9-4,5.3-3.5l15,3.1
							c2.1-9.5,11.5-15.6,21.1-13.6l8.4,1.7c9.7,2,15.9,11.5,13.9,21.1l-8.3,40.5c-2,9.7-11.5,15.9-21.1,13.9l-8.4-1.7
							C291.3,134.6,285,125.2,287,115.5L287,115.5z M314.6,69.9c-4.8-1-9.5,2.1-10.5,6.9l-0.8,4.1c-0.5,2.4-2.9,4-5.3,3.5l-15-3.1
							l-4.7,22.8l15,3.1c2.4,0.5,4,2.9,3.5,5.3l-1,4.8c-1,4.8,2.1,9.5,6.9,10.5l8.4,1.7c4.8,1,9.5-2.1,10.5-6.9l8.3-40.5
							c1-4.8-2.1-9.5-6.9-10.5L314.6,69.9L314.6,69.9z"/>
					</g>
				</g>
				<g>
					<g>
						<path class="st2" d="M163.6,131.7c0.5,17.6,13.8,32.7,31.9,34.9c18,2.2,34.6-9.3,39.2-26.3L163.6,131.7L163.6,131.7z"/>
						<path class="st3" d="M195,170.5c-9.6-1.2-18.5-5.7-25-12.9c-6.4-7.1-10.1-16.2-10.4-25.8l-0.1-4.5l80.1,9.6l-1.2,4.4
							c-2.5,9.2-8.3,17.2-16.2,22.6C214.3,169.3,204.6,171.7,195,170.5L195,170.5z M167.9,136.2c1,6,3.8,11.6,7.9,16.1
							c5.2,5.8,12.3,9.5,20.1,10.4c7.7,0.9,15.5-1,22-5.3c5.1-3.5,9.1-8.3,11.5-13.8L167.9,136.2L167.9,136.2z"/>
					</g>
					<circle class="st3" cx="197.8" cy="143.6" r="8.9"/>
				</g>
			</g>
			<g>
				<path class="st2" d="M242.5,257.9c0,0-53.9,79.2-143.4,14.3c0,0,82.6,14.9,106.4-36.7l8.7-14.7
					C214.2,220.8,238.5,230.6,242.5,257.9L242.5,257.9z"/>
				<path class="st3" d="M156.7,300.7c-19.4-2.3-39.4-10.9-59.6-25.6L84.5,266l15.3,2.7c0.8,0.1,80.2,13.8,102.5-34.7l0.2-0.3
					l10.3-17.3l2.8,1.1c1.1,0.4,26.3,10.9,30.5,39.9l0.2,1.4l-0.8,1.1c-0.9,1.3-23,33.2-62.7,40.1
					C174.2,301.5,165.5,301.7,156.7,300.7L156.7,300.7z M113.3,277.4c23.5,14.2,46.4,19.5,68.2,15.7c32.8-5.7,53.1-30.5,57.3-36
					c-3.3-18.9-17.2-28.3-23.2-31.6l-7,11.8c-10.3,22.2-32.7,35.9-64.8,39.6C132.3,278.1,121.5,277.9,113.3,277.4L113.3,277.4z"/>
			</g>
			<path class="st8" d="M115.7,279.3c79.3,44.1,126.4-25.2,126.4-25.2c-0.2-1.6-0.5-3.1-0.9-4.5C231,261.2,185.5,306.1,115.7,279.3z
				"/>
			<path class="st3" d="M245.1,273.5l-6.8-1.9c4.1-15.1,0-28.2-12.3-39c-9.5-8.4-20.5-12.2-20.6-12.2l2.3-6.7
				c0.5,0.2,12.3,4.2,22.9,13.5C244.9,239.7,249.9,255.7,245.1,273.5L245.1,273.5z"/>
			<path class="st8" d="M279.1,201.5c11.2-41.4,49.4-67,85.4-57.3c6.4,1.7,12.3,4.5,17.6,8c-7.8-9.2-17.8-16.1-29.7-19.3
				c-36-9.7-74.7,17.6-86.4,61c-11.7,43.4-3,96.1,33,105.8c2.4,0.6,4.7,1.1,7.1,1.4C274.6,288.4,268.7,240.1,279.1,201.5
				L279.1,201.5z"/>
		</g>
		<path class="st3" d="M109.2,242.7c1.1,0.1,2.2-0.3,2.9-1.3c1-1.4,0.6-3.3-0.8-4.3c-16.5-11.3-36.4-16.5-37.2-16.7
			c-1.6-0.4-3.3,0.6-3.8,2.2c-0.4,1.7,0.6,3.3,2.2,3.8c0.2,0.1,19.7,5.1,35.3,15.8C108.3,242.5,108.8,242.7,109.2,242.7L109.2,242.7
			z"/>
		<path class="st3" d="M82.4,281c1.2,0.1,2.5-0.5,3.1-1.6c0.8-1.5,0.2-3.4-1.3-4.2c-0.8-0.4-19.8-10.4-32.1-11.1
			c-1.7-0.1-3.2,1.2-3.3,2.9s1.2,3.2,2.9,3.3c11,0.6,29.4,10.3,29.6,10.4C81.7,280.9,82.1,281,82.4,281L82.4,281z"/>
		<path class="st3" d="M98.9,262c1.1,0.1,2.2-0.3,2.9-1.3c1-1.4,0.6-3.3-0.8-4.3c-0.8-0.6-21-14.6-38.1-15c-1.7,0-3.1,1.3-3.2,3
			c0,1.7,1.3,3.1,3,3.2c15.3,0.4,34.6,13.8,34.8,13.9C97.9,261.8,98.4,262,98.9,262L98.9,262z"/>
	</g>
</g>
</svg>
