<?xml version="1.0" encoding="utf-8"?>
<!-- Generator: Adobe Illustrator 28.0.0, SVG Export Plug-In . SVG Version: 6.00 Build 0)  -->
<svg version="1.1" id="Calque_1" xmlns="http://www.w3.org/2000/svg" xmlns:xlink="http://www.w3.org/1999/xlink" x="0px" y="0px"
	 viewBox="0 0 510.1 547.5" enable-background="new 0 0 510.1 547.5" xml:space="preserve">
<g>
	<g>
		<g>
			<path fill="#390075" d="M7.2,367c9.1,20.5,35.1,36.7,59.1,23.1c12.3-7,17.4-23.7,9.8-37.3c-2-3.6-4.9-6.9-8.9-9.8
				c-18.1-13.4-29.4,9.9-44.9,11.1c-12.7,1-17.6-14.3-17.6-14.3S2.5,351.1,5.4,362C5.9,363.7,6.5,365.3,7.2,367z"/>
		</g>
		<g opacity="0.4">
			<path fill="#FFFFFF" d="M4.5,347.2c0,0,5.4,16.8,19.4,15.8c17.1-1.3,29.6-26.9,49.5-12.2c1,0.7,1.9,1.4,2.7,2.2
				c0-0.1-0.1-0.2-0.1-0.3c-2-3.6-4.9-6.9-8.9-9.8c-18.1-13.4-29.4,9.9-44.9,11.1c-12.7,1-17.6-14.3-17.6-14.3s-1,5.3-0.7,12.1
				C4.2,349,4.5,347.2,4.5,347.2z"/>
		</g>
		<g opacity="0.15">
			<path fill="#390075" d="M7.2,367c9.1,20.5,35.1,36.7,59.1,23.1c12.3-7,17.4-23.7,9.8-37.3c-4.9-3.8-11.8-7.2-19.1-3.4
				c-11.8,6.2-7.6,22.1-12.2,26.7c-8.3,8.3-29.5,3.6-39.3-14C5.9,363.7,6.5,365.3,7.2,367z"/>
		</g>
		<g>
			<path fill="#390075" d="M62.2,396.2c-8.8,3.4-18.3,3.6-27.6,0.6c-13.2-4.3-25.1-15.1-30.9-28.2c-5.8-13-3-28.9-2.9-29.6
				c0.3-1.7,1.8-3.1,3.5-3.2c1.8-0.1,3.4,1,3.9,2.7c0.2,0.5,4.2,12.4,13.7,11.6c4.8-0.4,9.5-3.6,14.4-7c8.7-6,19.5-13.4,33-3.5
				c9.6,7,14.7,17.4,14,28.5c-0.6,10.5-6.4,20.1-15.2,25.1l0,0C66.3,394.4,64.3,395.4,62.2,396.2z M66.3,390L66.3,390L66.3,390z
				 M7.8,352.2c0.2,4.2,1,9,2.9,13.2c5,11.1,15,20.3,26.3,24c9.4,3,18.8,2.1,27.4-2.8l0,0c6.5-3.7,10.9-11,11.3-18.9
				c0.5-8.5-3.4-16.3-10.9-21.8c-8.6-6.4-14.8-2.8-24.1,3.6c-5.6,3.8-11.3,7.8-18.2,8.3C16.1,358.4,11.2,355.7,7.8,352.2z"/>
		</g>
		<g>
			<path fill="#B3D133" d="M63.9,368c12.1,4,16,16.4,25.9,28.3c2.4,2.9,5.1,5.7,8.4,8.4c33.8,27.8,71.9-6.8,71.9-6.8l-17.3-23.5
				c-7.9,14.1-17.2,19.6-26.8,19.4c-12.7-0.3-25.8-10.8-36.6-24.9c-8.7-11.4-17.9-12.6-25.2-10.7C59.3,359.6,59.1,366.4,63.9,368z"
				/>
		</g>
		<g>
			<path fill="#390075" d="M148.6,415.2c-0.1,0-0.3,0.1-0.4,0.1c-19.3,7.3-37.5,4.6-52.4-7.7c-8-6.6-12.9-13.9-17.2-20.3
				c-5-7.5-8.9-13.3-15.9-15.7c-3.8-1.3-6.2-4.8-6.1-8.8c0.1-4,2.8-7.4,6.6-8.4c7.6-2.1,18.8-1.6,29.3,12
				c11.9,15.6,24.8,24.1,35.5,23.3c8.1-0.6,15.3-6.4,21.5-17.4c1-1.9,3.4-2.5,5.3-1.5c1.9,1,2.5,3.4,1.5,5.3
				c-7.5,13.4-16.8,20.5-27.7,21.3c-13.5,0.9-28.4-8.4-42.2-26.4C80,363,72.9,359.9,65.2,362c-0.7,0.2-0.9,0.7-0.9,1.2
				c0,0.6,0.3,1,0.8,1.2c9.5,3.2,14.6,10.7,19.9,18.7c4.2,6.3,8.6,12.8,15.7,18.7c30.8,25.3,65.4-5.3,66.8-6.6
				c1.6-1.4,4-1.3,5.5,0.3c1.4,1.6,1.3,4-0.3,5.5C172.3,401.1,162.7,409.8,148.6,415.2z"/>
		</g>
		<g>
			<path fill="#A1ACC6" d="M437.7,541.1c23.9,0,36.1-21.6,40.3-42.8c-5.8,17.2-17.6,32.2-37.5,32.2c-28.2,0-33.7-27-32-54
				c0.2-3.1,0.6-6.1,1.1-8.9c-2.1,5.9-3.4,12.4-3.9,19.6C404,514.1,407.2,541.1,437.7,541.1z"/>
		</g>
		<g>
			<path fill="#C2C6D2" d="M240.8,508.9c-76.1,1.7-138.4,42.1-165.1,33.5c-33-10.6-21.4-43.6-8.4-71.7c24.4-52.8,74.6-65,112.7-65"
				/>
		</g>
		<g>
			<path fill="#B3D133" d="M240.8,508.9c-76.1,1.7-138.4,42.1-165.1,33.5c-33-10.6-21.4-43.6-8.4-71.7c3.2-7,6.9-13.3,11-19
				c16.7-23.2,39.5-35.4,62.3-41.3c13.5-3.5,27.1-4.8,39.3-4.8L240.8,508.9z"/>
		</g>
		<g opacity="0.2">
			<g>
				<path d="M240.8,508.9c-76.1,1.7-138.4,42.1-165.1,33.5c-33-10.6-21.4-43.6-8.4-71.7c3.2-7,6.9-13.3,11-19l16.7-1.4
					c0,0,19.1,5.5,28.9,32.6c7.1,19.6,18.9,8.5,16.4-8.3c-2.3-15.8-11.5-50.5-1.5-62.2c0.6-0.6,1.2-1.3,1.8-2
					c13.5-3.5,27.1-4.8,39.3-4.8L240.8,508.9z"/>
			</g>
		</g>
		<g>
			<path fill="#390075" d="M84.3,547.5c-3.6,0-6.9-0.4-9.8-1.4c-10.6-3.4-17.8-9.3-21.5-17.6c-7.2-16.4,0.9-38.2,10.7-59.5
				c27-58.5,84.4-67.2,116.2-67.2v7.7c-29.9,0-83.9,8.2-109.1,62.7c-8.6,18.6-16.6,39.5-10.6,53.1c2.7,6.2,8.2,10.6,16.8,13.3
				c11.2,3.6,30.8-2.8,55.5-10.9c29.8-9.7,66.9-21.9,108.3-22.8l0.2,7.7c-40.3,0.9-76.8,12.8-106.1,22.4
				C114.3,541.9,97.2,547.5,84.3,547.5z"/>
		</g>
		<g>
			<g>
				<path fill="#B3D133" d="M126.9,464.4c-16.4-49.2-59.7-32.2-59.7-32.2l3.8,47.8"/>
			</g>
			<g>
				<path fill="#390075" d="M125.1,465c-10.4-25.5-29.4-36.9-56.5-29.3c0,0,2.4-3.9,2.4-3.9l3.8,47.8c0.3,5.1-7.1,5.7-7.7,0.6
					c0,0-3.8-47.8-3.8-47.8l-0.2-2.9c2.5-0.9,5.2-2.1,7.8-2.7c11.8-3.1,24.8-2.1,35.4,4.2c12,7,19.2,19.8,22.5,32.7
					C129.3,466.1,126,467.2,125.1,465L125.1,465z"/>
			</g>
		</g>
		<g>
			<path fill="#B3D133" d="M118.8,484.1c1.9,29.6-1.7,59.1-35,59.1c-26.2,0-39.6-23.7-44.1-46.9c-7.2-36.9,11.7-60.4,27.5-64.2
				C93.8,425.7,116.6,448.5,118.8,484.1z"/>
		</g>
		<g opacity="0.4">
			<path fill="#FFFFFF" d="M115.5,522.4c2.3-9.4,2.4-20.6,1.7-31.7c-2.1-34.2-24-56.1-49.5-49.9c-15.1,3.7-33.3,26.2-26.4,61.6
				c0.2,1,0.4,2.1,0.7,3.1c-0.9-3-1.7-6-2.3-9.1c-7.2-36.9,11.7-60.4,27.5-64.2c26.6-6.4,49.4,16.3,51.6,52
				C119.7,497.9,119.4,511.6,115.5,522.4z"/>
		</g>
		<g>
			<path fill="#390075" d="M83.8,547.1C83.8,547.1,83.8,547.1,83.8,547.1c-23.9,0-41.8-18.7-47.9-50c-7.8-40,13.5-64.6,30.4-68.7
				c12-2.9,23.5-0.6,33.3,6.7c13.3,9.8,21.8,27.6,23.1,48.9l0,0c1.1,17.8,0.8,39.9-11.3,52.8C104.9,543.6,95.6,547.1,83.8,547.1z
				 M76.1,434.9c-2.6,0-5.3,0.3-8,1c-14,3.4-31.4,24.7-24.6,59.7c2,10.3,10.8,43.8,40.3,43.8c9.7,0,16.9-2.6,22-8
				c10.2-10.9,10.1-32,9.2-47l0,0c-1.2-18.9-8.5-34.6-20-43.1C89.3,437,82.9,434.9,76.1,434.9z"/>
		</g>
		<g opacity="0.4">
			<path fill="#EEEFF3" d="M81.6,530c-7.1,0.6-24.7-5.9-28.3-30.8c-2.4-17.1,9.7-15.4,14.1-10c3.4,4.2,6.8,4.8,10.9,3.9
				c4.6-0.9,7.3-6,10-10.8c1.4-2.6,4.4-3.5,5.9-3.5C107.8,478.5,114,527.2,81.6,530z"/>
		</g>
		<g opacity="0.4">
			
				<ellipse transform="matrix(0.9957 -9.301574e-02 9.301574e-02 0.9957 -42.5226 10.4846)" fill="#EEEFF3" cx="91.2" cy="461.4" rx="6" ry="8.5"/>
		</g>
		<g opacity="0.4">
			
				<ellipse transform="matrix(0.9957 -9.301437e-02 9.301437e-02 0.9957 -41.9382 8.6477)" fill="#EEEFF3" cx="71.8" cy="454.2" rx="7.8" ry="11"/>
		</g>
		<g>
			<path fill="#B3D133" d="M158.7,410.2l1.4-0.6l61.9-27.7l29.2-13.1l3.4-83.1c0,0-77,2.2-121.3,36.8
				C98.2,349.8,158.7,410.2,158.7,410.2z"/>
		</g>
		<g opacity="0.15">
			<path fill="#390075" d="M153.4,397.3c2.1,5.7,4.4,10.4,6.8,14.1l60.7-30.3l-43.2-50.9C177.6,330.3,139.3,359.8,153.4,397.3z"/>
		</g>
		<g>
			<path fill="#390075" d="M157.9,414.9l94.9-42.5c1.9-0.9,2.8-3.2,1.9-5.1c-0.9-1.9-3.2-2.8-5.1-1.9l-90,40.3
				c-7.4-7.9-34.8-38.8-33.4-62.6c0.4-7.2,3.5-13,9.4-17.5c42.8-33.4,118.3-35.9,119.1-35.9c2.1-0.1,3.8-1.8,3.8-4
				c-0.1-2.1-1.8-3.8-4-3.8c-3.2,0.1-78.8,2.6-123.6,37.6c-7.6,6-11.8,13.8-12.4,23.2c-1.9,30.8,35.9,68.8,37.5,70.4L157.9,414.9z"
				/>
		</g>
		<g>
			<path fill="#C8CACE" d="M311.2,298.7c-13.5,2.2-27.7,3.4-42.5,3.4c-14.7,0-29-1.2-42.5-3.4c12.3-6.4,26.4-10.5,42.5-10.5
				C284.8,288.2,298.9,292.2,311.2,298.7z"/>
		</g>
		<g>
			<path fill="#A1ACC6" d="M361.1,284.3c-25.6,11.2-57.6,17.9-92.4,17.9c-34.8,0-66.8-6.7-92.4-17.9c1.5-3.4,3.2-6.9,5-10.4
				c16.7-32.6,45.3-71.4,87.4-71.4s70.7,38.8,87.4,71.4C357.9,277.4,359.6,280.9,361.1,284.3z"/>
		</g>
		<g>
			<path fill="#A1ACC6" d="M383.8,304.8c-22.6,15.1-54.2,25.7-90.1,29.1v-52.2C293.7,281.7,342.4,285.1,383.8,304.8z"/>
		</g>
		<g>
			<path fill="#C2C6D2" d="M293.7,281.7c0,0,76.9,5.3,119.7,41.7c33.9,28.8-29.1,86.7-29.1,86.7l-90.7-45.2"/>
		</g>
		<g>
			<path fill="#B3D133" d="M384.4,410.2l-1.3-0.7l-60.7-30.3l-28.6-14.3v-83.2c0,0,76.9,5.3,119.7,41.7
				C447.4,352.3,384.4,410.2,384.4,410.2z"/>
		</g>
		<g opacity="0.15">
			<path fill="#390075" d="M389.9,395.4c-2.1,5.7-4.4,10.4-6.8,14.1l-60.7-30.3l43.2-50.9C365.6,328.3,403.9,357.9,389.9,395.4z"/>
		</g>
		<g>
			<path fill="#390075" d="M385.1,414.8l-93-46.4c-1.9-1-2.7-3.3-1.7-5.2c1-1.9,3.3-2.7,5.2-1.7l88.2,44
				c7.7-7.6,36.4-37.4,35.9-61.1c-0.1-7.2-3-13.1-8.7-17.9c-41.4-35.2-116.7-40.8-117.5-40.8c-2.1-0.1-3.7-2-3.6-4.1
				c0.1-2.1,2-3.8,4.1-3.6c3.2,0.2,78.6,5.8,122,42.6c7.4,6.3,11.2,14.2,11.4,23.7C428,375,388.7,411.5,387,413L385.1,414.8z"/>
		</g>
		<g>
			<path fill="#B3D133" d="M296.7,508.9c76.1,1.7,138.4,42.1,165.1,33.5c33-10.6,21.4-43.6,8.4-71.7c-24.4-52.8-74.6-65-112.7-65"/>
		</g>
		<g opacity="0.2">
			<g>
				<path d="M296.7,508.9c76.1,1.7,138.4,42.1,165.1,33.5c33-10.6,21.4-43.6,8.4-71.7c-3.2-7-6.9-13.3-11-19l-16.7-1.4
					c0,0-19.1,5.5-28.9,32.6c-7.1,19.6-18.9,8.5-16.4-8.3c2.3-15.8,11.5-50.5,1.5-62.2c-0.6-0.6-1.2-1.3-1.8-2
					c-13.5-3.5-27.1-4.8-39.3-4.8L296.7,508.9z"/>
			</g>
		</g>
		<g>
			<path fill="#390075" d="M453.2,547.5c-13,0-30.1-5.6-50.5-12.3c-29.3-9.6-65.8-21.5-106.1-22.4l0.2-7.7
				c41.4,0.9,78.5,13,108.3,22.8c24.8,8.1,44.3,14.5,55.5,10.9c8.5-2.8,14-7.1,16.8-13.3c6-13.6-2-34.5-10.6-53.1
				c-25.2-54.6-79.2-62.7-109.1-62.7v-7.7c31.8,0,89.1,8.7,116.2,67.2c9.8,21.2,17.9,43.1,10.7,59.5c-3.6,8.2-10.8,14.2-21.5,17.6
				C460.1,547,456.8,547.5,453.2,547.5z"/>
		</g>
		<g>
			<path fill="#C2C6D2" d="M397.4,443.6l-35.4,58.6c0,0-27.2,11.8-69.2,15.4c-7.6,0.7-15.7,1-24.2,1s-16.6-0.4-24.2-1
				c-42-3.6-69.2-15.4-69.2-15.4L140,443.6c-2.4-15.4-1.9-31.8,0.4-48c6.5-46.5,27.1-90.5,31.1-100.3c2.6-6.4,5.9-13.8,9.8-21.5
				c16.7-32.6,45.3-71.4,87.4-71.4c42,0,70.7,38.8,87.4,71.4c4,7.7,7.2,15.1,9.8,21.5c4,9.8,24.6,53.8,31.1,100.3
				C399.3,411.8,399.9,428.2,397.4,443.6z"/>
		</g>
		<g>
			<path fill="#B3D133" d="M397.4,443.6l-35.4,58.6c0,0-27.2,11.8-69.2,15.4c-7.6,0.7-15.7,1-24.2,1c-8.5,0-16.6-0.4-24.2-1
				c-42-3.6-69.2-15.4-69.2-15.4L140,443.6c-2.4-15.4-1.9-31.8,0.4-48c6.5-46.4,27.1-90.5,31.1-100.3c2.6-6.4,5.9-13.8,9.8-21.5
				c16.7-32.6,45.3-71.4,87.4-71.4s70.7,38.8,87.4,71.4c3.9,7.7,7.2,15.1,9.8,21.5c4,9.8,24.6,53.8,31.1,100.3c0,0,0,0,0,0
				C399.3,411.8,399.9,428.2,397.4,443.6z"/>
			<g opacity="0.4">
				<path fill="#EEEFF3" d="M376.8,430.3c0,0-12.4,66.1-108.1,66.1s-108.1-66.1-108.1-66.1c-2.8-14.1-1.7-30.9,1.8-48.4
					c3.8-19.2,37.4-93.7,106.3-93.7s102.5,74.5,106.3,93.7C378.5,399.4,379.7,416.2,376.8,430.3z"/>
			</g>
		</g>
		<g>
			<path fill="#390075" d="M176.2,500.4c73.6,19.2,111.7,19,185.1,0c2.1-0.6,3.5,2.3,1.5,3.6c-7,4.2-14.6,7-22.4,9.3
				c-44.9,12.5-104.7,12.6-149.1-1.9c-5.8-2-11.3-4.3-16.7-7.4c-0.9-0.6-1.2-1.7-0.7-2.7C174.4,500.5,175.3,500.2,176.2,500.4
				L176.2,500.4z"/>
		</g>
		<g>
			<path fill="#C2C6D2" d="M392.3,380.5"/>
		</g>
		<g>
			<path fill="#C2C6D2" d="M150.9,382.4"/>
		</g>
		<g>
			<g>
				<g>
					<path fill="#B3D133" d="M417.4,464.1c16.4-49.2,59.7-32.2,59.7-32.2l-3.8,47.8"/>
				</g>
				<g>
					<path fill="#390075" d="M419.3,464.7c10.4-25.5,29.4-36.9,56.5-29.3c0,0-2.4-3.9-2.4-3.9l-3.8,47.8c-0.3,5.1,7.1,5.7,7.7,0.6
						c0,0,3.8-47.8,3.8-47.8l0.2-2.9c-2.5-0.9-5.2-2.1-7.8-2.7c-11.8-3.1-24.8-2.1-35.4,4.2c-12,7-19.2,19.8-22.5,32.7
						C415,465.7,418.3,466.9,419.3,464.7L419.3,464.7z"/>
				</g>
			</g>
			<g>
				<path fill="#B3D133" d="M425.5,483.8c-1.9,29.6,1.7,59.1,35,59.1c26.2,0,39.6-23.7,44.1-46.9c7.2-36.9-11.7-60.4-27.5-64.2
					C450.5,425.4,427.8,448.2,425.5,483.8z"/>
			</g>
			<g opacity="0.4">
				<path fill="#FFFFFF" d="M428.9,522.1c-2.3-9.4-2.4-20.6-1.7-31.7c2.1-34.2,24-56.1,49.5-49.9c15.1,3.7,33.3,26.2,26.4,61.6
					c-0.2,1-0.4,2.1-0.7,3.1c0.9-3,1.7-6,2.3-9.1c7.2-36.9-11.7-60.4-27.5-64.2c-26.6-6.4-49.4,16.3-51.6,52
					C424.7,497.6,424.9,511.3,428.9,522.1z"/>
			</g>
			<g>
				<path fill="#390075" d="M432.9,536.3c-12.1-12.9-12.4-35-11.3-52.8l0,0c1.3-21.2,9.7-39,23.1-48.9c9.8-7.3,21.4-9.6,33.3-6.7
					c16.9,4.1,38.2,28.8,30.4,68.7c-6.1,31.3-24,50-47.9,50c0,0,0,0,0,0C448.7,546.8,439.4,543.3,432.9,536.3z M449.3,440.9
					c-11.5,8.5-18.8,24.2-20,43.1l0,0c-0.9,15-1,36.1,9.2,47c5.1,5.4,12.2,8,22,8c29.5,0,38.3-33.5,40.3-43.8
					c6.9-35-10.6-56.3-24.6-59.7c-2.7-0.7-5.4-1-8-1C461.5,434.6,455,436.7,449.3,440.9z"/>
			</g>
			<g opacity="0.4">
				<path fill="#EEEFF3" d="M462.8,529.7c7.1,0.6,24.7-5.9,28.3-30.8c2.4-17.1-9.7-15.4-14.1-10c-3.4,4.2-6.8,4.8-10.9,3.9
					c-4.6-0.9-7.3-6-10-10.8c-1.4-2.6-4.4-3.5-5.9-3.5C436.6,478.2,430.3,526.8,462.8,529.7z"/>
			</g>
			<g>
				
					<ellipse transform="matrix(9.301714e-02 -0.9957 0.9957 9.301714e-02 -22.0195 913.2191)" opacity="0.4" fill="#EEEFF3" cx="490.2" cy="468.7" rx="8.5" ry="6"/>
			</g>
			<g opacity="0.4">
				
					<ellipse transform="matrix(9.301574e-02 -0.9957 0.9957 9.301574e-02 -48.0984 869.3726)" fill="#EEEFF3" cx="453.1" cy="461.1" rx="8.5" ry="6"/>
			</g>
			<g opacity="0.4">
				
					<ellipse transform="matrix(9.301437e-02 -0.9957 0.9957 9.301437e-02 -23.343 882.1877)" fill="#EEEFF3" cx="472.5" cy="453.9" rx="11" ry="7.8"/>
			</g>
		</g>
		<g>
			<g>
				<g>
					<g>
						<g>
							<g>
								<g>
									<path fill="#C3B2D3" d="M307,66.4l11.3,30.5l18.7-6.9l1.7,4.6c2.6,7,10.4,10.5,17.3,7.9l8.1-3c7-2.6,10.5-10.4,7.9-17.3
										l-14.5-39.1c-2.6-7-10.3-10.5-17.3-7.9l-8.1,3c-7,2.6-10.5,10.3-7.9,17.3l1.5,3.9L307,66.4z"/>
								</g>
							</g>
							<g opacity="0.7">
								<g>
									<g>
										<path fill="#FFFFFF" d="M320.4,63.8l1.5,3.9l-12.6,4.7l-2.3-6.1l12.8-4.7C319.9,62.4,320.1,63.1,320.4,63.8z"/>
									</g>
								</g>
								<g>
									<g>
										<path fill="#FFFFFF" d="M368.2,90.5l-14.5-39.1c-2.6-7-10.3-10.5-17.3-7.9l-8.1,3c-1.9,0.7-3.6,1.8-4.9,3.2
											c0.4-5,3.7-9.7,8.7-11.5l8.1-3c7-2.6,14.7,1,17.3,7.9L372,82.2c1.9,5.1,0.5,10.5-3,14.1C369.2,94.4,368.9,92.4,368.2,90.5
											z"/>
									</g>
								</g>
							</g>
							<g opacity="0.3">
								<g>
									<path fill="#390075" d="M315.5,63.2l2.5,6.7c2.9,7.7,11.5,11.7,19.2,8.8l0,0c2.6-1,5.4,0.4,6.4,2.9l0,0
										c2.6,7,10.4,10.5,17.3,7.9l8.1-3c1.4-0.5,2.6-1.2,3.7-2.1c1.1,6.3-2.4,12.7-8.6,15l-8.1,3c-7,2.6-14.7-1-17.3-7.9l-1.7-4.6
										l-18.7,6.9L307,66.4L315.5,63.2z"/>
								</g>
							</g>
							<g>
								<g>
									<path fill="#390075" d="M334.5,96.1l-0.1-0.4l-14.4,5.3c-2.3,0.9-5-0.3-5.8-2.7l-11.3-30.5c-0.9-2.3,0.3-5,2.7-5.8
										l14.4-5.3c-3.2-9.2,1.5-19.4,10.7-22.9l8.1-3c9.3-3.5,19.7,1.3,23.2,10.6l14.5,39.1c3.5,9.3-1.3,19.7-10.6,23.2l-8.1,3
										C348.3,110.2,337.9,105.4,334.5,96.1z M333.7,42.4c-4.6,1.7-7,6.9-5.3,11.5l1.5,3.9c0.9,2.3-0.3,5-2.7,5.8L312.8,69l8.2,22
										l14.4-5.3c2.3-0.9,5,0.3,5.8,2.7L343,93c1.7,4.6,6.9,7,11.5,5.3l8.1-3c4.6-1.7,7-6.9,5.3-11.5l-14.5-39.1
										c-1.7-4.6-6.9-7-11.5-5.3L333.7,42.4z"/>
								</g>
							</g>
						</g>
						<path fill="#B3D133" d="M369,147.1C327.1,1,228.8-1.8,165.2,50.8L34.6,215.5c13.7,60.5,131.1,123,269.3,87.4"/>
						
							<ellipse transform="matrix(0.9886 -0.1508 0.1508 0.9886 -26.1615 50.7536)" fill="#B3D133" cx="321.6" cy="197.9" rx="63.6" ry="82.7"/>
						<g opacity="0.35">
							<path fill="#FFFFFF" d="M368.7,148C326.8,1.8,228.5-0.9,164.9,51.6L34.2,216.4c0.2,1,0.5,2,0.8,3L156.4,66.3
								c63.6-52.6,161.9-49.8,203.8,96.4l9.6,47.2l13.5-2.2L369,147.1"/>
						</g>
						<g>
							<path fill="#390075" d="M132.9,86c-28.9,32.5-49.4,66.7-49.4,66.7l-13.1,14.6l-6.4,7.2c-4.3,23.1-1.6,46.1,10.7,66.7l20,7.7
								l-23.2-45.3l47.5,18.2L96,177.2l46.8,17.9l-21.2-41.3l43.4,16.6l-22.9-44.6l46.8,17.9l-23.5-45.9l48.2,18.5l-19.2-37.4
								l39.2,15l-23.2-45.3L258,66.9l-22.6-44.1c-15,1.3-30.3,5.2-45.1,11.1l-4.7,5.2C185.5,39.1,161.7,53.6,132.9,86z"/>
							<path fill="#390075" d="M236.2,22.7l45.7,17.5l-7.4-14.4C262.2,22.6,249.3,21.7,236.2,22.7z"/>
						</g>
						<g>
							<g>
								<g>
									<path fill="#390075" d="M339.9,77.3l-237.8,99c-1.6,0.7-3.6-0.4-4.4-2.3c-0.8-1.9-0.2-4.1,1.5-4.7l237.8-99
										c1.6-0.7,3.6,0.4,4.4,2.3C342.2,74.5,341.5,76.6,339.9,77.3z"/>
								</g>
							</g>
							<g>
								<g>
									<path fill="#390075" d="M130.4,180.2c-2.3,1-5.1-0.5-6.3-3.3L114,152.5c-1.2-2.8-0.2-5.8,2.1-6.7c2.3-1,5.1,0.5,6.3,3.3
										l10.1,24.4C133.6,176.2,132.7,179.2,130.4,180.2z"/>
								</g>
							</g>
							<g>
								<g>
									<path fill="#390075" d="M166.3,165.2c-2.3,1-5.1-0.5-6.3-3.3l-10.1-24.4c-1.2-2.8-0.2-5.8,2.1-6.7c2.3-1,5.1,0.5,6.3,3.3
										l10.1,24.4C169.5,161.2,168.6,164.2,166.3,165.2z"/>
								</g>
							</g>
							<g>
								<g>
									<path fill="#390075" d="M202.2,150.2c-2.3,1-5.1-0.5-6.3-3.3l-10.1-24.4c-1.2-2.8-0.2-5.8,2.1-6.7c2.3-1,5.1,0.5,6.3,3.3
										l10.1,24.4C205.5,146.3,204.5,149.3,202.2,150.2z"/>
								</g>
							</g>
							<g>
								<g>
									<path fill="#390075" d="M322.7,100.1c-2.3,1-5.1-0.5-6.3-3.3l-10.1-24.4c-1.2-2.8-0.2-5.8,2.1-6.7c2.3-1,5.1,0.5,6.3,3.3
										l10.1,24.4C326,96.1,325,99.1,322.7,100.1z"/>
								</g>
							</g>
							<g>
								<g>
									<path fill="#390075" d="M286.8,115.1c-2.3,1-5.1-0.5-6.3-3.3l-10.1-24.4c-1.2-2.8-0.2-5.8,2.1-6.7c2.3-1,5.1,0.5,6.3,3.3
										l10.1,24.4C290,111.1,289.1,114.1,286.8,115.1z"/>
								</g>
							</g>
							<g>
								<g>
									<path fill="#390075" d="M250.8,130c-2.3,1-5.1-0.5-6.3-3.3l-10.1-24.4c-1.2-2.8-0.2-5.8,2.1-6.7c2.3-1,5.1,0.5,6.3,3.3
										l10.1,24.4C254.1,126,253.1,129.1,250.8,130z"/>
								</g>
							</g>
						</g>
						<path fill="#390075" d="M223.4,317.8c-14.1,0-28.1-1-42-2.9c-35.7-5-68.7-16.3-95.6-32.7c-30.5-18.6-50.2-42-55.6-65.8
							l-0.5-2.1L162,47.6l0.4-0.3C197,18.7,237.6,8.7,273.9,19.8c31.1,9.5,73.7,39.1,99.4,126.1c0.4,1.6,10.5,37.8,14.4,61.1
							l-8.9,1.5c-3.8-22.8-14.1-59.7-14.2-60.1c-24.6-83.1-64.4-111.1-93.4-120c-33.2-10.1-70.7-0.8-102.9,25.6l-129,162.6
							c5.5,20.5,24,41.5,51,58c25.8,15.8,57.7,26.7,92.2,31.5c39.2,5.5,79.6,3,120.1-7.5l2.2,8.7
							C277.7,314.3,250.4,317.8,223.4,317.8z"/>
						<path fill-opacity="0.19" d="M122.4,334.3c25.4,7.1,16.3,4.2,52.7,18.5c31.1,12.2,58.5,6.8,72.2-13.5
							c0.2,8.4-0.6,16.9-3.2,24.4c-10.2,29.4-41.5,39.2-77.8,24.9c-36.3-14.3-31.3-22.4-56.7-29.6"/>
						<g>
							<path fill="#B3D133" d="M246.8,286.7c0,0,4.4,47-13.5,72.4s-50.7,26.2-81.7,2.4s-48.8-52.4-71.3-66.3
								c-22.5-13.9-68-10.5-73.8-48.1s-0.4-65.4,35.8-88.3s138-20.7,138-20.7L246.8,286.7z"/>
							<g opacity="0.48">
								<g>
									<path fill="#FFFFFF" d="M70.3,162.6c-39.1,25.8-45.6,56.1-40.4,96.7c0.8,6.4,2.7,11.7,5.4,16.1
										c-12.1-5.6-21.7-14.2-24.2-30.3c-5.8-37.6-0.4-65.4,35.8-88.3s138-20.7,138-20.7l0.7,1.6
										C150.3,139.9,95.7,145.9,70.3,162.6z"/>
								</g>
							</g>
							<path fill="#390075" d="M195.9,382.9c-15.1,0-31.4-6.3-46.9-18.1c-15.4-11.8-27.8-25-38.6-36.6
								c-11.4-12.2-21.3-22.7-32.3-29.5c-6.5-4.1-15.5-6.6-24.9-9.3c-21.7-6.2-46.4-13.3-50.7-41.7c-3.3-21.7-2.6-37.6,2.4-51.6
								c5.7-15.9,17.2-29.3,35.2-40.7c15.6-9.9,44-16.4,84.4-19.6c29.9-2.3,55.6-1.8,55.9-1.8l-0.2,8.2c-1,0-101.1-1.9-135.8,20.1
								c-16.7,10.6-26.8,22.2-31.9,36.6c-4.5,12.7-5.1,27.4-2,47.7c3.6,23.2,23.6,29,44.9,35c10,2.9,19.5,5.6,27,10.2
								c11.9,7.4,22.6,18.8,33.9,30.9c10.7,11.4,22.7,24.3,37.7,35.7c16.3,12.5,33.6,18.2,48.5,15.9c11-1.7,20.5-7.7,27.4-17.5
								l0.2-0.3l0.3-0.3c3.9-3.7,11.8-15.3,14.3-32.7c2.9-20.3-0.6-54.6-34.4-102.6l6.7-4.7c28.5,40.6,40.5,77.3,35.7,109.2
								c-3.4,22.4-14.3,34.4-16.4,36.5c-8.2,11.4-19.4,18.5-32.6,20.5C201.2,382.7,198.6,382.9,195.9,382.9z"/>
						</g>
						<g>
							<g>
								<g>
									<path fill="#C3B2D3" d="M173.9,118l16.7,32.3l-19.8,10.2l2.5,4.9c3.8,7.4,0.9,16.5-6.5,20.3l-8.6,4.4
										c-7.4,3.8-16.5,0.9-20.3-6.5l-21.4-41.4c-3.8-7.4-0.9-16.5,6.5-20.3l8.6-4.4c7.4-3.8,16.5-0.9,20.3,6.5l2.2,4.2L173.9,118z
										"/>
								</g>
							</g>
							<g opacity="0.7">
								<g>
									<g>
										<path fill="#FFFFFF" d="M161.8,127.1l2.2,4.2l13.3-6.9l-3.3-6.4l-13.5,7C160.9,125.7,161.4,126.4,161.8,127.1z"/>
									</g>
								</g>
								<g>
									<g>
										<path fill="#FFFFFF" d="M147.8,186.8l-21.4-41.4c-3.8-7.4-0.9-16.5,6.5-20.3l8.6-4.4c2-1.1,4.2-1.6,6.3-1.7
											c-4.5-3.5-10.7-4.2-16.1-1.5l-8.6,4.4c-7.4,3.8-10.3,12.9-6.5,20.3l21.4,41.4c2.8,5.4,8.3,8.4,14,8.1
											C150.3,190.5,148.9,188.8,147.8,186.8z"/>
									</g>
								</g>
							</g>
							<g opacity="0.3">
								<g>
									<path fill="#390075" d="M164.9,122.7l3.7,7.1c4.2,8.2,1,18.3-7.2,22.5l0,0c-2.7,1.4-3.8,4.7-2.4,7.5l0,0
										c3.8,7.4,0.9,16.5-6.5,20.3l-8.6,4.4c-1.4,0.7-3,1.2-4.5,1.5c4.4,5.6,12.3,7.6,18.8,4.2l8.6-4.4
										c7.4-3.8,10.3-12.9,6.5-20.3l-2.5-4.9l19.8-10.2L173.9,118L164.9,122.7z"/>
								</g>
							</g>
							<g>
								<g>
									<path fill="#390075" d="M169.3,190.3l-8.6,4.4c-9.9,5.1-22,1.2-27.1-8.7l-21.4-41.4c-5.1-9.9-1.2-22,8.6-27.1l8.6-4.4
										c9.8-5,21.8-1.3,27,8.3l15.3-7.9c2.5-1.3,5.6-0.3,6.8,2.2l16.7,32.3c1.3,2.5,0.3,5.6-2.2,6.8l-15.3,7.9l0.2,0.4
										C183,173,179.1,185.2,169.3,190.3z M125.5,126.5c-4.9,2.5-6.8,8.6-4.3,13.5l21.4,41.4c2.5,4.9,8.6,6.8,13.5,4.3l8.6-4.4
										c4.9-2.5,6.8-8.6,4.3-13.5l-2.5-4.9c-1.3-2.5-0.3-5.6,2.2-6.8l15.3-7.9l-12-23.3l-15.3,7.9c-2.5,1.3-5.6,0.3-6.8-2.2
										l-2.2-4.2c-2.5-4.9-8.6-6.8-13.5-4.3L125.5,126.5z"/>
								</g>
							</g>
						</g>
					</g>
					<g>
						<g>
							<path fill="#FFFFFF" d="M316.7,143c4.8,19.3-5,39.7-23.9,47.6c-18.9,7.9-40.3,0.5-50.6-16.6L316.7,143z"/>
							<path fill="#390075" d="M262.9,195.8c-10.2-3.4-18.9-10.3-24.4-19.5l-2.6-4.4l83.9-34.9l1.2,5c2.6,10.4,1.4,21.4-3.4,31.1
								c-4.8,9.8-13,17.4-23.1,21.6C284.4,198.8,273.2,199.2,262.9,195.8z M249,175.9c4.3,5.3,10.1,9.3,16.7,11.5
								c8.3,2.8,17.3,2.4,25.4-0.9s14.7-9.5,18.6-17.4c3.1-6.2,4.3-13.1,3.6-19.9L249,175.9z"/>
						</g>
						<circle fill="#390075" cx="283.2" cy="166.3" r="10"/>
					</g>
				</g>
				<g>
					<path fill="#B3D133" d="M304.6,294.7c0,0,96.4,13.7,156.2-51.4c29.1-31.7,38-69.1,39.5-99.1c1.4-28.2-6-56.1-20.7-80.2
						L444.3,6.5l-6.1,38.3l-28.9-14.9l28.7,84.9c0,0,5.4,39-22.4,58.1s-56-20.9-91.6,18.5L295,213.4L304.6,294.7z"/>
					<g opacity="0.3">
						<path fill="#390075" d="M482.9,62.6c21.9,34.2,40,106-2.6,158.7c-29.9,37-98.5,90.1-174.6,68.1l-4.7-18
							c77.6,13.8,139.1-45,165.9-78.2C499.8,152.3,496.4,100,482.9,62.6z"/>
					</g>
					<g>
						<path fill="#390075" d="M373.6,181.9c-2.9-0.7-5.8-1.2-8.7-1.5c-2.9-0.2-5.8-0.2-8.7,0.1c-2.9,0.3-5.7,1-8.5,1.9
							c-2.8,0.9-5.4,2.2-7.9,3.7c-2.5,1.5-4.8,3.5-6.9,5.6c-2.1,2.1-4.1,4.7-5.7,7.3c-3.4,5.3-5.7,11.4-6.7,17.9
							c-0.1,0.4-0.4,0.7-0.8,0.6c-0.3-0.1-0.6-0.3-0.6-0.6c-0.9-6.8,0.2-14,2.8-20.6c0.7-1.7,1.4-3.3,2.3-4.8
							c0.4-0.8,0.9-1.6,1.3-2.3c0.5-0.8,1-1.5,1.5-2.3c2.1-3,4.6-5.8,7.5-8.1c5.8-4.8,12.9-8,20.4-9.1c3.7-0.5,7.5-0.6,11.3-0.2
							c3.7,0.5,7.4,1.4,10.9,2.9c2.6,1.1,3.8,4,2.7,6.6c-1,2.3-3.4,3.5-5.8,3L373.6,181.9z"/>
					</g>
					<g>
						<path fill="#390075" d="M284.3,311.2c3.9-3.3,7.6-6.7,10.5-10.2c3-3.5,5.1-7.3,6.6-11.4c0.2-0.5,0.2-0.9,0.4-1.4
							c0.1-0.5,0.3-0.9,0.3-1.4c0-0.5,0.1-1,0.2-1.4l0-1.5c0-2-0.3-4.1-1-6.3c-1.3-4.3-3.5-8.9-6.1-13.2l-0.1-0.2
							c-0.5-0.9-0.2-2,0.7-2.6c0.6-0.4,1.3-0.3,1.9,0c5.1,2.9,9.1,7.1,12.1,12.4c1.5,2.7,2.5,5.7,2.9,9c0.5,3.2,0,6.7-0.8,9.9
							c-1.8,6-5.5,11.4-10.2,15.1c-2.3,1.9-4.9,3.4-7.6,4.5c-2.7,1.1-5.4,1.9-8.5,2.1c-1,0.1-1.9-0.7-2-1.8c0-0.6,0.2-1.2,0.7-1.6
							L284.3,311.2z"/>
					</g>
					<g>
						<path fill="#390075" d="M359.4,232.9c-1.5-2-2.7-4.1-3.6-6.4c-0.5-1.1-0.9-2.3-1.3-3.5c-0.3-1.2-0.7-2.4-1-3.6
							c-1.1-4.9-1.2-10.2-0.2-15.3c0.2-1.3,0.6-2.6,1-3.8c0.4-1.3,0.7-2.6,1.3-3.7l1.7-3.6c0.7-1.1,1.4-2.2,2.2-3.3
							c0.4-0.5,0.7-1.1,1.1-1.6c0.4-0.5,0.9-1,1.3-1.5c0.9-1,1.8-1.9,2.7-2.8c1.9-1.8,4-3.2,6.1-4.7c2.3-1.6,5.4-1,7,1.3
							c1.3,1.9,1.1,4.4-0.4,6.1l-0.6,0.6c-1.4,1.6-3,3-4.5,4.5c-1.3,1.6-2.9,2.9-4,4.6l-1.9,2.4l-1.6,2.5c-0.6,0.8-1,1.8-1.5,2.6
							c-0.5,0.9-1,1.8-1.3,2.8c-1.5,3.8-2.4,8-2.6,12.3c-0.2,4.3,0.2,8.9,1.3,13.4l0,0.1c0.1,0.4-0.2,0.8-0.5,0.9
							C359.9,233.3,359.6,233.2,359.4,232.9z"/>
					</g>
					<g>
						<path fill="#390075" d="M401.9,212.3c-1.5-0.8-2.8-1.7-4.1-2.8c-0.6-0.5-1.2-1.1-1.8-1.7c-0.6-0.6-1.1-1.2-1.7-1.9
							c-2.1-2.6-3.7-5.8-4.6-9.2c-0.3-0.8-0.4-1.7-0.5-2.6c-0.1-0.9-0.3-1.8-0.3-2.6l0-2.7c0.1-0.9,0.2-1.8,0.3-2.6
							c0.1-0.4,0.1-0.9,0.2-1.3c0.1-0.4,0.2-0.8,0.4-1.3c0.2-0.8,0.5-1.7,0.8-2.5c0.6-1.6,1.5-3.1,2.3-4.6c0.9-1.6,3-2.2,4.6-1.3
							c1.4,0.8,2,2.4,1.6,3.8l-0.1,0.5c-0.4,1.4-1,2.7-1.4,4c-0.3,1.3-0.9,2.6-1.1,4l-0.4,2l-0.2,2c-0.1,0.7-0.1,1.3-0.1,2
							c0,0.7-0.1,1.4,0.1,2c0.2,2.7,0.9,5.5,2.1,8.2c1.1,2.7,2.8,5.3,4.7,7.7l0,0c0.2,0.2,0.1,0.5-0.1,0.7
							C402.3,212.4,402.1,212.4,401.9,212.3z"/>
					</g>
					<path fill="#390075" d="M327.2,298.8c-13.2,0-21.7-1.2-22.2-1.2l0.7-4.8c0.2,0,24.2,3.3,55.1-1.3c28.4-4.3,68.6-16.3,98.9-49.3
						c23.9-26,36.9-58.8,38.8-97.5c1.3-27.7-5.7-54.9-20.4-78.8l-31.8-51.9l-5.6,35.1l-26.5-13.6l26.9,79.4l0,0.2
						c0.1,0.4,5.9,35.8-22.9,55.6c-1.2,0.9-16.2,11.7-42.6,11.2l0.1-4.9c25.1,0.5,39.4-10.1,39.5-10.2l0.1-0.1
						c25.2-17.3,21.3-48,20.9-50.6l-30.6-90.5l31.2,16.1L443.5,0l38.8,63.2c15.2,24.7,22.5,53,21.1,81.6
						c-1.9,39.3-15.8,74.1-40.1,100.6c-31.4,34.2-72.8,46.5-102,50.9C348.3,298.2,336.5,298.8,327.2,298.8z"/>
				</g>
				<g>
					<path fill="#FFFFFF" d="M269.6,303.9c0,0,82.7,69.4,159.8-28.2c0,0-85,41.4-126.5-7.3L288.9,255
						C288.9,255,265.6,273.1,269.6,303.9z"/>
					<path fill="#390075" d="M337.1,330.7c-39.6,0-68.1-23.5-69.4-24.6l-0.9-0.7l-0.1-1.1c-4.2-32.1,19.4-50.7,20.4-51.5l2-1.5
						l15.9,15.2c16.5,19.3,42.1,26.4,76,20.9c25.7-4.1,46.8-14.3,47-14.4l11.4-5.5l-7.8,9.9c-25.1,31.8-53.6,49.6-84.5,52.8
						C343.8,330.5,340.4,330.7,337.1,330.7z M272.4,302.3c5.5,4.2,35.9,26,74.3,22.1c26.2-2.7,50.7-16.6,72.8-41.5
						c-8.8,3.4-22.2,7.7-37.3,10.1c-35.6,5.7-63.7-2.1-81.4-22.8l-11.9-11.4C283.7,263.8,269.8,279.3,272.4,302.3z"/>
				</g>
				<path fill-opacity="0.19" d="M409.5,290.1c-72.4,72-144.7,11.3-144.7,11.3c-0.2-1.8-0.4-3.5-0.4-5.2
					C279,305.6,341.9,340.4,409.5,290.1z"/>
				<path fill="#390075" d="M272.5,321c-10.4-17.4-9.9-35.9,1.6-53.6c8.5-13.1,19.9-20.9,20.4-21.3l3.3,4.8l-1.6-2.4l1.6,2.4
					c-0.1,0.1-11,7.6-18.9,19.8c-10.3,15.8-10.7,31.8-1.4,47.3L272.5,321z"/>
				<path fill-opacity="0.19" d="M212.8,253.9c-24.8-41.4-74-57.6-110.1-36.1c-6.4,3.8-12,8.6-16.6,14.1
					c5.6-12.4,14.4-22.8,26.3-29.9c36-21.5,86.3-3.7,112.3,39.8s32.6,103.3-3.4,124.8c-2.4,1.4-4.8,2.6-7.2,3.7
					C244.2,346.7,235.9,292.6,212.8,253.9z"/>
			</g>
		</g>
	</g>
	<g>
		<g>
			<path fill="#FF1563" d="M381,353.9c4.6,47.6-68.8,107.3-92.2,125.1c-4.3,3.3-10.1,3.8-15,1.4c-26.4-13-109.8-57.6-114.3-105.2
				c-3.3-33.9,21.6-64,55.5-67.3c20.2-1.9,39.1,6.1,51.8,20.1c9.7-16.2,26.7-27.7,47-29.6C347.6,295.2,377.7,320,381,353.9z"/>
		</g>
		<g opacity="0.6">
			<path fill="#FFFFFF" d="M313.7,298.5c-20.2,1.9-37.2,13.5-47,29.6c-12.6-14-31.5-22.1-51.8-20.1c-33.4,3.2-58,32.6-55.6,65.9
				c0.2,1.8,0.6,3.7,1.1,5.5c1-25,17.2-46.7,40.2-55.2c-4.9,3.5-7.7,8.2-7.2,13.2c0.9,8.9,12,15.1,24.9,13.9
				c12.9-1.2,22.7-9.5,21.8-18.4c-0.5-5.4-4.8-9.8-10.9-12.1c15.1,1.8,28.8,9.1,38.6,20c9.7-16.2,26.7-27.7,47-29.6
				c31-3,58.9,17.6,65.9,47c0.1-1.9,0.1-3.7,0-5.5C376.9,319.4,347.1,295.2,313.7,298.5z"/>
		</g>
		<path fill="#000072" d="M277.2,486.7c-1.1-0.3-2.1-0.7-3.2-1.2c-14.1-6.9-41.5-21.4-66.3-40.2c-32-24.2-49.2-47.7-51.4-69.8
			c0-0.4-0.1-0.7-0.1-1.1l0-0.5c-0.8-11.1,1.1-22.2,5.6-32.3l0.2-0.4c0.4-0.9,0.8-1.7,1.2-2.5l0.1-0.2c0.4-0.9,0.9-1.8,1.4-2.7
			l0.1-0.2c0.5-0.8,1-1.7,1.5-2.6l0.1-0.2c0.6-0.9,1.1-1.7,1.6-2.5l0.2-0.2c0.6-0.8,1.1-1.6,1.7-2.3l0.2-0.3
			c0.6-0.8,1.2-1.5,1.8-2.2l0.3-0.3c0.7-0.8,1.2-1.4,1.8-2.1l0.4-0.4c0.6-0.6,1.2-1.3,1.8-1.9l0.5-0.5c0.6-0.6,1.2-1.2,1.8-1.7
			l0.6-0.5c0.6-0.5,1.2-1,1.8-1.6l0.7-0.6c0.6-0.5,1.2-1,1.8-1.4c0.2-0.1,0.4-0.3,0.6-0.4l0.2-0.2c0.6-0.4,1.2-0.9,1.8-1.3
			c0.2-0.2,0.4-0.3,0.7-0.4l0.3-0.2c0.6-0.4,1.2-0.8,1.8-1.1c0.3-0.2,0.5-0.3,0.8-0.4l0.5-0.3c0.5-0.3,1-0.6,1.6-0.9
			c0.3-0.2,0.6-0.3,0.9-0.4l0.6-0.3c0.5-0.2,0.9-0.5,1.4-0.7c0.3-0.1,0.6-0.3,0.9-0.4l0.7-0.3c0.4-0.2,0.9-0.4,1.3-0.6
			c0.4-0.1,0.7-0.3,1.1-0.4l0.8-0.3c0.4-0.2,0.8-0.3,1.2-0.5c0.4-0.1,0.8-0.3,1.2-0.4l0.8-0.3c0.4-0.1,0.8-0.3,1.2-0.4
			c0.4-0.1,0.9-0.3,1.3-0.4l0.8-0.2c0.4-0.1,0.7-0.2,1.1-0.3c0.5-0.1,1-0.2,1.5-0.4l0.8-0.2c0.3-0.1,0.7-0.2,1-0.2
			c0.7-0.1,1.4-0.2,2.1-0.4l0.5-0.1c0.3,0,0.5-0.1,0.8-0.1c1.1-0.2,2.3-0.3,3.4-0.4c4.1-0.4,8.2-0.4,12.3-0.1
			c5.3,0.4,10.5,1.5,15.6,3.2c8.7,2.9,16.6,7.4,23.5,13.5c0,0,0.1,0.1,0.1,0.1c11.4-14.9,28.5-24.4,47.3-26.2
			c1.2-0.1,2.3-0.2,3.4-0.2c0.3,0,0.5,0,0.8,0l0.6,0c0.7,0,1.3,0,2,0c0.3,0,0.7,0,1,0l0.8,0c0.5,0,1,0,1.5,0c0.4,0,0.8,0.1,1.1,0.1
			l0.8,0.1c0.5,0,0.9,0.1,1.4,0.1c0.4,0,0.8,0.1,1.2,0.2l0.8,0.1c0.4,0.1,0.8,0.1,1.3,0.2c0.4,0.1,0.9,0.1,1.3,0.2l0.8,0.1
			c0.4,0.1,0.8,0.1,1.1,0.2c0.5,0.1,1,0.2,1.4,0.3l0.7,0.2c0.3,0.1,0.7,0.2,1,0.2c0.5,0.1,1,0.3,1.5,0.4l0.7,0.2
			c0.3,0.1,0.6,0.2,0.9,0.3c0.6,0.2,1.1,0.4,1.7,0.6l0.6,0.2c0.3,0.1,0.5,0.2,0.8,0.3c0.6,0.2,1.2,0.5,1.8,0.7l0.5,0.2
			c0.2,0.1,0.5,0.2,0.7,0.3c0.7,0.3,1.3,0.6,2,0.9l1,0.4c0.7,0.3,1.4,0.7,2.1,1l0.8,0.4c0.7,0.4,1.4,0.8,2.1,1.2l0.7,0.4
			c0.7,0.4,1.4,0.9,2.1,1.3l0.6,0.4c0.7,0.5,1.5,1,2.2,1.5l0.5,0.3c0.7,0.5,1.5,1.1,2.2,1.7l0.4,0.3c0.7,0.6,1.4,1.2,2.1,1.8
			l0.3,0.2c0.7,0.7,1.4,1.3,2.1,2l0.2,0.2c0.7,0.7,1.4,1.4,2.1,2.1l0.2,0.2c0.7,0.7,1.3,1.5,2,2.3c0.7,0.8,1.3,1.6,1.9,2.4l0.2,0.3
			c0.6,0.8,1.2,1.7,1.8,2.5c6.6,9.5,10.7,20.6,11.8,32.1l0,0c2.1,22.1-10.4,48.5-37.1,78.4c-20.8,23.2-44.9,42.6-57.4,52.2
			C290.1,487.4,283.4,488.5,277.2,486.7z M172.7,346.7c-3.6,8.2-5.1,17.2-4.4,26.2l0,0.6c0,0.2,0,0.5,0.1,0.7
			c3.4,35.4,59.6,75.1,111,100.4c2.8,1.4,6.1,1.1,8.6-0.8c45.6-34.7,93.2-84.3,89.8-119.7c-0.9-9.5-4.3-18.6-9.7-26.4
			c-0.5-0.7-1-1.4-1.5-2l-0.1-0.2c-0.5-0.7-1.1-1.3-1.6-2c-0.6-0.7-1.2-1.3-1.7-2l-0.1-0.1c-0.6-0.6-1.1-1.2-1.7-1.8l-0.2-0.1
			c-0.6-0.6-1.2-1.1-1.8-1.6l-0.2-0.2c-0.6-0.5-1.2-1-1.8-1.5l-0.3-0.2c-0.6-0.5-1.2-0.9-1.8-1.4l-0.4-0.3c-0.6-0.4-1.2-0.8-1.8-1.2
			l-0.5-0.3c-0.6-0.4-1.1-0.7-1.7-1.1l-0.6-0.3c-0.6-0.3-1.1-0.7-1.7-1L348,310c-0.6-0.3-1.1-0.6-1.7-0.9l-0.7-0.3
			c-0.6-0.3-1.1-0.5-1.7-0.7l-1-0.4c-0.5-0.2-1-0.4-1.5-0.6l-1.2-0.4c-0.4-0.2-0.9-0.3-1.3-0.4c-0.2-0.1-0.4-0.1-0.6-0.2l-0.8-0.2
			c-0.4-0.1-0.8-0.2-1.2-0.3c-0.2-0.1-0.5-0.1-0.7-0.2l-0.9-0.2c-0.4-0.1-0.7-0.2-1.1-0.2c-0.3-0.1-0.5-0.1-0.8-0.1l-0.9-0.2
			c-0.3-0.1-0.6-0.1-1-0.2c-0.3,0-0.6-0.1-0.9-0.1l-1-0.1c-0.3,0-0.6-0.1-0.9-0.1c-0.3,0-0.7-0.1-1-0.1l-1-0.1c-0.2,0-0.5,0-0.8-0.1
			c-0.4,0-0.7,0-1.1,0l-1,0c-0.2,0-0.4,0-0.6,0c-0.5,0-1.1,0-1.6,0l-1.2,0c-0.9,0-1.9,0.1-2.8,0.2c-16.5,1.6-31.3,10.3-40.6,24
			c-0.6,0.9-1.2,1.8-1.7,2.7l-4.2,7l-5.5-6.1c-1.4-1.6-2.9-3.1-4.5-4.5c-5.7-5-12.1-8.7-19.3-11.1c-4.1-1.4-8.4-2.3-12.8-2.6
			c-3.3-0.3-6.7-0.3-10.1,0.1c-1,0.1-1.9,0.2-2.8,0.3l-1.1,0.2c-0.6,0.1-1.1,0.2-1.6,0.3c-0.2,0-0.4,0.1-0.6,0.1l-0.9,0.2
			c-0.4,0.1-0.8,0.2-1.2,0.3c-0.2,0.1-0.5,0.1-0.7,0.2l-1,0.3c-0.3,0.1-0.6,0.2-1,0.3c-0.3,0.1-0.5,0.2-0.8,0.3l-1,0.3
			c-0.3,0.1-0.6,0.2-0.8,0.3c-0.3,0.1-0.6,0.2-0.9,0.3l-0.9,0.4c-0.2,0.1-0.5,0.2-0.7,0.3c-0.3,0.1-0.6,0.3-1,0.4l-0.9,0.4
			c-0.2,0.1-0.4,0.2-0.6,0.3c-0.4,0.2-0.7,0.4-1.1,0.5l-0.8,0.4c-0.2,0.1-0.4,0.2-0.6,0.3c-0.4,0.2-0.8,0.5-1.2,0.7l-1.1,0.6
			c-0.5,0.3-0.9,0.6-1.4,0.9l-0.9,0.6c-0.5,0.3-1,0.7-1.5,1l-0.7,0.5c-0.5,0.4-1,0.8-1.5,1.2l-0.6,0.5c-0.5,0.4-1,0.8-1.5,1.3
			l-0.5,0.4c-0.5,0.5-1,0.9-1.5,1.4l-0.4,0.4c-0.5,0.5-1,1-1.5,1.5l-0.4,0.4c-0.5,0.5-1,1.1-1.4,1.6l-0.2,0.2
			c-0.6,0.7-1,1.3-1.5,1.9l-0.1,0.2c-0.6,0.7-1,1.4-1.5,2l-0.1,0.2c-0.5,0.7-0.9,1.4-1.3,2l-5.2-3.1l5.1,3.2
			c-0.4,0.7-0.9,1.4-1.3,2.1l-0.1,0.2c-0.4,0.7-0.8,1.4-1.2,2.2c-0.4,0.8-0.8,1.6-1.1,2.4L172.7,346.7z"/>
		<g>
			<path fill="#000072" d="M281.8,485.3c-3.2,0.3-6.5-0.3-9.5-1.8c-14-6.9-41.2-21.3-65.9-40c-31.3-23.8-48.3-46.6-50.3-68
				c-3.4-35.7,22.8-67.5,58.5-71c19-1.8,37.9,4.9,51.6,18.1c10.9-15.6,28.2-25.8,47.2-27.6c35.7-3.4,67.5,22.8,71,58.5
				c2.1,21.3-10.2,47-36.4,76.3c-20.7,23.1-44.6,42.4-57.1,51.8C288.2,483.8,285,484.9,281.8,485.3z M215.3,311.3
				c-32,3.1-55.5,31.6-52.4,63.6c4.4,45.9,87.2,90.1,112.5,102.5c3.7,1.8,8.1,1.4,11.5-1.1c22.4-17,95.3-76.2,90.9-122.1
				c-3.1-32-31.6-55.5-63.6-52.4c-18.3,1.8-34.9,12.2-44.4,28l-2.3,3.9l-3-3.4C251.9,316.7,233.6,309.5,215.3,311.3z"/>
		</g>
	</g>
	<g>
		<path fill="#B3D133" d="M103.8,396.2c9.1,39.8,63.9,52.5,82.1,43.9c11.7-5.5,21.5-16,23.9-30c3.2-18.8-3.1-32.8-13.5-40.5
			c-0.7-0.5-1.4-1-2.2-1.5c-16.4-10.1-26.9-9.2-34.9-16.7l-25.9-28.9c-10.4,8.4-19.5,19.4-25.1,32.1c0,0,0,0,0,0
			C102.6,367.1,100.4,381.3,103.8,396.2z"/>
	</g>
	<g opacity="0.2">
		<g>
			<path d="M103.3,394.3c10.7,39.4,66,49.8,83.8,40.5c11.4-6,20.9-16.9,22.7-31c2.4-18.9-4.5-32.7-15.2-39.9
				c0.7,8.2,2.6,49.6-32.1,54.2c-45.3,6-60.6-37.8-56.6-65.5C100.9,365.3,99.4,379.6,103.3,394.3z"/>
		</g>
	</g>
	<g>
		<path fill="#390075" d="M157.8,352.7c4.3,5.5,11.1,8.6,17.5,10.8c6,2,11.6,4.6,16.9,7.9c10.2,6.3,15,18.4,14.5,30.2
			c0,12.1-5.4,23.5-15.4,30.6c-4.8,3.5-9.8,6-15.9,6.3c-23.6,1.2-51.1-10.3-63.2-31.2c-3-5.2-4.8-11.1-5.6-17.1
			c-3.7-25,9.9-49.4,29.1-64.8c3.9-3.3-0.8-9.1-4.9-6c-21.2,16.9-36,44.3-31.9,71.9c2.6,21.7,18,38,37.2,46.8
			c14.5,6.7,35.1,11.6,50.6,5.7c13-5.8,23.6-17.5,26.5-31.6c2.1-10.4,1.7-21.3-2.8-31.2c-5.8-13.5-19.5-20.2-32.5-25
			c-5.8-2.3-12.2-2.7-17.4-6.2C158.7,348.7,156.5,351,157.8,352.7L157.8,352.7z"/>
	</g>
	<g>
		<path fill="#EFF0F4" d="M207.1,423c-3.8,7.5-9.8,13.5-16.8,17.6c-2.8-1.6-5.3-4-6.1-7.9C181.7,420.2,193,416,207.1,423z"/>
	</g>
	<g>
		<path fill="#EFF0F4" d="M210.9,410.7c-0.5,4.2-1.8,8.2-3.5,11.8c-5.2-1.4-13.6-4.2-13.5-11.7c0-9.3,7.2-13.8,17.3-11.9
			C211.5,402.6,211.4,406.5,210.9,410.7z"/>
	</g>
	<g>
		<path fill="#EFF0F4" d="M211.1,398.1c-6.6,0.5-14.9,0.3-17.6-5.9c-2.8-6.3,0.6-12.9,7.8-16.6C206.5,381.1,210.1,388.7,211.1,398.1
			z"/>
	</g>
	<g>
		<path fill="#390075" d="M187.5,442.4c-4-2.5-6.4-5.9-7.1-10.2c-1-6,0.7-10.8,4.6-13.6c5.3-3.8,13.9-3.1,22.8,1.9
			c0.7,0.4,1.2,1,1.4,1.7c0.2,0.7,0.1,1.5-0.3,2.2c-4.2,7.5-10.6,13.7-18.6,18c-0.5,0.3-1,0.4-1.5,0.3
			C188.4,442.9,188,442.7,187.5,442.4z M188.4,423.4c-2.6,1.8-2.7,5.3-2.2,7.9c0.3,2.1,1.3,3.8,3,5.2c5.4-3.2,9.9-7.4,13.2-12.3
			C196.6,421.7,191.3,421.4,188.4,423.4z"/>
	</g>
	<g>
		<path fill="#390075" d="M205.9,425.4c-4.2-1.4-15.5-5-15.1-15.2c0.2-4.9,2.1-8.9,5.5-11.5c3.9-3,9.5-3.8,15.9-2.4
			c1.3,0.3,2.2,1.4,2.2,2.7c0.2,3.9-0.1,8.1-0.8,12.4c0,0,0,0,0,0c-0.7,4.4-2.2,8.6-4.3,12.5c-0.5,1-1.6,1.6-2.7,1.5
			C206.4,425.5,206.2,425.5,205.9,425.4z M208.7,401.6c-3.7-0.5-6.8,0.1-8.9,1.7c-2,1.5-3.1,3.9-3.2,7.1c-0.2,3.6,2.5,6.3,8.7,8.6
			c1.2-2.7,2.1-5.6,2.6-8.5C208.5,407.5,208.7,404.5,208.7,401.6z"/>
	</g>
	<g>
		<path fill="#390075" d="M191.5,392.8c-3-7.7,1-15.8,9.9-20c1.2-0.6,2.6-0.3,3.4,0.7c5.7,6.5,9,15,9.6,24.7c0,0.8-0.2,1.5-0.7,2.1
			c-0.5,0.6-1.3,0.9-2,1c-1,0-2.6,0.1-4.4,0C201.8,401.1,194.2,399.7,191.5,392.8z M201.9,379.2c-4.7,2.9-6.6,7.3-5,11.5
			c1.2,3.2,4.9,4.7,11.4,4.8C207.5,389.3,205.3,383.8,201.9,379.2z"/>
	</g>
	<g>
		<g>
			<path fill="#B3D133" d="M439.9,398.3c-10.7,39.4-66,49.8-83.8,40.5c-11.4-6-20.9-16.9-22.7-31c-2.4-18.9,4.5-32.7,15.2-39.9
				c0.7-0.5,1.5-1,2.2-1.4c16.8-9.5,27.3-8.1,35.6-15.3l27.1-27.8c10,8.8,18.7,20.2,23.8,33.1c0,0,0,0,0,0
				C442.3,369.4,443.9,383.7,439.9,398.3z"/>
		</g>
		<g opacity="0.2">
			<g>
				<path d="M439.9,398.3c-10.7,39.4-66,49.8-83.8,40.5c-11.4-6-20.9-16.9-22.7-31c-2.4-18.9,4.5-32.7,15.2-39.9
					c-0.7,8.2-2.6,49.6,32.1,54.2c45.3,6,60.6-37.8,56.6-65.5C442.3,369.4,443.9,383.7,439.9,398.3z"/>
			</g>
		</g>
		<g>
			<path fill="#390075" d="M387.7,352.7c-4.5,5.3-11.4,8.1-17.9,10.1c-6.1,1.7-11.8,4.2-17.2,7.2c-10.5,5.9-15.7,17.8-15.8,29.6
				c-0.5,12.1,4.4,23.7,14.1,31.2c4.6,3.7,9.5,6.4,15.7,7c23.5,2.1,51.5-8.2,64.4-28.6c3.2-5.1,5.2-10.9,6.3-16.9
				c4.7-24.8-7.8-49.8-26.4-65.9c-3.8-3.4,1.1-9.1,5.1-5.8c20.5,17.7,34.1,45.7,28.9,73.2c-3.5,21.6-19.5,37.2-39.1,45.3
				c-14.8,6-35.5,10.2-50.8,3.7c-12.7-6.3-22.9-18.4-25.2-32.7c-1.7-10.5-0.8-21.3,4.1-31c6.3-13.2,20.3-19.3,33.5-23.6
				c5.9-2,12.3-2.2,17.7-5.5C387,348.7,389,351,387.7,352.7L387.7,352.7z"/>
		</g>
		<g>
			<path fill="#EFF0F4" d="M337.1,420.1c3.8,7.5,9.8,13.5,16.8,17.6c2.8-1.6,5.3-4,6.1-7.9C362.5,417.3,351.3,413.1,337.1,420.1z"/>
		</g>
		<g>
			<path fill="#EFF0F4" d="M333.4,407.8c0.5,4.2,1.8,8.2,3.5,11.8c5.2-1.4,13.6-4.2,13.5-11.7c0-9.3-7.2-13.8-17.3-11.9
				C332.8,399.7,332.8,403.6,333.4,407.8z"/>
		</g>
		<g>
			<path fill="#EFF0F4" d="M333.2,395.2c6.6,0.5,14.9,0.3,17.6-5.9c2.8-6.3-0.6-12.9-7.8-16.6C337.8,378.2,334.2,385.8,333.2,395.2z
				"/>
		</g>
		<g>
			<path fill="#390075" d="M353.9,440.6c-0.5,0-1-0.1-1.5-0.4c-7.9-4.6-14-11.1-17.9-18.8c-0.3-0.7-0.4-1.5-0.2-2.2
				c0.2-0.7,0.8-1.3,1.5-1.7c9.2-4.5,17.7-4.9,22.9-0.9c3.8,2.9,5.3,7.8,4.1,13.8c-0.9,4.3-3.4,7.6-7.5,9.9
				C354.9,440.4,354.4,440.6,353.9,440.6z M341.2,421.4c3.1,5,7.4,9.4,12.7,12.8c1.8-1.3,2.8-3,3.2-5.1c0.5-2.6,0.6-6-1.9-8
				C352.4,419,347.1,419.1,341.2,421.4z"/>
		</g>
		<g>
			<path fill="#390075" d="M336.9,422.5c-1.1,0-2.1-0.6-2.6-1.6c-1.9-4-3.2-8.2-3.8-12.7c0,0,0,0,0,0c-0.5-4.3-0.6-8.5-0.3-12.5
				c0.1-1.3,1.1-2.4,2.4-2.6c6.4-1.2,12-0.1,15.8,3c3.3,2.7,5,6.8,5,11.7c0,10.2-11.4,13.4-15.7,14.5
				C337.4,422.4,337.1,422.5,336.9,422.5z M336.3,407.5c0.4,3,1.1,5.9,2.2,8.6c6.2-2.1,9-4.6,9-8.2c0-3.2-1-5.6-2.9-7.2
				c-2-1.7-5.1-2.4-8.8-2.1C335.7,401.4,335.9,404.4,336.3,407.5z"/>
		</g>
		<g>
			<path fill="#390075" d="M337.4,398.3c-1.8,0-3.4-0.1-4.4-0.2c-0.8-0.1-1.5-0.4-2-1c-0.5-0.6-0.7-1.4-0.7-2.2
				c1-9.6,4.7-18,10.6-24.2c0.9-0.9,2.3-1.2,3.5-0.6c8.8,4.6,12.4,12.8,9.1,20.4C350.5,397.2,342.8,398.3,337.4,398.3z M336.5,392.5
				c6.5,0.2,10.3-1.3,11.6-4.4c1.8-4.2,0.1-8.6-4.5-11.7C340,380.8,337.6,386.3,336.5,392.5z"/>
		</g>
	</g>
</g>
</svg>
