<?xml version="1.0" encoding="utf-8"?>
<!-- Generator: Adobe Illustrator 28.0.0, SVG Export Plug-In . SVG Version: 6.00 Build 0)  -->
<svg version="1.1" id="Calque_1" xmlns="http://www.w3.org/2000/svg" xmlns:xlink="http://www.w3.org/1999/xlink" x="0px" y="0px"
	 viewBox="0 0 1881.2 1510" enable-background="new 0 0 1881.2 1510" xml:space="preserve">
<ellipse fill-opacity="0.15" cx="756.3" cy="1248.9" rx="226.2" ry="42.9"/>
<ellipse fill-opacity="0.15" cx="1354.1" cy="1451" rx="226.2" ry="42.9"/>
<g>
	<g>
		<g>
			<g>
				<rect x="707" y="983.4" fill="#848484" width="103.1" height="155.1"/>
				<path fill="#390075" d="M816.3,1144.7H700.9V977.2h115.4V1144.7z M713.2,1132.4h90.8V989.5h-90.8V1132.4z"/>
			</g>
			<g>
				<path fill="#828282" d="M899.3,990.2H617.8c-13.8,0-25-11.3-25-25v0c0-13.8,11.3-25,25-25h281.5c13.8,0,25,11.3,25,25v0
					C924.4,979,913.1,990.2,899.3,990.2z"/>
				<path fill="#390075" d="M899.3,996.4H617.8c-17.2,0-31.2-14-31.2-31.2c0-17.2,14-31.2,31.2-31.2h281.5c17.2,0,31.2,14,31.2,31.2
					C930.5,982.4,916.5,996.4,899.3,996.4z M617.8,946.3c-10.4,0-18.9,8.5-18.9,18.9c0,10.4,8.5,18.9,18.9,18.9h281.5
					c10.4,0,18.9-8.5,18.9-18.9c0-10.4-8.5-18.9-18.9-18.9H617.8z"/>
			</g>
			<g>
				<path fill="#5B574F" d="M819.2,1163.3H697.9v-69.4c0-33.5,27.1-60.6,60.6-60.6h0c33.5,0,60.6,27.1,60.6,60.6V1163.3z"/>
				<path fill="#390075" d="M825.4,1169.5H691.8v-75.6c0-36.8,30-66.8,66.8-66.8c36.8,0,66.8,30,66.8,66.8V1169.5z M704.1,1157.1
					h109v-63.2c0-30-24.4-54.5-54.5-54.5c-30,0-54.5,24.4-54.5,54.5V1157.1z"/>
			</g>
			<g>
				<circle fill="#727170" cx="758.6" cy="1089.5" r="23.4"/>
				<path fill="#390075" d="M758.6,1119.1c-16.3,0-29.5-13.3-29.5-29.5c0-16.3,13.3-29.5,29.5-29.5s29.5,13.3,29.5,29.5
					C788.1,1105.8,774.8,1119.1,758.6,1119.1z M758.6,1072.3c-9.5,0-17.2,7.7-17.2,17.2c0,9.5,7.7,17.2,17.2,17.2
					c9.5,0,17.2-7.7,17.2-17.2C775.8,1080,768.1,1072.3,758.6,1072.3z"/>
			</g>
			<g>
				<path fill="#FFFFFF" d="M809.9,1222.2H707.2c-9.6,0-17.5-7.9-17.5-17.5v-52.8c0-9.6,7.9-17.5,17.5-17.5h102.7
					c9.6,0,17.5,7.9,17.5,17.5v52.8C827.4,1214.3,819.6,1222.2,809.9,1222.2z"/>
				<path fill="#390075" d="M809.9,1228.4H707.2c-13.1,0-23.7-10.6-23.7-23.7v-52.8c0-13.1,10.6-23.7,23.7-23.7h102.7
					c13.1,0,23.7,10.6,23.7,23.7v52.8C833.6,1217.7,823,1228.4,809.9,1228.4z M707.2,1140.5c-6.3,0-11.4,5.1-11.4,11.4v52.8
					c0,6.3,5.1,11.4,11.4,11.4h102.7c6.3,0,11.4-5.1,11.4-11.4v-52.8c0-6.3-5.1-11.4-11.4-11.4H707.2z"/>
			</g>
			<path fill="#FFFFFF" d="M802.7,1216h-88.3c-8.3,0-15.1-6.8-15.1-15.1v-45.4c0-8.3,6.8-15.1,15.1-15.1h88.3
				c8.3,0,15.1,6.8,15.1,15.1v45.4C817.7,1209.2,811,1216,802.7,1216z"/>
			<path fill="#EDEDED" d="M736.3,1185.7c-13.5-8.3-25.7-20.2-32-35c-2-4.6-3.5-9.6-4.5-14.8c-6,2.8-10.1,8.9-10.1,15.9v52.8
				c0,9.6,7.9,17.5,17.5,17.5h102.7c9.2,0,16.8-7.2,17.5-16.3C796.2,1207.6,762.9,1202.1,736.3,1185.7z"/>
			<path fill="#C6C6C5" d="M1156.9,965.2H90.6c-9.3,0-16.9-7.6-16.9-16.9v-26.7c0-9.3,7.6-16.9,16.9-16.9h1066.4
				c9.3,0,16.9,7.6,16.9,16.9v26.7C1173.8,957.6,1166.2,965.2,1156.9,965.2z"/>
			<path fill="#E6E6E6" d="M73.7,935.5v13.4c0,8.9,7.9,16.3,17.5,16.3h1065.1c9.6,0,17.5-7.3,17.5-16.3v-13.4H73.7z"/>
			<g>
				<path fill="#5B574F" d="M883.2,1222.2H633.9c-17.9,0-32.4,14.5-32.4,32.4l0,0h314.2l0,0C915.7,1236.7,901.1,1222.2,883.2,1222.2
					z"/>
				<path fill="#390075" d="M921.8,1260.8H595.3v-6.2c0-21.3,17.3-38.6,38.6-38.6h249.3c21.3,0,38.6,17.3,38.6,38.6V1260.8z
					 M608.3,1248.5h300.4c-2.8-11.5-13.2-20.1-25.5-20.1H633.9C621.5,1228.4,611.1,1236.9,608.3,1248.5z"/>
			</g>
		</g>
		<path fill="#390075" d="M1161.3,970.3H89.9c-5.8,0-11.3-2.4-15.5-6.7c-4.3-4.2-6.7-9.7-6.7-15.5v-26.5c0-13,9.9-23.5,22.1-23.5
			h1071.4c12.2,0,22.1,10.6,22.1,23.5v26.5c0,5.8-2.4,11.3-6.7,15.5C1172.6,967.9,1167.1,970.3,1161.3,970.3z M89.9,909.9
			c-5.7,0-10.3,5.3-10.3,11.7v26.5c0,2.6,1.1,5.1,3.1,7l0.2,0.2c1.9,2,4.4,3.1,7,3.1h1071.4c2.6,0,5.1-1.1,7-3.1l0.2-0.2
			c2-1.9,3.1-4.4,3.1-7v-26.5c0-6.5-4.6-11.7-10.3-11.7H89.9z"/>
	</g>
	<g>
		<g>
			<g>
				<path fill="#B3D133" d="M913.2,814.3c6.1-43.9-10.3-105.8-37.3-166.5c-12.8-28.8-45.3-66.7-133.7-70.7
					c-24.6-1.1-85.6,0.6-118.6,3c-66,4.8-95.9,48.6-117.1,111.3C486,752.3,465.8,825,471.9,862c2.6,16,9.5,26.8,18.6,33.9
					c30.9,24.1,87.3,5.5,87.3,5.5c0.4,0,0.9,0,1.4,0c15.2-0.1,32.2-0.1,50.1,0c56,0.2,121.6,0.7,173.7-0.4
					C860.3,899.7,906.9,860.3,913.2,814.3"/>
				<path fill="#390075" d="M533.8,914.8c-16.3,0-33.8-3.2-47.4-13.8c-11.3-8.8-18.4-21.6-21-38c-5.1-31.4,6.6-89.9,34.9-173.7
					c12.3-36.3,26-61.6,43.2-79.8c20.7-21.8,46.7-33.6,79.7-35.9c32.1-2.3,93.5-4.2,119.4-3c40.6,1.8,73.8,10.9,98.5,27.1
					c18.5,12.1,32.3,28.1,40.9,47.5c30.2,67.9,43.6,128.3,37.8,170.1l0,0c-3.4,24.3-17,47.1-38.4,64.3
					c-21.7,17.4-49.4,27.3-78.2,27.9c-43.2,0.9-94.5,0.7-144.2,0.5c-10.1,0-20-0.1-29.6-0.1c-21.2-0.1-36.7,0-50,0
					c-0.1,0-0.3,0-0.4,0C574.2,909.3,555.2,914.8,533.8,914.8z M722.4,583.4c-28.4,0-71.4,1.4-98.2,3.3
					c-29.5,2.1-52.8,12.6-71.1,31.9c-15.9,16.7-28.7,40.5-40.3,75c-27.2,80.6-39.1,138.5-34.4,167.4c2.1,13.1,7.6,23.1,16.2,29.8
					c27.8,21.7,80.7,4.6,81.2,4.4l1-0.3l1,0c0.4,0,0.8,0,1.3,0l0.1,0c13.4-0.1,28.9-0.1,50.2,0c9.6,0,19.6,0.1,29.6,0.1
					c49.6,0.2,100.9,0.4,143.9-0.5c25.9-0.5,50.8-9.4,70.3-25c18.8-15.1,30.7-34.9,33.6-55.8c5.4-39.4-7.6-97.3-36.8-162.9
					c-7.6-17-19.7-31.1-36.1-41.8c-22.7-14.9-53.6-23.2-91.9-25C737,583.5,730.2,583.4,722.4,583.4z"/>
			</g>
		</g>
		<g>
			<g>
				<g>
					<path fill-opacity="0.19" d="M913.2,814.3c6.1-43.9-10.3-105.8-37.3-166.5c-10.6-23.9-25.9-47.2-84.8-64.7
						c40.3,22.8,49.6,35.8,58.7,56.2c28.4,63.9,45.7,129.1,39.3,175.4c-5.4,38.9-38.1,73.3-82.1,86
						C862.4,897.8,907,859.2,913.2,814.3"/>
				</g>
			</g>
		</g>
		<g opacity="0.4">
			
				<ellipse transform="matrix(0.9927 -0.1209 0.1209 0.9927 -75.7589 91.6371)" fill="#EEEFF3" cx="717.3" cy="670.2" rx="107.8" ry="78.7"/>
		</g>
	</g>
	<g>
		<g>
			<g>
				<path fill-rule="evenodd" clip-rule="evenodd" fill="#E6E6E6" d="M693.6,983.5c-10.8-14.5-38.5,3.5-31.4-41
					c8.7-54.2-3.7-287.6-30-365.3c11.5-0.2,234.1-6.8,270.9-13.8c183.8-34.9,264,116.7,296.5,177.3c14.7,27.3,24,57.2,27.3,88.1
					c6.1,55.3,4.6,129.6-42.2,150.4"/>
				<path fill="#390075" d="M689.8,986.4c-2.6-3.5-6.9-4.4-12-5.4c-5.8-1.2-12.5-2.6-16.9-8.5c-4.7-6.2-5.7-15.9-3.4-30.7
					c4.2-26.3,3.4-97.3-1.9-172.7c-6.1-86.7-16.3-156.1-27.9-190.2l-2.1-6.2l6.5-0.1c14.3-0.3,233.9-6.8,270.1-13.7
					c79.8-15.2,149.9,2.7,208.1,53.2c47.7,41.3,76,94,92.9,125.4l0.6,1.1c15,28,24.4,58.2,27.9,89.8c6.5,58.8,3.9,133.5-45,155.3
					l-3.9-8.7c19.4-8.7,32.3-28.5,38.2-58.8c4.6-23.4,5-52.6,1.2-86.7c-3.3-30.4-12.4-59.4-26.8-86.3l-0.6-1.1
					c-16.6-30.9-44.3-82.6-90.7-122.7c-25.5-22.1-53.7-37.9-83.7-46.9c-35.6-10.7-74.8-12.1-116.4-4.2
					c-34,6.5-225.8,12.6-265.3,13.7c11,36.6,20.5,103.8,26.4,186.5c5.4,76.1,6.1,148,1.8,174.9c-1.9,11.7-1.3,19.6,1.6,23.4
					c2.3,3.1,6.4,3.9,11.2,4.9c6.1,1.3,12.9,2.7,17.7,9.1L689.8,986.4z"/>
			</g>
			<path fill="#390075" d="M1111.3,610.9c47.9,41.5,76.2,94.3,93.2,125.8l0.6,1.1c15.1,28.2,24.5,58.5,28,90.3
				c6.5,59.3,3.8,134.6-45.8,156.7l-5-11.3c19-8.5,31.5-27.9,37.4-57.8c4.5-23.3,4.9-52.3,1.2-86.3c-3.3-30.2-12.3-59.1-26.6-85.8
				l-0.6-1.1c-16.5-30.8-44.2-82.4-90.4-122.3c-25.4-22-53.4-37.7-83.2-46.6"/>
			<path fill="#390075" d="M647.3,578.9c5.4,18.3,10.3,43.7,14.8,75.5c4.5,31.9,8.3,69.9,11.1,109.6c5.4,76.2,6.1,148.3,1.8,175.2
				c-2.2,14.1-0.5,19.9,1.3,22.4c1.9,2.5,5.2,3.3,10.4,4.4c6,1.2,13.5,2.8,18.5,9.6l-9.9,7.4c-2.2-2.9-5.6-3.8-11.2-4.9
				c-5.8-1.2-13-2.7-17.7-9.1c-4.9-6.5-6.1-16.6-3.6-31.7c4.2-26.2,3.4-97.1-1.9-172.4c-6.1-86.6-16.2-155.8-27.8-189.9l-2.7-8
				l8.4-0.2"/>
		</g>
		<g>
			<path fill-rule="evenodd" clip-rule="evenodd" fill="#C1C1C1" d="M647.2,932.1c-0.6,3.2-1.1,6.7-1.5,10.5
				c-4.4,41.8,14.4,43.5,21,57.1c14.3,0.9,532.3,20.5,559-0.5c-7.6-29.2-5.9-36.5-1.1-65.9L647.2,932.1z"/>
			<path fill="#390075" d="M1120.5,1014.9c-20.9,0-45.8-0.4-75.6-1.2c-81.8-2.4-369.5-7.4-378.5-8l-3.5-0.2l-1.5-3.1
				c-1.4-2.9-3.7-5.3-6.4-8.1c-3.9-4.1-8.8-9.1-12.1-17.3c-3.6-9-4.6-20.5-3.1-34.9c0.4-3.8,0.9-7.5,1.6-11l0.9-4.9l589.4,1.3
				l-1.7,10.3c-4.3,26.2-5.4,33.2,1.5,60.1l1,3.8l-3.1,2.4C1223.1,1008.9,1204.1,1014.9,1120.5,1014.9z M670.3,994
				c17.9,1.1,299.4,5.6,374.9,7.7c47.7,1.4,86.8,1.6,116.1,0.6c17.2-0.6,31.1-1.6,41.5-2.9c8.4-1.1,13.3-2.3,16-3.3
				c-6-24.5-4.8-34.2-1.2-56.8l-565.3-1.2c-0.2,1.7-0.4,3.4-0.6,5.1c-2.9,27.5,4.6,35.2,11.9,42.7
				C665.9,988.4,668.3,990.9,670.3,994z"/>
		</g>
		<g>
			<path fill-rule="evenodd" clip-rule="evenodd" fill="#9A9ACC" d="M597.1,573.1c26.3,77.7,38.6,311.1,30,365.3
				c-7.1,44.5,17.7,48,28.5,62.4c3.2,5.4,38.5,6.7,35,2.3c-13.5-22.4-36.9-21.6-30.3-62.8c9.2-57.2-1.8-291.7-26.3-369.2
				c-0.9-2.6-11.4-1.1-19.5-0.5C605.2,571.2,596.2,570.3,597.1,573.1z"/>
			<path fill="#390075" d="M680.2,1009.7c-4.4,0-9.4-0.4-13.8-1c-10-1.5-12.9-3.8-14.1-5.7c-2.4-3.2-5.7-5.9-9.3-8.8
				c-11.4-9.3-25.6-20.9-19.9-56.5c4.2-26.3,3.4-97.4-1.9-172.9c-6.1-86.8-16.3-156.2-27.9-190.4l0-0.1c-0.5-1.5-0.2-3.1,0.7-4.3
				c2-2.8,5.9-2.9,12.9-3c2.3-0.1,4.8-0.1,7.3-0.3c1.4-0.1,2.8-0.2,4.4-0.3c3.6-0.3,7.3-0.6,10.3-0.6c2.2,0,7.5,0.1,8.9,4.2l0,0.1
				c5.8,18.5,11.2,46.4,15.9,83c4.1,32.1,7.6,70.2,10.1,110.1c4.8,78.1,5,149.6,0.5,177.9c-4.2,26,4.1,33.4,14.5,42.8
				c5,4.5,10.6,9.6,15.2,17.1c1,1.4,1.2,3.2,0.5,4.7c-1.1,2.6-4,3.7-10.2,4.1C682.9,1009.7,681.6,1009.7,680.2,1009.7z M658.8,998.5
				c1,0.7,5.5,2.3,14.4,3c5,0.4,8.9,0.3,11.5,0.1c-3.5-4.8-7.5-8.4-11.4-11.9c-5.4-4.9-11.1-10-14.6-17.6
				c-3.9-8.4-4.7-18.7-2.5-32.4c4.4-27.8,4.2-98.6-0.6-176.1c-2.5-39.7-5.9-77.6-10-109.6c-4.5-35.2-9.6-62.2-15.1-80.2
				c-2.4-0.3-7.9,0.2-11.3,0.5c-1.5,0.1-3.1,0.3-4.5,0.4c-2.7,0.2-5.3,0.2-7.7,0.3c-1.6,0-3.6,0.1-5.1,0.2
				c5.9,18.5,11.3,45.3,16.1,79.7c4.5,31.9,8.3,69.8,11.1,109.5c5.4,76,6.1,147.9,1.8,174.7c-5,31.1,6.2,40.2,17,49.1
				c3.8,3.1,7.7,6.3,10.7,10.3L658.8,998.5z"/>
		</g>
		<path fill-rule="evenodd" clip-rule="evenodd" fill="#CECECE" d="M951.9,837.3c18,12.2,79.3,35.7,115.4,37.5
			C1040.9,884.8,970.6,871,951.9,837.3z"/>
		<path fill-rule="evenodd" clip-rule="evenodd" fill="#8080A8" d="M627.7,927.1c-1,3.4-1.8,7.1-2.4,11.2
			c-7.1,44.5,5,47.5,15.8,61.9c3.2,5.4,51.2,7.2,47.7,2.8c-13.5-22.4-36.9-21.6-30.3-62.8c0.8-4.8,1.8-9.2,2.9-13.1"/>
		<path fill="#390075" d="M670.2,1011.2c-3.4,0-6.6-0.2-9.4-0.5c-5.8-0.6-9.3-1.8-11.2-3.9c-5.1-3.1-13.9-8.8-20.2-19.7
			c-7.4-12.7-9.4-29.3-6.2-49.5c4.2-26.3,3.4-97.4-1.9-172.9c-6.1-86.8-16.3-156.2-27.9-190.4l0-0.1c-0.5-1.5-0.2-3.1,0.7-4.3
			c2-2.8,5.9-2.9,12.9-3c2.3-0.1,4.8-0.1,7.3-0.3c1.4-0.1,2.8-0.2,4.4-0.3c3.6-0.3,7.3-0.6,10.3-0.6c2.2,0,7.5,0.1,8.9,4.2l0,0.1
			c5.8,18.5,11.2,46.4,15.9,83c4.1,32.1,7.6,70.2,10.1,110.1c4.8,78.1,5,149.6,0.5,177.9c-4.2,26,4.1,33.4,14.5,42.8
			c5,4.5,10.6,9.6,15.2,17.1c1,1.4,1.2,3.2,0.5,4.7c-1.2,2.6-4.4,3.6-7.5,4.3c-2.7,0.6-6.2,1-10.1,1.2
			C674.5,1011.2,672.3,1011.2,670.2,1011.2z M655.5,1001.5c1.2,0.7,6.4,1.9,16,1.7c6.1-0.1,10.8-0.6,13.6-1.2
			c-3.6-5-7.7-8.7-11.8-12.4c-5.4-4.9-11.1-10-14.6-17.6c-3.9-8.4-4.7-18.7-2.5-32.4c4.4-27.8,4.2-98.6-0.6-176.1
			c-2.5-39.7-5.9-77.6-10-109.6c-4.5-35.2-9.6-62.2-15.1-80.2c-2.4-0.3-7.9,0.2-11.3,0.5c-1.5,0.1-3.1,0.3-4.5,0.4
			c-2.7,0.2-5.3,0.2-7.7,0.3c-1.6,0-3.6,0.1-5.1,0.2c5.9,18.5,11.3,45.3,16.1,79.7c4.5,31.9,8.3,69.8,11.1,109.5
			c5.4,76,6.1,147.9,1.8,174.7c-2.9,18.3-1.2,33.2,5.2,44.3c5.6,9.6,13.7,14.6,18.1,17.3l0.8,0.5L655.5,1001.5z"/>
	</g>
</g>
<g>
	<g>
		<g>
			<g>
				<g>
					<g>
						<g>
							<path fill="#C3B2D3" d="M203.4,643.5l49-1.6l-1-30l7.5-0.2c11.2-0.4,20-9.8,19.7-21l-0.4-13c-0.4-11.2-9.8-20-21-19.6
								l-62.8,2c-11.2,0.4-20,9.7-19.6,21l0.4,13c0.4,11.2,9.7,20,21,19.7l6.3-0.2L203.4,643.5z"/>
						</g>
					</g>
					<g opacity="0.7">
						<g>
							<g>
								<path fill="#FFFFFF" d="M206.1,623.2l6.3-0.2l0.7,20.2l-9.8,0.3l-0.7-20.5C203.8,623.1,205,623.2,206.1,623.2z"/>
							</g>
						</g>
						<g>
							<g>
								<path fill="#FFFFFF" d="M267.2,567.6l-62.8,2c-11.2,0.4-20,9.7-19.6,21l0.4,13c0.1,3.1,0.9,6,2.2,8.6c-7-3-12-9.9-12.3-18
									l-0.4-13c-0.4-11.2,8.4-20.6,19.6-21l62.8-2c8.1-0.3,15.3,4.3,18.8,11.1C273.2,568.1,270.2,567.5,267.2,567.6z"/>
							</g>
						</g>
					</g>
					<g opacity="0.3">
						<g>
							<path fill="#390075" d="M202.9,629.8l10.8-0.4c12.4-0.4,22.2-10.8,21.8-23.3l0,0c-0.1-4.1,3.1-7.6,7.2-7.7h0
								c11.2-0.4,20-9.8,19.7-21l-0.4-13c-0.1-2.2-0.5-4.3-1.2-6.2c9.5,1.4,17,9.5,17.3,19.4l0.4,13c0.4,11.2-8.4,20.6-19.7,21
								l-7.5,0.2l1,30l-49,1.6L202.9,629.8z"/>
						</g>
					</g>
					<g>
						<g>
							<path fill="#390075" d="M259,618.5l-0.6,0l0.8,23.1c0.1,3.8-2.8,6.9-6.6,7.1l-49,1.6c-3.8,0.1-6.9-2.8-7.1-6.6l-0.8-23.1
								c-14.7,0.2-27-11.5-27.5-26.3l-0.4-13c-0.5-15,11.3-27.5,26.2-28l62.8-2c15-0.5,27.5,11.3,28,26.2l0.4,13
								C285.8,605.5,274,618,259,618.5z M181.9,593.9c0.2,7.4,6.5,13.3,13.9,13l6.3-0.2c3.8-0.1,6.9,2.8,7.1,6.6l0.8,23.1l35.3-1.1
								l-0.8-23.1c-0.1-3.8,2.8-6.9,6.6-7.1l7.5-0.2c7.4-0.2,13.3-6.5,13-13.9l-0.4-13c-0.2-7.4-6.5-13.3-13.9-13l-62.8,2
								c-7.4,0.2-13.3,6.5-13,13.9L181.9,593.9z"/>
						</g>
					</g>
				</g>
				<path fill="#B3D133" d="M348.4,593.6c-229-10.1-279.9,129.1-235.2,245.2l173,265.5c93.1,9.4,238.6-128.5,253.8-343.1"/>
				<path fill="#B3D133" d="M415,596.2c67.8,11.8,115.2,58.5,106.1,110.7c-9,52.2-71.3,84.9-139.2,73.2s-115.4-63.6-106.4-115.7
					C284.6,612.1,347.2,584.4,415,596.2z"/>
				<g opacity="0.35">
					<path fill="#FFFFFF" d="M349.6,594.5c-229-10.1-279.9,129.1-235.2,245.2l173,265.5c1.6,0.2,3.1,0.3,4.7,0.3L131.2,858.7
						c-44.7-116.1,6.3-255.2,235.2-245.2l72,8.9l3.4-20.3l-93.4-8.6"/>
				</g>
				<g>
					<path fill="#390075" d="M148.2,901.8c32.6,56.8,71.7,102.5,71.7,102.5l14.6,25.7l7.2,12.6c31,17.2,65.1,24.3,100.4,16.7
						l20.5-24.9l-75.8,11.5l48.8-59.2l-74.7,11.3l48-58.3l-69.2,10.5l44.5-54l-74.7,11.3l48-58.3L180.6,861l49.5-60l-62.6,9.5
						l40.3-48.9l-75.8,11.5l48.8-59.2l-73.9,11.2c-5.3,22.1-7.1,45.7-5.7,69.8l5.2,9.2C106.3,804.1,115.6,845,148.2,901.8z"/>
					<path fill="#390075" d="M107.1,723.9l46.9-57l-24.1,3.7C119.4,686.7,111.9,704.7,107.1,723.9z"/>
				</g>
				<g>
					<g>
						<g>
							<path fill="#390075" d="M234.7,601.8L262.4,989c0.2,2.6-2.2,4.9-5.4,5.2c-3.2,0.2-5.9-1.7-6.1-4.4l-27.7-387.3
								c-0.2-2.6,2.2-4.9,5.4-5.2C231.8,597.2,234.5,599.1,234.7,601.8z"/>
						</g>
					</g>
					<g>
						<g>
							<path fill="#390075" d="M281.5,950.4c0.3,3.8-3.2,7.1-7.7,7.4l-39.7,2.8c-4.5,0.3-8.4-2.5-8.6-6.2c-0.3-3.8,3.2-7.1,7.7-7.4
								l39.7-2.8C277.3,943.9,281.2,946.7,281.5,950.4z"/>
						</g>
					</g>
					<g>
						<g>
							<path fill="#390075" d="M277.3,891.9c0.3,3.8-3.2,7.1-7.7,7.4l-39.7,2.8c-4.5,0.3-8.4-2.5-8.6-6.2c-0.3-3.8,3.2-7.1,7.7-7.4
								l39.7-2.8C273.2,885.4,277,888.2,277.3,891.9z"/>
						</g>
					</g>
					<g>
						<g>
							<path fill="#390075" d="M273.1,833.4c0.3,3.8-3.2,7.1-7.7,7.4l-39.7,2.8c-4.5,0.3-8.4-2.5-8.6-6.2c-0.3-3.8,3.2-7.1,7.7-7.4
								l39.7-2.8C269,826.9,272.8,829.7,273.1,833.4z"/>
						</g>
					</g>
					<g>
						<g>
							<path fill="#390075" d="M259.1,637.2c0.3,3.8-3.2,7.1-7.7,7.4l-39.7,2.8c-4.5,0.3-8.4-2.5-8.6-6.2c-0.3-3.8,3.2-7.1,7.7-7.4
								l39.7-2.8C255,630.7,258.8,633.5,259.1,637.2z"/>
						</g>
					</g>
					<g>
						<g>
							<path fill="#390075" d="M263.3,695.7c0.3,3.8-3.2,7.1-7.7,7.4l-39.7,2.8c-4.5,0.3-8.4-2.5-8.6-6.2c-0.3-3.8,3.2-7.1,7.7-7.4
								l39.7-2.8C259.1,689.2,263,692,263.3,695.7z"/>
						</g>
					</g>
					<g>
						<g>
							<path fill="#390075" d="M267.5,754.3c0.3,3.8-3.2,7.1-7.7,7.4l-39.7,2.8c-4.5,0.3-8.4-2.5-8.6-6.2c-0.3-3.8,3.2-7.1,7.7-7.4
								l39.7-2.8C263.3,747.7,267.2,750.5,267.5,754.3z"/>
						</g>
					</g>
				</g>
				<path fill="#390075" d="M522.8,883.3c-6.7,20.2-14.8,39.7-24.2,58.6c-24.2,48.6-56.1,90.4-92.5,121c-41.2,34.7-84,51.7-120.6,48
					l-3.2-0.3L107.2,841.8l-0.3-0.7c-24.3-63.2-19.2-126.1,14-172.6c28.5-40,91.1-86.6,227.8-81.7c2.5,0.1,59.1,3,94.2,8.7
					l-2.1,13.4c-34.4-5.5-92.1-8.5-92.7-8.5c-130.5-4.6-189.6,38.8-216.2,76.1c-30.4,42.6-35,100.6-12.7,159.3L290,1097.8
					c31.9,1.9,70.8-14.4,107.4-45.2c34.9-29.4,65.7-69.7,89.1-116.7c26.6-53.5,39.3-122.2,43.8-185l13.5,1
					C540.7,794.3,535.7,844.8,522.8,883.3z"/>
				<g>
					<path fill="#B3D133" d="M489.5,835.1c0,0,69.3,16.3,97,54c27.8,37.8,13.2,85-35.6,117.9s-98.3,44.7-128.9,70.1
						s-47.6,92.2-104.1,82.4c-56.5-9.8-93.6-30.8-109.1-93.4S245.4,859,245.4,859L489.5,835.1z"/>
					<g opacity="0.48">
						<g>
							<path fill="#FFFFFF" d="M227.6,1027.9c18.1,68.3,58.3,92,118.9,104c9.5,1.9,18,1.7,25.6-0.1c-13.8,14.5-30.7,24.3-54.8,20.1
								c-56.5-9.8-93.6-30.8-109.1-93.4c-15.5-62.6,36.5-207.2,36.5-207.2l2.6-0.3C233.5,902.6,215.9,983.6,227.6,1027.9z"/>
						</g>
					</g>
					<path fill="#390075" d="M602.7,953.8c-7.2,21.6-24,41.9-48.3,58.3c-24.3,16.4-49,27.7-70.8,37.7c-22.9,10.5-42.6,19.6-57.6,32
						c-8.9,7.4-16.8,19-25.2,31.2c-19.3,28.1-41.1,60-83.8,52.6c-32.6-5.6-55-14.3-72.7-28.1c-20.1-15.7-33.6-38.6-41.3-69.9
						c-6.7-26.9-2.5-70.7,12.4-130.1c11-43.8,24.1-80.3,24.2-80.7l11.6,4.2c-0.5,1.4-51.1,143.6-36.3,203.7
						c7.1,28.9,18.9,49,37,63.1c15.9,12.5,36.7,20.4,67.2,25.6c34.9,6,52.7-19.9,71.6-47.4c8.9-12.9,17.3-25.2,27.5-33.7
						c16.2-13.5,37.7-23.3,60.4-33.8c21.4-9.8,45.6-20.9,69-36.7c25.7-17.4,42.1-39.3,45.9-61.7c2.9-16.6-1.2-33-11.9-47.4l-0.4-0.5
						l-0.3-0.6c-3.4-7.3-16.2-24.2-39.9-36.2c-27.7-13.9-78.4-25.2-163.1,0l-3.5-11.8c71.6-21.4,129.9-20.9,173.1,1.3
						c30.4,15.6,42.3,36.9,44.3,40.9c12.4,17.1,17.2,36.6,13.7,56.4C604.9,946.2,603.9,950,602.7,953.8z"/>
				</g>
				<g>
					<g>
						<g>
							<path fill="#C3B2D3" d="M213.5,858.4l54.1-8.4l5.1,33.2l8.2-1.3c12.4-1.9,24,6.6,25.9,19l2.2,14.3c1.9,12.4-6.6,24-19,25.9
								l-69.4,10.8c-12.4,1.9-24-6.6-25.9-19l-2.2-14.3c-1.9-12.4,6.6-24,19-25.9l7-1.1L213.5,858.4z"/>
						</g>
					</g>
					<g opacity="0.7">
						<g>
							<g>
								<path fill="#FFFFFF" d="M220.7,880.2l7-1.1l-3.5-22.4l-10.8,1.7l3.5,22.7C218.2,880.7,219.4,880.4,220.7,880.2z"/>
							</g>
						</g>
						<g>
							<g>
								<path fill="#FFFFFF" d="M299.3,928.7l-69.4,10.8c-12.4,1.9-24-6.6-25.9-19l-2.2-14.3c-0.5-3.4-0.2-6.8,0.7-9.9
									c-7.1,4.8-11.2,13.3-9.8,22.3l2.2,14.3c1.9,12.4,13.5,20.9,25.9,19l69.4-10.8c9-1.4,15.9-7.9,18.3-16.1
									C305.9,926.8,302.8,928.1,299.3,928.7z"/>
							</g>
						</g>
					</g>
					<g opacity="0.3">
						<g>
							<path fill="#390075" d="M215.8,873.5l12-1.9c13.8-2.1,26.6,7.3,28.8,21l0,0c0.7,4.6,5,7.7,9.5,7h0c12.4-1.9,24,6.6,25.9,19
								l2.2,14.3c0.4,2.4,0.3,4.8,0,7.1c10.2-3.5,16.7-13.9,15-24.9l-2.2-14.3c-1.9-12.4-13.5-20.9-25.9-19l-8.2,1.3l-5.1-33.2
								l-54.1,8.4L215.8,873.5z"/>
						</g>
					</g>
					<g>
						<g>
							<path fill="#390075" d="M314.5,899.7l2.2,14.3c2.6,16.5-8.8,32.1-25.4,34.7L222,959.5c-16.5,2.6-32.1-8.8-34.7-25.3
								l-2.2-14.3c-2.5-16.4,8.6-31.8,24.8-34.6l-4-25.6c-0.6-4.2,2.2-8.1,6.4-8.7l54.1-8.4c4.2-0.6,8.1,2.2,8.7,6.4l4,25.6l0.7-0.1
								C296.4,871.8,312,883.1,314.5,899.7z M202.4,931.8c1.3,8.2,9,13.8,17.2,12.6l69.4-10.8c8.2-1.3,13.9-9,12.6-17.2l-2.2-14.3
								c-1.3-8.2-9-13.9-17.2-12.6l-8.2,1.3c-4.2,0.6-8.1-2.2-8.7-6.4l-4-25.6l-39,6.1l4,25.6c0.6,4.2-2.2,8.1-6.4,8.7l-7,1.1
								c-8.2,1.3-13.8,9-12.6,17.2L202.4,931.8z"/>
						</g>
					</g>
				</g>
			</g>
			<g>
				<g>
					<path fill="#FFFFFF" d="M317.5,666.4c29.9,2.3,54.3,26.1,56.5,56.9c2.2,30.8-18.6,57.9-47.9,64.4L317.5,666.4z"/>
					<path fill="#390075" d="M367.2,768.5c-9.8,13-23.8,22.1-39.6,25.6l-7.5,1.7l-9.8-136.7l7.7,0.6c16.1,1.2,31.3,8.2,42.8,19.7
						c11.6,11.6,18.7,27,19.8,43.4C381.8,739.2,377.1,755.4,367.2,768.5z M332.2,778.9c9.6-3.7,18.1-10,24.4-18.4
						c7.9-10.6,11.8-23.6,10.8-36.8c-0.9-13.2-6.6-25.6-16-34.9c-7.4-7.4-16.7-12.4-26.7-14.7L332.2,778.9z"/>
				</g>
				<circle fill="#390075" cx="334.8" cy="725.3" r="15"/>
			</g>
		</g>
		<g>
			<path fill="#B3D133" d="M528.6,756.2c0,0,65.7-131.3,1.3-247.9c-31.4-56.8-80.6-87.4-122.7-103.8c-39.7-15.4-83.1-18.4-124.6-8.8
				l-99.1,22.9l51.8,27l-35,34.2l135.2-0.4c0,0,58.3,10.9,72.4,59.8c14,48.9-44.3,67.3-17.3,139.8l17.4,52L528.6,756.2z"/>
			<g opacity="0.15">
				<path d="M282.2,390.3c59.4-15,170.6-6.4,225.6,79.6c38.6,60.4,81.7,184,13.8,282.2l-28-1.8c56.9-104.3,2.3-220.3-32.4-274.5
					C418.5,409.1,342.1,389,282.2,390.3z"/>
			</g>
			<g>
				<path fill="#390075" d="M400.3,603.6c-2.3,3.8-4.5,7.7-6.2,11.7c-1.7,4.1-3,8.2-4,12.5c-0.9,4.3-1.4,8.7-1.4,13.1
					c0,4.4,0.5,8.8,1.5,13.1c1,4.3,2.7,8.6,4.7,12.6c2.1,4,4.8,8.1,7.8,11.7c5.9,7.4,13.5,13.6,22.4,18.2c0.5,0.3,0.7,0.9,0.5,1.5
					c-0.2,0.4-0.7,0.7-1.2,0.6c-10.1-2-19.9-6.9-28.1-13.9c-2.1-1.7-4-3.6-5.8-5.6c-0.9-1-1.8-2-2.7-3c-0.9-1.1-1.7-2.2-2.5-3.3
					c-3.2-4.5-6.2-9.3-8-14.7c-4-10.5-5.2-22.3-3.3-33.5c1-5.6,2.7-11.1,5.1-16.2c2.5-5.1,5.6-9.9,9.3-14.1
					c2.8-3.2,7.6-3.5,10.7-0.7c2.8,2.5,3.4,6.6,1.5,9.7L400.3,603.6z"/>
			</g>
			<g>
				<path fill="#390075" d="M466.5,648.3c-3.5,1.2-7.2,1.9-10.9,2.2c-1.9,0.2-3.7,0.2-5.6,0.2c-1.9-0.1-3.8-0.1-5.6-0.3
					c-7.5-0.8-15.1-3.1-22-7.1c-1.8-0.9-3.4-2.1-5-3.2c-1.6-1.2-3.3-2.2-4.7-3.7l-4.3-4.2c-1.3-1.5-2.4-3.1-3.7-4.7
					c-0.6-0.8-1.2-1.6-1.8-2.4c-0.5-0.8-1-1.7-1.5-2.6c-1-1.7-1.9-3.4-2.8-5.2c-1.6-3.5-2.7-7.2-3.7-10.9c-1.1-4,1.2-8.2,5.2-9.3
					c3.4-1,6.9,0.5,8.6,3.4l0.6,1.1c1.6,2.8,2.8,5.7,4.2,8.5c1.7,2.6,2.8,5.6,4.6,8l2.5,3.8l2.8,3.5c0.9,1.3,2,2.2,3.1,3.3
					c1.1,1.1,2.1,2.2,3.4,3.1c4.7,4,10.2,7.3,16.4,9.6c6.1,2.4,12.8,3.9,19.7,4.6l0.1,0c0.6,0.1,1,0.6,1,1.2
					C467.2,647.8,466.9,648.1,466.5,648.3z"/>
			</g>
			<g>
				<path fill="#390075" d="M457.4,577.7c-1.8,1.7-3.8,3.2-5.9,4.5c-1.1,0.7-2.2,1.2-3.3,1.8c-1.1,0.5-2.3,1-3.5,1.5
					c-4.8,1.7-10.1,2.6-15.4,2.2c-1.3,0-2.6-0.2-4-0.5c-1.3-0.2-2.7-0.4-3.9-0.9l-3.8-1.2c-1.2-0.5-2.4-1.2-3.6-1.8
					c-0.6-0.3-1.2-0.6-1.8-0.9c-0.6-0.3-1.1-0.7-1.6-1.1c-1.1-0.7-2.1-1.5-3.2-2.3c-2-1.7-3.8-3.6-5.5-5.5c-1.9-2.1-1.7-5.3,0.4-7.2
					c1.8-1.6,4.3-1.7,6.2-0.4l0.7,0.5c1.8,1.2,3.4,2.6,5.1,3.9c1.8,1.1,3.3,2.5,5.1,3.4l2.6,1.6l2.8,1.3c0.9,0.5,1.9,0.8,2.8,1.1
					c1,0.3,1.9,0.7,3,0.9c4,1.1,8.3,1.4,12.7,1c4.4-0.4,8.9-1.4,13.2-3l0.1,0c0.4-0.1,0.8,0.1,0.9,0.4
					C457.7,577.2,457.6,577.5,457.4,577.7z"/>
			</g>
			<path fill="#390075" d="M547.1,726.6c5.5-16.4,9.8-33.3,12.8-50.3c7.8-44.1,9.9-109.7-24.2-171.4
				c-26.5-47.9-69.9-84.7-125.6-106.4c-40.7-15.8-84.9-19-127.9-9l-114.1,26.4l58.5,30.5l-39.5,38.5l148.7-0.5
				c2,0.4,14.1,2.8,27,10.4c17.1,10,28.4,24.2,33.6,42.2l0.1,0.2c0.1,0.3,7.8,24.3-3.4,57.7c-0.3,0.8-0.6,1.7-0.9,2.5l-0.7,1.9
				l10.7,3.8l0.7-1.9c0.3-0.9,0.6-1.8,0.9-2.7c12.1-36.2,4.4-61.7,3.4-64.7c-14.9-51.6-69.6-60.6-70.1-60.7l-0.4-0.1l-121.6,0.4
				l30.6-29.9l-45.1-23.5l84.1-19.5c40.8-9.4,82.7-6.5,121.2,8.5c54,21,94.3,55.1,119.8,101.3c32.5,58.7,30.4,121.4,23,163.7
				c-2.9,16.3-7.1,32.7-12.4,48.8c-6.2,18.6-11.9,30-11.9,30.1l-0.9,1.8l1.8,0.9l8.4,4.2l0.9-1.8
				C535.2,756.8,540.8,745.4,547.1,726.6z"/>
		</g>
		<g>
			<path fill="#FFFFFF" d="M496.6,796.2c0,0,138.8-84.9,36.1-241.9c0,0,18.5,141.2-71,177.3l-25.7,13.6
				C436.1,745.2,450.7,787.2,496.6,796.2z"/>
			<path fill="#390075" d="M567.3,712.5c-18.9,56.6-66.2,86-68.4,87.4l-1.4,0.9l-1.7-0.3c-47.9-9.3-63.2-52-63.9-53.8l-1.2-3.5
				l29.4-15.5c35.5-14.3,57.9-47.5,66.3-98.7c6.4-38.7,2-73.7,1.9-74l-2.5-18.9l10.4,16c33.5,51.2,45.3,100.3,35,146
				C570.2,702.9,568.8,707.8,567.3,712.5z M495.8,791.5c8.6-5.8,54.4-38.9,67.1-95.7c8.7-38.8,0.5-80.4-24.4-123.9
				c0.6,14.2,0.4,35.4-3.3,58.2c-8.8,53.6-33.5,90-71.5,105.5l-22,11.6C446.1,756.8,461.6,784.1,495.8,791.5z"/>
		</g>
		<path fill-opacity="0.19" d="M543.8,582.5c68.3,138-53.1,212.3-53.1,212.3c-2.7-0.5-5.2-1.2-7.6-1.9
			C503.6,776.5,583.5,703.1,543.8,582.5z"/>
		<path fill="#390075" d="M522.4,800.2c-29.8,6.6-56-3.1-75.8-28c-14.6-18.4-20.4-38.5-20.6-39.3l8.4-2.4l-4.2,1.2l4.2-1.2
			c0.1,0.2,5.6,19.4,19.2,36.5c17.7,22.2,40.2,30.5,66.9,24.7L522.4,800.2z"/>
		<path fill-opacity="0.15" d="M426.4,868c-71.1,15.5-117.7,78.3-104.2,140.1c2.4,11,6.6,21.2,12.2,30.5
			c-15-13.9-25.8-31.6-30.2-51.9c-13.5-61.8,36-125.1,110.6-141.4c74.6-16.3,163.2,2.8,176.7,64.6c0.9,4,1.5,8.1,1.8,12.1
			C574,867.5,492.7,853.5,426.4,868z"/>
	</g>
</g>
<g>
	<g>
		<path fill="#BABABA" d="M1145.9,713c0,0-19.5-46.7-54.2-44.8c-34.7,1.8-40.6,14.1-40.6,14.1s-41,26.3-51.9-13.2
			c0,0-7.6,38,10.9,39.5c0,0-34.4-17.9-65.9-1.1c0,0-40.2-15.7-54.4-32.1c0,0,22.4,74.4,45.4,82.9c0,0-60.5,22.1-124.8-10.2
			c0,0,39.2,124.1,185.6,129.1c0,0-5.4,20.9-41.3,20.3c0,0,28,51.4,67.4,48.6c39.4-2.8,69.3-20,88.2,3.6
			C1129.4,973.2,1145.9,713,1145.9,713z"/>
		<path fill="#E8E8E8" d="M1093.2,714.5c-34.7,1.8-40.6,14.1-40.6,14.1s-33.9,21.8-48.3-4.1c-1.5-0.4-3.1-0.7-4.7-1
			c-0.9,8.9-1,22.7,5.4,28.6c-9.8-3.6-29.2-8.8-49.1-2.6c5.6,9,11.7,15.9,17.8,18.2c0,0-13.9,5.1-35.5,6.8c2.7,2.7,5.5,4.7,8.2,5.7
			c0,0-10.7,3.9-27.8,6c5.7,9.1,11.8,16.1,18,18.4c0,0-23.5,8.6-56.8,7.2c13.6,17.1,32.5,35.2,57.9,49.3c15.7,4.2,33,6.9,52.2,7.6
			c0,0-1.4,5.3-7.3,10.4c15.6,4.1,32.8,6.8,51.8,7.5c0,0-4.4,17-31.6,19.9c-1.6,1.9-3.7,3.8-6.5,5.7c3.9,6,11.2,16.3,21.1,25.3
			c38.7-3.1,68.2-19.7,86.8,3.7c14.4,18,27.4-128.6,32.8-199.6C1128.2,728.5,1113.2,713.4,1093.2,714.5z"/>
		<path fill="#390075" d="M1112.9,957.1c-2.6,0-5.2-1.3-7.1-3.8c-10.5-13.2-25.1-11.1-50-6.3c-9.9,1.9-21.1,4.1-33.1,4.9
			c-1.2,0.1-2.4,0.1-3.6,0.1c-40.8,0-68.3-49.6-69.5-51.8c-1-1.9-1-4.1,0.1-5.9c1.1-1.8,3-2.9,5.1-2.9c0,0,0.1,0,0.1,0
			c13.2,0.2,23.5-2.7,30-8.4c0.2-0.2,0.4-0.3,0.6-0.5c-30.3-2.3-58.1-9.8-82.9-22.4c-22.1-11.3-41.9-26.6-58.7-45.5
			c-28.6-32.2-38.7-63.5-39.1-64.8c-0.7-2.3,0-4.8,1.8-6.3c1.8-1.6,4.4-1.9,6.5-0.8c31.8,16,62.7,17.9,83,16.7
			c10.4-0.6,19.3-2.2,25.7-3.6c-7.6-8-15.3-21.1-23.4-39.8c-8.5-19.7-14.1-38.1-14.3-38.9c-0.8-2.7,0.4-5.6,2.8-6.9
			c2.5-1.4,5.5-0.8,7.4,1.3c11.1,12.9,40.9,25.9,49.6,29.5c17.6-8.5,35.6-7.5,48.8-4.6c-2.4-12.2,0.3-26.4,0.7-28.5
			c0.5-2.7,2.9-4.7,5.6-4.8c2.7-0.1,5.2,1.7,6,4.4c2.4,8.7,6.4,14,12.1,16.2c10.9,4.2,25.7-3.5,29.7-5.8c3.2-4.4,13.7-14,44.6-15.6
			c38.4-2,59.1,46.4,60,48.5c0.4,0.8,0.5,1.8,0.4,2.7c0,0.6-3.8,58.9-9.6,117.1c-3.4,34.3-6.9,61.9-10.4,82
			c-2.1,12.1-4.2,21.7-6.2,28.4c-3,9.8-6,14.4-10.3,15.8C1114.6,956.9,1113.7,957.1,1112.9,957.1z M1083.1,931.3
			c1.3,0,2.5,0,3.8,0.1c10.5,0.7,18.9,4.4,25.6,11.4c1.8-4.3,4.9-14.4,8.6-37.9c3.2-20.2,6.5-47.3,9.8-80.3
			c5-51.2,8.4-101.4,9-110.5c-3.2-7-20.7-41.4-47.8-40c-27.7,1.5-34.8,9.8-35.6,10.9c-0.4,1.1-1,1.6-2.1,2.3
			c-0.9,0.6-23,14.6-41.5,7.5c-3.4-1.3-6.5-3.2-9.1-5.7c0.3,4.7,1.2,9,3.1,11.5c0,0,0,0,0,0.1c3.5,1.4,5.6,2.5,6,2.6
			c2.5,1.3,3.8,4.2,3,6.9c-0.8,2.7-3.4,4.5-6.2,4.3c-3.4-0.3-6.5-1.5-9.1-3.5c-10.9-3.9-33.1-9.2-53.5,1.7c-1.5,0.8-3.3,0.9-5,0.3
			c-1.2-0.5-22.6-8.9-39.9-20c2.1,5.6,4.5,11.9,7.3,18.3c10.1,23.4,20.3,38.5,27.9,41.3c2.3,0.9,3.9,3.1,3.9,5.6
			c0,2.5-1.6,4.7-3.9,5.6c-0.7,0.2-16.2,5.8-40,7.4c-18.9,1.2-46.4-0.1-75.7-11.7c5.5,11.7,15.5,29.6,31.5,47.6
			c15.8,17.7,34.4,32,55.1,42.6c26,13.2,55.6,20.4,88,21.5c1.8,0.1,3.5,0.9,4.6,2.4c1.1,1.4,1.4,3.3,1,5.1
			c-0.2,0.9-5.8,21-36.5,24.3c3.1,4.5,7.5,10.3,12.9,15.9c10,10.4,25.6,22.5,43.6,21.2c11.3-0.8,21.7-2.8,31.7-4.7
			C1064,933.2,1074,931.3,1083.1,931.3z"/>
	</g>
	<g>
		<path fill="#BABABA" d="M1611,951.8c0,0,46.8,19.2,70-6.6c23.2-25.8,18.8-38.7,18.8-38.7s10.4-47.6,46-27.3
			c0,0-21.5-32.3-35.6-20.2c0,0,37-11.6,47.4-45.8c0,0,39.5-17.4,61.2-15.7c0,0-68.5-36.7-90.7-26.5c0,0,27.2-58.4,95.5-81
			c0,0-115.5-60-222.6,40c0,0-11-18.6,14.8-43.5c0,0-56.2-16.5-82,13.3c-25.9,29.8-34.9,63.2-65,59.8
			C1438.7,756.1,1611,951.8,1611,951.8z"/>
		<path fill="#E8E8E8" d="M1647.2,913.5c23.2-25.8,18.8-38.7,18.8-38.7s8.6-39.4,37-31.2c1.3-0.8,2.7-1.7,4.1-2.6
			c-5.7-6.9-15.3-16.7-24-16.4c9.5-4.4,26.9-14.4,36.5-32.8c-10.3-2.4-19.5-3-25.5-0.2c0,0,6.3-13.4,20.3-29.9
			c-3.8,0-7.2,0.6-9.8,1.8c0,0,4.8-10.3,15.4-23.9c-10.4-2.4-19.7-3-25.7-0.3c0,0,10.6-22.7,35-45.3c-21.7-2.5-47.8-1.9-75.8,6.1
			c-14.1,8.1-28.2,18.5-42.3,31.6c0,0-2.8-4.7-2.3-12.5c-13.9,8.1-28,18.4-41.9,31.4c0,0-8.9-15.2,8.3-36.4
			c-0.2-2.4-0.1-5.3,0.6-8.6c-7-1.5-19.4-3.6-32.8-3c-25.2,29.5-34.3,62.1-64,58.7c-22.9-2.6,71.6,110.3,117.9,164.3
			C1612.5,928.3,1633.8,928.4,1647.2,913.5z"/>
		<path fill="#390075" d="M1646.1,964.7c-19.1,0-36.2-6.9-37.4-7.3c-0.8-0.3-1.6-0.9-2.2-1.6c-0.4-0.4-39-44.3-76-89.6
			c-21.8-26.7-38.8-48.6-50.6-65.3c-7.1-10-12.4-18.3-15.7-24.5c-4.8-9.1-6-14.4-3.8-18.5c1.7-3.2,5.1-4.8,9.1-4.3
			c16.8,1.9,25.7-9.9,39.9-30.9c5.6-8.4,12.1-17.8,19.9-26.9c28.1-32.3,85.8-15.8,88.2-15.1c2,0.6,3.6,2.2,4.1,4.3
			c0.5,2.1-0.1,4.2-1.6,5.7c-9.5,9.1-14.7,18.5-15.3,27.2c0,0.3,0,0.5,0,0.8c23-19.8,48-34.2,74.5-42.8c23.6-7.7,48.4-10.8,73.7-9.3
			c43,2.6,72.3,17.5,73.5,18.2c2.1,1.1,3.4,3.4,3.2,5.8c-0.2,2.4-1.8,4.4-4.1,5.2c-33.8,11.2-57,31.7-70.5,46.9
			c-6.9,7.8-12.1,15.1-15.6,20.7c11,0.3,25.8,4.1,44.6,11.6c20,7.9,36.9,17,37.6,17.4c2.5,1.3,3.7,4.2,2.9,6.9
			c-0.8,2.7-3.4,4.5-6.2,4.3c-17-1.3-47.2,10.6-55.9,14.2c-6.5,18.4-19.9,30.4-31.3,37.7c10.3,6.9,18.4,18.9,19.6,20.6
			c1.5,2.3,1.3,5.3-0.6,7.4c-1.9,2-4.9,2.5-7.3,1.1c-7.8-4.5-14.4-5.4-20-2.9c-10.7,4.8-15.7,20.7-16.9,25.1
			c0.8,5.4,0.2,19.6-20.5,42.6C1674.7,961.1,1659.9,964.7,1646.1,964.7z M1614.5,946.8c7.2,2.6,43.9,14.7,62.1-5.5
			c18.6-20.7,17.7-31.5,17.5-32.9c-0.5-1.1-0.4-1.9-0.1-3.1c0.2-1.1,6-26.6,24-34.6c3.3-1.5,6.8-2.3,10.5-2.4
			c-3.6-3.1-7.2-5.5-10.3-5.9c0,0-0.1,0-0.1,0c-3.4,1.5-5.7,2.2-6.1,2.4c-2.7,0.8-5.6-0.3-7-2.8c-1.4-2.5-0.8-5.6,1.3-7.4
			c2.6-2.2,5.7-3.6,8.9-4c10.5-5,29.9-16.9,36.7-39c0.5-1.7,1.7-3,3.3-3.7c1.2-0.5,22.2-9.7,42.4-14.1c-5.4-2.5-11.6-5.2-18.1-7.8
			c-23.7-9.4-41.6-12.9-48.9-9.5c-2.3,1-5,0.6-6.7-1.2c-1.8-1.8-2.2-4.5-1.2-6.7c0.3-0.6,7.3-15.6,23.1-33.5
			c12.5-14.2,32.9-32.7,61.8-45.3c-12.2-4.4-31.9-10-55.9-11.3c-23.7-1.3-47,1.6-69.1,8.9c-27.7,9.1-53.7,24.9-77.4,47
			c-1.3,1.2-3.1,1.8-4.9,1.5c-1.8-0.3-3.4-1.3-4.3-2.9c-0.5-0.8-10.7-19,8.6-43c-16.3-3-49.2-5.9-66.2,13.7
			c-7.4,8.5-13.3,17.3-19.1,25.8c-6.8,10.1-13.3,19.6-20.9,26.3c-7.9,6.9-16.4,10.2-26.1,10.1c1.8,4.3,6.8,13.6,20.7,32.9
			c12,16.6,28.8,38,49.9,63.7C1575.4,902.1,1608.5,939.9,1614.5,946.8z M1694.1,908.5L1694.1,908.5L1694.1,908.5z"/>
	</g>
	<g>
		<path fill-rule="evenodd" clip-rule="evenodd" fill="#F6D2A2" d="M1504.8,1380.7c17.7,18.3,46,67.3,9.7,78.3
			c-37.3,20-39.4-42.4-63.9-57.2C1465.1,1387.8,1484.6,1380.2,1504.8,1380.7z"/>
		<path fill="#390075" d="M1494.2,1466.5c-12.6-4.1-19.7-18.6-26.6-32.6l0-0.1l0-0.1c-4-10.8-10.7-20.5-19.5-28l-5.4-3.3l5-4.1
			c15.6-14.8,36-22.7,57.5-22.2l0.2,0l1.7,0.4l1.1,1.1c11.6,12,33.5,44.1,27.6,66.8c-2.6,9.4-10,16.7-19.4,19
			c-6.2,3.7-13.5,4.9-20.6,3.4l0,0L1494.2,1466.5z M1475.9,1430.1c6.3,12.8,12.2,25,21,27.8c5.1,1.3,10.6,0.4,15.1-2.5l0.1-0.1
			l0.8-0.3l0.2,0c6.5-1.4,11.7-6.2,13.5-12.6c4.2-16.4-11.7-43.2-24.1-56.6c-16.5-0.2-32.3,5.6-44.8,16.3
			C1465.6,1410,1471.7,1419.5,1475.9,1430.1z"/>
		<path fill="#390075" d="M1513.3,1463.5c-1.7-0.4-3-1.8-3.3-3.4c-0.7-3.7-1.3-7.5-1.6-11.2c-0.2-6.6-1.9-13-4.9-18.7
			c-1.1-2.4-0.1-5.1,2.2-6.2c1-0.5,2.1-0.6,3.1-0.3c1,0.3,1.9,0.8,2.5,1.6l0.1,0.1l0.1,0.1c3.7,6.9,5.8,14.7,6.1,22.6
			c0.3,3.2,0.8,6.6,1.4,9.9c0.5,2.4-1,4.9-3.5,5.5c-0.6,0.2-1.3,0.2-2.1,0.1L1513.3,1463.5L1513.3,1463.5z"/>
		<path fill-rule="evenodd" clip-rule="evenodd" fill="#F6D2A2" d="M1270,1407.6c-24.5,14.8-26.7,77.1-63.9,57.1
			c-36.4-11-7.9-60,9.7-78.3C1236,1386,1255.5,1393.7,1270,1407.6z"/>
		<path fill="#390075" d="M1225.2,1472.7L1225.2,1472.7c-7.1,1.5-14.4,0.4-20.7-3.3c-9.5-2.3-16.9-9.5-19.5-18.9
			c-6-22.7,15.7-54.9,27.3-67l1.1-1.1l1.7-0.4l0.2,0c21.5-0.6,41.9,7.2,57.6,21.9l5,4.1l-5.4,3.3c-8.7,7.5-15.4,17.3-19.4,28.1
			l0,0.1l0,0.1c-6.8,14.1-13.8,28.6-26.4,32.7L1225.2,1472.7z M1262.7,1407.5c-12.6-10.6-28.4-16.3-44.9-16
			c-12.3,13.5-28.1,40.4-23.8,56.8c1.8,6.4,7,11.2,13.5,12.5l0.2,0l0.8,0.3l0.1,0.1c4.5,2.9,10.1,3.8,15.1,2.5
			c8.7-2.9,14.6-15,20.9-27.9C1248.8,1425.2,1254.9,1415.7,1262.7,1407.5z"/>
		<path fill="#390075" d="M1207.2,1469.2c1.7-0.4,3-1.8,3.3-3.4c0.7-3.7,1.3-7.5,1.6-11.2c0.2-6.6,1.9-13,4.9-18.7
			c1.1-2.4,0.1-5.1-2.2-6.2c-1-0.5-2.1-0.6-3.1-0.3c-1,0.2-1.9,0.8-2.5,1.6l-0.1,0.1l-0.1,0.1c-3.7,6.9-5.9,14.7-6.1,22.6
			c-0.3,3.2-0.8,6.6-1.4,9.9c-0.5,2.4,1,4.9,3.5,5.5c0.6,0.2,1.3,0.2,2.1,0.1L1207.2,1469.2L1207.2,1469.2z"/>
	</g>
	<g>
		<path fill-rule="evenodd" clip-rule="evenodd" fill="#61E0EE" d="M1163.6,804.3c-21.2-44.3-119.2-22-47.5,33.7
			c5.9,4.6,14.2,9.4,21.9,6.5"/>
		<path fill-rule="evenodd" clip-rule="evenodd" d="M1121.4,771.5h0.3h0.3l0.3,0h0.3l0.3,0l0.3,0l0.3,0l0.3,0l0.3,0l0.3,0l0.3,0
			l0.3,0l0.3,0l0.3,0l0.3,0l0.3,0l0.3,0l0.3,0l0.3,0l0.3,0l0.3,0l0.3,0l0.3,0l0.3,0l0.3,0l0.3,0l0.3,0l0.3,0l0.3,0l0.3,0l0.3,0
			l0.3,0l0.3,0.1l0.3,0l0.3,0.1l0.3,0l0.3,0.1l0.3,0.1l0.3,0.1l0.3,0.1l0.3,0.1l0.3,0.1l0.3,0.1l0.3,0.1l0.3,0.1l0.3,0.1l0.3,0.1
			l0.3,0.1l0.3,0.1l0.3,0.1l0.3,0.1l0.3,0.1l0.3,0.1l0.3,0.1l0.3,0.1l0.3,0.1l0.3,0.1l0.3,0.1l0.3,0.1l0.3,0.1l0.3,0.1l0.3,0.1
			l0.3,0.1l0.3,0.1l0.3,0.1l0.3,0.1l0.3,0.1l0.3,0.1l0.3,0.1l0.3,0.1l0.3,0.1l0.3,0.1l0.3,0.1l0.3,0.1l0.3,0.1l0.3,0.1l0.3,0.1
			l0.3,0.1l0.3,0.1l0.3,0.1l0.3,0.1l0.3,0.1l0.3,0.1l0.3,0.1l0.3,0.1l0.3,0.1l0.3,0.1l0.3,0.1l0.3,0.1l0.3,0.1l0.3,0.1l0.3,0.1
			l0.3,0.1l0.3,0.1l0.3,0.1l0.3,0.2l0.3,0.2l0.3,0.2l0.3,0.2l0.3,0.2l0.3,0.2l0.3,0.2l0.3,0.2l0.3,0.2l0.3,0.2l0.3,0.2l0.3,0.2
			l0.3,0.2l0.3,0.2l0.3,0.2l0.3,0.2l0.3,0.2l0.3,0.2l0.3,0.2l0.3,0.2l0.3,0.2l0.3,0.2l0.3,0.2l0.3,0.2l0.3,0.2l0.3,0.2l0.3,0.2
			l0.3,0.2l0.3,0.2l0.3,0.2l0.3,0.2l0.3,0.2l0.3,0.2l0.3,0.2l0.3,0.2l0.3,0.2l0.3,0.2l0.3,0.2l0.3,0.2l0.3,0.2l0.3,0.2l0.2,0.2
			l0.2,0.2l0.2,0.2l0.2,0.2l0.2,0.2l0.2,0.2l0.2,0.2l0.2,0.2l0.2,0.2l0.2,0.2l0.2,0.2l0.2,0.2l0.2,0.3l0.2,0.3l0.2,0.2l0.2,0.3
			l0.2,0.3l0.2,0.3l0.2,0.3l0.2,0.3l0.2,0.3l0.2,0.3l0.2,0.3l0.2,0.3l0.2,0.3l0.2,0.3l0.2,0.3l0.2,0.3l0.2,0.3l0.2,0.3l0.2,0.3
			l0.2,0.3l0.2,0.3l0.2,0.3l0.2,0.3l0.2,0.3l0.2,0.3l0.2,0.3l0.2,0.3l0.2,0.3l0.2,0.3l0.2,0.3l0.2,0.3l0.2,0.3l0.2,0.3l0.2,0.3
			l0.2,0.3l0.2,0.3l0.2,0.3l0.2,0.3l0.2,0.3l0.1,0.3l0.2,0.5l0.2,0.5l0.2,0.5l0.1,0.5l0.1,0.5l0.1,0.5l0,0.5l0,0.5l0,0.5l0,0.5
			l-0.1,0.5l-0.1,0.5l-0.1,0.5l-0.2,0.5l-0.2,0.5l-0.2,0.5l-0.2,0.5l-0.3,0.4l-0.3,0.4l-0.3,0.4l-0.3,0.4l-0.4,0.4l-0.4,0.4
			l-0.4,0.3l-0.4,0.3l-0.4,0.3l-0.4,0.3l-0.5,0.2l-0.5,0.2l-0.5,0.2l-0.5,0.2l-0.5,0.1l-0.5,0.1l-0.5,0.1l-0.5,0l-0.5,0l-0.5,0
			l-0.5,0l-0.5-0.1l-0.5-0.1l-0.5-0.1l-0.5-0.2l-0.5-0.2l-0.5-0.2l-0.5-0.2l-0.4-0.3l-0.4-0.3l-0.4-0.3l-0.4-0.3l-0.4-0.4l-0.4-0.4
			l-0.3-0.4l-0.3-0.4l-0.3-0.4l-0.3-0.4l-0.2-0.5l-0.1-0.2l-0.1-0.2l-0.1-0.2l-0.1-0.2l-0.1-0.2l-0.1-0.2l-0.1-0.2l-0.1-0.2
			l-0.1-0.2l-0.1-0.2l-0.1-0.2l-0.1-0.2l-0.1-0.2l-0.1-0.2l-0.1-0.2l-0.1-0.2l-0.1-0.2l-0.1-0.2l-0.1-0.2l-0.1-0.2l-0.1-0.2
			l-0.1-0.2l-0.1-0.2l-0.1-0.2l-0.1-0.2l-0.1-0.2l-0.1-0.2l-0.1-0.2l-0.1-0.2l-0.1-0.2l-0.1-0.2l-0.1-0.2l-0.1-0.2l-0.1-0.2
			l-0.1-0.2l-0.1-0.2l-0.1-0.2l-0.1-0.2l-0.1-0.2l-0.1-0.2l-0.1-0.1l-0.1-0.2l-0.1-0.2l-0.1-0.1l-0.1-0.1l-0.1-0.1l-0.1-0.1
			l-0.2-0.1l-0.1-0.1l-0.2-0.1l-0.2-0.1l-0.2-0.1l-0.1-0.1l-0.2-0.1l-0.2-0.1l-0.2-0.1l-0.2-0.1l-0.2-0.1l-0.2-0.1l-0.2-0.1
			l-0.2-0.1l-0.2-0.1l-0.2-0.1l-0.2-0.1l-0.2-0.1l-0.2-0.1l-0.2-0.1l-0.2-0.1l-0.2-0.1l-0.2-0.1l-0.2-0.1l-0.2-0.1l-0.2-0.1
			l-0.2-0.1l-0.2-0.1l-0.2-0.1l-0.2-0.1l-0.2-0.1l-0.2-0.1l-0.2-0.1l-0.2-0.1l-0.2-0.1l-0.2-0.1l-0.2-0.1l-0.2-0.1l-0.2-0.1
			l-0.2-0.1l-0.2-0.1l-0.2-0.1l-0.2-0.1l-0.2-0.1l-0.2-0.1l-0.2-0.1l-0.2-0.1l-0.2-0.1l-0.2-0.1l-0.2-0.1l-0.2-0.1l-0.2-0.1
			l-0.2-0.1l-0.2-0.1l-0.2-0.1l-0.2-0.1l-0.2-0.1l-0.2-0.1l-0.2-0.1l-0.2-0.1l-0.2-0.1l-0.2-0.1l-0.2-0.1l-0.2-0.1l-0.2-0.1
			l-0.2-0.1l-0.2-0.1l-0.2-0.1l-0.2-0.1l-0.2-0.1l-0.2-0.1l-0.2-0.1l-0.2-0.1l-0.2-0.1l-0.2-0.1l-0.2-0.1l-0.2-0.1l-0.2-0.1
			l-0.2-0.1l-0.2-0.1l-0.2-0.1l-0.2-0.1l-0.2-0.1l-0.2-0.1l-0.2-0.1l-0.2-0.1l-0.2-0.1l-0.2-0.1l-0.2-0.1l-0.2-0.1l-0.2-0.1
			l-0.2-0.1l-0.2,0l-0.2-0.1l-0.2-0.1l-0.2,0l-0.2,0l-0.2,0l-0.2,0l-0.2,0l-0.2,0l-0.2,0l-0.2,0l-0.2,0l-0.2,0l-0.2,0l-0.2,0l-0.2,0
			l-0.2,0l-0.2,0l-0.2,0l-0.2,0l-0.2,0l-0.2,0l-0.2,0l-0.2,0l-0.2,0l-0.2,0l-0.2,0l-0.2,0l-0.2,0l-0.2,0l-0.2,0l-0.2,0l-0.2,0
			l-0.2,0l-0.2,0l-0.2,0l-0.2,0l-0.2,0l-0.2,0l-0.2,0l-0.2,0l-0.2,0l-0.2,0h-0.2l-0.2,0h-0.2l-0.2,0h-0.2h-0.2h-0.2l-0.2,0h-0.2
			l-0.2,0l-0.2,0l-0.2,0l-0.2,0l-0.2,0l-0.2,0l-0.2,0l-0.2,0l-0.2,0l-0.2,0l-0.2,0l-0.2,0l-0.2,0l-0.2,0l-0.2,0l-0.2,0l-0.2,0
			l-0.2,0l-0.2,0l-0.2,0l-0.2,0l-0.2,0l-0.2,0l-0.2,0l-0.2,0l-0.2,0l-0.2,0l-0.2,0l-0.2,0l-0.2,0l-0.2,0l-0.2,0l-0.2,0l-0.2,0
			l-0.2,0l-0.2,0l-0.2,0l-0.2,0l-0.2,0l-0.2,0l-0.2,0l-0.2,0l-0.2,0l-0.2,0l-0.2,0l-0.2,0l-0.2,0l-0.2,0l-0.2,0.1l-0.2,0l-0.2,0.1
			l-0.2,0.1l-0.2,0.1l-0.2,0.1l-0.2,0.1l-0.2,0.1l-0.2,0.1l-0.2,0.1l-0.2,0.1l-0.2,0.1l-0.2,0.1l-0.2,0.1l-0.2,0.1l-0.2,0.1
			l-0.2,0.1l-0.2,0.1l-0.2,0.1l-0.2,0.1l-0.2,0.1l-0.2,0.1l-0.2,0.1l-0.1,0.1l-0.1,0.1l-0.2,0.1l-0.1,0.1l-0.1,0.1l-0.1,0.1
			l-0.1,0.1l-0.1,0.1l-0.1,0.1l-0.1,0.1l-0.1,0.1l-0.1,0.1l-0.1,0.1l-0.1,0.1l-0.1,0.1l-0.1,0.1l-0.1,0.1l-0.1,0.1l-0.1,0.1
			l-0.1,0.1l-0.1,0.1l-0.1,0.1l-0.1,0.1l-0.1,0.1l-0.1,0.1l-0.1,0.1l-0.1,0.1l-0.1,0.1l-0.1,0.1l-0.1,0.1l-0.1,0.1l-0.1,0.1
			l-0.1,0.1l-0.1,0.1l-0.1,0.1l-0.1,0.1l-0.1,0.1l-0.1,0.1l-0.1,0.1l-0.1,0.1l-0.1,0.1l-0.1,0.1l-0.1,0.1l-0.1,0.1l-0.1,0.1
			l-0.1,0.1l-0.1,0.1l-0.1,0.1l-0.1,0.1l-0.1,0.1l-0.1,0.1l-0.1,0.1l-0.1,0.1l-0.1,0.1l-0.1,0.1l-0.1,0.1l-0.1,0.1l-0.1,0.1
			l-0.1,0.1l-0.1,0.1l-0.1,0.1l-0.1,0.1l-0.1,0.1l-0.1,0.1l0,0.1l-0.1,0.1l-0.1,0.1l-0.1,0.1l0,0.1l0,0.1l0,0.1l0,0.1l0,0.1l0,0.1
			l0,0.1l0,0.1l0,0.1l0,0.1l0,0.1l0,0.1l0,0.1l0,0.1l0,0.1l0,0.1l0,0.1l0,0.1l0,0.1l0,0.1l0,0.1l0,0.1l0,0.1l0,0.1l0,0.1l0,0.1
			l0,0.1l0,0.1l0,0.1l0,0.1l0,0.1l0,0.1l0,0.1l0,0.1l0,0.1l0,0.1l0,0.1l0,0.1l0,0.1l0,0.1l0,0.1l0,0.1l0,0.1l0,0.1v0.1l0,0.1v0.1
			l0,0.1v0.1l0,0.1v0.1v0.1l0,0.1l0,0.1l0,0.1l0,0.1l0,0.1l0,0.1l0,0.1l0,0.1l0,0.1l0,0.1l0,0.1l0,0.1l0,0.1l0,0.1l0,0.1l0,0.2
			l0,0.1l0,0.1l0,0.1l0,0.1l0,0.1l0,0.1l0,0.2l0,0.2l0,0.2l0,0.2l0.1,0.2l0.1,0.2l0.1,0.2l0.1,0.2l0.1,0.2l0.1,0.2l0.1,0.2l0.1,0.2
			l0.1,0.2l0.1,0.2l0.1,0.2l0.1,0.2l0.1,0.2l0.1,0.2l0.1,0.2l0.1,0.2l0.1,0.2l0.1,0.2l0.1,0.2l0.1,0.2l0.1,0.2l0.1,0.2l0.1,0.2
			l0.1,0.2l0.1,0.2l0.1,0.2l0.1,0.2l0.1,0.2l0.1,0.2l0.1,0.2l0.1,0.2l0.1,0.2l0.1,0.2l0.1,0.2l0.1,0.2l0.1,0.2l0.2,0.2l0.2,0.2
			l0.2,0.2l0.2,0.2l0.2,0.2l0.2,0.2l0.2,0.2l0.2,0.2l0.2,0.2l0.2,0.2l0.2,0.2l0.2,0.2l0.2,0.2l0.2,0.2l0.2,0.2l0.2,0.2l0.2,0.2
			l0.2,0.3l0.2,0.3l0.2,0.3l0.2,0.3l0.2,0.3l0.2,0.3l0.2,0.3l0.2,0.3l0.2,0.3l0.2,0.3l0.2,0.3l0.3,0.3l0.2,0.3l0.3,0.3l0.3,0.3
			l0.3,0.3l0.3,0.3l0.3,0.3l0.3,0.3l0.3,0.3l0.3,0.3l0.3,0.3l0.3,0.3l0.3,0.3l0.3,0.3l0.3,0.3l0.3,0.3l0.3,0.3l0.3,0.3l0.3,0.3
			l0.3,0.3l0.3,0.3l0.3,0.3l0.3,0.3l0.3,0.3l0.3,0.3l0.3,0.3l0.3,0.3l0.3,0.3l0.4,0.3l0.4,0.3l0.4,0.3l0.4,0.3l0.4,0.3l0.4,0.3
			l0.4,0.3l0.4,0.3l0.4,0.3l0.4,0.3l0.4,0.3l0.4,0.3l0.2,0.2l0.2,0.2l0.2,0.2l0.2,0.2l0.2,0.2l0.2,0.2l0.3,0.2l0.2,0.2l0.3,0.2
			l0.3,0.2l0.3,0.2l0.3,0.2l0.3,0.2l0.3,0.2l0.3,0.2l0.3,0.2l0.3,0.2l0.3,0.1l0.3,0.1l0.3,0.1l0.3,0.1l0.2,0.1l0.3,0.1l0.3,0.1
			l0.2,0.1l0.3,0.1l0.1,0.1l0.1,0.1l0.1,0.1l0.1,0.1l0.1,0.1l0.1,0l0.1,0.1l0.1,0l0.1,0l0.1,0l0.1,0l0.1,0l0.1,0l0.1,0l0.1,0l0.1,0
			l0.1,0l0.1,0l0.1,0l0.1,0l0.1,0l0.1,0l0.1,0l0.1,0l0.1,0l0.1,0l0.1,0l0.1,0l0.1,0l0.1,0l0.1,0l0.1,0l0.1,0l0.1,0l0.1,0l0.1,0
			l0.1,0l0.1,0l0.1,0l0.1,0l0.1,0l0.1,0l0.1,0l0.1,0l0.1,0h0.1l0.1,0h0.1h0.1h0.1h0.1l0.1,0h0.1l0.1,0h0.1l0.1,0l0.1,0l0.1,0l0.1,0
			l0.1,0l0.1,0l0.1,0l0.1,0l0.1,0l0.1,0l0.1,0l0.1,0l0.1,0l0.1,0l0.1,0l0.1,0l0.1,0l0.1,0l0.1,0l0.1,0l0.1,0l0.5-0.2l0.5-0.1
			l0.5-0.1l0.5-0.1l0.5-0.1l0.5,0l0.5,0l0.5,0l0.5,0.1l0.5,0.1l0.5,0.1l0.5,0.2l0.5,0.2l0.5,0.2l0.5,0.2l0.4,0.3l0.4,0.3l0.4,0.3
			l0.4,0.3l0.4,0.4l0.4,0.4l0.3,0.4l0.3,0.4l0.3,0.4l0.3,0.4l0.2,0.5l0.2,0.5l0.2,0.5l0.2,0.5l0.1,0.5l0.1,0.5l0.1,0.5l0.1,0.5
			l0,0.5l0,0.5l0,0.5l-0.1,0.5l-0.1,0.5l-0.1,0.5l-0.1,0.5l-0.2,0.5l-0.2,0.5l-0.2,0.5l-0.3,0.4l-0.3,0.4l-0.3,0.4l-0.3,0.4
			l-0.4,0.4l-0.4,0.4l-0.4,0.3l-0.4,0.3l-0.4,0.3l-0.4,0.3l-0.5,0.2l-0.5,0.2l-0.5,0.2l-0.2,0.1l-0.3,0.1l-0.3,0.1l-0.3,0.1
			l-0.3,0.1l-0.3,0.1l-0.3,0.1l-0.3,0.1l-0.3,0.1l-0.3,0.1l-0.3,0.1l-0.3,0.1l-0.3,0.1l-0.3,0.1l-0.3,0l-0.3,0l-0.3,0l-0.3,0l-0.3,0
			l-0.3,0l-0.3,0l-0.3,0l-0.3,0l-0.3,0l-0.3,0l-0.3,0h-0.3h-0.3l-0.3,0l-0.3,0l-0.3,0l-0.3,0l-0.3,0l-0.3,0l-0.3,0l-0.3,0l-0.3,0
			l-0.3,0l-0.3,0l-0.3,0l-0.3,0l-0.3,0l-0.3,0l-0.3-0.1l-0.3-0.1l-0.3-0.1l-0.3-0.1l-0.3-0.1l-0.3-0.1l-0.3-0.1l-0.3-0.1l-0.3-0.1
			l-0.3-0.1l-0.3-0.1l-0.3-0.1l-0.3-0.1l-0.3-0.1l-0.3-0.1l-0.3-0.1l-0.2-0.1l-0.3-0.1l-0.2-0.1l-0.2-0.1l-0.3-0.1l-0.2-0.1
			l-0.2-0.1l-0.2-0.1l-0.2-0.1l-0.2-0.1l-0.2-0.1l-0.2-0.1l-0.2-0.1l-0.2-0.1l-0.2-0.1l-0.2-0.1l-0.2-0.1l-0.4-0.2l-0.4-0.2
			l-0.4-0.2l-0.4-0.2l-0.4-0.2l-0.4-0.2l-0.4-0.2l-0.4-0.2l-0.4-0.2l-0.4-0.2l-0.4-0.2l-0.4-0.2l-0.4-0.2l-0.4-0.2l-0.4-0.2
			l-0.4-0.3l-0.4-0.2l-0.4-0.3l-0.4-0.3l-0.3-0.2l-0.4-0.3l-0.3-0.3l-0.3-0.2l-0.3-0.3l-0.3-0.2l-0.3-0.2l-0.4-0.3l-0.4-0.4
			l-0.4-0.3l-0.4-0.3l-0.4-0.3l-0.4-0.3l-0.4-0.3l-0.4-0.3l-0.4-0.3l-0.4-0.3l-0.4-0.3l-0.4-0.3l-0.4-0.3l-0.4-0.3l-0.4-0.3
			l-0.4-0.3l-0.4-0.3l-0.4-0.3l-0.4-0.3l-0.4-0.3l-0.4-0.3l-0.4-0.3l-0.4-0.3l-0.4-0.3l-0.4-0.3l-0.4-0.3l-0.4-0.3l-0.3-0.3
			l-0.3-0.3l-0.3-0.3l-0.3-0.3l-0.3-0.3l-0.3-0.3l-0.3-0.3l-0.3-0.3l-0.3-0.3l-0.3-0.3l-0.3-0.3l-0.3-0.3l-0.3-0.3l-0.3-0.3
			l-0.3-0.3l-0.3-0.3l-0.3-0.3l-0.3-0.3l-0.3-0.3l-0.3-0.3l-0.3-0.3l-0.3-0.3l-0.3-0.3l-0.3-0.3l-0.3-0.3l-0.3-0.3l-0.3-0.3
			l-0.3-0.3l-0.3-0.3l-0.3-0.3l-0.2-0.3l-0.2-0.3l-0.2-0.3l-0.2-0.3l-0.2-0.3l-0.2-0.3l-0.2-0.3l-0.2-0.3l-0.2-0.3l-0.2-0.3
			l-0.2-0.3l-0.2-0.3l-0.2-0.3l-0.2-0.3l-0.2-0.3l-0.2-0.3l-0.2-0.3l-0.2-0.3l-0.2-0.3l-0.2-0.3l-0.2-0.3l-0.2-0.3l-0.2-0.3
			l-0.2-0.3l-0.2-0.3l-0.2-0.3l-0.2-0.3l-0.2-0.3l-0.2-0.3l-0.2-0.3l-0.2-0.3l-0.1-0.3l-0.2-0.3l-0.1-0.3l-0.1-0.3l-0.1-0.3
			l-0.1-0.3l-0.1-0.3l-0.1-0.3l-0.1-0.3l-0.1-0.3l-0.1-0.3l-0.1-0.3l-0.1-0.3l-0.1-0.3l-0.1-0.3l-0.1-0.3l-0.1-0.3l-0.1-0.3
			l-0.1-0.3l-0.1-0.3l-0.1-0.3l-0.1-0.3l-0.1-0.3l-0.1-0.3l-0.1-0.3l-0.1-0.3l-0.1-0.3l-0.1-0.3l-0.1-0.3l-0.1-0.3l-0.1-0.3
			l-0.1-0.3l0-0.3l0-0.3l0-0.3l0-0.3l0-0.3l0-0.3l0-0.3l0-0.3l0-0.3l0-0.3l0-0.3l0-0.3l0-0.3v-0.3l0-0.3l0-0.3l0-0.3l0-0.3l0-0.3
			l0-0.3l0-0.3l0-0.3l0-0.3l0-0.3l0-0.3l0-0.3l0-0.3l0-0.3l0.1-0.3l0.1-0.3l0.1-0.3l0.1-0.3l0.1-0.3l0.1-0.3l0.1-0.3l0.1-0.3
			l0.1-0.3l0.1-0.3l0.1-0.3l0.1-0.3l0.1-0.3l0.1-0.3l0.1-0.3l0.1-0.3l0.1-0.3l0.1-0.3l0.1-0.3l0.1-0.3l0.1-0.3l0.1-0.3l0.1-0.3
			l0.1-0.3l0.1-0.3l0.1-0.3l0.1-0.3l0.1-0.3l0.2-0.3l0.1-0.3l0.1-0.3l0.2-0.3l0.2-0.3l0.2-0.3l0.2-0.2l0.2-0.2l0.2-0.2l0.2-0.2
			l0.2-0.2l0.2-0.2l0.2-0.2l0.2-0.2l0.2-0.2l0.2-0.2l0.2-0.2l0.2-0.2l0.2-0.2l0.2-0.2l0.2-0.2l0.2-0.2l0.2-0.2l0.2-0.2l0.2-0.2
			l0.2-0.2l0.2-0.2l0.2-0.2l0.2-0.2l0.2-0.2l0.2-0.2l0.2-0.2l0.2-0.2l0.2-0.2l0.2-0.2l0.2-0.2l0.2-0.2l0.2-0.2l0.2-0.2l0.2-0.2
			l0.2-0.2l0.2-0.2l0.2-0.2l0.2-0.2l0.2-0.2l0.2-0.2l0.2-0.2l0.2-0.2l0.2-0.2l0.2-0.2l0.2-0.2l0.2-0.2l0.2-0.2l0.2-0.1l0.2-0.2
			l0.2-0.1l0.2-0.1l0.2-0.1l0.3-0.1l0.3-0.1l0.3-0.1l0.3-0.1l0.2-0.1l0.3-0.1l0.3-0.1l0.3-0.1l0.3-0.1l0.3-0.1l0.3-0.1l0.3-0.1
			l0.3-0.1l0.3-0.1l0.3-0.1l0.3-0.1l0.3-0.1l0.3-0.1l0.3-0.1l0.3-0.1l0.3-0.1l0.3-0.1l0.3-0.1l0.3-0.1l0.3-0.1l0.3-0.1l0.3-0.1
			l0.3-0.1l0.3-0.1l0.3-0.1l0.3-0.1l0.3-0.1l0.3-0.1l0.3-0.1l0.3-0.1l0.3-0.1l0.3-0.1l0.3-0.1l0.3-0.1l0.3-0.1l0.3-0.1l0.3-0.1
			l0.3-0.1l0.3-0.1l0.3-0.1l0.3-0.1l0.3-0.1l0.3-0.1l0.3-0.1l0.3-0.1l0.3-0.1l0.3-0.1l0.3-0.1l0.3-0.1l0.3-0.1l0.3-0.1l0.3,0l0.3,0
			l0.3-0.1l0.3,0l0.3,0l0.3,0l0.3,0l0.3,0l0.3,0l0.3,0l0.3,0l0.3,0l0.3,0l0.3,0l0.3,0l0.3,0l0.3,0l0.3,0l0.3,0l0.3,0l0.3,0l0.3,0
			l0.3,0l0.3,0l0.3,0l0.3,0l0.3,0l0.3,0l0.3,0l0.3,0l0.3,0h0.3l0.3,0H1121.4L1121.4,771.5z"/>
		<g>
			<path fill-rule="evenodd" clip-rule="evenodd" fill="#61E0EE" d="M1536.9,786.6c73.6-87.9,194,33.9,98.3,98.2L1536.9,786.6z"/>
			<path fill="#390075" d="M1529.8,781.4l4.5-4.6c12-14,28.6-23.7,46.7-27.1c13.6-2.6,27.8-1.7,40.9,2.6
				c30.1,10.7,51.2,36.9,55.3,68.5l0,0.2l0,0.2c1.7,30.8-15.2,59-43.2,72l-4.9,2.9L1529.8,781.4z M1632.3,877.5
				c19.8-11.1,31.8-32.5,30.6-55.3c-3.4-26-20.9-47.6-45.6-56.3c-10.8-3.7-22.4-4.5-33.6-2.4c-13,2.5-25.1,9-34.3,18.4L1632.3,877.5
				z"/>
			<path fill-rule="evenodd" clip-rule="evenodd" fill="#390075" d="M1610.8,842.6c13-12,21.2-25.8,7.3-40.8
				c-12.9-13.9-28.3-8-41.3,4.1L1610.8,842.6z"/>
		</g>
		<g>
			<path fill-rule="evenodd" clip-rule="evenodd" fill="#61E0EE" d="M1096,898.3c-109.4-34.2-43.2-192.2,53-128.5L1096,898.3z"/>
			<path fill="#390075" d="M1093.9,906.8l-6-2.4c-17.6-5.7-32.8-17.3-43-32.7c-7.6-11.6-12.2-25-13.3-38.8
				c-1.7-31.9,14.4-61.5,42-77.3l0.1-0.1l0.1-0.1c27.8-13.4,60.3-8.6,83,12.3l4.5,3.5L1093.9,906.8z M1143.3,775.3
				c-17.9-14.1-42.2-16.9-62.8-7c-22.7,13.1-35.9,37.6-34.5,63.8c0.7,11.4,4.4,22.4,10.7,31.9c7.3,11.1,17.9,19.7,30.2,24.6
				L1143.3,775.3z"/>
			<path fill-rule="evenodd" clip-rule="evenodd" fill="#390075" d="M1119.4,808.5c-16.1-7.4-32-9.6-40.4,8.9
				c-7.9,17.2,3.5,29.2,19.7,36.5L1119.4,808.5z"/>
		</g>
		<path fill-rule="evenodd" clip-rule="evenodd" fill="#61E0EE" d="M1120.5,1332.4c43.5,74.3,165.7,92,186.1,93.7
			c119.8,10.3,229.4-25.9,257.6-73.9c33.1-56.4,36.8-103.7,23.5-191c-6.4-41.9,37.2-107.1,44.1-148.9
			c15.7-94.4-9.4-206.4-130.5-259.5c-34.8-15.3-69.9-29.2-108.9-35.3c-97.2-15.4-209,18.6-267.2,84.1c-26.5,29.8-42,70.7-50.2,106.7
			c-23.7,103.6,36.9,136.9,13.8,306.7C1081.6,1269.2,1120.5,1332.4,1120.5,1332.4L1120.5,1332.4z"/>
		<g>
			<defs>
				<path id="SVGID_1_" d="M1142.7,1332.4c41.6,74.3,158.5,92,178.1,93.7c114.7,10.3,219.6-25.9,246.5-73.9
					c31.6-56.4,35.2-103.7,22.5-191c-6.1-41.9,35.6-107.1,42.2-148.9c15.1-94.4-9-206.4-124.8-259.5
					c-33.3-15.3-66.9-29.2-104.2-35.3c-93-15.4-200,18.6-255.7,84.1c-25.3,29.8-40.2,70.7-48.1,106.7
					c-22.7,103.6,35.3,136.9,13.2,306.7C1105.5,1269.2,1142.7,1332.4,1142.7,1332.4L1142.7,1332.4z"/>
			</defs>
			<clipPath id="SVGID_00000120520021367490139690000014057754155545472406_">
				<use xlink:href="#SVGID_1_"  overflow="visible"/>
			</clipPath>
			<g clip-path="url(#SVGID_00000120520021367490139690000014057754155545472406_)">
				<path fill-rule="evenodd" clip-rule="evenodd" fill="#4FCBE0" d="M1556.7,793.9c32.8,29.9,33.8,25.1,76,110.8
					c26.3,146.4-52.5,170.7-40.3,255.7c12.2,85-0.9,220.9-93.8,253.2c-92.8,32.4-255.1-4.9-222.3,3.2c32.8,8.1,161.8,0.5,209.2-51.8
					c23.4-25.9,34.7-85,28.1-176.4c-6.6-91.4,34.7-182.8,58.2-248.4C1595.2,874.8,1556.7,793.9,1556.7,793.9L1556.7,793.9z"/>
				<path fill-rule="evenodd" clip-rule="evenodd" fill="#4FCBE0" d="M1555.5,902.9c0,0-4.8,60.5-73.5,63.4
					c-68.7,2.9-80.2-46.8-80.2-46.8L1555.5,902.9z"/>
				<path fill-rule="evenodd" clip-rule="evenodd" fill="#4FCBE0" d="M1108.1,894.2l153.7-16.6c0,0-4.8,60.5-73.5,63.4
					C1119.7,943.9,1108.1,894.2,1108.1,894.2L1108.1,894.2z"/>
			</g>
		</g>
		<path fill-rule="evenodd" clip-rule="evenodd" fill="#B7F8FF" d="M1419.9,1385.9c110.6-24,90.5-270.6,32.3-291.9
			c-16.7-6.1-33.7-11.7-52.4-14.2c-46.8-6.2-172-3.9-200,22.4c-12.7,12-20.2,28.4-24.2,42.9c-11.4,41.6-5.3,119.8,7.4,160.2
			c6.7,21.4,34.5,68.4,151.3,85.9C1352.9,1393.9,1390.3,1392.3,1419.9,1385.9z"/>
		<path fill="#390075" d="M1347.5,1434.9c-13.8,0-27.7-0.6-41.4-1.8c-1.6-0.1-40.8-3.6-86.2-20c-22.4-8.1-42.1-17.9-58.7-29.1
			c-20.4-13.9-36.1-30-46.6-48l0,0c-1.1-1.7-2.9-4.8-6.2-11c-3.3-6.3-8.2-16.4-12.9-28.4c-12.1-31.1-16.7-58.9-13.5-82.6
			c12.1-89.3,1-139.6-8.9-184c-8.7-39.4-16.3-73.4-4.8-123.3c7.2-31.6,22.1-76.3,51.8-109.8c14.7-16.6,33-31.4,54.2-44.2
			c20.5-12.3,43.3-22.5,67.9-30.1c49.3-15.4,103.1-19.6,151.4-12c41.7,6.6,78.9,21.9,110.6,35.8c29.7,13,55.3,30.3,75.8,51.2
			c18.9,19.2,33.8,41.7,44.3,66.8c23.2,55.4,20.6,111.7,14.4,149.1c-2.9,17.5-11.6,38.1-20.8,59.9c-13.2,31.2-26.8,63.5-23.3,86.7
			c7.2,47.7,8.9,80.3,5.7,109c-3.5,30.4-12.7,57.1-30,86.6c-14.9,25.4-49.9,47.4-98.4,62C1434.2,1429,1391.1,1434.9,1347.5,1434.9z
			 M1345,720.8c-32.9,0-66.8,5.1-98.7,15c-47.5,14.8-88.7,39.8-115.8,70.3c-15.3,17.2-36.2,49.2-48.6,103.6
			c-10.7,46.9-3.5,79.4,4.9,117.2c10.1,45.6,21.5,97.2,9.1,188.9c-7,51.2,30.3,112.3,30.6,112.9c0,0,0.1,0.1,0.1,0.1
			c9.5,16.2,23.7,30.8,42.4,43.5c15.6,10.6,34.3,19.8,55.6,27.5c35,12.6,69.3,18.1,82.6,19.3c55.7,4.8,112.7-0.5,160.6-14.8
			c44.5-13.4,77.5-33.7,90.4-55.7c16.3-27.7,25-52.8,28.2-81.1c3.1-27.4,1.5-58.9-5.6-105.3c-4.1-27.1,10.3-61.2,24.2-94.3
			c8.9-21,17.3-40.9,19.9-56.8c5.9-35.6,8.4-89.1-13.5-141.4c-20.8-49.6-58.8-86.8-112.9-110.6c-38.3-16.8-71.2-29.1-107.2-34.8
			C1376.4,722,1360.8,720.8,1345,720.8z"/>
		<g>
			<path fill-rule="evenodd" clip-rule="evenodd" fill="#FFFFFF" d="M1474.1,1058.3c56.1-6.7,106-1.3,141.9,5.9
				c-13.7,39.8-22,84.8-18,116.6c10.6,84.9,1.6,135.7-17.6,188.8c-76-9.8-272.1,6.6-272.1,6.6c-48.2-157.1,26-292,26-292
				C1369.1,1088.2,1361.4,1071.8,1474.1,1058.3z"/>
			<path fill="#390075" d="M1308.4,1383.2c-3,0-5.7-1.9-6.5-4.8c-11.2-36.5-16.8-74.8-16.6-113.9c0.2-31.2,4-63.1,11.4-94.5
				c12.6-53.7,31-87.4,31.7-88.8c1.3-2.4,4-3.8,6.8-3.5c14,1.6,19.9-0.4,32.7-4.6c16.9-5.5,42.4-13.9,105.5-21.4l0.8,6.8l-0.8-6.8
				c58.9-7,110.9-0.6,144.1,6c1.9,0.4,3.6,1.6,4.6,3.3c1,1.7,1.2,3.8,0.5,5.6c-14.7,42.5-21.3,84.9-17.7,113.5
				c5.1,40.9,5.9,76.2,2.4,107.9c-3.1,27.7-9.4,53.6-20.3,84.1c-1.1,3-4.1,4.9-7.3,4.5c-74.5-9.6-268.7,6.5-270.7,6.7
				C1308.8,1383.2,1308.6,1383.2,1308.4,1383.2z M1338.4,1091.5c-7,14-19.7,44.3-28.5,81.9c-7.1,30.4-10.8,61.2-10.9,91.3
				c-0.2,35.7,4.7,70.8,14.4,104.3c14.5-1.2,55.6-4.3,102.2-6.6c73.8-3.6,127.6-3.7,160.3-0.2c17.3-49.7,25.7-98.2,15.4-180.5
				c-3.6-28.9,2.3-70.4,15.8-112.2c-32.3-5.8-79.4-10.7-132.1-4.4l0,0c-61.8,7.4-86.5,15.5-102.8,20.9
				C1360,1089.9,1352.2,1092.5,1338.4,1091.5z"/>
		</g>
		<g>
			<path fill-rule="evenodd" clip-rule="evenodd" fill="#FFFFFF" d="M1073,1241.7c9.3-69.1,6.8-118.7,0.7-159.1
				c10.5-25.6,19.8-41.9,19.8-41.9s25.5,8.7,77.6,22.2c52.1,13.5,120.4,43.4,120.4,43.4c46.3,143.6-15.1,278.5-15.1,278.5
				c-10.4-21.2-130.8-17.3-130.8-17.3c-24.9-10.1-44.3-23-59.1-37.8C1077,1304,1068.9,1271.7,1073,1241.7z"/>
			<path fill="#390075" d="M1276.4,1392.2c-2.9,0-5.5-1.6-6.7-4.2c0,0-2.2-4-19.6-7.6c-10.9-2.2-25.5-3.9-43.4-4.8
				c-30.7-1.6-60.6-0.7-60.9-0.7c-1.1,0-2.1-0.2-3.1-0.5c-24.7-10-45.4-23.2-61.6-39.4c-0.8-0.8-1.4-1.7-1.7-2.7
				c-12.8-34.4-17.5-65.2-14-91.5c7.8-58.1,8.1-108,0.7-157c-0.2-1.3,0-2.7,0.5-4c10.6-25.7,19.8-42.1,20.2-42.8
				c1.8-3.1,5.5-4.6,9-3.4c0.3,0.1,25.9,8.8,77,22c52.1,13.5,118.7,42.5,121.5,43.8c2,0.9,3.5,2.5,4.1,4.6
				c10.8,33.4,16.7,69.2,17.5,106.2c0.7,29.6-1.8,60-7.5,90.5c-9.6,52-24.8,85.7-25.4,87.2c-1.2,2.6-3.8,4.4-6.7,4.4
				C1276.5,1392.2,1276.5,1392.2,1276.4,1392.2z M1166.9,1359.6c11.3,0,25.9,0.2,40.6,1c37.5,2,56.2,6.6,65.9,11.7
				c5.1-13.3,14.2-40,20.6-74.7c5.4-29.4,7.8-58.8,7.1-87.3c-0.8-34.3-6.1-67.4-15.8-98.4c-13.9-5.9-71.5-30.1-116.2-41.6
				c-38-9.8-61.7-17.1-72.1-20.3c-3.4,6.4-9.3,18.3-15.7,33.8c7.2,49.8,6.9,100.5-1,159.2c0,0,0,0,0,0c-3.1,23.1,1.2,51.7,12.6,82.7
				c14.3,14,32.4,25.5,54,34.4C1150.1,1359.7,1157.3,1359.6,1166.9,1359.6z M1073,1241.7L1073,1241.7L1073,1241.7z"/>
		</g>
		<circle fill-rule="evenodd" clip-rule="evenodd" fill="#B7F8FF" cx="1131.8" cy="992.8" r="8.2"/>
		<circle fill-rule="evenodd" clip-rule="evenodd" fill="#B7F8FF" cx="1537.5" cy="1007.6" r="8.2"/>
		<g>
			<g>
				<path fill-rule="evenodd" clip-rule="evenodd" fill="#FFFFFF" d="M1163,813.9c-53.3,7.6-90.4,57-82.8,110.4
					c7.6,53.3,57,90.4,110.4,82.8c53.3-7.6,90.4-57,82.8-110.4C1265.7,843.4,1216.3,806.3,1163,813.9L1163,813.9z"/>
				<path fill="#390075" d="M1176.6,1016.1c-51.7,0-97-38.1-104.5-90.8c-8.2-57.7,32-111.3,89.7-119.5l0,0
					c57.7-8.2,111.3,32,119.5,89.7c8.2,57.7-32,111.3-89.7,119.5C1186.6,1015.8,1181.6,1016.1,1176.6,1016.1z M1164.1,821.9
					L1164.1,821.9c-48.9,7-83,52.4-76,101.2c6.4,44.6,44.8,76.9,88.6,76.9c4.2,0,8.4-0.3,12.7-0.9c48.9-7,83-52.4,76-101.2
					C1258.4,849,1213,814.9,1164.1,821.9z"/>
			</g>
			<g>
				<path fill-rule="evenodd" clip-rule="evenodd" fill="#FFFFFF" d="M1479.9,841.2c-53.3,7.6-90.4,57-82.8,110.4
					c7.6,53.3,57,90.4,110.4,82.8c53.3-7.6,90.4-57,82.8-110.4C1582.6,870.8,1533.2,833.7,1479.9,841.2L1479.9,841.2z"/>
				<path fill="#390075" d="M1493.4,1043.5c-22.7,0-44.7-7.3-63.2-21.2c-22.6-16.9-37.2-41.7-41.2-69.6c-4-27.9,3.2-55.7,20.1-78.3
					c16.9-22.6,41.7-37.2,69.6-41.2c57.7-8.2,111.3,32,119.5,89.7c8.2,57.7-32,111.3-89.7,119.5
					C1503.5,1043.1,1498.4,1043.5,1493.4,1043.5z M1493.7,848.3c-4.2,0-8.4,0.3-12.7,0.9c-23.7,3.4-44.6,15.8-59,34.9
					c-14.4,19.1-20.4,42.7-17,66.3c3.4,23.7,15.8,44.6,34.9,59c19.1,14.4,42.7,20.4,66.3,17c48.9-7,83-52.4,76-101.2
					C1575.9,880.6,1537.5,848.3,1493.7,848.3z"/>
			</g>
			<path fill-rule="evenodd" clip-rule="evenodd" fill="#390075" d="M1153.9,935.9c2.7,18.9,20.3,32.1,39.2,29.4
				c18.9-2.7,32.1-20.3,29.4-39.2c-2.7-18.9-20.3-32.1-39.2-29.4C1164.4,899.4,1151.2,917,1153.9,935.9z"/>
			<path fill-rule="evenodd" clip-rule="evenodd" fill="#390075" d="M1466,959.1c2.7,18.9,20.3,32.1,39.2,29.4
				c18.9-2.7,32.1-20.3,29.4-39.2c-2.7-18.9-20.3-32.1-39.2-29.4C1476.5,922.6,1463.3,940.1,1466,959.1z"/>
			<path fill-rule="evenodd" clip-rule="evenodd" fill="#FFFFFF" d="M1202.5,923.7c-5.3,0.8-9,5.7-8.3,11c0.8,5.3,5.7,9,11,8.3
				c5.3-0.8,9-5.7,8.3-11C1212.7,926.6,1207.8,922.9,1202.5,923.7L1202.5,923.7z"/>
			<path fill-rule="evenodd" clip-rule="evenodd" fill="#FFFFFF" d="M1506.4,959c0.8,5.3,5.7,9,11,8.3c5.3-0.8,9-5.7,8.3-11
				c-0.8-5.3-5.7-9-11-8.3C1509.3,948.8,1505.6,953.7,1506.4,959z"/>
		</g>
	</g>
	<g>
		<path fill="#FFFFFF" d="M1158.9,1280.1c-0.2,17-1.2,30.4-3.4,31.9c-6.6,4.6-64.9,6.4-67.6,1.4c-1.3-2.5-2.9-9-4.4-17.8
			c-5.4-32.4-9.2-95.5,8.5-99.6c0,0,46.5,4.3,65.3,4.9C1157.3,1201,1159.4,1247.3,1158.9,1280.1"/>
	</g>
	<g>
		<path fill-rule="evenodd" clip-rule="evenodd" fill="#FFFFFF" d="M1307.8,995.3c0.8,17.8,0.2,35.7-1.8,53.4
			c-4,8-11.8,13.4-20.7,14.3c-6.2-3.3-13.5-4.5-16.9-11.8c-0.3-15.8,0.8-31.5,3.4-47.1L1307.8,995.3z"/>
		<path fill="#390075" d="M1285.3,1067.2c-0.7,0-1.3-0.2-2-0.5c-1.4-0.7-2.8-1.4-4.4-2c-5.2-2.2-11.2-4.8-14.4-11.8
			c-0.2-0.5-0.4-1.1-0.4-1.6c-0.3-16,0.8-32.1,3.4-47.9c0.3-1.7,1.5-3,3.1-3.4l36-8.7c1.2-0.3,2.5,0,3.5,0.7c1,0.7,1.6,1.9,1.7,3.1
			c0.8,18,0.2,36.2-1.8,54.1c-0.1,0.5-0.2,0.9-0.4,1.4c-4.7,9.4-13.6,15.6-24.1,16.6C1285.6,1067.2,1285.4,1067.2,1285.3,1067.2z
			 M1272.5,1050.1c1.8,3.4,4.9,4.8,9.7,6.8c1.3,0.5,2.5,1.1,3.8,1.7c6.8-1,12.6-5.1,15.9-11.2c1.7-15.5,2.4-31.3,1.9-46.9l-28.4,6.9
			C1273.3,1021.6,1272.3,1035.9,1272.5,1050.1z"/>
	</g>
	<g>
		<path fill-rule="evenodd" clip-rule="evenodd" fill="#FFFFFF" d="M1309.4,994.5c0.8,17.8,0.2,35.7-1.8,53.4
			c29.2,43.7,50.8-11.9,40.8-40.9L1309.4,994.5z"/>
		<path fill="#390075" d="M1328.7,1068.2c-2.8,0-5.7-0.7-8.5-2.1c-5.4-2.7-10.9-8-16.1-15.9c-0.5-0.8-0.8-1.8-0.7-2.8
			c2-17.4,2.6-35.2,1.8-52.7c-0.1-1.4,0.5-2.7,1.6-3.5c1.1-0.8,2.5-1.1,3.8-0.7l39,12.5c1.3,0.4,2.2,1.4,2.7,2.6
			c6.8,19.7,0.2,52.7-16.1,60.7C1333.8,1067.6,1331.3,1068.2,1328.7,1068.2z M1311.9,1046.8c9.5,13.7,16.5,14.2,20.7,12.1
			c5.2-2.6,9.8-10.3,12.3-20.5c2.4-9.7,2.4-20.1,0.2-28.1l-31.3-10.1C1314.2,1015.8,1313.6,1031.4,1311.9,1046.8z"/>
	</g>
	<g>
		<ellipse fill-rule="evenodd" clip-rule="evenodd" fill="#D6C295" cx="1310.3" cy="1014.8" rx="59" ry="24.4"/>
		<path fill="#390075" d="M1310.3,1043.4c-16.3,0-31.7-2.7-43.3-7.5c-12.8-5.3-19.9-12.8-19.9-21.1c0-8.3,7.1-15.8,19.9-21.1
			c11.6-4.8,27-7.5,43.3-7.5c16.3,0,31.7,2.7,43.3,7.5c12.8,5.3,19.9,12.8,19.9,21.1c0,8.3-7.1,15.8-19.9,21.1
			C1342,1040.8,1326.6,1043.4,1310.3,1043.4z M1310.3,994.6c-15.2,0-29.5,2.4-40.1,6.8c-9.2,3.8-14.7,8.8-14.7,13.4
			c0,4.6,5.5,9.6,14.7,13.4c10.7,4.4,24.9,6.8,40.1,6.8c15.2,0,29.5-2.4,40.1-6.8c9.2-3.8,14.7-8.8,14.7-13.4
			c0-4.6-5.5-9.6-14.7-13.4C1339.8,997,1325.5,994.6,1310.3,994.6z"/>
	</g>
	<path fill-rule="evenodd" clip-rule="evenodd" fill="#390075" d="M1351,990.1c-2.1,25.4-86.4,23.6-79.4-5.3s79.1-28.8,79.5,5.3
		L1351,990.1z"/>
	<circle fill-rule="evenodd" clip-rule="evenodd" cx="1350.6" cy="1132.6" r="6.9"/>
	<circle fill-rule="evenodd" clip-rule="evenodd" cx="1338" cy="1176.1" r="6.9"/>
	<circle fill-rule="evenodd" clip-rule="evenodd" cx="1333.9" cy="1227.3" r="6.9"/>
	<circle fill-rule="evenodd" clip-rule="evenodd" cx="1334.5" cy="1286.3" r="6.9"/>
	<circle fill-rule="evenodd" clip-rule="evenodd" cx="1336.2" cy="1337.6" r="6.9"/>
	<g opacity="0.2">
		<path fill="#390075" d="M1157.1,1331.5c-13.7,7.5-42.8,5.1-67,1.3c-6.1-45.1-4.8-87.7,0.3-125.7l67-4.4
			C1157.4,1206.7,1176.1,1321.1,1157.1,1331.5"/>
	</g>
	<g>
		<path fill-rule="evenodd" clip-rule="evenodd" fill="#FFFFFF" d="M1546.7,1171.1c41.9,14.9,100.2-30.2,100.2-30.2
			c37.1-28.1-3.8-72.5-21-51.4c-17.2,21.1-49,25.4-82.8,26.9"/>
		<path fill="#390075" d="M1565.3,1181c-7.1,0-14.2-1-20.9-3.4c-3.6-1.3-5.4-5.2-4.2-8.8c1.3-3.6,5.2-5.4,8.8-4.2
			c37.8,13.5,93.1-28.7,93.7-29.1c0,0,0,0,0.1,0c6.8-5.2,14.4-13.9,11.9-26.2c-1.5-7.4-7.7-16.2-15.3-18.1c-3.3-0.8-5.9,0-8.1,2.7
			c-19,23.4-53.5,27.9-87.9,29.4c-3.8,0.1-7-2.8-7.1-6.6c-0.2-3.8,2.8-7,6.6-7.1c52.8-2.3,68.6-13.1,77.8-24.4
			c5.5-6.7,13.5-9.4,21.9-7.4c11.9,2.9,22.7,15,25.5,28.6c3.1,14.8-3.1,29.4-17,39.9C1648.6,1148.3,1605.6,1181,1565.3,1181z"/>
	</g>
	<g>
		<path fill="#FFFFFF" d="M1158.9,1280.1c-0.2,17-1.2,30.4-3.4,31.9c-6.6,4.6-64.9,6.4-67.6,1.4c-1.3-2.5-2.9-9-4.4-17.8
			c-5.4-32.4-9.2-95.5,8.5-99.6c0,0,46.5,4.3,65.3,4.9C1157.3,1201,1159.4,1247.3,1158.9,1280.1"/>
	</g>
	<g opacity="0.2">
		<path fill="#390075" d="M1158.9,1280.1c-0.2,17-1.2,30.4-3.4,31.9c-6.6,4.6-64.9,6.4-67.6,1.4c-1.3-2.5-2.9-9-4.4-17.8
			C1110.2,1299.5,1146.2,1300.1,1158.9,1280.1"/>
	</g>
	<g>
		<path fill="#390075" d="M1135.1,1234.7c-4.8,0.2-9.5,0.2-14.2,0.1c-4.7-0.1-9.5-0.3-14.3-0.6c-9.5-0.7-19.1-1.9-28.7-4.2
			c-3-0.7-4.8-3.6-4-6.3c0.8-2.8,3.9-4.4,6.8-3.7c0.2,0.1,0.5,0.1,0.7,0.2l0.1,0c8.2,3.1,17.1,5.4,26.1,7.1
			c4.5,0.9,9.1,1.6,13.7,2.3c4.6,0.6,9.2,1.2,13.8,1.6l0,0c1,0.1,1.8,0.9,1.7,1.9C1136.8,1234,1136,1234.7,1135.1,1234.7"/>
	</g>
	<g opacity="0.2">
		<path fill="#390075" d="M1502.1,1344c17.5,7.5,54.8,5.1,85.8,1.3c7.8-45.1,6.2-87.7-0.4-125.7l-85.8-4.4
			C1501.8,1219.2,1477.7,1333.6,1502.1,1344"/>
	</g>
	<g>
		<path fill="#FFFFFF" d="M1499.8,1292.7c0.3,17,1.5,30.4,4.4,31.9c8.5,4.6,83.2,6.4,86.5,1.4c1.7-2.5,3.7-9,5.6-17.8
			c6.9-32.4,11.8-95.5-10.9-99.6c0,0-59.5,4.3-83.6,4.9C1501.8,1213.5,1499.2,1259.8,1499.8,1292.7"/>
	</g>
	<g opacity="0.2">
		<path fill="#390075" d="M1499.8,1292.7c0.3,17,1.5,30.4,4.4,31.9c8.5,4.6,83.2,6.4,86.5,1.4c1.7-2.5,3.7-9,5.6-17.8
			C1562.2,1312,1516.1,1312.7,1499.8,1292.7"/>
	</g>
	<g>
		<path fill="#390075" d="M1530.3,1247.3c6.1,0.2,12.2,0.2,18.2,0.1c6.1-0.1,12.2-0.3,18.3-0.6c12.2-0.7,24.4-1.9,36.7-4.2
			c3.8-0.7,6.1-3.6,5.1-6.3c-1-2.8-4.9-4.4-8.8-3.7c-0.3,0.1-0.6,0.1-0.9,0.2l-0.1,0c-10.5,3.1-21.9,5.4-33.5,7.1
			c-5.8,0.9-11.6,1.6-17.5,2.3c-5.9,0.6-11.8,1.2-17.7,1.6l-0.1,0c-1.3,0.1-2.3,0.9-2.2,1.9
			C1528.1,1246.6,1529.1,1247.2,1530.3,1247.3"/>
	</g>
	<g>
		<g>
			<g>
				<path fill="#FFFFFF" d="M1765.1,1194c-3.4-9.6-81.9-95.9-81.9-95.9l-18.5-50.7l-20.8,7.6l-1,0.4l-20.8,7.6l18.5,50.7
					c0,0-4.2,116.6-0.6,126.1c3.6,9.4,32,12,69.8-1.6l0,0c0.2-0.1,0.3-0.1,0.5-0.2c0.2-0.1,0.3-0.1,0.5-0.2l0,0
					C1748.4,1223.9,1768.5,1203.6,1765.1,1194z"/>
			</g>
		</g>
		<g opacity="0.8">
			<g>
				<path fill="#E6D3ED" d="M1668.3,1024.5c-1,0.4-31.9,11.7-31.9,11.7s-30.9,11.3-31.9,11.7c1.1-0.4,7,19.1,7,19.1l10.6-3.9
					l21.3-7.8l21.3-7.8l10.6-3.9C1675.3,1043.6,1667.2,1024.9,1668.3,1024.5z"/>
			</g>
		</g>
		<g>
			<g>
				<path fill="#000072" d="M1712.2,1241.7l-0.5,0.2l-0.5,0.2c-0.1,0-0.2,0.1-0.3,0.1c-36.8,13.2-69.5,12.8-74.7-0.9
					c-3.6-9.7-0.4-105.5,0.4-126.9l-18.3-49.9c-0.8-2.1,0.3-4.4,2.4-5.2l42.6-15.6c2.1-0.8,4.4,0.3,5.2,2.4l18.3,49.9
					c14.3,15.8,78.7,86.9,82.2,96.7l0,0c4.9,13.8-19.9,35.2-56.5,48.9C1712.4,1241.6,1712.3,1241.6,1712.2,1241.7z M1627.3,1065.5
					l17.2,46.9c0.2,0.5,0.3,1,0.2,1.5c-1.6,44.5-3.3,117.7-0.9,124.5c2.2,5.8,27,9.6,64.6-4c0.1,0,0.1,0,0.2-0.1l0.3-0.1l0.3-0.1
					c0.1,0,0.1-0.1,0.2-0.1c37.5-14,54-32.9,51.9-38.7c-2.6-6.8-51.1-61.6-81.1-94.5c-0.4-0.4-0.6-0.8-0.8-1.3l-17.2-46.9
					L1627.3,1065.5z M1765.1,1194L1765.1,1194L1765.1,1194z M1765.1,1194L1765.1,1194L1765.1,1194z"/>
			</g>
		</g>
		<g>
			<g>
				<path fill="#000072" d="M1676.7,1047.4l-63.9,23.4c-1,0.4-2.2,0.3-3.2-0.2c-1-0.5-1.7-1.4-2.1-2.4c-2.1-6.9-4.8-15-5.9-17.3
					c-0.4-0.4-0.8-0.9-1-1.6c-0.8-2.1,0.3-4.4,2.4-5.2l63.9-23.4c2.1-0.8,4.4,0.3,5.2,2.4c0.2,0.6,0.3,1.2,0.2,1.8
					c0.6,2.4,3.8,10.4,6.7,17c0.4,1,0.4,2.2,0,3.2C1678.6,1046.2,1677.8,1047,1676.7,1047.4z M1614.1,1061.7l55.8-20.4
					c-2.2-5.2-3.6-8.8-4.5-11.4l-55.3,20.2C1611.1,1052.6,1612.4,1056.3,1614.1,1061.7z M1669.7,1028.3
					C1669.7,1028.3,1669.7,1028.3,1669.7,1028.3C1669.7,1028.3,1669.7,1028.3,1669.7,1028.3z M1605.9,1051.7
					C1605.9,1051.7,1605.9,1051.7,1605.9,1051.7C1605.9,1051.7,1605.9,1051.7,1605.9,1051.7z M1669.7,1028.3
					C1669.7,1028.3,1669.7,1028.3,1669.7,1028.3C1669.7,1028.3,1669.7,1028.3,1669.7,1028.3z M1605.9,1051.7
					C1605.9,1051.7,1605.9,1051.7,1605.9,1051.7C1605.9,1051.7,1605.9,1051.7,1605.9,1051.7z M1669.7,1028.3
					C1669.7,1028.3,1669.7,1028.3,1669.7,1028.3C1669.7,1028.3,1669.7,1028.3,1669.7,1028.3z M1605.9,1051.7
					C1605.9,1051.7,1605.9,1051.7,1605.9,1051.7C1605.9,1051.7,1605.9,1051.7,1605.9,1051.7z"/>
			</g>
		</g>
		<g>
			<g>
				<path fill="#B3D133" d="M1654,1221.5l2.1-41.6l18-3.9c0,0,3.2-1.7,6.2-4.6c2.9-2.9,13.5-11.5,22.4-14c8.9-2.5,11.2-0.5,11.2-0.5
					l33.9,40.9c0,0-4.5,12.6-40.1,25.1c-35.6,12.5-52.8,6.4-52.8,6.4L1654,1221.5z"/>
			</g>
		</g>
		<g>
			<g>
				<path fill="#000072" d="M1709.6,1225c-7.3,2.7-14.2,4.4-20.3,5.6c-16.3,3.1-33.5,3-36.3,0.7c-1.2-1-3.5-2.9,0.3-51.7
					c0.1-1.2,1-2.2,2.1-2.4l19.8-4.3c16-20.4,37.7-19.8,38.6-19.8c0.8,0,1.5,0.4,2,1l33.9,42c0.9,1.1,0.8,2.6-0.2,3.6
					C1737.3,1212.3,1722.9,1220.2,1709.6,1225z M1656.9,1227.1c3.7,0.7,16.9,1.2,32.9-2.1c15.2-3.1,36.8-10.4,54.2-27.5l-31.5-39.1
					c-4.6,0.2-21.1,2-33.6,18.5c-0.4,0.5-0.9,0.9-1.6,1l-18.8,4.1C1657.2,1201.4,1656.2,1222.2,1656.9,1227.1z M1657.1,1227.9
					L1657.1,1227.9L1657.1,1227.9z"/>
			</g>
		</g>
		<g>
			<g>
				<path fill="#000072" d="M1699.7,1173.3c-9.8,3.6-20.5,4.6-22.6,4.7c-1.5,0.1-2.8-1-2.9-2.5c-0.1-1.5,1-2.8,2.5-2.9
					c9.6-0.7,34.6-5.2,34.5-16.8c0-1.5,1.2-2.7,2.7-2.7c1.5,0,2.7,1.2,2.7,2.7C1716.7,1164.6,1708.6,1170,1699.7,1173.3z"/>
			</g>
		</g>
		<g>
			<g>
				
					<ellipse transform="matrix(0.7361 -0.6769 0.6769 0.7361 -370.7265 1468.002)" fill="#FFFFFF" cx="1697.1" cy="1209.4" rx="6.4" ry="6.4"/>
			</g>
		</g>
		<g>
			<g>
				<circle fill="#FFFFFF" cx="1713.1" cy="1188.8" r="9.7"/>
			</g>
		</g>
		<g>
			<g>
				<circle fill="#FFFFFF" cx="1675.5" cy="1200.9" r="3.9"/>
			</g>
		</g>
		<g opacity="0.3">
			<g opacity="0.3">
				<g>
					<path fill="#000072" d="M1680.3,1088.4l-18.5-50.7l-20.8,7.6l-1,0.4l-20.8,7.6l4.3,11.8l7.9-2.9l0.8-0.3l16.6-6.1l15.9,43.4
						c0,0,64.9,74.7,67.8,83c2.9,8.1-12.9,25-43,36.2l0,0c-0.1,0.1-0.3,0.1-0.4,0.1c-0.1,0.1-0.3,0.1-0.4,0.2l0,0
						c-24.6,8.8-44.3,8.7-52.5,4c0.2,3.6,0.5,6.2,1,7.3c3.6,9.4,32,12,69.8-1.6l0,0c0.2-0.1,0.3-0.1,0.5-0.2
						c0.2-0.1,0.3-0.1,0.5-0.2l0,0c37.6-14,57.7-34.3,54.3-43.8C1758.7,1174.7,1680.3,1088.4,1680.3,1088.4z"/>
				</g>
			</g>
		</g>
	</g>
	<g>
		<path fill-rule="evenodd" clip-rule="evenodd" fill="#FFFFFF" d="M1124.2,1109c-27.7,9.4-54.6,15.8-75.1,4.2
			c-20.4-11.6-39.5,36.9-0.9,47.9c0,0,61,18.1,90-7"/>
		<path fill="#390075" d="M1092.8,1173.4c-23.6,0-44.7-6.1-46.2-6.6c-14.4-4.1-23.9-13.9-26.1-26.8c-2-11.9,2.9-24.9,11.6-31
			c6.2-4.3,13.4-4.6,20-0.9c18.5,10.5,44.7,4,70.2-4.7c3.1-1,6.5,0.6,7.5,3.7c1,3.1-0.6,6.5-3.7,7.5c-11.8,4-27.1,8.8-41.6,10.3
			c-15.3,1.6-27.8-0.5-38.3-6.5c-2.6-1.5-4.9-1.4-7.3,0.3c-5.6,3.9-7.8,12.9-6.7,19.4c1.8,10.7,10.6,15.4,17.7,17.4
			c0.6,0.2,58.3,16.9,84.5-5.8c2.5-2.1,6.2-1.9,8.3,0.6c2.1,2.5,1.9,6.2-0.6,8.3C1128.9,1170.1,1110.2,1173.4,1092.8,1173.4z"/>
	</g>
	<g>
		<g>
			<g>
				<path fill="#FFFFFF" d="M955.3,1208.6c0.6-8.8,46-98.6,46-98.6l3.8-46.4l19.1,1.5l0.9,0.1l19.1,1.5l-3.8,46.4
					c0,0,30.4,96,29.6,104.7c-0.8,8.7-23.9,17.3-58.4,14.7l0,0c-0.2,0-0.3,0-0.5,0c-0.2,0-0.3,0-0.5,0l0,0
					C976.1,1229.5,954.7,1217.3,955.3,1208.6z"/>
			</g>
		</g>
		<g opacity="0.8">
			<g>
				<path fill="#E6D3ED" d="M996.7,1045.3c0.9,0.1,29.3,2.4,29.3,2.4s28.3,2.3,29.3,2.4c-1-0.1-1.4,17.5-1.4,17.5l-9.7-0.8
					l-19.5-1.6l-19.5-1.6l-9.7-0.8C995.3,1062.8,997.8,1045.4,996.7,1045.3z"/>
			</g>
		</g>
		<g>
			<g>
				<path fill="#000072" d="M1010,1236c-33.6-2.9-59.1-15.1-58.2-27.6l0,0c0.6-8.9,37.8-82.9,46.1-99.3l3.7-45.7
					c0.2-1.9,1.8-3.4,3.8-3.2l39.1,3.2c1.9,0.2,3.4,1.8,3.2,3.8l-3.7,45.7c5.5,17.6,30.3,96.6,29.5,105.4
					c-1.1,12.6-28.3,20.4-61.9,17.9c-0.1,0-0.2,0-0.3,0l-0.5,0l-0.5,0C1010.2,1236,1010.1,1236,1010,1236z M1008.3,1067.3l-3.5,42.9
					c0,0.5-0.2,0.9-0.4,1.3c-17.3,34.3-45.1,91.1-45.7,97.3c-0.4,5.3,17.7,17.2,52.1,20.2c0.1,0,0.1,0,0.2,0l0.3,0l0.3,0
					c0.1,0,0.1,0,0.2,0c34.5,2.6,54.2-6.3,54.7-11.6c0.4-6.2-17.8-66.7-29.4-103.4c-0.1-0.4-0.2-0.9-0.2-1.3l3.5-42.9L1008.3,1067.3
					z M955.3,1208.6L955.3,1208.6L955.3,1208.6z M955.3,1208.6L955.3,1208.6L955.3,1208.6z"/>
			</g>
		</g>
		<g>
			<g>
				<path fill="#000072" d="M992.6,1065c-0.6-0.7-0.9-1.7-0.7-2.7c0.9-6.1,1.7-13.5,1.6-15.7c-0.2-0.5-0.3-1-0.2-1.6
					c0.2-1.9,1.8-3.4,3.8-3.2l58.5,4.7c1.9,0.2,3.4,1.8,3.2,3.8c0,0.6-0.2,1.1-0.5,1.5c-0.4,2.1-0.8,9.6-0.9,15.8
					c0,1-0.4,1.9-1.2,2.5c-0.7,0.6-1.7,1-2.6,0.9l-58.5-4.7C994.1,1066.2,993.2,1065.7,992.6,1065z M1051,1053.2l-50.6-4.1
					c-0.1,2.3-0.5,5.6-1.1,10.5l51.2,4.1C1050.6,1058.8,1050.8,1055.5,1051,1053.2z M996.5,1048.8
					C996.5,1048.8,996.5,1048.8,996.5,1048.8C996.5,1048.8,996.5,1048.8,996.5,1048.8z M1055,1053.5
					C1055,1053.5,1055,1053.5,1055,1053.5C1055,1053.5,1055,1053.5,1055,1053.5z M996.5,1048.8
					C996.5,1048.8,996.5,1048.8,996.5,1048.8C996.5,1048.8,996.5,1048.8,996.5,1048.8z M1055,1053.5
					C1055,1053.5,1055,1053.5,1055,1053.5C1055,1053.5,1055,1053.5,1055,1053.5z M996.5,1048.8
					C996.5,1048.8,996.5,1048.8,996.5,1048.8S996.5,1048.8,996.5,1048.8z M1055,1053.5C1055,1053.5,1055,1053.5,1055,1053.5
					S1055,1053.5,1055,1053.5z"/>
			</g>
		</g>
		<g>
			<g>
				<path fill="#9A9ACC" d="M1054,1205.8l-11.3-34.1l-15.8,0.9c0,0-3.1-0.7-6.2-2.4c-3.1-1.8-13.9-6.4-21.8-6.5
					c-8,0-9.4,2.2-9.4,2.2l-18.8,41.8c0,0,6.7,9.4,39.2,11.7c32.5,2.2,45.4-6.9,45.4-6.9L1054,1205.8z"/>
			</g>
		</g>
		<g>
			<g>
				<path fill="#000072" d="M969.4,1209.7c-1-0.6-1.4-1.9-1-2.9L987,1164c0.3-0.6,0.8-1.1,1.4-1.3c0.8-0.2,18.7-5.7,36.7,7.6l17.5-1
					c1-0.1,2,0.6,2.3,1.5c14.4,39.7,12.9,41.8,12.2,42.9c-1.7,2.5-16.1,6.6-30.3,7.8c-5.3,0.4-11.4,0.6-18.1,0
					C996.5,1220.6,982.6,1217.4,969.4,1209.7z M1041.1,1174.1l-16.6,0.9c-0.6,0-1.1-0.1-1.5-0.5c-14.2-10.8-28.3-8.5-32.2-7.6
					l-17.2,39.8c18.5,10.1,38.1,11.3,51.4,10.3c14.1-1,24.9-4.4,27.9-5.8C1052.4,1206.9,1046.8,1189.8,1041.1,1174.1z
					 M1052.9,1211.9L1052.9,1211.9L1052.9,1211.9z"/>
			</g>
		</g>
		<g>
			<g>
				<path fill="#000072" d="M1004.9,1176.2c8.9,0.7,18.1-0.9,19.9-1.3c1.3-0.2,2.1-1.5,1.8-2.7s-1.5-2.1-2.7-1.8
					c-8.2,1.6-30,3.6-32.6-6c-0.3-1.2-1.6-2-2.8-1.6c-1.2,0.3-2,1.6-1.6,2.8C988.8,1172.9,996.8,1175.6,1004.9,1176.2z"/>
			</g>
		</g>
		<g>
			<g>
				
					<ellipse transform="matrix(0.4558 -0.8901 0.8901 0.4558 -520.5827 1559.8715)" fill="#FFFFFF" cx="1015.4" cy="1205.7" rx="5.6" ry="5.6"/>
			</g>
		</g>
		<g>
			<g>
				<circle fill="#FFFFFF" cx="997.4" cy="1192.3" r="8.4"/>
			</g>
		</g>
		<g>
			<g>
				<circle fill="#FFFFFF" cx="1031.5" cy="1193.6" r="3.4"/>
			</g>
		</g>
		<g opacity="0.3">
			<g opacity="0.3">
				<g>
					<path fill="#000072" d="M1001.5,1101.2l3.8-46.4l19.1,1.5l0.9,0.1l19.1,1.5l-0.9,10.9l-7.2-0.6l-0.7-0.1l-15.2-1.2l-3.2,39.8
						c0,0-36.7,77.1-37.3,84.6c-0.5,7.4,16.5,17.8,44.1,20.2l0,0c0.1,0,0.2,0,0.4,0c0.1,0,0.2,0,0.4,0l0,0c22.5,1.7,38.9-3,44.6-8.8
						c0.6,3.1,1,5.3,0.9,6.3c-0.8,8.7-23.9,17.3-58.4,14.7l0,0c-0.2,0-0.3,0-0.5,0c-0.2,0-0.3,0-0.5,0l0,0
						c-34.5-3-55.9-15.2-55.3-23.9C956.2,1191.1,1001.5,1101.2,1001.5,1101.2z"/>
				</g>
			</g>
		</g>
	</g>
	<g>
		<g>
			<g>
				<circle fill="#FFFFFF" cx="1704.8" cy="990.9" r="12.3"/>
			</g>
		</g>
		<g>
			<g>
				<path fill="#B3D133" d="M1704.8,983c4.4,0,7.9,3.5,7.9,7.9c0,4.4-3.5,7.9-7.9,7.9s-7.9-3.5-7.9-7.9
					C1696.9,986.6,1700.5,983,1704.8,983 M1704.8,974.2c-9.3,0-16.8,7.5-16.8,16.8c0,9.3,7.5,16.8,16.8,16.8
					c9.3,0,16.8-7.5,16.8-16.8C1721.6,981.7,1714.1,974.2,1704.8,974.2L1704.8,974.2z"/>
			</g>
		</g>
	</g>
	<g>
		<g>
			<g>
				<circle fill="#FFFFFF" cx="1662.6" cy="988.2" r="8"/>
			</g>
		</g>
		<g>
			<g>
				<path fill="#B3D133" d="M1662.6,983.1c2.8,0,5.1,2.3,5.1,5.1s-2.3,5.1-5.1,5.1s-5.1-2.3-5.1-5.1S1659.8,983.1,1662.6,983.1
					 M1662.6,977.4c-6,0-10.9,4.9-10.9,10.9s4.9,10.9,10.9,10.9c6,0,10.9-4.9,10.9-10.9S1668.6,977.4,1662.6,977.4L1662.6,977.4z"/>
			</g>
		</g>
	</g>
	<g>
		<g>
			<g>
				<circle fill="#FFFFFF" cx="981.6" cy="1088.2" r="12.3"/>
			</g>
		</g>
		<g>
			<g>
				<path fill="#9A9ACC" d="M981.6,1080.3c4.4,0,7.9,3.5,7.9,7.9c0,4.4-3.5,7.9-7.9,7.9c-4.4,0-7.9-3.5-7.9-7.9
					C973.7,1083.8,977.3,1080.3,981.6,1080.3 M981.6,1071.4c-9.3,0-16.8,7.5-16.8,16.8c0,9.3,7.5,16.8,16.8,16.8
					c9.3,0,16.8-7.5,16.8-16.8C998.4,1078.9,990.9,1071.4,981.6,1071.4L981.6,1071.4z"/>
			</g>
		</g>
	</g>
	<g>
		<g>
			<g>
				<circle fill="#FFFFFF" cx="1009.9" cy="1033.5" r="8"/>
			</g>
		</g>
		<g>
			<g>
				<path fill="#9A9ACC" d="M1009.9,1028.4c2.8,0,5.1,2.3,5.1,5.1c0,2.8-2.3,5.1-5.1,5.1s-5.1-2.3-5.1-5.1
					C1004.8,1030.7,1007.1,1028.4,1009.9,1028.4 M1009.9,1022.7c-6,0-10.9,4.9-10.9,10.9s4.9,10.9,10.9,10.9c6,0,10.9-4.9,10.9-10.9
					S1015.9,1022.7,1009.9,1022.7L1009.9,1022.7z"/>
			</g>
		</g>
	</g>
	<g>
		<path fill="#390075" d="M1112.5,1322.4c-9.1,0-17.9-0.4-22.9-1.7c-2.4-0.6-5.4-1.6-6.9-4.5c-1.6-3.1-3.3-9.7-5-19.6
			c-2.6-15.5-5.1-39.8-4.5-61.6c0.8-27.6,6.5-42.3,17.5-44.9c0.6-0.1,1.3-0.2,1.9-0.1c0.5,0,46.5,4.3,64.9,4.9
			c3.1,0.1,5.6,2.6,5.8,5.7c0,0.5,2.1,46.9,1.6,79.5c-0.4,30.5-2.7,34.5-6,36.7c-3.8,2.7-14.9,4.4-32.9,5.2
			C1121.7,1322.3,1117.1,1322.4,1112.5,1322.4z M1092.6,1309.3c3.7,0.8,13.9,1.6,29.4,1.1c15.3-0.5,25.5-1.9,29.2-2.9
			c0.6-2.4,1.5-9.1,1.8-27.4c0,0,0,0,0,0c0.4-25.7-0.8-60.2-1.4-73.4c-19-1-51.7-3.9-58.8-4.5c-2.7,1.6-7,10-7.7,33.3
			c-0.6,21,2,45,4.3,59.3C1090.8,1302.5,1091.9,1307,1092.6,1309.3z M1150.8,1308.6L1150.8,1308.6L1150.8,1308.6z M1152.3,1307
			L1152.3,1307C1152.3,1307,1152.3,1307,1152.3,1307z"/>
	</g>
	<g>
		<path fill="#390075" d="M1560.5,1335c-3.4,0-7.1,0-11.2-0.1c-9.4-0.2-40.7-1.1-47.9-5c-4.6-2.5-7-8.9-7.5-37.1l0,0
			c-0.6-32.7,2-79.2,2.1-79.6c0.2-3.1,2.7-5.5,5.8-5.6c23.7-0.6,82.7-4.8,83.3-4.9c0.5,0,1,0,1.5,0.1c5.2,0.9,9.6,4,13,9
			c14.6,21.8,6.9,77.9,2.6,97.7c-2.2,10-4.3,16.7-6.5,19.9C1594.1,1331.6,1591.9,1335,1560.5,1335z M1508,1319.7
			c4.3,1.1,17.8,2.7,39,3.2c21.5,0.5,35.1-0.4,39.3-1.4c0.9-2.1,2.4-6.6,4.1-14.5c3.2-15.1,5.3-33.4,5.6-48.9
			c0.3-18.8-2-32.9-6.5-39.7c-1.4-2.1-2.9-3.3-4.6-3.8c-7.2,0.5-52.8,3.7-77.5,4.7c-0.7,13.2-2.2,47.6-1.8,73.3c0,0,0,0,0,0
			C1506.1,1311.1,1507.4,1317.6,1508,1319.7z M1508.4,1320.5L1508.4,1320.5L1508.4,1320.5z"/>
	</g>
</g>
<g>
	<polygon fill="#DEC5FF" points="98.1,23.3 108.9,3.1 168,62.3 181.3,105.4 241.6,150.8 252.5,191.6 276.4,210.9 254.3,252 
		286.5,294.5 275,301.4 298.5,318.7 266.1,302.3 278.7,293.7 245.4,251.7 263.8,213.8 240.8,196.5 229.3,158.6 167.2,113.2 
		155.7,70.6 	"/>
	<polygon fill="#DEC5FF" points="349.7,302.6 314.1,273.8 316.9,237 257.4,237.3 263.7,225.9 322.1,231.9 319.8,269.8 	"/>
	<polygon fill="#DEC5FF" points="359.5,190.5 331.6,158 310.3,165.5 282.4,146.2 239.3,151.4 241.3,164.3 279.9,154.6 306.9,171.8 
		329.3,163.7 	"/>
	<polygon fill="#DEC5FF" points="295.8,68.8 273.5,66 245.1,41.6 202.8,56.2 166.9,26.6 130.1,30.1 144.5,44.5 164,38.7 199.3,63.1 
		244.5,47.3 270.7,69.5 	"/>
	<polygon fill="#DEC5FF" points="257.1,119.2 236.7,91.3 247.4,87.6 229.6,49.6 220.9,52.5 238.7,84.4 226.9,88.3 	"/>
	<polygon fill="#DEC5FF" points="206.6,238.2 176.4,223.5 168.9,191.3 126.1,173.2 128.9,138.2 118.6,131.3 118.6,177.8 
		162.1,196.4 171.3,226 	"/>
	<polygon fill="#DEC5FF" points="184.6,162.7 155.4,137 156.8,151.1 130.1,134.7 110.3,105.1 125.2,35 112.3,29.5 101.6,106.3 
		124.6,141.3 160.6,158.3 160.3,145.4 	"/>
</g>
<g>
	<polygon fill="#DEC5FF" points="589.5,214.3 604.3,204.3 623.1,266.7 616.2,301.1 640.8,354.4 633.3,386.4 642.5,408.4 
		612.2,428.4 618.6,469.3 608.2,469.8 618,490.3 601.8,467.1 613.6,465.9 606.2,424.9 632.8,405.7 623.4,385.4 629.5,355.2 
		603.7,301.2 611.5,267.8 	"/>
	<polygon fill="#DEC5FF" points="659,498.1 645.1,465.3 660.7,441.2 619.8,419.5 628.3,414 666.1,439.6 650.6,464.7 	"/>
	<polygon fill="#DEC5FF" points="706.9,425 699.8,392.5 682.5,389.7 670.5,366.3 639.1,353.9 635.7,363.5 665.7,371 677.8,392.8 
		696.1,395.5 	"/>
	<polygon fill="#DEC5FF" points="708.2,318.2 693.9,308.1 683.4,280.9 649.1,275.3 635.4,241.8 608.9,230.6 613.5,245.8 629,249 
		644.2,278.7 680.9,284.6 690.7,309.4 	"/>
	<polygon fill="#DEC5FF" points="663.1,338.5 659.4,311.9 668.1,313.2 669.8,280.7 662.9,279.5 663.3,307.8 653.8,306.1 	"/>
	<polygon fill="#DEC5FF" points="584.6,401.3 569.4,380.2 576.1,355.4 553.5,327.2 568.3,304.2 563.8,295.7 546.6,327.6 
		569.6,356.3 565,380 	"/>
	<polygon fill="#DEC5FF" points="597.4,341.6 586.9,313.2 582.7,323.4 570.4,302.3 567.7,274.7 603.8,232.2 596.9,223.7 
		561.4,272.3 564.2,304.8 582.6,329.7 587.1,320.7 	"/>
</g>
<g>
	<polygon fill="#DEC5FF" points="1467.5,22.4 1506.6,46.5 1380.6,157.2 1292.7,178.1 1194,292.9 1111,309.5 1069.4,354.8 
		990.1,305.2 900.8,364.1 888.5,340.2 851,385.1 888,322.3 903.6,348.7 991.8,287.4 1065.3,329.1 1102.8,285.3 1180.1,267.2 
		1278.9,148.9 1365.5,131.4 	"/>
	<polygon fill="#DEC5FF" points="876.6,489.5 938.7,421.9 1011.9,432.4 1019,313.4 1041,327.4 1021.6,443.4 946,434 	"/>
	<polygon fill="#DEC5FF" points="1099.5,523.5 1168.1,471.9 1155.9,428.4 1198,375.2 1193.2,288.3 1167.1,290.6 1181.6,368.9 
		1143.7,420.7 1156.9,466.6 	"/>
	<polygon fill="#DEC5FF" points="1351.1,411.9 1359.5,367.7 1412,313.9 1388.2,227.5 1452,159.5 1449.9,85.5 1419.3,112.4 
		1428.2,152.2 1375,219.6 1400.6,312 1353,361.5 	"/>
	<polygon fill="#DEC5FF" points="1255.3,328.1 1313.7,290.8 1319.8,312.6 1397.9,281.8 1393.3,264.2 1327.3,295.6 1321,271.6 	"/>
	<polygon fill="#DEC5FF" points="1023.8,211.5 1057,153.1 1122.4,142.3 1164.1,59 1233.9,69.2 1249,49.4 1155.9,43.4 1113.2,128.1 
		1052.8,142.7 	"/>
	<polygon fill="#DEC5FF" points="1177.5,177.3 1232.8,122.3 1204.4,123.3 1240.6,72 1302.4,36.1 1440.7,75.1 1453.3,49.9 
		1301.2,18.7 1228.1,60.2 1189.5,129.9 1215.5,131 	"/>
</g>
<g>
	<path fill="#FFFFFF" d="M1094.2,835l512.5,14.6c-0.1-3.6-0.7-12.5-6.7-21.2c-7.9-11.5-19.6-14.8-22.7-15.6
		c-151.2-4.3-302.4-8.6-453.5-12.9c-3.3,0.9-12.9,3.8-20.6,13C1095.7,822,1094.4,831.6,1094.2,835z"/>
	<path fill="#C7C7C7" d="M1123.8,799.9c-4.2,1.5-14.6,6-22.3,17.1c-4.8,7-6.6,13.9-7.4,18.1c3.8,0.4,7.7-0.5,11.4-0.1
		c0.4,0,0.8,0.1,1.2,0c0.7-0.2,1.1-0.8,1.6-1.4c1.5-2.1,2.3,0.1,3.5,0.6c0.5,0.2,4.2-1.2,3.5,1.6c3.5,0.3,7,0.7,10.6,1.1
		c2.2,0.2,4.4,0.5,6.5,0.8c-2.7-3.1-3.4-7.5-3.7-11.6C1128.1,818.6,1123.7,807.3,1123.8,799.9z"/>
	<path fill="#C7C7C7" d="M1591.7,836.2c-97.8-2.8-195.5-5.6-293.3-8.3c-1.2,1.2-2.4,2.4-3.6,3.6c101.9,2.9,203.8,5.8,305.7,8.7"/>
	<g>
		<path fill="#390075" d="M1154.2,804.7c-0.6,0.2-1.3,0.4-1.9,0.7c-0.4,0.1-0.7,0.3-1.1,0.4c1.1-0.4-0.3,0.1-0.5,0.2
			c-1.8,0.8-29.8,1-31.6,2c-4.4,2.4-7.9,5.1-11.5,8.7c-3.3,3.3-6,6.9-8.4,11.2c-0.5,0.9-1,1.8-1.4,2.7c-0.2,0.4-0.4,0.8-0.6,1.3
			c0.5-1-0.1,0.3-0.2,0.5c-0.6,1.3-1.1,2.7-1.5,4c-1.3-1.8-2.6-3.6-3.9-5.4c11.9,0.3,71.5,0.7,83.4,1c1.7,0,3.4,0.1,5.1,0.1
			c2.2,0.1,4.3,2.1,4.1,4.3c-0.2,2.3-2,4.2-4.3,4.1c-11.9-0.3-71.5-0.7-83.4-1c-1.7,0-3.4-0.1-5.1-0.1c-2.7-0.1-4.8-2.8-3.9-5.4
			c4.9-14.6,15.5-26.9,29.2-34c3-1.5,32.4-2.2,35.7-3.3c2.1-0.7,4.7,1,5.1,3.1C1157.8,802,1156.5,804,1154.2,804.7L1154.2,804.7z"/>
	</g>
	<g>
		<path fill="#390075" d="M1272.7,835.9c3,0.1,5.9,0.2,8.9,0.3c8.1,0.2,16.2,0.5,24.2,0.7c11.9,0.3,23.9,0.7,35.8,1
			c14.6,0.4,29.2,0.8,43.7,1.2c16,0.5,31.9,0.9,47.9,1.4c16.1,0.5,32.2,0.9,48.4,1.4c15,0.4,30.1,0.9,45.1,1.3
			c12.7,0.4,25.4,0.7,38.1,1.1c9.1,0.3,18.3,0.5,27.4,0.8c4.3,0.1,8.7,0.1,13,0.4c0.2,0,0.4,0,0.6,0c-1.8,1.4-3.6,2.7-5.3,4.1
			c0-0.5-0.1-1-0.1-1.5c0-0.3-0.1-0.5-0.1-0.8c-0.1-1,0.1,0.7-0.1-0.4c-0.3-1.5-0.6-3.1-1.1-4.6c-1.2-4.1-2.9-7.3-5.8-11
			c-2.4-3.1-5.6-6-9.3-8.6c-0.2-0.1-0.4-0.3-0.6-0.4c0.7,0.4,0,0-0.1,0c-0.4-0.2-0.7-0.5-1.1-0.7c-0.8-0.5-1.7-1-2.5-1.4
			c-1.4-0.7-2.8-1.4-4.3-2c-0.6-0.3-1.2-0.5-1.9-0.8c-0.9-0.4,0.5,0.2,0.2,0.1c-0.3-0.1-0.6-0.2-0.9-0.3c-0.2-0.1-0.4-0.1-0.6-0.2
			c-0.1,0-0.2-0.1-0.3-0.1c1.1,0.3,0.2,0.1-0.2,0.1c-1.5,0-3-0.1-4.5-0.1c-6.1-0.2-12.3-0.3-18.4-0.5c-12.4-0.4-24.8-0.7-37.2-1.1
			c-24.6-0.7-49.2-1.4-73.8-2.1c-24.6-0.7-49.2-1.4-73.8-2.1c-24.7-0.7-49.4-1.4-74.1-2.1c-3-0.1-6-0.2-9-0.3
			c-2.7-0.1-5.3-2.1-5.1-4.4c0.2-2.3,2.4-4.1,5.3-4.1c25.2,0.7,50.3,1.4,75.5,2.1c25.2,0.7,50.3,1.4,75.5,2.1
			c25.2,0.7,50.3,1.4,75.5,2.1c12.6,0.4,25.3,0.7,37.9,1.1c6.3,0.2,12.5,0.4,18.8,0.5c3.2,0.1,6.6-0.1,9.7,0.4
			c1.6,0.2,3.1,0.9,4.6,1.5c17.2,6.5,29.6,20.3,31.8,35.4c0.2,1.4,0.4,2.8,0.5,4.2c0.1,2.3-2.7,4.1-5.3,4.1c-3-0.1-5.9-0.2-8.9-0.3
			c-8.1-0.2-16.2-0.5-24.2-0.7c-11.9-0.3-23.9-0.7-35.8-1c-14.6-0.4-29.2-0.8-43.7-1.2c-16-0.5-31.9-0.9-47.9-1.4
			c-16.1-0.5-32.2-0.9-48.4-1.4c-15-0.4-30.1-0.9-45.1-1.3c-12.7-0.4-25.4-0.7-38.1-1.1c-9.1-0.3-18.3-0.5-27.4-0.8
			c-4.3-0.1-8.7-0.2-13-0.4c-0.2,0-0.4,0-0.6,0c-2.7-0.1-5.3-2.1-5.1-4.4C1267.5,837.7,1269.7,835.8,1272.7,835.9L1272.7,835.9z"/>
	</g>
	<circle fill="#FFFFFF" cx="1236.5" cy="749.9" r="109.3"/>
	<path fill="#C7C7C7" d="M1319.6,702.9c-17.2-31.4-49.9-51.1-85.4-51.6c-37.5-0.5-70.7,20.5-87.9,51c-18.6,33-18.2,77.8,8,109.1
		c27,32.3,67.4,33.5,74.4,33.5c45.4,0.5,73.4-29.7,77.5-34.3c-25.7,24-61.7,32.7-94.2,22.6c-28.8-8.9-57.2-33.2-62.9-66.6
		c-8.3-48.3,34-98.5,83.8-103.9C1282.7,657.4,1317.1,699.8,1319.6,702.9z"/>
	
		<ellipse transform="matrix(0.7071 -0.7071 0.7071 0.7071 -167.796 1093.8251)" fill="#DEDEDE" cx="1236.5" cy="749.5" rx="33.1" ry="33.1"/>
	<g>
		<path fill="#390075" d="M1131.4,746.9c-0.1,2.9-0.1,5.8,0.1,8.6c0.1,1.4,0.2,2.8,0.3,4.3c0,0.4,0.1,0.8,0.1,1.2c0,0.2,0.1,0.8,0,0
			c0.1,0.8,0.2,1.5,0.3,2.3c0.7,5.5,1.9,11,3.4,16.3c0.8,2.6,1.6,5.2,2.6,7.8c0,0.1,0.5,1.3,0.1,0.4c0.1,0.3,0.3,0.7,0.4,1
			c0.2,0.6,0.5,1.1,0.7,1.7c0.6,1.3,1.1,2.6,1.7,3.9c2.3,4.9,5,9.6,8,14.1c0.7,1.1,1.5,2.1,2.2,3.2c-0.5-0.7,0.5,0.7,0.7,0.9
			c0.5,0.6,1,1.3,1.5,1.9c1.7,2.1,3.4,4.2,5.2,6.2c1.8,2,3.7,3.9,5.7,5.8c0.9,0.9,1.9,1.8,2.8,2.6c0.5,0.4,0.9,0.8,1.4,1.2
			c0.3,0.2,0.6,0.5,0.8,0.7c0.2,0.2,0.4,0.3,0.6,0.5c-0.3-0.3-0.4-0.3-0.1-0.1c4.2,3.4,8.7,6.5,13.3,9.2c2.3,1.4,4.7,2.7,7.2,3.9
			c0.6,0.3,1.2,0.6,1.8,0.9c0,0,1.1,0.5,0.5,0.2c-0.6-0.3,0.6,0.2,0.5,0.2c1.3,0.6,2.6,1.1,4,1.7c5.2,2.1,10.6,3.7,16,5
			c1.2,0.3,2.5,0.5,3.7,0.8c0.6,0.1,1.3,0.2,1.9,0.3c1.3,0.2-0.9-0.1,0.4,0.1c0.5,0.1,1,0.2,1.5,0.2c2.8,0.4,5.7,0.7,8.5,0.9
			c5.7,0.4,11.5,0.3,17.2-0.2c0.3,0,0.5,0,0.8-0.1c1.3-0.1-0.9,0.1,0.4,0c0.6-0.1,1.3-0.2,1.9-0.2c1.5-0.2,3-0.4,4.5-0.7
			c2.7-0.5,5.5-1.1,8.2-1.8c2.7-0.7,5.3-1.5,7.9-2.3c1.2-0.4,2.4-0.8,3.5-1.3c0.1,0,1.3-0.5,0.4-0.1c0.3-0.1,0.6-0.2,0.9-0.3
			c0.7-0.3,1.5-0.6,2.2-0.9c5-2.1,9.8-4.7,14.4-7.5c1-0.6,2.1-1.3,3.1-2c0.6-0.4,1.1-0.8,1.7-1.1c0.3-0.2,0.5-0.4,0.8-0.5
			c0.1-0.1,1.4-1,0.6-0.4c2.2-1.6,4.3-3.3,6.3-5c4.1-3.5,7.9-7.3,11.5-11.3c0.4-0.5,0.8-0.9,1.2-1.4c0.2-0.3,0.5-0.6,0.7-0.8
			c0.1-0.1,0.5-0.6,0,0c0.9-1.1,1.8-2.3,2.7-3.5c1.6-2.2,3.2-4.4,4.6-6.7c1.5-2.3,2.8-4.6,4.1-7c0.6-1.1,1.2-2.2,1.7-3.3
			c0.3-0.7,0.7-1.3,1-2c0.1-0.2,0.2-0.5,0.3-0.7c-0.4,0.8,0.2-0.6,0.3-0.7c2.2-5.1,4.1-10.3,5.5-15.6c0.7-2.7,1.3-5.4,1.9-8.2
			c0.1-0.6,0.2-1.3,0.3-1.9c-0.2,1,0-0.3,0.1-0.4c0-0.3,0.1-0.5,0.1-0.8c0.2-1.5,0.4-3.1,0.6-4.6c0.6-5.7,0.7-11.5,0.4-17.3
			c-0.1-1.3-0.2-2.6-0.3-3.9c0-0.4-0.1-0.8-0.1-1.2c-0.1-1.3,0.1,0.9,0-0.4c-0.1-0.8-0.2-1.5-0.3-2.3c-0.4-2.8-0.9-5.5-1.4-8.3
			c-1.2-5.4-2.8-10.7-4.7-15.8c-0.4-1.1,0.2,0.5-0.1-0.2c-0.1-0.3-0.2-0.6-0.3-0.9c-0.2-0.6-0.5-1.1-0.7-1.7
			c-0.6-1.4-1.2-2.7-1.8-4.1c-1.2-2.5-2.4-4.9-3.8-7.2c-1.3-2.3-2.8-4.7-4.3-6.9c-0.3-0.5-0.7-1-1-1.5c-0.2-0.3-0.4-0.6-0.6-0.9
			c0,0-0.7-1-0.3-0.5c0.4,0.5-0.4-0.5-0.3-0.5c-0.2-0.3-0.4-0.6-0.7-0.9c-0.4-0.6-0.9-1.2-1.3-1.7c-3.3-4.2-7-8.2-10.9-11.9
			c-0.9-0.9-1.9-1.7-2.9-2.6c-0.5-0.4-1-0.9-1.5-1.3c-0.2-0.2-0.4-0.3-0.6-0.5c-0.2-0.2-0.4-0.3-0.6-0.5c0.4,0.3,0.4,0.3,0,0
			c-2.1-1.7-4.3-3.3-6.5-4.8c-4.5-3.1-9.2-5.8-14-8.2c-0.6-0.3-1.1-0.5-1.7-0.8c-0.1,0-1.2-0.6-0.4-0.2c-0.3-0.1-0.6-0.3-0.9-0.4
			c-1.3-0.6-2.6-1.1-4-1.7c-2.6-1-5.2-1.9-7.8-2.7c-2.7-0.8-5.4-1.5-8.1-2.2c-1.4-0.3-2.7-0.6-4.1-0.9c-0.6-0.1-1.3-0.2-1.9-0.3
			c0.8,0.1,0,0-0.2,0c-0.4-0.1-0.9-0.1-1.3-0.2c-5.7-0.8-11.5-1.2-17.2-1.1c-2.9,0-5.7,0.2-8.6,0.5c-0.4,0-0.8,0.1-1.2,0.1
			c0.8-0.1,0.1,0,0,0c-0.8,0.1-1.5,0.2-2.3,0.3c-1.4,0.2-2.8,0.4-4.2,0.6c-5.5,1-10.8,2.3-16.1,4.1c-1.3,0.4-2.6,0.9-3.9,1.4
			c-0.1,0.1-0.8,0.3,0,0c-0.3,0.1-0.7,0.3-1,0.4c-0.7,0.3-1.4,0.6-2.1,0.9c-2.5,1.1-5,2.2-7.4,3.5c-2.4,1.3-4.8,2.6-7.1,4
			c-1.1,0.7-2.3,1.4-3.4,2.2c-0.5,0.3-1,0.7-1.5,1c-0.3,0.2-0.6,0.4-0.9,0.6c-0.2,0.1-1,0.7-0.3,0.2c-4.4,3.2-8.5,6.7-12.3,10.5
			c-1.9,1.9-3.8,3.9-5.5,5.9c-0.4,0.5-0.9,1-1.3,1.5c-0.2,0.2-0.4,0.5-0.6,0.7c-0.8,0.9,0.5-0.6-0.2,0.3c-0.8,1.1-1.7,2.1-2.5,3.2
			c-3.2,4.3-6.2,8.9-8.7,13.7c-0.6,1.2-1.3,2.4-1.9,3.6c-0.3,0.6-0.5,1.1-0.8,1.7c0,0.1-0.6,1.2-0.2,0.4c-0.2,0.3-0.3,0.7-0.5,1
			c-1.1,2.5-2.1,5.1-3,7.7c-1.8,5.3-3.3,10.7-4.3,16.1c-0.1,0.4-0.1,0.8-0.2,1.1c0,0-0.2,1.2-0.1,0.6c0.1-0.6-0.1,0.6-0.1,0.6
			c-0.1,0.4-0.1,0.8-0.2,1.1c-0.2,1.3-0.3,2.6-0.5,3.9C1131.7,741.2,1131.5,744,1131.4,746.9c-0.1,2.2-2.1,4.3-4.3,4.1
			c-2.3-0.2-4.2-2-4.1-4.3c0.7-23.3,8.6-46.3,22.7-64.9c14-18.4,33.2-32.3,55.1-39.6c22.5-7.5,47.4-7.6,69.9-0.5
			c21.7,6.9,41.2,20.4,55.1,38.4c14.4,18.5,22.8,41,23.9,64.4c1.2,23.5-5.2,47.2-18,66.9c-12.3,19.1-30.4,34.4-51.4,43.1
			c-22.2,9.2-46.8,11.3-70.3,5.8c-22.2-5.2-42.6-17.4-57.9-34.2c-15.4-17-25.6-38.7-28.4-61.6c-0.7-5.9-1.1-11.9-0.9-17.9
			c0.1-2.2,2.1-4.3,4.3-4.1C1129.6,742.8,1131.5,744.6,1131.4,746.9z"/>
	</g>
	<g>
		<path fill="#390075" d="M1207.9,749.1c0,0.8,0,1.6,0,2.4c0,0.4,0,0.8,0.1,1.2c0,0.2,0.1,0.8,0,0c0,0.3,0.1,0.5,0.1,0.8
			c0.2,1.6,0.5,3.1,1,4.6c0.2,0.7,0.4,1.4,0.7,2.1c0.2,0.5,0-0.1-0.1-0.1c0.1,0.2,0.2,0.5,0.3,0.7c0.2,0.4,0.3,0.8,0.5,1.2
			c0.7,1.4,1.4,2.7,2.3,4c0.2,0.3,0.4,0.6,0.6,0.9c-0.4-0.6,0.2,0.3,0.4,0.5c0.5,0.6,1,1.2,1.5,1.8c0.5,0.5,1,1.1,1.5,1.6
			c0.3,0.3,0.5,0.5,0.8,0.7c0.1,0.1,0.3,0.2,0.4,0.4c0.1,0.1,0.6,0.5,0.3,0.2c-0.3-0.2,0.6,0.5,0.7,0.6c0.3,0.2,0.6,0.4,0.9,0.6
			c0.7,0.5,1.3,0.9,2,1.3c0.6,0.4,1.3,0.7,2,1.1c0.2,0.1,1,0.5,0.7,0.3c-0.4-0.2,0.1,0.1,0.2,0.1c0.2,0.1,0.5,0.2,0.7,0.3
			c1.5,0.6,3.1,1.1,4.7,1.5c0.4,0.1,0.7,0.2,1.1,0.2c0.3,0.1,1.1,0.2,0.4,0.1c0.9,0.1,1.8,0.2,2.7,0.3c1.6,0.1,3.3,0.1,4.9,0
			c0.5,0-0.1,0-0.2,0c0.2,0,0.4,0,0.6-0.1c0.4,0,0.8-0.1,1.1-0.2c0.9-0.1,1.7-0.3,2.6-0.5c0.7-0.2,1.5-0.4,2.2-0.6
			c0.4-0.1,0.7-0.2,1.1-0.4c0.5-0.2-0.1,0-0.1,0.1c0.2-0.1,0.5-0.2,0.7-0.3c1.5-0.6,2.9-1.4,4.3-2.2c0.6-0.4,1.2-0.8,1.8-1.2
			c-0.6,0.4,0.1-0.1,0.3-0.2c0.3-0.3,0.7-0.5,1-0.8c1.2-1,2.4-2.1,3.4-3.3c0.1-0.1,0.7-0.9,0.5-0.6c-0.2,0.3,0.4-0.5,0.5-0.6
			c0.5-0.7,1-1.4,1.5-2.1c0.4-0.6,0.8-1.3,1.1-1.9c0.2-0.3,0.3-0.7,0.5-1c0.1-0.2,0.6-1.2,0.3-0.5c0.6-1.5,1.2-3,1.6-4.6
			c0.2-0.7,0.4-1.5,0.5-2.2c0.1-0.3,0.2-1.1,0.1-0.4c0.1-0.4,0.1-0.9,0.2-1.3c0.2-1.7,0.2-3.4,0.1-5.1c0-0.4,0-0.8-0.1-1.2
			c0-0.5,0,0.1,0,0.2c0-0.2,0-0.4-0.1-0.6c-0.1-0.8-0.2-1.6-0.4-2.4c-0.3-1.6-0.8-3.2-1.4-4.7c0.2,0.7-0.1-0.1-0.2-0.4
			c-0.1-0.3-0.3-0.7-0.5-1c-0.3-0.7-0.7-1.4-1.1-2.1c-0.4-0.7-0.8-1.4-1.2-2c-0.2-0.3-0.4-0.6-0.6-0.9c0.4,0.6-0.2-0.3-0.4-0.5
			c-1-1.2-2.1-2.4-3.2-3.5c-0.3-0.3-0.5-0.5-0.8-0.7c-0.1-0.1-0.9-0.7-0.6-0.5s-0.5-0.4-0.6-0.5c-0.3-0.3-0.7-0.5-1-0.8
			c-1.3-0.9-2.7-1.7-4.1-2.4c-0.2-0.1-1-0.5-0.4-0.2c-0.3-0.1-0.7-0.3-1-0.4c-0.8-0.3-1.5-0.6-2.3-0.8c-0.8-0.2-1.6-0.5-2.4-0.6
			c-0.4-0.1-0.7-0.2-1.1-0.2c-0.2,0-0.4-0.1-0.6-0.1c-0.7-0.1,0.6,0.1,0,0c-1.6-0.2-3.2-0.3-4.9-0.3c-0.8,0-1.7,0.1-2.5,0.1
			c-0.5,0,0.1,0,0.2,0c-0.2,0-0.4,0-0.6,0.1c-0.4,0.1-0.9,0.1-1.3,0.2c-1.6,0.3-3.2,0.7-4.8,1.2c-0.4,0.1-0.7,0.2-1.1,0.4
			c0.7-0.2-0.1,0.1-0.4,0.2c-0.7,0.3-1.5,0.7-2.2,1c-0.7,0.3-1.3,0.7-1.9,1.1c-0.4,0.2-0.7,0.5-1.1,0.7c-0.2,0.1-0.3,0.2-0.5,0.3
			c-0.1,0-0.7,0.5-0.3,0.2c0.3-0.2-0.5,0.4-0.6,0.5c-0.3,0.2-0.6,0.5-0.9,0.7c-0.6,0.5-1.2,1-1.8,1.6c-0.5,0.5-1,1-1.5,1.6
			c-0.1,0.1-0.9,1-0.6,0.7c0.3-0.4-0.1,0.1-0.1,0.2c-0.1,0.2-0.3,0.4-0.4,0.6c-0.9,1.2-1.8,2.5-2.5,3.9c-0.2,0.3-0.3,0.7-0.5,1
			c-0.1,0.2-0.6,1.2-0.3,0.5c-0.3,0.7-0.6,1.5-0.9,2.3c-0.5,1.5-0.9,3-1.2,4.6c0,0.3-0.1,0.5-0.1,0.8c0-0.1,0.1-0.7,0-0.2
			c-0.1,0.4-0.1,0.8-0.1,1.2C1208,747.4,1208,748.2,1207.9,749.1c-0.1,2.2-2,4.3-4.3,4.1c-2.3-0.2-4.2-2-4.1-4.3
			c0.5-15.5,10.7-29,25.4-34c14.3-4.9,31.1,0.1,40.4,12.1c9.6,12.3,10.8,29.7,2.2,43c-8.5,13.1-24.4,19.4-39.6,16
			c-14.5-3.3-26.2-16-28.1-30.8c-0.3-2.1-0.4-4.1-0.4-6.2c0-2.2,2.1-4.3,4.3-4.1C1206.1,744.9,1208,746.7,1207.9,749.1z"/>
	</g>
</g>
</svg>
