<?xml version="1.0" encoding="utf-8"?>
<!-- Generator: Adobe Illustrator 28.0.0, SVG Export Plug-In . SVG Version: 6.00 Build 0)  -->
<svg version="1.1" id="a" xmlns="http://www.w3.org/2000/svg" xmlns:xlink="http://www.w3.org/1999/xlink" x="0px" y="0px"
	 viewBox="0 0 1317.2 1229.3" style="enable-background:new 0 0 1317.2 1229.3;" xml:space="preserve">
<style type="text/css">
	.st0{fill-rule:evenodd;clip-rule:evenodd;fill:#B3D133;}
	.st1{fill-rule:evenodd;clip-rule:evenodd;fill:#819314;}
	.st2{fill-rule:evenodd;clip-rule:evenodd;}
	.st3{fill-rule:evenodd;clip-rule:evenodd;fill:#6530AA;}
	.st4{fill-rule:evenodd;clip-rule:evenodd;fill:#390075;}
	.st5{fill:#FFFFFF;}
</style>
<g>
	<ellipse id="ellipse32" class="st0" cx="658.6" cy="642.5" rx="476.8" ry="476.8"/>
	<path class="st1" d="M644.5,167.2c-30,0-59.3,2.8-87.8,8.1c221.4,41.2,389.1,235.4,389.1,468.8s-167.6,427.6-389.1,468.8
		c28.5,5.3,57.8,8.1,87.8,8.1c263.4,0,476.8-213.5,476.8-476.8S907.9,167.2,644.5,167.2z"/>
	<path class="st2" d="M1111.8,457.8c-24.8-58.6-60.3-111.2-105.5-156.4c-45.2-45.2-97.8-80.7-156.4-105.5
		c-60.6-25.7-125-38.7-191.4-38.7s-130.8,13-191.4,38.7c-58.6,24.8-111.2,60.3-156.4,105.5c-45.2,45.2-80.7,97.8-105.5,156.4
		c-25.7,60.6-38.7,125-38.7,191.4s13,130.8,38.7,191.4c24.8,58.6,60.3,111.2,105.5,156.4c45.2,45.2,97.8,80.7,156.4,105.5
		c60.6,25.7,125,38.7,191.4,38.7s130.8-13,191.4-38.7c58.6-24.8,111.2-60.3,156.4-105.5c45.2-45.2,80.7-97.8,105.5-156.4
		c25.7-60.6,38.7-125,38.7-191.4S1137.5,518.4,1111.8,457.8z M1063.4,426.8H931.1c-0.3-0.8-0.5-1.7-0.8-2.5
		c-10.4-32.7-23.2-63.6-37.8-91.8h102.1C1021.6,361.1,1044.6,392.6,1063.4,426.8z M933.8,649.2c0,74.2-10.8,147.9-31.2,213.2
		c-19.9,63.6-49,119.6-84.2,162c-33.4,40.2-71,67-110.5,79.1c4.3-7.3,8.4-15.7,12.3-24.9c16.8-40.1,31-100.4,41.2-174.3
		c10.5-76.7,16.1-164.9,16.1-255.1c0-66.4-3-131.8-8.8-192.3h140.2C925.2,516.8,933.8,582.8,933.8,649.2z M408.5,456.9h140.2
		c-5.8,60.5-8.8,125.9-8.8,192.3c0,90.2,5.6,178.4,16.1,255.1c10.1,74,24.4,134.2,41.2,174.3c3.9,9.2,8,17.6,12.3,24.9
		c-39.6-12.1-77.1-38.9-110.5-79.1c-35.2-42.4-64.3-98.4-84.2-162c-20.4-65.3-31.2-139-31.2-213.2
		C383.4,582.8,392.1,516.8,408.5,456.9z M720.1,219.8c-3.9-9.2-8-17.6-12.3-24.9C747.4,207,785,233.7,818.4,274
		c7.4,8.9,14.5,18.4,21.3,28.4h-94.6C737.7,269.5,729.3,241.6,720.1,219.8z M671.8,195.7l0.4,0.4c6.9,7.8,13.5,19.3,20.1,35.3
		c8.1,19.4,15.5,43.3,22,71H602.9c6.5-27.6,13.9-51.6,22-71c6.7-15.9,13.3-27.5,20.1-35.3l0.4-0.4c3.6-4.1,7.3-8.3,13.2-8.3
		C664.5,187.4,668.3,191.6,671.8,195.7z M747.2,649.2c0,176.9-21,337-54.9,417.8c-6.7,15.9-13.3,27.5-20.1,35.3l-0.4,0.4
		c-3.6,4.1-7.3,8.3-13.2,8.3c-5.9,0-9.6-4.2-13.2-8.3l-0.4-0.4c-6.9-7.8-13.5-19.3-20.1-35.3C591,986.2,570,826.1,570,649.2
		c0-67.7,3.1-133,8.8-192.3h159.6C744.1,516.2,747.2,581.4,747.2,649.2z M582,426.8c3.9-34,8.7-65.7,14.4-94.3h124.5
		c5.6,28.6,10.5,60.3,14.4,94.3H582z M597.1,219.8c-9.2,21.9-17.6,49.8-25,82.6h-94.6c6.8-10,13.9-19.5,21.3-28.4
		c33.4-40.2,71-67,110.5-79.1C605.1,202.2,601,210.5,597.1,219.8z M565.9,332.5c-3.7,19.2-7,39.8-10,61.6
		c-1.5,10.7-2.8,21.6-4.1,32.7H417.6c11.3-34.1,25.2-65.8,41.3-94.3H565.9z M765.4,426.8c-1.3-11.1-2.6-22-4.1-32.7
		c-3-21.8-6.3-42.3-10-61.6h107c16.1,28.5,30,60.2,41.3,94.3H765.4z M963.4,302.4h-88c-10.6-17.2-21.9-33.2-33.9-47.6
		c-15.1-18.2-31.2-34-48-47.3c15.1,4.6,30,10,44.7,16.3C884.2,243.1,926.2,269.5,963.4,302.4z M478.9,223.7
		c14.7-6.2,29.6-11.6,44.7-16.3c-16.8,13.3-32.9,29.1-48,47.3c-12,14.5-23.3,30.4-33.9,47.6h-88
		C391.1,269.5,433.1,243.1,478.9,223.7z M322.6,332.5h102.1c-14.7,28.2-27.4,59-37.8,91.8c-0.3,0.8-0.5,1.7-0.8,2.5H253.9
		C272.6,392.6,295.7,361.1,322.6,332.5z M332.1,975.6c-42.4-42.4-75.7-91.8-99-146.8c-24.1-56.9-36.3-117.4-36.3-179.7
		s12.2-122.7,36.3-179.7c1.8-4.2,3.6-8.4,5.6-12.6h138.8c-15.8,60.5-24.1,126.3-24.1,192.3c0,78.1,11.6,155.8,33.6,224.9
		c21.1,66.4,51.8,125,88.8,169.5c15.1,18.2,31.2,34,48,47.3c-15.1-4.6-30-10-44.7-16.3C424,1051.4,374.6,1018.1,332.1,975.6z
		 M1084.1,828.8c-23.3,55-56.6,104.4-99,146.8c-42.4,42.4-91.8,75.7-146.8,99c-14.7,6.2-29.6,11.6-44.7,16.3
		c16.8-13.3,32.9-29.1,48-47.3c36.9-44.5,67.6-103.1,88.8-169.5c22-69.1,33.6-146.8,33.6-224.9c0-66-8.3-131.8-24.1-192.3h138.8
		c1.9,4.2,3.8,8.4,5.6,12.6c24.1,56.9,36.3,117.4,36.3,179.7S1108.2,771.9,1084.1,828.8z"/>
	<path id="path56" class="st3" d="M78.1,849.8v41.5c0,45.8,37.2,82.9,82.9,82.9h995.2c45.8,0,82.9-37.2,82.9-82.9V642.5
		c0-45.8-37.2-82.9-82.9-82.9H161c-45.8,0-82.9,37.2-82.9,82.9V684"/>
	<path class="st4" d="M163.6,560.5h8.4c-8.6,13.1-13.6,28.7-13.6,45.5v41.5v137.6v41.5c0,45.8,37.2,82.9,82.9,82.9h986.8
		c-14.8,22.5-40.3,65.7-69.3,65.7H163.6c-45.8,0-82.9-37.2-82.9-82.9v-41.5V684.9v-41.5C80.7,597.7,117.9,560.5,163.6,560.5z"/>
	<circle id="circle96" class="st2" cx="1239.1" cy="766.9" r="20.7"/>
	<g>
		<path class="st5" d="M330.4,663.4c0-8.3,2.7-14.8,8.1-19.5c5.4-4.8,11.8-7.1,19.2-7.1c7.4,0,13.8,2.3,19.1,7
			c5.3,4.7,7.9,11.1,7.9,19.4v68.3h51.2v-67.9c0-8.3,2.7-14.8,8.2-19.5c5.5-4.8,11.9-7.1,19.4-7.1c7.4,0,13.8,2.3,19.1,7
			c5.3,4.7,7.9,11.1,7.9,19.4v166.3c0,8.3-2.7,14.8-8.1,19.5c-5.4,4.8-11.8,7.1-19.2,7.1c-7.4,0-13.9-2.4-19.2-7.1
			c-5.4-4.8-8.1-11.3-8.1-19.5v-90.3l-51.2,46.2v44.1c0,8.3-2.7,14.8-8.1,19.5c-5.4,4.8-11.7,7.1-18.9,7.1c-7.4,0-13.9-2.4-19.2-7.1
			c-5.4-4.8-8.1-11.3-8.1-19.5V663.4z"/>
		<path class="st5" d="M628.8,637.4c8.3,0,14.7,2.6,19.4,7.9c4.7,5.3,7,11.6,7,19.1c0,7.2-2.3,13.5-7,18.9
			c-4.7,5.4-11.1,8.1-19.4,8.1h-23.3v137.4c0,8.7-2.7,15.5-8.1,20.3c-5.4,4.9-11.7,7.3-18.9,7.3c-7.4,0-13.9-2.4-19.2-7.3
			c-5.4-4.9-8.1-11.6-8.1-20.3V691.4h-12.1H528c-8.3,0-14.8-2.7-19.5-8.1c-4.8-5.4-7.1-11.7-7.1-18.9c0-7.4,2.4-13.8,7.1-19.1
			c4.8-5.3,11.3-7.9,19.5-7.9H628.8z"/>
		<path class="st5" d="M790.2,637.4c8.3,0,14.7,2.6,19.4,7.9c4.7,5.3,7,11.6,7,19.1c0,7.2-2.3,13.5-7,18.9
			c-4.7,5.4-11.1,8.1-19.4,8.1h-23.3v137.4c0,8.7-2.7,15.5-8.1,20.3c-5.4,4.9-11.7,7.3-18.9,7.3c-7.4,0-13.9-2.4-19.2-7.3
			c-5.4-4.9-8.1-11.6-8.1-20.3V691.4h-12.1h-11.2c-8.3,0-14.8-2.7-19.5-8.1c-4.8-5.4-7.1-11.7-7.1-18.9c0-7.4,2.4-13.8,7.1-19.1
			c4.8-5.3,11.3-7.9,19.5-7.9H790.2z"/>
		<path class="st5" d="M878.6,827.2c0,7.7-2.5,14.2-7.6,19.5c-5.1,5.4-11.3,8.1-18.8,8.1c-7.4,0-13.9-2.7-19.2-8.1
			c-5.4-5.4-8.1-11.9-8.1-19.5V683c0-8.3,2.1-15.9,6.2-23c4.1-7,9.7-12.6,16.8-16.8c7-4.1,14.7-6.2,23-6.2h41.3
			c12.2,0,22.9,4.2,32,12.7l29.8,29.8c4.3,4.1,7.6,9.5,9.8,16.1c2.2,6.6,3.3,13.8,3.3,21.4c0,8.9-1.4,17.5-4.2,25.7
			c-2.8,8.3-6.7,14.8-11.6,19.5l-27,25.7c-8.7,8.7-19.3,13-32,13h-33.5V827.2z M930.7,691.4l-51.5-0.6v56.2h51.5V691.4z"/>
	</g>
	<path class="st2" d="M155.4,986.8c-54,0-98-44-98-98V640c0-54,43.9-98,98-98h995.2c54,0,98,44,98,98v41.5c0,8.3-6.8,15.1-15,15.1
		c-8.3,0-15-6.8-15-15.1V640c0-37.4-30.4-67.9-67.9-67.9H155.4c-37.4,0-67.9,30.4-67.9,67.9v248.8c0,37.4,30.4,67.9,67.9,67.9h995.2
		c37.4,0,67.9-30.4,67.9-67.9v-41.5c0-8.3,6.8-15.1,15-15.1c8.3,0,15,6.8,15,15.1v41.5c0,54-43.9,98-98,98H155.4z"/>
</g>
</svg>
