<?xml version="1.0" encoding="utf-8"?>
<!-- Generator: Adobe Illustrator 28.0.0, SVG Export Plug-In . SVG Version: 6.00 Build 0)  -->
<svg version="1.1" id="a" xmlns="http://www.w3.org/2000/svg" xmlns:xlink="http://www.w3.org/1999/xlink" x="0px" y="0px"
	 viewBox="0 0 1317.2 1229.3" style="enable-background:new 0 0 1317.2 1229.3;" xml:space="preserve">
<style type="text/css">
	.st0{fill:#6530AA;}
	.st1{fill:#390075;}
	.st2{fill:#B3D133;}
	.st3{fill:#819314;}
	.st4{fill:#FFFFFF;}
	.st5{fill:#CECECE;}
	.st6{fill:#685C79;}
</style>
<g>
	<path class="st0" d="M661.9,1041.5c-2.1,0.8-4.4,0.8-6.5,0c-109-42.2-201.2-106.7-274.4-192c-53.2-62-82.5-144.2-82.5-231.3V308.6
		c0-4.2,2.7-7.8,6.5-8.6c69.1-15.4,134.1-45.6,190.6-79.7c100.3-60.5,226-60.5,326.3,0c56.5,34.1,121.5,64.3,190.6,79.7
		c3.8,0.8,6.5,4.4,6.5,8.6v309.5c0,87.2-29.3,169.3-82.5,231.4C863.1,934.7,770.9,999.3,661.9,1041.5z"/>
	<g>
		<path class="st1" d="M1012.3,300c-20.5-4.6-40.6-10.4-60.2-17.3v324.5c0,92.1-29.3,179-82.5,244.6
			C806.5,929.6,729.2,991,639.2,1035c5.3,2.2,10.7,4.4,16.1,6.5c2.1,0.8,4.4,0.8,6.5,0c109-42.2,201.2-106.7,274.4-192
			c53.2-62,82.5-144.2,82.5-231.4V308.6C1018.8,304.4,1016.1,300.8,1012.3,300z"/>
	</g>
	<path class="st2" d="M661.3,969.7c-1.7,0.7-3.6,0.7-5.3,0c-88.4-38.1-163.8-93.1-224.4-163.7c-42.8-49.9-66.4-116.7-66.4-187.9
		V359.4c0-3.9,2.5-7.3,6.2-8.5c52.1-16.7,105.2-41.4,158.6-73.5c38.8-23.4,83.3-35.8,128.7-35.8s89.9,12.4,128.7,35.8
		c53.4,32.2,106.5,56.8,158.6,73.5c3.7,1.2,6.2,4.6,6.2,8.5v258.7c0,71.2-23.6,138-66.5,187.9C825.1,876.6,749.7,931.6,661.3,969.7z
		"/>
	<path class="st3" d="M945.9,350.9c-20-6.4-40.2-14-60.5-22.8v270.1c0,78.7-23.6,152.5-66.5,207.8
		c-49.8,64.2-109.7,116.7-178.6,156.7c5.1,2.4,10.3,4.7,15.5,6.9c1.7,0.7,3.6,0.7,5.3,0c88.4-38.1,163.8-93.1,224.4-163.7
		c42.9-50,66.5-116.7,66.5-187.9V359.4C952.1,355.5,949.6,352.1,945.9,350.9z"/>
	<path class="st4" d="M747.6,735.2H569.7c-12.3,0-22.2-10-22.2-22.2V579.6c0-12.3,10-22.2,22.2-22.2h177.9c12.3,0,22.2,10,22.2,22.2
		V713C769.8,725.3,759.8,735.2,747.6,735.2z"/>
	<path class="st5" d="M747.6,557.4h-66.7c12.3,0,22.2,10,22.2,22.2V713c0,12.3-10,22.2-22.2,22.2h66.7c12.3,0,22.2-10,22.2-22.2
		V579.6C769.8,567.3,759.8,557.4,747.6,557.4z"/>
	
		<ellipse transform="matrix(0.9239 -0.3827 0.3827 0.9239 -394.7859 270.6771)" class="st2" cx="483" cy="1127.7" rx="33.4" ry="33.4"/>
	<circle class="st2" cx="905.4" cy="89.3" r="33.4"/>
	<circle class="st2" cx="139.4" cy="426.2" r="33.4"/>
	<circle class="st2" cx="191.1" cy="555.1" r="33.4"/>
	<circle class="st2" cx="1177.8" cy="572.9" r="33.4"/>
	<circle class="st2" cx="1126.1" cy="701.9" r="33.4"/>
	<circle class="st6" cx="658.6" cy="629.6" r="33.4"/>
	<g>
		<path d="M1177.8,522.9c-21.7,0-40.3,13.9-47.2,33.4h-95.1v-19.5c0-9.2-7.5-16.7-16.7-16.7s-16.7,7.5-16.7,16.7v81.3
			c0,83.2-27.9,161.5-78.5,220.5c-70.7,82.4-159.9,145.1-265,186.3c-94-36.8-175.5-91-242.2-161c-6.4-6.7-16.9-6.9-23.6-0.6
			c-6.7,6.4-6.9,16.9-0.6,23.6c23,24.2,47.7,46.5,74,67v126.7c-19.4,6.9-33.4,25.4-33.4,47.2c0,27.6,22.4,50,50,50s50-22.4,50-50
			c0-21.7-13.9-40.3-33.4-47.2V978.3c45.8,31.5,95.8,57.9,149.7,78.7c3,1.2,6.1,1.7,9.3,1.7c3.1,0,6.3-0.6,9.3-1.7
			C779.5,1013.8,874,947.7,949,860.3c34.7-40.4,59.7-88.9,73.6-141.7h56.4c6.9,19.4,25.4,33.4,47.2,33.4c27.6,0,50-22.4,50-50
			s-22.4-50-50-50c-21.7,0-40.3,13.9-47.2,33.4h-49.1c3.8-21.9,5.7-44.4,5.7-67.1v-28.5h95.1c6.9,19.4,25.4,33.4,47.2,33.4
			c27.6,0,50-22.4,50-50S1205.4,522.9,1177.8,522.9z M483,1144.4c-9.2,0-16.7-7.5-16.7-16.7s7.5-16.7,16.7-16.7s16.7,7.5,16.7,16.7
			S492.2,1144.4,483,1144.4z M1126.1,685.2c9.2,0,16.7,7.5,16.7,16.7s-7.5,16.7-16.7,16.7s-16.7-7.5-16.7-16.7
			S1116.9,685.2,1126.1,685.2z M1177.8,589.6c-9.2,0-16.7-7.5-16.7-16.7s7.5-16.7,16.7-16.7s16.7,7.5,16.7,16.7
			S1187,589.6,1177.8,589.6z"/>
		<path d="M315.1,618.1V314.7c61.2-14.5,124.7-41.4,189-80.2c95.3-57.5,213.7-57.5,309,0c28.6,17.2,57.1,32.1,85.2,44.6
			c0.3,0.1,0.6,0.3,1,0.4c34.8,15.4,69.2,27.2,102.8,35.1v150.7c0,9.2,7.5,16.7,16.7,16.7s16.7-7.5,16.7-16.7V308.6
			c0-11.9-8.2-22.4-19.5-24.9c-30.6-6.8-62-17-93.9-30.5V136.5c19.4-6.9,33.4-25.4,33.4-47.2c0-27.6-22.4-50-50-50s-50,22.4-50,50
			c0,21.7,13.9,40.3,33.4,47.2v101.4c-19.3-9.5-38.8-20.1-58.4-31.9C724.6,142.1,593,142.1,487,206c-63.5,38.3-126,64.4-185.6,77.7
			c-11.3,2.5-19.5,13-19.5,24.9v100.9h-95.1c-6.9-19.4-25.4-33.4-47.2-33.4c-27.6,0-50,22.4-50,50s22.4,50,50,50
			c21.7,0,40.3-13.9,47.2-33.4h95.1v95.6h-43.4c-6.9-19.4-25.4-33.4-47.2-33.4c-27.6,0-50,22.4-50,50s22.4,50,50,50
			c21.7,0,40.3-13.9,47.2-33.4h43.4v46.3c0,79.9,23.1,154.9,66.7,216.8c3.2,4.6,8.4,7.1,13.6,7.1c3.3,0,6.7-1,9.6-3.1
			c7.5-5.3,9.3-15.7,4-23.2C336.1,759.4,315.1,691.1,315.1,618.1z M905.4,72.6c9.2,0,16.7,7.5,16.7,16.7s-7.5,16.7-16.7,16.7
			s-16.7-7.5-16.7-16.7S896.2,72.6,905.4,72.6z M139.4,442.9c-9.2,0-16.7-7.5-16.7-16.7s7.5-16.7,16.7-16.7s16.7,7.5,16.7,16.7
			S148.6,442.9,139.4,442.9z M191.1,571.8c-9.2,0-16.7-7.5-16.7-16.7s7.5-16.7,16.7-16.7s16.7,7.5,16.7,16.7
			S200.3,571.8,191.1,571.8z"/>
		<path d="M475.2,326.5c8.3-4.1,11.6-14.1,7.6-22.3c-4.1-8.3-14.1-11.6-22.3-7.6c-31.6,15.6-63.2,28.6-94.2,38.5
			c-10.6,3.4-17.8,13.2-17.8,24.3v258.7c0,75.2,25,145.8,70.5,198.8C481.2,889.4,558.7,946,649.5,985c2.9,1.3,6.1,1.9,9.3,1.9
			s6.3-0.6,9.3-1.9c90.7-39.1,168.2-95.6,230.4-168.1c45.4-53,70.5-123.6,70.5-198.8V359.4c0-11.1-7.1-20.9-17.8-24.3
			c-50.8-16.3-103-40.5-155.1-71.9c-41.4-25-88.9-38.2-137.3-38.2c-48.4,0-95.9,13.2-137.3,38.2l-3.5,2.1c-7.9,4.7-10.5,15-5.8,22.9
			s14.9,10.5,22.9,5.8c1.2-0.7,2.5-1.5,3.7-2.2c36.2-21.8,77.7-33.4,120.1-33.4c42.3,0,83.9,11.5,120.1,33.4
			c52.5,31.6,105.2,56.3,156.7,73.4v253c0,67.2-22.2,130.1-62.4,177.1c-58,67.5-130.1,120.5-214.4,157.5
			c-84.3-37-156.4-90-214.4-157.5c-40.3-46.9-62.4-109.8-62.4-177v-253C412.6,354.9,443.9,341.9,475.2,326.5z"/>
		<path d="M658.6,429.5c-46,0-83.4,37.4-83.4,83.4v27.8h-5.6c-21.5,0-38.9,17.5-38.9,38.9V713c0,21.5,17.5,38.9,38.9,38.9h177.9
			c21.5,0,38.9-17.5,38.9-38.9V579.6c0-21.5-17.5-38.9-38.9-38.9H742v-27.8C742,466.9,704.6,429.5,658.6,429.5z M608.6,512.9
			c0-27.6,22.4-50,50-50s50,22.4,50,50v27.8h-100V512.9z M753.1,579.6V713c0,3.1-2.5,5.6-5.6,5.6H569.7c-3.1,0-5.6-2.5-5.6-5.6
			V579.6c0-3.1,2.5-5.6,5.6-5.6h177.9C750.6,574,753.1,576.5,753.1,579.6z"/>
		<path d="M658.6,579.6c-27.6,0-50,22.4-50,50c0,21.7,13.9,40.3,33.4,47.2v19.5c0,9.2,7.5,16.7,16.7,16.7s16.7-7.5,16.7-16.7v-19.5
			c19.4-6.9,33.4-25.4,33.4-47.2C708.6,602,686.2,579.6,658.6,579.6z M658.6,646.3c-9.2,0-16.7-7.5-16.7-16.7s7.5-16.7,16.7-16.7
			s16.7,7.5,16.7,16.7S667.8,646.3,658.6,646.3z"/>
	</g>
</g>
</svg>
