<?xml version="1.0" encoding="utf-8"?>
<!-- Generator: Adobe Illustrator 28.0.0, SVG Export Plug-In . SVG Version: 6.00 Build 0)  -->
<svg version="1.1" id="Calque_1" xmlns="http://www.w3.org/2000/svg" xmlns:xlink="http://www.w3.org/1999/xlink" x="0px" y="0px"
	 viewBox="0 0 426 512" style="enable-background:new 0 0 426 512;" xml:space="preserve">
<style type="text/css">
	.st0{fill:#38276B;}
	.st1{fill:#B3CD38;}
</style>
<g>
	<g>
		<path class="st0" d="M307.6,150H219l85.6-134.7c4.2-6.6-0.5-15.3-8.4-15.3H160.6c-3.5,0-6.8,1.8-8.6,4.8L1.4,255.9
			c-4,6.7,0.8,15.1,8.6,15.1h126.7L60.8,498.8c-1.6,4.7,0.6,9.9,5,12.1c4.5,2.2,9.9,0.8,12.7-3.2l237.4-341.9
			C320.5,159.1,315.6,150,307.6,150L307.6,150z M101.8,439l58.3-174.9c2.1-6.4-2.6-13.1-9.5-13.1H27.7L166.3,20H278l-85.6,134.7
			c-4.2,6.6,0.5,15.3,8.4,15.3h87.7L101.8,439z"/>
	</g>
	<g id="XMLID_173_">
		<path class="st1" d="M265,512l34.3-130.6h-82.2L321,230.9h94.8l-57,80.6H426L265,512z"/>
	</g>
</g>
</svg>
