<?xml version="1.0" encoding="utf-8"?>
<!-- Generator: Adobe Illustrator 28.0.0, SVG Export Plug-In . SVG Version: 6.00 Build 0)  -->
<svg version="1.1" id="a" xmlns="http://www.w3.org/2000/svg" xmlns:xlink="http://www.w3.org/1999/xlink" x="0px" y="0px"
	 viewBox="0 0 1061.9 1181" style="enable-background:new 0 0 1061.9 1181;" xml:space="preserve">
<style type="text/css">
	.st0{fill:#390075;}
	.st1{opacity:0.6;}
	.st2{fill:#FFFFFF;}
	.st3{opacity:0.3;}
	.st4{fill:#B3D133;}
	.st5{fill:#3F3679;}
	.st6{fill:none;stroke:#000000;stroke-width:22.3227;stroke-miterlimit:10;}
	.st7{fill:#390075;stroke:#000000;stroke-width:23.9172;stroke-miterlimit:10;}
	.st8{fill:none;stroke:#000000;stroke-width:22.4211;stroke-linecap:square;stroke-miterlimit:10;}
</style>
<g>
	<rect x="474.8" y="970" class="st0" width="112.3" height="123.4"/>
	<path class="st0" d="M416,1093.5h229.9c41.8,0,75.8,33.9,75.8,75.8H340.2C340.2,1127.4,374.2,1093.5,416,1093.5z"/>
	<g class="st1">
		<path class="st2" d="M715,1138.1c-13.6-13.1-32.1-21.1-52.5-21.1H432.6c-20.9,0-39.9,8.5-53.6,22.2c-8.4,8.3-14.7,18.6-18.5,30.1
			h-20.3c0-20.9,8.5-39.8,22.2-53.6c13.7-13.7,32.6-22.2,53.6-22.2h229.9C676.6,1093.5,703.1,1111.8,715,1138.1L715,1138.1z"/>
	</g>
	<path class="st0" d="M1050.1,270.6v625c0,41.1-33.3,74.5-74.5,74.5H86.2c-41.1,0-74.4-33.3-74.4-74.5v-625
		c0-41.1,33.3-74.4,74.4-74.4h889.5C1016.8,196.2,1050.1,229.5,1050.1,270.6z"/>
	<polygon class="st2" points="16.6,844.4 16.6,871.1 16.6,906.2 21.8,923.8 41.7,953.5 70,970 982.8,970 1026.5,946.3 1044.6,917.2 
		1050.2,895.6 1050.2,844.4 	"/>
	<path class="st0" d="M1050.1,270.6v570.1H11.8V270.6c0-41.1,33.3-74.4,74.4-74.4h889.5C1016.8,196.2,1050.1,229.5,1050.1,270.6z"/>
	<g class="st1">
		<path class="st2" d="M1050.1,270.6v28.3c0-41.1-33.3-74.4-74.5-74.4H86.2c-41.1,0-74.4,33.3-74.4,74.4v-28.3
			c0-41.1,33.3-74.4,74.4-74.4h889.5C1016.8,196.2,1050.1,229.5,1050.1,270.6z"/>
	</g>
	<path class="st2" d="M85.2,280.4h891.5c14.6,0,26.5,11.8,26.5,26.5v454.5c0,14.6-11.8,26.5-26.5,26.5H85.2
		c-14.6,0-26.4-11.8-26.4-26.5V306.9C58.8,292.2,70.6,280.4,85.2,280.4z"/>
	<g class="st1">
		<path class="st2" d="M1003.1,757.8v26.1c0,14.6-11.8,26.5-26.5,26.5H85.2c-14.6,0-26.5-11.8-26.5-26.5v-26.1
			c0,14.6,11.8,26.5,26.5,26.5h891.4C991.3,784.2,1003.1,772.4,1003.1,757.8z"/>
	</g>
	<path d="M975.7,981.8H86.2C38.7,981.8,0,943.1,0,895.6v-625c0-47.5,38.7-86.2,86.2-86.2h889.5c47.5,0,86.2,38.7,86.2,86.2v625
		C1061.9,943.1,1023.2,981.8,975.7,981.8L975.7,981.8z M86.2,207.9c-34.6,0-62.7,28.1-62.7,62.7v625c0,34.6,28.1,62.7,62.7,62.7
		h889.5c34.6,0,62.7-28.1,62.7-62.7v-625c0-34.6-28.1-62.7-62.7-62.7L86.2,207.9L86.2,207.9z"/>
	<path d="M976.7,797.6H85.2c-20,0-36.2-16.3-36.2-36.2V306.9c0-20,16.3-36.2,36.2-36.2h891.5c20,0,36.2,16.3,36.2,36.2v454.5
		C1012.9,781.4,996.7,797.6,976.7,797.6z M85.2,290.2c-9.2,0-16.7,7.5-16.7,16.6v454.5c0,9.2,7.5,16.7,16.7,16.7h891.5
		c9.2,0,16.7-7.5,16.7-16.7V306.9c0-9.2-7.5-16.6-16.7-16.6L85.2,290.2L85.2,290.2z"/>
	<path d="M1050.2,857.8H11.8c-5.4,0-9.8-4.4-9.8-9.8s4.4-9.8,9.8-9.8h1038.4c5.4,0,9.8,4.4,9.8,9.8S1055.6,857.8,1050.2,857.8z"/>
	<circle cx="531" cy="905.8" r="31"/>
	<path d="M587.1,1105.2H474.8c-6.5,0-11.8-5.3-11.8-11.8V970c0-6.5,5.3-11.8,11.8-11.8h112.3c6.5,0,11.8,5.3,11.8,11.8v123.4
		C598.9,1100,593.6,1105.2,587.1,1105.2z M486.5,1081.7h88.8v-99.9h-88.8V1081.7z"/>
	<path d="M721.7,1181H340.2c-6.5,0-11.8-5.3-11.8-11.8c0-48.3,39.3-87.5,87.5-87.5h229.9c48.3,0,87.5,39.3,87.5,87.5
		C733.4,1175.7,728.1,1181,721.7,1181L721.7,1181z M353.1,1157.5h355.7c-5.5-29.7-31.6-52.2-62.9-52.2H416
		C384.7,1105.2,358.6,1127.8,353.1,1157.5L353.1,1157.5z"/>
	<g class="st3">
		<rect x="474.8" y="970" width="112.3" height="52.9"/>
	</g>
</g>
<g>
	<g>
		<path class="st4" d="M791.7,181.7l-118-118H266.4v719.5h525.3V181.7z"/>
	</g>
	<g>
		<path class="st5" d="M270.2,310.1h568.4"/>
		<path class="st5" d="M838.6,554.8H270.2"/>
		<line class="st5" x1="298.3" y1="567.7" x2="810.6" y2="567.7"/>
		<line class="st5" x1="810.6" y1="297.2" x2="298.3" y2="297.2"/>
		<path class="st5" d="M380.5,195.3c1.3,1.3,2.9,1.9,4.6,1.9s3.3-0.6,4.6-1.9c2.5-2.5,2.5-6.6,0-9.2L361,157.5l28.6-28.6
			c2.5-2.5,2.5-6.6,0-9.2c-2.5-2.5-6.6-2.5-9.2,0L347.3,153c-1.2,1.2-1.9,2.9-1.9,4.6c0,1.7,0.7,3.4,1.9,4.6L380.5,195.3z"/>
		<path class="st5" d="M472.4,195.3c1.3,1.3,2.9,1.9,4.6,1.9c1.7,0,3.3-0.6,4.6-1.9l33.2-33.2c2.5-2.5,2.5-6.6,0-9.2l-33.2-33.2
			c-2.5-2.5-6.6-2.5-9.2,0c-2.5,2.5-2.5,6.6,0,9.2l28.6,28.6l-28.6,28.6C469.8,188.6,469.8,192.7,472.4,195.3L472.4,195.3z"/>
		<path class="st5" d="M404.4,164h54.5c3.6,0,6.5-2.9,6.5-6.5c0-3.6-2.9-6.5-6.5-6.5h-54.5c-3.6,0-6.5,2.9-6.5,6.5
			C398,161.1,400.8,164,404.4,164z"/>
		<path class="st5" d="M351.9,234.5h347.2c3.6,0,6.5-2.9,6.5-6.5c0-3.6-2.9-6.5-6.5-6.5H351.9c-3.6,0-6.5,2.9-6.5,6.5
			C345.4,231.6,348.3,234.5,351.9,234.5L351.9,234.5z"/>
		<path class="st5" d="M351.9,270.8h347.2c3.6,0,6.5-2.9,6.5-6.5c0-3.6-2.9-6.5-6.5-6.5H351.9c-3.6,0-6.5,2.9-6.5,6.5
			C345.4,267.9,348.3,270.8,351.9,270.8L351.9,270.8z"/>
		<path class="st5" d="M699.1,592.2H351.9c-3.6,0-6.5,2.9-6.5,6.5c0,3.6,2.9,6.5,6.5,6.5h347.2c3.6,0,6.5-2.9,6.5-6.5
			C705.6,595.1,702.7,592.2,699.1,592.2z"/>
		<path class="st5" d="M699.1,628.5H351.9c-3.6,0-6.5,2.9-6.5,6.5s2.9,6.5,6.5,6.5h347.2c3.6,0,6.5-2.9,6.5-6.5
			S702.7,628.5,699.1,628.5z"/>
		<path class="st5" d="M699.1,664.8H351.9c-3.6,0-6.5,2.9-6.5,6.5c0,3.6,2.9,6.5,6.5,6.5h347.2c3.6,0,6.5-2.9,6.5-6.5
			C705.6,667.7,702.7,664.8,699.1,664.8z"/>
		<path class="st5" d="M699.1,701.1H351.9c-3.6,0-6.5,2.9-6.5,6.5c0,3.6,2.9,6.5,6.5,6.5h347.2c3.6,0,6.5-2.9,6.5-6.5
			C705.6,704,702.7,701.1,699.1,701.1z"/>
	</g>
	<polygon class="st6" points="266.4,63.7 673.7,63.7 791.7,181.7 791.7,783.2 266.4,783.2 	"/>
	<path class="st7" d="M813.3,552.3H244.8c-11.9,0-21.6-9.7-21.6-21.6V316.3c0-11.9,9.7-21.6,21.6-21.6h568.4
		c11.9,0,21.6,9.7,21.6,21.6v214.4C834.8,542.6,825.2,552.3,813.3,552.3z"/>
	<g>
		<g>
			<path class="st2" d="M351.4,460.3h32.3c1.4,0,2.6,1.2,2.6,2.6v16.3c0,1.4-1.2,2.6-2.6,2.6h-60.3c-1.4,0-2.6-1.2-2.6-2.6V368.3
				c0-1.4,1.2-2.6,2.6-2.6h22.9c1.4,0,2.6,1.2,2.6,2.6v89.4C348.8,459.2,350,460.3,351.4,460.3L351.4,460.3z"/>
			<path class="st2" d="M484.2,371.6c8.9,5.1,16,12.2,21.1,21.2c5.1,9,7.7,19.2,7.7,30.6c0,11.4-2.6,21.6-7.8,30.7
				c-5.2,9.1-12.3,16.2-21.2,21.3c-8.9,5.1-18.8,7.6-29.6,7.6s-20.7-2.5-29.6-7.6c-8.9-5.1-16-12.2-21.2-21.3
				c-5.2-9.1-7.8-19.3-7.8-30.7c0-11.4,2.6-21.6,7.8-30.6c5.2-9,12.3-16.1,21.2-21.2s18.8-7.6,29.6-7.6
				C465.4,363.9,475.3,366.5,484.2,371.6L484.2,371.6z M432.5,399c-5.4,6-8.1,14.1-8.1,24.4c0,10.2,2.7,18.3,8.1,24.3
				c5.4,6,12.7,9,21.9,9c9.1,0,16.4-3,21.8-9c5.5-6,8.2-14.1,8.2-24.3c0-10.2-2.7-18.3-8.1-24.3c-5.4-6-12.7-9-21.9-9
				C445.2,390.1,437.9,393,432.5,399L432.5,399z"/>
			<path class="st2" d="M619.1,375.3c8.6,6.5,14.2,15.1,16.9,25.7c0.4,1.6-0.9,3.2-2.6,3.2h-24.9c-0.9,0-1.8-0.5-2.2-1.4
				c-2-3.5-4.7-6.4-8.3-8.6c-4-2.5-8.9-3.7-14.6-3.7c-8.9,0-16,3-21.4,8.9c-5.4,6-8,14-8,24.2c0,11.1,2.8,19.5,8.5,25.5
				c5.6,5.9,13.7,8.9,24.1,8.9c6.7,0,12.5-1.8,17.6-5.5c4.1-3,7.2-7,9.3-12c0.7-1.7-0.5-3.7-2.4-3.7h-29.2c-1.4,0-2.6-1.2-2.6-2.6
				v-15c0-1.4,1.2-2.6,2.6-2.6h53.8c1.4,0,2.6,1.2,2.6,2.6V444c0,0.3,0,0.6-0.1,0.9c-2.2,6.6-5.7,12.8-10.4,18.4
				c-4.8,5.8-11,10.5-18.5,14.1c-7.5,3.6-16.1,5.4-25.7,5.4c-11.7,0-21.9-2.5-30.7-7.5c-8.8-5-15.5-12-20.3-20.9
				c-4.8-9-7.1-19.2-7.1-30.7c0-11.5,2.4-21.7,7.1-30.7c4.8-9,11.5-16,20.2-20.9c8.7-5,18.9-7.5,30.5-7.5
				C597.7,364.6,609.7,368.2,619.1,375.3L619.1,375.3z"/>
			<path class="st2" d="M732.7,466.1c-3.1,5.1-7.7,9.3-13.8,12.3c-6.1,3.1-13.4,4.6-22.1,4.6c-13,0-23.8-3.2-32.2-9.5
				c-7.7-5.8-12.2-13.7-13.5-23.7c-0.2-1.5,1.1-2.9,2.6-2.9h24.9c1.2,0,2.2,0.9,2.4,2.1c0.7,3.4,2.1,6.1,4.4,8.2
				c2.7,2.5,6.1,3.8,10.3,3.8c3.6,0,6.5-1,8.5-3c2.1-2,3.1-4.6,3.1-7.9c0-3-1-5.4-2.9-7.4c-1.9-2-4.3-3.6-7.1-4.8
				c-2.8-1.3-6.8-2.8-11.8-4.5c-7.3-2.5-13.3-5-18-7.3c-4.7-2.4-8.6-5.9-12-10.5c-3.3-4.6-5-10.7-5-18.1c0-6.9,1.7-12.9,5.2-17.9
				c3.5-5,8.4-8.9,14.5-11.6c6.2-2.7,13.3-4,21.3-4c12.9,0,23.2,3.1,30.8,9.2c6.9,5.6,11.1,13,12.5,22.3c0.2,1.5-1,2.9-2.6,2.9H707
				c-1.2,0-2.2-0.9-2.5-2.1c-0.7-2.9-2-5.2-3.8-7c-2.2-2.2-5.3-3.4-9.1-3.4c-3.3,0-5.9,0.9-8,2.6c-2,1.8-3,4.3-3,7.7
				c0,2.7,0.9,5.1,2.7,7c1.8,1.9,4.1,3.5,6.8,4.7c2.7,1.2,6.7,2.7,11.8,4.6c7.4,2.5,13.5,5,18.2,7.5c4.7,2.5,8.8,6.1,12.2,10.8
				c3.4,4.7,5.1,10.8,5.1,18.4C737.4,455.3,735.8,460.9,732.7,466.1L732.7,466.1z"/>
		</g>
	</g>
	<path class="st8" d="M788,188.9H665.4c0,0,4-139.9,4-118.5"/>
</g>
</svg>
