<?xml version="1.0" encoding="utf-8"?>
<!-- Generator: Adobe Illustrator 28.0.0, SVG Export Plug-In . SVG Version: 6.00 Build 0)  -->
<svg version="1.1" id="Calque_1" xmlns="http://www.w3.org/2000/svg" xmlns:xlink="http://www.w3.org/1999/xlink" x="0px" y="0px"
	 viewBox="0 0 1265.6 975.5" enable-background="new 0 0 1265.6 975.5" xml:space="preserve">
<g>
	<polygon fill="#C3B2D3" points="373.9,851 373.4,850.7 154.8,725.5 155,724.5 197.4,403.9 424.4,149.1 835.8,92.2 1085.6,308.6 
		1083.7,310.8 834.8,95.3 425.9,151.9 200.2,405.2 158.1,723.9 374.3,847.8 638,771.2 638.8,774.1 	"/>
	<path opacity="0.8" fill="none" stroke="#38276B" stroke-width="3" stroke-miterlimit="10" d="M1019.9,892.6"/>
	<g>
		<polygon fill="#C3B2D3" points="1087.6,317.4 748.5,202.8 748.2,202.6 569.1,18.9 425.4,150.2 423.3,147.9 569.2,14.6 
			750.2,200.1 1086.5,313.7 1224.5,123.8 1227,125.7 		"/>
		<g>
			<path fill="#C3B2D3" d="M585.9,16.8c0,9.3-7.5,16.8-16.8,16.8s-16.8-7.5-16.8-16.8S559.9,0,569.1,0S585.9,7.5,585.9,16.8z"/>
			<path fill="#C3B2D3" d="M1242.5,124.7c0,9.3-7.5,16.8-16.8,16.8c-9.3,0-16.8-7.5-16.8-16.8s7.5-16.8,16.8-16.8
				C1235,108,1242.5,115.5,1242.5,124.7z"/>
			<path fill="#C3B2D3" d="M766.1,201.5c0,9.3-7.5,16.8-16.8,16.8c-9.3,0-16.8-7.5-16.8-16.8s7.5-16.8,16.8-16.8
				C758.6,184.7,766.1,192.2,766.1,201.5z"/>
		</g>
		
			<rect x="124" y="244.5" transform="matrix(0.6629 -0.7487 0.7487 0.6629 -212.4594 208.7292)" fill="#C3B2D3" width="3.1" height="191.6"/>
		<polyline fill="#C3B2D3" points="1018.5,881.8 1023.1,880.6 1241.4,670.5 1085.6,316.2 1088.5,314.9 1245.2,671.3 1244.4,672 
			1025.6,882.5 		"/>
		<polygon fill="#C3B2D3" points="147.2,737.5 10.6,598.7 197.5,398.1 343,452.7 342,455.5 198.4,401.7 14.8,598.7 149.3,735.4 		
			"/>
		<g>
			<polygon fill="#38276B" points="965.2,402.2 964,399.3 1085.7,307.6 1086.9,310.5 			"/>
			<polygon fill="#38276B" points="489.1,371.7 423,149.8 425.7,148.2 491.7,370 			"/>
			<polygon fill="#C3B2D3" points="155.1,726.8 154.5,723.8 330.9,684.6 331.5,687.6 			"/>
			<polygon fill="#C3B2D3" points="965.2,402.2 964,399.3 1085.7,307.6 1086.9,310.5 			"/>
			<polygon fill="#C3B2D3" points="489.1,371.7 423,149.8 425.7,148.2 491.7,370 			"/>
			
				<rect x="826.7" y="634.9" transform="matrix(0.3037 -0.9528 0.9528 0.3037 -208.9699 1363.1907)" fill="#C3B2D3" width="3" height="379.3"/>
		</g>
		<g>
			<circle fill="#E7392E" cx="422.7" cy="148.5" r="74.9"/>
			<g>
				<path fill="#FFFFFF" d="M475.4,127.1c0,0,0-0.1-0.1-0.1c0-0.1-0.1-0.2-0.1-0.2c0-0.1-0.1-0.1-0.1-0.1c0-0.1-0.1-0.1-0.1-0.2
					c0,0-0.1-0.1-0.1-0.1c-0.1,0-0.1-0.1-0.2-0.1c0,0,0,0,0,0c0,0,0,0,0,0l-18.4-11.3c-0.5-0.3-1.1-0.3-1.6,0l-19,10.3c0,0,0,0,0,0
					s0,0,0,0c-0.1,0-0.1,0.1-0.2,0.1c-0.1,0-0.1,0.1-0.2,0.1c-0.1,0.1-0.1,0.1-0.1,0.2c0,0-0.1,0.1-0.1,0.1c0,0.1-0.1,0.2-0.1,0.2
					c0,0,0,0.1-0.1,0.1c0,0.1-0.1,0.3-0.1,0.4l-0.5,20.5l-15.8,8.6l1-40c0-0.1,0-0.3,0-0.4c0,0,0-0.1-0.1-0.1c0-0.1-0.1-0.2-0.1-0.2
					c0-0.1-0.1-0.1-0.1-0.1c0-0.1-0.1-0.1-0.1-0.2c0,0-0.1-0.1-0.1-0.1c-0.1,0-0.1-0.1-0.2-0.1c0,0,0,0,0,0s0,0,0,0l-18.4-11.3
					c-0.5-0.3-1.1-0.3-1.6,0l-19,10.3c0,0,0,0,0,0c0,0,0,0,0,0c-0.1,0-0.1,0.1-0.2,0.1c-0.1,0-0.1,0.1-0.2,0.1
					c-0.1,0.1-0.1,0.1-0.1,0.2c0,0-0.1,0.1-0.1,0.1c0,0.1-0.1,0.2-0.1,0.2c0,0,0,0.1-0.1,0.1c0,0.1-0.1,0.3-0.1,0.4l-1.7,64.1
					c0,0.6,0.3,1.1,0.7,1.4l36.8,22.5c0.1,0,0.2,0.1,0.3,0.1c0,0,0.1,0,0.1,0.1c0.1,0,0.3,0.1,0.4,0.1c0.1,0,0.3,0,0.4,0
					c0,0,0.1,0,0.1,0c0.1,0,0.2-0.1,0.3-0.1l38-20.6c0.5-0.3,0.8-0.8,0.8-1.3l0.5-20.5l18.2-9.8c0.5-0.3,0.8-0.8,0.8-1.3l0.6-21.4
					C475.5,127.4,475.5,127.2,475.4,127.1z M416.5,177.7l-15.3-9.2l16.6-9c0,0,0,0,0,0l18.2-9.9l15.3,9.4l-11.6,6.2L416.5,177.7z
					 M453.4,138.6l-0.5,17.8l-6.4-3.9l-8.9-5.4l0.5-17.8l6.4,3.9L453.4,138.6z M455.5,118l15.3,9.4L455,136l-15.3-9.4L455.5,118z
					 M406.3,162.2l-6.6,3.6l1-39.1l9.2-5l6.6-3.6l-1,39.1L406.3,162.2z M399.6,106l15.3,9.4l-15.8,8.6l-15.3-9.4L399.6,106z
					 M382.2,117.2l6.4,3.9l8.9,5.4l-1.1,41.8c0,0,0,0,0,0c0,0,0,0,0,0c0,0.1,0,0.1,0,0.2c0,0.1,0,0.2,0,0.2c0,0,0,0,0,0
					c0,0.1,0,0.1,0.1,0.2c0,0.1,0,0.1,0.1,0.2c0,0,0,0,0,0c0,0.1,0.1,0.1,0.1,0.2c0,0.1,0.1,0.1,0.1,0.2c0,0,0,0,0,0
					c0,0,0.1,0.1,0.1,0.1c0.1,0,0.1,0.1,0.2,0.1c0,0,0,0,0,0c0,0,0,0,0,0l17.6,10.6l-0.5,17.9l-33.8-20.6L382.2,117.2z M452.3,179.5
					l-34.8,18.8l0.5-17.9l25.8-13.8l9-4.8L452.3,179.5z M471.8,147.9l-15.8,8.6l0.5-17.8l9.2-5l6.6-3.6L471.8,147.9z"/>
			</g>
		</g>
		<g>
			<circle fill="#6FC5C8" cx="1012.4" cy="866.4" r="109.2"/>
			<g>
				<g id="XMLID_00000089569092304586931440000017924488173903486848_">
					
						<ellipse id="XMLID_00000159472206595999349340000013035297308205845399_" opacity="0.2" fill="#1E1F1D" cx="986" cy="870" rx="14.5" ry="3.7"/>
					
						<ellipse id="XMLID_00000177475524971675313780000002450488083126287496_" opacity="0.2" fill="#1E1F1D" cx="956" cy="869.2" rx="14.5" ry="3.7"/>
					
						<ellipse id="XMLID_00000008124423328482188510000009750054749327091353_" opacity="0.2" fill="#1E1F1D" cx="963.1" cy="890.8" rx="14.5" ry="3.7"/>
					
						<ellipse id="XMLID_00000168808328710701206140000016876499062662541232_" opacity="0.2" fill="#1E1F1D" cx="935.6" cy="880.5" rx="14.5" ry="3.7"/>
				</g>
				<g id="XMLID_00000057852175628829229180000006827227487287738547_">
					<polygon id="XMLID_00000107556618671496500990000014858870236567732127_" fill="#1E1F1D" points="970.2,868.1 967.5,868.1 
						967.5,809.9 993.2,823.7 992,826.1 970.2,814.3 					"/>
					<polygon id="XMLID_00000087404205956823866080000005311542506591288494_" fill="#1E1F1D" points="950.1,879.6 947.4,879.3 
						954.7,821.4 993.6,827.3 993.2,829.9 957,824.4 					"/>
					<polygon id="XMLID_00000177463847528403819300000017265124331119812538_" fill="#1E1F1D" points="974.7,887.7 973.4,835.3 
						992.2,829.9 992.9,832.4 976.1,837.3 977.3,887.7 					"/>
					<polygon id="XMLID_00000166641665273971249320000002134429249732151692_" fill="#1E1F1D" points="995.7,865.7 987,839.8 
						999.2,836.8 999.9,839.4 990.4,841.7 998.2,864.9 					"/>
					<path id="XMLID_00000142166819480723500190000018129475842737621651_" fill="#1E1F1D" d="M995.9,865.5c0,0-2.6-4.4-6.4-1.6
						c-3.9,2.8-1.6,6.6-1.6,6.6s1.3,1.2,5.6,1.3c4.3,0.1,5.3,0,6.2-0.9c0.8-0.9-1.8-7.9-1.8-7.9L995.9,865.5z"/>
					<path id="XMLID_00000004526925242237801480000002234384493549278632_" fill="#1E1F1D" d="M946.2,875.1c0,0-4.1-6.1-9.5-2.2
						c-5.4,3.9-2.3,9.2-2.3,9.2s1.8,1.3,7.8,1.3c7.8,0,7.7-2.3,8.2-4c0.9-2.7-1.9-7.7-1.9-7.7L946.2,875.1z"/>
					<path id="XMLID_00000126324275587810969750000010069726460479476399_" fill="#1E1F1D" d="M967.1,865.4c0,0-5.4-7.7-10.8-3.8
						c-5.4,3.9-2.3,9.2-2.3,9.2s1.8,1.3,7.8,1.3c7.8,0,8.2-1.5,8.8-3.2c0.9-2.7-2.5-8.5-2.5-8.5L967.1,865.4z"/>
					<path id="XMLID_00000047760298385990507280000009114598446488769182_" fill="#1E1F1D" d="M974.4,886c0,0-4.9-7.4-10.3-3.5
						c-5.4,3.9-2.3,9.2-2.3,9.2s1.8,1.6,7.8,1.6c7.8,0,7.9-2.5,8-4.2c0.1-8.4-2.7-7.7-2.7-7.7L974.4,886z"/>
				</g>
				<g id="XMLID_00000156571872558952989700000007579304793332821912_">
					<polygon id="XMLID_00000183209260495961541490000002997522532343722631_" fill="#1E1F1D" points="1064.1,868.5 1066.8,868.5 
						1066.8,810.3 1041.1,824.1 1042.3,826.4 1064.1,814.7 					"/>
					<polygon id="XMLID_00000063596743086476618000000000022580687820650375_" fill="#1E1F1D" points="1084.2,880 1086.9,879.6 
						1079.5,821.8 1040.7,827.6 1041.1,830.2 1077.3,824.8 					"/>
					<polygon id="XMLID_00000135653224370112025460000001664055109383572650_" fill="#1E1F1D" points="1059.6,888.1 1060.9,835.7 
						1042.1,830.2 1041.3,832.8 1058.2,837.7 1057,888 					"/>
					<polygon id="XMLID_00000052071121285873811000000015939014032551897780_" fill="#1E1F1D" points="1038.6,866.1 1047.3,840.1 
						1035.1,837.2 1034.4,839.8 1043.9,842 1036.1,865.3 					"/>
					<path id="XMLID_00000141424752408678324700000005868680939281276340_" fill="#1E1F1D" d="M1038.4,865.8c0,0,2.6-4.4,6.4-1.6
						c3.9,2.8,1.6,6.6,1.6,6.6s-1.3,1.2-5.6,1.3s-5.3,0-6.2-0.9c-0.8-0.9,1.8-7.9,1.8-7.9L1038.4,865.8z"/>
					<path id="XMLID_00000074427268092485757360000010129534700924725912_" fill="#1E1F1D" d="M1088.1,875.4c0,0,4.1-6.1,9.5-2.2
						c5.4,3.9,2.3,9.2,2.3,9.2s-1.8,1.3-7.8,1.3c-7.8,0-7.7-2.3-8.2-4c-0.9-2.7,1.9-7.7,1.9-7.7L1088.1,875.4z"/>
					<path id="XMLID_00000147202108565661482320000001596884718730551713_" fill="#1E1F1D" d="M1067.1,865.8c0,0,5.4-7.7,10.8-3.8
						s2.3,9.2,2.3,9.2s-1.8,1.3-7.8,1.3c-7.8,0-8.2-1.5-8.8-3.2c-0.9-2.7,2.5-8.5,2.5-8.5L1067.1,865.8z"/>
					<path id="XMLID_00000103970920484488682060000006210018397935872405_" fill="#1E1F1D" d="M1059.9,886.4c0,0,4.9-7.4,10.3-3.5
						s2.3,9.2,2.3,9.2s-1.8,1.6-7.8,1.6c-7.8,0-7.9-2.5-8-4.2c-0.1-8.4,2.7-7.7,2.7-7.7L1059.9,886.4z"/>
				</g>
				<g id="XMLID_00000145758306597517851430000004769086846557556125_">
					<path id="XMLID_00000094605968697833159280000017135319884483930787_" fill="#3BAAB4" d="M1046.7,820c0,16-12.7,24.4-28.5,24.4
						c-15.7,0-27.7-8.5-27.7-24.4c0-16,11.9-21.5,27.7-21.5C1033.9,798.5,1046.7,804.1,1046.7,820z"/>
					<path id="XMLID_00000090271030813899571990000009793329063117238924_" fill="#1E1F1D" d="M1017.9,845.8
						c-8.3,0-15.4-2.3-20.6-6.5c-5.5-4.6-8.4-11.2-8.4-19.2c0-14.9,10-22.8,29-22.8c19.2,0,29.8,8.1,29.8,22.8
						c0,8-3.1,14.6-8.8,19.2C1033.6,843.5,1026.1,845.8,1017.9,845.8z M1017.9,799.9c-17.5,0-26.3,6.8-26.3,20.2
						c0,14.3,10.1,23.1,26.3,23.1c16.5,0,27.1-9.1,27.1-23.1C1045,803.4,1030.2,799.9,1017.9,799.9z"/>
				</g>
				<g id="XMLID_00000017517345894306950690000002371916750405012397_">
					
						<ellipse id="XMLID_00000124856788971680507150000013825192279530528937_" fill="#FFFFFF" cx="1007.5" cy="803.1" rx="17.7" ry="18.3"/>
					<path id="XMLID_00000141419299173331609770000004832401572431122106_" fill="#1E1F1D" d="M1007.2,822.3
						c-10.3,0-18.7-8.6-18.7-19.3c0-10.6,8.4-19.3,18.7-19.3c10.3,0,18.7,8.6,18.7,19.3C1025.8,813.7,1017.4,822.3,1007.2,822.3z
						 M1007.2,785.7c-9.3,0-16.8,7.8-16.8,17.4c0,9.6,7.5,17.4,16.8,17.4c9.3,0,16.8-7.8,16.8-17.4
						C1024,793.5,1016.4,785.7,1007.2,785.7z"/>
				</g>
				<g id="XMLID_00000106868958955778441540000015558951539701669781_">
					
						<ellipse id="XMLID_00000134251404911803700050000004958471318357738130_" fill="#FFFFFF" cx="1034" cy="806.1" rx="14.6" ry="14.3"/>
					<path id="XMLID_00000087380880715868066850000017471551738938328252_" fill="#1E1F1D" d="M1033.6,821.3
						c-8.6,0-15.6-6.9-15.6-15.3c0-8.4,7-15.3,15.6-15.3s15.6,6.9,15.6,15.3C1049.2,814.5,1042.2,821.3,1033.6,821.3z M1033.6,792.7
						c-7.6,0-13.7,6-13.7,13.4c0,7.4,6.1,13.4,13.7,13.4c7.6,0,13.7-6,13.7-13.4C1047.4,798.7,1041.2,792.7,1033.6,792.7z"/>
				</g>
				<circle id="XMLID_00000016756594530306094280000004972436932343045267_" fill="#1E1F1D" cx="1008.7" cy="804" r="8.2"/>
				<circle id="XMLID_00000001657679651114808040000015180065065048270740_" fill="#FFFFFF" cx="1013" cy="802.8" r="2.3"/>
				
					<ellipse id="XMLID_00000053521972275634197320000012221840976242122889_" fill="#1E1F1D" cx="1035.2" cy="806.9" rx="6.6" ry="6.4"/>
				<circle id="XMLID_00000165233655423635193380000004704422680751630000_" fill="#FFFFFF" cx="1033.9" cy="805.8" r="1.8"/>
				<g id="XMLID_00000147207268946129286280000005959361789778625455_">
					
						<ellipse id="XMLID_00000046334799820738460800000002329894734267949736_" opacity="0.2" fill="#1E1F1D" cx="1048.6" cy="870.5" rx="14.5" ry="3.7"/>
					
						<ellipse id="XMLID_00000024723655927317512740000007875531809007957180_" opacity="0.2" fill="#1E1F1D" cx="1078.5" cy="869.7" rx="14.5" ry="3.7"/>
					
						<ellipse id="XMLID_00000172426198036172033770000006681025134555696295_" opacity="0.2" fill="#1E1F1D" cx="1071.4" cy="891.3" rx="14.5" ry="3.7"/>
					
						<ellipse id="XMLID_00000028292462339220073260000002704733300514801797_" opacity="0.2" fill="#1E1F1D" cx="1098.9" cy="881" rx="14.5" ry="3.7"/>
				</g>
			</g>
			<g>
				<g>
					<path fill="#FFFFFF" d="M1001.1,881.8l4.3,3.5c1.2,1,1.9,1.9,2,3.5v12.4c0,1.6-1.2,2.8-2.8,2.8c-1.6,0-2.9-1.2-2.9-2.8v-2.8
						l-5.7-5.3v8.1c0,1.6-1.3,2.8-2.9,2.8c-1.6,0-2.9-1.2-2.9-2.8v-12.4c0.1-1.6,0.9-2.5,2.1-3.5l4.2-3.5
						C998.2,880.5,999.4,880.5,1001.1,881.8z M1001.7,892.8v-6H996v6H1001.7z"/>
					<path fill="#FFFFFF" d="M1016,898.3v2.8c0,1.6-1.2,2.9-2.8,2.9c-1.6,0-2.9-1.3-2.9-2.9c0-5.1,0-10.2,0-15.2
						c0-2.7,2.2-4.8,4.8-4.8c1.5,0,2.8,0,4.4,0c1.3,0,2.4,0.5,3.4,1.3l3.1,3.1c2.1,2,1.7,6.8-0.3,8.7l-2.9,2.7c-1,1-2.1,1.4-3.4,1.4
						H1016z M1021.5,892.6v-5.9l-5.4-0.1v5.9H1021.5z"/>
					<path fill="#FFFFFF" d="M1029.4,901.5v-10.6c0-1.4,1.2-2.7,2.9-2.7c1.6,0,2.9,1.2,2.9,2.6v10.7c0,1.4-1.3,2.6-2.9,2.6
						C1030.7,904.1,1029.4,902.9,1029.4,901.5z M1035,886.9h-5.6V881h5.6V886.9z"/>
				</g>
				<g>
					<path fill="#FFFFFF" d="M944.6,928.5v2.8c0,1.6-1.2,2.9-2.8,2.9c-1.6,0-2.9-1.3-2.9-2.9c0-5.1,0-10.2,0-15.2
						c0-2.7,2.2-4.8,4.8-4.8c1.5,0,2.8,0,4.4,0c1.3,0,2.4,0.5,3.4,1.3l3.1,3.1c2.1,2,1.7,6.8-0.3,8.7l-2.9,2.7c-1,1-2.1,1.4-3.4,1.4
						H944.6z M950.1,922.7v-5.9l-5.4-0.1v5.9H950.1z"/>
					<path fill="#FFFFFF" d="M957.7,929.2c0-5.1,0-10.2,0-15.3c0-1.5,1.3-2.8,2.9-2.8c1.6,0,2.9,1.3,2.9,2.8v14.5
						c2.9,0,2.1-0.1,4.9-0.1c3.8,0,3.8,5.8,0,5.8c-2.6,0-4.1,0-5.7,0C960,934.1,957.7,931.9,957.7,929.2z"/>
					<path fill="#FFFFFF" d="M983.5,912l4.3,3.5c1.2,1,1.9,1.9,2,3.5v12.4c0,1.6-1.2,2.8-2.8,2.8c-1.6,0-2.9-1.2-2.9-2.8v-2.8
						l-5.7-5.3v8.1c0,1.6-1.3,2.8-2.9,2.8s-2.9-1.2-2.9-2.8V919c0.1-1.6,0.9-2.5,2.1-3.5l4.2-3.5C980.7,910.7,981.9,910.6,983.5,912
						z M984.2,922.9v-6h-5.7v6H984.2z"/>
					<path fill="#FFFFFF" d="M1003.5,911.2c3.7,0,3.7,5.7,0,5.7c-2.9,0,0.4,0-2.5,0c0,4.8,0,9.8,0,14.5c0,3.9-5.7,3.9-5.7,0
						c0-4.8,0-9.7,0-14.5c-2.9,0,0.4,0-2.5,0c-3.7,0-3.7-5.7,0-5.7C996.4,911.2,999.9,911.2,1003.5,911.2z"/>
					<path fill="#FFFFFF" d="M1013.6,916.9c0,1,0,2.8,0,3.8c2.2,0,3,0,5.1,0c1.5,0,2.9,1.3,2.9,2.9c0,1.5-1.3,2.9-2.9,2.9
						c-2.1,0-2.9,0-5.1,0c0,1.9,0,3.1,0,5c0,3.7-5.7,3.7-5.7,0c0-5.1,0-10.3,0-15.4c0-2.7,2.2-4.8,4.8-4.8c3.2,0,4.2,0,7.3,0
						c1.6,0,2.9,1.3,2.9,2.8c0,1.6-1.3,2.9-2.9,2.9H1013.6z"/>
					<path fill="#FFFFFF" d="M1029.5,911.2h6.6c2.6,0,4.8,2.1,4.8,4.8v13.2c0,2.4-2.3,4.8-4.7,4.8h-6.8c-2.4,0-4.8-2.5-4.8-4.8
						v-13.2C1024.5,913.2,1026.9,911.2,1029.5,911.2z M1035.2,916.9h-4.9v11.5h4.9V916.9z"/>
					<path fill="#FFFFFF" d="M1057,924.8c2,1.2,2.8,2.8,2.8,4.9v1.7c0,1.6-1.3,2.9-2.8,2.9c-1.6,0-2.8-1.3-2.8-2.9v-1.6l-5.6-6.8
						c0,3.5,0,4.9,0,8.4c0,1.6-1.2,2.9-2.8,2.9c-1.6,0-2.9-1.3-2.9-2.9c0-5.7,0-11.5,0-17.3c0-1.6,1.3-2.9,2.9-2.9
						c2.1,0,4.3,0,6.4,0c1.3,0,2.5,0.5,3.4,1.4l2.8,2.7c1,1,1.5,2.1,1.5,3.5c0,0.4,0,0.9,0,1.3
						C1059.9,922.3,1058.8,923.9,1057,924.8z M1048.5,916.9v5.5h5.6c0-1.8,0-3.7,0-5.5H1048.5z"/>
					<path fill="#FFFFFF" d="M1071.7,912.1l2.5,2.7l2.5-2.7c1.4-1.4,3.3-1.4,4.6,0l3.3,3.5c1,1.1,1.9,1.9,2,3.5v12.5
						c0,3.7-5.8,3.7-5.8,0c0-4.8,0-9.7,0-14.5h-3.8c0,4.8,0,9.7,0,14.5c0,3.8-5.7,3.8-5.7,0c0-4.8,0-9.7,0-14.5h-3.8
						c0,4.8,0,9.7,0,14.5c0,3.7-5.8,3.7-5.8,0V919c0.1-1.6,1-2.3,2-3.5l3.3-3.5C1068.4,910.6,1070.4,910.6,1071.7,912.1z"/>
				</g>
			</g>
		</g>
		<g>
			<defs>
				<rect id="SVGID_1_" x="82.3" y="651.4" width="161.9" height="161.9"/>
			</defs>
			<clipPath id="SVGID_00000084513035547377072960000003410119760199126666_">
				<use xlink:href="#SVGID_1_"  overflow="visible"/>
			</clipPath>
			<g clip-path="url(#SVGID_00000084513035547377072960000003410119760199126666_)">
				<path fill="#5357A2" d="M82.3,651.4h161.9v161.9H82.3V651.4z"/>
				<path fill="#FFFFFF" d="M113.6,713.2h-4.2V711h10.8v2.2H116v11.4h-2.4V713.2z M127.5,714.4c0.7,0,1.3,0.2,1.9,0.5
					c0.5,0.3,1,0.8,1.3,1.4c0.3,0.6,0.5,1.3,0.5,2.1v6.3h-2.3v-5.9c0-0.7-0.2-1.2-0.6-1.6c-0.4-0.4-0.9-0.6-1.5-0.6
					c-0.4,0-0.8,0.1-1.2,0.3c-0.3,0.2-0.6,0.5-0.8,0.8c-0.2,0.4-0.3,0.8-0.3,1.2v5.8h-2.3V711h2.3v3.1l0,1.8v0.4
					c0.3-0.6,0.7-1.1,1.3-1.4C126.2,714.6,126.8,714.4,127.5,714.4z M142.9,720.2h-7.6c0.1,0.5,0.2,1,0.5,1.4c0.3,0.4,0.6,0.7,1,0.9
					c0.4,0.2,0.8,0.3,1.3,0.3c0.6,0,1.1-0.1,1.4-0.3s0.7-0.4,0.9-0.7h2.3c-0.1,0.5-0.4,1-0.8,1.4c-0.4,0.5-1,0.8-1.6,1.1
					c-0.7,0.3-1.5,0.4-2.3,0.4c-1,0-1.8-0.2-2.6-0.7c-0.8-0.4-1.4-1.1-1.8-1.9c-0.4-0.8-0.7-1.7-0.7-2.7c0-1,0.2-1.9,0.7-2.7
					c0.4-0.8,1-1.4,1.8-1.9c0.8-0.5,1.6-0.7,2.6-0.7c1,0,1.8,0.2,2.6,0.7c0.7,0.4,1.3,1.1,1.7,1.9c0.4,0.8,0.6,1.7,0.6,2.7
					L142.9,720.2z M138,716.3c-0.7,0-1.3,0.2-1.8,0.6c-0.5,0.4-0.8,1-0.9,1.7h5.2c-0.1-0.7-0.4-1.3-0.8-1.7
					C139.3,716.5,138.7,716.3,138,716.3z M149.4,724.6V711h5.7c0.9,0,1.8,0.2,2.5,0.5c0.7,0.3,1.2,0.8,1.6,1.5
					c0.4,0.6,0.6,1.3,0.6,2.2c0,0.8-0.2,1.6-0.6,2.2c-0.4,0.6-0.9,1.1-1.7,1.5c-0.7,0.3-1.5,0.5-2.5,0.5h-3.3v5.3H149.4z M155,717.3
					c0.7,0,1.3-0.2,1.7-0.6c0.4-0.4,0.6-0.9,0.6-1.6c0-0.6-0.2-1.2-0.6-1.5c-0.4-0.4-1-0.6-1.7-0.6h-3.2v4.3H155z M164.3,724.6h-2.4
					V711h2.4v5.6h6.2V711h2.4v13.6h-2.4v-5.8h-6.2L164.3,724.6z M176.4,724.6V711h5.7c0.9,0,1.8,0.2,2.5,0.5
					c0.7,0.3,1.2,0.8,1.6,1.5c0.4,0.6,0.6,1.3,0.6,2.2c0,0.8-0.2,1.6-0.6,2.2c-0.4,0.6-0.9,1.1-1.7,1.5c-0.7,0.3-1.5,0.5-2.5,0.5
					h-3.3v5.3H176.4z M182,717.3c0.7,0,1.3-0.2,1.7-0.6c0.4-0.4,0.6-0.9,0.6-1.6c0-0.6-0.2-1.2-0.6-1.5c-0.4-0.4-1-0.6-1.7-0.6h-3.2
					v4.3H182z M113,747.3h-2.4v-13.6h9.1v2.2H113v3.7h6.3v2.2H113V747.3z M126.3,747.5c-1,0-1.9-0.2-2.7-0.7s-1.4-1.1-1.9-1.9
					c-0.5-0.8-0.7-1.7-0.7-2.7s0.2-1.9,0.7-2.7c0.5-0.8,1.1-1.4,1.9-1.9c0.8-0.4,1.7-0.7,2.7-0.7c1,0,1.9,0.2,2.7,0.7
					c0.8,0.4,1.4,1.1,1.9,1.9s0.7,1.7,0.7,2.7s-0.2,1.9-0.7,2.7c-0.5,0.8-1.1,1.4-1.9,1.9C128.2,747.3,127.3,747.5,126.3,747.5z
					 M126.3,745.4c0.5,0,1-0.1,1.4-0.4c0.4-0.3,0.8-0.6,1-1.1c0.2-0.5,0.4-1,0.4-1.6s-0.1-1.2-0.4-1.6c-0.2-0.5-0.6-0.8-1-1.1
					c-0.4-0.3-0.9-0.4-1.4-0.4c-0.5,0-1,0.1-1.5,0.4c-0.4,0.3-0.8,0.6-1,1.1c-0.2,0.5-0.4,1-0.4,1.6s0.1,1.2,0.4,1.6
					c0.3,0.5,0.6,0.8,1,1.1C125.2,745.3,125.7,745.4,126.3,745.4z M140,737.3h2.3v9.9h-2.3v-1.6c-0.3,0.6-0.7,1-1.3,1.3
					c-0.5,0.3-1.1,0.5-1.8,0.5c-0.7,0-1.3-0.2-1.9-0.5s-1-0.8-1.3-1.4s-0.5-1.3-0.5-2.1v-6.3h2.3v5.9c0,0.7,0.2,1.3,0.5,1.7
					c0.4,0.4,0.9,0.6,1.5,0.6c0.4,0,0.8-0.1,1.2-0.3c0.3-0.2,0.6-0.5,0.8-0.9c0.2-0.4,0.3-0.8,0.3-1.2V737.3z M150.5,737.1
					c0.7,0,1.3,0.2,1.9,0.5c0.6,0.3,1,0.8,1.3,1.4s0.5,1.3,0.5,2.1v6.3h-2.3v-5.9c0-0.7-0.2-1.3-0.6-1.7c-0.4-0.4-0.9-0.6-1.5-0.6
					c-0.4,0-0.8,0.1-1.2,0.3c-0.3,0.2-0.6,0.5-0.8,0.8c-0.2,0.4-0.3,0.8-0.3,1.2v5.7h-2.3v-9.9h2.2v1.6c0.3-0.6,0.7-1,1.3-1.3
					C149.2,737.2,149.8,737.1,150.5,737.1L150.5,737.1z M164,733.7h2.3v13.6H164v-1.5c-0.4,0.5-0.8,1-1.4,1.3
					c-0.6,0.3-1.2,0.4-1.9,0.4c-0.9,0-1.7-0.2-2.4-0.7c-0.7-0.5-1.3-1.1-1.7-1.9c-0.4-0.8-0.6-1.7-0.6-2.7s0.2-1.9,0.6-2.7
					c0.4-0.8,1-1.4,1.7-1.9c0.7-0.5,1.5-0.7,2.4-0.7c0.7,0,1.3,0.1,1.9,0.4c0.6,0.3,1,0.7,1.4,1.3V733.7z M161.2,745.4
					c0.5,0,1-0.1,1.4-0.3c0.4-0.2,0.7-0.5,1-1c0.3-0.4,0.4-0.9,0.5-1.4v-0.8c-0.1-0.5-0.2-1-0.5-1.4c-0.2-0.4-0.6-0.7-1-1
					c-0.4-0.2-0.9-0.3-1.4-0.3c-0.6,0-1,0.1-1.5,0.4c-0.4,0.3-0.8,0.6-1,1.1c-0.2,0.5-0.3,1-0.3,1.6c0,0.6,0.1,1.2,0.3,1.6
					c0.2,0.5,0.6,0.8,1,1.1C160.1,745.3,160.6,745.4,161.2,745.4L161.2,745.4z M173,737.1c0.8,0,1.5,0.1,2.1,0.4
					c0.6,0.3,1.1,0.7,1.4,1.2c0.3,0.5,0.5,1.2,0.5,1.9v6.6h-2.2v-1.4c-0.3,0.5-0.7,0.9-1.3,1.2c-0.5,0.3-1.2,0.4-1.9,0.4
					c-0.6,0-1.2-0.1-1.7-0.4c-0.5-0.2-0.9-0.6-1.2-1c-0.3-0.4-0.4-0.9-0.4-1.5c0-0.5,0.1-1,0.4-1.5c0.3-0.5,0.7-0.8,1.2-1.1
					s1-0.5,1.7-0.5l2.6-0.3c0.2,0,0.4-0.1,0.5-0.2c0.1-0.1,0.2-0.3,0.2-0.6c0-0.5-0.2-0.9-0.5-1.1c-0.3-0.3-0.8-0.4-1.4-0.4
					c-0.4,0-0.7,0.1-1,0.2c-0.3,0.1-0.5,0.3-0.7,0.5s-0.3,0.5-0.3,0.7h-2.3c0.1-0.6,0.3-1.2,0.7-1.7c0.4-0.5,0.9-0.9,1.6-1.1
					C171.5,737.2,172.2,737.1,173,737.1L173,737.1z M172.4,745.8c0.5,0,0.9-0.1,1.3-0.3c0.4-0.2,0.7-0.5,0.9-0.8
					c0.2-0.3,0.3-0.7,0.3-1.2v-0.9l-2.7,0.3c-0.4,0-0.8,0.2-1,0.4c-0.3,0.2-0.4,0.6-0.4,1c0,0.4,0.2,0.8,0.5,1
					C171.5,745.6,171.9,745.8,172.4,745.8z M183.3,747.3c-0.6,0-1.1-0.1-1.5-0.3c-0.4-0.2-0.8-0.6-1-1c-0.2-0.4-0.4-0.9-0.4-1.5
					l0-5.2h-1.7l0-2h1.1c0.2,0,0.4-0.1,0.6-0.2c0.1-0.2,0.2-0.4,0.2-0.6v-1.6h2.1v2.4h2.4l0,2h-2.4v4.9c0,0.3,0.1,0.6,0.3,0.8
					c0.2,0.2,0.5,0.3,0.8,0.3h1.3v2H183.3z M189.4,747.3h-2.3v-9.9h2.3V747.3z M187,735.9v-2.2h2.5v2.2H187z M196.8,747.5
					c-1,0-1.9-0.2-2.7-0.7c-0.8-0.4-1.4-1.1-1.9-1.9c-0.5-0.8-0.7-1.7-0.7-2.7s0.2-1.9,0.7-2.7c0.5-0.8,1.1-1.4,1.9-1.9
					c0.8-0.4,1.7-0.7,2.7-0.7s1.9,0.2,2.7,0.7c0.8,0.4,1.4,1.1,1.9,1.9c0.5,0.8,0.7,1.7,0.7,2.7s-0.2,1.9-0.7,2.7
					c-0.5,0.8-1.1,1.4-1.9,1.9S197.8,747.5,196.8,747.5z M196.8,745.4c0.5,0,1-0.1,1.4-0.4c0.4-0.3,0.8-0.6,1-1.1
					c0.2-0.5,0.4-1,0.4-1.6s-0.1-1.2-0.4-1.6c-0.2-0.5-0.6-0.8-1-1.1c-0.4-0.3-0.9-0.4-1.4-0.4c-0.5,0-1,0.1-1.5,0.4
					c-0.4,0.3-0.8,0.6-1,1.1c-0.2,0.5-0.4,1-0.4,1.6s0.1,1.2,0.4,1.6c0.3,0.5,0.6,0.8,1,1.1C195.8,745.3,196.2,745.4,196.8,745.4z
					 M209.5,737.1c0.7,0,1.3,0.2,1.9,0.5c0.6,0.3,1,0.8,1.3,1.4c0.3,0.6,0.5,1.3,0.5,2.1v6.3h-2.3v-5.9c0-0.7-0.2-1.3-0.6-1.7
					c-0.4-0.4-0.9-0.6-1.5-0.6c-0.4,0-0.8,0.1-1.2,0.3c-0.3,0.2-0.6,0.5-0.8,0.8c-0.2,0.4-0.3,0.8-0.3,1.2v5.7h-2.3v-9.9h2.2v1.6
					c0.3-0.6,0.7-1,1.3-1.3S208.8,737.1,209.5,737.1L209.5,737.1z"/>
			</g>
		</g>
		<g>
			<path fill="#456AB1" d="M179.1,454c-2.9,0-5.6-1.3-7.4-3.6l-27.8-34.6c-1.8-2.3-2.5-5.2-1.8-8.1l9.9-43.1
				c0.6-2.9,2.5-5.2,5.2-6.4l40.2-19.2c1.3-0.6,2.7-1,4.1-1s2.9,0.3,4.1,1l40.2,19.1c2.6,1.3,4.5,3.6,5.2,6.4l9.9,43.1
				c0.6,2.9,0,5.8-1.8,8.1l-27.8,34.6c-1.8,2.2-4.5,3.6-7.4,3.6L179.1,454L179.1,454z"/>
			<path fill="#FFFFFF" d="M241.7,404.7L241.7,404.7L241.7,404.7C241.6,404.7,241.6,404.7,241.7,404.7L241.7,404.7
				c-0.2,0-0.2,0-0.2-0.1c-0.2,0-0.3-0.1-0.5-0.1c-0.6-0.1-1-0.2-1.5-0.2c-0.2,0-0.5,0-0.8-0.1h-0.1c-1.7-0.2-3-0.3-4.3-0.7
				c-0.6-0.2-0.7-0.6-0.9-0.9c0-0.1-0.1-0.1-0.1-0.2l0,0l-1-0.3c0.5-3.7,0.3-7.5-0.6-11.2c-0.9-3.7-2.4-7.2-4.4-10.4l0.8-0.7v-0.2
				c0-0.4,0.1-0.8,0.4-1.2c1-0.9,2.1-1.6,3.6-2.5l0,0c0.2-0.2,0.5-0.2,0.7-0.4c0.5-0.2,0.9-0.5,1.4-0.8c0.1-0.1,0.2-0.2,0.4-0.3
				c0.1-0.1,0.2-0.1,0.2-0.2l0,0c1.1-1,1.4-2.5,0.6-3.6c-0.4-0.6-1.1-0.9-1.8-0.9c-0.6,0-1.2,0.2-1.7,0.6l0,0l0,0
				c-0.1,0.1-0.1,0.1-0.2,0.2c-0.2,0.1-0.2,0.2-0.4,0.3c-0.4,0.4-0.7,0.7-1,1.1c-0.2,0.2-0.3,0.4-0.6,0.6l0,0
				c-1.1,1.2-2.1,2.1-3.2,2.9c-0.2,0.2-0.5,0.2-0.7,0.2c-0.2,0-0.3,0-0.5-0.1H225l0,0l-1,0.6c-1-1.1-2.1-2.1-3.3-3
				c-4.8-3.7-10.6-6-16.6-6.6l-0.1-1c-0.1-0.1-0.1-0.1-0.2-0.2c-0.2-0.2-0.6-0.5-0.6-1c-0.1-1.3,0.1-2.7,0.2-4.3v-0.1
				c0-0.2,0.1-0.6,0.2-0.8c0.1-0.5,0.2-1,0.2-1.5v-0.5v-0.2l0,0l0,0c0-1.4-1.1-2.6-2.5-2.6c-0.6,0-1.3,0.3-1.7,0.8
				c-0.5,0.5-0.7,1.1-0.7,1.8l0,0l0,0v0.2v0.5c0,0.6,0.1,1,0.2,1.5c0.1,0.2,0.1,0.5,0.2,0.8v0.1c0.2,1.6,0.4,3,0.2,4.3
				c-0.1,0.6-0.4,0.8-0.6,1c-0.1,0.1-0.1,0.1-0.2,0.2l0,0l-0.1,1c-1.4,0.2-2.9,0.3-4.3,0.6c-6.1,1.4-11.5,4.4-15.7,8.9l-0.8-0.6
				h-0.2c-0.2,0-0.3,0.1-0.5,0.1c-0.2,0-0.5-0.1-0.7-0.2c-1-0.7-2.1-1.7-3.2-2.9l0,0c-0.2-0.2-0.3-0.4-0.6-0.6
				c-0.3-0.4-0.6-0.7-1-1.1c-0.1-0.1-0.2-0.2-0.4-0.3c-0.1-0.1-0.2-0.1-0.2-0.2l0,0c-0.5-0.4-1.1-0.6-1.7-0.6
				c-0.7,0-1.4,0.3-1.8,0.9c-0.8,1-0.6,2.6,0.6,3.6l0,0l0,0c0.1,0,0.1,0.1,0.2,0.1c0.2,0.1,0.2,0.2,0.4,0.3c0.5,0.3,0.9,0.6,1.4,0.8
				c0.2,0.1,0.5,0.2,0.7,0.4l0,0c1.4,0.9,2.6,1.6,3.6,2.5c0.4,0.4,0.4,0.8,0.4,1.2v0.2l0,0l0.8,0.7c-0.2,0.2-0.3,0.4-0.4,0.6
				c-4,6.3-5.5,13.7-4.4,21l-1,0.3c0,0.1-0.1,0.1-0.1,0.2c-0.2,0.3-0.4,0.6-0.9,0.9c-1.2,0.4-2.6,0.6-4.3,0.7h-0.1
				c-0.2,0-0.6,0-0.8,0.1c-0.5,0-1,0.1-1.5,0.2c-0.2,0-0.3,0.1-0.5,0.1c-0.1,0-0.2,0-0.2,0.1l0,0l0,0c-1.4,0.3-2.3,1.7-2.1,2.9
				c0.2,1.1,1.3,1.8,2.5,1.8c0.2,0,0.4,0,0.6-0.1l0,0l0,0c0.1,0,0.2,0,0.2-0.1c0.2,0,0.3-0.1,0.5-0.1c0.6-0.2,1-0.3,1.4-0.6
				c0.2-0.1,0.5-0.2,0.7-0.3h0.1c1.5-0.6,2.9-1,4.1-1.2h0.2c0.5,0,0.8,0.2,1,0.4c0.1,0,0.1,0.1,0.2,0.1l0,0l1.1-0.2
				c1.9,5.9,5.6,11.1,10.4,14.9c1.1,0.9,2.2,1.6,3.4,2.3l-0.5,1c0,0.1,0.1,0.1,0.1,0.2c0.2,0.3,0.3,0.7,0.2,1.3
				c-0.5,1.2-1.2,2.4-2.1,3.7v0.1c-0.2,0.2-0.3,0.4-0.5,0.6c-0.3,0.4-0.6,0.8-0.9,1.3c-0.1,0.1-0.2,0.2-0.2,0.4
				c0,0.1-0.1,0.2-0.1,0.2l0,0l0,0c-0.6,1.4-0.2,2.9,1,3.4c0.3,0.2,0.6,0.2,1,0.2c1,0,1.9-0.6,2.4-1.5l0,0l0,0
				c0-0.1,0.1-0.2,0.1-0.2c0.1-0.2,0.2-0.3,0.2-0.4c0.2-0.6,0.3-1,0.5-1.4c0.1-0.2,0.2-0.5,0.2-0.7l0,0c0.6-1.6,1-2.9,1.7-4
				c0.3-0.5,0.7-0.6,1-0.7c0.1,0,0.1,0,0.2-0.1l0,0l0.6-1c3.5,1.4,7.3,2.1,11.1,2.1c2.3,0,4.7-0.2,6.9-0.8c1.4-0.3,2.8-0.7,4.1-1.2
				l0.5,0.9c0.1,0,0.1,0,0.2,0.1c0.4,0.1,0.7,0.2,1,0.7c0.6,1.1,1.1,2.5,1.7,4v0.1c0.1,0.2,0.2,0.5,0.2,0.7c0.2,0.5,0.2,1,0.5,1.4
				c0.1,0.2,0.2,0.2,0.2,0.4c0,0.1,0.1,0.2,0.1,0.2l0,0l0,0c0.5,1,1.4,1.5,2.4,1.5c0.3,0,0.6-0.1,1-0.2c0.6-0.3,1-0.8,1.2-1.4
				c0.2-0.6,0.2-1.4-0.2-2l0,0l0,0c0-0.1-0.1-0.1-0.1-0.2c-0.1-0.2-0.2-0.3-0.2-0.4c-0.2-0.5-0.6-0.9-0.9-1.3
				c-0.2-0.2-0.3-0.4-0.5-0.6v-0.1c-0.9-1.4-1.7-2.5-2.1-3.7c-0.2-0.6,0-0.9,0.1-1.3c0-0.1,0.1-0.1,0.1-0.2l0,0l-0.4-1
				c4.2-2.5,7.8-6,10.5-10.2c1.4-2.2,2.5-4.7,3.3-7.2l1,0.2c0.1,0,0.1-0.1,0.2-0.1c0.3-0.2,0.6-0.4,1-0.4h0.2
				c1.3,0.2,2.6,0.6,4.1,1.2h0.1c0.2,0.1,0.5,0.2,0.7,0.3c0.5,0.2,0.9,0.4,1.4,0.6c0.2,0,0.3,0.1,0.5,0.1c0.1,0,0.2,0,0.2,0.1l0,0
				c0.2,0.1,0.4,0.1,0.6,0.1c1.2,0,2.2-0.8,2.5-1.8C244,406.4,243.2,405.1,241.7,404.7L241.7,404.7z M204.9,400.8l-3.5,1.7l-3.5-1.7
				l-0.9-3.7l2.4-3h3.9l2.4,3L204.9,400.8L204.9,400.8z M225.7,392.5c0.6,2.7,0.8,5.4,0.6,8l-12.2-3.5c-1.1-0.3-1.7-1.4-1.5-2.5
				c0.1-0.3,0.2-0.6,0.5-0.9l9.6-8.7C224,387.2,225,389.7,225.7,392.5L225.7,392.5z M218.8,380.2l-10.4,7.4
				c-0.9,0.6-2.1,0.4-2.8-0.5c-0.2-0.2-0.3-0.6-0.4-0.9l-0.7-13C210,373.9,215,376.4,218.8,380.2L218.8,380.2z M195.8,373.7
				c0.9-0.2,1.7-0.3,2.5-0.5l-0.7,12.7c-0.1,1.1-1,2.1-2.1,2.1c-0.3,0-0.7-0.1-1-0.2l-10.6-7.5C187.2,377,191.3,374.7,195.8,373.7
				L195.8,373.7z M180.1,385l9.5,8.4c0.9,0.7,1,2.1,0.2,2.9c-0.2,0.3-0.6,0.6-1,0.6l-12.3,3.6C176.1,395.2,177.3,389.7,180.1,385
				L180.1,385z M178,406.5l12.6-2.1c1-0.1,2,0.6,2.2,1.7c0.1,0.5,0.1,0.9-0.1,1.3l0,0l-4.8,11.7C183.5,416.1,179.9,411.8,178,406.5
				L178,406.5z M207,422.3c-1.8,0.4-3.7,0.6-5.6,0.6c-2.8,0-5.5-0.5-8-1.3l6.3-11.4c0.6-0.7,1.7-1,2.5-0.6c0.4,0.2,0.7,0.6,1,0.9
				l0,0l6.1,11C208.6,421.9,207.8,422.1,207,422.3L207,422.3z M222.5,411.3c-2,3.2-4.6,5.7-7.6,7.7l-5-12c-0.2-1,0.2-2,1.1-2.5
				c0.3-0.2,0.7-0.2,1.1-0.2l12.7,2.1C224.3,408.2,223.5,409.8,222.5,411.3L222.5,411.3z"/>
		</g>
		<circle fill="#C3B2D3" cx="1232.5" cy="672.5" r="33.1"/>
		<circle fill="#C3B2D3" cx="44.3" cy="265.9" r="33.1"/>
	</g>
	<g>
		<g>
			<path fill="#C1C6D1" d="M686.2,401.5c-7,17.2-2.2,32.5-4.5,48.4c-3.4,22.8-15.3,34.1-0.4,48.3c32.6,31.1,70.3-31.3,87.2-43.9
				l22.4-11.7c4.1-31.4-6.8-65-25.9-77C741.9,351.1,698.3,371.4,686.2,401.5"/>
		</g>
		<g>
			<path fill="#8B9BCF" d="M686.2,401.5c-7,17.2-2.2,32.5-4.5,48.4c-3.4,22.8-15.3,34.1-0.4,48.3c32.6,31.1,70.3-31.3,87.2-43.9
				l22.4-11.7c4.1-31.4-6.8-65-25.9-77C741.9,351.1,698.3,371.4,686.2,401.5"/>
		</g>
		<g opacity="0.4">
			<g>
				<g>
					<path fill="#FFFFFF" d="M704.2,377.7c17.8-12.1,41.1-17.9,55.6-8.8c18.8,11.8,28.8,45.8,25.2,76.7l5.9-3.1
						c4.1-31.4-6.8-65-25.9-77C748.8,355.4,722.6,362.4,704.2,377.7"/>
				</g>
			</g>
		</g>
		<g>
			<path fill="#353154" d="M679.5,500.1c-11.6-11-8.6-20.7-4.8-33c1.6-5.1,3.4-10.9,4.4-17.6c0.8-5.7,0.7-11.4,0.6-17.4
				c-0.2-10-0.5-20.4,4.1-31.6l0,0c7-17.3,24.6-32.7,44.8-39.3c14.7-4.8,28.1-4,37.9,2.1c19.8,12.4,31.5,46.6,27.2,79.6
				c-0.1,0.9-0.6,1.6-1.4,2L770,456.5c-3.7,2.8-8.6,8.3-14.3,14.6C741.4,487,722,508.6,702,509.4c-0.4,0-0.7,0-1.1,0
				C693.2,509.4,686,506.3,679.5,500.1z M763.6,367.8c-8.4-5.3-20.3-5.8-33.4-1.5c-18.8,6.1-35.1,20.3-41.5,36.2c0,0,0,0,0,0
				c-4.1,10.2-3.9,19.6-3.7,29.5c0.1,5.9,0.3,12.1-0.6,18.3c-1.1,7.1-2.9,13.1-4.5,18.4c-3.6,11.7-5.8,18.8,3.4,27.6
				c5.8,5.5,11.9,8.1,18.6,7.8c17.7-0.7,36.3-21.4,49.9-36.5c6-6.6,11.1-12.4,15.3-15.5c0.1-0.1,0.2-0.2,0.4-0.2l21.1-11.1
				C792,410.7,781.2,378.8,763.6,367.8z"/>
		</g>
		<g>
			<path fill="#8B9BCF" d="M686.2,401.5c-7,17.2-2.2,32.5-4.5,48.4c-0.6,3.8-1.4,7.3-2.2,10.5c-4.4,16.1-10.6,26,1.9,37.8
				c30.4,29,65.3-23.3,83.5-40.7l-1.6-1.8c0,0,17.4-53.5-4.3-76.7c-15.1-16.1-41.8-7.2-60.2,3.8l0,0l0,0c-0.7,0.8-1.5,1.5-2.2,2.3
				C692.1,390.1,688.6,395.6,686.2,401.5"/>
		</g>
		<g>
			<path fill="#6980B8" d="M679.5,460.3c-4.4,16.1-10.6,26,1.9,37.8c30.4,29,65.3-23.3,83.5-40.7l-1.6-1.8c0,0,17.4-53.5-4.3-76.7
				c-15.1-16.1-41.8-7.2-60.2,3.8l0,0l0,0c-0.7,0.8-1.5,1.5-2.2,2.3c5-0.9,44.5-3.3,52.2,18.9c7,20.1-9.9,36.4-29.3,55.2
				c-7.2,6.9-13.6,22.6-24.3,25C688.8,485.7,676.3,480.5,679.5,460.3"/>
		</g>
		<g>
			<path fill="#353154" d="M679.5,500.1c-11.6-11-8.6-20.7-4.8-33c1.6-5.1,3.4-10.9,4.4-17.6c0.8-5.7,0.7-11.4,0.6-17.4
				c-0.2-10-0.5-20.4,4.1-31.6l0,0c2.8-6.9,7.2-13.5,13.1-19.5c0.2-0.2,0.4-0.4,0.6-0.5c10.1-6.1,44.2-24,63.5-3.3
				c20.7,22.2,8.1,68.9,5.4,77.9l0.6,0.7c0.9,1.1,0.9,2.7-0.2,3.7c-3.2,3-7,7.3-11.1,11.8C741.4,487,722,508.6,702,509.4
				c-0.4,0-0.7,0-1.1,0C693.2,509.4,686,506.3,679.5,500.1z M760.8,454.8c0.2-0.5,16.6-52.2-3.8-74c-16.5-17.6-47.1-1.5-56.6,4.1
				c-5.3,5.5-9.2,11.4-11.7,17.5c0,0,0,0,0,0c-4.1,10.2-3.9,19.6-3.7,29.5c0.1,5.9,0.3,12.1-0.6,18.3c-1.1,7.1-2.9,13.1-4.5,18.4
				c-3.6,11.7-5.8,18.8,3.4,27.6c5.8,5.5,11.9,8.1,18.6,7.8c17.7-0.7,36.3-21.4,49.9-36.5c3.4-3.8,6.6-7.4,9.5-10.3
				C760.6,456.6,760.5,455.6,760.8,454.8z"/>
		</g>
		<g>
			<g>
				<path fill="#38276B" d="M290.7,570.5c0,0,4.7-32.8-16.7-30.3c-21.4,2.4-28.2-6.6-28.2-6.6s-1,39.2,18.4,45.7
					c13.8,4.6,22.3-5.9,22.3-5.9"/>
				<g opacity="0.35">
					<path fill="#FFFFFF" d="M245.8,537.2c3.2,4.4,11.2,11.9,26.7,10.1c15.3-1.8,17.3,14.5,17.2,23.9l1-0.7c0,0,4.7-32.8-16.7-30.3
						c-21.4,2.4-28.2-6.6-28.2-6.6S245.8,534.9,245.8,537.2L245.8,537.2z"/>
				</g>
				<g opacity="0.15">
					<path fill="#38276B" d="M264.2,579.2c13.8,4.6,22.3-5.9,22.3-5.9l4.2-2.7c0,0,0.9-6.6,0.1-13.6c-2.7,3.6-7.7,8-16.1,8.2
						c-13.5,0.4-23.6-15.7-28.8-26.7C246.3,549.1,249,574.2,264.2,579.2L264.2,579.2z"/>
				</g>
				<path fill="#38276B" d="M271.1,583.9c-2.5,0-5.2-0.4-8.1-1.4c-21.6-7.2-20.8-47.3-20.7-49c0-1.5,1-2.8,2.4-3.2
					c1.4-0.4,2.9,0,3.8,1.2c0.1,0.1,6.2,7.4,25,5.3c5.9-0.7,10.8,0.9,14.4,4.6c9,9.2,6.3,28.8,6.2,29.7c-0.3,1.9-2,3.2-3.9,2.9
					c-0.1,0-0.2,0-0.3-0.1c-0.1,0.6-0.3,1.1-0.7,1.5C288.9,575.9,282.2,583.9,271.1,583.9L271.1,583.9z M286.5,569.8
					c0.3,0,0.5,0,0.8,0.1c0.7-4.9,1.1-18.1-4.3-23.7c-2.1-2.1-4.9-3-8.6-2.5c-12.1,1.4-20.1-0.8-24.9-3.2
					c0.8,12.4,4.4,31.7,15.8,35.5c11.3,3.7,18.3-4.5,18.6-4.8C284.5,570.2,285.5,569.8,286.5,569.8L286.5,569.8z"/>
				<path fill="#B3CD38" d="M351.9,590.2c0,0-27.5,3.6-43.7-15.3c-17.7-20.7-29.8-19.8-30.7-14c-0.9,5.8,9,8.9,17.6,26
					c8.2,16.1,19.1,30.1,44.3,26.8"/>
				<g opacity="0.15">
					<path fill="#38276B" d="M295,586.9c8.2,16.1,19.1,30.1,44.3,26.8l12.6-23.5c0,0-1.9,0.2-5,0.3l-1.3,4.4
						c-24,8.4-37.5-3-48.8-17.1c-8-10-15.3-13.7-19.3-16.9C276.5,566.7,286.4,569.8,295,586.9L295,586.9z"/>
				</g>
				<path fill="#38276B" d="M332.3,617.6c2.4,0,4.8-0.2,7.5-0.5c1.9-0.2,3.2-2,3-3.9c-0.2-1.9-2-3.2-3.9-3
					c-21.8,2.8-32.1-7.9-40.7-24.9c-4.7-9.3-10-14.8-13.4-18.5c-2.3-2.4-4.1-4.3-3.9-5.4c0-0.1,0.1-0.3,0.7-0.5
					c2.8-0.8,11.5,1.6,24,16.2c17.2,20.1,45.6,16.6,46.8,16.5c1.9-0.2,3.2-2,3-3.9c-0.2-1.9-2-3.2-3.9-3l0,0
					c-0.3,0-25.9,3.1-40.7-14.1c-11.7-13.7-23.4-20.6-31.1-18.4c-3.1,0.9-5.2,3.1-5.7,6.1c-0.7,4.5,2.1,7.5,5.7,11.3
					c3.4,3.6,8,8.4,12.3,16.8C299.4,603.1,310,617.6,332.3,617.6L332.3,617.6z"/>
				<path fill="#B3CD38" d="M427.8,731c9.8,12.7,42.5,20.5,48.8,11.4c2.4-3.5,3-8.5,4.6-13.9c3.3-11.1,10-26.5,18.1-42.2
					c8.2-15.9,17.8-32.1,26.4-44.3l-88.9,6.8l-11.2,0.9C425.6,649.7,411.5,709.8,427.8,731L427.8,731z"/>
				<g opacity="0.15">
					<path fill="#38276B" d="M442.2,692.8c9.6,6.8,37.6-0.3,57.1-6.5c8.2-15.9,17.8-32.1,26.4-44.3l-88.9,6.8
						C434.5,666,433.8,686.8,442.2,692.8L442.2,692.8z"/>
				</g>
				<g>
					<path fill="#FFFFFF" d="M459.8,746c7.7,0.9,14.3,0,16.8-3.7c0.8-1.2,1.5-2.6,2-4.2c1.2-5.6-1.3-10.5-5.5-11.3
						C463.2,724.9,460.6,738.7,459.8,746L459.8,746z"/>
					<path fill="#38276B" d="M465,749.8c-1.8,0-3.6-0.1-5.6-0.4L456,749l0.4-3.4c1.1-10.3,3.8-17,8.3-20.3c2.6-1.9,5.8-2.6,9.1-1.9
						c2.7,0.5,5,2.1,6.5,4.5c2,3,2.6,7,1.7,11l-0.1,0.4c-0.7,2.1-1.5,3.7-2.4,5C477,747.9,472,749.8,465,749.8L465,749.8z
						 M475.3,737.2c0.4-2.1,0.1-4.1-0.8-5.5c-0.4-0.6-1-1.3-2-1.5c-1.5-0.3-2.7-0.1-3.7,0.7c-1.4,1-3.7,3.9-5,11.9
						c5.9,0.2,9.1-1.1,10-2.5C474.4,739.6,474.8,738.6,475.3,737.2L475.3,737.2z"/>
				</g>
				<path fill="#38276B" d="M465.1,749.8c0.3,0,0.6,0,0.9,0c6.5-0.2,11.2-2.1,13.5-5.5c2.1-3,2.9-6.6,3.9-10.4
					c0.4-1.5,0.7-3,1.2-4.5c6.4-21.7,27-61.6,44-85.4c1.1-1.6,0.7-3.7-0.8-4.8c-1.6-1.1-3.7-0.7-4.8,0.8
					c-17.7,24.8-38.3,64.8-45,87.5c-0.5,1.7-0.9,3.3-1.3,4.8c-0.8,3.3-1.5,6.2-2.9,8.1c-1,1.5-4,2.4-8,2.5
					c-11.1,0.3-28.9-5.8-35.2-14c-15.1-19.7-1.7-77.8-1.6-78.4c0.4-1.9-0.7-3.7-2.6-4.2c-1.9-0.4-3.7,0.7-4.2,2.6
					c-0.6,2.5-14.3,62,2.8,84.2C432.7,743.1,452,749.8,465.1,749.8L465.1,749.8z"/>
				<path fill="#38276B" d="M465,749.8c7,0,12-1.9,14.5-5.5c0.9-1.4,1.7-3,2.4-5c0.6-1.8-0.4-3.8-2.2-4.4c-1.8-0.6-3.8,0.4-4.4,2.2
					c-0.5,1.4-1,2.5-1.5,3.3c-1.1,1.6-5.4,3.2-13.6,2.2c-1.9-0.2-3.6,1.1-3.9,3c-0.2,1.9,1.1,3.6,3,3.9
					C461.4,749.7,463.3,749.8,465,749.8L465,749.8z"/>
				<path fill="#B3CD38" d="M345.1,680.9c6.3,19.4-2,40,3.8,50.2c4.6,8.2,42.8,12.5,52.7,3.8c2.9-2.6,6.4-23.9,5.8-45.5
					c-0.2-8.3-1.1-16.7-2.8-24.1c-0.4-1.6-0.8-3.2-1.2-4.7l-46.2-131.9c-15.3,3.6-33.9,18.6-38.4,44
					C308.8,627.6,335.2,650.3,345.1,680.9L345.1,680.9z"/>
				<g opacity="0.15">
					<path fill="#38276B" d="M345.1,680.9c6.3,19.4-2,40,3.8,50.2c4.6,8.2,42.8,12.5,52.7,3.8c0.7-0.6,1.5-2.4,2.2-4.9
						c-13.4,5.6-44.8,1.4-48.9-6c-5.8-10.2,4-23.6-7.5-49.6c-3.2-7.2-8.7-14.3-15-21.6C337.1,662.2,341.9,671.1,345.1,680.9
						L345.1,680.9z"/>
				</g>
				<g opacity="0.15">
					<path fill="#38276B" d="M342.6,649.4c17.7,31.6,53.3,38.6,64.8,40c-0.2-8.3-1.1-16.7-2.8-24.1L342.6,649.4L342.6,649.4z"/>
				</g>
				<path fill="#38276B" d="M363.8,740.2L363.8,740.2c1.9,0,3.5-1.2,3.5-2.7c0-3.9,1.3-10.8,4.8-12.8c0.7-0.4,1.7-0.8,3.8-0.3
					c3.4,0.8,4.7,7.8,4.2,12.5c-0.1,1.5,1.3,2.8,3.2,2.9c1.9,0.1,3.6-1,3.7-2.5c0.2-1.6,1.2-15.8-9.2-18.1c-4.7-1-8,0.1-9.9,1.2
					c-7.4,4.3-7.5,15.8-7.5,17.1C360.4,739,361.9,740.2,363.8,740.2L363.8,740.2z"/>
				<g>
					<path fill="#FFFFFF" d="M383.7,739.6c7.6-0.3,14.5-1.7,17.9-4.7c0.5-0.5,1.1-1.5,1.6-3.1c-0.6-4.6-2.4-9.3-6.6-10.4
						C386.2,718.9,384.1,733.3,383.7,739.6z"/>
					<path fill="#38276B" d="M383.2,740.1l0-0.5c0.3-5,1.6-14,6.4-17.5c2-1.4,4.4-1.8,7.1-1.2c3.8,0.9,6.1,4.6,7,10.8l0,0.1l0,0.1
						c-0.6,1.7-1.2,2.8-1.7,3.3c-3.2,2.8-9.7,4.6-18.2,4.9L383.2,740.1L383.2,740.1z M396.5,721.9c-2.4-0.6-4.5-0.3-6.3,1
						c-4.3,3.2-5.6,11.3-6,16.2c8-0.3,14.1-2,17.1-4.6c0.3-0.2,0.8-0.9,1.4-2.8C401.9,726.1,399.8,722.8,396.5,721.9z"/>
				</g>
				<path fill="#FFFFFF" d="M364.1,738c6,1.2,13,1.8,19.4,1.6c0-5-0.7-15.3-6.8-17.1C367.6,719.9,364.9,731.2,364.1,738z"/>
				<path fill="#FFFFFF" d="M364.1,738c6,1.2,13,1.8,19.4,1.6c0,0,0.1,0,0.1,0c7.6-0.3,14.5-1.7,17.9-4.7c0.5-0.5,1.1-1.5,1.6-3.1"
					/>
				<path fill="#38276B" d="M380,743.3l0.2-3.8c0.4-6.8,2.1-15.7,7.6-19.7c2.7-2,6-2.5,9.6-1.6c3.5,0.9,7.9,3.9,9.2,13.3l0.1,0.8
					l-0.3,0.8c-0.8,2.2-1.6,3.7-2.6,4.6c-4.8,4.2-13.6,5.4-20.1,5.6L380,743.3L380,743.3z M399.2,732.4c0.1-0.1,0.2-0.4,0.4-0.9
					c-0.5-2.9-1.6-6.1-3.9-6.6c-2.1-0.5-3.1,0.1-3.8,0.5c-2,1.5-3.6,5.3-4.4,10.6C393,735.4,397.1,734.1,399.2,732.4L399.2,732.4z"
					/>
				<path fill="#38276B" d="M381,743.2c-5.8,0-11.9-0.6-17.5-1.7l-3.1-0.6l0.4-3.2c1-8.7,3.6-14.4,7.7-17.2c1.9-1.2,5-2.5,9.4-1.2
					c8.1,2.4,9.3,13.8,9.3,20.4v3.4l-3.4,0.1C382.8,743.2,381.9,743.2,381,743.2L381,743.2z M374.2,725.7c-0.9,0-1.5,0.3-1.9,0.6
					c-1.8,1.2-3.3,4.5-4.2,9c3.9,0.6,8,1,11.9,1c-0.4-5.7-2-9.7-4.1-10.3C375.2,725.7,374.6,725.7,374.2,725.7L374.2,725.7z"/>
				<path fill="#38276B" d="M381.2,743.2c-5.7,0-11.2-0.6-15.3-1.3c-7.5-1.3-17.1-3.9-20-9.1c-3.3-5.8-2.8-13.6-2.2-22.6
					c0.6-8.8,1.2-18.8-1.9-28.3c-2.7-8.3-6.7-16-10.8-24.2c-10.8-21.1-23-45-15.7-85.6c4.9-26.8,24.1-42.8,41.1-46.8
					c1.9-0.4,3.7,0.7,4.2,2.6c0.4,1.9-0.7,3.7-2.6,4.2c-14.3,3.3-31.6,17.7-35.8,41.3c-6.9,38.4,4.2,60.1,15,81.2
					c4.3,8.4,8.4,16.4,11.3,25.2c3.5,10.7,2.8,21.4,2.2,30.8c-0.5,7.9-0.9,14.7,1.4,18.8c0.8,1.4,5.4,4,15.1,5.6
					c13.6,2.3,27.6,1.1,32.1-2.7c3-4.3,8.8-44.9,0.8-70.8c-0.6-1.8,0.5-3.8,2.3-4.3c1.8-0.6,3.8,0.5,4.3,2.3
					c4.9,16.1,4.6,36.3,3.9,46.9c-0.3,4.5-1.9,26.9-6.7,31.1C399,741.8,389.9,743.2,381.2,743.2L381.2,743.2z M399.2,732.4"/>
				<path fill="#38276B" d="M381,743.2c0.9,0,1.8,0,2.7,0c0.1,0,0.2,0,0.3,0c6.5-0.2,15.2-1.4,19.9-5.6c1-0.9,1.8-2.3,2.6-4.6
					c0.6-1.8-0.3-3.8-2.2-4.4c-1.8-0.6-3.8,0.4-4.4,2.2c-0.4,1.1-0.6,1.5-0.7,1.7c-2.6,2.2-8.2,3.5-15.6,3.8l-0.3,0
					c-5.9,0.2-12.6-0.4-18.5-1.6c-1.9-0.4-3.7,0.8-4.1,2.7c-0.4,1.9,0.8,3.7,2.7,4.1C369.1,742.6,375.2,743.2,381,743.2L381,743.2z"
					/>
				<path fill="#B3CD38" d="M334.9,523.4l7.7,126c15.1,17.3,43.1,27.3,60.3,28c17.1,2.1,34,6.9,47.3,5.7
					c88.6-7.7,100.1-81.3,104.8-116.7L477.2,527c0,0-23.1-8.6-52-13.7C394.7,508,357.9,506.6,334.9,523.4L334.9,523.4z"/>
				<g opacity="0.15">
					<g>
						<path fill="#020203" d="M342.6,649.4c15.1,17.3,43.1,27.3,60.3,28c17.1,2.1,34,6.9,47.3,5.7c88.6-7.7,100.1-81.3,104.8-116.7
							L477.2,527c0,0-23.1-8.6-52-13.7c-6.5,11.6-14.8,31.5-12.4,54.6c3.9,37,80.3,22.7,81.2,64.3c0.9,40-56.5,31.3-56.5,31.3
							l-33.2-8.3c0,0-1.8,6.2-19.6,7.3C366.8,663.5,342.6,649.4,342.6,649.4L342.6,649.4z"/>
					</g>
				</g>
				<path fill="#38276B" d="M337,526.2c28.1-19.7,72.4-13.1,104.1-6c11.7,2.7,23.5,6.1,34.8,10.1c-1.7-1,77.9,39.5,77.5,39.3
					l-1.9-3.6c-5.6,45.7-21.8,89.5-68.4,106.5c-9.4,3.5-19.3,5.6-29.3,6.8c-7.7,1.1-15.4,0.5-23.2-0.7c-9-1.3-18.2-3.2-27.5-4.2
					c-5.4-0.2-10.9-1.1-16.2-2.5c-10.7-2.8-21.1-7.2-30.3-13.2c-4.6-3-8.9-6.5-12.7-10.6c-1.5-1.6-4,0.5-2.6,2.3
					c7.5,9,17.4,15.5,27.9,20.5c10.6,4.9,21.8,8.5,33.6,9.3c7.7,1,18,3.2,26.9,4.6c6.9,1.1,14.3,2.1,21.4,1.5c1.7-0.1,5.3-0.5,7-0.7
					c23.5-2.9,46.8-12.1,63.8-29c24.7-24,33.4-59.4,37-92.3l-2.2-1.1l-77.9-39.4c-34.1-11.8-73.9-20.8-110.1-16.5
					c-12.6,1.7-25.3,5.5-35.7,13.1C329.2,523.4,333.2,528.8,337,526.2L337,526.2L337,526.2z"/>
				<path fill="#B3CD38" d="M475.5,659.3c-6.2,18.9-12.2,50.8-14.4,68.8c-0.4,3,1.9,8.9,0.5,12.6c-4.8,12.4-41.7,9.4-51.1-3.6
					c-12.7-17.6-6.3-81.9-6.3-81.9"/>
				<g opacity="0.15">
					<path fill="#38276B" d="M410.6,737c9.4,13,46.3,16,51.1,3.6c0.9-2.3,0.4-5.4-0.1-8.1c-8.2,9.7-41,6.3-49.7-5.9
						c-9.5-13.2-8.3-52.5-7.1-71.5l-0.5,0C404.3,655.2,397.9,719.4,410.6,737L410.6,737z"/>
				</g>
				<path fill="#FFFFFF" d="M442.4,748.6c9.2-0.1,17.2-2.5,19.3-7.9c0.4-1,0.5-2.2,0.5-3.5c-1.7-3.3-4.3-6.3-8.3-6.7
					C445.3,729.6,441.9,739.5,442.4,748.6z"/>
				<path fill="#FFFFFF" d="M422.3,745c6.1,2.3,13.3,3.5,19.9,3.5c0.1-2.3,0.4-16-7.8-17.3C427,730.1,423.3,738.1,422.3,745
					L422.3,745z"/>
				<path fill="#FFFFFF" d="M422.3,745c6.1,2.3,13.3,3.5,19.9,3.5h0.1c9.2-0.1,17.2-2.5,19.3-7.9c0.4-1,0.5-2.2,0.5-3.5"/>
				<path fill="#38276B" d="M439,752l-0.2-3.3c-0.4-7.8,1.7-14.7,5.7-18.5c2.6-2.5,6-3.6,9.6-3.2c3.3,0.3,7.8,2.1,11,8.6l0.3,0.7
					l0,0.7c0.1,1.9-0.2,3.5-0.7,4.8c-2.5,6.3-10.7,10-22.5,10.1L439,752L439,752z M458.7,738.1c-2.1-3.8-4.4-4.1-5.2-4.1
					c-1.7-0.2-3,0.2-4.1,1.3c-1.9,1.8-3.2,5.4-3.5,9.6c6.7-0.6,11.5-2.6,12.6-5.5C458.6,739.2,458.7,738.8,458.7,738.1L458.7,738.1z
					"/>
				<path fill="#38276B" d="M442.1,752c-7.1,0-14.7-1.4-21-3.8l-2.6-1l0.4-2.7c0.4-3.1,2-10.7,7.3-14.6c2.6-1.9,5.6-2.6,8.8-2.1
					c8.6,1.4,11.2,11.7,10.7,20.9l-0.2,3.3l-3.3,0C442.2,752,442.1,752,442.1,752L442.1,752z M433,734.6c-1,0-1.9,0.3-2.7,0.9
					c-1.7,1.3-3.2,3.9-4,7.2c3.9,1.2,8.2,2,12.5,2.2c-0.3-4.4-1.5-9.8-4.9-10.3C433.6,734.6,433.3,734.6,433,734.6L433,734.6z"/>
				<path fill="#38276B" d="M473.9,658.7c-9,21.7-12.9,45.1-16.3,68.2c-0.7,3.8,1.2,8.1,0.7,11.9c-0.4,1.6-1.6,2.6-3.5,3.6
					c-10.6,4.8-33.1,1.8-40.9-7.3c-10.4-14.7-7.7-60.5-7.8-79.8c0.1-2.1-3.1-2.5-3.5-0.3c-1.6,9.3-2.4,18.6-2.9,27.9
					c-0.6,14.1-0.5,28.5,2.5,42.5c2.5,12,7.2,18.7,18.9,23.1c11.3,4.1,25.9,5.8,37.1,0.6c3.6-1.8,6.8-4.9,7.6-9
					c0.8-3.9-0.6-7.8-0.8-11.5c0.5-4.9,1.2-9.7,1.9-14.6c2.9-18.2,6.5-36.3,10.4-54.4C477.6,657.8,474.8,656.8,473.9,658.7
					L473.9,658.7L473.9,658.7z"/>
				<path fill="#38276B" d="M421.7,746.7c3.1,3,7.1,4,11.2,4.8c9.2,1.8,24.1,1.7,30.2-7c1.3-2,1.8-5.1,0.9-7.3
					c-0.4-0.9-1.4-1.4-2.4-1.1c-0.6,0.2-0.9,0.7-1.1,1.2c-2.2,6.1-10.1,6.9-15.8,7.3c-5.3,0.3-10.8-0.2-16.1-1
					c-1.8-0.2-3.7-0.3-5.7-0.1C421.3,743.5,420.6,745.6,421.7,746.7L421.7,746.7L421.7,746.7z"/>
			</g>
			<g>
				<g>
					<g>
						<g>
							<g>
								<path fill="#C3B2D3" d="M490.3,415.1l8.9,19.2l11.8-5.5l1.4,2.9c2,4.4,7.3,6.3,11.7,4.3l5.1-2.4c4.4-2,6.3-7.3,4.3-11.7
									L522,397.4c-2-4.4-7.3-6.3-11.7-4.3l-5.1,2.4c-4.4,2-6.3,7.3-4.3,11.7l1.2,2.5C502.1,409.6,490.3,415.1,490.3,415.1z"/>
								<g opacity="0.7">
									<path fill="#FFFFFF" d="M498.9,412.7l1.2,2.5l-7.9,3.7l-1.8-3.8l8.1-3.7C498.5,411.8,498.7,412.3,498.9,412.7L498.9,412.7z
										"/>
									<path fill="#FFFFFF" d="M531.3,427.7L519.9,403c-2-4.4-7.3-6.3-11.7-4.3l-5.1,2.4c-1.2,0.6-2.2,1.4-3,2.3
										c0-3.3,1.9-6.5,5.1-7.9l5.1-2.4c4.4-2,9.6-0.1,11.7,4.3l11.4,24.6c1.5,3.2,0.9,6.8-1.2,9.3
										C532.1,430.1,531.9,428.9,531.3,427.7z"/>
								</g>
								<g opacity="0.3">
									<path fill="#38276B" d="M495.7,412.6l2,4.2c2.3,4.9,8,7,12.9,4.7l0,0c1.6-0.8,3.5,0,4.3,1.6l0,0c2,4.4,7.3,6.3,11.7,4.3
										l5.1-2.4c0.9-0.4,1.6-0.9,2.3-1.5c1,4-0.9,8.3-4.8,10.2l-5.1,2.4c-4.4,2-9.6,0.1-11.7-4.3l-1.4-2.9l-11.8,5.5l-8.9-19.2
										L495.7,412.6L495.7,412.6z"/>
								</g>
								<path fill="#38276B" d="M525.3,438.8c-5.9,2.7-12.9,0.2-15.6-5.7l-0.1-0.2l-9.1,4.2c-1.5,0.7-3.2,0-3.9-1.4l-8.9-19.2
									c-0.7-1.5,0-3.2,1.4-3.9l9.1-4.2c-2.6-5.8,0-12.7,5.8-15.4l5.1-2.4c5.9-2.7,12.9-0.2,15.6,5.7l11.4,24.6
									c2.7,5.9,0.2,12.9-5.7,15.6L525.3,438.8L525.3,438.8z M511.6,395.8l-5.1,2.4c-2.9,1.3-4.2,4.8-2.8,7.7l1.2,2.5
									c0.7,1.5,0,3.2-1.4,3.9l-9.1,4.2l6.4,13.9l9.1-4.2c1.5-0.7,3.2,0,3.9,1.4l1.4,2.9c1.4,2.9,4.8,4.2,7.7,2.8l5.1-2.4
									c2.9-1.3,4.2-4.8,2.8-7.7l-11.4-24.6C517.9,395.7,514.5,394.5,511.6,395.8L511.6,395.8z"/>
							</g>
							<path fill="#B3CD38" d="M674.4,608.7"/>
							<g>
								<path fill="#B3CD38" d="M562.8,549.9c0,0-33.9,25.7-76.4,23.3c-82.3,22.2-154.2-10.7-165.5-47.3l76.5-113.7
									c35.5-34.4,92.5-39.9,128.4,31.6c1.7,1.4,3.3,2.8,5,4.4c5.2,4.9,15,26.8,15,26.8"/>
							</g>
							<path fill="#38276B" d="M561.6,547.9c-2.3,1.7-4.7,3.2-7.1,4.7c-6,3.6-12.4,6.8-18.9,9.5c-9,3.6-18.5,6.4-28.1,7.8
								c-5.4,0.8-10.8,1.2-16.2,1.1c-1.3,0-2.7,0-4-0.1c-1.8-0.1-3.4,0.6-5.1,1c-3,0.8-6,1.4-9,2.1c-22.1,4.5-45.1,5.5-67.5,2.1
								c-18.4-2.8-36.6-8.4-52.6-18c-11.8-7.1-22.8-16.5-28.4-29.1c0,0-0.3-0.6-0.1-0.3c0.1,0.3-0.1-0.3-0.1-0.3
								c-0.1-0.3-0.3-0.7-0.4-1c-0.2-0.7-0.5-1.3-0.7-2c-0.1,0.6-0.2,1.2-0.2,1.8c2.2-3.3,4.4-6.6,6.6-9.8c5.4-8,10.8-16,16.1-24
								c6.8-10.1,13.5-20.1,20.3-30.2c6.4-9.5,12.7-18.9,19.1-28.4c4.1-6.1,8.2-12.2,12.4-18.4c0.7-1,1.2-2.1,2-3
								c-0.5,0.6,0.5-0.3,0.6-0.5c0.6-0.6,1.2-1.2,1.9-1.7c1.2-1.1,2.5-2.2,3.8-3.2c2.3-1.9,5-3.8,7.7-5.5
								c5.4-3.5,11.1-6.4,16.9-8.4c3-1.1,6-1.9,9.1-2.6c3.2-0.7,5.6-1,8.8-1.2c13-0.9,25.5,2.3,36.6,9c14.3,8.6,25.3,21.9,33.6,36.2
								c1.3,2.3,2.6,4.6,3.9,6.9c0.6,1.2,1.1,2.5,2.1,3.5c1,1,2.2,1.8,3.2,2.8c2.5,2.2,3.6,3.8,5.3,6.7c3.4,5.6,6.3,11.6,9.1,17.5
								c0.5,1.1,1.1,2.3,1.6,3.5c0.5,1.2,2.2,1.5,3.3,0.9c1.2-0.7,1.4-2.1,0.9-3.3c-3.4-7.6-7-15.2-11.5-22.2
								c-1.1-1.8-2.3-3.6-3.8-5c-0.8-0.8-1.6-1.5-2.5-2.3c-0.8-0.7-1.9-1.3-2.4-2.2c-1.1-1.7-1.9-3.7-2.9-5.5
								c-3.7-6.6-7.8-13-12.5-19c-7.7-9.7-17-18.4-28-24.2c-9.3-4.9-19.5-7.8-30-8c-9.9-0.2-19.9,1.8-29.1,5.6
								c-9.7,4-18.5,9.7-26.3,16.7c-1.5,1.3-2.9,2.6-4,4.2c-0.8,1.3-1.7,2.5-2.5,3.8c-3.3,4.9-6.7,9.9-10,14.8
								c-4.8,7.1-9.6,14.2-14.3,21.3c-5.4,8-10.8,16-16.2,24c-5.1,7.5-10.2,15.1-15.2,22.6c-3.9,5.8-7.8,11.7-11.8,17.5
								c-1.9,2.8-3.9,5.6-5.7,8.5c-0.5,0.8-0.6,1.7-0.3,2.6c0.7,2.2,1.6,4.3,2.6,6.3c2.1,4.2,4.9,8.1,8,11.6
								c7.3,8.3,16.5,14.9,26.2,20c11.8,6.3,24.6,10.7,37.7,13.6c15.2,3.4,30.9,4.7,46.4,4.1c8.5-0.3,17-1.1,25.4-2.5
								c4.4-0.7,8.7-1.5,13-2.5c2.3-0.5,4.5-1.1,6.8-1.6c1-0.3,1.9-0.5,2.9-0.5c1.1,0,2.1,0.1,3.2,0.1c14.9,0.2,29.7-2.9,43.5-8.2
								c9.1-3.5,17.9-7.8,26.1-13.2c1.2-0.8,2.4-1.6,3.5-2.4c1-0.8,1.6-2.1,0.9-3.3C564.3,547.7,562.7,547.1,561.6,547.9
								L561.6,547.9z"/>
							<g>
								<path fill="#38276B" d="M378.2,436.7c-17.1,22.6-28.7,45.9-28.7,45.9l-7.8,10.2l-3.8,5c-1.6,15.2,1.3,30,10.3,42.8l13.4,4
									l-17.4-28.2l31.8,9.4l-17.1-27.8l31.3,9.3l-15.9-25.8l29,8.6l-17.1-27.8l31.3,9.3l-17.6-28.6l32.2,9.5L417.8,429l26.3,7.8
									l-17.4-28.2l31.8,9.4l-16.9-27.5c-9.7,1.6-19.4,4.9-28.8,9.5l-2.8,3.6C410,403.6,395.3,414.2,378.2,436.7L378.2,436.7z"/>
								<path fill="#38276B" d="M442.1,390.3l30.6,9.1l-5.5-9C459,388.9,450.5,389,442.1,390.3z"/>
							</g>
							<g>
								<path fill="#38276B" d="M512.2,420.5l-149.5,76.4c-1,0.5-2.3,0-3-1.3c-0.6-1.2-0.3-2.6,0.7-3.1L510,416.1c1-0.5,2.3,0,3,1.3
									C513.6,418.6,513.3,420,512.2,420.5z"/>
								<path fill="#38276B" d="M381.3,498c-1.5,0.7-3.3-0.1-4.2-1.8l-7.8-15.3c-0.9-1.7-0.4-3.8,1-4.5c1.5-0.7,3.3,0.1,4.2,1.8
									l7.8,15.3C383.3,495.3,382.8,497.3,381.3,498z"/>
								<path fill="#38276B" d="M403.9,486.5c-1.5,0.7-3.3-0.1-4.2-1.8l-7.8-15.3c-0.9-1.7-0.4-3.8,1-4.5c1.5-0.7,3.3,0.1,4.2,1.8
									L405,482C405.8,483.7,405.4,485.7,403.9,486.5z"/>
								<path fill="#38276B" d="M428.6,473.9c-1.5,0.7-3.3-0.1-4.2-1.8l-7.8-15.3c-0.9-1.7-0.4-3.8,1-4.5s3.3,0.1,4.2,1.8l7.8,15.3
									C430.5,471.1,430,473.1,428.6,473.9z"/>
								<path fill="#38276B" d="M498.6,438.1c-1.5,0.7-3.3-0.1-4.2-1.8l-7.8-15.3c-0.9-1.7-0.4-3.8,1-4.5s3.3,0.1,4.2,1.8l7.8,15.3
									C500.5,435.3,500,437.3,498.6,438.1z"/>
								<path fill="#38276B" d="M476,449.6c-1.5,0.7-3.3-0.1-4.2-1.8l-7.8-15.3c-0.9-1.7-0.4-3.8,1-4.5s3.3,0.1,4.2,1.8l7.8,15.3
									C477.9,446.9,477.4,448.9,476,449.6z"/>
								<path fill="#38276B" d="M453.4,461.2c-1.5,0.7-3.3-0.1-4.2-1.8l-7.8-15.3c-0.9-1.7-0.4-3.8,1-4.5s3.3,0.1,4.2,1.8l7.8,15.3
									C455.3,458.4,454.9,460.4,453.4,461.2z"/>
							</g>
							<path opacity="0.29" fill="#020203" d="M328.7,542.6c20.4,9.3,45.3,34.5,73.7,51.2c24.3,14.3,49.2,13.4,65.2-1.6
								c-1.6,7-4.1,13.9-7.9,19.8c-15.1,23-44.2,26.9-72.6,10.3c-28.4-16.7-45.2-38.8-65.7-48.1"/>
							<g>
								<path fill="#B3CD38" d="M462.4,561.4c0,0,5.2,30.3-5.1,47.7c-10.3,17.4-31.6,19.6-52.9,5.7C383,601,370,583.3,354.7,575.4
									c-15.3-7.9-44.7-3.4-50.4-27.5s-3.6-42.5,18.7-59.2s88.6-20.5,88.6-20.5L462.4,561.4L462.4,561.4z"/>
								<g opacity="0.48">
									<path fill="#FFFFFF" d="M341.4,489.7c-24.1,18.7-26.8,38.8-21.3,64.9c0.9,4.1,2.4,7.5,4.3,10.2
										c-8.1-3.1-14.9-8.1-17.3-18.4c-5.7-24.1-3.6-42.5,18.7-59.2s88.6-20.5,88.6-20.5l0.6,1C392.3,470.9,357,477.5,341.4,489.7
										L341.4,489.7z"/>
								</g>
								<path fill="#38276B" d="M446.9,624c5.4-2.8,10-7.1,13.4-12.7c1.4-1.7,7.9-10.2,9-25c1.6-21.2-8.2-44.7-29-69.8l-5.7,4.7
									c19,23,28.5,45.2,27.3,64.1c-0.9,14-7.4,21.5-7.4,21.5l-0.2,0.3l-0.2,0.3c-3.8,6.4-9.4,10.7-16.2,12.3
									c-9.3,2.2-20.5-0.6-31.5-7.7c-10.2-6.6-18.7-14.4-26.2-21.2c-8-7.3-15.6-14.2-23.8-18.5c-5.2-2.7-11.6-4-18.3-5.4
									c-13.8-2.8-26.8-5.4-30.2-19.7c-5.2-22.3-4.1-39.3,17.4-55.4c21.2-15.9,86-19.7,86.6-19.8l-0.4-7.3
									c-2.8,0.2-67.7,4-90.6,21.2c-26.1,19.5-25.1,41.8-20.1,63c4.4,18.9,21.9,22.4,35.9,25.2c6.2,1.3,12.1,2.4,16.4,4.7
									c7.4,3.8,14.3,10.1,22.3,17.4c7.7,7,16.4,15,27.1,21.9c12.7,8.3,25.9,11.4,37.2,8.7C442.2,626,444.6,625.1,446.9,624
									L446.9,624z"/>
							</g>
							<g>
								<path fill="#C3B2D3" d="M406.5,455.4l12.5,20.1l-12.3,7.6l1.9,3.1c2.9,4.6,1.4,10.7-3.2,13.5l-5.3,3.3
									c-4.6,2.9-10.7,1.4-13.5-3.2l-16-25.8c-2.9-4.6-1.4-10.7,3.2-13.5l5.3-3.3c4.6-2.9,10.7-1.4,13.5,3.2l1.6,2.6L406.5,455.4
									L406.5,455.4z"/>
								<g opacity="0.7">
									<path fill="#FFFFFF" d="M399.1,462l1.6,2.6l8.3-5.2l-2.5-4l-8.4,5.2C398.4,461.1,398.8,461.5,399.1,462L399.1,462z"/>
									<path fill="#FFFFFF" d="M393,501.5l-16-25.8c-2.9-4.6-1.4-10.7,3.2-13.5l5.3-3.3c1.3-0.8,2.6-1.2,4-1.4
										c-3.1-2-7.2-2.2-10.5-0.1l-5.3,3.3c-4.6,2.9-6,8.9-3.2,13.5l16,25.8c2.1,3.3,5.8,5,9.5,4.6
										C394.9,503.7,393.8,502.7,393,501.5L393,501.5z"/>
								</g>
								<g opacity="0.3">
									<path fill="#38276B" d="M400.9,458.9l2.8,4.4c3.2,5.1,1.6,11.8-3.5,15l0,0c-1.7,1-2.2,3.3-1.2,5l0,0
										c2.9,4.6,1.4,10.7-3.2,13.5l-5.3,3.3c-0.9,0.6-1.9,0.9-2.8,1.2c3.1,3.4,8.3,4.3,12.4,1.7l5.3-3.3c4.6-2.9,6-8.9,3.2-13.5
										l-1.9-3.1l12.3-7.6l-12.5-20.1L400.9,458.9L400.9,458.9z"/>
								</g>
								<path fill="#38276B" d="M411.4,484.5c3.8,6.2,1.9,14.3-4.2,18.1l-5.3,3.3c-6.2,3.8-14.3,1.9-18.1-4.2l-16-25.8
									c-3.8-6.2-1.9-14.3,4.2-18.1l5.3-3.3c6.1-3.8,14.1-2,18,4l9.5-5.9c1.6-1,3.6-0.5,4.6,1.1l12.5,20.1c1,1.6,0.5,3.6-1.1,4.6
									l-9.5,5.9L411.4,484.5L411.4,484.5z M380.8,460.1l-5.3,3.3c-3.1,1.9-4,5.9-2.1,9l16,25.8c1.9,3.1,5.9,4,9,2.1l5.3-3.3
									c3.1-1.9,4-5.9,2.1-9l-1.9-3.1c-1-1.6-0.5-3.6,1.1-4.6l9.5-5.9l-9-14.5l-9.5,5.9c-1.6,1-3.6,0.5-4.6-1.1l-1.6-2.6
									C387.8,459.1,383.8,458.2,380.8,460.1L380.8,460.1z"/>
							</g>
						</g>
						<g>
							<g>
								<path fill="#FFFFFF" d="M500.5,464.4c4.1,12.3-1.2,26-13.1,32.1c-11.9,6.1-26.2,2.3-33.7-8.2L500.5,464.4L500.5,464.4z"/>
								<path fill="#38276B" d="M488.7,499.1c-6.3,3.2-13.6,4.1-20.5,2.4c-6.8-1.7-12.8-5.8-16.9-11.4l-1.9-2.7l52.8-27l1.1,3.2
									c2.2,6.6,2,13.9-0.6,20.4C500,490.4,495,495.8,488.7,499.1L488.7,499.1z M498.6,468.6l-40.4,20.7c3.1,3.2,7,5.5,11.4,6.6
									c5.5,1.4,11.4,0.7,16.5-1.9c5.1-2.6,9.1-7,11.2-12.2C499,477.5,499.4,473,498.6,468.6L498.6,468.6z"/>
							</g>
							<circle fill="#38276B" cx="480" cy="481.2" r="6.5"/>
						</g>
					</g>
					<path fill="#020203" fill-opacity="0.15" d="M438.6,541.8c-18.2-25.7-51-33.6-73.3-17.8c-4,2.8-7.3,6.2-10.1,10
						c3-8.3,8.2-15.6,15.6-20.8c22.3-15.8,55.9-6.8,75,20.1c19.1,26.9,26.4,65.4,4.1,81.3c-1.5,1-3,2-4.5,2.8
						C463.8,600.5,455.6,565.7,438.6,541.8L438.6,541.8z"/>
				</g>
				<g>
					<g>
						<g>
							<g>
								<path fill="#B3CD38" d="M528.1,489.3c24.8-26.3,32.9,1.1,60.6-12.6c12.7-6.3,32.4-18.2,41.4-29.5
									c3.3-4.1,15.5-14.2,25.2-23.8c0.1-0.2,0.3-0.3,0.4-0.5c0.1-0.2,0.3-0.4,0.4-0.6c0.5-0.7,1.1-1.4,1.6-2.1
									c0.2-0.3,0.4-0.5,0.6-0.8c0.5-0.7,1-1.3,1.4-2c0.2-0.3,0.4-0.6,0.6-0.9c0.4-0.6,0.9-1.3,1.3-1.9c0.2-0.3,0.4-0.7,0.6-1
									c0.4-0.6,0.8-1.2,1.2-1.8c0.2-0.4,0.4-0.7,0.7-1.1c0.4-0.6,0.7-1.2,1.1-1.8c0.2-0.4,0.4-0.8,0.6-1.1c0.3-0.6,0.7-1.2,1-1.8
									c0.2-0.4,0.4-0.8,0.6-1.2c0.3-0.6,0.6-1.2,0.9-1.8c0.2-0.4,0.4-0.8,0.6-1.2c0.3-0.6,0.6-1.2,0.8-1.8
									c0.2-0.4,0.4-0.8,0.6-1.3c0.3-0.6,0.5-1.2,0.8-1.9c0.2-0.4,0.3-0.8,0.5-1.3c0.3-0.6,0.5-1.3,0.7-2c0.1-0.4,0.3-0.8,0.4-1.2
									c0.3-0.7,0.5-1.4,0.7-2.2c0.1-0.3,0.2-0.7,0.3-1c0.3-1.1,0.7-2.2,1-3.2c1-3.7,1.7-7.9,1-11.6c-0.4-2.3-1.4-4.4-3.2-6
									c-1.8-1.6-4.2-2.4-6.6-2.4c-3.1,0-6.4,1.2-8.9,3.2c-1.9,1.5-3.5,3.4-4.9,5.5c-1.7,2.6-3.1,5.6-4.5,8.4v0
									c-0.3-0.3-0.6-0.5-0.8-0.8c-4.2-4.4-5.1-11.4-3-17.1c2.2-6.1,7.2-10.9,12.8-14.2c10.9-6.6,25.5-8,36.4-1.4
									c9.2,5.6,16.2,19.6,16.9,30.4c1.1,17.2-3.4,29.9-9.2,42.5c-9.5,20.9-25.6,46.1-45.2,68.7c-10.2,13.1-22.7,26.1-33.9,36.6
									c-45.9,42.8-108.3,31.5-108.3,31.5l-5.3-55.5L528.1,489.3z"/>
							</g>
							<path fill="#020203" fill-opacity="0.15" d="M507.6,528.6c49.7,21.5,86.2,5.6,110.5-12.2c30.7-22.5,94.3-107.1,91.7-135.8
								c0.2,0.9,0.4,1.9,0.6,2.9c0.5,15.9-3.9,27.8-9.3,39.8c-9.5,20.9-25.6,46.1-45.2,68.7c-10.2,13.1-22.7,26.1-33.9,36.6
								c-30.6,28.5-68.5,33-90.4,32.8c-6.1-1.5-23-22.6-29.2-25.5L507.6,528.6z"/>
							<g>
								<path fill="#38276B" d="M499.2,570.1c2.7-2.2,5.3-4.4,7.3-6.8c2.1-2.4,3.6-4.9,4.6-7.6c0.2-0.3,0.2-0.6,0.3-1
									c0.1-0.3,0.2-0.6,0.2-0.9c0-0.3,0.1-0.6,0.2-1l0-1c0-1.4-0.2-2.8-0.6-4.3c-0.8-3-2.3-6.1-4-9.1l-0.1-0.1
									c-0.3-0.6-0.1-1.4,0.5-1.7c0.4-0.2,0.9-0.2,1.3,0c3.4,2.1,6.1,4.9,8,8.6c1,1.8,1.6,3.9,1.8,6.2c0.3,2.2-0.1,4.6-0.7,6.7
									c-1.3,4-3.9,7.7-7.2,10.1c-1.6,1.2-3.4,2.2-5.2,3c-1.9,0.7-3.7,1.2-5.8,1.3c-0.7,0-1.3-0.5-1.3-1.2c0-0.4,0.2-0.8,0.5-1
									L499.2,570.1z"/>
							</g>
							<g>
								<path fill="#38276B" d="M553,515.3c-1-1.4-1.8-2.8-2.4-4.4c-0.3-0.8-0.6-1.6-0.9-2.4c-0.2-0.8-0.4-1.6-0.6-2.5
									c-0.7-3.4-0.7-6.9,0.1-10.4c0.1-0.9,0.4-1.7,0.7-2.6c0.3-0.8,0.5-1.7,1-2.5l1.2-2.4c0.5-0.8,1-1.5,1.5-2.2
									c0.3-0.4,0.5-0.7,0.8-1.1c0.3-0.3,0.6-0.6,0.9-1c0.6-0.6,1.2-1.3,1.9-1.9c1.3-1.2,2.8-2.1,4.2-3.1c1.6-1,3.7-0.6,4.7,1
									c0.9,1.3,0.7,3-0.3,4.2l-0.4,0.4c-1,1.1-2.1,2-3.1,3c-0.9,1.1-2,1.9-2.8,3.1l-1.3,1.6l-1.1,1.7c-0.4,0.6-0.7,1.2-1,1.8
									c-0.3,0.6-0.7,1.2-0.9,1.9c-1.1,2.6-1.8,5.4-2,8.3c-0.2,3,0,6.1,0.7,9.1l0,0c0.1,0.3-0.1,0.5-0.4,0.6
									C553.3,515.5,553.1,515.4,553,515.3z"/>
							</g>
							<g>
								<path fill="#38276B" d="M580.8,504.7c-1-0.5-1.9-1.2-2.7-1.9c-0.4-0.4-0.8-0.8-1.2-1.2c-0.4-0.4-0.8-0.8-1.1-1.3
									c-1.4-1.8-2.5-3.9-3-6.2c-0.2-0.6-0.3-1.1-0.3-1.7c-0.1-0.6-0.2-1.2-0.2-1.8l0-1.8c0.1-0.6,0.2-1.2,0.3-1.7
									c0.1-0.3,0.1-0.6,0.2-0.9c0.1-0.3,0.2-0.6,0.3-0.8c0.2-0.6,0.4-1.1,0.6-1.6c0.4-1.1,1-2,1.6-3c0.6-1.1,2-1.4,3.1-0.7
									c0.9,0.5,1.3,1.6,1,2.6l-0.1,0.4c-0.3,0.9-0.7,1.8-1,2.6c-0.2,0.9-0.6,1.7-0.8,2.6l-0.3,1.3l-0.2,1.3
									c-0.1,0.4-0.1,0.9-0.1,1.3c0,0.5-0.1,0.9,0,1.4c0.1,1.8,0.5,3.7,1.3,5.5c0.7,1.8,1.8,3.6,3.1,5.2l0,0
									c0.1,0.1,0.1,0.3-0.1,0.5C581,504.7,580.9,504.7,580.8,504.7z"/>
							</g>
							<path fill="none" stroke="#38276B" stroke-width="4.7985" stroke-miterlimit="10" d="M509.3,504.7"/>
							<g>
								<path fill="#38276B" d="M562.7,483.5c-2-0.5-3.9-0.9-5.9-1.1c-2-0.2-4-0.2-5.9-0.1c-2,0.2-3.9,0.6-5.8,1.1
									c-1.9,0.6-3.7,1.4-5.5,2.4c-1.7,1-3.3,2.3-4.8,3.7c-1.4,1.4-2.8,3.1-4,4.9c-2.4,3.5-4,7.6-4.9,12.1c0,0.3-0.3,0.4-0.6,0.4
									c-0.2,0-0.4-0.2-0.4-0.4c-0.5-4.6,0.3-9.5,2.2-14c0.5-1.1,1-2.2,1.6-3.3c0.3-0.5,0.6-1.1,0.9-1.6c0.3-0.5,0.7-1,1.1-1.5
									c1.5-2,3.2-3.9,5.3-5.4c4-3.1,8.9-5.2,14-5.9c2.6-0.3,5.1-0.3,7.7,0c2.5,0.4,5,1.1,7.3,2.1c1.7,0.8,2.5,2.8,1.7,4.5
									c-0.7,1.5-2.4,2.3-4,1.9L562.7,483.5z"/>
							</g>
						</g>
						<path fill="#38276B" d="M509.2,505.8c4-2.9,8-5.7,12-8.6c2.2-1.6,4.5-3.2,6.7-4.8c2.6-1.8,4.6-4.2,7-6.3
							c3.1-2.6,6.6-4.8,10.4-5.8c0.4-0.1,0.8-0.2,1.2-0.3c0.2,0,1.1-0.2,0.8-0.1c0.8-0.1,1.6-0.2,2.4-0.2c0.7,0,1.5,0,2.2,0.1
							c0.4,0,0.7,0.1,1.1,0.1c0.1,0,0.6,0.1,0.1,0c0.2,0,0.4,0.1,0.7,0.1c6.8,1.1,13.3,3.4,20.3,3.1c9.6-0.5,18.1-5.3,26.2-9.9
							c9.4-5.4,18.6-11.4,26.5-18.8c2.9-2.7,5.3-5.9,8.2-8.7c3.6-3.5,7.5-6.9,11.2-10.3c4.3-3.9,9-7.8,12.5-12.4
							c3.7-4.8,7.1-10,10-15.4c2.8-5.3,5.2-10.8,7.1-16.5c1.9-5.7,3.7-12,2.2-18.1c-1.5-6-7-9.8-13.2-9.3
							c-6.4,0.6-11.3,4.7-14.7,9.9c-1.7,2.6-3,5.4-4.3,8.3c1.5,0.4,3,0.8,4.4,1.2c0-1.2-0.8-1.7-1.5-2.5c-0.5-0.6-1-1.1-1.4-1.8
							c-0.9-1.4-1.4-2.9-1.7-4.5c-0.6-3.1-0.2-6.5,1-9.4c2.9-6.6,9.2-11.3,15.6-14.2c6.5-2.9,14.1-4,21.2-2.5
							c6.7,1.4,12.1,5.1,16.1,10.6c4,5.4,6.8,11.8,7.9,18.4c0.6,3.7,0.6,7.5,0.4,11.3c-0.2,3.8-0.7,7.5-1.4,11.2
							c-1.5,6.9-4,13.6-6.9,20.1c-2.9,6.5-6.2,12.9-9.7,19.2c-8.1,14.3-17.4,28-27.7,40.8c-2.7,3.4-5.6,6.6-8.3,10
							c-2.7,3.4-5.4,6.7-8.3,10c-5.7,6.6-11.6,12.9-17.8,19c-5.5,5.4-11.1,10.8-17.3,15.4c-5.7,4.2-11.7,7.8-18,10.9
							c-11,5.4-22.9,9-35,11.1c-9.2,1.6-18.8,2.2-28.3,2c-3.2-0.1-6.4-0.3-9.6-0.6c-1.1-0.1-2.1-0.2-3.2-0.4c-0.2,0-0.4-0.1-0.6-0.1
							c0.4,0,0.5,0.1,0,0c-0.3,0-0.6-0.1-0.8-0.1c-0.2,0-0.4-0.1-0.7-0.1c-1.3-0.2-2.6,0.3-2.9,1.7c-0.3,1.2,0.4,2.7,1.7,2.9
							c3.7,0.7,7.5,1,11.3,1.2c9.1,0.5,18.2,0.2,27.3-0.9c12.4-1.6,24.6-4.5,36.1-9.4c13.9-5.8,26.4-14,37.4-24.3
							c6.4-6,12.6-12.3,18.5-18.8c6.1-6.7,11.7-13.7,17.5-20.6c11.1-13.3,21.3-27.4,30.1-42.3c3.9-6.6,7.5-13.3,10.8-20.2
							c3.2-6.7,6.1-13.5,8.1-20.7c2.2-7.9,3.1-16.1,2.7-24.3c-0.4-7.2-2.6-14.2-6.1-20.6c-3.5-6.2-8.3-11.8-14.8-14.8
							c-7.2-3.3-15.4-3.9-23.2-2.2c-14.3,3.1-30.6,15.3-27.4,31.6c0.7,3.6,2.5,6.9,5.2,9.4c-0.2-0.6-0.5-1.1-0.7-1.7c0,0,0,0,0,0
							c0,2.2,3.4,3.4,4.4,1.2c2.4-5.2,5-11.2,10.2-14.2c4.2-2.5,10.5-2.5,12.8,2.6c2.2,5,0.2,11.3-1.4,16.2
							c-1.8,5.4-3.9,10.7-6.6,15.7c-2.7,5.2-5.8,10.1-9.4,14.8c-3.4,4.5-7.8,8.1-11.9,11.9c-3.7,3.4-7.5,6.7-11.1,10.2
							c-2.8,2.6-5.1,5.6-7.7,8.3c-7.2,7.2-16,13-24.8,18.2c-4.1,2.4-8.3,4.7-12.6,6.8c-3.8,1.8-8.1,3.2-12.1,3.6
							c-6.6,0.5-12.3-1.4-18.9-2.6c-3.3-0.6-6.5-0.9-9.9-0.4c-3.7,0.5-7.1,2-10.2,4c-2.1,1.3-4,2.9-5.8,4.5c-1,0.9-2.1,1.9-3,2.9
							c-0.1,0.1-0.8,0.9-0.5,0.6c0,0-0.1,0.1-0.1,0.1c-1.4,1.3-3.3,2.3-4.8,3.5c-4.7,3.4-9.4,6.8-14.1,10.1c-0.3,0.2-0.7,0.5-1,0.7
							c-1,0.7-1.5,2.1-0.9,3.3C506.5,506,508.2,506.5,509.2,505.8L509.2,505.8z"/>
						<g>
							<path fill="#FFFFFF" d="M489.3,564.9c0,0,55.2,48.5,109.1-16.7c0,0-58.4,26.8-86-6.9l-9.3-9.3
								C503.2,531.9,487.1,543.8,489.3,564.9z"/>
							<path fill="#38276B" d="M534.8,584.2c-26.9-0.6-45.9-17.1-46.8-17.8l-0.6-0.5l-0.1-0.8c-2.4-21.9,14-34.2,14.7-34.7l1.4-1
								l10.6,10.6c10.9,13.4,28.2,18.6,51.4,15.4c17.6-2.4,32.1-9,32.2-9l7.8-3.6l-5.5,6.6c-17.6,21.3-37.2,32.9-58.3,34.6
								C539.4,584.2,537.1,584.2,534.8,584.2z M491.2,563.9c3.6,2.9,24,18.3,50.2,16.2c17.9-1.4,34.7-10.5,50.2-27.1
								c-6.1,2.2-15.2,4.9-25.5,6.3c-24.3,3.3-43.3-2.5-55-16.8l-7.9-7.9C499.6,537.8,489.9,548.1,491.2,563.9z"/>
						</g>
						<path fill="#020203" fill-opacity="0.19" d="M584.7,557.7c-50.4,47.9-98.7,5.4-98.7,5.4c-0.1-1.2-0.2-2.4-0.2-3.5
							C495.7,566.2,538,590.8,584.7,557.7z"/>
						<path fill="#38276B" d="M491,576.5c-6.8-12-6.1-24.6,2-36.4c6-8.8,13.9-13.9,14.2-14.1l2.1,3.3l-1.1-1.7l1.1,1.6
							c-0.1,0-7.6,5-13.2,13.2c-7.2,10.6-7.8,21.4-1.7,32.1L491,576.5z"/>
					</g>
				</g>
			</g>
		</g>
		<g>
			<g>
				<path fill="#8B9BCF" d="M994.6,564.5c0,0-4.7-32.8,16.7-30.3c21.4,2.4,28.2-6.6,28.2-6.6s1,39.2-18.4,45.7
					c-13.8,4.6-22.3-5.9-22.3-5.9"/>
				<g opacity="0.35">
					<path fill="#FFFFFF" d="M1039.5,531.2c-3.2,4.4-11.2,11.9-26.7,10.1c-15.3-1.8-17.3,14.5-17.2,23.9l-1-0.7
						c0,0-4.7-32.8,16.7-30.3c21.4,2.4,28.2-6.6,28.2-6.6S1039.5,528.9,1039.5,531.2L1039.5,531.2z"/>
				</g>
				<g opacity="0.15">
					<path fill="#8B9BCF" d="M1021.1,573.2c-13.8,4.6-22.3-5.9-22.3-5.9l-4.2-2.7c0,0-0.9-6.6-0.1-13.6c2.7,3.6,7.7,8,16.1,8.2
						c13.5,0.4,23.6-15.7,28.8-26.7C1039,543.1,1036.3,568.2,1021.1,573.2L1021.1,573.2z"/>
				</g>
				<path fill="#353154" d="M1014.2,577.9c-11.1,0-17.7-8-18.1-8.4c-0.4-0.5-0.6-1-0.7-1.5c-0.1,0-0.2,0-0.3,0.1
					c-1.9,0.3-3.7-1-3.9-2.9c-0.1-0.8-2.8-20.4,6.2-29.7c3.6-3.7,8.5-5.3,14.4-4.6c18.8,2.1,25-5.2,25-5.3c0.9-1.2,2.4-1.7,3.8-1.2
					c1.4,0.4,2.4,1.8,2.4,3.2c0,1.7,0.8,41.9-20.7,49C1019.3,577.5,1016.7,577.9,1014.2,577.9L1014.2,577.9z M998.8,563.8
					c1,0,2,0.4,2.7,1.3c0.3,0.3,7.3,8.6,18.6,4.8c11.4-3.8,15-23.1,15.8-35.5c-4.9,2.4-12.8,4.6-24.9,3.2c-3.7-0.4-6.6,0.4-8.6,2.5
					c-5.4,5.6-5,18.8-4.3,23.7C998.3,563.8,998.5,563.8,998.8,563.8L998.8,563.8z"/>
				<path fill="#8B9BCF" d="M933.4,584.2c0,0,27.5,3.6,43.7-15.3c17.7-20.7,29.8-19.8,30.7-14c0.9,5.8-9,8.9-17.6,26
					c-8.2,16.1-19.1,30.1-44.3,26.8"/>
				<g opacity="0.15">
					<path fill="#353154" d="M990.3,580.9c-8.2,16.1-19.1,30.1-44.3,26.8l-12.6-23.5c0,0,1.9,0.2,5,0.3l1.3,4.4
						c24,8.4,37.5-3,48.8-17.1c8-10,15.3-13.7,19.3-16.9C1008.8,560.7,998.9,563.8,990.3,580.9L990.3,580.9z"/>
				</g>
				<path fill="#353154" d="M953,611.6c-2.4,0-4.8-0.2-7.5-0.5c-1.9-0.2-3.2-2-3-3.9c0.2-1.9,2-3.2,3.9-3
					c21.8,2.8,32.1-7.9,40.7-24.9c4.7-9.3,10-14.8,13.4-18.5c2.3-2.4,4.1-4.3,3.9-5.4c0-0.1-0.1-0.3-0.7-0.5
					c-2.8-0.8-11.5,1.6-24,16.2c-17.2,20.1-45.6,16.6-46.8,16.5c-1.9-0.2-3.2-2-3-3.9c0.2-1.9,2-3.2,3.9-3l0,0
					c0.3,0,25.9,3.1,40.7-14.1c11.7-13.7,23.4-20.6,31.1-18.4c3.1,0.9,5.2,3.1,5.7,6.1c0.7,4.5-2.1,7.5-5.7,11.3
					c-3.4,3.6-8,8.4-12.3,16.8C985.9,597.1,975.3,611.6,953,611.6L953,611.6z"/>
				<path fill="#8B9BCF" d="M857.5,725c-9.8,12.7-42.5,20.5-48.8,11.4c-2.4-3.5-3-8.5-4.6-13.9c-3.3-11.1-10-26.5-18.1-42.2
					c-8.2-15.9-17.8-32.1-26.4-44.3l88.9,6.8l11.2,0.9C859.7,643.7,873.8,703.8,857.5,725L857.5,725z"/>
				<g opacity="0.15">
					<path fill="#353154" d="M843.1,686.8c-9.6,6.8-37.6-0.3-57.1-6.5c-8.2-15.9-17.8-32.1-26.4-44.3l88.9,6.8
						C850.8,660,851.5,680.8,843.1,686.8L843.1,686.8z"/>
				</g>
				<g>
					<path fill="#FFFFFF" d="M825.5,740c-7.7,0.9-14.3,0-16.8-3.7c-0.8-1.2-1.5-2.6-2-4.2c-1.2-5.6,1.3-10.5,5.5-11.3
						C822.2,718.9,824.7,732.7,825.5,740L825.5,740z"/>
					<path fill="#353154" d="M820.3,743.8c-7,0-12-1.9-14.5-5.5c-0.9-1.4-1.7-3-2.4-5l-0.1-0.4c-0.9-4-0.3-8,1.7-11
						c1.6-2.4,3.9-4,6.5-4.5c3.4-0.6,6.5,0,9.1,1.9c4.4,3.3,7.2,9.9,8.3,20.3l0.4,3.4l-3.4,0.4C823.9,743.7,822.1,743.8,820.3,743.8
						L820.3,743.8z M810,731.2c0.5,1.3,0.9,2.3,1.5,3.1c1,1.4,4.2,2.7,10,2.5c-1.3-8-3.7-10.9-5-11.9c-1-0.8-2.2-1-3.7-0.7
						c-1,0.2-1.7,0.9-2,1.5C809.9,727.1,809.6,729.1,810,731.2L810,731.2z"/>
				</g>
				<path fill="#353154" d="M820.2,743.8c-0.3,0-0.6,0-0.9,0c-6.5-0.2-11.2-2.1-13.5-5.5c-2.1-3-2.9-6.6-3.9-10.4
					c-0.4-1.5-0.7-3-1.2-4.5c-6.4-21.7-27-61.6-44-85.4c-1.1-1.6-0.7-3.7,0.8-4.8c1.6-1.1,3.7-0.7,4.8,0.8
					c17.7,24.8,38.3,64.8,45,87.5c0.5,1.7,0.9,3.3,1.3,4.8c0.8,3.3,1.5,6.2,2.9,8.1c1,1.5,4,2.4,8,2.5c11.1,0.3,28.9-5.8,35.2-14
					c15.1-19.7,1.7-77.8,1.6-78.4c-0.4-1.9,0.7-3.7,2.6-4.2c1.9-0.4,3.7,0.7,4.2,2.6c0.6,2.5,14.3,62-2.8,84.2
					C852.6,737.1,833.3,743.8,820.2,743.8L820.2,743.8z"/>
				<path fill="#353154" d="M820.3,743.8c-7,0-12-1.9-14.5-5.5c-0.9-1.4-1.7-3-2.4-5c-0.6-1.8,0.4-3.8,2.2-4.4
					c1.8-0.6,3.8,0.4,4.4,2.2c0.5,1.4,1,2.5,1.5,3.3c1.1,1.6,5.4,3.2,13.6,2.2c1.9-0.2,3.6,1.1,3.9,3c0.2,1.9-1.1,3.6-3,3.9
					C823.9,743.7,822.1,743.8,820.3,743.8L820.3,743.8z"/>
				<path fill="#8B9BCF" d="M940.2,674.9c-6.3,19.4,2,40-3.8,50.2c-4.6,8.2-42.8,12.5-52.7,3.8c-2.9-2.6-6.4-23.9-5.8-45.5
					c0.2-8.3,1.1-16.7,2.8-24.1c0.4-1.6,0.8-3.2,1.2-4.7l41.2-142.7c15.3,3.6,38.9,29.4,43.5,54.9
					C976.5,621.6,950.1,644.2,940.2,674.9L940.2,674.9z"/>
				<g opacity="0.15">
					<path fill="#353154" d="M940.2,674.9c-6.3,19.4,2,40-3.8,50.2c-4.6,8.2-42.8,12.5-52.7,3.8c-0.7-0.6-1.5-2.4-2.2-4.9
						c13.4,5.6,44.8,1.4,48.9-6c5.8-10.2-4-23.6,7.5-49.6c3.2-7.2,8.7-14.3,15-21.6C948.2,656.2,943.4,665.1,940.2,674.9
						L940.2,674.9z"/>
				</g>
				<g opacity="0.15">
					<path fill="#353154" d="M942.7,643.3c-17.7,31.6-53.3,38.6-64.8,40c0.2-8.3,1.1-16.7,2.8-24.1L942.7,643.3L942.7,643.3z"/>
				</g>
				<path fill="#353154" d="M921.5,734.1L921.5,734.1c-1.9,0-3.5-1.2-3.5-2.7c0-3.9-1.3-10.8-4.8-12.8c-0.7-0.4-1.7-0.8-3.8-0.3
					c-3.4,0.8-4.7,7.8-4.2,12.5c0.1,1.5-1.3,2.8-3.2,2.9c-1.9,0.1-3.6-1-3.7-2.5c-0.2-1.6-1.2-15.8,9.2-18.1c4.7-1,8,0.1,9.9,1.2
					c7.4,4.3,7.5,15.8,7.5,17.1C925,732.9,923.4,734.1,921.5,734.1L921.5,734.1z"/>
				<g>
					<path fill="#FFFFFF" d="M901.6,733.6c-7.6-0.3-14.5-1.7-17.9-4.7c-0.5-0.5-1.1-1.5-1.6-3.1c0.6-4.6,2.4-9.3,6.6-10.4
						C899.1,712.8,901.2,727.3,901.6,733.6z"/>
					<path fill="#353154" d="M902.1,734.1l-0.5,0c-8.5-0.3-15-2-18.2-4.9c-0.6-0.5-1.2-1.6-1.7-3.3l0-0.1l0-0.1
						c0.9-6.2,3.2-9.8,7-10.8c2.7-0.7,5.1-0.3,7.1,1.2c4.8,3.5,6.1,12.5,6.4,17.5L902.1,734.1L902.1,734.1z M882.6,725.8
						c0.7,1.9,1.2,2.5,1.4,2.8c3,2.6,9,4.3,17.1,4.6c-0.4-4.9-1.6-13-6-16.2c-1.7-1.3-3.8-1.6-6.3-1
						C885.5,716.7,883.4,720.1,882.6,725.8z"/>
				</g>
				<path fill="#FFFFFF" d="M921.2,732c-6,1.2-13,1.8-19.4,1.6c0-5,0.7-15.3,6.8-17.1C917.7,713.9,920.4,725.2,921.2,732z"/>
				<path fill="#FFFFFF" d="M921.2,732c-6,1.2-13,1.8-19.4,1.6c0,0-0.1,0-0.1,0c-7.6-0.3-14.5-1.7-17.9-4.7
					c-0.5-0.5-1.1-1.5-1.6-3.1"/>
				<path fill="#353154" d="M905.3,737.2l-3.8-0.1c-6.5-0.2-15.3-1.4-20.1-5.6c-1-0.9-1.8-2.3-2.6-4.6l-0.3-0.8l0.1-0.8
					c1.3-9.4,5.7-12.4,9.2-13.3c3.6-0.9,6.9-0.3,9.6,1.6c5.5,4,7.2,12.9,7.6,19.7L905.3,737.2L905.3,737.2z M886.1,726.4
					c2.1,1.7,6.2,3,11.6,3.5c-0.8-5.2-2.3-9.1-4.4-10.6c-0.6-0.5-1.7-1-3.8-0.5c-2.3,0.6-3.4,3.8-3.9,6.6
					C885.9,726,886,726.3,886.1,726.4L886.1,726.4z"/>
				<path fill="#353154" d="M904.3,737.1c-0.9,0-1.8,0-2.7,0l-3.4-0.1v-3.4c0-6.6,1.2-18.1,9.3-20.4c4.4-1.3,7.5-0.1,9.4,1.2
					c4.1,2.8,6.7,8.6,7.7,17.2l0.4,3.2l-3.1,0.6C916.2,736.6,910.1,737.1,904.3,737.1L904.3,737.1z M911.1,719.6
					c-0.5,0-1,0.1-1.7,0.3c-2.2,0.6-3.7,4.6-4.1,10.3c3.9-0.1,8-0.4,11.9-1c-0.9-4.5-2.3-7.8-4.2-9
					C912.7,719.9,912.1,719.6,911.1,719.6L911.1,719.6z"/>
				<path fill="#353154" d="M904.1,737.1c-8.7,0-17.8-1.3-22.7-5.7c-4.8-4.2-6.4-26.7-6.7-31.1c-0.6-10.6-1-30.8,3.9-46.9
					c0.6-1.8,2.5-2.9,4.3-2.3c1.8,0.6,2.9,2.5,2.3,4.3c-7.9,26-2.1,66.5,0.8,70.8c4.5,3.8,18.6,5,32.1,2.7
					c9.7-1.6,14.4-4.3,15.1-5.6c2.3-4,1.8-10.9,1.4-18.8c-0.6-9.4-1.3-20.2,2.2-30.8c2.9-8.8,7-16.8,11.3-25.2
					c10.8-21.1,22-42.9,15-81.2c-4.3-23.6-22.3-49.7-36.6-53c-1.9-0.4-3-2.3-2.6-4.2c0.4-1.9,2.3-3,4.2-2.6
					c16.9,4,37,31.7,41.8,58.5c7.3,40.7-4.9,64.5-15.7,85.6c-4.2,8.2-8.2,15.9-10.8,24.2c-3.1,9.4-2.4,19.4-1.9,28.3
					c0.6,9,1.1,16.8-2.2,22.6c-2.9,5.2-12.5,7.8-20,9.1C915.3,736.6,909.8,737.1,904.1,737.1L904.1,737.1z M886.1,726.4"/>
				<path fill="#353154" d="M904.3,737.1c-0.9,0-1.8,0-2.7,0c-0.1,0-0.2,0-0.3,0c-6.5-0.2-15.2-1.4-19.9-5.6c-1-0.9-1.8-2.3-2.6-4.6
					c-0.6-1.8,0.3-3.8,2.2-4.4c1.8-0.6,3.8,0.4,4.4,2.2c0.4,1.1,0.6,1.5,0.7,1.7c2.6,2.2,8.2,3.5,15.6,3.8l0.3,0
					c5.9,0.2,12.6-0.4,18.5-1.6c1.9-0.4,3.7,0.8,4.1,2.7s-0.8,3.7-2.7,4.1C916.2,736.5,910.1,737.1,904.3,737.1L904.3,737.1z"/>
				<path fill="#8B9BCF" d="M940.8,525.8l-7.7,126c-15.1,17.3-43.4,20-60.7,20.8c-17.1,2.1-35.9,3.4-49.2,2.2
					c-80-26.9-88.6-78.3-93.2-113.8l68.5-31.6c0,0,23.1-8.6,52-13.7C881,510.4,917.9,509,940.8,525.8L940.8,525.8z"/>
				<g opacity="0.15">
					<g>
						<path fill="#020203" d="M942.7,643.3c-15.1,17.3-43.1,27.3-60.3,28c-17.1,2.1-34,6.9-47.3,5.7
							c-88.6-7.7-100.1-81.3-104.8-116.7l77.9-39.4c0,0,23.1-8.6,52-13.7c6.5,11.6,14.8,31.5,12.4,54.6c-3.9,37-80.3,22.7-81.2,64.3
							c-0.9,40,56.5,31.3,56.5,31.3l33.2-8.3c0,0,1.8,6.2,19.6,7.3C918.5,657.4,942.7,643.3,942.7,643.3L942.7,643.3z"/>
					</g>
				</g>
				<path fill="#353154" d="M938.8,521.6c-28.1-19.7-62.8-14.5-94.6-7.5c-11.7,2.7-23.5,6.1-34.8,10.1c1.7-1-77.9,39.5-77.5,39.3
					l1.9-3.6c5.6,45.7,21.8,89.5,68.4,106.5c9.4,3.5,19.3,5.6,29.3,6.8c7.7,1.1,15.4,0.5,23.2-0.7c9-1.3,18.2-3.2,27.5-4.2
					c5.4-0.2,10.9-1.1,16.2-2.5c10.7-2.8,21.1-7.2,30.3-13.2c4.6-3,8.9-6.5,12.7-10.6c1.5-1.6,4,0.5,2.6,2.3
					c-7.5,9-17.4,15.5-27.9,20.5c-10.6,4.9-21.8,8.5-33.6,9.3c-7.7,1-18,3.2-26.9,4.6c-6.9,1.1-14.3,2.1-21.4,1.5
					c-1.7-0.1-5.3-0.5-7-0.7c-23.5-2.9-46.8-12.1-63.8-29c-24.7-24-33.4-59.4-37-92.3l2.2-1.1l77.9-39.4
					c34.1-11.8,64.4-19.4,100.6-15c12.6,1.7,25.3,5.5,35.7,13.1C946.5,518.8,942.6,524.2,938.8,521.6L938.8,521.6L938.8,521.6z"/>
				<path fill="#8B9BCF" d="M809.8,653.2c6.2,18.9,12.2,50.8,14.4,68.8c0.4,3-1.9,8.9-0.5,12.6c4.8,12.4,41.7,9.4,51.1-3.6
					c12.7-17.6,6.3-81.9,6.3-81.9"/>
				<g opacity="0.15">
					<path fill="#353154" d="M874.7,731c-9.4,13-46.3,16-51.1,3.6c-0.9-2.3-0.4-5.4,0.1-8.1c8.2,9.7,41,6.3,49.7-5.9
						c9.5-13.2,8.3-52.5,7.1-71.5l0.5,0C881,649.2,887.4,713.4,874.7,731L874.7,731z"/>
				</g>
				<path fill="#FFFFFF" d="M842.9,742.5c-9.2-0.1-17.2-2.5-19.3-7.9c-0.4-1-0.5-2.2-0.5-3.5c1.7-3.3,4.3-6.3,8.3-6.7
					C840,723.6,843.4,733.5,842.9,742.5z"/>
				<path fill="#FFFFFF" d="M863,739c-6.1,2.3-13.3,3.5-19.9,3.5c-0.1-2.3-0.4-16,7.8-17.3C858.3,724,862,732.1,863,739L863,739z"/>
				<path fill="#FFFFFF" d="M863,739c-6.1,2.3-13.3,3.5-19.9,3.5h-0.1c-9.2-0.1-17.2-2.5-19.3-7.9c-0.4-1-0.5-2.2-0.5-3.5"/>
				<path fill="#353154" d="M846.2,746l-3.3,0c-11.9-0.1-20.1-3.7-22.5-10.1c-0.5-1.4-0.8-3-0.7-4.8l0-0.7l0.3-0.7
					c3.2-6.5,7.8-8.3,11-8.6c3.7-0.4,7,0.7,9.6,3.2c4,3.8,6.1,10.7,5.7,18.5L846.2,746L846.2,746z M826.6,732.1
					c0,0.7,0.1,1.1,0.2,1.3c1.1,2.9,5.9,4.9,12.6,5.5c-0.3-4.2-1.6-7.8-3.5-9.6c-1.1-1.1-2.5-1.5-4.1-1.3
					C831,728,828.7,728.3,826.6,732.1L826.6,732.1z"/>
				<path fill="#353154" d="M843.2,746c-0.1,0-0.1,0-0.2,0l-3.3,0l-0.2-3.3c-0.4-9.2,2.1-19.5,10.7-20.9c3.2-0.5,6.3,0.2,8.8,2.1
					c5.3,3.9,6.9,11.6,7.3,14.6l0.4,2.7l-2.6,1C858,744.6,850.3,746,843.2,746L843.2,746z M852.3,728.6c-0.3,0-0.6,0-0.9,0.1
					c-3.4,0.5-4.6,5.9-4.9,10.3c4.2-0.3,8.6-1,12.5-2.2c-0.8-3.3-2.3-6-4-7.2C854.2,728.9,853.3,728.6,852.3,728.6L852.3,728.6z"/>
				<path fill="#353154" d="M811.4,652.7c9,21.7,12.9,45.1,16.3,68.2c0.7,3.8-1.2,8.1-0.7,11.9c0.4,1.6,1.6,2.6,3.5,3.6
					c10.6,4.8,33.1,1.8,40.9-7.3c10.4-14.7,7.7-60.5,7.8-79.8c-0.1-2.1,3.1-2.5,3.5-0.3c1.6,9.3,2.4,18.6,2.9,27.9
					c0.6,14.1,0.5,28.5-2.5,42.5c-2.5,12-7.2,18.7-18.9,23.1c-11.3,4.1-25.9,5.8-37.1,0.6c-3.6-1.8-6.8-4.9-7.6-9
					c-0.8-3.9,0.6-7.8,0.8-11.5c-0.5-4.9-1.2-9.7-1.9-14.6c-2.9-18.2-6.5-36.3-10.4-54.4C807.7,651.8,810.5,650.8,811.4,652.7
					L811.4,652.7L811.4,652.7z"/>
				<path fill="#353154" d="M863.6,740.6c-3.1,3-7.1,4-11.2,4.8c-9.2,1.8-24.1,1.7-30.2-7c-1.3-2-1.8-5.1-0.9-7.3
					c0.4-0.9,1.4-1.4,2.4-1.1c0.6,0.2,0.9,0.7,1.1,1.2c2.2,6.1,10.1,6.9,15.8,7.3c5.3,0.3,10.8-0.2,16.1-1c1.8-0.2,3.7-0.3,5.7-0.1
					C864,737.5,864.7,739.6,863.6,740.6L863.6,740.6L863.6,740.6z"/>
			</g>
			<g>
				<path id="path274_00000060020311351321174230000013693583541336238245_" fill="#363254" d="M800.1,631c-0.2,1.2,0.6,2.1,1.8,2.1
					h6.9c1.2,0,2.4-1,2.6-2.1l1.8-9.4c0.2-1.2,1.4-2.1,2.6-2.1h7.5c4.2,0,7.7-0.4,10.5-1.3c2.7-0.9,5.2-2.4,7.5-4.5
					c1.9-1.7,3.4-3.6,4.6-5.7c1.2-2.1,2-4.4,2.5-6.9c1.2-6.1,0-10.6-2.7-14.2c-3.4-4.5-12.1-4.8-12.1-4.8c-1.2-0.2-3.1-0.3-4.3-0.3
					h-17.3c-1.2,0-2.4,1-2.6,2.1L800.1,631z M827.1,589.9c4.3,0,7.1,0.8,8.5,2.3c1.4,1.6,1.8,4.3,1,8.1c-0.8,4-2.3,6.8-4.5,8.5
					c-2.2,1.7-8,2.3-8,2.3c-1.2,0.1-3.2,0.2-4.3,0.2h-2.5c-1.2,0-2-1-1.8-2.1l3.4-17.2c0.2-1.2,1.4-2.1,2.6-2.1H827.1"/>
				<path fill="#FFFFFF" d="M808.7,635.5h-6.9c-1.3,0-2.5-0.5-3.3-1.5c-0.8-0.9-1.1-2.2-0.8-3.5l9.2-47c0.5-2.3,2.6-4.1,4.9-4.1
					h17.3c1.3,0,3.2,0.1,4.5,0.3c1.5,0.1,9.9,0.6,13.8,5.7c3.4,4.5,4.4,9.7,3.1,16.1c-0.5,2.7-1.5,5.3-2.7,7.6c-1.3,2.3-3,4.4-5,6.3
					c-2.5,2.3-5.3,4-8.4,5c-3,1-6.7,1.4-11.2,1.4h-7.5c-0.1,0-0.2,0.1-0.3,0.2l-1.8,9.4C813.2,633.7,811.1,635.5,808.7,635.5z
					 M802.6,630.7h6.2c0.1,0,0.2-0.1,0.3-0.2l1.8-9.4c0.5-2.3,2.6-4,4.9-4h7.5c4,0,7.3-0.4,9.8-1.2c2.4-0.8,4.6-2.1,6.6-3.9
					c1.7-1.6,3.1-3.3,4.1-5.1c1-1.8,1.8-3.9,2.2-6.1c1-5,0.3-8.9-2.3-12.3c-2.2-2.9-8.3-3.7-10.2-3.8l-0.3,0c-1.1-0.2-2.9-0.3-4-0.3
					h-17.3c-0.1,0-0.2,0.1-0.3,0.2L802.6,630.7z M819.8,613.8h-2.5c-1.3,0-2.5-0.5-3.3-1.5c-0.8-0.9-1.1-2.2-0.8-3.5l3.4-17.2
					c0.4-2.3,2.6-4.1,4.9-4.1h5.5c5,0,8.4,1,10.3,3.1c2,2.2,2.5,5.5,1.6,10.1c-0.9,4.5-2.7,7.9-5.4,9.9c-2.6,2-8.1,2.7-9.2,2.8
					C823.1,613.7,821.1,613.8,819.8,613.8z M818.1,609h1.8c1.1,0,3-0.1,4.1-0.2c2.1-0.2,5.6-0.9,6.8-1.8c1.7-1.3,2.9-3.7,3.6-7.1
					c0.6-2.9,0.4-5-0.4-6c-0.5-0.6-2.1-1.6-6.8-1.6h-5.5c-0.1,0-0.2,0.1-0.3,0.2L818.1,609z"/>
				<path id="path278_00000013913411253887376780000015123176197209483442_" fill="#363254" d="M859.1,570.4
					c0.2-1.2,1.4-2.1,2.6-2.1h6.8c1.2,0,2,1,1.8,2.1l-1.8,9.4c-0.2,1.2,0.6,2.1,1.8,2.1h5.6c1.2,0,3.2,0.1,4.3,0.2
					c0,0,8.1,0.1,10.8,3c2.1,2.4,3.1,5.7,2.1,10.5l-4.2,21.7c-0.2,1.2-1.4,2.1-2.6,2.1h-7c-1.2,0-2-1-1.8-2.1l3.6-18.4
					c0.2-1.2,0.5-3.1,0.6-4.3c0,0,0.2-2.2-0.7-3.1c-0.9-0.9-2.7-1.4-5.6-1.4h-6.7c-1.2,0-2.4,1-2.6,2.1l-4.9,25.1
					c-0.2,1.2-1.4,2.1-2.6,2.1h-6.8c-1.2,0-2-1-1.8-2.1L859.1,570.4"/>
				<path fill="#FFFFFF" d="M886.2,621.8h-7c-1.3,0-2.5-0.5-3.3-1.5c-0.8-0.9-1.1-2.2-0.8-3.5l3.6-18.4c0.2-1.1,0.5-2.9,0.5-4
					c0-0.5,0-1.1-0.1-1.3c-0.2-0.1-1.1-0.6-3.8-0.6h-6.7c-0.1,0-0.2,0.1-0.3,0.2l-4.9,25.1c-0.4,2.3-2.6,4-4.9,4h-6.8
					c-1.3,0-2.5-0.5-3.3-1.5c-0.8-0.9-1.1-2.2-0.8-3.5l9.2-47c0.4-2.3,2.6-4,4.9-4h6.8c1.3,0,2.5,0.5,3.3,1.5
					c0.8,0.9,1.1,2.2,0.8,3.5l-1.7,8.6h4.9c1.2,0,3.2,0.1,4.5,0.2c1.8,0,9.3,0.4,12.4,3.8c2.9,3.2,3.7,7.3,2.7,12.6l-4.2,21.7
					C890.7,620.1,888.5,621.8,886.2,621.8z M879.9,617.1h6.3c0.1,0,0.2-0.1,0.3-0.2l4.2-21.7c1-5-0.4-7.2-1.6-8.5
					c-1.3-1.5-6.2-2.2-9-2.2l-0.2,0c-1.1-0.1-3-0.2-4.1-0.2h-5.6c-1.3,0-2.5-0.5-3.3-1.5c-0.8-0.9-1.1-2.2-0.8-3.5l1.7-8.6h-6.1
					c-0.1,0-0.2,0.1-0.3,0.2l-9.1,46.2h6.1c0.1,0,0.2-0.1,0.3-0.2l4.9-25.1c0.5-2.3,2.6-4,4.9-4h6.7c3.6,0,6,0.7,7.3,2.2
					c1.5,1.6,1.4,4.2,1.4,4.9c-0.1,1.3-0.4,3.3-0.6,4.6L879.9,617.1z M879.1,593.1L879.1,593.1L879.1,593.1z"/>
				<path id="path282_00000058582216542977381020000005806480704734410175_" fill="#363254" d="M893.6,631c-0.2,1.2,0.6,2.1,1.8,2.1
					h6.9c1.2,0,2.4-1,2.6-2.1l1.8-9.4c0.2-1.2,1.4-2.1,2.6-2.1h7.5c4.2,0,7.7-0.4,10.5-1.3c2.7-0.9,5.2-2.4,7.5-4.5
					c1.9-1.7,3.4-3.6,4.6-5.7c1.2-2.1,2-4.4,2.5-6.9c1.2-6.1,0.1-10.7-2.7-14.2c-3.5-4.4-12.1-4.8-12.1-4.8
					c-1.2-0.2-3.1-0.3-4.3-0.3h-17.3c-1.2,0-2.4,1-2.6,2.1L893.6,631z M920.6,589.9c4.3,0,7.1,0.8,8.5,2.3c1.4,1.6,1.8,4.3,1,8.1
					c-0.8,4-2.3,6.8-4.5,8.5c-2.2,1.7-8,2.3-8,2.3c-1.2,0.1-3.1,0.2-4.3,0.2h-2.5c-1.2,0-2-1-1.8-2.1l3.4-17.2
					c0.2-1.2,1.4-2.1,2.6-2.1L920.6,589.9"/>
				<path fill="#FFFFFF" d="M902.2,635.5h-6.9c-1.3,0-2.5-0.5-3.3-1.5c-0.8-0.9-1.1-2.2-0.8-3.5l9.2-47c0.4-2.3,2.6-4.1,4.9-4.1
					h17.3c1.3,0,3.2,0.1,4.6,0.3c1.5,0.1,9.8,0.7,13.7,5.6c3.4,4.2,4.4,9.7,3.2,16.1c-0.5,2.7-1.5,5.3-2.7,7.6c-1.3,2.3-3,4.4-5,6.3
					c-2.5,2.3-5.3,4-8.4,5c-3,1-6.7,1.4-11.2,1.4h-7.5c-0.1,0-0.2,0.1-0.3,0.2l-1.8,9.4C906.7,633.7,904.5,635.5,902.2,635.5z
					 M896.1,630.7h6.2c0.1,0,0.2-0.1,0.3-0.2l1.8-9.4c0.4-2.3,2.6-4,4.9-4h7.5c4,0,7.3-0.4,9.8-1.2c2.4-0.8,4.6-2.1,6.6-3.9
					c1.7-1.5,3.1-3.3,4.1-5.1c1-1.8,1.8-3.9,2.2-6.1c1-5.1,0.3-9.1-2.2-12.2c-2.3-2.9-8.4-3.8-10.3-3.9l-0.3,0
					c-1.1-0.2-2.9-0.3-4-0.3h-17.3c-0.1,0-0.2,0.1-0.3,0.2L896.1,630.7z M913.3,613.8h-2.5c-1.3,0-2.5-0.5-3.3-1.5
					c-0.8-0.9-1.1-2.2-0.8-3.5l3.4-17.2c0.4-2.3,2.6-4.1,4.9-4.1h5.5c5,0,8.4,1,10.3,3.1c2,2.2,2.5,5.5,1.6,10.1
					c-0.9,4.5-2.7,7.9-5.4,9.9c-2.6,2-8.1,2.7-9.2,2.8C916.6,613.7,914.6,613.8,913.3,613.8z M911.5,609h1.8c1.1,0,3-0.1,4.1-0.2
					c2.1-0.2,5.6-0.9,6.8-1.8c1.7-1.3,2.9-3.7,3.6-7.1c0.6-2.9,0.4-5-0.4-6c-0.5-0.6-2.1-1.6-6.8-1.6H915c-0.1,0-0.2,0.1-0.3,0.2
					L911.5,609z"/>
				<path id="path286_00000103975007502909103950000010741907833207778966_" fill="#363254" d="M800.1,631c-0.2,1.2,0.6,2.1,1.8,2.1
					h6.9c1.2,0,2.4-1,2.6-2.1l1.8-9.4c0.2-1.2,1.4-2.1,2.6-2.1h7.5c4.2,0,7.7-0.4,10.5-1.3c2.7-0.9,5.2-2.4,7.5-4.5
					c1.9-1.7,3.4-3.6,4.6-5.7c1.2-2.1,2-4.4,2.5-6.9c1.2-6.1,0-10.6-2.7-14.2c-3.4-4.5-12.1-4.8-12.1-4.8c-1.2-0.2-3.1-0.3-4.3-0.3
					h-17.3c-1.2,0-2.4,1-2.6,2.1L800.1,631z M827.1,589.9c4.3,0,7.1,0.8,8.5,2.3c1.4,1.6,1.8,4.3,1,8.1c-0.8,4-2.3,6.8-4.5,8.5
					c-2.2,1.7-8,2.3-8,2.3c-1.2,0.1-3.2,0.2-4.3,0.2h-2.5c-1.2,0-2-1-1.8-2.1l3.4-17.2c0.2-1.2,1.4-2.1,2.6-2.1H827.1"/>
				<path id="path288_00000049904488366026733650000014441754638523406744_" fill="#363254" d="M859.1,570.4
					c0.2-1.2,1.4-2.1,2.6-2.1h6.8c1.2,0,2,1,1.8,2.1l-1.8,9.4c-0.2,1.2,0.6,2.1,1.8,2.1h5.6c1.2,0,3.2,0.1,4.3,0.2
					c0,0,8.1,0.1,10.8,3c2.1,2.4,3.1,5.7,2.1,10.5l-4.2,21.7c-0.2,1.2-1.4,2.1-2.6,2.1h-7c-1.2,0-2-1-1.8-2.1l3.6-18.4
					c0.2-1.2,0.5-3.1,0.6-4.3c0,0,0.2-2.2-0.7-3.1c-0.9-0.9-2.7-1.4-5.6-1.4h-6.7c-1.2,0-2.4,1-2.6,2.1l-4.9,25.1
					c-0.2,1.2-1.4,2.1-2.6,2.1h-6.8c-1.2,0-2-1-1.8-2.1L859.1,570.4"/>
				<path id="path290_00000031182144977318429070000004712357441730089905_" fill="#363254" d="M893.6,631c-0.2,1.2,0.6,2.1,1.8,2.1
					h6.9c1.2,0,2.4-1,2.6-2.1l1.8-9.4c0.2-1.2,1.4-2.1,2.6-2.1h7.5c4.2,0,7.7-0.4,10.5-1.3c2.7-0.9,5.2-2.4,7.5-4.5
					c1.9-1.7,3.4-3.6,4.6-5.7c1.2-2.1,2-4.4,2.5-6.9c1.2-6.1,0.1-10.7-2.7-14.2c-3.5-4.4-12.1-4.8-12.1-4.8
					c-1.2-0.2-3.1-0.3-4.3-0.3h-17.3c-1.2,0-2.4,1-2.6,2.1L893.6,631z M920.6,589.9c4.3,0,7.1,0.8,8.5,2.3c1.4,1.6,1.8,4.3,1,8.1
					c-0.8,4-2.3,6.8-4.5,8.5c-2.2,1.7-8,2.3-8,2.3c-1.2,0.1-3.1,0.2-4.3,0.2h-2.5c-1.2,0-2-1-1.8-2.1l3.4-17.2
					c0.2-1.2,1.4-2.1,2.6-2.1L920.6,589.9"/>
			</g>
			<g>
				<g>
					<path fill="#C1C6D1" d="M973.3,498.1c-7.5,21.2-24.1,31.2-34.7,47.5c-15.3,23.4-13.5,43.2-38.5,44.1
						c-54.5,2-38.7-84.7-43.9-109.8l-10.9-28.6c21.4-31.8,58.4-53.5,85.3-49C963.1,407.7,986.3,461.1,973.3,498.1"/>
				</g>
				<g>
					<path fill="#8B9BCF" d="M973.3,498.1c-7.5,21.2-24.1,31.2-34.7,47.5c-15.3,23.4-13.5,43.2-38.5,44.1
						c-54.5,2-38.7-84.7-43.9-109.8l-10.9-28.6c21.4-31.8,58.4-53.5,85.3-49C963.1,407.7,986.3,461.1,973.3,498.1"/>
				</g>
				<g opacity="0.4">
					<g>
						<g>
							<path fill="#FFFFFF" d="M976,462.1c-6.4-25.2-23-49.2-43.3-52.6c-26.5-4.4-62.9,18.4-84.4,49.4l-2.9-7.6
								c21.4-31.8,58.4-53.5,85.3-49C953.4,406,971.6,433.4,976,462.1"/>
						</g>
					</g>
				</g>
				<g>
					<path fill="#353154" d="M900.2,592.4c-11.2,0.4-20.5-2.8-27.5-9.4c-17.3-16.6-17.6-51.7-17.8-77.3c-0.1-10.4-0.2-19.3-1.3-24.9
						l-10.8-28.4c-0.3-0.8-0.2-1.7,0.3-2.4c22.4-33.2,60.2-54.8,87.9-50.2c13.6,2.3,26.2,12.3,35.7,28.3c13,22.1,16.6,50,9.1,71.1
						l0,0c-4.9,13.7-13.3,22.9-21.5,31.8c-4.9,5.3-9.6,10.4-13.5,16.3c-4.5,6.9-7.6,13.6-10.2,19.6c-4.4,9.8-8.2,18.2-16.7,22.6
						C910.3,591,905.9,592.1,900.2,592.4z M970.7,497.2c7-19.7,3.6-45.8-8.7-66.6c-8.6-14.6-19.9-23.7-31.9-25.7
						c-25.1-4.2-60.8,16.3-81.8,46.8l10.4,27.3c0,0.1,0.1,0.3,0.1,0.4c1.3,6.1,1.3,15.4,1.4,26.2c0.2,24.7,0.5,58.5,16.2,73.5
						c6,5.7,13.7,8.3,23.6,8c15.7-0.6,19.5-8.9,25.7-22.7c2.8-6.1,5.9-13,10.6-20.3c4.1-6.3,9.1-11.7,14-17
						C958.1,518.6,966.2,509.9,970.7,497.2L970.7,497.2z"/>
				</g>
				<g>
					<path fill="#8B9BCF" d="M973.3,498.1c-7.5,21.2-24.1,31.2-34.7,47.5c-2.5,3.9-4.6,7.7-6.4,11.3c-9,18.1-11.2,32-32,32.8
						c-50.9,1.9-40.5-73.5-43.1-104l2.9-0.4c0,0,27.2-62.4,65.5-66.1c26.6-2.6,43.8,27,51.6,51.8l0,0l0,0c0.1,1.3,0.1,2.6,0.1,3.9
						C977,483,975.8,490.8,973.3,498.1"/>
				</g>
				<g>
					<path fill="#6980B8" d="M932.1,556.9c-9,18.1-11.2,32-32,32.8c-50.9,1.9-40.5-73.5-43.1-104l2.9-0.4c0,0,27.2-62.4,65.5-66.1
						c26.6-2.6,43.8,27,51.6,51.8l0,0l0,0c0.1,1.3,0.1,2.6,0.1,3.9c-3.9-4.8-37.7-38.6-62.5-24.7c-22.5,12.6-20.2,41-17.7,73.6
						c0.9,12.1-5.8,31.5,1.9,42.2C903.3,572.4,918.8,577.6,932.1,556.9"/>
				</g>
				<g>
					<path fill="#353154" d="M900.2,592.4c-11.2,0.4-20.5-2.8-27.5-9.4c-17.3-16.6-17.6-51.7-17.8-77.4c-0.1-7.7-0.1-14.3-0.6-19.6
						c-0.1-1.4,0.9-2.7,2.3-2.9l1.4-0.2c4.4-9.6,30.4-62.8,67-66.3c33.7-3.2,50.1,40.1,54.3,53.6c0.1,0.3,0.1,0.5,0.2,0.8
						c0.5,10.1-0.8,19.5-3.8,28c-4.9,13.7-13.3,22.9-21.6,31.8c-4.9,5.3-9.6,10.4-13.5,16.3c-4.5,6.9-7.6,13.6-10.2,19.6
						c-4.4,9.8-8.2,18.2-16.7,22.6C910.3,591,905.9,592.1,900.2,592.4z M925.6,421.9c-36.3,3.5-63,63.9-63.3,64.5
						c-0.4,0.9-1.2,1.5-2.1,1.6l-0.4,0.1c0.3,5.1,0.4,11.1,0.4,17.5c0.2,24.7,0.5,58.5,16.2,73.5c6,5.7,13.7,8.3,23.6,8
						c15.7-0.6,19.5-8.9,25.7-22.7c2.8-6.1,5.9-13,10.6-20.3c4.1-6.3,9.1-11.7,14-17c7.8-8.5,15.9-17.2,20.4-29.9c0,0,0,0,0,0
						c2.7-7.7,3.9-16.3,3.5-25.6C970.2,458.8,955.1,419.1,925.6,421.9z"/>
				</g>
				<g>
					<path fill="#C1C6D1" d="M734.7,565.6c-35-20.7-52.5-56.6-49.2-77.3c2.7-16.6,12.4-24.5,18.5-29.9c18.7-35.9,38.6-60,68.9-67.4
						c27.3-6.7,67.8,5.1,95.2,29.6c16.5,14.6,56.1,51.2,11.2,132.1c-7.7,18.8-19.1,31.8-36,37.7C824,597.1,782.3,596.9,734.7,565.6"
						/>
				</g>
				<g>
					<path fill="#8B9BCF" d="M688.2,510.8c6.3,18.8,22.2,40.4,46.5,54.8c47.6,31.3,89.3,31.5,108.6,24.7
						c14.9-5.2,25.6-15.9,33.1-31.4c1-2,2-4.2,2.8-6.4c45-80.9,5.3-117.5-11.2-132.1c-27.5-24.4-67.9-36.3-95.2-29.6
						c-30.3,7.4-50.2,31.6-68.9,67.4c-6.1,5.4-15.8,13.3-18.5,29.9C684.4,494.7,685.4,502.5,688.2,510.8"/>
				</g>
				<g opacity="0.4">
					<g>
						<g>
							<path fill="#FFFFFF" d="M753.9,398.5c3.5-1.4,7.2-2.6,11-3.6c28.2-6.9,69.8,5.3,98.1,30.5c17,15.1,57.8,52.8,11.5,136.1
								c-0.6,1.6-1.3,3.1-2,4.7c1.4-2.2,2.7-4.6,3.9-7.1c1-2,2-4.2,2.8-6.4c45-80.9,5.3-117.5-11.2-132.1
								c-27.5-24.4-67.9-36.3-95.2-29.6C766,392.7,759.7,395.2,753.9,398.5"/>
						</g>
					</g>
				</g>
				<g>
					<path fill="#353154" d="M799.1,594.9c-22-3.7-44.2-12.7-65.9-27c-35.7-21.2-54-58-50.4-80c2.7-16.8,12.2-25.2,18.6-30.7
						l0.4-0.4c21.5-41,42.5-61.5,70.4-68.3c28.9-7.1,70,5.6,97.6,30.2c7.4,6.5,22.7,20.2,29.4,42.4c7.9,26.3,2,57.5-17.6,92.8
						c-8.3,20.4-20.6,33.2-37.5,39.1c-7,2.4-15.7,3.7-25.1,3.7C812.6,596.6,805.9,596,799.1,594.9z M773.5,393.6
						c-26.3,6.5-46.4,26.2-67.2,66.1l-0.2,0.4l-1.2,1c-6.1,5.3-14.4,12.7-16.8,27.6c-1.6,9.9,2.1,23.7,9.9,36.9
						c8.9,15.1,22.4,28.5,38.1,37.7l0.1,0.1c21.1,13.9,42.6,22.7,63.9,26.2c16.1,2.7,31.5,2,42.3-1.8c15.4-5.4,26.7-17.2,34.4-36.2
						l0.1-0.3c44.4-79.9,4.5-115.4-10.6-128.8c-21.3-18.9-52-30.7-77.1-30.7C783.6,391.9,778.3,392.4,773.5,393.6z"/>
				</g>
				<g>
					<path fill="#353154" d="M857.7,479.5c0,0,2.6-10.7-5-17.5c-6.4-5.8-11.5,1.7-5.9,7.7C851.2,474.5,857.7,479.5,857.7,479.5"/>
				</g>
				<g>
					<path fill="#353154" d="M753.5,415.8c0,0,9.6-6.8,15.2-3.8c7.8,4.1,3.8,10.4-2.5,9C762.6,420.2,753.5,415.8,753.5,415.8"/>
				</g>
				<g>
					<path id="path264_00000061457336395408632800000017200460502290503304_" fill="#363254" d="M809.9,529.2
						c-9.5-2.2-15-10.5-12.2-18.6c2.8-8.1,12.8-12.9,22.3-10.8c9.5,2.2,15,10.5,12.2,18.6C829.4,526.5,819.4,531.4,809.9,529.2z
						 M836.3,519c3.3-9.5-3.2-19.2-14.5-21.7c-11.3-2.5-23.1,3-26.4,12.5c-3.3,9.4,3.2,19.2,14.5,21.7
						C821.2,534,833,528.5,836.3,519"/>
					<path id="path266_00000074436788354785848310000015392959636757718677_" fill="#FDFDFD" d="M831.4,518.8
						c-2.5,7.1-11.2,11.4-19.6,9.5c-8.4-1.9-13.1-9.2-10.7-16.3c2.5-7.1,11.2-11.4,19.6-9.5C829.1,504.3,833.9,511.7,831.4,518.8"/>
					<path id="path268_00000085947798609255665680000015668113597887167657_" fill="#363254" d="M830.2,518.4
						c0.3-6.2-3.8-11.7-9.1-12.3c-2.8-0.4-5.4,0.8-7.3,2.8l5,6.2l-7.9,1.5c0,5.9,3.9,11.1,9.1,11.8
						C825.4,528.9,829.9,524.5,830.2,518.4"/>
					<path id="path270_00000160177939422971851250000003333074833072353213_" fill="#FFFFFF" d="M826.5,513.9c1.2,0.4,2,2.4,1.6,4.5
						c-0.4,2.1-1.7,3.6-2.9,3.2c-1.2-0.4-2-2.4-1.6-4.5C823.9,515,825.2,513.6,826.5,513.9"/>
				</g>
				<g>
					<path id="path264_00000059988602956165398790000005086222501015927710_" fill="#363254" d="M738,481.5c-6-1.4-9.4-6.6-7.7-11.7
						c1.8-5.1,8-8.1,14-6.8c6,1.4,9.4,6.6,7.7,11.7C750.3,479.8,744,482.8,738,481.5z M754.6,475.1c2.1-5.9-2-12.1-9.1-13.7
						c-7.1-1.6-14.5,1.9-16.6,7.8c-2.1,5.9,2,12.1,9.1,13.7C745.1,484.5,752.5,481,754.6,475.1"/>
					<path id="path266_00000059270373003339409960000002366847828072077984_" fill="#FDFDFD" d="M751.5,474.9
						c-1.5,4.5-7.1,7.2-12.3,6c-5.3-1.2-8.3-5.8-6.7-10.3c1.6-4.5,7.1-7.2,12.3-6C750.1,465.9,753.1,470.5,751.5,474.9"/>
					<path id="path268_00000085212206419959984340000017780832597513066410_" fill="#363254" d="M750.8,474.7
						c0.2-3.9-2.4-7.3-5.7-7.8c-1.8-0.2-3.4,0.5-4.6,1.7l3.2,3.9l-5,1c0,3.7,2.5,7,5.7,7.4C747.7,481.3,750.6,478.5,750.8,474.7"/>
					<path id="path270_00000117676333399286976440000012283641124687022992_" fill="#FFFFFF" d="M748.4,471.9c0.8,0.2,1.2,1.5,1,2.8
						c-0.2,1.3-1.1,2.2-1.9,2c-0.8-0.2-1.2-1.5-1-2.8C746.8,472.6,747.6,471.7,748.4,471.9"/>
				</g>
			</g>
			<g>
				<g>
					<g>
						<g>
							<path fill="#8B9BCF" d="M765.6,486.9c-24.8-26.3-32.9,1.1-60.6-12.6c-12.7-6.3-32.4-18.2-41.4-29.5
								c-3.3-4.1-15.5-14.2-25.2-23.8c-0.1-0.2-0.3-0.3-0.4-0.5c-0.1-0.2-0.3-0.4-0.4-0.6c-0.5-0.7-1.1-1.4-1.6-2.1
								c-0.2-0.3-0.4-0.5-0.6-0.8c-0.5-0.7-1-1.3-1.4-2c-0.2-0.3-0.4-0.6-0.6-0.9c-0.4-0.6-0.9-1.3-1.3-1.9c-0.2-0.3-0.4-0.7-0.6-1
								c-0.4-0.6-0.8-1.2-1.2-1.8c-0.2-0.4-0.4-0.7-0.7-1.1c-0.4-0.6-0.7-1.2-1.1-1.8c-0.2-0.4-0.4-0.8-0.6-1.1
								c-0.3-0.6-0.7-1.2-1-1.8c-0.2-0.4-0.4-0.8-0.6-1.2c-0.3-0.6-0.6-1.2-0.9-1.8c-0.2-0.4-0.4-0.8-0.6-1.2
								c-0.3-0.6-0.6-1.2-0.8-1.8c-0.2-0.4-0.4-0.8-0.6-1.3c-0.3-0.6-0.5-1.2-0.8-1.9c-0.2-0.4-0.3-0.8-0.5-1.3
								c-0.3-0.6-0.5-1.3-0.7-2c-0.1-0.4-0.3-0.8-0.4-1.2c-0.3-0.7-0.5-1.4-0.7-2.2c-0.1-0.3-0.2-0.7-0.3-1c-0.3-1.1-0.7-2.2-1-3.2
								c-1-3.7-1.7-7.9-1-11.6c0.4-2.3,1.4-4.4,3.2-6c1.8-1.6,4.2-2.4,6.6-2.4c3.1,0,6.4,1.2,8.9,3.2c1.9,1.5,3.5,3.4,4.9,5.5
								c1.7,2.6,3.1,5.6,4.5,8.4v0c0.3-0.3,0.6-0.5,0.8-0.8c4.2-4.4,5.1-11.4,3-17.1c-2.2-6.1-7.2-10.9-12.8-14.2
								c-10.9-6.6-25.5-8-36.4-1.4c-9.2,5.6-16.2,19.6-16.9,30.4c-1.1,17.2,3.4,29.9,9.2,42.5c9.5,20.9,25.6,46.1,45.2,68.7
								c10.2,13.1,22.7,26.1,33.9,36.6c45.9,42.8,108.3,31.5,108.3,31.5l5.3-55.5L765.6,486.9z"/>
						</g>
						<path fill="#020203" fill-opacity="0.15" d="M792.7,546c-49.7,21.5-92.8-14.2-117.1-32.1c-30.7-22.5-94.3-107.1-91.7-135.8
							c-0.2,0.9-0.4,1.9-0.6,2.9c-0.5,15.9,3.9,27.8,9.3,39.8c9.5,20.9,25.6,46.1,45.2,68.7c10.2,13.1,22.7,26.1,33.9,36.6
							c30.6,28.5,68.5,33,90.4,32.8c6.1-1.5,11.3,4.6,17.4,1.7L792.7,546z"/>
						<g>
							<path fill="#353154" d="M740.7,512.9c1-1.4,1.8-2.8,2.4-4.4c0.3-0.8,0.6-1.6,0.9-2.4c0.2-0.8,0.4-1.6,0.6-2.5
								c0.7-3.4,0.7-6.9-0.1-10.4c-0.1-0.9-0.4-1.7-0.7-2.6c-0.3-0.8-0.5-1.7-1-2.5l-1.2-2.4c-0.5-0.8-1-1.5-1.5-2.2
								c-0.3-0.4-0.5-0.7-0.8-1.1c-0.3-0.3-0.6-0.6-0.9-1c-0.6-0.6-1.2-1.3-1.9-1.9c-1.3-1.2-2.8-2.1-4.2-3.1c-1.6-1-3.7-0.6-4.7,1
								c-0.9,1.3-0.7,3,0.3,4.2l0.4,0.4c1,1.1,2.1,2,3.1,3c0.9,1.1,2,1.9,2.8,3.1l1.3,1.6l1.1,1.7c0.4,0.6,0.7,1.2,1,1.8
								c0.3,0.6,0.7,1.2,0.9,1.9c1.1,2.6,1.8,5.4,2,8.3c0.2,3,0,6.1-0.7,9.1l0,0c-0.1,0.3,0.1,0.5,0.4,0.6
								C740.4,513.1,740.6,513.1,740.7,512.9z"/>
						</g>
						<g>
							<path fill="#353154" d="M712.9,502.3c1-0.5,1.9-1.2,2.7-1.9c0.4-0.4,0.8-0.8,1.2-1.2c0.4-0.4,0.8-0.8,1.1-1.3
								c1.4-1.8,2.5-3.9,3-6.2c0.2-0.6,0.3-1.1,0.3-1.7c0.1-0.6,0.2-1.2,0.2-1.8l0-1.8c-0.1-0.6-0.2-1.2-0.3-1.7
								c-0.1-0.3-0.1-0.6-0.2-0.9c-0.1-0.3-0.2-0.6-0.3-0.8c-0.2-0.6-0.4-1.1-0.6-1.6c-0.4-1.1-1-2-1.6-3c-0.6-1.1-2-1.4-3.1-0.7
								c-0.9,0.5-1.3,1.6-1,2.6l0.1,0.4c0.3,0.9,0.7,1.8,1,2.6c0.2,0.9,0.6,1.7,0.8,2.6l0.3,1.3l0.2,1.3c0.1,0.4,0.1,0.9,0.1,1.3
								c0,0.5,0.1,0.9,0,1.4c-0.1,1.8-0.5,3.7-1.3,5.5c-0.7,1.8-1.8,3.6-3.1,5.2l0,0c-0.1,0.1-0.1,0.3,0.1,0.5
								C712.7,502.3,712.8,502.3,712.9,502.3z"/>
						</g>
						<path fill="none" stroke="#353154" stroke-width="4.7985" stroke-miterlimit="10" d="M784.5,502.4"/>
						<g>
							<path fill="#353154" d="M731,481.1c2-0.5,3.9-0.9,5.9-1.1c2-0.2,4-0.2,5.9-0.1c2,0.2,3.9,0.6,5.8,1.1
								c1.9,0.6,3.7,1.4,5.5,2.4c1.7,1,3.3,2.3,4.8,3.7c1.4,1.4,2.8,3.1,4,4.9c2.4,3.5,4,7.6,4.9,12.1c0,0.3,0.3,0.4,0.6,0.4
								c0.2,0,0.4-0.2,0.4-0.4c0.5-4.6-0.3-9.5-2.2-14c-0.5-1.1-1-2.2-1.6-3.3c-0.3-0.5-0.6-1.1-0.9-1.6c-0.3-0.5-0.7-1-1.1-1.5
								c-1.5-2-3.2-3.9-5.3-5.4c-4-3.1-8.9-5.2-14-5.9c-2.6-0.3-5.1-0.3-7.7,0c-2.5,0.4-5,1.1-7.3,2.1c-1.7,0.8-2.5,2.8-1.7,4.5
								c0.7,1.5,2.4,2.3,4,1.9L731,481.1z"/>
						</g>
					</g>
					<path fill="#353154" d="M786.9,499.3c-3.8-2.7-7.6-5.4-11.4-8.2c-2.3-1.6-4.6-3.3-6.9-4.9c-0.6-0.4-1.2-0.8-1.7-1.2
						c0,0-0.1-0.1-0.1-0.1c0.3,0.3-0.4-0.5-0.5-0.6c-1-1-2.1-2.1-3.2-3c-5.9-5.2-13-9.1-21-8.6c-3.1,0.2-6.2,0.9-9.2,1.6
						c-1.6,0.4-3.1,0.7-4.7,1c-1.8,0.4-2.8,0.5-4.6,0.6c-3.8,0.3-7.3-0.1-10.9-1.1c-4.4-1.3-8.4-3.4-12.4-5.6
						c-9.1-4.9-18.1-10.5-26.1-17.2c-3.4-2.9-6.4-6-9.4-9.4c-2.6-3-5.8-5.7-8.7-8.4c-4.2-3.8-8.5-7.6-12.6-11.6
						c-2-1.9-3.8-3.8-5.5-6c-1.8-2.4-3.4-4.8-5-7.3c-3-4.7-5.6-9.7-7.8-14.9c-2.2-5.3-4.5-11-5.1-16.8c-0.5-4.9,0.6-10.9,6.4-11.7
						c5.7-0.7,10.3,3.3,13.2,7.7c1.6,2.6,2.9,5.3,4.2,8.1c1,2.2,4.4,1,4.4-1.2c0,0,0,0,0,0c-0.2,0.6-0.5,1.1-0.7,1.7
						c5.3-4.8,6.8-12.9,4.7-19.6c-2.2-7.2-7.9-12.7-14.3-16.5c-12.5-7.4-29.9-8.6-41.6,0.9c-5.3,4.3-9.1,10.4-11.7,16.7
						c-2.8,6.7-3.7,13.6-3.5,20.9c0.4,14.7,5.6,28.3,12,41.4c6.8,13.9,14.9,27.1,23.9,39.6c4.9,6.9,10.1,13.7,15.6,20.2
						c5.3,6.4,10.3,13,15.7,19.3c5.1,6.1,10.5,12.1,16.6,17.4c6.3,5.5,13.4,10.2,20.6,14.5c12.4,7.5,25.8,13.6,39.7,17.8
						c9.6,2.9,19.6,4.8,29.6,5.6c4.7,0.4,9.5,0.5,14.1,0.1c0.2,0,0.4,0,0.6-0.1c1.3-0.2,2.4-1,2.4-2.4c0-1.2-1.1-2.6-2.4-2.4
						c-3,0.4-6.1,0.4-9.1,0.3c-8.4-0.2-15.9-1.3-24.1-3.1c-12.3-2.8-24.2-7.1-35.5-12.8c-13.9-6.9-27.6-15.5-38.6-26.6
						c-5.5-5.6-10.6-11.6-15.5-17.7c-2.5-3.1-4.8-6.3-7.4-9.3c-2.7-3.1-5.3-6.3-7.9-9.5c-9.8-12.3-18.7-25.2-26.5-38.8
						c-6.7-11.6-13.1-24-16.6-37c-1.9-7.2-2.7-14.6-2.4-22c0.3-6.4,2.2-12.5,5.3-18.1c3-5.4,7-10.3,12.6-13c6.1-3,13.4-3.5,20-2.1
						c11.7,2.5,27.6,12.6,24.1,26.7c-0.4,1.4-0.9,2.7-1.7,3.9c-0.8,1.3-2.8,2.5-2.8,4.1c1.5-0.4,3-0.8,4.4-1.2
						c-2.6-5.7-5.6-11.6-10.8-15.3c-4.9-3.4-12.2-4.3-17.1-0.4c-4.9,3.9-5.3,10.4-4.4,16.1c1,6,3.3,12,5.7,17.6
						c2.4,5.5,5.2,10.7,8.4,15.7c1.7,2.6,3.5,5.1,5.4,7.6c1.8,2.3,3.8,4.2,5.9,6.1c4.2,4,8.6,7.9,12.9,11.8c2.9,2.6,5.8,5.2,8.3,8.3
						c6.6,8.1,15.7,14.3,24.4,19.8c4.4,2.8,8.9,5.3,13.5,7.7c4.3,2.2,8.6,4.3,13.3,5.4c3.9,0.9,7.9,1.1,11.8,0.6
						c3.4-0.4,6.7-1.2,10-2c1.5-0.3,3-0.7,4.5-0.9c0.2,0,0.4-0.1,0.7-0.1c-0.4,0.1-0.1,0,0,0c0.4,0,0.7-0.1,1.1-0.1
						c0.8-0.1,1.6-0.1,2.5-0.1c1.8,0,2.7,0.1,4.5,0.6c1.9,0.5,3.2,1.1,4.9,2c2,1.1,3.8,2.4,5.6,3.9c1,0.9,2,1.8,3,2.8
						c0.8,0.8,1.5,1.7,2.4,2.3c1.4,1.1,2.9,2.1,4.4,3.1c4.9,3.5,9.8,7,14.7,10.5c0.3,0.2,0.7,0.5,1,0.7c1,0.8,2.7,0.2,3.3-0.9
						C788.5,501.3,788,500,786.9,499.3L786.9,499.3z"/>
				</g>
			</g>
		</g>
	</g>
	<g>
		<circle fill="#010202" cx="1068.6" cy="298.4" r="99.1"/>
		<path fill="none" stroke="#90A4AE" stroke-width="0.8731" stroke-miterlimit="10" d="M1068.6,298.4"/>
		<g>
			<path fill="#FFFFFF" d="M1101.9,238c-9.4,1.5-16.9,7.7-22.2,15.7c-5.8,8.7-9.1,18.6-11.1,28.6c-6.4-4-11.7-9.6-21.3-11.1
				c-7.5-1.2-14.9,0.7-21.2,6.7c-3,2.9-4.8,6.9-5.4,10.5c-1.6,9.4,5.1,16.8,8.1,19.4l6.5,5.4c1.3,1.1,4.6,3.8,3.7,8.5
				c-0.9,5.1-6.3,8.9-12.6,7.9c-2.8-0.5-6.9-2-6.4-4.9c0.2-1.2,0.9-2.2,1.2-3.2c0.3-0.9,0.4-1.6,0.5-2c0.6-3.7-1.4-8.2-5.4-8.9
				c-3.7-0.6-7.3,0.7-8.1,5.5c-1,5.5,2.8,14.7,16.7,17.1c16.4,2.8,28.6-7.4,29.1-18.8c0.3-7.2-3.5-12-10.2-17.9l-5.4-4.6
				c-3.2-2.5-4.8-7.2-2.3-11.4c2.1-3.5,5.5-5.3,11.5-4.4c8.8,1.2,13.3,6.7,20.3,10.6c-1.5,8.9-2.1,17.7-2.7,25.6l-0.2,5.9
				c-1.5,24.3-3.3,37.8-11.4,46.4c-1.6,1.5-4,3.8-7.9,4.4c-2,0.3-2.9-1-3-1.6c-0.2-1.4,0.9-2.2,1.6-3c1.1-0.8,2.8-2.1,2.2-5.6
				c-0.7-4.1-4.5-7.2-9.4-6.4c-3.7,0.6-8.9,4.8-7.8,11.1c1,6.5,7.8,10.7,17,9.2c4.9-0.8,15.6-4.2,24.9-18.4
				c10.7-16.4,12.1-33.7,13.2-46.5l0.9-16.7c1.7,0,3.4-0.1,5.4-0.3c15.8-1.7,22.6-10.8,22-16.7c-0.4-3.6-3.3-6.8-6.6-6.3
				c-2.4,0.4-5.3,2.4-5.6,5.8c-0.3,3.4,5.8,5.6,1.7,9.1c-2.9,2.5-8.4,4.6-16.6,4.5l0.4-8.2c1-15.6,2.3-34.9,16.2-37.1
				c1-0.2,4.7-0.6,5.1,1.9c0.1,0.8,0,1.1-0.8,3c-0.8,1.6-1,2.9-0.8,4.3c0.6,3.9,3.9,6.1,8.2,5.4c5.7-0.9,6.7-6.7,6.2-9.6
				C1118.9,239.9,1111.3,236.5,1101.9,238z"/>
		</g>
	</g>
	<g>
		<circle fill="#00AEA5" cx="839.3" cy="86.3" r="64"/>
		<g>
			<path fill="#FFFFFF" d="M787.9,78.4c-0.2,0-0.3-0.1-0.2-0.3l1.2-1.5c0.1-0.2,0.4-0.3,0.6-0.3h20.1c0.2,0,0.3,0.2,0.2,0.3l-1,1.5
				c-0.1,0.2-0.4,0.3-0.6,0.3L787.9,78.4z M779.4,83.6c-0.2,0-0.3-0.1-0.2-0.3l1.2-1.5c0.1-0.2,0.4-0.3,0.6-0.3h25.7
				c0.2,0,0.3,0.2,0.3,0.3l-0.5,1.4c-0.1,0.2-0.3,0.3-0.5,0.3L779.4,83.6z M793,88.8c-0.2,0-0.3-0.2-0.2-0.3l0.8-1.4
				c0.1-0.2,0.3-0.3,0.6-0.3h11.3c0.2,0,0.3,0.2,0.3,0.4l-0.1,1.4c0,0.2-0.2,0.4-0.4,0.4L793,88.8z M851.4,77.4
				c-3.5,0.9-6,1.6-9.5,2.5c-0.8,0.2-0.9,0.3-1.6-0.6c-0.8-1-1.5-1.6-2.6-2.1c-3.5-1.7-7-1.2-10.2,0.8c-3.8,2.5-5.8,6.1-5.7,10.7
				c0.1,4.5,3.2,8.2,7.6,8.8c3.8,0.5,7-0.8,9.6-3.7c0.5-0.6,1-1.3,1.5-2.1h-10.9c-1.2,0-1.5-0.7-1.1-1.7c0.7-1.7,2.1-4.7,2.9-6.1
				c0.2-0.3,0.6-0.9,1.4-0.9h20.5c-0.1,1.5-0.1,3-0.3,4.6c-0.6,4.1-2.1,7.8-4.6,11c-4.1,5.3-9.3,8.7-16,9.6
				c-5.5,0.7-10.6-0.3-15.1-3.7c-4.2-3.2-6.5-7.3-7.1-12.5c-0.7-6.1,1.1-11.6,4.8-16.5c4-5.2,9.3-8.6,15.8-9.7
				c5.3-1,10.4-0.3,14.9,2.8c3,2,5.1,4.7,6.5,7.9C852.3,77,852.1,77.2,851.4,77.4z"/>
			<path fill="#FFFFFF" d="M870,108.5c-5.1-0.1-9.8-1.6-13.7-5c-3.3-2.9-5.4-6.5-6.1-10.9c-1-6.4,0.7-12,4.6-17
				c4.1-5.4,9.1-8.2,15.8-9.4c5.7-1,11.1-0.5,16,2.9c4.4,3,7.2,7.1,7.9,12.5c1,7.6-1.2,13.8-6.5,19.1c-3.7,3.8-8.3,6.1-13.5,7.2
				C873,108.3,871.5,108.4,870,108.5L870,108.5z M883.4,85.8c-0.1-0.7-0.1-1.3-0.2-1.9c-1-5.6-6.1-8.7-11.5-7.5
				c-5.2,1.2-8.6,4.5-9.8,9.8c-1,4.4,1.1,8.8,5.2,10.6c3.1,1.4,6.2,1.2,9.2-0.3C880.7,94.2,883.1,90.6,883.4,85.8z"/>
		</g>
	</g>
	<circle fill="#38276B" cx="651.5" cy="769.6" r="67.2"/>
	<g>
		
			<linearGradient id="SVGID_00000036966998261202545170000002567773420520965509_" gradientUnits="userSpaceOnUse" x1="1487.7454" y1="2385.6208" x2="1487.3492" y2="2385.6167" gradientTransform="matrix(96.2845 0 0 -96.2845 -142549.7188 230468.2969)">
			<stop  offset="0" style="stop-color:#4B63AC"/>
			<stop  offset="1" style="stop-color:#3FB3E7"/>
		</linearGradient>
		<path fill="url(#SVGID_00000036966998261202545170000002567773420520965509_)" d="M671.2,736.5l3.5,5.5c0,0,1.3,2.1-0.4,3.3
			c-1.7,1.2-2.9-0.7-2.9-0.7c-1-1.3-1.9-2.7-2.8-4.1c-3.1,4.7-3.1,4.6-3.1,4.6c4.1,7.2,9.1,13.5,12.4,20.5c1.3,4.2,0.1,8.5-2.3,11.9
			c-0.7,1-2.4,2.1-3.7,1.2c-1.3-0.9-0.5-2.6,0.1-3.9c0.8-1.1,1.3-2.2,1.7-3.5c0.5-2.1,0.2-4.3-0.8-6.2c-3.3-5.4-6.6-10.7-10-16
			l-3,4.6c2.1,3.9,4.4,6.8,6.6,11.1c0.6,1.7,0.9,3,0.8,4.7c0,1.8-0.5,3.6-1.4,5.2c-2.1,3.9-7,11.1-7,11.1l3,4.8c0,0,5.1-8.1,5.4-8.4
			c0.7-0.8,2.1-0.8,2.9-0.3c0.8,0.5,1.1,1.6,0.9,2.3c-1.9,3.3-7,10.3-7,10.3l3.2,5.1c0,0,10.5-14.7,14.5-21.4
			c1.6-2.8,3.1-5.8,3.3-8.1c0.3-5.1-4.3-9.5-8.5-16.9c0,0-1.6-2.6,0.2-3.8c1.9-1.2,3.3,1.5,3.3,1.5l8.2,13c1.7,3.7,1.9,6.2,0.2,10.7
			c-2.9,5.1-13.2,20.5-18.8,29.1l3,4.8c1.1-0.5,3.1-2,4.2-3.4c6.1-9.3,12.2-18.5,18.3-28.1c3.4-4.1,3.4-10,0.1-14.2
			c-3.6-5.5-9.2-15.5-17.2-27.7c-1.1-1.4-2.5-2.5-4.1-3.3L671.2,736.5z M659.2,742.8L659.2,742.8c0,0.1,0,0.2,0,0.1
			C659.2,742.9,659.2,742.9,659.2,742.8C659.2,742.8,659.2,742.8,659.2,742.8L659.2,742.8z"/>
		
			<linearGradient id="SVGID_00000136399516296613436030000016183062187587606449_" gradientUnits="userSpaceOnUse" x1="1487.2278" y1="2385.6086" x2="1487.0879" y2="2385.8865" gradientTransform="matrix(96.2845 0 0 -96.2845 -142549.7188 230468.2969)">
			<stop  offset="0" style="stop-color:#444797"/>
			<stop  offset="1" style="stop-color:#824594"/>
		</linearGradient>
		<path fill="url(#SVGID_00000136399516296613436030000016183062187587606449_)" d="M645.2,730.3c-1.9,3.3-3.8,6.4-5.9,9.8
			c-2.4,3.5-6.2,5.7-10.4,6.1c-6.4,0.3-9.1,0.2-15,0.4c-1.1,1.4-2.2,3.3-3.1,4.7c3.3,0.1,7.9-0.1,11.9,0c1,0.3,1.6,1.3,1.5,2.2
			c-0.1,0.8-0.8,1.5-1.6,1.7l-14.8,0.4c0,0-3,4.5-3.1,4.7c6.3-0.1,20.7-0.3,29.4-0.4c4.5,0.2,7.2,0,10.1-1.8c1.6-1,2.7-2.4,4.5-5.6
			c2.6-4.4,3.6-6.1,6.7-10.9c0,0,1.4-1.1,2.8-0.3c1.5,0.9,0.7,2.7,0.7,2.7c-3.3,5.4-5.8,10.2-9.2,14.9c-5.3,5.8-13,5.1-17.9,5.2
			l-30.1,0.4c-1.1,1.7-1.7,3.8-1.7,5.8H649l25.1-38.3c-2.1-1.2-4.5-1.7-7-1.7l-4,6.4c0,0-1,1.4-2.7,0.7c-1.7-0.8-1.1-2.2-1.1-2.2
			l2.6-4.8h-5.8c-4.9,7.2-7.5,13.1-13,20.7c-4.2,3.6-8.6,4.4-13.3,4.1c-0.9-0.2-1.6-0.9-1.7-1.7c-0.2-1.1,0.6-2.1,1.8-2.3
			c1.7-0.1,3.3-0.2,5-0.3c2.2-0.4,4.3-1.6,5.7-3.4c3.3-4.9,6.3-10.4,10.4-17L645.2,730.3z"/>
		
			<linearGradient id="SVGID_00000042737641900467808450000002831962549655126154_" gradientUnits="userSpaceOnUse" x1="1487.2363" y1="2385.624" x2="1486.9039" y2="2385.0574" gradientTransform="matrix(96.2845 0 0 -96.2845 -142549.7188 230468.2969)">
			<stop  offset="0" style="stop-color:#A4338A"/>
			<stop  offset="1" style="stop-color:#A6539B"/>
		</linearGradient>
		<path fill="url(#SVGID_00000042737641900467808450000002831962549655126154_)" d="M649,770.3h-48.9c-0.2,0.9,0.5,3.7,1.2,5.2
			c0.3,0.5,0.9,1.6,1.1,1.8c0.1,0.1,3.3,0.1,26.6,0.2c8.9,0.1,8.7,0,10.4,0.4c3,0.6,5.5,2,7.5,4.1c0.8,0.8,1.3,1.5,2.1,2.8
			c2,3,7.6,12.3,7.6,12.3s1.3,2.1-0.6,3.1c-1.9,1-3.3-0.9-3.3-0.9l-5.9-9.6c-2.3-3.9-3.3-5.1-4.9-6.2c-1.7-1.1-3.6-1.8-5.7-1.8
			c-1.3-0.1-31.2-0.1-31.2-0.1l3,4.7l11.9,0.1c0,0,2.1,0.4,1.9,2.1c-0.1,1.7-1.6,2-1.6,2s-5.1,0-9.5,0.1l2.8,4.6
			c5,0.1,10.4-0.1,14.9,0.5c2.2,0.5,4.2,1.5,5.9,2.8c3.3,2.9,3.5,4.4,8.3,11.7h5.8c-2.8-4.6-5.8-9.4-8.4-13.6
			c-0.4-0.6-0.7-1.2-1.1-1.7c-1.3-1.9-3.3-3.3-5.6-3.9c-2.4-0.5-4.2-0.3-6.5-0.7c0,0-1.1-0.1-1.1-1.9c0-1.8,1.7-1.9,1.7-1.9
			c2-0.3,4.3,0,6.3,0.3c3.3,0.7,6.1,2.3,8.2,4.7c0.7,0.8,1.2,1.6,2.1,3.1c1.6,2.6,3,4.8,4.6,7.4c1.8,2.9,3.2,5.2,5.1,8.3h7.4l-3-5
			c0,0-0.6-1.5,0.9-2.4c1.4-0.9,2.7,0,3.2,0.6l4.2,6.7c2.3,0,4.6-0.6,6.6-1.7C665.1,796,656.3,781.9,649,770.3L649,770.3z"/>
	</g>
	<path fill="#C3B2D3" d="M392.9,847.4c0,9.3-7.5,16.8-16.8,16.8s-16.8-7.5-16.8-16.8s7.5-16.8,16.8-16.8S392.9,838.2,392.9,847.4z"
		/>
</g>
<path fill="#C3B2D3" d="M33.5,599.3c0,9.3-7.5,16.8-16.8,16.8c-9.3,0-16.8-7.5-16.8-16.8s7.5-16.8,16.8-16.8
	C26,582.5,33.5,590,33.5,599.3z"/>
</svg>
