<?xml version="1.0" encoding="utf-8"?>
<!-- Generator: Adobe Illustrator 28.0.0, SVG Export Plug-In . SVG Version: 6.00 Build 0)  -->
<svg version="1.1" id="Calque_1" xmlns="http://www.w3.org/2000/svg" xmlns:xlink="http://www.w3.org/1999/xlink" x="0px" y="0px"
	 viewBox="0 0 474.3 552.9" enable-background="new 0 0 474.3 552.9" xml:space="preserve">
<g>
	<g>
		<g>
			<g>
				<g>
					<g>
						<path fill="#38276B" d="M470.5,422.8c-0.9,17-14.9,35.5-35.6,32.3c-10.6-1.6-18.8-12.1-17-23.8c0.5-3.1,1.6-6.3,3.6-9.4
							c9.2-14.4,23.5-1,34.8-4.3c9.3-2.7,8.6-14.9,8.6-14.9s4.6,7.5,5.5,16C470.6,420.1,470.6,421.4,470.5,422.8z"/>
					</g>
					<g opacity="0.4">
						<path fill="#FFFFFF" d="M467.1,408.1c0,0,0.7,13.4-9.5,16.4c-12.5,3.7-28.3-11.1-38.4,4.8c-0.5,0.8-0.9,1.5-1.3,2.3
							c0-0.1,0-0.1,0-0.2c0.5-3.1,1.6-6.3,3.6-9.4c9.2-14.4,23.5-1,34.8-4.3c9.3-2.8,8.6-14.9,8.6-14.9s2.1,3.5,3.8,8.4
							C467.8,409.2,467.1,408.1,467.1,408.1z"/>
					</g>
					<g opacity="0.2">
						<path fill="#38276B" d="M470.5,422.8c-0.9,17-14.9,35.5-35.6,32.3c-10.6-1.6-18.8-12.1-17-23.8c2.4-4,6.4-8.3,12.6-7.6
							c10.1,1.2,11.3,13.6,15.9,15.6c8.1,3.6,21.9-5.4,24-20.6C470.6,420.1,470.6,421.4,470.5,422.8z"/>
					</g>
					<g>
						<path fill="#38276B" d="M439.6,459.2c-1.7,0-3.4-0.1-5.2-0.4l0,0c-7.8-1.2-14.8-6.6-18.2-14.1c-3.6-7.9-2.8-16.9,2.2-24.7
							c7.1-11.2,17.1-8.8,25.2-6.9c4.3,1,8.4,2,11.7,1c6.3-1.9,5.9-11.1,5.9-11.2c-0.1-1.7,1-3.2,2.6-3.7c1.6-0.5,3.4,0.2,4.3,1.6
							c0.3,0.5,6.7,11.2,6.1,22.2c-0.6,11-6.1,22.1-14.5,28.9C453.8,456.7,446.9,459.2,439.6,459.2z M435.5,451.4
							c9.1,1.4,15.6-2.1,19.5-5.3c6.8-5.5,11.3-14.5,11.8-23.6c0.1-2.7-0.3-5.5-1-8c-1.7,2.9-4.3,5.4-8.5,6.7
							c-5.2,1.5-10.5,0.3-15.5-0.9c-8.2-2-13.1-2.7-17.2,3.7c-3.7,5.7-4.3,12-1.7,17.6C425.3,446.9,430.1,450.6,435.5,451.4
							L435.5,451.4z"/>
					</g>
					<g>
						<path fill="#B3CD38" d="M430.7,438.9c-7.4,6.1-6.9,15.9-10.7,27c-0.9,2.7-2.1,5.5-3.7,8.3c-16.4,28.9-52.7,14.7-52.7,14.7
							l5.9-21.3c9.4,7.8,17.5,9.2,24.2,6.5c8.9-3.7,15.4-14.6,19.2-27.6c3.1-10.5,9.3-13.8,15-14.4
							C431.6,431.7,433.6,436.4,430.7,438.9z"/>
					</g>
					<g opacity="0.15">
						<path fill="#020203" d="M420,465.9c-0.9,2.7-2.1,5.5-3.7,8.3c-16.4,28.9-52.7,14.7-52.7,14.7l5.9-21.3
							c9.4,7.8,17.5,9.2,24.2,6.5C400.1,476.9,411.8,479.5,420,465.9z"/>
					</g>
					<g>
						<path fill="#38276B" d="M383.5,496c-11.7,0-21.1-3.6-21.3-3.6c-1.9-0.7-2.9-2.9-2.1-4.8c0.7-1.9,2.9-2.9,4.8-2.1
							c1.4,0.5,33.6,12.6,48.2-13.1c3.4-6,4.7-11.7,6-17.2c1.6-7.2,3.2-14.1,9.3-19.1c0,0,0.1-0.1,0.1-0.1c0,0,0-0.1-0.1-0.2
							c0,0,0,0,0,0c0,0,0,0-0.1,0c-5.8,0.6-9.6,4.4-11.8,11.7c-4.9,16.7-13.2,27.6-23.2,30.6c-8.2,2.5-17-0.1-26.1-7.7
							c-1.6-1.3-1.8-3.7-0.5-5.2c1.3-1.6,3.7-1.8,5.2-0.5c7.1,5.9,13.6,8,19.2,6.3c7.5-2.3,14.1-11.6,18.3-25.6
							c3.8-12.9,12-16.4,18.2-17c3.4-0.4,6.5,1.5,7.8,4.6c1.3,3.1,0.4,6.6-2.2,8.8c-4.1,3.4-5.3,8.5-6.8,15
							c-1.3,5.8-2.8,12.3-6.7,19.3C410.4,492.1,395.7,496,383.5,496z"/>
					</g>
					<g>
						<path fill="#B3CD38" d="M227.4,396.3l-6,42.1c0,0-31.4,31.3-65,9.1c-34.9-23-20-60.5,8.3-92.5c9.7-11,20.9-21.2,32.1-30.1
							l15.2,35.4L227.4,396.3z"/>
					</g>
					<g opacity="0.15">
						<path fill="#020203" d="M211.9,360.3c-17,0.3-33-1.5-47.3-5.3c9.7-11,20.9-21.2,32.1-30.1L211.9,360.3z"/>
					</g>
					<g>
						<path fill="#A7ACB7" d="M321.9,322c-20.3,18-51.3,31.7-87.2,36.5c-17.6,2.4-34.7,2.4-50.4,0.3l11.9-30
							C196.2,328.8,258,257.5,321.9,322z"/>
					</g>
					<g>
						<path fill="#38276B" d="M181.8,459.2c-9.6,0-18.9-2.9-27.5-8.6c-14-9.2-21.4-21.2-22-35.7c-1.3-31.6,31.2-68.7,62.1-92.9
							c1.6-1.3,4-1,5.2,0.6c1.3,1.6,1,4-0.6,5.2c-29.4,23.1-60.4,58-59.3,86.8c0.5,12,6.8,22,18.6,29.8c28.1,18.5,54.3-3.1,59.5-7.8
							l5.8-40.8c0.3-2,2.2-3.4,4.2-3.2c2,0.3,3.5,2.2,3.2,4.2l-6.2,43.3l-0.9,0.9c-0.3,0.3-8.5,8.4-21.1,13.7
							C195.8,457.7,188.7,459.2,181.8,459.2z"/>
					</g>
					<g>
						<path fill="#B3CD38" d="M365.1,517.4c-23.1,15.2-49.1,9.5-87.9,9.7c-12.8,0.1-26.9,0.8-42.7,3.1c-14.8,2.2-42.3,4.5-59.3-16.6
							c-27.5-33.9-3.8-99.6,4.4-143l16.6-41.8c0,0,63.4-73.2,128.2-4.2c44.4,47.3,63,90.7,65.9,124.8
							C393.2,482.2,381.8,506.4,365.1,517.4z"/>
					</g>
					<g opacity="0.15">
						<path fill="#020203" d="M321.9,322c-20.3,18-51.3,31.7-87.2,36.5c-17.6,2.4-34.7,2.4-50.4,0.3l11.9-30
							C196.2,328.8,258,257.5,321.9,322z"/>
					</g>
					<g opacity="0.15">
						<path fill="#020203" d="M365.1,517.4c-23.1,15.2-49.1,9.5-87.9,9.7c14-19.1,48.9-61.5,78.7-55.3c25.1,5.2,32.5-5.2,34.4-22.4
							C393.2,482.2,381.8,506.4,365.1,517.4z"/>
					</g>
					<g opacity="0.35">
						<path fill="#FFFFFF" d="M179.2,457.8c3.1-21,1.5-88.8,48.1-94.5c42.6-5.2,94.9,58.7,84.3,109.8s-46.6,26.4-83.5,28
							C191.3,502.7,173.3,498.4,179.2,457.8z"/>
					</g>
					<g opacity="0.15">
						<g>
							<path fill="#020203" d="M311.7,473.1c-10.6,51.1-46.6,26.4-83.5,28c-35.9,1.6-54-2.5-49.4-40.2
								c11.8,10.8,28.1,17.5,45.4,19.2c32,3.1,71.4-3.3,84.3-47.8C313,445.7,314.4,459.8,311.7,473.1z"/>
						</g>
					</g>
					<g>
						<path fill="#38276B" d="M181.5,370.9c-1.1,14.9-4.7,29.4-7.9,43.9c-4.6,21.4-8.9,43.1-6.9,64.9c1.8,20.5,11.8,39.1,32.4,45.3
							c7.6,2.3,15.5,2.9,23.4,2.4c7.3-0.3,14.5-1.8,21.9-2.5c14.9-1.7,30-2.1,44.9-1.8c14.7,0.2,29.5,1.4,44,0.2
							c13.1-1.1,25.8-5,35.4-14c21.2-21.2,20.8-54.9,13.5-82.2c-10.7-38.8-35-72.4-62.4-101.3c-31.2-32.6-68.4-35.1-104.7-8.6
							c-4.3,3.2-8.5,6.7-12.4,10.4c-1.3,1.3-2.6,2.6-3.7,3.9c-1.4,1.5-3.7,1.6-5.3,0.3c-1.5-1.4-1.6-3.7-0.3-5.2
							c2.7-3,5.3-5.5,8.2-8.2c8.6-7.6,18.1-14.2,28.6-19.1c33.2-15.5,65.1-7.8,91.3,16.8c1.5,1.5,4.7,4.6,6.1,6.1
							c1.1,1.3,4.5,4.9,5.7,6.2c23.8,26.5,44.5,56.9,55.3,91.2c15.3,48.2,5.1,108.1-54.7,112.3c-15.1,1.2-29.9-0.1-44.9-0.3
							c-14.7-0.4-29.4,0-43.9,1.6c-13.2,1.6-26.5,3.9-39.8,1.6c-18.6-2.9-33.6-14.1-40.9-31.5c-11.5-28.4-4.2-61.2,1.8-89.9
							c3.2-14.6,7-28.8,11.6-42.9C178.5,368.1,181.6,368.7,181.5,370.9L181.5,370.9z"/>
					</g>
					<g>
						<path fill="#C3C7D3" d="M132,401c13.4-12.4,51.8-11,60.2,8.9c7.6,18,0.3,37.6-7,38.5c-6.7,0.8-8.9-7.9-8.9-7.9
							s-11.1,17.6-36.3,6.2C120.8,438,127.8,404.9,132,401z"/>
					</g>
					<g>
						<path fill="#38276B" d="M156,454.2c-5,0-10.8-1.1-17.5-4.2c-7.8-3.5-12.8-10.8-14.4-21c-2-12.1,1.3-27.1,5.4-30.8l0,0
							c8.4-7.7,25.6-11,41-7.6c12.5,2.7,21.4,9,25.1,17.9c5.8,13.8,3.5,28.6-1.1,36.6c-2.5,4.2-5.6,6.7-9,7.1
							c-4.8,0.6-8.2-2-10.3-5.1C171.5,450.4,165.1,454.2,156,454.2z M134.6,403.7c-1.7,2-5.2,14.7-2.8,25.8
							c1.5,6.9,4.8,11.5,9.8,13.8c22,10,31.2-4.2,31.6-4.8c0.8-1.3,2.3-1.9,3.8-1.7c1.5,0.2,2.7,1.3,3,2.8c0,0,1.4,5.5,4.8,5.1
							c0.5-0.1,1.9-0.9,3.4-3.4c3.7-6.4,5.5-18.4,0.7-29.9c-3.7-8.8-14-12.2-19.8-13.5C156,395.1,141.2,397.6,134.6,403.7z M132,401
							L132,401L132,401z"/>
					</g>
					<g>
						<g>
							<polygon fill="#C3B2D3" points="309.2,505.2 142.7,505.2 138,529.6 217.4,529.6 304.5,514.3 							"/>
						</g>
						<g>
							<path fill="#FFFFFF" d="M194.3,520.8c1.2,0.6,49.9-8.6,49.9-8.6h-66.2l10.3,9.7"/>
						</g>
						<g>
							<path fill="#38276B" d="M217.4,532.4H138c-0.8,0-1.6-0.4-2.2-1c-0.5-0.6-0.7-1.5-0.6-2.3l4.6-24.4c0.3-1.3,1.4-2.3,2.7-2.3
								h166.5c1,0,1.9,0.5,2.4,1.3c0.5,0.8,0.5,1.9,0.1,2.7l-4.7,9.1c-0.4,0.8-1.1,1.3-2,1.5l-87.2,15.2
								C217.7,532.3,217.5,532.4,217.4,532.4z M141.4,526.8h75.7l85.6-15l2-3.8H145L141.4,526.8z"/>
						</g>
						<g>
							<path fill="#C3B2D3" d="M222.4,537.2l-144.8,0c-8.5,0-15.5-6.8-15.6-15.4v0l155.4,1.5l16.1,11.9L222.4,537.2z"/>
						</g>
						<g opacity="0.15">
							<path fill="#020203" d="M233.4,535.2l-11,2l-144.8,0c-8.5,0-15.5-6.8-15.6-15.3l0.2,0c2.7,4.6,7.7,7.7,13.4,7.7l144.8,0
								l4.2-0.8L233.4,535.2z"/>
						</g>
						<g>
							<path fill="#38276B" d="M77.6,540c-10,0-18.2-8.1-18.4-18.1c0-0.8,0.3-1.5,0.8-2c0.5-0.5,1.2-0.8,2-0.8l155.4,1.5
								c0.6,0,1.2,0.2,1.6,0.5l16.1,11.9c0.9,0.7,1.3,1.8,1.1,2.9c-0.3,1.1-1.1,1.9-2.2,2.1l-11,2c-0.2,0-0.3,0-0.5,0L77.6,540z
								 M65.1,524.7c1.4,5.6,6.5,9.7,12.4,9.7l144.6,0l4.4-0.8l-10.1-7.5L65.1,524.7z"/>
						</g>
						<g>
							<path fill="#512718" d="M209.1,491.7c1.4,6.1,4.6,13.9,11.5,14.9c5.2,1.1,3.3,8.7-1.8,7.2c-9.3-2.9-13-12.9-13.4-21.8
								C205.4,489.7,208.8,489.4,209.1,491.7L209.1,491.7z"/>
						</g>
						<g>
							<path fill="#C3B2D3" d="M306,519.3l-75.3,16.5c-6.8,1.5-13.2-3.6-13.3-10.6l0-1.9l91.9-18.2c3-0.6,5.7,1.7,5.7,4.7v0
								C315.2,514.3,311.2,518.1,306,519.3z"/>
						</g>
						<g opacity="0.15">
							<path fill="#020203" d="M314.9,509.9c0.1,2.2-0.8,4.3-2.5,6c-1.6,1.6-3.9,2.9-6.5,3.5l-75.3,16.5
								c-6.8,1.5-13.2-3.6-13.3-10.6l0-1.9l3.6-0.7c2.3,3.7,6.8,5.9,11.5,4.9l75.7-14.9c2.6-0.6,4.9-1.8,6.6-3.4
								c0.1-0.1,0.2-0.2,0.2-0.2C314.9,509.3,314.9,509.6,314.9,509.9z"/>
						</g>
						<g>
							<path fill="#38276B" d="M228.3,538.9c-3.1,0-6.1-1-8.5-3c-3.2-2.6-5.1-6.4-5.2-10.6l0-1.9c0-1.3,0.9-2.5,2.3-2.8l91.9-18.2
								c2.2-0.5,4.5,0.1,6.3,1.6c1.7,1.4,2.8,3.5,2.8,5.8c0.2,5.6-4.3,10.7-11.1,12.2c0,0,0,0,0,0l-75.3,16.5
								C230.3,538.8,229.3,538.9,228.3,538.9z M220.2,525.6c0.1,2.3,1.2,4.4,3.1,5.9c1.9,1.5,4.4,2.1,6.8,1.6l75.3-16.5
								c4.1-0.9,6.9-3.7,6.8-6.6c0,0,0-0.1,0-0.1c0-0.8-0.5-1.3-0.7-1.5c-0.3-0.2-0.8-0.6-1.7-0.4L220.2,525.6z"/>
						</g>
						<g>
							<path fill="#C3B2D3" d="M216.7,520.9l-56.1-3.1l-91.9-5.2c-3.6,0-7-1.1-9.9-2.9c-2.9-1.8-5.3-4.5-6.9-7.7L2.8,402.7
								c0.8-9.5,8.5-16.8,17.9-17.2c0.3,0,0.7,0,1,0L152,387c11.7,0.1,22.1,7.2,26.6,18l24.7,59.3l17.1,41.1
								C222.6,510.8,221.2,517.1,216.7,520.9z"/>
						</g>
						<g opacity="0.5">
							<path fill="#FFFFFF" d="M221.2,512.9c-0.2-0.6-0.4-1.2-0.6-1.9L203.5,470l-24.7-59.3c-4.5-10.8-15-17.9-26.6-18l-130.3-1.5
								c-0.3,0-0.7,0-1,0c-8.1,0.3-15,5.8-17.2,13.4l-0.9-1.9c0.8-9.5,8.5-16.8,17.9-17.2c0.3,0,0.7,0,1,0L152,387
								c11.7,0.1,22.1,7.2,26.6,18l24.7,59.3l17.1,41.1C221.4,507.8,221.7,510.4,221.2,512.9z"/>
						</g>
						<g opacity="0.15">
							<path fill="#020203" d="M216.7,520.9l-56.1-3.1c12.8-20.9,31.6-53.8,31.6-53.8s10.3,12.4,11.1,0.3l17.1,41.1
								C222.6,510.8,221.2,517.1,216.7,520.9z"/>
						</g>
						<g>
							<path fill="#38276B" d="M216.7,523.7c-0.1,0-0.1,0-0.2,0l-147.9-8.3c-8.2-0.1-15.6-4.8-19.3-12.2L0.3,403.9
								c-0.2-0.5-0.3-1-0.3-1.5c0.9-11.2,10.3-19.8,21.5-19.8c0.1,0,0.2,0,0.3,0l130.3,1.5c12.8,0.2,24.3,7.9,29.2,19.7L223,504.3
								c2.7,6.5,1,14.1-4.4,18.7C218.1,523.5,217.4,523.7,216.7,523.7z M5.7,402.2l48.8,98.6c2.7,5.5,8.2,9,14.4,9.1
								c0,0,0.1,0,0.1,0l146.8,8.2c2.9-3.1,3.8-7.6,2.1-11.6L176,406c-4.1-9.8-13.5-16.1-24.1-16.3l-130.3-1.5
								C13.6,388.1,6.7,394.2,5.7,402.2z"/>
						</g>
						<g>
							<path fill="#C3B2D3" d="M216.9,523.3l-155.4-1.8c-3.6,0-7-1.1-9.9-2.9c-2.9-1.8-5.3-4.5-6.9-7.7l-3.3-8L3.8,411
								c-3.3-8,2.7-16.8,11.4-16.7l128.9,1.5c12.1,0.1,22.9,7.4,27.5,18.6l21.4,51.5L216.9,523.3z"/>
						</g>
						<g opacity="0.15">
							<path fill="#020203" d="M216.9,523.3l-155.4-1.8c-3.6,0-7-1.1-9.9-2.9c-2.9-1.8-5.3-4.5-6.9-7.7l-3.3-8
								c10.2,4.3,33.8,10.8,76.4,6.2c52.8-5.8,70.6-33.8,75.2-43.2L216.9,523.3z"/>
						</g>
						<g>
							<path fill="#38276B" d="M144.1,394.4c10.1-0.5,20.5,4.6,26.5,12.9c2,2.7,3.5,6,4.7,8.9c2.6,5.8,5,11.7,7.5,17.6
								c5.2,12.1,31.1,75.1,36.7,88.4c0.8,1.8-0.7,3.9-2.6,3.9c0,0-155.4-1.8-155.4-1.8c-8.1,0-16-5-19.4-12.3
								c-8.1-19.8-24.4-59.5-32.6-79.2c0,0-8.1-19.8-8.1-19.8l-0.2-0.6c-0.7-1.7-1.1-3.7-1.1-5.6c-0.2-8.2,7-15.4,15.3-15.1
								c0.4,0,1.6,0,2,0c12.5,0.3,25,0.8,37.5,1.8c1.7,0.2,1.7,2.7,0,2.8c-10.7,0.7-21.4,0.9-32.1,0.9c-1.5,0-6.4,0-7.9,0
								c-5.2,0.1-9.5,5.3-8.8,10.4c0.1,0.9,0.4,1.7,0.7,2.5c0,0,0.3,0.6,0.3,0.6l8.1,19.8c7.9,19.5,24.6,60.5,32.2,79.2
								c1.3,2.7,3.4,5,5.9,6.6c2.5,1.6,5.5,2.5,8.5,2.5c0,0,155.4,1.8,155.4,1.8l-2.6,3.9c-5.7-13.8-31.9-75.8-36.8-88.3
								c-2.4-5.9-4.8-11.8-7.2-17.7c-1.2-3.1-2.2-5.7-3.9-8.1c-4.9-7.5-13.3-12.3-22.4-13C142.3,397.1,142.4,394.5,144.1,394.4
								L144.1,394.4z"/>
						</g>
						<g>
							<path fill="#38276B" d="M235,527.6c0.1,1.5-0.8,2.8-1.9,2.9c-1.1,0.1-2.1-1.1-2.1-2.7c-0.1-1.5,0.8-2.8,1.9-2.9
								C234,524.8,235,526,235,527.6z"/>
						</g>
						<g>
							<path fill="#38276B" d="M247.3,523.4l0.1,1.8c0,0.7,0.7,1.2,1.3,1l7.7-1.6c0.5-0.1,0.9-0.6,0.9-1.1l-0.1-1.6
								c0-0.7-0.6-1.1-1.3-1l-7.7,1.5C247.7,522.4,247.3,522.9,247.3,523.4z"/>
						</g>
						<g>
							<path fill="#38276B" d="M298,513.6L298,513.6c0,1,1,1.8,2,1.6l4.6-0.9c0.8-0.2,1.4-0.9,1.3-1.7l0-0.2c0-0.3-0.3-0.5-0.6-0.5
								l-6.9,1.1C298.2,513.1,298,513.3,298,513.6z"/>
						</g>
						<g opacity="0.5">
							<path fill="#FFFFFF" d="M20.4,403.8c17.4-3.4,91.2-4.8,107.9-0.7C145,407.1,5.8,406.7,20.4,403.8z"/>
						</g>
					</g>
					<g>
						<path fill="#B3CD38" d="M362.8,445.6l-3.8,26.8l-4.7,33.9c0,0-9.7,27.5-29.8,36.2c-15.2,6.5-25.8-9.5-32-23.7
							c-4.3-9.8-6.3-18.8-6.3-18.8s2.8-43,22.7-61.9C321.8,425.7,344.3,418.8,362.8,445.6z"/>
					</g>
					<g opacity="0.15">
						<path fill="#020203" d="M359,472.4l-4.7,33.9c0,0-9.7,27.5-29.8,36.2c-15.2,6.5-25.8-9.5-32-23.7c7.4-7.5,22.4-22,22.4-22
							l5.6,8.8c0,0,14.2,1.5,23.1-11.4C350.9,484,351,472.4,359,472.4z"/>
					</g>
					<g>
						<path fill="#38276B" d="M361.2,446.6c-7-6.9-14.7-14.4-24.9-15.5c-9.6-1-19.2,4.1-25.8,11c-13.3,14.4-18.4,38.9-20.7,58
							c0,0-0.1-1.1-0.1-1.1c1.8,6.5,4.1,13,6.9,19.1c3.9,8.3,10.2,20.5,20.1,21.7c3.3,0.4,6.5-1.1,9.4-2.6
							c12-7.1,19.9-19.6,26.3-31.6c1-2,4-0.9,3.5,1.2c-2.5,9.5-7,18.2-13.2,25.9c-3.5,4.3-7.9,8.2-12.8,11.2
							c-27.4,16.3-42.8-22.3-47.5-43.2c-0.1-0.4-0.1-0.7-0.1-1.1c0.3-5.7,1.1-11.2,2-16.7c3.2-16.7,8.2-33.8,20.1-46.6
							c13.1-13.7,33.8-18.5,49.2-5.6c4.6,3.8,8.1,8.6,10.5,13.7c0.4,0.9,0,2.1-0.9,2.5C362.6,447.3,361.8,447.2,361.2,446.6
							L361.2,446.6z"/>
					</g>
					<g>
						<path fill="#B3CD38" d="M301.7,549.2c-9.9,0-33.6-9.8-35.3-39.8c-2.7-47,38-56.9,56.6-39.2
							C346.9,492.9,347.3,549.3,301.7,549.2z"/>
					</g>
					<g opacity="0.4">
						<path fill="#FFFFFF" d="M338.4,518.1c0.4-15.2-5.6-31.5-16-41.4c-16.7-15.9-51.2-9.6-56.1,25.9c1.4-41.2,39-49.3,56.7-32.5
							C334.9,481.5,341,501.2,338.4,518.1z"/>
					</g>
					<g opacity="0.2">
						<path fill="#38276B" d="M301.7,549.2c-9.6,0-32-9.1-35-36.8c6.7,19.6,24.9,27.9,33.2,27.9c29.5,0.1,39.4-25.1,36.4-48
							C344.2,517.8,335.8,549.3,301.7,549.2z"/>
					</g>
					<g opacity="0.35">
						<path fill="#FFFFFF" d="M301.3,538.4c-6.4,0-21.6-6.3-22.7-25.5c-0.8-13.3,10-11,13.4-6.7c2.7,3.4,5.7,4.1,9.4,3.8
							c4.2-0.4,7-4.1,9.8-7.6c1.5-1.9,4.2-2.4,5.6-2.3C329.1,500.9,330.6,538.5,301.3,538.4z"/>
					</g>
					<g>
						<path fill="#38276B" d="M301.9,552.9c-0.1,0-0.1,0-0.2,0c-11.5,0-37.2-11-39-43.3c-1.3-23,7.2-40.4,23.4-47.9
							c13.4-6.2,29.2-3.9,39.4,5.8c15.6,14.8,21.6,42,13.7,61.8C333.2,544.5,319.9,552.9,301.9,552.9z M301.8,465.7
							c-4.2,0-8.5,0.9-12.5,2.8c-13.3,6.2-20.3,21-19.1,40.7c1.5,27,22.3,36.2,31.6,36.2l0,0c0.1,0,0.1,0,0.2,0
							c18.9,0,26.9-10.3,30.4-19c6.8-16.9,1.4-40.9-11.9-53.6C315.5,468.2,308.7,465.7,301.8,465.7z"/>
					</g>
					<g>
						<path fill="#B3CD38" d="M298.7,452.7c-4.6,21.5-42.8,6.9-42.8,6.9c-2.7,4.9-14.9,11-18.1-7.7c-0.4-2.6-0.7-5.6-0.8-9.1
							c-0.6-36.7,49.2-43.4,49.2-43.4s0-15.3,4.2-32.5l54.4,29.5l0,0C346.5,456.5,298.7,452.7,298.7,452.7z"/>
					</g>
					<g opacity="0.2">
						<path fill="#38276B" d="M298.7,452.7c-4.6,21.5-42.8,6.9-42.8,6.9c-2.7,4.9-14.9,11-18.1-7.7c0,0,7.8,8.7,10.5,5.9
							c2.3-2.3,2.2-3.7,3.5-9.4c0,0,5.3,9.9,23.7,7.1c14.9-2.3,8.7-6.3,10.2-9.6c1.5-3.2,55.2,3.5,59.1-49.6l0,0
							C346.5,456.5,298.7,452.7,298.7,452.7z"/>
					</g>
					<g>
						<path fill="#38276B" d="M292.3,367.3c-1.5,10.9-1.5,22.1-2.4,33.1c-0.2,1.6-1.5,2.8-3.1,2.7c-2,0.3-4.2,0.8-6.3,1.3
							c-6.3,1.5-12.5,3.7-18.2,6.7c-11.3,5.7-20.5,15.3-21.4,28.1c-0.5,5.9,0.4,27.7,10.5,20.1c0.6-0.5,1.1-1.1,1.3-1.5
							c0.9-1.7,2.9-2.3,4.6-1.7c1.7,0.6,3.6,1.2,5.5,1.8c8.5,2.3,19,4.6,27.2,0.9c2.8-1.4,4.4-3.7,5.1-6.9c0.4-1.9,2.1-3.1,3.9-2.9
							c20.9-0.3,35.9-12.4,40.8-32.7c1.7-6.3,2.6-13,3.3-19.9c0.1-1,1-1.8,2.1-1.7c0.9,0.1,1.5,0.8,1.7,1.6c2.1,14.3,0,29.8-8.6,42
							c-6.6,9.3-17.2,15.6-28.4,17.4c-3.8,0.6-7.5,1-11.4,0.6c0,0,3.9-2.9,3.9-2.9c-3.5,16.4-22.6,16.1-35.5,13.1
							c-4.2-0.9-8.2-2-12.3-3.5l4.6-1.7c-1.7,2.9-4,4.6-6.9,5.9c-6.5,2.9-13.1-0.7-15.8-6.9c-3.1-7-3.4-14.4-3-21.9
							c0.7-10,5.9-19.5,13.4-26c10.9-9.5,24.8-14.5,38.9-16.9c0,0-3.2,3.7-3.2,3.7c-0.3-5.8,0.6-11.2,1.7-16.8
							c1.1-5.5,2.6-10.9,4.5-16.2C289.4,364.4,292.6,365.1,292.3,367.3L292.3,367.3z"/>
					</g>
					<g>
						<g>
							<path fill="#FFFFFF" d="M286.2,399.4c0,0,13-1.3,28.7,3.3"/>
						</g>
						<g>
							<path fill="#38276B" d="M285.9,395.7c7.7-0.1,15.1,1.1,22.5,3c2.4,0.6,4.8,1.4,7.1,2.2c1,0.3,1.5,1.4,1.1,2.4
								c-0.3,0.9-1.3,1.4-2.2,1.2c-9.1-2-18.6-2.7-27.8-1.4C281.4,403.8,280.6,396.1,285.9,395.7L285.9,395.7z"/>
						</g>
					</g>
					<g>
						<path fill="#38276B" d="M289.7,446.9c3,1.4,6.4,2,9.7,2.1c2.1,0.1,3.7,1.8,3.7,3.9c0,2.6-2.9,4.4-5.3,3.4
							c-3.4-1.3-6.5-3-9.3-5.4c-1.2-0.9-2.6-2.2-1.2-3.7C288,446.5,289,446.5,289.7,446.9L289.7,446.9z"/>
					</g>
					<g>
						<path fill="#38276B" d="M253.6,448.8c-0.1,3,1.1,6.6,4.2,7.6c5.2,2.5,0.7,9.8-3.9,6.4c-3.4-2.5-5.3-7-4.8-11.1
							c0.3-1.8,0.4-5.6,3.2-4.9C253.2,447.1,253.7,448,253.6,448.8L253.6,448.8z"/>
					</g>
					<g opacity="0.35">
						<ellipse fill="#FFFFFF" cx="281.9" cy="489.8" rx="5.4" ry="6.5"/>
					</g>
					<g opacity="0.35">
						<ellipse fill="#FFFFFF" cx="315.7" cy="486.7" rx="5.4" ry="6.5"/>
					</g>
					<g opacity="0.35">
						<ellipse fill="#FFFFFF" cx="298.9" cy="479.8" rx="7" ry="8.4"/>
					</g>
				</g>
			</g>
		</g>
		<g>
			<g>
				<path fill="#38276B" d="M253.2,302.1c-9.6,5.3-24.6,0.9-26.3-10.9c-0.6-3.6-0.2-7,1.2-10.3c0.4-1,1.5-1.4,2.5-1
					c0.7,0.3,1.1,1,1.1,1.7c0.5,3.7,1.1,7.9,3.3,11c3.8,5,11,6,17,5.9C254.1,298.4,255,301.1,253.2,302.1L253.2,302.1z"/>
			</g>
		</g>
		<g>
			<g>
				<g>
					<path fill="#B3CD38" d="M112.8,110.6c0,0-30.3-25.4-57.2-26.1c-26.9-0.7-44.3,20-43.9,51.4s11.1,56.6,9.1,77.7
						s-27.9,48.8-4.8,70.6c23,21.8,45.1,31.6,79.6,19.4s94.5-38.7,94.5-38.7L112.8,110.6z"/>
					<path fill="#020203" fill-opacity="0.19" d="M86.2,304.9c14.1-6.3,35.1-9.2,50.9-17.6c-2.3-9.3-3.3-17.4-7.9-25.2
						c-27.9-46.9-52,31.7-89.2,9.5c-17.6-10.5,0.1-117.2-7.1-150.8c-3.6-16.7-10.6-17-16.7-13.1c-3.1,8.1-4.8,17.9-4.8,29
						c0.2,32.2,8.8,58.1,7,79.9s-29.3,54.2-2.4,67.5C41,296.6,57.8,317.7,86.2,304.9z"/>
					<path fill="#FFFFFF" fill-opacity="0.6" d="M59.5,100.6c19,0.5,34.6,11.9,38.7,26.9c0.9-2.7,1.4-5.6,1.5-8.6
						c0.6-19.1-17.2-35-39.7-35.6c-22.5-0.6-41.2,14.4-41.8,33.5c-0.1,3,0.3,5.9,1,8.6C24.2,110.7,40.5,100.1,59.5,100.6z"/>
					<path fill="#38276B" d="M50.6,309.5c-12.2-3.5-23.5-10.7-36.8-23.2C6.1,279,2.7,270.4,3.5,260c0.7-8.8,4.3-17.5,7.7-26
						c3-7.4,5.9-14.4,6.5-20.6c1-10.4-1.2-21.8-3.8-35c-2.4-12.6-5.1-26.8-5.4-42.4c-0.3-18.2,5.4-33.6,16-43.3
						c8.2-7.5,18.9-11.3,31.1-11C67.5,81.9,81,86.5,96,95.4c11,6.5,18.6,12.8,18.9,13.1l0.5,0.4l79,157.5l-2.8,1.2
						c-0.6,0.3-60.5,26.6-94.8,38.8c-2.9,1-5.7,1.9-8.5,2.6C74.6,312.7,62.2,312.8,50.6,309.5z M110.2,112.4
						c-3.9-3.1-31-24.3-54.7-24.9c-10.4-0.3-19.5,3-26.5,9.3c-9.4,8.6-14.4,22.5-14.2,39.1c0.2,15.1,2.9,29.1,5.3,41.4
						c2.5,13.1,4.9,25.4,3.8,36.6c-0.7,7-3.7,14.4-6.9,22.2c-3.3,8.1-6.7,16.4-7.3,24.4c-0.7,8.7,2,15.6,8.5,21.7
						c12.5,11.8,23,18.5,34.2,21.7c6.2,1.8,12.5,2.4,19.2,2c7.1-0.4,14.6-2.1,22.9-5c29.8-10.6,79.2-32,91.5-37.3L110.2,112.4z"/>
				</g>
				<g>
					<path fill="#B3CD38" d="M349.6,121.7c0,0,31.7-23.8,58.6-23.1c26.9,0.7,43.1,22.3,40.8,53.5s-14.4,55.9-13.7,77.1
						c0.7,21.2,24.9,50.2,0.7,70.7c-24.3,20.6-46.9,29.3-80.6,15.3c-33.8-14-92.1-43.4-92.1-43.4L349.6,121.7z"/>
					<path fill="#020203" fill-opacity="0.19" d="M371.4,321.3c-13.7-7.1-41.1-15.2-56.5-24.4c2.9-9.2,4.3-17.2,9.4-24.7
						c30.7-45.4,50,34.3,88.5,14.1c18.2-9.6,6.8-117,16-150.3c4.6-16.5,11.5-16.5,17.4-12.2c2.7,8.2,3.8,18.1,3,29.2
						c-2.1,32.2-12.2,57.6-11.7,79.4c0.5,21.8,24,51.3-1.9,66.2C419.5,308,388.6,330.2,371.4,321.3z"/>
					<path fill="#FFFFFF" fill-opacity="0.6" d="M403.4,114.4c-19-0.5-35.3,10.1-40.2,24.9c-0.8-2.8-1.1-5.7-1-8.6
						c0.6-19.1,19.3-34.1,41.8-33.5c22.5,0.6,40.3,16.5,39.7,35.6c-0.1,3-0.6,5.8-1.5,8.6C438.1,126.3,422.4,114.9,403.4,114.4z"/>
					<path fill="#38276B" d="M400,323.4c-14.1,3.3-29.1,1.5-45.9-5.5c-33.5-13.9-91.8-43.2-92.3-43.5l-2.8-1.4l87.8-152.7l0.3-0.5
						l0.5-0.4c0.3-0.2,8.3-6.2,19.7-12.1c15.5-8,29.3-12,41-11.7c12.1,0.3,22.7,4.7,30.4,12.6c10,10.2,14.8,25.9,13.5,44.1
						c-1.1,15.6-4.7,29.6-7.8,42c-3.3,13.1-6.2,24.4-5.8,34.8c0.2,6.2,2.7,13.4,5.2,20.9c3,8.6,6,17.5,6.2,26.4
						c0.2,10.4-3.6,18.8-11.8,25.7c-13.2,11.2-24.5,17.7-36.2,20.8C401.3,323.1,400.7,323.3,400,323.4z M352.1,123.6l-84.6,147
						c12,6,60,29.9,89.1,41.9c8.1,3.3,15.4,5.4,22.5,6.2c6.7,0.8,13,0.4,19.3-1c11.3-2.6,22.2-8.8,35.4-19.9
						c6.8-5.8,9.9-12.5,9.8-21.3c-0.2-8-3.1-16.5-5.9-24.7c-2.7-7.9-5.3-15.5-5.5-22.5c-0.4-11.2,2.7-23.4,6-36.3
						c3.1-12.2,6.6-26,7.7-41.1c1.2-16.6-3-30.7-11.8-39.8c-6.6-6.7-15.5-10.4-25.9-10.7c-5.1-0.1-10.4,0.7-15.7,2.1
						C373.4,108.7,355.3,121.3,352.1,123.6z"/>
				</g>
				<path fill="#B3CD38" d="M174.2,334l-15.6-17.6L144,292.2c-70.1-94.2-55.6-151.8-10.7-178.9l173.7,4.4
					c61.6,33.4,88.9,101.2-10.5,192.8l-30.7,28C239.8,362.3,197.4,360.2,174.2,334z"/>
				<path fill="#020203" fill-opacity="0.19" d="M310.1,117.7l-33.8-0.9l-3.2,2c1.8,10.2,24.1,59,27.3,100.9
					c4.3,57.1-25.7,109.8-74.4,135.3c15.5-0.1,30.9-5.6,42.9-16.6l30.7-28c1.3-1.2,2.7-2.5,3.9-3.7c0-0.3,0-0.5,0-0.5
					s13.9-16,38.7-43.9C387.7,195,360.3,144.9,310.1,117.7z"/>
				<g>
					<g>
						<g>
							<path fill="#C3B2D3" d="M96.7,172.3l-0.9,29.2L76.6,201l-0.1,4.4c-0.2,6.7-6.2,12-13.4,11.8l-8.3-0.2
								c-7.2-0.2-12.9-5.8-12.7-12.4l1.1-37.4c0.2-6.7,6.2-11.9,13.4-11.8l8.3,0.2c7.2,0.2,12.9,5.7,12.7,12.4l-0.1,3.8L96.7,172.3z
								"/>
						</g>
					</g>
					<g opacity="0.7">
						<g>
							<g>
								<path fill="#FFFFFF" d="M83.7,174l-0.1,3.8l13,0.3l0.2-5.8L83.5,172C83.6,172.6,83.7,173.3,83.7,174z"/>
							</g>
						</g>
						<g>
							<g>
								<path fill="#FFFFFF" d="M48.2,210.5l1.1-37.4c0.2-6.7,6.2-11.9,13.4-11.8l8.3,0.2c2,0.1,3.8,0.5,5.5,1.3
									c-2-4.2-6.4-7.1-11.6-7.3l-8.3-0.2c-7.2-0.2-13.2,5.1-13.4,11.8l-1.1,37.4c-0.1,4.8,2.8,9.1,7.2,11.1
									C48.6,214.1,48.2,212.4,48.2,210.5z"/>
							</g>
						</g>
					</g>
					<g opacity="0.3">
						<g>
							<path fill="#38276B" d="M87.9,172.1l-0.2,6.4c-0.2,7.4-6.9,13.3-14.8,13.1l0,0c-2.6-0.1-4.8,1.9-4.9,4.3v0
								c-0.2,6.7-6.2,12-13.4,11.8l-8.3-0.2c-1.4,0-2.7-0.3-4-0.7c0.9,5.7,6.1,10.1,12.5,10.2l8.3,0.2c7.2,0.2,13.2-5.1,13.4-11.8
								l0.1-4.4l19.2,0.5l0.9-29.2L87.9,172.1z"/>
						</g>
					</g>
					<g>
						<g>
							<path fill="#38276B" d="M63,221.3l-8.3-0.2c-9.6-0.2-17.2-7.7-16.9-16.6l1.1-37.4c0.3-8.9,8.3-16,17.9-15.7l8.3,0.2
								c9.5,0.2,17,7.5,16.9,16.3l14.8,0.4c2.4,0.1,4.3,1.9,4.3,4.2l-0.9,29.2c-0.1,2.2-2.1,4-4.5,4l-14.8-0.4l0,0.4
								C80.6,214.5,72.6,221.5,63,221.3z M56.5,159.5c-4.8-0.1-8.7,3.4-8.9,7.8l-1.1,37.4c-0.1,4.4,3.6,8.1,8.4,8.2l8.3,0.2
								c4.8,0.1,8.7-3.4,8.9-7.8l0.1-4.4c0.1-2.2,2.1-4,4.5-4l14.8,0.4l0.6-21l-14.8-0.4c-2.4-0.1-4.3-1.9-4.3-4.2l0.1-3.8
								c0.1-4.4-3.6-8.1-8.4-8.2L56.5,159.5z"/>
						</g>
					</g>
				</g>
				<g>
					<g>
						<g>
							<path fill="#38276B" d="M362.3,197.7l-267.1-6.8c-1.8,0-3.2-1.4-3.2-3.1s1.6-3,3.4-3l267.1,6.8c1.8,0,3.2,1.4,3.2,3.1
								C365.6,196.4,364.1,197.7,362.3,197.7z"/>
						</g>
					</g>
					<g>
						<g>
							<path fill="#38276B" d="M120.4,203.1c-2.6-0.1-4.6-2.1-4.6-4.5l0.6-21.2c0.1-2.4,2.2-4.3,4.8-4.2s4.6,2.1,4.6,4.5l-0.6,21.2
								C125.2,201.3,123,203.2,120.4,203.1z"/>
						</g>
					</g>
					<g>
						<g>
							<path fill="#38276B" d="M160.8,204.2c-2.6-0.1-4.6-2.1-4.6-4.5l0.6-21.2c0.1-2.4,2.2-4.3,4.8-4.2s4.6,2.1,4.6,4.5l-0.6,21.2
								C165.5,202.3,163.4,204.2,160.8,204.2z"/>
						</g>
					</g>
					<g>
						<g>
							<path fill="#38276B" d="M201.1,205.2c-2.6-0.1-4.6-2.1-4.6-4.5l0.6-21.2c0.1-2.4,2.2-4.3,4.8-4.2c2.6,0.1,4.6,2.1,4.6,4.5
								l-0.6,21.2C205.9,203.3,203.7,205.2,201.1,205.2z"/>
						</g>
					</g>
					<g>
						<g>
							<path fill="#38276B" d="M336.4,208.6c-2.6-0.1-4.6-2.1-4.6-4.5l0.6-21.2c0.1-2.4,2.2-4.3,4.8-4.2c2.6,0.1,4.6,2.1,4.6,4.5
								l-0.6,21.2C341.2,206.8,339,208.7,336.4,208.6z"/>
						</g>
					</g>
					<g>
						<g>
							<path fill="#38276B" d="M296.1,207.6c-2.6-0.1-4.6-2.1-4.6-4.5l0.6-21.2c0.1-2.4,2.2-4.3,4.8-4.2c2.6,0.1,4.6,2.1,4.6,4.5
								l-0.6,21.2C300.8,205.8,298.7,207.7,296.1,207.6z"/>
						</g>
					</g>
					<g>
						<g>
							<path fill="#38276B" d="M255.7,206.6c-2.6-0.1-4.6-2.1-4.6-4.5l0.6-21.2c0.1-2.4,2.2-4.3,4.8-4.2c2.6,0.1,4.6,2.1,4.6,4.5
								l-0.6,21.2C260.5,204.7,258.3,206.6,255.7,206.6z"/>
						</g>
					</g>
				</g>
				<g>
					<g>
						<g>
							<path fill="#C3B2D3" d="M361.5,182.8l-0.9,29.2l19.2,0.5l-0.1,4.4c-0.2,6.7,5.5,12.3,12.7,12.4l8.3,0.2
								c7.2,0.2,13.2-5.1,13.4-11.8l1.1-37.4c0.2-6.7-5.5-12.2-12.7-12.4l-8.3-0.2c-7.2-0.2-13.2,5.1-13.4,11.8l-0.1,3.8
								L361.5,182.8z"/>
						</g>
					</g>
					<g opacity="0.7">
						<g>
							<g>
								<path fill="#FFFFFF" d="M374.4,185.2l-0.1,3.8l-13-0.3l0.2-5.8l13.2,0.3C374.6,183.8,374.5,184.5,374.4,185.2z"/>
							</g>
						</g>
						<g>
							<g>
								<path fill="#FFFFFF" d="M407.7,223.5l1.1-37.4c0.2-6.7-5.5-12.2-12.7-12.4l-8.3-0.2c-2-0.1-3.9,0.3-5.6,1
									c2.2-4.1,6.8-6.8,12-6.7l8.3,0.2c7.2,0.2,12.9,5.7,12.7,12.4l-1.1,37.4c-0.1,4.8-3.3,8.9-7.8,10.8
									C407.1,227.1,407.6,225.3,407.7,223.5z"/>
							</g>
						</g>
					</g>
					<g opacity="0.3">
						<g>
							<path fill="#38276B" d="M370.3,183.1l-0.2,6.4c-0.2,7.4,6.1,13.6,14,13.8l0,0c2.6,0.1,4.7,2.1,4.7,4.6v0
								c-0.2,6.7,5.5,12.3,12.7,12.4l8.3,0.2c1.4,0,2.8-0.1,4-0.5c-1.3,5.6-6.7,9.7-13.1,9.6l-8.3-0.2c-7.2-0.2-12.9-5.8-12.7-12.4
								l0.1-4.4l-19.2-0.5l0.9-29.2L370.3,183.1z"/>
						</g>
					</g>
					<g>
						<g>
							<path fill="#38276B" d="M375.4,216.8l0-0.4l-14.8-0.4c-2.4-0.1-4.3-1.9-4.3-4.2l0.9-29.2c0.1-2.2,2.1-4,4.5-4l14.8,0.4
								c0.4-8.8,8.4-15.7,17.9-15.4l8.3,0.2c9.6,0.2,17.2,7.7,16.9,16.6l-1.1,37.4c-0.3,8.9-8.3,16-17.9,15.7l-8.3-0.2
								C382.7,233.2,375.1,225.8,375.4,216.8z M394.1,171.9c-4.8-0.1-8.7,3.4-8.9,7.8l-0.1,3.8c-0.1,2.2-2.1,4-4.5,4l-14.8-0.4
								l-0.6,21l14.8,0.4c2.4,0.1,4.3,1.9,4.3,4.2l-0.1,4.4c-0.1,4.4,3.6,8.1,8.4,8.3l8.3,0.2c4.8,0.1,8.7-3.4,8.9-7.8l1.1-37.4
								c0.1-4.4-3.6-8.1-8.4-8.2L394.1,171.9z"/>
						</g>
					</g>
				</g>
				<g>
					<path fill="#38276B" d="M320.1,175.8l16.4-36.8c-9.3-8.5-20.3-15.8-32.6-21.8l-6.1-0.2l-9.4-0.2l-22-0.6l-9.9-0.3l-16.1-0.4
						l-14.9-0.4l-17-0.4l-11.7-0.3l-19.2-0.5l-11.7-0.3l-17-0.4l-15.3,1.6c-17.6,9.4-25.8,21.6-32.5,39.7l7.7,15.8l16.8-37.7
						l14.6,38.5l16.6-37.2l14.4,38l15.4-34.5l13.3,35.2l16.6-37.2l14.4,38l17.1-38.3l14.8,39.1l13.9-31.2l12,31.8l16.8-37.7
						L320.1,175.8z"/>
					<path fill="#38276B" d="M337,139.5l14,37.1l5.3-12C351.6,155.4,345,147,337,139.5z"/>
				</g>
				<path fill="#38276B" d="M222.3,359c-1.2,0-2.4,0-3.6-0.1c-9.1-0.4-17.8-2.6-25.9-6.3c-8.4-3.9-15.8-9.3-21.8-16.1l-15.9-17.9
					l-14.7-24.4c-20.1-27-34.2-52.3-41.9-75.3c-7.2-21.3-9-40.8-5.4-57.9c2.3-10.9,6.9-20.9,13.6-29.7c6.3-8.2,14.5-15.4,24.3-21.4
					l1.1-0.7l176.1,4.5l0.9,0.5c15.6,8.4,28.3,18.6,37.9,30.2c10.4,12.6,16.7,26.7,18.8,41.7c2.5,18.4-1.3,38-11.5,58.4
					c-11,22.1-29.4,45.2-54.8,68.6l0,0l-30.7,28c-6.8,6.2-14.7,10.9-23.5,13.9C237.8,357.7,230.1,359,222.3,359z M177.4,331.5
					c5.3,6,11.7,10.7,19.1,14.1c7.1,3.3,14.7,5.1,22.7,5.5c7.9,0.4,15.7-0.7,23.2-3.2c7.7-2.6,14.6-6.7,20.6-12.1l30.7-28
					c24.7-22.7,42.6-45.1,53.1-66.3c9.5-19,13.1-37.3,10.8-54.2c-1.9-13.7-7.6-26.5-17.1-38c-8.7-10.6-20.3-19.9-34.5-27.7
					l-171.3-4.4c-8.5,5.3-15.5,11.5-21,18.7c-6,7.9-10.1,16.8-12.2,26.7c-3.4,15.8-1.6,34,5.2,54c7.5,22.2,21.3,46.9,40.9,73.3
					l0.1,0.2l14.5,24.1L177.4,331.5z"/>
			</g>
		</g>
		<path fill="#38276B" d="M81.8,282"/>
		<g>
			<path fill="#FFFFFF" d="M137.3,291.8c0,0-39.2,36.1-79.4-10.3c0,0,42.8,18.5,62.2-6.5l6.6-6.9
				C126.7,268.2,138.6,276.6,137.3,291.8z"/>
			<path fill="#38276B" d="M99.7,306.6c-15.3-0.9-29.7-9-42.9-24.1l-4.1-4.7l5.7,2.5c0.1,0,10.7,4.6,23.5,6
				c16.9,1.9,29.3-2.2,37-12.1l7.5-7.9l1,0.7c0.5,0.4,12.6,9,11.2,24.9l0,0.6l-0.4,0.4c-0.6,0.6-14.1,12.8-33.6,13.7
				C103,306.7,101.4,306.7,99.7,306.6z M126.8,270.1l-5.6,5.9c-8.2,10.6-21.9,15.1-39.6,13.1c-7.5-0.9-14.2-2.7-18.6-4.1
				c11.5,11.7,23.9,18,36.8,18.8c19,1.1,33.5-10.4,36.1-12.6C136.6,279.7,129.4,272.4,126.8,270.1z"/>
		</g>
		<g>
			<g>
				<g>
					<path fill="#B3CD38" d="M245.3,325.5c0,0-45.8,44-107.8,33.8c-31.8-5.2-74.7-17-87.2-33.2c-11.8-15.2-18.6-33.7-19.7-52.9
						l-2.7-45.9l18.3,19l10.3-19.6l13.1,44.8c2.6,9,9.5,16.1,18.4,18.9c13.8,4.4,34.6,9.9,48.7,8.1c30.7-4,22.2-31.2,57.5-23.1
						l24.8,0.9L245.3,325.5z"/>
					<g opacity="0.2">
						<g>
							<path fill="#020203" d="M28.5,274.3c3.1,29.3,26.9,67.5,79.7,81.4c54.4,14.4,103,7.6,137-34.4l-6.5-9.8
								c-37.9,38-95.2,29.2-123.2,21.1C81.1,322.7,35.6,300.5,28.5,274.3z"/>
						</g>
					</g>
					<g>
						<path fill="#38276B" d="M263.1,326.8c-3.5-0.3-6.8-0.8-9.8-1.6c-3-0.8-5.7-2.1-8.1-3.8c-0.3-0.2-0.5-0.4-0.8-0.6
							c-0.2-0.2-0.5-0.4-0.7-0.7c-0.2-0.2-0.4-0.5-0.7-0.7l-0.6-0.8c-0.8-1.1-1.4-2.4-1.9-3.9c-1-2.9-1.5-6.3-1.7-9.8l0-0.1
							c-0.1-0.7-0.7-1.2-1.4-1.2c-0.5,0-0.9,0.3-1.1,0.7c-1.7,3.6-2.3,7.5-1.9,11.7c0.2,2.1,0.9,4.2,1.9,6.2c1,2,2.6,3.8,4.3,5.2
							c3.3,2.6,7.5,4.2,11.6,4.5c2,0.1,4.1,0,6-0.4c2-0.4,3.8-1.1,5.6-2.2c0.6-0.4,0.8-1.2,0.4-1.8c-0.2-0.4-0.6-0.6-1-0.6
							L263.1,326.8z"/>
					</g>
					<g>
						<path fill="#38276B" d="M187.9,310.9c0.1-1.7-0.1-3.3-0.5-5c-0.1-0.8-0.4-1.6-0.6-2.5c-0.3-0.8-0.5-1.6-0.9-2.4
							c-1.3-3.2-3.3-6.2-5.9-8.6c-0.6-0.7-1.3-1.2-2-1.8c-0.7-0.5-1.4-1.2-2.2-1.6l-2.4-1.3c-0.8-0.4-1.7-0.7-2.5-1
							c-0.4-0.2-0.8-0.3-1.3-0.5c-0.4-0.1-0.9-0.2-1.3-0.3c-0.9-0.2-1.7-0.4-2.6-0.5c-1.7-0.2-3.5-0.2-5.2-0.2
							c-1.9,0-3.4,1.6-3.4,3.4c0,1.6,1.1,2.9,2.6,3.3l0.6,0.1c1.4,0.4,2.9,0.5,4.2,0.7c1.3,0.4,2.8,0.5,4,1l2,0.6l1.9,0.8
							c0.7,0.2,1.2,0.6,1.8,0.9c0.6,0.3,1.2,0.6,1.8,1.1c2.3,1.5,4.5,3.5,6.3,5.9c1.8,2.3,3.3,5.1,4.5,8l0,0
							c0.1,0.3,0.4,0.4,0.6,0.3C187.8,311.3,187.9,311.1,187.9,310.9z"/>
					</g>
					<g>
						<path fill="#38276B" d="M158.8,317.5c0.5-1,0.9-2,1.2-3.1c0.2-0.5,0.3-1.1,0.4-1.6c0.1-0.6,0.2-1.1,0.2-1.7
							c0.2-2.3-0.1-4.6-0.9-6.8c-0.2-0.6-0.4-1.1-0.7-1.6c-0.3-0.5-0.5-1.1-0.8-1.6l-1-1.5c-0.4-0.5-0.8-0.9-1.2-1.3
							c-0.2-0.2-0.4-0.4-0.6-0.6c-0.2-0.2-0.4-0.4-0.7-0.5c-0.5-0.4-0.9-0.7-1.4-1.1c-1-0.6-2-1.1-3-1.6c-1.1-0.5-2.5,0-3,1.1
							c-0.5,1-0.2,2.1,0.6,2.7l0.3,0.2c0.7,0.6,1.5,1.1,2.3,1.6c0.7,0.6,1.5,1.1,2.1,1.7l1,0.9l0.9,1c0.3,0.3,0.5,0.7,0.8,1.1
							c0.3,0.4,0.5,0.7,0.7,1.1c0.9,1.6,1.6,3.4,1.9,5.3c0.4,1.9,0.5,4,0.3,6l0,0c0,0.2,0.1,0.3,0.3,0.3
							C158.6,317.7,158.7,317.6,158.8,317.5z"/>
					</g>
					<path fill="none" stroke="#38276B" stroke-width="4.8047" stroke-miterlimit="10" d="M218.5,277.9"/>
					<path fill="#38276B" d="M156.4,363c-6.2,0-12.6-0.3-19.1-0.8c-25-1.9-46.3-7.6-63.4-17c-13.8-7.6-24.9-17.5-32.9-29.6
						c-13.4-20.1-13.8-39-13.8-40.7L24,221.3L45,243l11.8-22.4l8,27.5c4.1,13.9,12.2,26,23.6,34.9c11.4,9,25.1,14,39.5,14.5
						c2.9,0.1,5.6,0,8-0.3c12.6-1.6,17.3-7.4,21.9-13c3.1-3.7,6.2-7.5,11.3-9.7c5.6-2.4,12.7-2.5,22.2-0.3l-1.3,5.6
						c-8.3-1.9-14.2-1.9-18.6,0c-3.8,1.6-6.3,4.6-9.1,8.1c-4.8,5.9-10.8,13.1-25.7,15.1c-2.7,0.3-5.7,0.5-8.9,0.3
						c-15.6-0.6-30.5-6-42.8-15.7c-12.3-9.7-21.2-22.8-25.6-37.8l-4-13.8l-8.9,16.8l-15.7-16.2l2.3,38.2l0,0.1
						c0,0.2,0.2,18.7,13,37.8c7.5,11.2,17.9,20.5,30.9,27.6c16.3,8.9,36.8,14.4,60.8,16.2c19.2,1.5,36.6,0.7,51.8-2.1
						c12.1-2.3,22.9-6,32-10.9c8-4.4,13.3-9,16.2-12c3.2-3.3,4.5-5.7,4.5-5.7l5.1,2.8c-0.2,0.4-6,10.6-22.6,19.7
						c-9.6,5.3-21,9.3-33.7,11.7C180.5,361.9,168.9,363,156.4,363z"/>
					<g>
						<path fill="#38276B" d="M162.1,289.8c1.4-1.5,2.8-2.9,4.3-4.2c1.6-1.2,3.2-2.4,4.9-3.3c1.7-0.9,3.6-1.7,5.5-2.3
							c1.9-0.6,3.9-0.9,5.9-1c2-0.1,4,0.1,6.1,0.4c2,0.4,4.1,1,6.1,1.9c4,1.6,7.6,4.1,10.8,7.4c0.2,0.2,0.5,0.2,0.7,0
							c0.2-0.2,0.2-0.4,0.1-0.6c-2.2-4.1-5.6-7.8-9.6-10.4c-1-0.7-2.1-1.3-3.2-1.8c-0.5-0.3-1.1-0.5-1.6-0.8
							c-0.6-0.2-1.2-0.5-1.7-0.7c-2.4-0.8-4.8-1.5-7.4-1.6c-5.1-0.4-10.3,0.6-14.9,2.9c-2.3,1.2-4.4,2.6-6.4,4.3
							c-1.9,1.7-3.6,3.7-4.9,5.8c-1,1.6-0.5,3.7,1.1,4.7c1.4,0.9,3.3,0.6,4.4-0.6L162.1,289.8z"/>
					</g>
				</g>
				<g>
					<path fill="#FFFFFF" d="M268.4,316.9c0,0-19.1,71-100.3,46.6c0,0,63.6-10.1,67.8-53.5l2.6-12.9
						C238.6,297.2,258.7,298.1,268.4,316.9z"/>
					<path fill="#38276B" d="M235.4,361.9c-18.5,10.3-41.3,11.5-67.8,3.5l-8.3-2.5l8.5-1.4c0.2,0,15.9-2.6,31.9-10.3
						c21.1-10.2,32.6-24.1,34.3-41.4l3-14.7l1.7,0.1c0.9,0,21.3,1.2,31.5,20.8l0.4,0.7l-0.2,0.7c-0.3,1.1-7,25.4-29.1,40.8
						C239.4,359.5,237.4,360.8,235.4,361.9z M240.1,299.4l-2.2,11c-1.8,18.4-14.5,33.8-36.6,44.5c-9.4,4.5-18.5,7.3-24.8,8.9
						c22.1,5.2,41.2,3.5,56.9-5.3c23-12.8,31.5-36.9,32.9-41.3C258.7,303.3,244.9,300.1,240.1,299.4z"/>
				</g>
				<path fill="#020203" fill-opacity="0.19" d="M185,363.8c68.6,11.9,85.3-50.2,85.3-50.2c-0.6-1.1-1.2-2.1-1.8-3.1
					C263.9,321.6,242.3,365.6,185,363.8z"/>
				<path fill="#38276B" d="M273.5,327.6c-1-13.8-8.5-23.9-21.8-29.3c-9.9-4-19.3-3.9-19.7-3.9l0,3.9l0-2l0,2c0.1,0,9.1,0,18.3,3.7
					c11.9,4.8,18.4,13.5,19.3,25.8L273.5,327.6z"/>
			</g>
		</g>
		<g>
			<g>
				<path fill="#FFFFFF" d="M194.9,237.4c-3,16.9-18,29.5-35.7,29c-17.7-0.5-32-13.9-34-30.9L194.9,237.4z"/>
				<path fill="#38276B" d="M133.8,260c-6.9-6.3-11.2-14.8-12.4-24l-0.5-4.4l78.5,2.1l-0.8,4.4c-1.6,9.1-6.5,17.4-13.7,23.3
					c-7.3,6-16.4,9.1-25.9,8.9C149.7,270,140.7,266.4,133.8,260z M129.8,239.5c1.5,5.7,4.7,10.9,9.1,14.9c5.6,5.1,12.8,8.1,20.4,8.3
					c7.6,0.2,15-2.3,20.8-7.1c4.6-3.8,8-8.8,9.9-14.4L129.8,239.5z"/>
			</g>
			<circle fill="#38276B" cx="160.3" cy="244" r="8.6"/>
		</g>
		<g>
			<g>
				<path fill="#FFFFFF" d="M281.6,240.7c-3,16.9-18,29.5-35.7,29c-17.7-0.5-32-13.9-34-30.9L281.6,240.7z"/>
				<path fill="#38276B" d="M220.5,263.3c-6.9-6.3-11.2-14.8-12.4-24l-0.5-4.4l78.5,2.1l-0.8,4.4c-1.6,9.1-6.5,17.4-13.7,23.3
					c-7.3,6-16.4,9.1-25.9,8.9C236.5,273.3,227.5,269.7,220.5,263.3z M216.6,242.7c1.5,5.7,4.7,10.9,9.1,14.9
					c5.6,5.1,12.8,8.1,20.4,8.3s15-2.3,20.8-7.1c4.6-3.8,8-8.8,9.9-14.4L216.6,242.7z"/>
			</g>
			<circle fill="#38276B" cx="247" cy="247.3" r="8.6"/>
		</g>
	</g>
	<g>
		<g>
			<g>
				<g>
					<path fill="#FED923" d="M62.9,144.1c0,0,12.2-6,33.8-11.1c2.5-0.6,5.1-1.2,7.9-1.7c0.6-0.1,1.1-0.2,1.7-0.3
						c0.6-0.1,1.1-0.2,1.7-0.3c0.6-0.1,1.1-0.2,1.7-0.3c0.6-0.1,1.2-0.2,1.7-0.3c0.1,0,0.3,0,0.4-0.1c0.8-0.1,1.6-0.3,2.4-0.4
						c0.8-0.1,1.6-0.3,2.4-0.4c0.6-0.1,1.1-0.2,1.7-0.3c1.1-0.2,2.3-0.3,3.5-0.5c36.9-5,89-4.1,149.1,19.2l0,0
						c25.7,9.9,53,24,81.1,43.5c3.6,2.5,7.2,5.1,10.9,7.7c7-6.2-3.7-14.2-3.7-14.2S382.2,92,297.3,44v0
						c-4.7-7.6-24.5-32.8-74.3-28.1c-7.9,0.7-15.5,3.3-22,7.5c-77,11.5-110.2,94.2-110.2,94.2C67.8,127.4,62.9,144.1,62.9,144.1z"/>
				</g>
			</g>
			<g>
				<g>
					<path fill="#DC9F17" d="M161.7,95.5c0,0,18.4,8.1,41.4-16.2c0,0,25.8-40.4,62.1-49.4c0,0-43.8,18.3-68.1,81l-38.5-2L161.7,95.5
						z"/>
				</g>
			</g>
			<g>
				<g>
					<path fill="#DC9F17" d="M285.8,153.6c19.8,8.2,51.1,26.9,66.2,37.3c3.6,2.5,7.2,5.1,10.9,7.7c7-6.2-3.7-14.2-3.7-14.2
						s8.5-34.2-3.8-71.8c-4.6,29.5-35.4,39.5-137.3,2.3c17.6,6.4,60.4,15.9,89.7,34.8C315.6,155,307.6,164.1,285.8,153.6z"/>
				</g>
			</g>
			<g>
				<g>
					<g>
						<path fill="#FED923" d="M307.6,149.8c-2.3-1.5-4.7-2.9-7-4.2C303,146.9,305.3,148.4,307.6,149.8z"/>
					</g>
				</g>
				<g>
					<g>
						<path fill="#FED923" d="M232.5,118c22.2,5.5,45.4,14.2,68.1,27.5c-28.7-16.4-65.9-26.5-82.7-30.5
							C222.9,116.1,227.8,117.1,232.5,118z"/>
					</g>
				</g>
				<g opacity="0.6">
					<g>
						<path fill="#FFFFFF" d="M90.8,117.7c30.9-8.5,90.1-13.2,127.1-2.6c16.6,4.7,54,14.2,82.7,30.5c2.3,1.4,4.7,2.8,7,4.2
							c0,0-104.6-59.7-238.6-16.2C73.2,128.4,80,122.2,90.8,117.7z"/>
					</g>
				</g>
			</g>
			<g opacity="0.6">
				<g>
					<path fill="#FFFFFF" d="M197.9,23.9c1-0.2,2-0.4,3.1-0.5c6.6-4.2,14.1-6.8,22-7.5c48-4.5,68.1,18.7,73.7,27.2
						c-6.7-2.1-13.6-4.1-20.4-6.3c-11.6-7.9-30.2-15-58.6-12.3c-7.9,0.7-15.5,3.3-22,7.5c-2.5,0.4-5,0.8-7.4,1.4
						C191.2,29.9,194.3,26.8,197.9,23.9z"/>
				</g>
			</g>
			<g opacity="0.6">
				<g>
					<path fill="#FFFFFF" d="M362.3,163c-1-56.9-39.5-105.1-104.7-124.6c-1.7-0.5-3.3-1-5-1.4c3.8-2.6,7.8-5,11.8-7.2
						C330,50.2,366.6,102.3,362.3,163z"/>
				</g>
			</g>
			<g opacity="0.6">
				<g>
					<path fill="#FFFFFF" d="M195,26.7c-3.3,2.6-6.1,5.5-8.7,8.6c-21,4.4-40.8,13.4-57.9,26.2C147.3,44.2,170.3,32.1,195,26.7z"/>
				</g>
			</g>
			<g>
				<g>
					<path fill="#38276B" d="M360.8,201.5c-84.3-61.9-160.3-73.4-209.3-72.1c-53.1,1.4-86.7,17.6-87.1,17.8l0,0
						c-1.2,0.6-2.7,0.4-3.8-0.5c-1.1-0.9-1.5-2.3-1.1-3.7c0.2-0.7,5.7-18.4,29.9-28.7c0.1-0.1,0.3-0.1,0.4-0.1
						c22.5-6.6,46.1-9.9,69.9-9.8c11.5,0.1,23.3,0.9,35.1,2.6c25.9-63.1,64.7-78.8,68.8-80.3c0.8-0.4,1.7-0.4,2.5-0.1l0.5,0.2
						c1,0.3,2,0.7,3,1C280.3,31.6,290.2,36,299,41c45.1,25.4,59.9,63.4,64.5,90.7c4.1,24.7,0.8,45.1-0.5,51.5
						c2.2,2,5.6,5.9,5.7,10.4c0.1,2-0.5,5-3.5,7.7c-0.7,0.6-1.5,0.9-2.3,0.9C362.1,202.2,361.4,202,360.8,201.5z M200.3,112.2
						c-0.6,1.5-2.2,2.4-3.8,2.2c-12.4-1.9-24.8-2.8-36.9-2.9c-23.1-0.1-45.9,3-67.7,9.4c-11.1,4.7-17.6,11.1-21.3,16.1
						c13.7-5.1,41.8-13.6,80.3-14.6c31.9-0.9,64.4,3.6,96.5,13.2c38.9,11.7,77.3,31.2,114.3,57.8c-0.3-2.3-3.3-5.2-4.7-6.3
						c-1.1-0.8-1.6-2.3-1.3-3.6c0.1-0.2,5.6-23,0.8-51.1c-6.3-37.4-26.8-66.2-61-85.5c-8.5-4.8-18-9-28.2-12.6
						c-0.7-0.3-1.4-0.5-2.2-0.7C258.8,36.4,223.5,53.7,200.3,112.2z"/>
				</g>
			</g>
			<g>
				<g>
					<path fill="#38276B" d="M88.2,120c-0.9-1-1.2-2.4-0.7-3.6c0.3-0.9,8.7-21.4,26.8-43.7c24-29.6,53.8-47.9,86.2-52.7
						c1.6-0.2,3.2,0.7,3.8,2.2c0.6,1.5,0,3.3-1.4,4.2c-4.2,2.6-7.9,5.9-11,9.7c-10.8,13.2-24.5,36.5-28.7,72.3
						c-0.2,1.8-1.7,3.1-3.5,3.1c0,0,0,0,0,0c-23.2-0.2-46.1,3.1-67.9,9.5c-0.3,0.1-0.7,0.1-1,0.1C89.8,121.2,88.9,120.8,88.2,120z
						 M186.5,31.7c0.6-0.7,1.1-1.4,1.7-2c-31.6,8.7-54.3,29.9-68.3,47.2c-11.4,14.1-18.9,27.6-22.8,35.4c19.3-5,39.3-7.6,59.6-7.7
						C161.4,68.8,175.4,45.3,186.5,31.7z"/>
				</g>
			</g>
			<g>
				<g>
					<path fill="#38276B" d="M351.6,177.1c-21.9-18.3-46.4-33-72.3-44.9c-25.8-12-53.6-20.5-81.7-24.6c-4.6-0.6-5.7,6.1-1,6.9
						c3.6,0.7,12,2.3,15.4,2.9c29,6.2,57.2,16.4,83.8,29.5c8.7,4.4,19.3,10.1,27.6,15.2c8.9,5.5,17.9,11.2,26.2,17.5
						C351.1,180.7,353.2,178.5,351.6,177.1L351.6,177.1z"/>
				</g>
			</g>
			<g>
				<g>
					<path fill="#38276B" d="M197.1,114.5c1.9,0,3.5-1.6,3.5-3.5v0c0-1.9-1.6-3.5-3.5-3.5c-1.9,0-3.5,1.6-3.5,3.5
						S195.2,114.5,197.1,114.5z"/>
				</g>
			</g>
			<g>
				<g>
					<path fill="#38276B" d="M196.6,114.4c-12.4-1.9-24.8-2.8-36.9-2.9c-1,0-1.9-0.4-2.6-1.2c-0.7-0.7-1-1.7-0.9-2.7
						c4.4-37.5,18.8-62,30.2-75.9c3.6-4.4,7.8-8.2,12.7-11.2c7.1-4.5,15.2-7.2,23.6-8c51.6-4.9,72.4,21.5,77.5,29.7
						c0.3,0.6,0.5,1.2,0.5,1.9c0,1.2-0.7,2.4-1.7,3c-1.1,0.6-2.4,0.6-3.5,0c-8.5-4.8-18-9-28.2-12.6c-0.7-0.3-1.4-0.5-2.2-0.7
						c-6.4,2.7-41.7,20-64.9,78.6c-0.5,1.3-1.8,2.2-3.2,2.2C196.9,114.5,196.7,114.4,196.6,114.4z M266.3,26.7l0.5,0.2
						c1,0.3,2,0.7,3,1c4,1.4,7.9,2.9,11.8,4.5c-10.9-8.1-29.2-15.7-58.1-13c-7.3,0.7-14.4,3.1-20.5,7c-4.2,2.6-7.9,5.9-11,9.7
						c-10.4,12.8-23.5,34.8-28.2,68.5c10.2,0.2,20.7,1,31.2,2.5c25.9-63.1,64.7-78.8,68.8-80.3C264.5,26.4,265.4,26.4,266.3,26.7z"
						/>
				</g>
			</g>
			<g>
				<g>
					<path fill="#38276B" d="M228.4,13.2c-14,12.9-26,28.1-35.2,44.8c-1.5,2.6-3.4,6.5-4.7,9.2c-0.6,1.5-2.4,5.7-3.1,7.1
						c-0.6,1.6-2,5.6-2.6,7.3c-0.3,0.7,0.8,1.2,1.2,0.5c0.7-1.6,2.3-5.5,3-7.1c0.7-1.4,2.7-5.4,3.4-6.8c1.5-2.6,3.5-6.3,5.1-8.8
						c6.3-10,13.8-19.4,21.9-27.9c4.6-4.7,9.7-9.7,14.8-13.8C235.1,15.1,231.4,10.6,228.4,13.2L228.4,13.2z"/>
				</g>
			</g>
			<g>
				<g>
					<path fill="#38276B" d="M261.1,23.6c-4.9,0-9.8,1.9-14.1,4c-1.6,0.8-3.3,1.9-4.8,2.7c-0.9,0.6-3.6,2.5-4.5,3.2
						c-14.5,11.1-25.6,26.7-34.4,42.5c-0.5,1-2.2,3.8-2.7,4.8c-0.6,1.2-3.4,6.9-4,8.2c-0.4,0.9-2,4-2.4,4.9
						c-0.2,0.5-5.9,14.1-6.4,15.2c-0.8,2.1,2.3,3.5,3.2,1.4c0.5-1.2,5.9-14.6,6.2-15.2c0.4-1,1.8-3.9,2.3-4.9
						c1.1-2.3,3.5-7.6,4.7-9.8c2.6-5,5.8-11,8.9-15.7c7.6-12.1,16.9-23.8,28.6-32.1c3.8-2.7,8.2-5.1,12.6-6.8
						c2.2-0.8,4.5-1.6,6.9-1.9c0.2,0,0.3-0.1,0.2-0.3C261.3,23.7,261.2,23.7,261.1,23.6L261.1,23.6z"/>
				</g>
			</g>
			<g>
				<g>
					<path fill="#DC9F17" d="M347.7,202.4c8.8-0.1,15.1-3.6,15.1-3.6c-3.6-2.7-7.2-5.2-10.9-7.7C352,191,350.6,196,347.7,202.4z"/>
				</g>
			</g>
			<g>
				<g>
					<path fill="#38276B" d="M344.8,204.3c-0.7-1-0.8-2.3-0.3-3.3c2.7-6,4.1-10.9,4.1-10.9c0.3-1.1,1.1-2,2.2-2.3s2.2-0.2,3.2,0.4
						c3.5,2.4,7.2,5.1,10.9,7.8c1,0.7,1.5,1.8,1.4,3c-0.1,1.2-0.7,2.2-1.8,2.8c-0.3,0.2-7.1,4-16.8,4.1c0,0,0,0,0,0
						C346.6,205.8,345.5,205.3,344.8,204.3z M353.8,196.5c-0.2,0.6-0.4,1.2-0.7,1.8c0.9-0.2,1.7-0.3,2.4-0.5
						C355,197.3,354.4,196.9,353.8,196.5z"/>
				</g>
			</g>
			<g>
				<g>
					<path fill="#FED923" d="M62.9,144.1c0,0,6.3,7.4,35.8,9.3c-1.7-12.9-2-20.4-2-20.4C75.1,138.1,62.9,144.1,62.9,144.1z"/>
				</g>
			</g>
			<g>
				<g>
					<path fill="#38276B" d="M98.4,156.9c-30.1-2-37.5-9.6-38.2-10.5c-0.7-0.8-1-1.9-0.8-3c0.2-1.1,0.9-2,1.9-2.4
						c0.5-0.3,12.8-6.3,34.5-11.4c1-0.2,2.1,0,2.9,0.6c0.8,0.6,1.3,1.6,1.4,2.6c0,0.1,0.3,7.6,2,20.1c0.1,1-0.2,2.1-0.9,2.8
						c-0.7,0.7-1.6,1.1-2.5,1.1C98.6,156.9,98.5,156.9,98.4,156.9z M70.6,144.6c4.3,1.8,11.7,3.9,24.1,5c-0.6-5.3-1-9.4-1.2-12.2
						C83.3,139.9,75.5,142.7,70.6,144.6z"/>
				</g>
			</g>
			<g>
				<g>
					<path fill="#38276B" d="M98.7,156.9L98.7,156.9c1.9,0,3.5-1.6,3.5-3.5c0-1.9-1.6-3.5-3.5-3.5c-1.9,0-3.5,1.6-3.5,3.5
						C95.2,155.3,96.7,156.9,98.7,156.9z"/>
				</g>
			</g>
		</g>
	</g>
</g>
</svg>
