<?xml version="1.0" encoding="utf-8"?>
<!-- Generator: Adobe Illustrator 28.0.0, SVG Export Plug-In . SVG Version: 6.00 Build 0)  -->
<svg version="1.1" id="a" xmlns="http://www.w3.org/2000/svg" xmlns:xlink="http://www.w3.org/1999/xlink" x="0px" y="0px"
	 viewBox="0 0 1317.2 1229.3" style="enable-background:new 0 0 1317.2 1229.3;" xml:space="preserve">
<style type="text/css">
	.st0{fill-rule:evenodd;clip-rule:evenodd;fill:#390075;}
	.st1{fill-rule:evenodd;clip-rule:evenodd;fill:#B3D133;}
	.st2{fill-rule:evenodd;clip-rule:evenodd;fill:#B3D133;stroke:#000000;stroke-width:32.661;stroke-miterlimit:10;}
	.st3{opacity:0.3;fill-rule:evenodd;clip-rule:evenodd;fill:#FFFFFF;}
</style>
<path class="st0" d="M874.1,130.8L874.1,130.8c-135.8,0-253.4,81.5-309.6,195.5l119.5,67c30.8-72.4,106.8-123.1,190.1-123.1
	c115.9,0,204.6,92.4,204.6,204.6c0,114.1-88.7,208.2-204.6,208.2H765.5v-68.8L528.3,751.8l237.2,135.8v-67h108.6
	c190.1,0,344-152.1,344-345.8C1218.1,284.7,1064.2,130.8,874.1,130.8L874.1,130.8z"/>
<path class="st1" d="M419.7,1008.9c-115.9,0-206.4-94.1-206.4-208.2c0-112.3,90.5-204.6,206.4-204.6h108.6v68.8l237.2-139.4
	L528.3,389.7v67H419.7c-190.1,0-344,153.9-344,344s153.9,345.8,344,345.8c135.8,0,253.4-81.5,309.6-195.6l-119.5-67
	C579,956.4,503,1008.9,419.7,1008.9L419.7,1008.9z"/>
<path class="st2" d="M315.7,474.9"/>
<path class="st3" d="M157.1,763.3c0-83.4,19.8-161.6,54.5-228.8c-73.5,63.1-120,156.6-120,261.1c0,143.7,87.9,267.7,212.9,319.7
	C214.5,1032.1,157.1,905.3,157.1,763.3z"/>
<path class="st3" d="M1137.2,518.5c0,83.4-19.8,161.6-54.5,228.8c73.5-63.1,120-156.6,120-261.1c0-143.7-87.9-267.7-212.9-319.7
	C1079.8,249.8,1137.2,376.6,1137.2,518.5z"/>
<path d="M785.9,916.3L499.7,752.5l286.2-166.1v80.8h92.3c51.2,0,98.8-20,134-56.4c35-36,54.2-84.2,54.2-135.5
	c0-50.4-19.2-97.5-54.1-132.9c-35.3-35.7-82.9-55.4-134.1-55.4c-37.4,0-74,11-105.8,31.7c-31.4,20.5-55.3,48.6-69.2,81.4l-7.1,16.8
	l-148.9-83.5l6.8-13.9c29.5-59.9,74.6-110.7,130.7-147c58.1-37.7,125.1-57.6,193.5-57.6c48.7,0,95.9,9.5,140.3,28.3
	c42.9,18.1,81.4,44.1,114.5,77.2c33.1,33.1,59,71.6,77.2,114.5c18.8,44.4,28.3,91.6,28.3,140.3c0,97.8-37.5,189.1-105.5,257.1
	c-67.7,67.7-158.2,105-254.8,105h-92.3V916.3z M565.1,752.3L753.3,860v-55.1h124.9c87.9,0,170.2-33.9,231.7-95.5
	c61.8-61.9,95.9-145,95.9-234c0-87.6-34.1-169.9-95.9-231.7c-61.9-61.9-144.2-95.9-231.7-95.9c-62.2,0-122.9,18.1-175.8,52.4
	c-46.8,30.3-85.2,71.7-112,120.3l90.5,50.7c37.6-70.5,114.6-116.7,197.3-116.7c60,0,115.9,23.1,157.4,65.1
	c41,41.5,63.5,96.8,63.5,155.8c0,59.9-22.5,116.1-63.4,158.3c-41.5,42.7-97.4,66.3-157.5,66.3H753.3v-56.8L565.1,752.3z"/>
<path d="M423.8,1163.4c-198.7,0-360.3-162.5-360.3-362.1c0-48.7,9.5-95.9,28.3-140.3c18.1-42.9,44.1-81.4,77.2-114.5
	c33.1-33.1,71.6-59,114.5-77.2c44.4-18.8,91.6-28.3,140.3-28.3h92.3v-78.9l286.1,163.8L516.1,694v-81h-92.3
	c-51.4,0-99.4,19.7-135.1,55.4c-35.4,35.4-55,82.6-55,132.8c0,51.2,19.6,99.3,55.1,135.5c35.7,36.4,83.7,56.4,135,56.4
	c37.2,0,73.7-11.3,105.7-32.6c30.9-20.6,55.5-49.9,69.4-82.4l7.1-16.8l148.9,83.5l-6.8,13.9c-29.5,59.9-74.6,110.7-130.7,147.1
	C559.2,1143.5,492.3,1163.4,423.8,1163.4z M423.8,473.7c-87.6,0-169.9,34.1-231.7,95.9c-61.9,61.9-95.9,144.1-95.9,231.7
	c0,181.7,147,329.5,327.7,329.5c62.2,0,122.9-18.1,175.8-52.4c46.8-30.3,85.2-71.7,112-120.4l-90.5-50.7
	c-16.9,31.9-42.1,59.5-73.5,80.5c-37.3,24.9-80.1,38.1-123.8,38.1c-60.2,0-116.4-23.5-158.3-66.2c-41.5-42.3-64.4-98.5-64.4-158.3
	c0-59,22.9-114.3,64.5-155.9c41.9-41.9,98.1-65,158.2-65h124.9V637l188.3-110.7L548.7,418.5v55.2H423.8z"/>
</svg>
