<?xml version="1.0" encoding="utf-8"?>
<!-- Generator: Adobe Illustrator 26.2.1, SVG Export Plug-In . SVG Version: 6.00 Build 0)  -->
<svg version="1.1" id="a" xmlns="http://www.w3.org/2000/svg" xmlns:xlink="http://www.w3.org/1999/xlink" x="0px" y="0px"
	 viewBox="0 0 1912 3147.3" style="enable-background:new 0 0 1912 3147.3;" xml:space="preserve">
<style type="text/css">
	.st0{fill:#F94A06;}
	.st1{fill:#EFAF30;}
	.st2{fill:#FFEC7B;}
	.st3{fill:#B3D133;}
	.st4{opacity:0.6;}
	.st5{fill:#FFFFFF;}
	.st6{opacity:0.3;}
	.st7{fill:#390075;}
	.st8{opacity:0.35;}
</style>
<g>
	<g>
		<g>
			<g>
				<path class="st0" d="M548.2,2485.2c0,0,194.3,155.6,91.8,359.8c-102.4,204.2-347.1,172-394.5,275.9
					c47.4-103.8-137.2-267.6-50.1-478.7s331.9-166.4,331.9-166.4"/>
			</g>
		</g>
		<g>
			<g>
				<path class="st1" d="M515.5,2529.3c-42-4.1-163.4-5.3-210.6,109c-35.7,86.6-6,163.6,25.4,245.1c3.6,9.4,7.3,18.8,10.8,28.2
					c9.4-3.5,18.9-7,28.4-10.4c82.2-29.7,159.8-57.6,201.8-141.4C626.5,2649.6,546.6,2558.9,515.5,2529.3z"/>
			</g>
		</g>
		<g>
			<g>
				<path class="st2" d="M506.8,2548.5c-23.1-2.3-89.9-2.9-115.9,60c-19.7,47.6-3.3,90,14,134.8c2,5.2,4,10.3,5.9,15.5
					c5.2-1.9,10.4-3.8,15.6-5.7c45.2-16.3,87.9-31.7,111-77.8C567.9,2614.7,523.9,2564.8,506.8,2548.5z"/>
			</g>
		</g>
		<g>
			<g>
				<path d="M245.6,3147.3c-3.7,0-7.4-0.8-10.9-2.4c-9.7-4.4-15.4-14-15.4-24c0-3.7,0.8-7.4,2.4-10.9c15.2-33.4-3.9-83-26.1-140.5
					c-35.2-91.2-79-204.8-24.4-337.3c39.2-95,116.4-155.8,223.4-175.9c78.7-14.8,145.6-2.1,148.4-1.6c4.1,0.8,8,2.6,11.2,5.1
					c2.3,1.8,55.6,44,96,113.1c54.9,93.9,59.6,192.1,13.5,284c-64.3,128.1-178.8,169.4-270.8,202.6c-58,20.9-108.1,39-123.3,72.4
					C265.2,3141.5,255.6,3147.3,245.6,3147.3z M471.8,2501.5c-75,0-198.4,21.2-251.9,150.7c-46.6,113-8.7,211.4,24.8,298.2
					c14,36.2,26.9,69.8,32.5,101.3c27.4-16.5,61.3-28.7,97.8-41.9c87.5-31.6,186.7-67.4,241.5-176.6
					c83.2-165.9-61.3-302.9-90.1-327.9C516.6,2503.8,496.9,2501.5,471.8,2501.5z"/>
			</g>
		</g>
	</g>
	<g>
		<g>
			<path class="st3" d="M441.6,1591c0,0-599.4-32.9-357.8,604.7c0,0,75.7-315.6,347.6-274.2L441.6,1591z"/>
		</g>
	</g>
	<g class="st4">
		<g>
			<path class="st5" d="M439.7,1652.8l1.9-61.9c0,0-599.4-32.9-357.8,604.7c0,0,0.3-1.3,0.9-3.6
				C-69.1,1696.6,332.6,1655.2,439.7,1652.8z"/>
		</g>
	</g>
	<g>
		<g>
			<path d="M83.8,2222c-10.9,0-20.8-6.7-24.7-17c-79.9-211-78.8-374.9,3.4-487.3c121-165.4,370-153.7,380.5-153.1
				c14.3,0.8,25.4,12.8,24.9,27.2l-10.3,330.5c-0.2,7.5-3.7,14.6-9.5,19.5c-5.8,4.8-13.4,7-20.9,5.8
				c-101.7-15.5-185.6,21.4-249.4,109.7c-49.7,68.7-68.3,143.9-68.5,144.6c-2.7,11.2-12.5,19.4-24,20.1
				C84.9,2222,84.3,2222,83.8,2222z M414.4,1617.3c-63.1,1.8-226.3,18-309.4,131.8c-61.9,84.8-68.8,208-20.7,366.6
				c11.8-26.7,28.1-57.7,49.9-88.1c69.2-96.5,162.6-142.9,271.7-135.6L414.4,1617.3z"/>
		</g>
	</g>
	<g>
		<g>
			<path class="st3" d="M1272.8,1970.3c0,0,417.6,431.2-222.3,666.6c0,0,188.8-264-20.6-442.2L1272.8,1970.3z"/>
		</g>
	</g>
	<g class="st6">
		<g>
			<path d="M1064.6,2614.5c39.7-67.2,138-272.8-34.8-419.9l169.9-156.9C1276.6,2138.7,1439.9,2419.5,1064.6,2614.5z"/>
		</g>
	</g>
	<g>
		<g>
			<path d="M1050.5,2663.2c-8.1,0-15.9-3.7-21-10.4c-7-9.2-7.2-21.9-0.5-31.3c0.4-0.6,45-64,64.3-146.5
				c24.8-106.1-2.3-193.7-80.6-260.3c-5.7-4.9-9.1-12-9.3-19.6c-0.2-7.5,2.9-14.8,8.5-19.9l242.9-224.3c10.5-9.7,26.9-9.3,36.9,1
				c7.3,7.6,179.3,188,133.7,387.8c-31,135.7-154.1,244-365.8,321.9C1056.6,2662.7,1053.5,2663.2,1050.5,2663.2z M1068.7,2194.6
				c77,77.5,103.1,178.5,75.6,294c-8.7,36.3-21.4,69-33.8,95.4c151.5-67.7,240-153.6,263.4-256.1c31.4-137.7-63.2-271.1-103.2-319.9
				L1068.7,2194.6z"/>
		</g>
	</g>
	<g>
		<g>
			<g>
				<path class="st7" d="M755,2004.6l299.3,136.6l-175.7,196.7c-43.9,49.2-114.7,64-174.7,36.6l-97.3-44.4l-97.3-44.4
					c-60-27.4-95.2-90.6-86.8-156l33.4-261.7L755,2004.6"/>
			</g>
		</g>
		<g class="st6">
			<g>
				<path d="M786.8,2019.1l-157.6,176.3c-43.9,49.2-114.7,64-174.7,36.6l-11.4-5.2c15.3,25.2,37.9,45.9,66,58.8l97.3,44.4l97.3,44.4
					c60,27.4,130.8,12.5,174.7-36.6l175.7-196.7L786.8,2019.1z"/>
			</g>
		</g>
		<g>
			<g>
				<path d="M766.6,2414.7c-24.8,0-50-5.3-73.8-16.1l-194.7-88.9c-70.9-32.4-111.9-106-102-183.3l33.4-261.7
					c1.1-8.3,6-15.6,13.3-19.7c7.3-4.1,16.2-4.4,23.8-0.9l299.3,136.6c0.1,0,0.2,0.1,0.3,0.1l299,136.4c7.6,3.5,13.1,10.4,14.9,18.6
					c1.7,8.2-0.6,16.7-6.1,23l-175.8,196.7C863.7,2394.1,815.7,2414.7,766.6,2414.7z M477.3,1906.9L448.5,2133
					c-6.9,54.2,21.8,105.9,71.6,128.7l194.7,88.9c49.7,22.7,107.7,10.6,144.1-30.2l151.9-170l-266.7-121.7c-0.1,0-0.2-0.1-0.3-0.1
					L477.3,1906.9z"/>
			</g>
		</g>
	</g>
	<g>
		<g>
			<g>
				<path class="st5" d="M1079.8,2219.5c-40.3,38.8-100.1,49.1-151,25.9l-469.6-214.3c-50.9-23.2-82.3-75.2-79.4-131
					c10.7-203.7,64.9-710.2,333.6-1227.8c56.5-108.7,119.4-199.2,185.4-274.5c250.6-286.4,544.1-354.5,681.7-370.5
					c49.8-5.8,98.8,16.6,127,58c78.2,114.5,219.1,380.7,166.9,757.7c-13.6,99.3-40.8,206.2-85.9,320.1
					C1573.7,1705.1,1226.6,2077.9,1079.8,2219.5z"/>
			</g>
		</g>
		<g>
			<g>
				<path class="st3" d="M1874.5,843c-405.7-551.2-975.6-445.1-975.6-445.1c250.6-286.4,544.1-354.5,681.7-370.5
					c49.8-5.8,98.8,16.6,127,58C1785.8,199.8,1926.7,466,1874.5,843z"/>
			</g>
		</g>
		<g class="st4">
			<g>
				<path class="st5" d="M1698.4,73.4c-10.6-1.4-21.4-1.5-32.3-0.2c-137.7,16-431.1,84.1-681.8,370.5
					c-66,75.4-128.9,165.9-185.4,274.6C575,1149.7,500,1573.4,475.1,1820.4c-5,49.4-7.9,91.6-9.7,125.5
					c-2.2,41.8,14.9,81.5,45.1,108.6l-33.5-15.3l-17.6-8.1c-50.9-23.2-82.3-75.2-79.4-131c10.7-203.7,64.8-710.2,333.5-1227.8
					c56.5-108.6,119.4-199.2,185.5-274.6c250.6-286.3,544.1-354.5,681.7-370.5C1625.3,22.1,1669.4,39.7,1698.4,73.4z"/>
			</g>
		</g>
		<g>
			<g>
				<path d="M1874.5,869.5c-8.1,0-16.1-3.7-21.3-10.7c-204-277.2-450.9-380.7-622.1-418.7c-186.2-41.3-326.1-16.5-327.5-16.2
					c-14.3,2.6-28.1-6.8-30.7-21.2c-2.6-14.3,6.8-28.1,21.1-30.7c6-1.1,150-27,346.2,16.1c180.7,39.7,441.1,148.1,655.5,439.5
					c8.6,11.7,6.1,28.3-5.6,36.9C1885.4,867.8,1879.9,869.5,1874.5,869.5z"/>
			</g>
		</g>
		<g>
			<g>
				<path d="M985.5,2284.3c-22.8,0-45.9-4.9-67.7-14.8l-469.6-214.3c-61.1-27.9-98.3-89.3-94.8-156.5
					c10.4-197.5,64-713.7,336.5-1238.5c277.3-534,713.1-638.8,887.6-659.1c59.7-6.9,117.9,19.6,151.9,69.3
					c99,145.1,305.4,542.9,83.7,1102.3c-217.9,549.8-572.6,928.5-715,1065.8C1067,2268.5,1026.6,2284.3,985.5,2284.3z M1596.3,52.8
					c-4.2,0-8.4,0.2-12.6,0.7c-166.1,19.3-581.2,119.4-846.8,631c-267.8,515.7-320.4,1022.8-330.7,1217
					c-2.4,45.4,22.7,86.9,64,105.7l469.6,214.3c41.2,18.8,89.1,10.6,121.8-20.9c139.9-134.9,488.5-507.1,702.6-1047.2
					c212.4-535.9,16-915-78.3-1053.1C1665.4,70.2,1631.9,52.8,1596.3,52.8z"/>
			</g>
		</g>
		<g>
			<g class="st8">
				<path d="M1660.9,43c74.4,191.3,40.3,798.8-127.3,1272.1c-104.7,295.6-247.5,494.8-369.1,622.7
					c-155.3,163.3-400.8,204.3-598.8,96.6c-1.1-0.6-2.2-1.2-3.3-1.8c-7.8-4.3-125.1-47.5-132.8-52.1c-3.3-1.7-6.7-3.4-10-5.2
					c-1.1-0.6-2.2-1.2-3.3-1.8c-0.8-0.4-1.5-0.9-2.3-1.3c-0.8-0.4-1.3-1.2-1.5-2.1c0,0,0,0,0,0c0,0,0,0,0,0
					c5.3,28.6,9.9,43.8,9.9,43.8c46.7,44.8,207.7,122.3,262.7,154.8c105.2,55.2,221.8,87.8,342.2,94.3c0,0,265.7-254.3,614.5-819.6
					c378.1-612.7,186.3-1157.4,125-1258.7"/>
			</g>
		</g>
	</g>
	<g>
		<g>
			<path class="st3" d="M857.2,1780.6c0,0,84.7,150.9,11.5,324.3c-73.2,173.4-301.6,311.4-301.6,311.4s-45.4-262.9,37.6-431.8
				S857.2,1780.6,857.2,1780.6z"/>
		</g>
	</g>
	<g class="st4">
		<g>
			<path class="st5" d="M634.9,2052.3c75.7-154.2,223.5-196.7,248.7-202.9c-11.8-42.7-26.4-68.7-26.4-68.7s-169.5,34.9-252.5,203.8
				s-37.6,431.8-37.6,431.8s7.8-4.7,20.9-13.5C581.2,2311.6,580.9,2162.1,634.9,2052.3z"/>
		</g>
	</g>
	<g>
		<g>
			<path d="M567.1,2442.6c-3.7,0-7.5-0.8-11-2.4c-7.9-3.6-13.6-10.9-15-19.5c-1.9-11.1-45.9-273.4,39.9-448
				c87.7-178.4,263.4-216.5,270.8-218c11.2-2.3,22.7,2.9,28.3,12.9c3.7,6.6,90.1,164.3,12.8,347.4
				c-75.7,179.2-302.6,317.9-312.2,323.7C576.6,2441.3,571.9,2442.6,567.1,2442.6z M842.8,1812.1c-44.8,14.8-154.6,62.2-214.4,183.9
				c-59.3,120.8-49.2,296.3-40.6,374.9c65-45.1,204.3-152.4,256.6-276.4C897.1,1969.6,861,1855.6,842.8,1812.1z"/>
		</g>
	</g>
	<g>
		<g>
			<g>
				<g>
					<circle class="st7" cx="1173.1" cy="1088.4" r="361.1"/>
				</g>
			</g>
			<g class="st4">
				<g>
					<path class="st5" d="M889.8,1006.4c82.8-181.4,297-261.4,478.4-178.6c50.1,22.8,92.4,55.7,125.7,95.2
						c-35.8-69.5-94.3-128-170.9-163c-181.4-82.8-395.6-2.8-478.4,178.6c-59.9,131.4-34.5,279.8,52.9,383.2
						C848.5,1226.8,842,1111.1,889.8,1006.4z"/>
				</g>
			</g>
			<g>
				<g>
					<path d="M1172.9,1476.1c-54.8,0-109.4-11.8-160.7-35.2c-94.2-43-165.9-120-202.1-217c-36.2-97-32.5-202.2,10.5-296.4
						c88.7-194.4,319-280.3,513.4-191.6c194.4,88.7,280.3,319,191.6,513.4l0,0c-43,94.2-120,165.9-217,202.1
						C1264.4,1467.9,1218.6,1476.1,1172.9,1476.1z M1173.6,753.7c-127.1,0-248.9,72.7-305,195.7c-37.1,81.3-40.3,172.3-9.1,256
						c31.3,83.8,93.3,150.3,174.6,187.4c81.3,37.1,172.2,40.3,256,9.1c83.8-31.3,150.3-93.3,187.4-174.6l0,0
						c76.6-167.9,2.4-366.8-165.5-443.4C1267.1,763.5,1220,753.7,1173.6,753.7z"/>
				</g>
			</g>
		</g>
		<g>
			<g>
				<g>
					
						<ellipse transform="matrix(0.7071 -0.7071 0.7071 0.7071 -426.061 1148.2734)" class="st5" cx="1173.1" cy="1088.4" rx="217.8" ry="217.8"/>
				</g>
			</g>
			<g class="st6">
				<g>
					<path d="M1020.1,1080.9c49.9-109.3,179.3-157.6,288.6-107.7c29,13.2,53.7,32.2,73.4,54.8c-17.1-58.9-58.7-110.3-118.7-137.7
						c-109.3-49.9-238.8-1.5-288.6,107.7c-36.6,80.2-20.2,171.3,34.3,233.9C995.2,1183.5,997.6,1130.2,1020.1,1080.9z"/>
				</g>
			</g>
			<g>
				<g>
					<path d="M1172.7,1332.7c-33.9,0-68.3-7.1-101-22c-59.3-27-104.5-75.6-127.3-136.8c-22.8-61.2-20.5-127.5,6.5-186.8
						c27-59.3,75.6-104.5,136.8-127.3c61.2-22.8,127.5-20.5,186.8,6.5c122.5,55.9,176.7,201.1,120.8,323.6
						C1354.3,1279.6,1265.4,1332.7,1172.7,1332.7z M1173.3,897c-72.7,0-142.4,41.6-174.5,112c-43.8,96-1.3,209.8,94.7,253.7
						c96,43.8,209.8,1.4,253.7-94.7c43.8-96,1.3-209.8-94.7-253.7C1226.9,902.5,1199.9,897,1173.3,897z"/>
				</g>
			</g>
		</g>
	</g>
</g>
</svg>
