<?xml version="1.0" encoding="utf-8"?>
<!-- Generator: Adobe Illustrator 27.2.0, SVG Export Plug-In . SVG Version: 6.00 Build 0)  -->
<svg version="1.1" id="Calque_1" xmlns="http://www.w3.org/2000/svg" xmlns:xlink="http://www.w3.org/1999/xlink" x="0px" y="0px"
	 viewBox="0 0 171.8 204.9" enable-background="new 0 0 171.8 204.9" xml:space="preserve">
<g>
	<g id="XMLID_343_">
		<g id="XMLID_326_">
			
				<linearGradient id="XMLID_00000160175929976671753570000014056575207439694493_" gradientUnits="userSpaceOnUse" x1="141.9571" y1="-7.9099" x2="351.0968" y2="-7.9099" gradientTransform="matrix(0.2118 -0.9773 0.9773 0.2118 41.3117 346.334)">
				<stop  offset="0" style="stop-color:#6758A2"/>
				<stop  offset="1" style="stop-color:#D29BC6"/>
			</linearGradient>
			<path id="XMLID_322_" opacity="0.28" fill="url(#XMLID_00000160175929976671753570000014056575207439694493_)" d="M52.2,34.3
				c-2.4,9.8-1.4,19.5,2.1,28.1c3.3,7.9,0.7,17.1-6.6,21.8c-6.1,3.9-10.7,10.1-12.4,17.7c-0.8,3.9-0.8,7.8-0.1,11.5
				c1.1,5.6-0.7,11.3-4.6,15.4c-5.8,6.2-9.9,14.1-11.5,23.1C15,175.3,30,198.1,53,203.6c24.7,6,49.4-9.6,54.7-34.3
				c1.6-7.6,1.3-15.1-0.7-22.1c-2.6-8.8,1.9-18.1,10.5-21.5c10.6-4.2,22.1-10.9,24.3-20.6c1.7-8,0.5-16-2.9-22.9
				c-3.2-6.4-3.4-13.9-0.8-20.6c0.9-2.2,1.6-4.6,2.1-7c5.4-24.7-10.6-49.1-35.6-53.9C81.1-3.7,57.9,11.1,52.2,34.3z"/>
			<g id="XMLID_325_">
				<defs>
					<path id="XMLID_323_" d="M129.6,62.6c-0.6-4.5-2.3-8.9-5-13C115.8,36.3,98.1,31.8,84,39.2c-8.8,4.6-14.4,12.7-16.2,21.6
						c-1.3,6.5-7.2,10.9-13.7,10.4c-10.2-0.7-20.8,1.6-30.3,7.5c-22.6,14-30.4,43.7-17.6,67.1c13.7,25,45.1,33.6,69.6,19.5
						c7.2-4.1,12.9-9.8,17.1-16.3c3.8-5.9,11.5-7.7,17.6-4.3c11.7,6.5,26.4,6.8,38.7-0.6c17.7-10.6,24-33.7,14.1-51.8
						c-5.3-9.8-14.2-16.3-24.1-18.9C134.1,72,130.4,67.7,129.6,62.6z"/>
				</defs>
				<clipPath id="XMLID_00000146471414679328361570000018043561610270995894_">
					<use xlink:href="#XMLID_323_"  overflow="visible"/>
				</clipPath>
				
					<linearGradient id="XMLID_00000172412866582794256300000008712408547728154555_" gradientUnits="userSpaceOnUse" x1="23.0056" y1="59.3761" x2="202.3189" y2="186.888" gradientTransform="matrix(0.8655 -0.5008 0.5008 0.8655 -41.3302 57.7836)">
					<stop  offset="0" style="stop-color:#6758A2"/>
					<stop  offset="1" style="stop-color:#D29BC6"/>
				</linearGradient>
				
					<path id="XMLID_315_" clip-path="url(#XMLID_00000146471414679328361570000018043561610270995894_)" fill="url(#XMLID_00000172412866582794256300000008712408547728154555_)" d="
					M129.6,62.6c-0.6-4.5-2.3-8.9-5-13C115.8,36.3,98.1,31.8,84,39.2c-8.8,4.6-14.4,12.7-16.2,21.6c-1.3,6.5-7.2,10.9-13.7,10.4
					c-10.2-0.7-20.8,1.6-30.3,7.5c-22.6,14-30.4,43.7-17.6,67.1c13.7,25,45.1,33.6,69.6,19.5c7.2-4.1,12.9-9.8,17.1-16.3
					c3.8-5.9,11.5-7.7,17.6-4.3c11.7,6.5,26.4,6.8,38.7-0.6c17.7-10.6,24-33.7,14.1-51.8c-5.3-9.8-14.2-16.3-24.1-18.9
					C134.1,72,130.4,67.7,129.6,62.6z"/>
			</g>
			
				<linearGradient id="XMLID_00000176734336789512613470000005971467035738398876_" gradientUnits="userSpaceOnUse" x1="-84.7891" y1="-175.5079" x2="130.3765" y2="-175.5079" gradientTransform="matrix(-0.5352 0.8448 -0.8448 -0.5352 -34.4549 2.4935)">
				<stop  offset="0" style="stop-color:#6758A2"/>
				<stop  offset="1" style="stop-color:#D29BC6"/>
			</linearGradient>
			<path id="XMLID_254_" fill="url(#XMLID_00000176734336789512613470000005971467035738398876_)" d="M91.3,183
				c2.2-3.3,4-6.7,5.3-10.2c3.2-8.6,12-13.8,21-12.2c14.2,2.4,33.7,0.9,46.9-20.1c10.7-16.9,9.2-38.1-2.1-53.3
				c-4.7-6.3-5.2-14.7-1.2-21.4c0.1-0.1,0.1-0.2,0.2-0.3c9-15.5,4.4-35.7-10.4-45.8c-16.3-11.2-38.4-6.6-48.9,10
				c-2.9,4.6-4.6,9.6-5.2,14.6c-0.9,7.6-6.3,13.7-13.6,15.7c-11.1,2.9-21.1,9.8-27.7,20.2C52.2,85.6,50,91.5,49,97.5
				c-1.1,6.8-5.7,12.6-12.2,14.9c-9.5,3.4-17.9,9.9-23.8,19c-14.1,22.2-7.2,51.7,15.5,65.3C49.7,209.4,77.4,203.4,91.3,183z"/>
		</g>
		<g id="XMLID_342_">
			
				<linearGradient id="XMLID_00000096756289016322992630000015293740634143181753_" gradientUnits="userSpaceOnUse" x1="24.8737" y1="54.848" x2="53.0025" y2="54.848" gradientTransform="matrix(0.8655 -0.5008 0.5008 0.8655 -41.3302 57.7836)">
				<stop  offset="0" style="stop-color:#6758A2"/>
				<stop  offset="1" style="stop-color:#D29BC6"/>
			</linearGradient>
			<circle id="XMLID_327_" fill="url(#XMLID_00000096756289016322992630000015293740634143181753_)" cx="19.8" cy="85.8" r="14.1"/>
		</g>
		<g id="XMLID_329_">
			
				<linearGradient id="XMLID_00000167364819503901187130000006683387027425275012_" gradientUnits="userSpaceOnUse" x1="57.0829" y1="187.4202" x2="80.1797" y2="187.4202" gradientTransform="matrix(0.8655 -0.5008 0.5008 0.8655 -41.3302 57.7836)">
				<stop  offset="0" style="stop-color:#6758A2"/>
				<stop  offset="1" style="stop-color:#D29BC6"/>
			</linearGradient>
			
				<circle id="XMLID_330_" fill="url(#XMLID_00000167364819503901187130000006683387027425275012_)" cx="111.9" cy="185.6" r="11.5"/>
		</g>
	</g>
</g>
</svg>
