<?xml version="1.0" encoding="utf-8"?>
<!-- Generator: Adobe Illustrator 28.0.0, SVG Export Plug-In . SVG Version: 6.00 Build 0)  -->
<svg version="1.1" id="Calque_1" xmlns="http://www.w3.org/2000/svg" xmlns:xlink="http://www.w3.org/1999/xlink" x="0px" y="0px"
	 viewBox="0 0 1105 863.2" style="enable-background:new 0 0 1105 863.2;" xml:space="preserve">
<style type="text/css">
	.st0{fill:#5C5682;}
	.st1{fill:#390075;}
	.st2{fill:#B3D133;}
	.st3{opacity:0.55;}
	.st4{fill:#FFFFFF;}
	.st5{opacity:0.3;}
	.st6{fill:#C3B2D3;}
	.st7{filter:url(#Adobe_OpacityMaskFilter);}
	.st8{filter:url(#Adobe_OpacityMaskFilter_00000177464388539975914870000013529375559115412609_);}
	.st9{mask:url(#SVGID_1_);fill:url(#SVGID_00000138567649426178198490000002301630064139597247_);}
	.st10{opacity:0.55;fill:url(#SVGID_00000153684327243576206620000010416261553264800943_);}
	.st11{filter:url(#Adobe_OpacityMaskFilter_00000065764582761222342040000002022982870614169269_);}
	.st12{filter:url(#Adobe_OpacityMaskFilter_00000181797680196178182140000002473605023076518824_);}
	
		.st13{mask:url(#SVGID_00000046329524555713872830000008452327849965947025_);fill:url(#SVGID_00000163050691804143643810000000101744537364035745_);}
	.st14{opacity:0.55;fill:url(#SVGID_00000005255734549043853430000016040801684493397918_);}
	.st15{filter:url(#Adobe_OpacityMaskFilter_00000137120133169380433260000008899024232188799630_);}
	.st16{filter:url(#Adobe_OpacityMaskFilter_00000010292155923887295340000013132620151526461332_);}
	
		.st17{mask:url(#SVGID_00000164499261773673100130000007156597158630289836_);fill:url(#SVGID_00000113327309351563119600000009309349621767683504_);}
	.st18{opacity:0.55;fill:url(#SVGID_00000129887842661534769810000011551577166558945693_);}
	.st19{filter:url(#Adobe_OpacityMaskFilter_00000157279969253121138170000016797202091470332800_);}
	.st20{filter:url(#Adobe_OpacityMaskFilter_00000046301117759388203630000017454528363055471790_);}
	
		.st21{mask:url(#SVGID_00000109030377407324813690000011359103225842785696_);fill:url(#SVGID_00000158714663187229049820000014160272944229546627_);}
	.st22{opacity:0.55;fill:url(#SVGID_00000063613707975484345930000010727297905120707968_);}
	.st23{fill:#A6B1BC;}
	.st24{opacity:0.2;}
	.st25{opacity:0.2;fill:#390075;}
	.st26{opacity:0.35;}
	.st27{opacity:0.15;}
	.st28{opacity:0.7;}
	.st29{fill-opacity:0.19;}
	.st30{fill:#FED922;}
	.st31{fill:#DD9F17;}
	.st32{opacity:0.6;}
	.st33{opacity:0.48;}
</style>
<g>
	<g>
		<g>
			<g>
				<polygon class="st0" points="324.3,467.6 686.8,467.6 695,554 328.4,554 				"/>
				<path class="st1" d="M323.5,466.9h364l8.4,87.9H327.7L323.5,466.9z M686.1,468.3H325l4,84.9h365.2L686.1,468.3z"/>
			</g>
			<g>
				<path class="st2" d="M418.8,594.2h179.3l-21-76.7c-1.9-7-8.3-11.9-15.6-11.9H450.1c-7.7,0-14.4,5.4-15.9,13L418.8,594.2z"/>
				<path class="st1" d="M433.5,518.4c1.6-7.9,8.6-13.6,16.6-13.6h111.4c7.6,0,14.3,5.1,16.3,12.5l21.3,77.6H418L433.5,518.4z
					 M576.4,517.7c-1.8-6.7-8-11.4-15-11.4H450.1c-7.3,0-13.7,5.2-15.2,12.4l-15.2,74.8h177.5L576.4,517.7z"/>
			</g>
			<g class="st3">
				<path class="st4" d="M418.8,594.2h2.5l12.8-63.3c1.5-7.5,8.2-13,15.9-13h111.4c7.3,0,13.7,4.9,15.6,11.9l17.6,64.3h3.4l-21-76.7
					c-1.9-7-8.3-11.9-15.6-11.9H450.1c-7.7,0-14.4,5.4-15.9,13L418.8,594.2z"/>
			</g>
			<g>
				
					<rect x="330.5" y="546.4" transform="matrix(-1 -4.489932e-11 4.489932e-11 -1 1006.7175 1140.0714)" class="st1" width="345.8" height="47.3"/>
			</g>
			<g>
				<path class="st1" d="M415,597.4c-0.9-1.2-1.3-2.7-1-4.1l15.9-78.2c1.7-8.4,9.1-14.4,17.7-14.4h116.4c8.1,0,15.2,5.5,17.4,13.3
					l21.7,79.1c0.4,1.5,0.1,3.1-0.8,4.3c-0.9,1.2-2.4,1.9-3.9,1.9H418.8C417.3,599.2,415.9,598.5,415,597.4z M571.7,516.5
					c-1-3.5-4.2-6-7.8-6H447.5c-3.8,0-7.2,2.7-8,6.5l-14.7,72.3h166.8L571.7,516.5z"/>
			</g>
			<g>
				<path class="st1" d="M328.4,599.2h358.4c2.7,0,5-2.2,5-5s-2.2-5-5-5H328.4c-2.7,0-5,2.2-5,5S325.6,599.2,328.4,599.2z"/>
			</g>
			<g>
				<path class="st1" d="M324.3,472.6h362.5c2.7,0,5-2.2,5-5c0-2.7-2.2-5-5-5H324.3c-2.7,0-5,2.2-5,5
					C319.3,470.3,321.5,472.6,324.3,472.6z"/>
			</g>
			<g>
				
					<rect x="404.2" y="416" transform="matrix(-1 -4.490553e-11 4.490553e-11 -1 961.369 883.5798)" class="st2" width="153" height="51.6"/>
				<path class="st1" d="M403.5,415.3h154.4v53H403.5V415.3z M556.5,416.7H404.9v50.2h151.5V416.7z"/>
			</g>
			<g class="st5">
				<rect x="404.2" y="416" class="st1" width="153" height="31.9"/>
			</g>
			<g>
				<path class="st1" d="M399.3,467.6V416c0-2.7,2.2-5,5-5h153c2.7,0,5,2.2,5,5v51.6c0,2.7-2.2,5-5,5h-153
					C401.5,472.6,399.3,470.3,399.3,467.6z M552.2,420.9H409.2v41.7h143.1V420.9z"/>
			</g>
			<g>
				<path class="st6" d="M351.8,280.8h66.8v-62h-53.2c-7.5,0-13.7,6.1-13.7,13.7V280.8z"/>
				<path class="st1" d="M351.1,232.5c0-7.9,6.4-14.4,14.4-14.4h53.9v63.4h-68.2V232.5z M417.9,219.5h-52.4c-7.1,0-13,5.8-13,13
					v47.6h65.4V219.5z"/>
			</g>
			<g class="st3">
				<path class="st4" d="M351.8,232.5v11.1c0-7.5,6.1-13.7,13.7-13.7h53.2v-11.1h-53.2C357.9,218.8,351.8,224.9,351.8,232.5z"/>
			</g>
			<g>
				<path class="st1" d="M346.9,280.8v-48.3c0-10.3,8.4-18.6,18.6-18.6h53.2c2.7,0,5,2.2,5,5v62c0,2.7-2.2,5-5,5h-66.8
					C349.1,285.8,346.9,283.5,346.9,280.8z M413.7,223.7h-48.2c-4.8,0-8.7,3.9-8.7,8.7v43.4h56.9V223.7z"/>
			</g>
			<g>
				<path class="st6" d="M650.2,398.3V296l-48.9-144.7c-4.5-13.4-17.1-22.4-31.2-22.4H433.3c-8.1,0-14.7,6.6-14.7,14.7v121
					c0,8.9-7.3,16.2-16.2,16.2h-66.3c-14.8,0-26.8,12-26.8,26.8v90.6"/>
				<path class="st1" d="M308.6,398.3h1.4v-90.6c0-14.4,11.7-26.1,26.1-26.1h66.3c9.3,0,16.9-7.6,16.9-16.9v-121c0-7.7,6.3-14,14-14
					h136.9c13.8,0,26.1,8.8,30.5,21.9l48.9,144.6v102.1h1.4V295.9l0-0.1L602,151.1c-4.6-13.7-17.4-22.8-31.8-22.8H433.3
					c-8.5,0-15.4,6.9-15.4,15.4v121c0,8.5-7,15.5-15.5,15.5h-66.3c-15.2,0-27.5,12.4-27.5,27.5V398.3z"/>
			</g>
			<g>
				<g class="st5">
					<path class="st1" d="M329.6,352.8c1.5,0,2.7,1.2,2.7,2.7v10.9c0,4.2,3.4,7.6,7.6,7.6h44c4.2,0,7.6-3.4,7.6-7.6v-13.5h111.4
						c1.1,0,2,0.9,2,2v8.9c0,5.5,4.5,10,10,10h10c-5.5,0-10-4.5-10-10v-10.9h95.3c1.1,0,2,0.9,2,2v8.9c0,5.5-4.5,10-10,10h10
						c5.5,0,10-4.5,10-10v-10.9h28.2v35.5h-341v-35.5H329.6z"/>
				</g>
			</g>
			<g class="st3">
				<path class="st4" d="M418.6,153.5c0-8.1,6.6-14.7,14.7-14.7h136.9c14.1,0,26.7,9,31.2,22.4l48.9,144.7v-14l-48.9-144.7
					c-4.5-13.4-17.1-22.4-31.2-22.4H433.3c-8.1,0-14.7,6.6-14.7,14.7V153.5z"/>
			</g>
			<g class="st3">
				<path class="st4" d="M309.3,304.8v14c0-14.8,12-26.8,26.8-26.8h66.3c8.9,0,16.2-7.2,16.2-16.2v-14c0,8.9-7.3,16.2-16.2,16.2
					h-66.3C321.3,278,309.3,290,309.3,304.8z"/>
			</g>
			<g>
				<path class="st1" d="M514.8,161.6v0.8H555c4.4,0,8.4,2.8,9.8,7l44.4,128c0.7,1.9,0.9,3.9,0.6,5.8c8.5-0.3,14.4-8.8,11.5-16.9
					l-44.4-128c-1.4-4.2-5.4-7-9.8-7h-42C519.5,151.2,514.8,155.9,514.8,161.6z"/>
			</g>
			<g>
				<path class="st1" d="M443.3,158.8v3.5h28.4c4.2,0,7.6,3.4,7.6,7.6v104.8h4.6c4.2,0,7.6-3.4,7.6-7.6V158.8c0-4.2-3.4-7.6-7.6-7.6
					h-32.9C446.7,151.2,443.3,154.6,443.3,158.8z"/>
			</g>
			<g>
				<path class="st1" d="M309.3,403.2c2.7,0,5-2.2,5-5v-90.6c0-12.1,9.8-21.9,21.9-21.9h66.3c11.7,0,21.2-9.5,21.2-21.2v-121
					c0-5.4,4.4-9.7,9.7-9.7h136.9c12,0,22.6,7.6,26.5,19l48.6,143.9v101.5c0,2.7,2.2,5,5,5c2.7,0,5-2.2,5-5V296
					c0-0.5-0.1-1.1-0.3-1.6L606,149.7c-5.2-15.4-19.6-25.7-35.9-25.7H433.3c-10.8,0-19.6,8.8-19.6,19.6v121c0,6.2-5,11.2-11.2,11.2
					h-66.3c-17.5,0-31.8,14.3-31.8,31.8v90.6C304.3,401,306.5,403.2,309.3,403.2z"/>
			</g>
			<g>
				<path class="st2" d="M514.8,161.6v113.1l9.7,9.3l14.9,14.4l4.7,4.6h65.1c8.8,0,14.9-8.7,12.1-16.9l-11.1-32l-14.9-43l-8.5-24.5
					l-8.5-24.4l-1.4-4.1c-1.4-4.2-5.4-7-9.8-7h-42C519.5,151.2,514.8,155.9,514.8,161.6z"/>
			</g>
			<defs>
				<filter id="Adobe_OpacityMaskFilter" filterUnits="userSpaceOnUse" x="514.8" y="162.3" width="72" height="121.8">
					<feFlood  style="flood-color:white;flood-opacity:1" result="back"/>
					<feBlend  in="SourceGraphic" in2="back" mode="normal"/>
				</filter>
			</defs>
			<mask maskUnits="userSpaceOnUse" x="514.8" y="162.3" width="72" height="121.8" id="SVGID_1_">
				<g class="st7">
					<defs>
						
							<filter id="Adobe_OpacityMaskFilter_00000053519462817013771860000006904567557368178596_" filterUnits="userSpaceOnUse" x="514.8" y="162.3" width="72" height="121.8">
							<feFlood  style="flood-color:white;flood-opacity:1" result="back"/>
							<feBlend  in="SourceGraphic" in2="back" mode="normal"/>
						</filter>
					</defs>
					<mask maskUnits="userSpaceOnUse" x="514.8" y="162.3" width="72" height="121.8" id="SVGID_1_">
						<g style="filter:url(#Adobe_OpacityMaskFilter_00000053519462817013771860000006904567557368178596_);">
						</g>
					</mask>
					
						<linearGradient id="SVGID_00000110469797564959007830000003100761528521491386_" gradientUnits="userSpaceOnUse" x1="9293.7002" y1="171.5865" x2="9364.3232" y2="280.9391" gradientTransform="matrix(-1 0 0 1 9878.4736 0)">
						<stop  offset="0" style="stop-color:#FFFFFF"/>
						<stop  offset="1" style="stop-color:#000000"/>
					</linearGradient>
					<polygon style="mask:url(#SVGID_1_);fill:url(#SVGID_00000110469797564959007830000003100761528521491386_);" points="
						514.8,261.6 514.8,274.7 524.5,284.1 586.9,186.7 578.4,162.3 					"/>
				</g>
			</mask>
			
				<linearGradient id="SVGID_00000142867353679124805350000013545854741078132396_" gradientUnits="userSpaceOnUse" x1="9293.7002" y1="171.5865" x2="9364.3232" y2="280.9391" gradientTransform="matrix(-1 0 0 1 9878.4736 0)">
				<stop  offset="0" style="stop-color:#FFFFFF"/>
				<stop  offset="1" style="stop-color:#FFFFFF"/>
			</linearGradient>
			<polygon style="opacity:0.55;fill:url(#SVGID_00000142867353679124805350000013545854741078132396_);" points="514.8,261.6 
				514.8,274.7 524.5,284.1 586.9,186.7 578.4,162.3 			"/>
			<defs>
				
					<filter id="Adobe_OpacityMaskFilter_00000165217903801425772180000014035167359186947216_" filterUnits="userSpaceOnUse" x="539.5" y="211.2" width="70.8" height="91.9">
					<feFlood  style="flood-color:white;flood-opacity:1" result="back"/>
					<feBlend  in="SourceGraphic" in2="back" mode="normal"/>
				</filter>
			</defs>
			
				<mask maskUnits="userSpaceOnUse" x="539.5" y="211.2" width="70.8" height="91.9" id="SVGID_00000114792009065451145490000012208990416820718751_">
				<g style="filter:url(#Adobe_OpacityMaskFilter_00000165217903801425772180000014035167359186947216_);">
					<defs>
						
							<filter id="Adobe_OpacityMaskFilter_00000021081156938102829990000012258317192952477841_" filterUnits="userSpaceOnUse" x="539.5" y="211.2" width="70.8" height="91.9">
							<feFlood  style="flood-color:white;flood-opacity:1" result="back"/>
							<feBlend  in="SourceGraphic" in2="back" mode="normal"/>
						</filter>
					</defs>
					
						<mask maskUnits="userSpaceOnUse" x="539.5" y="211.2" width="70.8" height="91.9" id="SVGID_00000114792009065451145490000012208990416820718751_">
						<g style="filter:url(#Adobe_OpacityMaskFilter_00000021081156938102829990000012258317192952477841_);">
						</g>
					</mask>
					
						<linearGradient id="SVGID_00000082327653556610207970000013631633714778341041_" gradientUnits="userSpaceOnUse" x1="9253.0459" y1="197.8426" x2="9323.6689" y2="307.1954" gradientTransform="matrix(-1 0 0 1 9878.4736 0)">
						<stop  offset="0" style="stop-color:#FFFFFF"/>
						<stop  offset="1" style="stop-color:#000000"/>
					</linearGradient>
					
						<polygon style="mask:url(#SVGID_00000114792009065451145490000012208990416820718751_);fill:url(#SVGID_00000082327653556610207970000013631633714778341041_);" points="
						539.5,298.5 544.2,303.1 578.9,303.1 610.2,254.1 595.4,211.2 					"/>
				</g>
			</mask>
			
				<linearGradient id="SVGID_00000021824902468652271230000003149888367596373638_" gradientUnits="userSpaceOnUse" x1="9253.0459" y1="197.8426" x2="9323.6689" y2="307.1954" gradientTransform="matrix(-1 0 0 1 9878.4736 0)">
				<stop  offset="0" style="stop-color:#FFFFFF"/>
				<stop  offset="1" style="stop-color:#FFFFFF"/>
			</linearGradient>
			<polygon style="opacity:0.55;fill:url(#SVGID_00000021824902468652271230000003149888367596373638_);" points="539.5,298.5 
				544.2,303.1 578.9,303.1 610.2,254.1 595.4,211.2 			"/>
			<g>
				<path class="st2" d="M443.3,158.8v108.3c0,4.2,3.4,7.6,7.6,7.6h32.9c4.2,0,7.6-3.4,7.6-7.6V158.8c0-1.8-0.7-3.5-1.7-4.8v0
					c-1.4-1.7-3.5-2.7-5.9-2.7h-32.9C446.7,151.2,443.3,154.6,443.3,158.8z"/>
			</g>
			<defs>
				
					<filter id="Adobe_OpacityMaskFilter_00000183933218871867811710000014407433643391701633_" filterUnits="userSpaceOnUse" x="443.3" y="151.2" width="46.4" height="75.2">
					<feFlood  style="flood-color:white;flood-opacity:1" result="back"/>
					<feBlend  in="SourceGraphic" in2="back" mode="normal"/>
				</filter>
			</defs>
			
				<mask maskUnits="userSpaceOnUse" x="443.3" y="151.2" width="46.4" height="75.2" id="SVGID_00000093899415389231110980000008320037133394124475_">
				<g style="filter:url(#Adobe_OpacityMaskFilter_00000183933218871867811710000014407433643391701633_);">
					<defs>
						
							<filter id="Adobe_OpacityMaskFilter_00000044165737643275979470000000117286139003352207_" filterUnits="userSpaceOnUse" x="443.3" y="151.2" width="46.4" height="75.2">
							<feFlood  style="flood-color:white;flood-opacity:1" result="back"/>
							<feBlend  in="SourceGraphic" in2="back" mode="normal"/>
						</filter>
					</defs>
					
						<mask maskUnits="userSpaceOnUse" x="443.3" y="151.2" width="46.4" height="75.2" id="SVGID_00000093899415389231110980000008320037133394124475_">
						<g style="filter:url(#Adobe_OpacityMaskFilter_00000044165737643275979470000000117286139003352207_);">
						</g>
					</mask>
					
						<linearGradient id="SVGID_00000034781500062732754510000007309443483957821344_" gradientUnits="userSpaceOnUse" x1="9369.5918" y1="117.3514" x2="9451.6064" y2="231.7664" gradientTransform="matrix(-1 0 0 1 9878.4736 0)">
						<stop  offset="0" style="stop-color:#FFFFFF"/>
						<stop  offset="1" style="stop-color:#000000"/>
					</linearGradient>
					
						<path style="mask:url(#SVGID_00000093899415389231110980000008320037133394124475_);fill:url(#SVGID_00000034781500062732754510000007309443483957821344_);" d="
						M443.3,196.1v30.3l46.4-72.4v0c-1.4-1.7-3.5-2.7-5.9-2.7H472L443.3,196.1z"/>
				</g>
			</mask>
			
				<linearGradient id="SVGID_00000117643525707517511770000011350484110661584045_" gradientUnits="userSpaceOnUse" x1="9369.5918" y1="117.3514" x2="9451.6064" y2="231.7664" gradientTransform="matrix(-1 0 0 1 9878.4736 0)">
				<stop  offset="0" style="stop-color:#FFFFFF"/>
				<stop  offset="1" style="stop-color:#FFFFFF"/>
			</linearGradient>
			<path style="opacity:0.55;fill:url(#SVGID_00000117643525707517511770000011350484110661584045_);" d="M443.3,196.1v30.3
				l46.4-72.4v0c-1.4-1.7-3.5-2.7-5.9-2.7H472L443.3,196.1z"/>
			<defs>
				
					<filter id="Adobe_OpacityMaskFilter_00000065761779386336575650000004016968791744858251_" filterUnits="userSpaceOnUse" x="443.3" y="175.8" width="48.1" height="98.9">
					<feFlood  style="flood-color:white;flood-opacity:1" result="back"/>
					<feBlend  in="SourceGraphic" in2="back" mode="normal"/>
				</filter>
			</defs>
			
				<mask maskUnits="userSpaceOnUse" x="443.3" y="175.8" width="48.1" height="98.9" id="SVGID_00000063598241418156117990000006538445559450214276_">
				<g style="filter:url(#Adobe_OpacityMaskFilter_00000065761779386336575650000004016968791744858251_);">
					<defs>
						
							<filter id="Adobe_OpacityMaskFilter_00000147184618153465012020000010263748905777119896_" filterUnits="userSpaceOnUse" x="443.3" y="175.8" width="48.1" height="98.9">
							<feFlood  style="flood-color:white;flood-opacity:1" result="back"/>
							<feBlend  in="SourceGraphic" in2="back" mode="normal"/>
						</filter>
					</defs>
					
						<mask maskUnits="userSpaceOnUse" x="443.3" y="175.8" width="48.1" height="98.9" id="SVGID_00000063598241418156117990000006538445559450214276_">
						<g style="filter:url(#Adobe_OpacityMaskFilter_00000147184618153465012020000010263748905777119896_);">
						</g>
					</mask>
					
						<linearGradient id="SVGID_00000085220410951836994880000015962350328875014050_" gradientUnits="userSpaceOnUse" x1="9339.1758" y1="139.1539" x2="9421.1904" y2="253.5689" gradientTransform="matrix(-1 0 0 1 9878.4736 0)">
						<stop  offset="0" style="stop-color:#FFFFFF"/>
						<stop  offset="1" style="stop-color:#000000"/>
					</linearGradient>
					
						<path style="mask:url(#SVGID_00000063598241418156117990000006538445559450214276_);fill:url(#SVGID_00000085220410951836994880000015962350328875014050_);" d="
						M443.3,250.9v16.2c0,4.2,3.4,7.6,7.6,7.6h12.8l27.7-43.3v-55.6L443.3,250.9z"/>
				</g>
			</mask>
			
				<linearGradient id="SVGID_00000130636149675633269440000004703089034903367813_" gradientUnits="userSpaceOnUse" x1="9339.1758" y1="139.1539" x2="9421.1904" y2="253.5689" gradientTransform="matrix(-1 0 0 1 9878.4736 0)">
				<stop  offset="0" style="stop-color:#FFFFFF"/>
				<stop  offset="1" style="stop-color:#FFFFFF"/>
			</linearGradient>
			<path style="opacity:0.55;fill:url(#SVGID_00000130636149675633269440000004703089034903367813_);" d="M443.3,250.9v16.2
				c0,4.2,3.4,7.6,7.6,7.6h12.8l27.7-43.3v-55.6L443.3,250.9z"/>
			<g>
				<path class="st1" d="M541.5,305.8l-29.4-28.4c-0.7-0.7-1.2-1.7-1.2-2.7V161.6c0-7.8,6.4-14.2,14.2-14.2h42
					c6,0,11.4,3.8,13.4,9.5l44.4,128c1.8,5.1,1,10.6-2.2,15c-3.1,4.4-8.1,7-13.5,7h-65.1C543.2,306.9,542.3,306.5,541.5,305.8z
					 M525.2,155c-3.6,0-6.6,3-6.6,6.6v111.5l27.1,26.2h63.6c2.9,0,5.6-1.4,7.3-3.8c1.7-2.4,2.1-5.4,1.2-8.1l-44.4-128c0,0,0,0,0,0
					c-0.9-2.6-3.4-4.4-6.2-4.4H525.2z M577,158.2L577,158.2L577,158.2z"/>
			</g>
			<g>
				<path class="st1" d="M439.5,267.1V158.8c0-6.3,5.1-11.4,11.4-11.4h32.9c6.3,0,11.4,5.1,11.4,11.4v108.3
					c0,6.3-5.1,11.4-11.4,11.4h-32.9C444.6,278.5,439.5,273.4,439.5,267.1z M450.9,155c-2.1,0-3.8,1.7-3.8,3.8v108.3
					c0,2.1,1.7,3.8,3.8,3.8h32.9c2.1,0,3.8-1.7,3.8-3.8V158.8c0-2.1-1.7-3.8-3.8-3.8H450.9z"/>
			</g>
			<g>
				<path class="st1" d="M305.5,431.9h344.8c4.1,0,7.3-3.3,7.3-7.3v-18.9c0-4.1-3.3-7.3-7.3-7.3H305.5c-4.1,0-7.3,3.3-7.3,7.3v18.9
					C298.1,428.6,301.4,431.9,305.5,431.9z"/>
				<path class="st1" d="M297.4,424.5v-18.9c0-4.4,3.6-8,8-8h344.8c4.4,0,8,3.6,8,8v18.9c0,4.4-3.6,8-8,8H305.5
					C301,432.6,297.4,429,297.4,424.5z M305.5,399c-3.7,0-6.6,3-6.6,6.6v18.9c0,3.7,3,6.6,6.6,6.6h344.8c3.7,0,6.6-3,6.6-6.6v-18.9
					c0-3.7-3-6.6-6.6-6.6H305.5z"/>
			</g>
			<g class="st3">
				<path class="st4" d="M298.1,406.4v9.6c0-4.1,3.3-7.3,7.3-7.3h344.8c4.1,0,7.3,3.3,7.3,7.3v-9.6c0-4.1-3.3-7.3-7.3-7.3H305.5
					C301.4,399,298.1,402.3,298.1,406.4z"/>
			</g>
			<g>
				<path class="st1" d="M293.2,424.5v-18.9c0-6.8,5.5-12.3,12.3-12.3h344.8c6.8,0,12.3,5.5,12.3,12.3v18.9
					c0,6.8-5.5,12.3-12.3,12.3H305.5C298.7,436.8,293.2,431.3,293.2,424.5z M305.5,403.2c-1.3,0-2.4,1.1-2.4,2.4v18.9
					c0,1.3,1.1,2.4,2.4,2.4h344.8c1.3,0,2.4-1.1,2.4-2.4v-18.9c0-1.3-1.1-2.4-2.4-2.4H305.5z"/>
			</g>
			<g>
				<path class="st1" d="M524.8,377.5h87.2c7.6,0,13.8-6.2,13.8-13.8v-73.9c0-2.1-1.7-3.8-3.8-3.8c-2.1,0-3.8,1.7-3.8,3.8v73.9
					c0,3.4-2.8,6.2-6.2,6.2h-87.2c-3.4,0-6.2-2.8-6.2-6.2v-89c0-2.1-1.7-3.8-3.8-3.8s-3.8,1.7-3.8,3.8v89
					C511,371.3,517.2,377.5,524.8,377.5z"/>
			</g>
			<g>
				<path class="st1" d="M552.9,331.4L552.9,331.4c5.1,0,9.3-4.2,9.3-9.3l0,0c0-1.6-1.3-2.8-2.8-2.8h-12.9c-1.6,0-2.8,1.3-2.8,2.8
					l0,0C543.6,327.2,547.7,331.4,552.9,331.4z"/>
			</g>
			<g>
				<path class="st23" d="M347.3,374h44c4.2,0,7.6-3.4,7.6-7.6v-44c0-4.2-3.4-7.6-7.6-7.6h-44c-4.2,0-7.6,3.4-7.6,7.6v44
					C339.7,370.6,343.1,374,347.3,374z"/>
				<path class="st1" d="M338.9,366.4v-44c0-4.6,3.7-8.3,8.3-8.3h44c4.6,0,8.3,3.7,8.3,8.3v44c0,4.6-3.7,8.3-8.3,8.3h-44
					C342.7,374.7,338.9,370.9,338.9,366.4z M347.3,315.4c-3.8,0-6.9,3.1-6.9,6.9v44c0,3.8,3.1,6.9,6.9,6.9h44c3.8,0,6.9-3.1,6.9-6.9
					v-44c0-3.8-3.1-6.9-6.9-6.9H347.3z"/>
			</g>
			<g>
				<path class="st1" d="M336.6,366.4v-44c0-5.9,4.8-10.6,10.6-10.6h44c5.9,0,10.6,4.8,10.6,10.6v44c0,5.9-4.8,10.6-10.6,10.6h-44
					C341.4,377,336.6,372.2,336.6,366.4z M347.3,317.8c-2.5,0-4.6,2-4.6,4.6v44c0,2.5,2,4.6,4.6,4.6h44c2.5,0,4.6-2,4.6-4.6v-44
					c0-2.5-2-4.6-4.6-4.6H347.3z"/>
			</g>
			<g>
				<path class="st1" d="M350.5,331.9h37c1.7,0,3-1.4,3-3c0-1.7-1.4-3-3-3h-37c-1.7,0-3,1.4-3,3
					C347.5,330.6,348.9,331.9,350.5,331.9z"/>
			</g>
			<g>
				<path class="st1" d="M350.5,346.9h37c1.7,0,3-1.4,3-3s-1.4-3-3-3h-37c-1.7,0-3,1.4-3,3S348.9,346.9,350.5,346.9z"/>
			</g>
			<g>
				<path class="st1" d="M350.5,361.8h37c1.7,0,3-1.4,3-3c0-1.7-1.4-3-3-3h-37c-1.7,0-3,1.4-3,3
					C347.5,360.5,348.9,361.8,350.5,361.8z"/>
			</g>
			<g>
				<path class="st2" d="M758.5,291l-49.9,97l27.8,14.3l49.9-97c1.4-2.7,0.3-6-2.4-7.4l-18.1-9.3C763.2,287.2,759.9,288.3,758.5,291
					z"/>
				<path class="st1" d="M707.6,388.3l50.2-97.6c1.6-3,5.3-4.2,8.3-2.7l18.1,9.3c3,1.6,4.2,5.3,2.7,8.3l-50.2,97.6L707.6,388.3z
					 M759.1,291.3l-49.6,96.4l26.6,13.7l49.6-96.4c1.2-2.3,0.3-5.2-2.1-6.4l-18.1-9.3c-0.7-0.4-1.4-0.5-2.2-0.5
					C761.6,288.7,760,289.7,759.1,291.3z"/>
			</g>
			<g class="st3">
				<path class="st4" d="M708.6,388l8.5,4.4l49.9-97c1.4-2.7,4.7-3.7,7.4-2.3l10.1,5.2c-0.2-0.1-0.4-0.2-0.6-0.3l-18.1-9.3
					c-2.7-1.4-6-0.3-7.4,2.3L708.6,388z"/>
			</g>
			<g>
				<path class="st6" d="M1029.5,116.6l13.9,269h33.4V142.6l23.2-26.9V49.1c0-8.7-7.1-15.8-15.8-15.8H1072c-3.7,0-7.1,1.3-9.9,3.5
					c-2.2,1.7-3.9,4-4.9,6.8l-2.1,5.6L1029.5,116.6z"/>
				<path class="st1" d="M1028.8,116.6l0-0.1l27.7-73.2c1-2.8,2.8-5.2,5.1-7.1c2.9-2.3,6.6-3.6,10.3-3.6h12.2
					c9.1,0,16.5,7.4,16.5,16.5V116l-23.2,26.9v243.4h-34.7L1028.8,116.6z M1076.1,142.4l23.2-26.9V49.1c0-8.3-6.8-15.1-15.1-15.1
					H1072c-3.4,0-6.8,1.2-9.4,3.3c-2.1,1.7-3.8,3.9-4.7,6.5l-27.6,73l13.9,268.2h32V142.4z"/>
			</g>
			<g>
				<polygon class="st2" points="766.5,289 783.2,297.6 826.3,217.4 842.3,187.7 837.1,185.1 825.6,179.1 820.5,188.7 810.3,207.6 
									"/>
				<path class="st1" d="M765.6,289.3l59.7-111.1l17.9,9.2l-59.7,111.1L765.6,289.3z M825.9,180.1l-58.4,108.6l15.4,7.9L841.3,188
					L825.9,180.1z"/>
			</g>
			<g>
				<path class="st1" d="M734.3,406.3L706.5,392c-1.1-0.6-1.9-1.5-2.2-2.6c-0.4-1.1-0.3-2.4,0.3-3.5l49.9-97c0,0,0,0,0,0
					c2.5-4.9,8.6-6.8,13.5-4.3l18.1,9.3c4.9,2.5,6.8,8.6,4.3,13.5l-49.9,97c-0.8,1.6-2.4,2.5-4,2.5
					C735.7,406.8,735,406.7,734.3,406.3z M762.5,293L762.5,293l-47.8,93l19.8,10.2l47.8-93c0.2-0.5,0.1-1-0.4-1.3l-18.1-9.3
					c-0.1-0.1-0.3-0.1-0.4-0.1C763,292.5,762.7,292.7,762.5,293z"/>
			</g>
			<g>
				<path class="st1" d="M781.2,301.6l-16.7-8.6c-1.1-0.6-1.9-1.5-2.3-2.7c-0.4-1.2-0.2-2.4,0.3-3.5L821.6,177
					c1.2-2.2,3.9-3,6.1-1.9l16.7,8.6c1.1,0.6,1.9,1.5,2.3,2.7c0.4,1.2,0.2,2.4-0.3,3.5l-59.1,109.9c-0.8,1.5-2.4,2.4-4,2.4
					C782.5,302.1,781.8,301.9,781.2,301.6z M827.5,185.2l-54.8,101.9l8.6,4.4l54.8-101.9L827.5,185.2z"/>
			</g>
			<g>
				<path class="st1" d="M1038.9,385.8l-13.9-269c0-0.6,0.1-1.3,0.3-1.8l27.7-73.1c3-7.9,10.6-13.2,19-13.2h12.2
					c11.2,0,20.4,9.1,20.4,20.4v66.7c0,1.1-0.4,2.1-1.1,3l-22.1,25.6v241.2c0,2.5-2,4.5-4.5,4.5h-33.4
					C1041,390.1,1039.1,388.2,1038.9,385.8z M1072.3,142.6c0-1.1,0.4-2.1,1.1-3l22.1-25.6v-65c0-6.2-5.1-11.3-11.3-11.3H1072
					c-4.7,0-8.9,2.9-10.6,7.3l-27.3,72.2l13.7,263.7h24.5V142.6z"/>
			</g>
			<g>
				
					<ellipse transform="matrix(0.9871 -0.1602 0.1602 0.9871 -1.1195 172.4289)" class="st1" cx="1068.9" cy="93.2" rx="20.3" ry="20.3"/>
			</g>
			<g>
				<path class="st1" d="M731.5,407.9H644v-44.6h87.5c5.3,0,9.6,4.3,9.6,9.6v25.4C741.1,403.6,736.8,407.9,731.5,407.9z"/>
				<path class="st1" d="M643.3,362.5h88.2c5.7,0,10.3,4.6,10.3,10.3v25.4c0,5.7-4.6,10.3-10.3,10.3h-88.2V362.5z M644.7,364v43.2
					h86.8c4.9,0,8.9-4,8.9-8.9v-25.4c0-4.9-4-8.9-8.9-8.9H644.7z"/>
			</g>
			<g class="st3">
				<path class="st4" d="M644,363.3v11.1h87.5c5.3,0,9.6,4.3,9.6,9.6v-11.1c0-5.3-4.3-9.6-9.6-9.6H644z"/>
			</g>
			<g>
				<path class="st2" d="M926.8,40.9L816.3,65c-13.8,3-22.5,16.6-19.5,30.4l1.2,5.6l135.4-29.6c3.2-0.7,5.1-3.8,4.5-7l-4.2-19.1
					C933,42.2,929.9,40.2,926.8,40.9z"/>
				<path class="st1" d="M796.2,95.6c-3.1-14.1,5.9-28.1,20-31.2l110.4-24.1c3.5-0.8,7,1.5,7.8,5l4.2,19.1c0.4,1.7,0.1,3.5-0.9,4.9
					c-0.9,1.5-2.4,2.5-4.1,2.9l-136.1,29.7L796.2,95.6z M926.9,41.6L816.5,65.7c-13.4,2.9-21.9,16.2-19,29.5l1.1,4.9l134.7-29.4
					c2.8-0.6,4.5-3.3,3.9-6.1L933,45.5c-0.5-2.4-2.7-4-5-4C927.7,41.5,927.3,41.5,926.9,41.6z"/>
			</g>
			<g class="st5">
				<path class="st1" d="M796.2,90.1c0,1.8,0.2,3.5,0.6,5.3l1.2,5.6l135.4-29.6c3.2-0.7,5.2-3.8,4.5-7L936,56
					c-0.4,2.2-2.1,4-4.5,4.5L796.2,90.1z"/>
			</g>
			<g class="st3">
				<path class="st4" d="M796.8,95.4l1.2,5.6l0.9-0.2c-0.9-12.5,7.5-24,20-26.8l110.4-24.1c2.2-0.5,4.4,0.4,5.8,2l-1.4-6.6
					c-0.7-3.2-3.8-5.1-7-4.5L816.3,65C802.6,68,793.8,81.6,796.8,95.4z"/>
			</g>
			<g>
				
					<rect x="934.2" y="30.2" transform="matrix(0.977 -0.2133 0.2133 0.977 14.7273 215.5693)" class="st2" width="144.4" height="18.8"/>
				<path class="st1" d="M933,45.2l142.5-31.1l4.3,19.7L937.3,64.9L933,45.2z M1074.4,15.8L934.7,46.3l3.7,17l139.7-30.5
					L1074.4,15.8z"/>
			</g>
			<g class="st3">
				<polygon class="st4" points="933.8,45.8 935.5,53.5 1076.6,22.7 1074.9,15 				"/>
			</g>
			<g class="st5">
				<path class="st1" d="M810.3,207.6c3.8,5.3,9.6,8.9,16,9.8l16-29.7l-5.2-2.7l-16.7,3.6L810.3,207.6z"/>
			</g>
			<g>
				<path class="st1" d="M639.5,407.9v-44.6c0-2.5,2-4.5,4.5-4.5h87.5c7.8,0,14.1,6.3,14.1,14.1v25.4c0,7.8-6.3,14.1-14.1,14.1H644
					C641.5,412.4,639.5,410.4,639.5,407.9z M648.5,367.8v35.5h83c2.8,0,5.1-2.3,5.1-5.1v-25.4c0-2.8-2.3-5.1-5.1-5.1H648.5z"/>
			</g>
			<g>
				<path class="st6" d="M667.7,335.9h27.7l54.2-118.2v0l20.4-44.4l64.7-14.1l22.4-4.9l21.9-4.8l22.4-4.9l22.1-4.8l0.3-0.1l22.1-4.8
					l128-28c3-0.7,5.5-2.3,7.4-4.5c1.8-2.3,2.9-5.1,2.9-8.2c0-7.8-6.8-13.8-14.5-12.9L917.1,98.6l-24.1,2.7l-23.8,2.7l-24.1,2.7
					l-23.6,2.7l-24.1,2.7l-36.2,4.1c-12.3,1.4-22.6,9.8-26.6,21.5L667.7,335.9z"/>
				<path class="st1" d="M734,137.5c4-11.9,14.7-20.5,27.2-21.9l308.5-35c3.9-0.4,7.8,0.8,10.7,3.4c2.9,2.6,4.6,6.3,4.6,10.2
					c0,3.1-1.1,6.2-3,8.6c-1.9,2.4-4.7,4.1-7.8,4.8l-303.6,66.3l-74.5,162.3l-0.2,0.4h-29.1L734,137.5z M769.4,173l0.1-0.3
					l304.3-66.5c2.7-0.6,5.2-2.1,7-4.3c1.8-2.2,2.7-4.9,2.7-7.7c0-3.5-1.5-6.8-4.1-9.2c-2.6-2.3-6.1-3.4-9.6-3l-308.5,35
					c-11.9,1.4-22.2,9.6-26,21l-66.6,197.3H695L769.4,173z"/>
			</g>
			<g>
				<polygon class="st1" points="893,101.3 923.6,139.7 923.9,139.7 946,134.8 917.1,98.6 				"/>
			</g>
			<g>
				<polygon class="st1" points="845.1,106.7 879.1,149.4 901.5,144.6 869.2,104 				"/>
			</g>
			<g>
				<polygon class="st1" points="797.4,112.1 834.8,159.1 857.2,154.2 821.5,109.4 				"/>
			</g>
			<g class="st3">
				<path class="st4" d="M667.7,335.9h11.3l63.5-188c3.9-11.7,14.3-20.1,26.6-21.5l308.5-35c2.3-0.3,4.5,0.1,6.5,0.9
					c-0.9-6.9-7.2-11.9-14.3-11.1l-308.5,35c-12.3,1.4-22.6,9.8-26.6,21.5L667.7,335.9z"/>
			</g>
			<g>
				<path class="st1" d="M793.6,102l-1.2-5.6c-3.5-16.2,6.8-32.2,23-35.8l110.4-24.1l0,0c5.6-1.2,11.1,2.3,12.3,7.9l4.2,19.1
					c0.6,2.7,0.1,5.5-1.4,7.8c-1.5,2.3-3.8,3.9-6.5,4.5L799,105.4c-0.3,0.1-0.7,0.1-1,0.1C796,105.6,794.1,104.1,793.6,102z
					 M927.7,45.3L817.3,69.4c-11.3,2.5-18.5,13.7-16,25l0.3,1.2L932.5,67c0.4-0.1,0.7-0.4,0.8-0.6c0.1-0.2,0.3-0.5,0.2-1l-4.2-19.1
					c-0.1-0.6-0.7-1-1.3-1C927.9,45.3,927.8,45.3,927.7,45.3z"/>
			</g>
			<g>
				<path class="st1" d="M933.4,65.1l-4-18.3c-0.3-1.2,0-2.4,0.6-3.4c0.6-1,1.7-1.7,2.8-2l141.1-30.8c2.4-0.5,4.9,1,5.4,3.5l4,18.3
					c0.3,1.2,0,2.4-0.6,3.4s-1.7,1.7-2.8,2L938.8,68.5c-0.3,0.1-0.7,0.1-1,0.1C935.7,68.6,933.9,67.2,933.4,65.1z M1071.4,20.4
					L939.2,49.2l2.1,9.5l132.2-28.9L1071.4,20.4z"/>
			</g>
			<g>
				<rect x="649.7" y="335.9" class="st2" width="45.7" height="27.3"/>
				<path class="st1" d="M649,335.2h47.1V364H649V335.2z M694.7,336.6h-44.3v25.9h44.3V336.6z"/>
			</g>
			<g class="st3">
				<rect x="649.7" y="335.9" class="st4" width="45.7" height="8.2"/>
			</g>
			<g>
				<path class="st1" d="M645.2,363.3v-27.3c0-2.5,2-4.5,4.5-4.5h45.7c2.5,0,4.5,2,4.5,4.5v27.3c0,2.5-2,4.5-4.5,4.5h-45.7
					C647.2,367.8,645.2,365.8,645.2,363.3z M690.9,340.4h-36.7v18.3h36.7V340.4z"/>
			</g>
			<g>
				<path class="st6" d="M811.5,166.5l2.4,8.2c0.7,2.3,1.7,4.4,2.9,6.4c4.4,6.8,12,11,20.2,11c1.8,0,3.5-0.2,5.3-0.6
					c9.9-2.2,17.2-10.3,18.6-20.1c0.2-1.1,0.2-2.3,0.2-3.4v-12.2L811.5,166.5z"/>
				<path class="st1" d="M816.3,181.4c-1.3-2-2.3-4.2-3-6.6l-2.6-8.9l51.3-11.2v13.1c0,1.2-0.1,2.3-0.2,3.5
					c-1.4,10.1-9.1,18.5-19.1,20.7c-1.8,0.4-3.7,0.6-5.5,0.6C828.6,192.7,820.9,188.5,816.3,181.4z M812.4,167l2.2,7.4
					c0.7,2.2,1.6,4.3,2.8,6.2c4.3,6.7,11.7,10.6,19.6,10.6c1.7,0,3.5-0.2,5.2-0.6c9.4-2.1,16.7-10,18-19.5c0.2-1.1,0.2-2.2,0.2-3.3
					v-11.3L812.4,167z"/>
			</g>
			<g>
				<circle class="st6" cx="1079.6" cy="25.4" r="20.9"/>
				<path class="st1" d="M1058,25.4c0-11.9,9.7-21.6,21.6-21.6c11.9,0,21.6,9.7,21.6,21.6s-9.7,21.6-21.6,21.6
					C1067.7,46.9,1058,37.3,1058,25.4z M1059.5,25.4c0,11.1,9,20.1,20.1,20.1c11.1,0,20.1-9,20.1-20.1s-9-20.1-20.1-20.1
					C1068.5,5.2,1059.5,14.3,1059.5,25.4z"/>
			</g>
			<g class="st5">
				<path class="st1" d="M1055.1,49.1c3.6,6.1,10.3,10.2,17.9,10.2c10.7,0,19.6-8.1,20.7-18.5c-3.7,3.4-8.7,5.5-14.1,5.5
					c-7.3,0-13.8-3.8-17.5-9.5c-2.2,1.7-3.9,4-4.9,6.8L1055.1,49.1z"/>
			</g>
			<g class="st3">
				<path class="st4" d="M1063.3,38.4c-0.3-1.3-0.4-2.8-0.4-4.2c0-11.5,9.3-20.9,20.9-20.9c6.6,0,12.4,3,16.3,7.8
					c-2-9.5-10.4-16.6-20.4-16.6c-11.5,0-20.9,9.3-20.9,20.9C1058.8,30.3,1060.5,34.9,1063.3,38.4z"/>
			</g>
			<g>
				<path class="st6" d="M834,108l-3.8-13.4c-2.7-9.4-11.2-15.9-21-15.9h0c-11.2,0-20.5,8.4-21.7,19.5l-1.6,15.3"/>
				<path class="st1" d="M786.5,113.5l1.6-15.3c1.1-10.8,10.2-18.9,21-18.9c9.4,0,17.8,6.3,20.3,15.4l3.8,13.4l1.4-0.4l-3.8-13.4
					c-2.7-9.7-11.7-16.4-21.7-16.4c-11.6,0-21.2,8.7-22.4,20.2l-1.6,15.3L786.5,113.5z"/>
			</g>
			<g class="st3">
				<path class="st4" d="M785.8,113.5l9.3-1.1l1-9.9c0.6-5.5,3.2-10.4,7.1-13.9c3.9-3.5,9-5.6,14.6-5.6c1.8,0,3.5,0.2,5.2,0.6
					c-3.8-3.2-8.7-5-13.9-5c-5.6,0-10.7,2.1-14.6,5.6c-3.9,3.5-6.5,8.4-7.1,13.9L785.8,113.5z"/>
			</g>
			<g>
				<path class="st1" d="M667.8,340.4c1.9,0,3.7-1.2,4.3-3.1l66.9-198.2c3.4-10,12.3-17.2,22.8-18.4l308.5-35
					c2.4-0.3,4.8,0.5,6.6,2.1c1.8,1.6,2.8,3.9,2.8,6.3c0,3.9-2.8,7.4-6.7,8.3l-304,66.4c-1.4,0.3-2.6,1.2-3.2,2.5L691.3,334
					c-1,2.3,0,5,2.2,6c2.3,1,5,0,6-2.2l73.7-160.6l301.8-65.9c8-1.7,13.8-8.9,13.8-17.1c0-5-2.1-9.8-5.9-13.1
					c-3.7-3.3-8.7-4.9-13.7-4.3l-308.5,35c-14,1.6-25.9,11.2-30.4,24.5l-66.9,198.2c-0.8,2.4,0.5,4.9,2.8,5.7
					C666.8,340.4,667.3,340.4,667.8,340.4z"/>
			</g>
			<g>
				<path class="st1" d="M1054.2,25.4c0-14,11.4-25.4,25.4-25.4c14,0,25.4,11.4,25.4,25.4c0,14-11.4,25.4-25.4,25.4
					C1065.6,50.8,1054.2,39.4,1054.2,25.4z M1063.3,25.4c0,9,7.3,16.3,16.3,16.3c9,0,16.3-7.3,16.3-16.3c0-9-7.3-16.3-16.3-16.3
					C1070.6,9.1,1063.3,16.4,1063.3,25.4z"/>
			</g>
			<g>
				<path class="st1" d="M785.8,118c2.3,0,4.3-1.7,4.5-4.1l1.6-15.3c0.9-8.8,8.3-15.5,17.2-15.5c7.7,0,14.5,5.2,16.6,12.6l3.8,13.4
					c0.7,2.4,3.2,3.8,5.6,3.1c2.4-0.7,3.8-3.2,3.1-5.6l-3.8-13.4c-3.2-11.3-13.6-19.2-25.4-19.2c-13.5,0-24.8,10.1-26.2,23.6
					l-1.6,15.3c-0.3,2.5,1.5,4.7,4,5C785.5,118,785.7,118,785.8,118z"/>
			</g>
			<g>
				<path class="st1" d="M837.1,196.5c2.1,0,4.2-0.2,6.3-0.7c13.2-3,22.3-14.5,22.3-28v-12.2c0-2.5-2-4.5-4.5-4.5s-4.5,2-4.5,4.5
					v12.2c0,9.2-6.3,17.1-15.3,19.1c-10.1,2.3-20.2-3.7-23.1-13.6l-2.4-8.2c-0.7-2.4-3.2-3.8-5.6-3.1c-2.4,0.7-3.8,3.2-3.1,5.6
					l2.4,8.2C813.2,188.3,824.6,196.5,837.1,196.5z"/>
			</g>
			<g>
				<path class="st6" d="M913.2,398.7l-3-38.4c-0.5-6.6,7.8-10,12.1-5l27.4,32.3"/>
				<path class="st1" d="M912.5,398.8l1.4-0.1l-3-38.4c-0.2-2.7,1.3-5.1,3.8-6.2c2.5-1,5.3-0.4,7,1.7l27.4,32.3l1.1-0.9l-27.4-32.3
					c-2.2-2.6-5.6-3.4-8.6-2.1c-3.1,1.3-4.9,4.3-4.7,7.6L912.5,398.8z"/>
			</g>
			<g>
				<path class="st6" d="M1077.5,348.7l-164.3,50c64.3,65.3,129,99.8,170.3-11.4L1077.5,348.7z"/>
				<path class="st1" d="M912.7,399.2l-0.8-0.8l166.2-50.6l6.2,39.5l0,0.2l-0.1,0.2c-15.9,42.8-35.7,66.1-60.6,71.5
					c-3.6,0.8-7.3,1.2-11.1,1.2C985.5,460.2,953.4,440.5,912.7,399.2z M1076.9,349.6L914.6,399c45.6,46.1,80.1,64.7,108.7,58.6
					c24.4-5.2,43.8-28.2,59.5-70.4L1076.9,349.6z"/>
			</g>
			<g class="st5">
				<path class="st1" d="M1083.5,387.3c-41.3,111.2-106,76.7-170.3,11.4l13.8-4.2c57.6,51.9,113.5,69.4,150.6-30.4l-2.3-14.8
					l2.2-0.7L1083.5,387.3z"/>
			</g>
			<g class="st3">
				<path class="st4" d="M1079.1,358.8l-157.6,48c-2.7-2.7-5.5-5.4-8.2-8.2l164.3-50L1079.1,358.8z"/>
			</g>
			<g>
				<path class="st1" d="M910,401.9c-1.1-1.1-1.6-2.8-1.2-4.3s1.6-2.8,3.1-3.2l164.3-50c1.3-0.4,2.6-0.2,3.7,0.5
					c1.1,0.7,1.9,1.8,2.1,3.1l6,38.7c0.1,0.8,0,1.6-0.2,2.3c-16.4,44.1-37.1,68.3-63.4,73.9c-3.9,0.8-7.8,1.2-11.9,1.2
					C984.4,464,951.4,443.9,910,401.9z M1073.8,354.5l-152.1,46.3c42.3,41.8,74.5,58.7,100.7,53.1c22.5-4.8,41.4-27.4,56.4-67.1
					L1073.8,354.5z"/>
			</g>
			<g>
				<path class="st1" d="M913.2,403.2c0.1,0,0.2,0,0.4,0c2.5-0.2,4.4-2.4,4.2-4.9l-3-38.4c-0.1-1.5,1-2.1,1.4-2.3
					c0.5-0.2,1.7-0.5,2.7,0.6l27.4,32.3c1.6,1.9,4.5,2.1,6.4,0.5c1.9-1.6,2.1-4.5,0.5-6.4l-27.4-32.3c-3.3-3.8-8.4-5.1-13-3.2
					c-4.7,1.9-7.4,6.4-7,11.4l3,38.4C908.9,401.4,910.9,403.2,913.2,403.2z"/>
			</g>
			<g class="st5">
				<path class="st1" d="M1079.6,104.1l-3,13.6c-1.4,6.2-5.6,11.5-11.4,14.1l-34.5,15.9l-3.7-30.6L1079.6,104.1z"/>
			</g>
			<g class="st5">
				<path class="st1" d="M811.5,166.5l2.4,8.2c0.7,2.3,1.7,4.4,2.9,6.4l44.1-9.8c0.2-1.1,0.2-2.3,0.2-3.4v-12.2L811.5,166.5z"/>
			</g>
			<g class="st5">
				<polygon class="st1" points="1074.4,242.8 1040.4,276.1 1040.4,357.8 1074.4,344.2 				"/>
			</g>
			<g class="st5">
				<path class="st1" d="M746.3,210.6l3.4,7.1l20.4-44.4l153.9-33.6l9.9-4.4l-11.2-6.2c-3.6-2-7.9-2.7-12-2l-136,22.9
					c-6.6,1.1-12.3,5.4-15.2,11.5l-13.2,28.1C743.1,196.2,743.2,204,746.3,210.6z"/>
			</g>
			<g class="st24">
				<path class="st1" d="M984.5,592.6c-16.5-2.6-32.9-3.2-49.4-3.5c-16.5-0.4-32.9-0.2-49.4,0l-24.7,0.2l-24.7,0H787H589.6H392.1
					h-98.7l-24.7,0l-12.3-0.1l-12.3-0.2c-8.2-0.1-16.5,0.1-24.7,0.5c-4.1,0.2-8.2,0.6-12.3,1.1c-4.1,0.5-8.2,1.1-12.3,2.1
					c-0.9,0.2-1.5,1.1-1.3,2c0.2,0.6,0.7,1.1,1.3,1.3c4.1,1,8.2,1.6,12.3,2.1c4.1,0.5,8.2,0.8,12.3,1.1c8.2,0.4,16.5,0.6,24.7,0.5
					l12.3-0.2l12.3-0.1l24.7,0h98.7h197.4H787h49.4l24.7,0l24.7,0.2c16.5,0.2,32.9,0.4,49.4,0c16.5-0.3,32.9-0.9,49.4-3.5
					c0.9-0.1,1.5-1,1.4-1.9C985.7,593.3,985.2,592.7,984.5,592.6z"/>
			</g>
			<g>
				<g>
					<circle class="st1" cx="584.6" cy="563.5" r="34.6"/>
					<path d="M584.6,598.3c-19.2,0-34.8-15.6-34.8-34.8s15.6-34.8,34.8-34.8s34.8,15.6,34.8,34.8S603.8,598.3,584.6,598.3
						L584.6,598.3z M584.6,529.2c-18.9,0-34.3,15.4-34.3,34.3s15.4,34.3,34.3,34.3s34.3-15.4,34.3-34.3S603.5,529.2,584.6,529.2
						L584.6,529.2z"/>
				</g>
				<g class="st3">
					<path class="st4" d="M611.7,585c3.4-5.3,5.3-11.6,5.3-18.4c0-19.1-15.5-34.6-34.6-34.6c-11,0-20.8,5.1-27.1,13.1
						c6.1-9.7,16.9-16.1,29.3-16.1c19.1,0,34.6,15.5,34.6,34.6C619.2,571.6,616.4,579.1,611.7,585z"/>
				</g>
				<g>
					<circle class="st4" cx="584.6" cy="563.5" r="22.5"/>
					<path d="M584.6,586.3c-12.6,0-22.8-10.2-22.8-22.8s10.2-22.8,22.8-22.8s22.8,10.2,22.8,22.8S597.1,586.3,584.6,586.3z
						 M584.6,541.2c-12.3,0-22.3,10-22.3,22.3s10,22.3,22.3,22.3s22.3-10,22.3-22.3S596.9,541.2,584.6,541.2z"/>
				</g>
				<g class="st3">
					<path class="st4" d="M605.3,572.4c0.4-1.7,0.6-3.5,0.6-5.4c0-12.4-10.1-22.5-22.5-22.5c-9.3,0-17.3,5.6-20.7,13.7
						c2.4-9.9,11.3-17.2,21.9-17.2c12.4,0,22.5,10.1,22.5,22.5C607.1,566.7,606.5,569.7,605.3,572.4z"/>
				</g>
				
					<ellipse transform="matrix(0.8112 -0.5847 0.5847 0.8112 -219.1583 448.1871)" class="st23" cx="584.6" cy="563.5" rx="15.5" ry="15.5"/>
				<g class="st5">
					<path d="M598.4,570.4c0.4-1.3,0.6-2.7,0.6-4.2c0-8.5-6.9-15.5-15.5-15.5c-6.1,0-11.3,3.5-13.8,8.6c1.8-6.5,7.8-11.3,14.9-11.3
						c8.5,0,15.5,6.9,15.5,15.5C600,566,599.5,568.4,598.4,570.4L598.4,570.4z"/>
				</g>
				
					<ellipse transform="matrix(0.1602 -0.9871 0.9871 0.1602 -65.3086 1050.3066)" class="st1" cx="584.6" cy="563.5" rx="8.3" ry="8.3"/>
				<g class="st3">
					<path class="st4" d="M589.2,566.6c0.3-0.7,0.5-1.5,0.5-2.3c0-3.2-2.6-5.8-5.8-5.8c-1.8,0-3.5,0.9-4.5,2.2
						c0.9-2.1,2.9-3.5,5.3-3.5c3.2,0,5.8,2.6,5.8,5.8C590.5,564.4,590,565.6,589.2,566.6L589.2,566.6z"/>
					<path d="M588.7,567.5l0.4-1c0.3-0.7,0.4-1.4,0.4-2.2c0-3.1-2.5-5.6-5.6-5.6c-1.7,0-3.4,0.8-4.4,2.2l-0.7,0.8l0.4-1
						c0.9-2.2,3.1-3.6,5.5-3.6c3.3,0,5.9,2.7,5.9,5.9c0,1.4-0.4,2.6-1.3,3.7L588.7,567.5L588.7,567.5z M583.9,558.4
						c3.3,0,5.9,2.7,5.9,5.9c0,0.4,0,0.9-0.1,1.3c0.4-0.8,0.6-1.7,0.6-2.6c0-3.1-2.5-5.6-5.6-5.6c-1.9,0-3.7,1-4.7,2.5
						C581.1,559,582.4,558.4,583.9,558.4z"/>
				</g>
				<path class="st1" d="M584.6,599.7c-19.9,0-36.1-16.2-36.1-36.1s16.2-36.1,36.1-36.1s36.1,16.2,36.1,36.1
					S604.5,599.7,584.6,599.7z M584.6,530.5c-18.2,0-33,14.8-33,33c0,18.2,14.8,33,33,33c18.2,0,33-14.8,33-33
					C617.6,545.3,602.8,530.5,584.6,530.5L584.6,530.5z"/>
				<path class="st1" d="M584.6,587.6c-13.3,0-24.1-10.8-24.1-24.1s10.8-24.1,24.1-24.1s24.1,10.8,24.1,24.1
					S597.9,587.6,584.6,587.6z M584.6,542.6c-11.6,0-21,9.4-21,21c0,11.6,9.4,21,21,21s21-9.4,21-21
					C605.6,552,596.2,542.6,584.6,542.6z"/>
			</g>
			<g>
				<g>
					<circle class="st1" cx="509.4" cy="563.5" r="34.6"/>
					<path d="M509.4,598.3c-19.2,0-34.8-15.6-34.8-34.8s15.6-34.8,34.8-34.8c19.2,0,34.8,15.6,34.8,34.8S528.6,598.3,509.4,598.3
						L509.4,598.3z M509.4,529.2c-18.9,0-34.3,15.4-34.3,34.3s15.4,34.3,34.3,34.3c18.9,0,34.3-15.4,34.3-34.3
						S528.4,529.2,509.4,529.2L509.4,529.2z"/>
				</g>
				<g class="st3">
					<path class="st4" d="M536.5,585c3.4-5.3,5.3-11.6,5.3-18.4c0-19.1-15.5-34.6-34.6-34.6c-11,0-20.8,5.1-27.1,13.1
						c6.1-9.7,16.9-16.1,29.3-16.1c19.1,0,34.6,15.5,34.6,34.6C544,571.6,541.2,579.1,536.5,585z"/>
				</g>
				<g>
					<circle class="st4" cx="509.4" cy="563.5" r="22.5"/>
					<path d="M509.4,586.3c-12.6,0-22.8-10.2-22.8-22.8s10.2-22.8,22.8-22.8c12.6,0,22.8,10.2,22.8,22.8S522,586.3,509.4,586.3z
						 M509.4,541.2c-12.3,0-22.3,10-22.3,22.3s10,22.3,22.3,22.3c12.3,0,22.3-10,22.3-22.3S521.7,541.2,509.4,541.2z"/>
				</g>
				<g class="st3">
					<path class="st4" d="M530.2,572.4c0.4-1.7,0.6-3.5,0.6-5.4c0-12.4-10.1-22.5-22.5-22.5c-9.3,0-17.3,5.6-20.7,13.7
						c2.4-9.9,11.3-17.2,21.9-17.2c12.4,0,22.5,10.1,22.5,22.5C532,566.7,531.3,569.7,530.2,572.4z"/>
				</g>
				
					<ellipse transform="matrix(0.8112 -0.5847 0.5847 0.8112 -233.3461 404.238)" class="st23" cx="509.4" cy="563.5" rx="15.5" ry="15.5"/>
				<g class="st5">
					<path d="M523.3,570.4c0.4-1.3,0.6-2.7,0.6-4.2c0-8.5-6.9-15.5-15.5-15.5c-6.1,0-11.3,3.5-13.8,8.6c1.8-6.5,7.8-11.3,14.9-11.3
						c8.5,0,15.5,6.9,15.5,15.5C524.9,566,524.3,568.4,523.3,570.4L523.3,570.4z"/>
				</g>
				
					<ellipse transform="matrix(0.1602 -0.9871 0.9871 0.1602 -128.4326 976.1133)" class="st1" cx="509.4" cy="563.5" rx="8.3" ry="8.3"/>
				<g class="st3">
					<path class="st4" d="M514.1,566.6c0.3-0.7,0.5-1.5,0.5-2.3c0-3.2-2.6-5.8-5.8-5.8c-1.8,0-3.5,0.9-4.5,2.2
						c0.9-2.1,2.9-3.5,5.3-3.5c3.2,0,5.8,2.6,5.8,5.8C515.3,564.4,514.9,565.6,514.1,566.6L514.1,566.6z"/>
					<path d="M513.5,567.5l0.4-1c0.3-0.7,0.4-1.4,0.4-2.2c0-3.1-2.5-5.6-5.6-5.6c-1.7,0-3.4,0.8-4.4,2.2l-0.7,0.8l0.4-1
						c0.9-2.2,3.1-3.6,5.5-3.6c3.3,0,5.9,2.7,5.9,5.9c0,1.4-0.4,2.6-1.3,3.7L513.5,567.5L513.5,567.5z M508.7,558.4
						c3.3,0,5.9,2.7,5.9,5.9c0,0.4,0,0.9-0.1,1.3c0.4-0.8,0.6-1.7,0.6-2.6c0-3.1-2.5-5.6-5.6-5.6c-1.9,0-3.7,1-4.7,2.5
						C505.9,559,507.3,558.4,508.7,558.4z"/>
				</g>
				<path class="st1" d="M509.4,599.7c-19.9,0-36.1-16.2-36.1-36.1s16.2-36.1,36.1-36.1s36.1,16.2,36.1,36.1
					S529.3,599.7,509.4,599.7z M509.4,530.5c-18.2,0-33,14.8-33,33c0,18.2,14.8,33,33,33s33-14.8,33-33
					C542.4,545.3,527.6,530.5,509.4,530.5L509.4,530.5z"/>
				<path class="st1" d="M509.4,587.6c-13.3,0-24.1-10.8-24.1-24.1s10.8-24.1,24.1-24.1c13.3,0,24.1,10.8,24.1,24.1
					S522.7,587.6,509.4,587.6z M509.4,542.6c-11.6,0-21,9.4-21,21c0,11.6,9.4,21,21,21s21-9.4,21-21
					C530.4,552,521,542.6,509.4,542.6z"/>
			</g>
			<g>
				<g>
					<circle class="st1" cx="431.4" cy="563.5" r="34.6"/>
					<path d="M431.4,598.3c-19.2,0-34.8-15.6-34.8-34.8s15.6-34.8,34.8-34.8s34.8,15.6,34.8,34.8S450.6,598.3,431.4,598.3
						L431.4,598.3z M431.4,529.2c-18.9,0-34.3,15.4-34.3,34.3s15.4,34.3,34.3,34.3s34.3-15.4,34.3-34.3S450.3,529.2,431.4,529.2
						L431.4,529.2z"/>
				</g>
				<g class="st3">
					<path class="st4" d="M458.5,585c3.4-5.3,5.3-11.6,5.3-18.4c0-19.1-15.5-34.6-34.6-34.6c-11,0-20.8,5.1-27.1,13.1
						c6.1-9.7,16.9-16.1,29.3-16.1c19.1,0,34.6,15.5,34.6,34.6C466,571.6,463.2,579.1,458.5,585z"/>
				</g>
				<g>
					<circle class="st4" cx="431.4" cy="563.5" r="22.5"/>
					<path d="M431.4,586.3c-12.6,0-22.8-10.2-22.8-22.8s10.2-22.8,22.8-22.8c12.6,0,22.8,10.2,22.8,22.8S444,586.3,431.4,586.3z
						 M431.4,541.2c-12.3,0-22.3,10-22.3,22.3s10,22.3,22.3,22.3s22.3-10,22.3-22.3S443.7,541.2,431.4,541.2z"/>
				</g>
				<g class="st3">
					<path class="st4" d="M452.1,572.4c0.4-1.7,0.6-3.5,0.6-5.4c0-12.4-10.1-22.5-22.5-22.5c-9.3,0-17.3,5.6-20.7,13.7
						c2.4-9.9,11.3-17.2,21.9-17.2c12.4,0,22.5,10.1,22.5,22.5C453.9,566.7,453.3,569.7,452.1,572.4z"/>
				</g>
				
					<ellipse transform="matrix(0.8112 -0.5847 0.5847 0.8112 -248.0754 358.6114)" class="st23" cx="431.4" cy="563.5" rx="15.5" ry="15.5"/>
				<g class="st5">
					<path d="M445.2,570.4c0.4-1.3,0.6-2.7,0.6-4.2c0-8.5-6.9-15.5-15.5-15.5c-6.1,0-11.3,3.5-13.8,8.6c1.8-6.5,7.8-11.3,14.9-11.3
						c8.5,0,15.5,6.9,15.5,15.5C446.9,566,446.3,568.4,445.2,570.4L445.2,570.4z"/>
				</g>
				
					<ellipse transform="matrix(0.1602 -0.9871 0.9871 0.1602 -193.9659 899.0882)" class="st1" cx="431.4" cy="563.5" rx="8.3" ry="8.3"/>
				<g class="st3">
					<path class="st4" d="M436,566.6c0.3-0.7,0.5-1.5,0.5-2.3c0-3.2-2.6-5.8-5.8-5.8c-1.8,0-3.5,0.9-4.5,2.2
						c0.9-2.1,2.9-3.5,5.3-3.5c3.2,0,5.8,2.6,5.8,5.8C437.3,564.4,436.8,565.6,436,566.6L436,566.6z"/>
					<path d="M435.5,567.5l0.4-1c0.3-0.7,0.4-1.4,0.4-2.2c0-3.1-2.5-5.6-5.6-5.6c-1.7,0-3.4,0.8-4.4,2.2l-0.7,0.8l0.4-1
						c0.9-2.2,3.1-3.6,5.5-3.6c3.3,0,5.9,2.7,5.9,5.9c0,1.4-0.4,2.6-1.3,3.7L435.5,567.5L435.5,567.5z M430.7,558.4
						c3.3,0,5.9,2.7,5.9,5.9c0,0.4,0,0.9-0.1,1.3c0.4-0.8,0.6-1.7,0.6-2.6c0-3.1-2.5-5.6-5.6-5.6c-1.9,0-3.7,1-4.7,2.5
						C427.9,559,429.2,558.4,430.7,558.4z"/>
				</g>
				<path class="st1" d="M431.4,599.7c-19.9,0-36.1-16.2-36.1-36.1s16.2-36.1,36.1-36.1s36.1,16.2,36.1,36.1
					S451.3,599.7,431.4,599.7z M431.4,530.5c-18.2,0-33,14.8-33,33c0,18.2,14.8,33,33,33s33-14.8,33-33
					C464.4,545.3,449.6,530.5,431.4,530.5L431.4,530.5z"/>
				<path class="st1" d="M431.4,587.6c-13.3,0-24.1-10.8-24.1-24.1s10.8-24.1,24.1-24.1s24.1,10.8,24.1,24.1
					S444.7,587.6,431.4,587.6z M431.4,542.6c-11.6,0-21,9.4-21,21c0,11.6,9.4,21,21,21s21-9.4,21-21
					C452.4,552,443,542.6,431.4,542.6z"/>
			</g>
			<g>
				<g>
					<circle class="st1" cx="326.7" cy="530.3" r="66.4"/>
					<path d="M326.7,597.2c-36.9,0-66.9-30-66.9-66.9s30-66.9,66.9-66.9s66.9,30,66.9,66.9S363.6,597.2,326.7,597.2L326.7,597.2z
						 M326.7,464.3c-36.4,0-66,29.6-66,66s29.6,66,66,66s66-29.6,66-66S363.1,464.3,326.7,464.3L326.7,464.3z"/>
				</g>
				<g class="st3">
					<path class="st4" d="M378.8,571.6c6.5-10.2,10.2-22.4,10.2-35.4c0-36.7-29.7-66.4-66.4-66.4c-21.1,0-39.9,9.8-52.1,25.2
						c11.8-18.6,32.6-31,56.2-31c36.7,0,66.4,29.7,66.4,66.4C393.2,545.9,387.8,560.2,378.8,571.6z"/>
				</g>
				<g>
					<circle class="st4" cx="326.7" cy="530.3" r="43.3"/>
					<path d="M326.7,574.1c-24.1,0-43.8-19.6-43.8-43.8c0-24.1,19.6-43.8,43.8-43.8s43.8,19.6,43.8,43.8
						C370.5,554.5,350.9,574.1,326.7,574.1z M326.7,487.5c-23.6,0-42.9,19.2-42.9,42.9c0,23.6,19.2,42.9,42.9,42.9
						s42.9-19.2,42.9-42.9C369.6,506.7,350.4,487.5,326.7,487.5z"/>
				</g>
				<g class="st3">
					<path class="st4" d="M366.6,547.4c0.8-3.3,1.2-6.8,1.2-10.3c0-23.9-19.4-43.3-43.3-43.3c-17.9,0-33.2,10.8-39.8,26.3
						c4.6-19,21.7-33,42.1-33c23.9,0,43.3,19.4,43.3,43.3C370.1,536.4,368.8,542.1,366.6,547.4z"/>
				</g>
				
					<ellipse transform="matrix(0.8112 -0.5847 0.5847 0.8112 -248.4121 291.1462)" class="st23" cx="326.7" cy="530.3" rx="29.7" ry="29.7"/>
				<g class="st5">
					<path d="M353.3,543.6c0.7-2.6,1.1-5.3,1.1-8.1c0-16.4-13.3-29.7-29.7-29.7c-11.7,0-21.7,6.7-26.6,16.5
						c3.5-12.5,15-21.7,28.6-21.7c16.4,0,29.7,13.3,29.7,29.7C356.4,535.1,355.3,539.6,353.3,543.6L353.3,543.6z"/>
				</g>
				
					<ellipse transform="matrix(0.1602 -0.9871 0.9871 0.1602 -249.0798 767.887)" class="st1" cx="326.7" cy="530.3" rx="16" ry="16"/>
				<g class="st3">
					<path class="st4" d="M335.7,536.3c0.6-1.3,0.9-2.8,0.9-4.3c0-6.1-5-11.1-11.1-11.1c-3.5,0-6.7,1.7-8.7,4.2
						c1.7-4,5.6-6.8,10.3-6.8c6.1,0,11.1,5,11.1,11.1C338.1,532,337.2,534.4,335.7,536.3L335.7,536.3z"/>
					<path d="M334.6,538l0.8-1.9c0.6-1.3,0.9-2.8,0.9-4.2c0-6-4.9-10.9-10.9-10.9c-3.4,0-6.5,1.5-8.5,4.1l-1.3,1.6l0.8-1.9
						c1.8-4.2,5.9-7,10.5-7c6.3,0,11.4,5.1,11.4,11.4c0,2.6-0.8,5-2.5,7.1L334.6,538L334.6,538z M325.4,520.5
						c6.3,0,11.4,5.1,11.4,11.4c0,0.8-0.1,1.7-0.3,2.5c0.8-1.5,1.2-3.2,1.2-5c0-6-4.9-10.9-10.9-10.9c-3.7,0-7,1.8-9,4.8
						C320,521.5,322.6,520.5,325.4,520.5z"/>
				</g>
				<path class="st1" d="M326.7,599.8c-38.3,0-69.4-31.2-69.4-69.4s31.2-69.4,69.4-69.4s69.4,31.2,69.4,69.4S365,599.8,326.7,599.8z
					 M326.7,466.9c-35,0-63.4,28.5-63.4,63.4s28.5,63.4,63.4,63.4s63.4-28.5,63.4-63.4S361.7,466.9,326.7,466.9L326.7,466.9z"/>
				<path class="st1" d="M326.7,576.6c-25.5,0-46.3-20.8-46.3-46.3s20.8-46.3,46.3-46.3s46.3,20.8,46.3,46.3
					S352.3,576.6,326.7,576.6z M326.7,490c-22.2,0-40.3,18.1-40.3,40.3s18.1,40.3,40.3,40.3s40.3-18.1,40.3-40.3S349,490,326.7,490z
					"/>
			</g>
		</g>
	</g>
	<ellipse class="st25" cx="244.6" cy="836.5" rx="127.7" ry="26.7"/>
	<g>
		<g>
			<path class="st1" d="M66.4,610.4c0,0,6.4-44.9-23-41.6c-29.4,3.4-38.6-9.1-38.6-9.1S3.4,613.5,30,622.3c19,6.3,30.6-8.2,30.6-8.2
				"/>
			<g class="st26">
				<path class="st4" d="M4.8,564.7c4.4,6,15.4,16.3,36.6,13.9c21-2.4,23.7,19.8,23.6,32.7l1.4-0.9c0,0,6.4-44.9-23-41.6
					c-29.4,3.3-38.6-9.1-38.6-9.1S4.7,561.6,4.8,564.7L4.8,564.7z"/>
			</g>
			<g class="st27">
				<path class="st1" d="M30,622.3c19,6.3,30.6-8.2,30.6-8.2l5.8-3.8c0,0,1.3-9,0.1-18.7c-3.8,5-10.6,10.9-22.1,11.3
					c-18.5,0.6-32.3-21.6-39.5-36.6C5.5,581,9.1,615.4,30,622.3L30,622.3z"/>
			</g>
			<path class="st1" d="M39.5,628.7c-3.4,0-7.1-0.5-11-1.9C-1.1,617,0,561.9,0,559.6c0.1-2,1.4-3.8,3.3-4.4c1.9-0.6,4,0,5.2,1.7
				c0.1,0.1,8.5,10.2,34.3,7.3c8.1-0.9,14.8,1.2,19.8,6.3c12.3,12.7,8.6,39.5,8.4,40.7c-0.4,2.6-2.8,4.4-5.4,4
				c-0.1,0-0.3-0.1-0.4-0.1c-0.1,0.8-0.5,1.5-1,2.1C63.9,617.7,54.8,628.7,39.5,628.7L39.5,628.7z M60.6,609.4c0.4,0,0.7,0,1.1,0.1
				c0.9-6.7,1.5-24.9-5.9-32.5c-2.8-2.9-6.7-4.1-11.8-3.5c-16.6,1.9-27.5-1.1-34.2-4.4c1.1,17,6,43.4,21.7,48.6
				c15.5,5.1,25.1-6.2,25.4-6.6C57.9,610,59.2,609.4,60.6,609.4L60.6,609.4z"/>
			<path class="st2" d="M150.3,637.4c0,0-37.8,5-60-21C66,588,49.5,589.3,48.2,597.2c-1.3,7.9,12.3,12.2,24.2,35.6
				c11.2,22,26.1,41.3,60.7,36.8"/>
			<g class="st27">
				<path class="st1" d="M72.3,632.8c11.2,22.1,26.1,41.3,60.7,36.8l17.3-32.2c0,0-2.6,0.3-6.9,0.4l-1.8,6
					c-32.9,11.5-51.5-4.2-67-23.4c-11-13.7-21-18.8-26.5-23.2C46.9,605.1,60.5,609.4,72.3,632.8L72.3,632.8z"/>
			</g>
			<path class="st1" d="M123.4,675c3.2,0,6.6-0.2,10.2-0.7c2.6-0.3,4.4-2.7,4.1-5.3c-0.3-2.6-2.7-4.4-5.3-4.1
				c-30,3.9-44-10.9-55.8-34.2c-6.5-12.8-13.6-20.4-18.4-25.3c-3.1-3.3-5.6-5.9-5.3-7.3c0-0.2,0.1-0.5,0.9-0.7
				c3.9-1.1,15.7,2.2,32.9,22.3c23.6,27.6,62.6,22.8,64.2,22.6c2.6-0.3,4.4-2.7,4.1-5.3c-0.3-2.6-2.7-4.4-5.3-4.1l0,0
				c-0.4,0.1-35.5,4.3-55.8-19.4c-16.1-18.8-32.1-28.2-42.7-25.3c-4.2,1.2-7.1,4.3-7.8,8.3c-1,6.1,2.9,10.2,7.8,15.4
				c4.6,4.9,10.9,11.5,16.8,23.1C78.3,655,92.8,675,123.4,675L123.4,675z"/>
			<path class="st2" d="M254.4,830.4c13.4,17.5,58.3,28.1,67,15.6c3.3-4.8,4.1-11.7,6.3-19.1c4.5-15.2,13.8-36.4,24.8-57.8
				c11.2-21.9,24.3-44.1,36.2-60.7l-122,9.3l-15.4,1.2C251.4,718.9,232.1,801.3,254.4,830.4L254.4,830.4z"/>
			<g class="st27">
				<path class="st1" d="M274.2,778c13.2,9.3,51.6-0.4,78.3-8.9c11.2-21.9,24.3-44.1,36.2-60.7l-122,9.3
					C263.6,741.3,262.6,769.9,274.2,778L274.2,778z"/>
			</g>
			<g>
				<path class="st4" d="M298.3,851c10.6,1.3,19.7-0.1,23.1-5c1.2-1.7,2-3.6,2.7-5.7c1.7-7.6-1.8-14.4-7.5-15.5
					C302.9,822.1,299.4,841,298.3,851L298.3,851z"/>
				<path class="st1" d="M305.4,856.2c-2.4,0-5-0.2-7.7-0.5l-4.7-0.6l0.5-4.7c1.6-14.2,5.3-23.3,11.4-27.8c3.6-2.6,7.9-3.6,12.5-2.7
					c3.6,0.7,6.8,2.9,9,6.2c2.7,4.1,3.6,9.6,2.3,15.1l-0.1,0.5c-1,2.8-2,5-3.3,6.9C321.9,853.7,314.9,856.2,305.4,856.2L305.4,856.2
					z M319.5,839c0.6-2.8,0.2-5.6-1-7.5c-0.5-0.8-1.4-1.8-2.8-2c-2-0.4-3.6-0.1-5.1,1c-1.9,1.4-5.1,5.3-6.9,16.3
					c8.1,0.3,12.5-1.5,13.8-3.4C318.2,842.2,318.9,840.8,319.5,839L319.5,839z"/>
			</g>
			<path class="st1" d="M305.5,856.2c0.4,0,0.8,0,1.3,0c8.9-0.2,15.3-2.8,18.6-7.5c2.8-4.1,4-9,5.3-14.3c0.5-2,1-4.1,1.6-6.1
				c8.8-29.7,37-84.4,60.3-117.1c1.5-2.1,1-5.1-1.1-6.6c-2.1-1.5-5.1-1-6.6,1.1c-24.2,34-52.5,88.9-61.7,120
				c-0.7,2.3-1.2,4.5-1.7,6.6c-1.1,4.5-2.1,8.5-3.9,11.1c-1.4,2-5.5,3.3-11,3.4c-15.2,0.4-39.7-7.9-48.3-19.2
				c-20.7-27-2.3-106.7-2.2-107.5c0.6-2.6-1-5.1-3.6-5.7c-2.6-0.6-5.1,1-5.7,3.6c-0.8,3.5-19.6,85,3.9,115.5
				C261.2,847,287.6,856.2,305.5,856.2L305.5,856.2z"/>
			<path class="st1" d="M305.4,856.2c9.6,0,16.5-2.6,19.9-7.5c1.3-1.9,2.4-4.1,3.3-6.9c0.8-2.5-0.5-5.2-3-6c-2.5-0.8-5.2,0.5-6,3
				c-0.7,2-1.3,3.4-2.1,4.5c-1.6,2.2-7.3,4.4-18.6,3c-2.6-0.3-5,1.5-5.3,4.2c-0.3,2.6,1.5,5,4.2,5.3
				C300.4,856.1,303,856.2,305.4,856.2L305.4,856.2z"/>
			<path class="st2" d="M141,761.7c8.6,26.6-2.7,54.9,5.3,68.9c6.4,11.2,58.6,17.1,72.2,5.2c4-3.6,8.8-32.7,8-62.4
				c-0.3-11.4-1.5-23-3.9-33.1c-0.5-2.2-1.1-4.4-1.7-6.4L157.5,553c-21,4.9-46.4,25.5-52.7,60.4C91.2,688.7,127.4,719.7,141,761.7
				L141,761.7z"/>
			<g class="st27">
				<path class="st1" d="M141,761.7c8.6,26.6-2.7,54.9,5.3,68.9c6.4,11.2,58.6,17.1,72.2,5.2c1-0.9,2-3.2,3-6.7
					c-18.4,7.7-61.4,1.9-67.1-8.2c-8-14.1,5.5-32.4-10.3-68c-4.4-9.9-11.9-19.6-20.5-29.6C130,736.1,136.6,748.3,141,761.7
					L141,761.7z"/>
			</g>
			<g class="st27">
				<path class="st1" d="M137.5,718.5c24.2,43.3,73.1,52.9,88.9,54.9c-0.3-11.4-1.5-23-3.9-33.1L137.5,718.5L137.5,718.5z"/>
			</g>
			<path class="st1" d="M166.7,843L166.7,843c2.6,0,4.8-1.7,4.8-3.7c0-5.3,1.8-14.8,6.5-17.6c0.9-0.5,2.4-1.1,5.2-0.5
				c4.7,1.1,6.4,10.7,5.8,17.2c-0.2,2,1.8,3.8,4.4,4c2.7,0.2,4.9-1.4,5.1-3.4c0.2-2.2,1.7-21.6-12.6-24.9
				c-6.4-1.4-10.9,0.1-13.6,1.7c-10.1,5.9-10.3,21.7-10.3,23.5C161.9,841.4,164,843,166.7,843L166.7,843z"/>
			<g>
				<path class="st4" d="M193.9,842.3c10.5-0.4,19.8-2.4,24.5-6.5c0.7-0.6,1.5-2.1,2.2-4.2c-0.9-6.4-3.3-12.8-9.1-14.2
					C197.3,813.8,194.5,833.6,193.9,842.3z"/>
				<path class="st1" d="M193.2,843l0.1-0.7c0.4-6.9,2.2-19.1,8.8-24c2.7-2,6-2.5,9.7-1.6c5.2,1.3,8.4,6.3,9.6,14.8l0,0.2l-0.1,0.2
					c-0.8,2.3-1.6,3.8-2.4,4.5c-4.4,3.9-13.3,6.3-25,6.7L193.2,843L193.2,843z M211.4,818c-3.3-0.8-6.2-0.4-8.6,1.4
					c-6,4.4-7.7,15.5-8.2,22.2c11-0.5,19.3-2.7,23.4-6.3c0.4-0.3,1.1-1.2,2-3.8C218.8,823.7,216,819.1,211.4,818z"/>
			</g>
			<path class="st4" d="M167.1,840.1c8.3,1.7,17.9,2.5,26.7,2.2c0-6.9-1-21-9.3-23.4C171.8,815.2,168.1,830.7,167.1,840.1z"/>
			<path class="st4" d="M167.1,840.1c8.3,1.7,17.9,2.5,26.7,2.2c0.1,0,0.1,0,0.2,0c10.5-0.4,19.8-2.4,24.5-6.5
				c0.7-0.6,1.5-2.1,2.2-4.2"/>
			<path class="st1" d="M188.8,847.2l0.3-5.3c0.6-9.3,2.9-21.5,10.5-27c3.7-2.7,8.2-3.5,13.1-2.3c4.8,1.2,10.8,5.3,12.6,18.2
				l0.2,1.1l-0.4,1.1c-1,3-2.2,5-3.6,6.2c-6.6,5.8-18.6,7.4-27.5,7.7L188.8,847.2L188.8,847.2z M215.2,832.3
				c0.1-0.2,0.3-0.5,0.6-1.3c-0.7-3.9-2.2-8.3-5.3-9.1c-2.8-0.7-4.3,0.1-5.2,0.7c-2.8,2.1-5,7.3-6,14.5
				C206.7,836.4,212.3,834.7,215.2,832.3L215.2,832.3z"/>
			<path class="st1" d="M190.2,847.1c-7.9,0-16.3-0.8-24-2.4l-4.3-0.9l0.5-4.3c1.3-11.9,4.9-19.8,10.5-23.6
				c2.6-1.7,6.9-3.4,12.9-1.6c11.1,3.2,12.7,18.9,12.7,28v4.6l-4.6,0.2C192.7,847.1,191.4,847.1,190.2,847.1L190.2,847.1z
				 M180.8,823.1c-1.3,0-2.1,0.4-2.6,0.8c-2.5,1.7-4.5,6.1-5.7,12.3c5.3,0.8,11,1.3,16.3,1.4c-0.6-7.8-2.7-13.3-5.7-14.1
				C182.2,823.2,181.5,823.1,180.8,823.1L180.8,823.1z"/>
			<path class="st1" d="M190.5,847.1c-7.8,0-15.4-0.8-20.9-1.7c-10.3-1.8-23.4-5.3-27.5-12.5c-4.5-8-3.8-18.7-3.1-31
				c0.8-12.1,1.6-25.8-2.6-38.8c-3.7-11.4-9.1-22-14.9-33.2C106.8,701,90,668.3,100.1,612.5c6.7-36.8,33.1-58.8,56.3-64.2
				c2.6-0.6,5.1,1,5.7,3.6c0.6,2.6-1,5.1-3.6,5.7c-19.6,4.6-43.3,24.2-49.1,56.6c-9.5,52.6,5.8,82.5,20.6,111.4
				c5.9,11.6,11.5,22.5,15.5,34.6c4.8,14.7,3.8,29.4,3,42.3c-0.7,10.8-1.3,20.2,1.9,25.7c1.1,1.9,7.5,5.5,20.8,7.7
				c18.6,3.1,37.8,1.5,44-3.7c4.1-5.9,12-61.5,1.1-97.1c-0.8-2.5,0.6-5.2,3.2-5.9c2.5-0.8,5.2,0.6,5.9,3.2c6.7,22,6.2,49.7,5.4,64.3
				c-0.4,6.1-2.6,36.8-9.2,42.7C214.8,845.3,202.4,847.1,190.5,847.1L190.5,847.1z M215.1,832.4"/>
			<path class="st1" d="M190.2,847.1c1.2,0,2.5,0,3.7-0.1c0.1,0,0.3,0,0.4,0c8.9-0.3,20.8-1.9,27.3-7.7c1.4-1.2,2.5-3.2,3.6-6.2
				c0.9-2.5-0.5-5.2-3-6c-2.5-0.8-5.2,0.5-6,3c-0.5,1.4-0.9,2.1-1,2.3c-3.5,2.9-11.3,4.8-21.4,5.2l-0.4,0
				c-8.1,0.3-17.3-0.5-25.3-2.1c-2.6-0.5-5.1,1.1-5.6,3.7c-0.5,2.6,1.1,5.1,3.7,5.6C173.8,846.3,182.2,847.1,190.2,847.1
				L190.2,847.1z"/>
			<path class="st2" d="M127,545.7l10.5,172.8c20.7,23.7,59.1,37.4,82.7,38.5c23.4,2.9,46.6,9.4,64.9,7.9
				c121.5-10.5,137.3-111.4,143.7-160l-106.8-54c0,0-31.7-11.8-71.3-18.7C209,524.7,158.5,522.7,127,545.7L127,545.7z"/>
			<g class="st27">
				<path class="st1" d="M137.5,718.5c20.7,23.7,59.1,37.4,82.7,38.5c23.4,2.9,46.6,9.4,64.9,7.9c121.5-10.5,137.3-111.4,143.7-160
					l-106.8-54c0,0-31.7-11.8-71.3-18.7c-9,16-20.3,43.1-17,74.8c5.3,50.7,110.1,31.1,111.4,88.1c1.3,54.9-77.5,42.9-77.5,42.9
					l-45.5-11.4c0,0-2.4,8.6-26.9,9.9C170.8,737.8,137.5,718.5,137.5,718.5L137.5,718.5z"/>
			</g>
			<path class="st1" d="M129.8,549.6c38.5-27,99.2-17.9,142.8-8.2c16.1,3.8,32.3,8.3,47.8,13.9c-2.4-1.4,106.8,54.2,106.3,53.8
				l-2.6-4.9c-7.7,62.7-29.9,122.8-93.9,146.1c-12.9,4.8-26.5,7.7-40.2,9.4c-10.6,1.5-21.1,0.7-31.8-0.9
				c-12.4-1.8-24.9-4.3-37.7-5.8c-7.4-0.2-14.9-1.5-22.3-3.4c-14.6-3.8-28.9-9.8-41.6-18.1c-6.3-4.2-12.3-8.9-17.4-14.5
				c-2-2.2-5.5,0.7-3.6,3.1c10.3,12.3,23.9,21.3,38.3,28.2c14.6,6.7,29.9,11.6,46.1,12.8c10.6,1.4,24.7,4.4,36.8,6.4
				c9.5,1.5,19.6,2.8,29.3,2c2.4-0.2,7.2-0.7,9.6-1c32.2-4,64.1-16.6,87.4-39.7c33.8-32.9,45.8-81.5,50.7-126.6l-3-1.5l-106.8-54
				c-46.8-16.2-101.4-28.6-151-22.6c-17.3,2.3-34.6,7.5-49,18C119.2,545.7,124.6,553.1,129.8,549.6L129.8,549.6L129.8,549.6z"/>
			<path class="st2" d="M319.9,732.1c-8.5,25.9-16.8,69.7-19.7,94.4c-0.5,4.1,2.7,12.2,0.7,17.3c-6.6,17-57.2,12.9-70.1-5
				c-17.4-24.2-8.6-112.2-8.6-112.2"/>
			<g class="st27">
				<path class="st1" d="M230.8,838.7c12.9,17.9,63.5,22,70.1,5c1.2-3.1,0.5-7.4-0.1-11.2c-11.3,13.3-56.2,8.6-68.2-8.1
					c-13-18.1-11.4-72-9.7-98l-0.6,0C222.2,726.5,213.3,814.5,230.8,838.7L230.8,838.7z"/>
			</g>
			<path class="st4" d="M274.3,854.5c12.7-0.1,23.7-3.5,26.5-10.8c0.5-1.4,0.7-3,0.6-4.7c-2.3-4.6-5.8-8.6-11.4-9.2
				C278.4,828.5,273.7,842.1,274.3,854.5z"/>
			<path class="st4" d="M246.9,849.7c8.3,3.2,18.3,4.9,27.3,4.8c0.2-3.2,0.5-21.9-10.7-23.7C253.2,829.1,248.2,840.2,246.9,849.7
				L246.9,849.7z"/>
			<path class="st4" d="M246.9,849.7c8.3,3.2,18.3,4.9,27.3,4.8h0.1c12.7-0.1,23.7-3.5,26.5-10.8c0.5-1.4,0.7-3,0.6-4.7"/>
			<path class="st1" d="M269.8,859.3l-0.2-4.5c-0.5-10.7,2.4-20.2,7.8-25.4c3.6-3.4,8.2-4.9,13.2-4.4c4.5,0.5,10.7,2.9,15.1,11.9
				l0.5,0.9l0,1c0.1,2.6-0.2,4.8-1,6.6c-3.4,8.7-14.7,13.7-30.9,13.8L269.8,859.3L269.8,859.3z M296.7,840.2c-2.9-5.2-6-5.6-7.1-5.7
				c-2.3-0.3-4.1,0.3-5.7,1.8c-2.6,2.5-4.4,7.4-4.8,13.2c9.1-0.8,15.7-3.6,17.3-7.5C296.6,841.6,296.7,841.1,296.7,840.2
				L296.7,840.2z"/>
			<path class="st1" d="M274,859.3c-9.7,0-20.2-1.9-28.8-5.1l-3.5-1.3l0.5-3.8c0.6-4.2,2.7-14.7,10-20.1c3.5-2.6,7.7-3.6,12.1-2.9
				c11.8,1.9,15.3,16,14.7,28.7l-0.2,4.5l-4.5,0C274.1,859.3,274,859.3,274,859.3L274,859.3z M261.5,835.4c-1.4,0-2.5,0.4-3.7,1.2
				c-2.4,1.8-4.3,5.4-5.5,9.9c5.3,1.6,11.3,2.7,17.1,3.1c-0.4-6.1-2-13.4-6.7-14.1C262.3,835.4,261.9,835.4,261.5,835.4L261.5,835.4
				z"/>
			<path class="st1" d="M317.6,731.3c-12.3,29.8-17.7,61.8-22.4,93.6c-1,5.3,1.7,11.1,1,16.3c-0.5,2.2-2.2,3.5-4.9,4.9
				c-14.5,6.6-45.4,2.5-56-10c-14.3-20.1-10.6-82.9-10.7-109.4c0.1-2.8-4.2-3.4-4.7-0.5c-2.2,12.7-3.3,25.5-4,38.3
				c-0.8,19.4-0.7,39.1,3.4,58.3c3.5,16.4,9.9,25.7,25.9,31.7c15.5,5.6,35.5,8,50.9,0.9c4.9-2.4,9.4-6.7,10.4-12.3
				c1-5.3-0.8-10.6-1.1-15.8c0.7-6.7,1.6-13.3,2.6-20c4-25,8.9-49.8,14.2-74.6C322.7,730.1,318.8,728.7,317.6,731.3L317.6,731.3
				L317.6,731.3z"/>
			<path class="st1" d="M246,851.9c4.2,4.2,9.8,5.5,15.3,6.6c12.6,2.4,33,2.3,41.4-9.5c1.8-2.8,2.5-7,1.2-10.1
				c-0.5-1.3-2-1.9-3.3-1.4c-0.8,0.3-1.3,0.9-1.5,1.6c-3,8.4-13.8,9.5-21.6,10c-7.3,0.4-14.8-0.3-22-1.4c-2.5-0.3-5.1-0.5-7.9-0.2
				C245.5,847.6,244.5,850.5,246,851.9L246,851.9L246,851.9z"/>
		</g>
		<g>
			<g>
				<g>
					<g>
						<g>
							<g>
								<g>
									<g>
										<path class="st6" d="M421.5,440.6l-1.2,32.1l19.6,0.8l-0.2,4.9c-0.3,7.3,5.4,13.5,12.8,13.8l8.5,0.3
											c7.3,0.3,13.5-5.4,13.8-12.8l1.6-41.1c0.3-7.3-5.4-13.5-12.8-13.8l-8.5-0.3c-7.3-0.3-13.5,5.4-13.8,12.8l-0.2,4.2
											L421.5,440.6z"/>
									</g>
								</g>
								<g class="st28">
									<g>
										<g>
											<path class="st4" d="M434.6,443.4l-0.2,4.2l-13.2-0.5l0.2-6.4l13.4,0.5C434.7,441.9,434.6,442.6,434.6,443.4z"/>
										</g>
									</g>
									<g>
										<g>
											<path class="st4" d="M468.1,485.9l1.6-41.1c0.3-7.3-5.4-13.5-12.8-13.8l-8.5-0.3c-2-0.1-3.9,0.3-5.7,1.1
												c2.3-4.4,7-7.4,12.3-7.2l8.5,0.3c7.3,0.3,13.1,6.5,12.8,13.8l-1.6,41.1c-0.2,5.3-3.5,9.8-8.1,11.7
												C467.5,489.8,468,487.9,468.1,485.9z"/>
										</g>
									</g>
								</g>
								<g class="st5">
									<g>
										<path class="st1" d="M430.4,441l-0.3,7.1c-0.3,8.1,6,15,14.2,15.3l0,0c2.7,0.1,4.8,2.4,4.7,5.1v0
											c-0.3,7.4,5.4,13.5,12.8,13.8l8.5,0.3c1.4,0.1,2.8-0.1,4.1-0.5c-1.4,6.1-7,10.6-13.5,10.4l-8.5-0.3
											c-7.4-0.3-13.1-6.5-12.8-13.8l0.2-4.9l-19.6-0.8l1.2-32.1L430.4,441z"/>
									</g>
								</g>
								<g>
									<g>
										<path class="st1" d="M435.2,478.2l0-0.4l-15.2-0.6c-2.5-0.1-4.4-2.2-4.3-4.7l1.2-32.1c0.1-2.5,2.2-4.4,4.7-4.3l15.2,0.6
											c0.5-9.6,8.8-17.1,18.5-16.8l8.5,0.3c9.8,0.4,17.5,8.7,17.1,18.5l-1.6,41.1c-0.4,9.8-8.7,17.5-18.5,17.1l-8.5-0.3
											C442.5,496.3,434.8,488,435.2,478.2z M454.9,428.9c-4.9-0.2-9,3.6-9.2,8.5l-0.2,4.2c-0.1,2.5-2.2,4.4-4.7,4.3l-15.2-0.6
											l-0.9,23.1L440,469c2.5,0.1,4.4,2.2,4.3,4.7l-0.2,4.9c-0.2,4.9,3.6,9,8.5,9.2l8.5,0.3c4.9,0.2,9-3.6,9.2-8.5l1.6-41.1
											c0.2-4.9-3.6-9-8.5-9.2L454.9,428.9z"/>
									</g>
								</g>
							</g>
							<path class="st2" d="M536.2,828.9c-14.1-146.4-88.9-291.1-88.9-291.1c17.3-149.2-71.3-189-149.3-165.2L116.4,473.3
								c-10.5,60.4,72.9,161.9,212.4,181.9C466.9,682.4,480.1,817,480.1,817l25.3-34.9L536.2,828.9z"/>
							<g class="st26">
								<path class="st4" d="M517.3,801.9c-21.5-132.5-83.9-253.2-83.9-253.2c17.3-149.2-71.3-189-149.3-165.2L115.3,477
									c0.1-1,0.3-2.1,0.4-3.1l181.6-100.7c78-23.8,166.6,16,149.3,165.2c0,0,74.8,144.7,88.9,291.1L517.3,801.9z"/>
								<path class="st4" d="M491.5,793l2.8,4.3l-14.9,20.5c0,0-0.2-2.5-1-6.8L491.5,793z"/>
							</g>
							<g>
								<path class="st1" d="M255.2,392.5c-38.6,18.7-70.4,42.1-70.4,42.1l-17.5,8.3l-8.6,4.1c-12.7,19.4-18.9,41.4-15.6,64.9
									l15.3,14.6l-4-50.1l36.4,34.6l-3.9-49.4l35.9,34.1l-3.6-45.7l33.2,31.6l-3.9-49.4l35.9,34.1l-4-50.8l36.9,35.1l-3.3-41.4
									l30.1,28.6l-4-50.1l36.4,34.6l-3.9-48.8c-14.2-4.5-29.6-6.8-45.4-7l-6.3,3C321,369.7,293.8,373.8,255.2,392.5z"/>
								<path class="st1" d="M373.4,373.9l35,33.3l-1.3-15.9C397.2,383.7,385.8,378,373.4,373.9z"/>
							</g>
							<g>
								<g>
									<g>
										<path class="st1" d="M447.3,463.1l-254.4,0c-1.7,0-3.1-1.7-3.1-3.8s1.4-3.8,3.1-3.8l254.4,0c1.7,0,3.1,1.7,3.1,3.8
											S449,463.1,447.3,463.1z"/>
									</g>
								</g>
								<g>
									<g>
										<path class="st1" d="M217.2,477.4c-2.5,0-4.5-2.4-4.5-5.4l0-26.1c0-3,2-5.4,4.5-5.4s4.5,2.4,4.5,5.4l0,26.1
											C221.6,475,219.6,477.4,217.2,477.4z"/>
									</g>
								</g>
								<g>
									<g>
										<path class="st1" d="M255.6,477.4c-2.5,0-4.5-2.4-4.5-5.4l0-26.1c0-3,2-5.4,4.5-5.4c2.5,0,4.5,2.4,4.5,5.4V472
											C260.1,475,258.1,477.4,255.6,477.4z"/>
									</g>
								</g>
								<g>
									<g>
										<path class="st1" d="M294.1,477.4c-2.5,0-4.5-2.4-4.5-5.4v-26.1c0-3,2-5.4,4.5-5.4c2.5,0,4.5,2.4,4.5,5.4V472
											C298.5,475,296.5,477.4,294.1,477.4z"/>
									</g>
								</g>
								<g>
									<g>
										<path class="st1" d="M423,477.4c-2.5,0-4.5-2.4-4.5-5.4v-26.1c0-3,2-5.4,4.5-5.4c2.5,0,4.5,2.4,4.5,5.4V472
											C427.4,475,425.4,477.4,423,477.4z"/>
									</g>
								</g>
								<g>
									<g>
										<path class="st1" d="M384.5,477.4c-2.5,0-4.5-2.4-4.5-5.4v-26.1c0-3,2-5.4,4.5-5.4c2.5,0,4.5,2.4,4.5,5.4V472
											C389,475,387,477.4,384.5,477.4z"/>
									</g>
								</g>
								<g>
									<g>
										<path class="st1" d="M346.1,477.4c-2.5,0-4.5-2.4-4.5-5.4v-26.1c0-3,2-5.4,4.5-5.4c2.5,0,4.5,2.4,4.5,5.4V472
											C350.5,475,348.5,477.4,346.1,477.4z"/>
									</g>
								</g>
							</g>
							<path class="st1" d="M543.8,851.7l-38.6-58.8l-29.6,40.8l-1.6-16c0-0.3-3.5-33.2-23.4-68.7c-11.6-20.7-26.4-38.3-44-52.3
								c-22-17.4-48.5-29.3-78.9-35.4c-42.1-6.1-81.2-19.5-116-40.1c-30.8-18.2-56.9-41.2-75.3-66.6c-21-28.9-30.3-58.2-26.1-82.4
								l0.5-2.9l2.6-1.4l182.2-101l0.6-0.2c43-13.1,84.4-6.7,113.8,17.5c24.9,20.6,52.6,63.7,43.6,152.2c0.6,1.1,1.4,2.7,2.5,4.7
								c2,3.8,5.2,10,9.2,18c6.9,14.2,17.5,36.9,28.4,64.9c19.3,49.5,43.4,125.1,48.6,204.4L543.8,851.7z M505.7,771.3l22.3,33.9
								c-14.8-132-77.2-248.6-85.1-262.9l-2-1.1l0.4-4c9.1-84.4-16.2-124.6-39-143.5c-26-21.5-63-27.1-101.8-15.4L122,477.1
								c-2.4,20.2,6.4,45.6,24.3,70.2c17.4,24,42.2,45.9,71.6,63.2c33.5,19.8,71.1,32.7,111.7,38.5l0.3,0.1
								c32.5,6.4,60.9,19.2,84.5,38c18.9,15.1,34.7,34,47.1,56.2c12.8,23.1,19.1,44.7,22.1,58.4L505.7,771.3z"/>
							<path class="st29" d="M142.6,544.3c15.2,21.2,26.8,61.8,46,95.2c16.5,28.6,41,41.3,64,34.1c-5,6.6-10.9,12.7-17.5,16.8
								c-26,16.4-56.2,4.6-75.4-28.8s-24.6-66.3-39.8-87.5"/>
							<g>
								<g>
									<g>
										<g>
											<path class="st30" d="M480.2,456.2c0,0-12.7-6.3-35.1-11.6c-2.6-0.6-5.3-1.2-8.2-1.8c-0.6-0.1-1.1-0.2-1.7-0.4
												c-0.6-0.1-1.2-0.2-1.8-0.3c-0.6-0.1-1.2-0.2-1.8-0.3c-0.6-0.1-1.2-0.2-1.8-0.3c-0.1,0-0.3,0-0.4-0.1
												c-0.8-0.1-1.6-0.3-2.5-0.4c-0.8-0.1-1.7-0.3-2.5-0.4c-0.6-0.1-1.2-0.2-1.8-0.3c-1.2-0.2-2.4-0.3-3.6-0.5
												c-38.3-5.2-92.3-4.3-154.8,19.9l0,0c-26.7,10.3-55,24.9-84.2,45.1c-3.7,2.6-7.5,5.3-11.3,8c-7.3-6.4,3.9-14.8,3.9-14.8
												s-24-96,64.1-145.8v0c4.9-7.8,25.4-34,77.1-29.1c8.2,0.8,16,3.5,22.9,7.8c79.9,11.9,114.4,97.8,114.4,97.8
												C475,438.9,480.2,456.2,480.2,456.2z"/>
										</g>
									</g>
									<g>
										<g>
											<path class="st31" d="M377.7,405.8c0,0-19.1,8.4-42.9-16.8c0,0-26.7-42-64.5-51.2c0,0,45.4,19,70.6,84.1l39.9-2
												L377.7,405.8z"/>
										</g>
									</g>
									<g>
										<g>
											<path class="st31" d="M248.9,466.1c-20.6,8.5-53.1,27.9-68.7,38.7c-3.7,2.6-7.5,5.3-11.3,8c-7.3-6.4,3.9-14.8,3.9-14.8
												s-8.9-35.5,4-74.5c4.8,30.6,36.8,41,142.5,2.4c-18.2,6.6-62.7,16.5-93.1,36.1C217.9,467.5,226.2,477,248.9,466.1z"/>
										</g>
									</g>
									<g>
										<g>
											<g>
												<path class="st30" d="M226.2,462.1c2.4-1.5,4.8-3,7.3-4.4C231,459.1,228.6,460.6,226.2,462.1z"/>
											</g>
										</g>
										<g>
											<g>
												<path class="st30" d="M304.1,429.1c-23.1,5.7-47.1,14.8-70.6,28.6c29.7-17,68.4-27.5,85.8-31.7
													C314.1,427.2,309,428.2,304.1,429.1z"/>
											</g>
										</g>
										<g class="st32">
											<g>
												<path class="st4" d="M451.2,428.8c-32.1-8.8-93.5-13.7-131.9-2.7c-17.2,4.9-56,14.7-85.8,31.7c-2.4,1.4-4.9,2.9-7.3,4.4
													c0,0,108.5-61.9,247.6-16.9C469.5,439.9,462.4,433.5,451.2,428.8z"/>
											</g>
										</g>
									</g>
									<g class="st32">
										<g>
											<path class="st4" d="M340,331.5c-1.1-0.2-2.1-0.4-3.2-0.5c-6.8-4.3-14.7-7-22.9-7.8c-49.8-4.7-70.6,19.5-76.5,28.2
												c7-2.2,14.1-4.2,21.1-6.6c12.1-8.2,31.4-15.5,60.8-12.8c8.2,0.8,16,3.5,22.9,7.8c2.6,0.4,5.2,0.9,7.7,1.4
												C347,337.7,343.8,334.4,340,331.5z"/>
										</g>
									</g>
									<g class="st32">
										<g>
											<path class="st4" d="M169.5,475.8c1-59,41-109.1,108.6-129.4c1.7-0.5,3.5-1,5.2-1.5c-4-2.7-8.1-5.2-12.3-7.4
												C203,358.7,165,412.8,169.5,475.8z"/>
										</g>
									</g>
									<g class="st32">
										<g>
											<path class="st4" d="M343.1,334.4c3.4,2.7,6.4,5.7,9,8.9c21.8,4.6,42.3,13.9,60.1,27.2
												C392.6,352.5,368.7,340,343.1,334.4z"/>
										</g>
									</g>
									<g>
										<g>
											<path class="st1" d="M168.9,516.5c-0.9,0-1.7-0.3-2.4-0.9c-3.2-2.8-3.8-5.9-3.7-8c0.2-4.7,3.7-8.7,6-10.8
												c-1.4-6.7-4.8-27.8-0.5-53.5c4.7-28.4,20.1-67.7,66.9-94.1c9.2-5.2,19.4-9.8,30.4-13.6c1-0.4,2.1-0.7,3.1-1.1l0.5-0.2
												c0.9-0.3,1.8-0.2,2.6,0.1c4.3,1.6,44.5,17.9,71.4,83.4c12.3-1.7,24.5-2.6,36.5-2.7c24.7-0.2,49.2,3.3,72.6,10.1
												c0.1,0,0.3,0.1,0.4,0.1c25.1,10.6,30.8,29,31,29.7c0.4,1.4,0,2.9-1.1,3.8c-1.1,0.9-2.6,1.1-3.9,0.5l0,0
												c-0.3-0.2-35.3-17-90.4-18.5c-50.8-1.3-129.8,10.6-217.2,74.8C170.4,516.3,169.6,516.5,168.9,516.5z M270.1,341.6
												c-0.7,0.3-1.5,0.5-2.2,0.8c-10.6,3.7-20.4,8.1-29.2,13.1c-35.5,20-56.7,49.9-63.3,88.7c-4.9,29.2,0.8,52.8,0.9,53
												c0.4,1.4-0.2,2.9-1.3,3.8c-1.5,1.1-4.5,4.1-4.9,6.5c38.4-27.7,78.2-47.9,118.6-60c33.3-10,67-14.7,100.1-13.7
												c39.9,1.1,69.1,9.9,83.3,15.2c-3.9-5.2-10.6-11.8-22.1-16.7c-22.7-6.6-46.3-9.9-70.3-9.8c-12.5,0.1-25.4,1.1-38.3,3
												c-1.7,0.2-3.3-0.7-3.9-2.2C313.4,362.4,276.8,344.5,270.1,341.6z"/>
										</g>
									</g>
									<g>
										<g>
											<path class="st1" d="M451.2,432.4c-0.3,0-0.7,0-1-0.1c-22.7-6.7-46.4-10-70.5-9.8c0,0,0,0,0,0c-1.8,0-3.4-1.4-3.6-3.2
												c-4.3-37.2-18.6-61.4-29.8-75.1c-3.2-4-7.1-7.4-11.4-10.1c-1.4-0.9-2.1-2.7-1.5-4.3c0.6-1.6,2.2-2.6,3.9-2.3
												c33.6,5,64.5,23.9,89.4,54.7c18.7,23.1,27.4,44.5,27.8,45.4c0.5,1.3,0.3,2.8-0.7,3.8C453.2,432,452.2,432.4,451.2,432.4z
												 M382.9,415.2c21,0.1,41.8,2.8,61.8,8c-4-8.1-11.8-22.2-23.6-36.8c-14.6-18-38.1-39.9-70.9-49c0.6,0.7,1.2,1.4,1.8,2.1
												C363.4,353.6,377.9,378.1,382.9,415.2z"/>
										</g>
									</g>
									<g>
										<g>
											<path class="st1" d="M180.5,490.4c22.7-19,48.2-34.3,75-46.6c26.8-12.4,55.6-21.2,84.8-25.6c4.7-0.6,5.9,6.3,1.1,7.2
												c-3.7,0.7-12.5,2.4-16,3c-30,6.5-59.4,17-86.9,30.6c-9,4.6-20.1,10.5-28.7,15.7c-9.3,5.7-18.6,11.6-27.2,18.1
												C181,494.1,178.9,491.9,180.5,490.4L180.5,490.4z"/>
										</g>
									</g>
									<g>
										<g>
											<path class="st1" d="M340.9,425.4c-2,0-3.6-1.6-3.6-3.6v0c0-2,1.6-3.6,3.6-3.6c2,0,3.6,1.6,3.6,3.6
												C344.5,423.8,342.9,425.4,340.9,425.4z"/>
										</g>
									</g>
									<g>
										<g>
											<path class="st1" d="M340.9,425.4c-1.5,0-2.8-0.9-3.4-2.3c-24.1-60.7-60.7-78.7-67.4-81.5c-0.7,0.3-1.5,0.5-2.2,0.8
												c-10.6,3.7-20.4,8.1-29.2,13.1c-1.1,0.6-2.5,0.6-3.6,0c-1.1-0.6-1.8-1.8-1.8-3.1c0-0.7,0.2-1.4,0.6-1.9
												c5.3-8.5,26.9-35.9,80.5-30.8c8.7,0.8,17.1,3.7,24.5,8.3c5,3.2,9.4,7.1,13.1,11.7c11.8,14.5,26.8,39.9,31.3,78.8
												c0.1,1-0.2,2.1-0.9,2.8c-0.7,0.8-1.7,1.2-2.7,1.2c-12.5,0.1-25.4,1.1-38.2,3C341.2,425.4,341.1,425.4,340.9,425.4z
												 M271.8,334.4c4.3,1.6,44.5,17.9,71.4,83.4c10.9-1.5,21.7-2.4,32.4-2.6c-4.9-34.9-18.5-57.9-29.3-71.1
												c-3.2-4-7.1-7.4-11.4-10.1c-6.4-4-13.7-6.5-21.3-7.2c-30-2.8-49,5.1-60.3,13.5c3.9-1.7,8-3.2,12.2-4.7
												c1-0.4,2.1-0.7,3.1-1.1l0.5-0.2C270,334,270.9,334.1,271.8,334.4z"/>
										</g>
									</g>
									<g>
										<g>
											<path class="st1" d="M308.4,320.3c14.5,13.4,26.9,29.2,36.6,46.4c1.6,2.6,3.5,6.8,4.9,9.5c0.7,1.6,2.5,5.9,3.2,7.4
												c0.6,1.7,2.1,5.8,2.7,7.6c0.3,0.8-0.9,1.3-1.2,0.5c-0.7-1.7-2.4-5.7-3.1-7.3c-0.7-1.5-2.8-5.6-3.5-7.1
												c-1.5-2.7-3.7-6.6-5.3-9.1c-6.5-10.4-14.3-20.1-22.7-29c-4.8-4.9-10.1-10-15.4-14.3C301.4,322.3,305.3,317.7,308.4,320.3
												L308.4,320.3z"/>
										</g>
									</g>
									<g>
										<g>
											<path class="st1" d="M274.5,331.2c5.1,0,10.1,2,14.7,4.2c1.6,0.9,3.4,1.9,5,2.9c0.9,0.7,3.7,2.6,4.7,3.3
												c15.1,11.5,26.6,27.7,35.7,44.1c0.6,1,2.3,4,2.8,5c0.6,1.3,3.5,7.2,4.2,8.5c0.5,1,2,4.2,2.5,5.1
												c0.2,0.6,6.2,14.7,6.6,15.8c0.9,2.2-2.4,3.6-3.3,1.4c-0.5-1.2-6.1-15.2-6.4-15.8c-0.5-1-1.9-4-2.4-5.1
												c-1.2-2.4-3.6-7.9-4.9-10.2c-2.7-5.2-6.1-11.4-9.3-16.3c-7.9-12.6-17.5-24.7-29.7-33.3c-4-2.9-8.5-5.3-13.1-7.1
												c-2.3-0.8-4.7-1.7-7.2-2c-0.2,0-0.3-0.2-0.3-0.3C274.2,331.3,274.3,331.2,274.5,331.2L274.5,331.2z"/>
										</g>
									</g>
									<g>
										<g>
											<path class="st31" d="M184.5,516.7c-9.2-0.1-15.7-3.8-15.7-3.8c3.8-2.8,7.5-5.4,11.3-8
												C180.1,504.8,181.6,510.1,184.5,516.7z"/>
										</g>
									</g>
									<g>
										<g>
											<path class="st1" d="M184.5,520.3C184.5,520.3,184.5,520.3,184.5,520.3c-10-0.1-17.1-4.1-17.4-4.3
												c-1.1-0.6-1.8-1.7-1.8-2.9c-0.1-1.2,0.5-2.4,1.5-3.1c3.9-2.8,7.7-5.6,11.4-8.1c1-0.7,2.2-0.8,3.3-0.4
												c1.1,0.4,1.9,1.3,2.3,2.4c0,0.1,1.4,5.1,4.2,11.3c0.5,1.1,0.4,2.4-0.3,3.5C186.9,519.7,185.8,520.3,184.5,520.3z
												 M176.4,511.9c0.8,0.2,1.6,0.4,2.5,0.6c-0.2-0.7-0.5-1.3-0.7-1.8C177.6,511,177,511.5,176.4,511.9z"/>
										</g>
									</g>
									<g>
										<g>
											<path class="st30" d="M480.2,456.2c0,0-6.6,7.7-37.2,9.6c1.8-13.4,2.1-21.2,2.1-21.2
												C467.5,449.9,480.2,456.2,480.2,456.2z"/>
										</g>
									</g>
									<g>
										<g>
											<path class="st1" d="M443,469.5c-1,0-2-0.4-2.6-1.1c-0.7-0.8-1.1-1.9-0.9-3c1.7-13,2.1-20.8,2.1-20.9
												c0-1.1,0.6-2.1,1.4-2.7c0.9-0.7,2-0.9,3-0.6c22.5,5.3,35.3,11.6,35.8,11.8c1,0.5,1.7,1.4,1.9,2.5
												c0.2,1.1-0.1,2.2-0.8,3.1c-0.8,0.9-8.5,8.9-39.7,10.9C443.2,469.5,443.1,469.5,443,469.5z M448.5,449.2
												c-0.2,2.9-0.6,7.2-1.3,12.7c12.8-1.2,20.5-3.4,25-5.2C467.1,454.7,459,451.9,448.5,449.2z"/>
										</g>
									</g>
									<g>
										<g>
											<path class="st1" d="M443,469.5L443,469.5c-2,0-3.6-1.6-3.6-3.6s1.6-3.6,3.6-3.6c2,0,3.6,1.6,3.6,3.6
												S445,469.5,443,469.5z"/>
										</g>
									</g>
								</g>
							</g>
							<g>
								<path class="st2" d="M282.9,618.7c0,0-13.9,44.5-39.8,60.9s-56.2,4.6-75.4-28.8s-24.6-66.3-39.8-87.5
									c-15.2-21.2-58-35.4-49-71.9c9-36.5,24.5-59.8,66.1-66.9s133.7,33.5,133.7,33.5L282.9,618.7z"/>
								<g class="st33">
									<g>
										<path class="st4" d="M169,438.5c-45.5,8.7-62.9,33.8-73.6,72.9c-1.7,6.2-2,11.7-1.2,16.7c-8.8-9.7-14.4-21.2-10.6-36.8
											c9-36.5,24.5-59.8,66.1-66.9s133.7,33.5,133.7,33.5l0,1.7C250.7,448.2,198.5,432.9,169,438.5z"/>
									</g>
								</g>
								<path class="st1" d="M218.8,692.5c-3.9,0-7.9-0.5-11.8-1.5c-17-4.2-32.7-17.5-44.2-37.4c-9.6-16.8-15.9-33.5-21.5-48.3
									c-5.8-15.3-10.7-28.6-18.1-38.8c-4.3-6-11.4-11.7-18.9-17.6c-8.8-7-17.9-14.3-24.3-23.4c-7.7-11-9.9-22.6-6.7-35.4
									c5.3-21.3,12.1-35.8,22.1-46.8c11.4-12.7,27.3-20.6,48.5-24.2c42.8-7.4,133.1,32.2,136.9,33.9l-4.5,10.2
									c-0.9-0.4-91.1-39.9-130.6-33.1c-18.9,3.3-32.3,9.8-42.1,20.7c-8.7,9.6-14.7,22.6-19.5,42.1c-5.3,21.6,10.4,34.1,27.1,47.4
									c8.1,6.5,15.8,12.6,21,19.9c8.2,11.4,13.7,26,19.4,41.4c5.4,14.4,11.5,30.6,20.7,46.6c9.9,17.3,23.2,28.7,37.2,32.2
									c10.3,2.6,20.8,0.7,30.4-5.3l0.5-0.3l0.5-0.2c4.8-1.9,16.2-9.3,24.8-23.9c14.6-24.6,17.1-61.1,7.3-105.3l10.9-2.4
									c5.8,26.3,7.6,50.1,5.1,70.6c-2,16.7-6.8,31.4-14.2,43.6c-11.7,19.2-26.3,26.3-29.4,27.6C237.1,689.9,228,692.5,218.8,692.5
									z"/>
							</g>
							<g>
								<g>
									<g>
										<path class="st6" d="M280.5,437.2l3,35.8l-21.9,1.8l0.5,5.5c0.7,8.2-5.4,15.4-13.6,16.1l-9.5,0.8
											c-8.2,0.7-15.4-5.4-16.1-13.6l-3.8-45.9c-0.7-8.2,5.4-15.4,13.6-16.1l9.5-0.8c8.2-0.7,15.4,5.4,16.1,13.6l0.4,4.6
											L280.5,437.2z"/>
									</g>
								</g>
								<g class="st28">
									<g>
										<g>
											<path class="st4" d="M265.9,440.9l0.4,4.6l14.8-1.2l-0.6-7.1l-15,1.2C265.7,439.3,265.9,440.1,265.9,440.9z"/>
										</g>
									</g>
									<g>
										<g>
											<path class="st4" d="M230.6,490.1l-3.8-45.9c-0.7-8.2,5.4-15.4,13.6-16.1l9.5-0.8c2.3-0.2,4.4,0.2,6.4,0.9
												c-2.8-4.9-8.2-7.9-14.1-7.4l-9.5,0.8c-8.2,0.7-14.3,7.9-13.6,16.1l3.8,45.9c0.5,5.9,4.4,10.8,9.7,12.7
												C231.5,494.4,230.8,492.3,230.6,490.1z"/>
										</g>
									</g>
								</g>
								<g class="st5">
									<g>
										<path class="st1" d="M270.5,438l0.7,7.9c0.8,9.1-6,17.1-15.1,17.8l0,0c-3,0.2-5.3,2.9-5,5.9v0c0.7,8.2-5.4,15.4-13.6,16.1
											l-9.5,0.8c-1.6,0.1-3.2,0-4.6-0.4c1.8,6.8,8.3,11.5,15.6,10.9l9.5-0.8c8.2-0.7,14.3-7.9,13.6-16.1l-0.5-5.5l21.9-1.8
											l-3-35.8L270.5,438z"/>
									</g>
								</g>
								<g>
									<g>
										<path class="st1" d="M248.8,501.3l-9.5,0.8c-10.9,0.9-20.6-7.3-21.5-18.2l-3.8-45.9c-0.9-10.9,7.3-20.6,18.2-21.5l9.5-0.8
											c10.8-0.9,20.4,7.1,21.4,17.8l16.9-1.4c2.8-0.2,5.2,1.8,5.4,4.6l3,35.8c0.2,2.8-1.8,5.2-4.6,5.4l-16.9,1.4l0,0.5
											C267.9,490.8,259.7,500.4,248.8,501.3z M233.1,426.6c-5.4,0.4-9.5,5.2-9,10.6l3.8,45.9c0.4,5.4,5.2,9.5,10.6,9l9.5-0.8
											c5.4-0.4,9.5-5.2,9-10.7l-0.5-5.5c-0.2-2.8,1.8-5.2,4.6-5.4l16.9-1.4l-2.1-25.8L259,444c-2.8,0.2-5.2-1.8-5.4-4.6
											l-0.4-4.6c-0.4-5.4-5.2-9.5-10.7-9L233.1,426.6z"/>
									</g>
								</g>
							</g>
						</g>
						<g>
							<g>
								<path class="st4" d="M401.2,514.2c-2.9,19.4-19.6,34.3-39.8,34.3c-20.2,0-37-14.9-39.8-34.3H401.2z"/>
								<path class="st1" d="M332.1,541.9c-8-7-13.3-16.6-14.9-27.1l-0.7-5h89.8l-0.7,5c-1.6,10.5-6.8,20.1-14.9,27.1
									c-8.1,7.1-18.5,10.9-29.3,10.9S340.2,548.9,332.1,541.9z M326.9,518.5c1.9,6.5,5.7,12.3,10.9,16.8
									c6.5,5.7,14.9,8.8,23.6,8.8c8.7,0,17-3.1,23.6-8.8c5.2-4.5,8.9-10.3,10.9-16.8H326.9z"/>
							</g>
							<circle class="st1" cx="361.8" cy="522.8" r="9.8"/>
						</g>
					</g>
					<g>
						<path class="st4" d="M297.2,643c0,0,49,94.7,156.4,34.9c0,0-93.2,5.5-112.6-54.7l-7.7-17.4C333.4,605.8,305.2,613.4,297.2,643
							z"/>
						<path class="st1" d="M386.3,701.7c-9.9,0-19.4-1.4-28.7-4.2c-42.9-12.9-63.1-51-63.9-52.7l-0.7-1.4l0.4-1.5
							c8.5-31.5,37.7-39.7,38.9-40l3.3-0.9l9.2,20.9c4.1,12.9,12.3,23.6,24.2,31.8c9.7,6.7,21.9,11.9,36.4,15.4
							c24.9,6,47.8,4.7,48,4.7l17.2-1l-15.1,8.4C431.3,694.9,408.1,701.7,386.3,701.7z M301.5,642.5c3.9,6.7,23.1,36.8,58.6,47.4
							c23.5,7.1,49.5,4.3,77.3-8.3c-9.1-0.5-21-1.7-33.6-4.7c-35-8.4-57.9-26.5-66.4-52.3l-6.1-13.9
							C324.2,613.5,307.7,622.1,301.5,642.5z"/>
					</g>
					<path class="st29" d="M430,683.5c-93.4,38.2-136.3-44.6-136.3-44.6c0.5-1.7,1-3.3,1.6-4.9C305.1,648.2,349.3,703.8,430,683.5z"
						/>
					<path class="st1" d="M292.3,659.9c-3-20.3,4.7-37.3,22.3-49.3c12.9-8.8,26.5-11.7,27-11.8l1.6,7.7l-0.8-3.9l0.8,3.9
						c-0.1,0-12.8,2.8-24.4,10.7c-15,10.3-21.3,24.3-18.7,41.5L292.3,659.9z"/>
					<path class="st29" d="M264.3,575.9c-6.8-47.2-45.7-80.6-86.7-74.7c-7.3,1.1-14.2,3.3-20.5,6.5c9.8-9.2,21.8-15.4,35.3-17.3
						c41-6,80.1,29.4,87.3,78.9c7.2,49.5-9.5,106.6-50.5,112.5c-2.7,0.4-5.3,0.6-8,0.6C257.8,672.5,270.7,620,264.3,575.9z"/>
				</g>
				<g>
					<path class="st1" d="M446.4,644c-1.2,0-2.4-0.7-3-1.8c-0.9-1.7-0.2-3.8,1.5-4.6c19.7-10.3,42.4-13.3,43.3-13.5
						c1.9-0.3,3.6,1.1,3.9,3c0.2,1.9-1.1,3.6-3,3.9c-0.2,0-22.5,3.1-41,12.7C447.5,643.9,447,644,446.4,644z"/>
				</g>
				<g>
					<path class="st1" d="M470.9,689.9c-1.4,0-2.7-0.8-3.2-2.2c-0.7-1.8,0.2-3.8,2-4.4c0.9-0.4,23.3-8.9,37-8
						c1.9,0.1,3.3,1.8,3.2,3.7c-0.1,1.9-1.8,3.3-3.7,3.2c-12.2-0.8-33.8,7.4-34.1,7.5C471.8,689.8,471.4,689.9,470.9,689.9z"/>
				</g>
				<g>
					<path class="st1" d="M455.3,666.7c-1.2,0-2.4-0.7-3-1.8c-0.9-1.7-0.3-3.8,1.4-4.6c1-0.5,25.1-13.3,44.1-11.6
						c1.9,0.2,3.3,1.8,3.1,3.7c-0.2,1.9-1.9,3.3-3.7,3.1c-16.9-1.6-40,10.6-40.2,10.8C456.4,666.6,455.8,666.7,455.3,666.7z"/>
				</g>
			</g>
		</g>
	</g>
	<g>
		<g>
			<circle class="st1" cx="687.3" cy="530.9" r="66.4"/>
			<path d="M687.3,597.8c-36.9,0-66.9-30-66.9-66.9s30-66.9,66.9-66.9s66.9,30,66.9,66.9S724.2,597.8,687.3,597.8L687.3,597.8z
				 M687.3,464.9c-36.4,0-66,29.6-66,66s29.6,66,66,66c36.4,0,66-29.6,66-66S723.7,464.9,687.3,464.9L687.3,464.9z"/>
		</g>
		<g class="st3">
			<path class="st4" d="M739.4,572.1c6.5-10.2,10.2-22.4,10.2-35.4c0-36.7-29.7-66.4-66.4-66.4c-21.1,0-39.9,9.8-52.1,25.2
				c11.8-18.6,32.6-31,56.2-31c36.7,0,66.4,29.7,66.4,66.4C753.8,546.4,748.4,560.8,739.4,572.1z"/>
		</g>
		<g>
			<circle class="st4" cx="687.3" cy="530.9" r="43.3"/>
			<path d="M687.3,574.6c-24.1,0-43.8-19.6-43.8-43.8c0-24.1,19.6-43.8,43.8-43.8c24.1,0,43.8,19.6,43.8,43.8
				C731.1,555,711.5,574.6,687.3,574.6z M687.3,488c-23.6,0-42.9,19.2-42.9,42.9c0,23.6,19.2,42.9,42.9,42.9
				c23.6,0,42.9-19.2,42.9-42.9C730.2,507.2,711,488,687.3,488z"/>
		</g>
		<g class="st3">
			<path class="st4" d="M727.2,547.9c0.8-3.3,1.2-6.8,1.2-10.3c0-23.9-19.4-43.3-43.3-43.3c-17.9,0-33.2,10.8-39.8,26.3
				c4.6-19,21.7-33,42.1-33c23.9,0,43.3,19.4,43.3,43.3C730.7,536.9,729.4,542.7,727.2,547.9z"/>
		</g>
		
			<ellipse transform="matrix(0.8112 -0.5847 0.5847 0.8112 -180.6584 502.0913)" class="st23" cx="687.3" cy="530.9" rx="29.7" ry="29.7"/>
		<g class="st5">
			<path d="M713.9,544.1c0.7-2.6,1.1-5.3,1.1-8.1c0-16.4-13.3-29.7-29.7-29.7c-11.7,0-21.7,6.7-26.6,16.5
				c3.5-12.5,15-21.7,28.6-21.7c16.4,0,29.7,13.3,29.7,29.7C717,535.6,715.9,540.1,713.9,544.1L713.9,544.1z"/>
		</g>
		
			<ellipse transform="matrix(0.1602 -0.9871 0.9871 0.1602 53.2295 1124.2749)" class="st1" cx="687.3" cy="530.9" rx="16" ry="16"/>
		<g class="st3">
			<path class="st4" d="M696.3,536.8c0.6-1.3,0.9-2.8,0.9-4.3c0-6.1-5-11.1-11.1-11.1c-3.5,0-6.7,1.7-8.7,4.2
				c1.7-4,5.6-6.8,10.3-6.8c6.1,0,11.1,5,11.1,11.1C698.7,532.5,697.8,534.9,696.3,536.8L696.3,536.8z"/>
			<path d="M695.2,538.6l0.8-1.9c0.6-1.3,0.9-2.8,0.9-4.2c0-6-4.9-10.9-10.9-10.9c-3.4,0-6.5,1.5-8.5,4.1l-1.3,1.6l0.8-1.9
				c1.8-4.2,5.9-7,10.5-7c6.3,0,11.4,5.1,11.4,11.4c0,2.6-0.8,5-2.5,7.1L695.2,538.6L695.2,538.6z M686,521.1
				c6.3,0,11.4,5.1,11.4,11.4c0,0.8-0.1,1.7-0.3,2.5c0.8-1.5,1.2-3.2,1.2-5c0-6-4.9-10.9-10.9-10.9c-3.7,0-7,1.8-9,4.8
				C680.6,522.1,683.2,521.1,686,521.1z"/>
		</g>
		<path class="st1" d="M687.3,600.3c-38.3,0-69.4-31.2-69.4-69.4s31.2-69.4,69.4-69.4s69.4,31.2,69.4,69.4S725.6,600.3,687.3,600.3z
			 M687.3,467.4c-35,0-63.4,28.5-63.4,63.4c0,35,28.5,63.4,63.4,63.4s63.4-28.5,63.4-63.4C750.8,495.9,722.3,467.4,687.3,467.4
			L687.3,467.4z"/>
		<path class="st1" d="M687.3,577.2c-25.5,0-46.3-20.8-46.3-46.3c0-25.5,20.8-46.3,46.3-46.3s46.3,20.8,46.3,46.3
			C733.6,556.4,712.9,577.2,687.3,577.2z M687.3,490.5c-22.2,0-40.3,18.1-40.3,40.3c0,22.2,18.1,40.3,40.3,40.3
			c22.2,0,40.3-18.1,40.3-40.3C727.6,508.6,709.6,490.5,687.3,490.5z"/>
	</g>
</g>
</svg>
