<?xml version="1.0" encoding="utf-8"?>
<!-- Generator: Adobe Illustrator 28.0.0, SVG Export Plug-In . SVG Version: 6.00 Build 0)  -->
<svg version="1.1" id="a" xmlns="http://www.w3.org/2000/svg" xmlns:xlink="http://www.w3.org/1999/xlink" x="0px" y="0px"
	 viewBox="0 0 1317.2 1229.3" style="enable-background:new 0 0 1317.2 1229.3;" xml:space="preserve">
<style type="text/css">
	.st0{fill:#B3D133;}
	.st1{fill:#819314;}
	.st2{fill:#6530AA;}
	.st3{fill:#390075;}
	.st4{fill:#FFFFFF;}
	.st5{fill:#E0E0E0;}
</style>
<g id="Page-1">
	<g id="_x30_14---Zip">
		<g id="Icons" transform="translate(1 1)">
			<path id="Shape" class="st0" d="M1182.9,445.9v520c0,59.4-48.2,107.6-107.6,107.6H250.4c-59.4,0-107.6-48.2-107.6-107.6V338.3
				h932.5C1134.8,338.3,1182.9,386.4,1182.9,445.9z"/>
			<path id="Shape_00000047738801574665826720000013743224633619483057_" class="st1" d="M1075.3,338.3h-53.8
				c59.4,0,107.6,48.2,107.6,107.6v520c0,59.4-48.2,107.6-107.6,107.6h53.8c59.4,0,107.6-48.2,107.6-107.6v-520
				C1182.9,386.4,1134.8,338.3,1075.3,338.3z"/>
			<path id="Shape_00000158016258603928699770000008422897822652773779_" class="st2" d="M1075.3,284.5v53.8H142.8V176.9
				c0-39.6,32.1-71.7,71.7-71.7H609c39.6,0,71.7,32.1,71.7,71.7v35.9h322.8C1043.2,212.7,1075.3,244.9,1075.3,284.5z"/>
			<path id="Shape_00000047779715707000918530000000701721149587149952_" class="st3" d="M627,176.9v35.9h53.8v-35.9
				c0-39.6-32.1-71.7-71.7-71.7h-53.8C594.9,105.1,627,137.3,627,176.9z"/>
			<path id="Shape_00000062905841007487469790000012698532177338989714_" class="st3" d="M1003.6,212.7h-53.8
				c39.6,0,71.7,32.1,71.7,71.7v53.8h53.8v-53.8C1075.3,244.9,1043.2,212.7,1003.6,212.7z"/>
			<path id="Rectangle-path" class="st4" d="M609.1,822.5h107.6c9.9,0,17.9,8,17.9,17.9v71.7c0,9.9-8,17.9-17.9,17.9H609.1
				c-9.9,0-17.9-8-17.9-17.9v-71.7C591.2,830.5,599.2,822.5,609.1,822.5z"/>
			<path id="Shape_00000083063736773700735560000001937428080782599318_" class="st5" d="M716.7,822.5h-53.8c9.9,0,17.9,8,17.9,17.9
				v71.7c0,9.9-8,17.9-17.9,17.9h53.8c9.9,0,17.9-8,17.9-17.9v-71.7C734.6,830.5,726.6,822.5,716.7,822.5z"/>
			<path id="Shape_00000062165488616504487460000011478230878952645507_" class="st4" d="M716.7,930.1l69,165.5
				c4.6,11.1,3.4,23.7-3.3,33.7s-17.8,16-29.8,16H573.2c-12,0-23.2-6-29.8-16c-6.7-10-7.9-22.6-3.3-33.7l69-165.5H716.7z"/>
			<path id="Shape_00000025437966211689081310000003498209702712602283_" class="st5" d="M785.7,1095.6l-69-165.5h-53.8l69,165.5
				c4.6,11.1,3.4,23.7-3.3,33.7s-17.8,16-29.8,16h53.8c12,0,23.2-6,29.8-16C789,1119.3,790.3,1106.7,785.7,1095.6L785.7,1095.6z"/>
		</g>
		<g id="Layer_2">
			<path id="Shape_00000121268289780450825670000002254033045027526067_" d="M1094.3,322.8v-37.3c-0.1-49.5-40.2-89.6-89.7-89.7
				H699.7v-17.9c-0.1-49.5-40.2-89.6-89.7-89.7H215.6c-49.5,0.1-89.6,40.2-89.7,89.7v789c0.1,69.3,56.2,125.5,125.5,125.5h272.4
				c-6,16.4-3.5,34.7,6.5,49s26.4,22.8,43.9,22.7h179.3c17.5,0.1,33.9-8.4,43.9-22.7c10-14.3,12.5-32.6,6.5-49h272.4
				c69.3-0.1,125.5-56.2,125.5-125.5v-520C1201.8,384.5,1156,331.7,1094.3,322.8L1094.3,322.8z M161.8,966.9v-789
				c0-29.7,24.1-53.8,53.8-53.8h394.5c29.7,0,53.8,24.1,53.8,53.8v35.9c0,9.9,8,17.9,17.9,17.9h322.8c29.7,0,53.8,24.1,53.8,53.8
				v35.9H556.3c-9.9,0-17.9,8-17.9,17.9s8,17.9,17.9,17.9H646v448.3h-35.9c-19.8,0-35.9,16.1-35.9,35.9v71.7
				c0,10.4,4.6,20.3,12.6,27.1l-48.4,116.4h-287C201.9,1056.5,161.8,1016.4,161.8,966.9z M610.1,913.1v-71.7h107.6v71.7H610.1z
				 M768.5,1120.3c-3.3,5-8.9,8-14.9,8H574.2c-6,0-11.6-3-14.9-8c-3.3-5-3.9-11.3-1.6-16.8L622,949h83.7l64.4,154.5
				C772.5,1109,771.8,1115.4,768.5,1120.3z M1166,966.9c-0.1,49.5-40.2,89.6-89.7,89.7H789.4L741,940.2c7.9-6.8,12.5-16.7,12.6-27.1
				v-71.7c0-19.8-16.1-35.9-35.9-35.9h-35.9V357.2h394.5c49.5,0.1,89.6,40.2,89.7,89.7L1166,966.9L1166,966.9z"/>
			<path id="Shape_00000080885683219985677750000005140432039509176241_" d="M466.6,321.3h-71.7c-9.9,0-17.9,8-17.9,17.9
				s8,17.9,17.9,17.9h71.7c9.9,0,17.9-8,17.9-17.9S476.5,321.3,466.6,321.3z"/>
			<path id="Shape_00000093176086008986883870000010082489884717638570_" d="M592.2,428.9h17.9c9.9,0,17.9-8,17.9-17.9
				s-8-17.9-17.9-17.9h-17.9c-9.9,0-17.9,8-17.9,17.9S582.2,428.9,592.2,428.9z"/>
			<path id="Shape_00000116211914519674682510000017731738181676213674_" d="M592.2,500.7h17.9c9.9,0,17.9-8,17.9-17.9
				s-8-17.9-17.9-17.9h-17.9c-9.9,0-17.9,8-17.9,17.9S582.2,500.7,592.2,500.7z"/>
			<path id="Shape_00000125602159215067186750000012544875504497488807_" d="M592.2,572.4h17.9c9.9,0,17.9-8,17.9-17.9
				s-8-17.9-17.9-17.9h-17.9c-9.9,0-17.9,8-17.9,17.9C574.2,564.4,582.2,572.4,592.2,572.4z"/>
			<path id="Shape_00000170262882356016238130000017354424519491185037_" d="M592.2,644.1h17.9c9.9,0,17.9-8,17.9-17.9
				s-8-17.9-17.9-17.9h-17.9c-9.9,0-17.9,8-17.9,17.9C574.2,636.1,582.2,644.1,592.2,644.1z"/>
			<path id="Shape_00000173160695560558226810000011073913907756564897_" d="M592.2,715.9h17.9c9.9,0,17.9-8,17.9-17.9
				s-8-17.9-17.9-17.9h-17.9c-9.9,0-17.9,8-17.9,17.9C574.2,707.8,582.2,715.9,592.2,715.9z"/>
			<path id="Shape_00000024707803769709503920000012919007743913779903_" d="M592.2,787.6h17.9c9.9,0,17.9-8,17.9-17.9
				s-8-17.9-17.9-17.9h-17.9c-9.9,0-17.9,8-17.9,17.9S582.2,787.6,592.2,787.6z"/>
			<path id="Shape_00000161609293337377520370000006578687217765753021_" d="M735.6,428.9h-17.9c-9.9,0-17.9,8-17.9,17.9
				s8,17.9,17.9,17.9h17.9c9.9,0,17.9-8,17.9-17.9S745.5,428.9,735.6,428.9z"/>
			<path id="Shape_00000178169513766433304380000004569818140372319625_" d="M735.6,500.7h-17.9c-9.9,0-17.9,8-17.9,17.9
				s8,17.9,17.9,17.9h17.9c9.9,0,17.9-8,17.9-17.9S745.5,500.7,735.6,500.7z"/>
			<path id="Shape_00000054266028281220784680000000062635978046219436_" d="M735.6,572.4h-17.9c-9.9,0-17.9,8-17.9,17.9
				s8,17.9,17.9,17.9h17.9c9.9,0,17.9-8,17.9-17.9S745.5,572.4,735.6,572.4z"/>
			<path id="Shape_00000039823256559151455090000007509057596384695958_" d="M735.6,644.1h-17.9c-9.9,0-17.9,8-17.9,17.9
				s8,17.9,17.9,17.9h17.9c9.9,0,17.9-8,17.9-17.9C753.5,652.2,745.5,644.1,735.6,644.1z"/>
			<path id="Shape_00000171682337403798977490000006318208873009942164_" d="M735.6,715.9h-17.9c-9.9,0-17.9,8-17.9,17.9
				s8,17.9,17.9,17.9h17.9c9.9,0,17.9-8,17.9-17.9S745.5,715.9,735.6,715.9z"/>
			<path id="Shape_00000039109561959424759400000012732767877350599057_" d="M681.8,1056.6H646c-9.9,0-17.9,8-17.9,17.9
				s8,17.9,17.9,17.9h35.9c9.9,0,17.9-8,17.9-17.9C699.7,1064.6,691.7,1056.6,681.8,1056.6z"/>
		</g>
	</g>
</g>
</svg>
