<?xml version="1.0" encoding="utf-8"?>
<!-- Generator: Adobe Illustrator 28.0.0, SVG Export Plug-In . SVG Version: 6.00 Build 0)  -->
<svg version="1.1" id="Calque_1" xmlns="http://www.w3.org/2000/svg" xmlns:xlink="http://www.w3.org/1999/xlink" x="0px" y="0px"
	 viewBox="0 0 56.7 59.8" style="enable-background:new 0 0 56.7 59.8;" xml:space="preserve">
<style type="text/css">
	.st0{fill:#FFFFFF;}
	.st1{opacity:0.19;}
	.st2{fill:#390075;}
	.st3{fill:#B3D133;}
	.st4{fill-opacity:0.19;}
	.st5{fill:#FFFFFF;fill-opacity:0.6;}
	.st6{fill:#C3B2D3;}
	.st7{opacity:0.7;}
	.st8{opacity:0.3;}
</style>
<g>
	<g>
		<g>
			<path class="st0" d="M44.9,26.7c0,0-7,0-7,0C33.1,32,43.2,41,43.2,41S39.9,30.4,44.9,26.7z"/>
			<g class="st1">
				<g>
					<path d="M38.1,26.7c0,0,0.1,0,0.2,0c-1.6,3.7,2.2,8.6,4.5,11.2c0.3,1.8,0.7,3.1,0.7,3.1S33.4,31.9,38.1,26.7z"/>
				</g>
			</g>
			<path class="st2" d="M45,43.7l-2.3-2.1c-0.3-0.2-6.6-6-6.9-11.3c-0.1-1.6,0.4-3,1.5-4.2c0.3-0.3,0.5-0.3,0.9-0.3
				c0.2,0,0.5,0,0.8,0c0.6,0,1.4,0,2.4,0c1.8,0,3.5,0,3.5,0l2.6,0l-2.1,1.5c-2.3,1.7-2.5,5.1-2.3,7.7c0.2,3,1,5.6,1,5.6L45,43.7z
				 M38.2,27.6c-0.6,0.8-0.8,1.7-0.8,2.7c0.1,1.8,1.2,4.2,3.2,6.7c0.3,0.4,0.7,0.9,1,1.2c-0.5-3-0.9-7.6,1.2-10.6
				C41,27.6,39,27.6,38.2,27.6z"/>
		</g>
		<g>
			<path class="st0" d="M12.2,26.7c0,0,7,0,7,0C23.9,32,13.8,41,13.8,41S17.1,30.4,12.2,26.7z"/>
			<g class="st1">
				<g>
					<path d="M18.9,26.7c0,0-0.1,0-0.2,0c1.6,3.7-2.2,8.6-4.5,11.2c-0.3,1.8-0.7,3.1-0.7,3.1S23.6,31.9,18.9,26.7z"/>
				</g>
			</g>
			<path class="st2" d="M12.1,43.7l0.9-3c0,0,0.8-2.6,1-5.6c0.2-2.6-0.1-6.1-2.3-7.7l-2.1-1.5l2.6,0c0,0,1.8,0,3.5,0
				c1,0,1.8,0,2.4,0c0.3,0,0.6,0,0.8,0c0.4,0,0.7,0,0.9,0.3c1.1,1.2,1.5,2.6,1.5,4.2c-0.3,5.3-6.7,11-6.9,11.3L12.1,43.7z
				 M14.2,27.6c2.1,3,1.7,7.6,1.2,10.6c0.3-0.4,0.7-0.8,1-1.2c2-2.5,3.1-4.8,3.2-6.7c0.1-1-0.2-1.9-0.8-2.7
				C18,27.6,16,27.6,14.2,27.6z"/>
		</g>
		<g>
			<path class="st3" d="M43.1,4.2c0,0,3.9-3.3,7.2-3.3s5.5,2.8,5.3,7s-1.6,7.6-1.4,10.4c0.2,2.8,3.3,6.7,0.3,9.5
				c-3,2.8-5.7,4.1-10,2.3s-11.7-5.5-11.7-5.5L43.1,4.2z"/>
			<path class="st4" d="M46.6,30.9c-1.7-0.9-5.2-1.9-7.1-3.1c0.3-1.2,0.5-2.3,1.1-3.4c3.7-6.2,6.4,4.4,11.1,1.6
				c2.2-1.3,0.4-15.7,1.4-20.2c0.5-2.2,1.4-2.2,2.1-1.7c0.4,1.1,0.5,2.4,0.5,3.9c-0.1,4.3-1.3,7.8-1.2,10.7s2.7,6.8,0.3,9.8
				C52.4,31.4,50.1,32.7,46.6,30.9z"/>
			<path class="st5" d="M49.8,3c-2.4,0-4.4,1.5-4.9,3.5c-0.1-0.4-0.2-0.8-0.2-1.2c0-2.6,2.3-4.6,5.1-4.6c2.8,0,5.1,2.1,5.1,4.6
				c0,0.4-0.1,0.8-0.2,1.2C54.2,4.5,52.2,3,49.8,3z"/>
			<path class="st2" d="M48.2,31.8c-1.2,0-2.6-0.3-4-0.9c-4.2-1.8-11.6-5.5-11.7-5.5L31.8,25L42.5,3.6l0.1-0.1
				C42.8,3.4,46.7,0,50.4,0c1.6,0,3.1,0.6,4.2,1.7c1.4,1.4,2.1,3.6,2,6.2c-0.1,2.1-0.5,4.1-0.8,5.7c-0.4,1.7-0.7,3.2-0.6,4.6
				c0,0.8,0.4,1.7,0.7,2.7c0.8,2.3,1.8,5.2-0.6,7.5c-1.8,1.7-3.3,2.6-4.9,3.1C49.6,31.7,48.9,31.8,48.2,31.8z M34.1,24.2
				c2,1,7.4,3.7,10.8,5.1c4,1.6,6.4,0.4,9.1-2.2c0.7-0.7,1-1.5,1-2.5c0-1-0.4-2.1-0.8-3.2c-0.4-1.1-0.7-2.1-0.8-3.1
				c-0.1-1.6,0.3-3.2,0.6-5c0.4-1.7,0.7-3.5,0.8-5.5c0.1-2.1-0.4-3.9-1.5-5c-0.8-0.8-1.8-1.2-2.9-1.2c-1.2,0-2.7,0.5-4.4,1.5
				c-1,0.6-1.8,1.2-2.1,1.5L34.1,24.2z"/>
		</g>
		<g>
			<path class="st3" d="M13.6,4.8c0,0-3.9-3.3-7.2-3.3S0.9,4.4,1,8.6S2.6,16.1,2.5,19c-0.2,2.8-3.3,6.7-0.3,9.5s5.7,4.1,10,2.3
				c4.3-1.8,11.7-5.5,11.7-5.5L13.6,4.8z"/>
			<path class="st4" d="M10.1,31.6c1.7-0.9,5.2-1.9,7.1-3.1c-0.3-1.2-0.5-2.3-1.1-3.4c-3.7-6.2-6.4,4.4-11.1,1.6
				C2.8,25.4,4.6,11,3.6,6.5C3.1,4.3,2.2,4.2,1.5,4.8C1.1,5.9,1,7.2,1,8.7c0.1,4.3,1.3,7.8,1.2,10.7c-0.1,2.9-2.7,6.8-0.3,9.8
				S6.6,33.4,10.1,31.6z"/>
			<path class="st5" d="M6.9,3.7c2.4,0,4.4,1.5,4.9,3.5C11.9,6.8,12,6.4,12,6c0-2.6-2.3-4.6-5.1-4.6S1.8,3.4,1.8,6
				c0,0.4,0.1,0.8,0.2,1.2C2.5,5.2,4.5,3.7,6.9,3.7z"/>
			<path class="st2" d="M8.5,32.5c-0.7,0-1.4-0.1-2.1-0.3c-1.6-0.5-3.1-1.4-4.9-3.1c-2.4-2.3-1.4-5.2-0.6-7.5c0.3-1,0.7-1.9,0.7-2.7
				c0.1-1.3-0.2-2.8-0.6-4.6c-0.4-1.7-0.7-3.6-0.8-5.7C0.1,6,0.8,3.8,2.2,2.4c1.1-1.1,2.5-1.7,4.2-1.7c3.6,0,7.6,3.4,7.8,3.5
				l0.1,0.1l10.7,21.4l-0.8,0.4c-0.1,0-7.5,3.8-11.7,5.5C11,32.2,9.7,32.5,8.5,32.5z M6.3,2.4c-1.2,0-2.2,0.4-2.9,1.2
				c-1,1.1-1.6,2.9-1.5,5c0.1,2,0.4,3.8,0.8,5.5c0.4,1.8,0.7,3.5,0.6,5c-0.1,1-0.4,2-0.8,3.1c-0.4,1.1-0.8,2.2-0.8,3.2
				c0,1,0.3,1.8,1,2.5c3.6,3.4,6.1,3.4,9.1,2.2c3.4-1.4,8.8-4.1,10.8-5.1L12.9,5.4c-0.3-0.2-1.1-0.9-2.1-1.5
				C9.1,2.9,7.5,2.4,6.3,2.4z"/>
		</g>
		<path class="st3" d="M36.3,57.9c-14-9.3-16.8-27.5-16.8-27.5C7.4,17.7,11.1,8.7,18.9,4.4h21.7c5.5,3.8,7.1,11.6-2,24
			c-8.4,12.9,1.1,24.2,1.1,24.2L35,51.9L36.3,57.9z"/>
		<path class="st4" d="M23.9,4.4c-10,3.3-13.7,9.6,0.1,24c0,0-1.2,16,10.1,23.5c0.5,0.5,1.2,4.3,1.2,4.3
			C19,47.4,20.3,30.1,20.3,30.1C5,14.1,12.2,6.4,23.9,4.4z"/>
		<g>
			<g>
				<g>
					<path class="st6" d="M44.9,12.5v3.9h2.4V17c0,0.9,0.7,1.6,1.6,1.6h1c0.9,0,1.6-0.7,1.6-1.6v-5c0-0.9-0.7-1.6-1.6-1.6h-1
						c-0.9,0-1.6,0.7-1.6,1.6v0.5H44.9z"/>
				</g>
			</g>
			<g class="st7">
				<g>
					<g>
						<path class="st0" d="M46.5,12.8v0.5h-1.6v-0.8h1.6C46.6,12.6,46.5,12.7,46.5,12.8z"/>
					</g>
				</g>
				<g>
					<g>
						<path class="st0" d="M50.8,17.8v-5c0-0.9-0.7-1.6-1.6-1.6h-1c-0.2,0-0.5,0.1-0.7,0.2c0.3-0.6,0.8-0.9,1.5-0.9h1
							c0.9,0,1.6,0.7,1.6,1.6v5c0,0.7-0.4,1.2-0.9,1.5C50.8,18.3,50.8,18,50.8,17.8z"/>
					</g>
				</g>
			</g>
			<g class="st8">
				<g>
					<path class="st2" d="M46,12.5v0.9c0,1,0.8,1.8,1.8,1.8l0,0c0.3,0,0.6,0.3,0.6,0.6v0c0,0.9,0.7,1.6,1.6,1.6h1
						c0.2,0,0.3,0,0.5-0.1c-0.1,0.8-0.8,1.3-1.6,1.3h-1c-0.9,0-1.6-0.7-1.6-1.6v-0.6h-2.4v-3.9H46z"/>
				</g>
			</g>
			<g>
				<g>
					<path class="st2" d="M46.8,17L46.8,17L44.9,17c-0.3,0-0.5-0.2-0.5-0.5v-3.9c0-0.3,0.2-0.5,0.5-0.5h1.9c0-1.2,1-2.1,2.2-2.1h1
						c1.2,0,2.2,1,2.2,2.2v5c0,1.2-1,2.2-2.2,2.2h-1C47.8,19.2,46.8,18.2,46.8,17z M49,10.9c-0.6,0-1.1,0.5-1.1,1.1v0.5
						c0,0.3-0.2,0.5-0.5,0.5h-1.9v2.8h1.9c0.3,0,0.5,0.2,0.5,0.5V17c0,0.6,0.5,1.1,1.1,1.1h1c0.6,0,1.1-0.5,1.1-1.1v-5
						c0-0.6-0.5-1.1-1.1-1.1H49z"/>
				</g>
			</g>
		</g>
		<g>
			<g>
				<g>
					<path class="st2" d="M11.7,15H45c0.2,0,0.4-0.2,0.4-0.4c0-0.2-0.2-0.4-0.4-0.4H11.7c-0.2,0-0.4,0.2-0.4,0.4
						C11.3,14.8,11.5,15,11.7,15z"/>
				</g>
			</g>
			<g>
				<g>
					<path class="st2" d="M41.9,16.6c0.3,0,0.6-0.3,0.6-0.6v-2.8c0-0.3-0.3-0.6-0.6-0.6c-0.3,0-0.6,0.3-0.6,0.6V16
						C41.3,16.3,41.5,16.6,41.9,16.6z"/>
				</g>
			</g>
			<g>
				<g>
					<path class="st2" d="M36.8,16.6c0.3,0,0.6-0.3,0.6-0.6v-2.8c0-0.3-0.3-0.6-0.6-0.6c-0.3,0-0.6,0.3-0.6,0.6V16
						C36.2,16.3,36.5,16.6,36.8,16.6z"/>
				</g>
			</g>
			<g>
				<g>
					<path class="st2" d="M31.8,16.6c0.3,0,0.6-0.3,0.6-0.6v-2.8c0-0.3-0.3-0.6-0.6-0.6c-0.3,0-0.6,0.3-0.6,0.6V16
						C31.2,16.3,31.4,16.6,31.8,16.6z"/>
				</g>
			</g>
			<g>
				<g>
					<path class="st2" d="M14.9,16.6c0.3,0,0.6-0.3,0.6-0.6v-2.8c0-0.3-0.3-0.6-0.6-0.6c-0.3,0-0.6,0.3-0.6,0.6V16
						C14.3,16.3,14.6,16.6,14.9,16.6z"/>
				</g>
			</g>
			<g>
				<g>
					<path class="st2" d="M19.9,16.6c0.3,0,0.6-0.3,0.6-0.6v-2.8c0-0.3-0.3-0.6-0.6-0.6c-0.3,0-0.6,0.3-0.6,0.6V16
						C19.3,16.3,19.6,16.6,19.9,16.6z"/>
				</g>
			</g>
			<g>
				<g>
					<path class="st2" d="M25,16.6c0.3,0,0.6-0.3,0.6-0.6v-2.8c0-0.3-0.3-0.6-0.6-0.6c-0.3,0-0.6,0.3-0.6,0.6V16
						C24.4,16.3,24.6,16.6,25,16.6z"/>
				</g>
			</g>
		</g>
		<g>
			<g>
				<g>
					<path class="st6" d="M11.8,13v3.9H9.4v0.6c0,0.9-0.7,1.6-1.6,1.6h-1c-0.9,0-1.6-0.7-1.6-1.6v-5c0-0.9,0.7-1.6,1.6-1.6h1
						c0.9,0,1.6,0.7,1.6,1.6V13H11.8z"/>
				</g>
			</g>
			<g class="st7">
				<g>
					<g>
						<path class="st0" d="M10.2,13.3v0.5h1.6V13h-1.6C10.2,13.1,10.2,13.2,10.2,13.3z"/>
					</g>
				</g>
				<g>
					<g>
						<path class="st0" d="M5.9,18.3v-5c0-0.9,0.7-1.6,1.6-1.6h1c0.2,0,0.5,0.1,0.7,0.2c-0.3-0.6-0.8-0.9-1.5-0.9h-1
							c-0.9,0-1.6,0.7-1.6,1.6v5c0,0.7,0.4,1.2,0.9,1.5C6,18.8,5.9,18.6,5.9,18.3z"/>
					</g>
				</g>
			</g>
			<g class="st8">
				<g>
					<path class="st2" d="M10.7,13v0.9c0,1-0.8,1.8-1.8,1.8l0,0c-0.3,0-0.6,0.3-0.6,0.6v0c0,0.9-0.7,1.6-1.6,1.6h-1
						c-0.2,0-0.3,0-0.5-0.1c0.1,0.8,0.8,1.3,1.6,1.3h1c0.9,0,1.6-0.7,1.6-1.6v-0.6h2.4V13H10.7z"/>
				</g>
			</g>
			<g>
				<g>
					<path class="st2" d="M7.8,19.7h-1c-1.2,0-2.2-1-2.2-2.2v-5c0-1.2,1-2.2,2.2-2.2h1c1.2,0,2.2,1,2.2,2.1h1.9
						c0.3,0,0.5,0.2,0.5,0.5v3.9c0,0.3-0.2,0.5-0.5,0.5H10v0.1C10,18.7,9,19.7,7.8,19.7z M6.8,11.4c-0.6,0-1.1,0.5-1.1,1.1v5
						c0,0.6,0.5,1.1,1.1,1.1h1c0.6,0,1.1-0.5,1.1-1.1v-0.6c0-0.3,0.2-0.5,0.5-0.5h1.9v-2.8H9.4c-0.3,0-0.5-0.2-0.5-0.5v-0.5
						c0-0.6-0.5-1.1-1.1-1.1H6.8z"/>
				</g>
			</g>
		</g>
		<path class="st2" d="M28.2,35c-2.2,0.4-3.9,1.7-4,3.2C24,38,24,37.9,24,37.7c-0.3-1.7,1.5-3.4,4-3.8c2.5-0.4,4.7,0.6,5,2.3
			c0,0.2,0,0.4,0,0.6C32.4,35.4,30.4,34.6,28.2,35z"/>
		<path class="st2" d="M28.8,38.3c-1.7,0.3-3,1.4-3.1,2.6c-0.7-1.4,0.8-3.2,3-3.5c2.2-0.4,4.1,0.9,3.9,2.4
			C32.1,38.7,30.6,38.1,28.8,38.3z"/>
		<path class="st2" d="M30,41.9c-1.3,0.2-2.3,1.1-2.4,2c-0.5-1.1,0.6-2.4,2.3-2.7c1.7-0.3,3.2,0.6,3,1.8
			C32.5,42.2,31.3,41.7,30,41.9z"/>
		<g>
			<path class="st2" d="M17,12.2l-1.9-5c1.2-1.1,2.6-2.1,4.1-2.8H20h1.2H24h1.2h2h1.9h2.1h1.5H35h1.5h2.1h1c2.2,1.3,3.8,3.2,4.6,5.7
				l-0.8,2.2l-2-5.1l-2,5.1l-1.9-5.1l-1.9,5.1l-1.8-4.7l-1.8,4.7l-1.9-5.1l-1.9,5.1l-2-5.2l-2,5.2L22.6,8L21,12.2l-2-5.1L17,12.2z"
				/>
			<path class="st2" d="M15.1,7.3l-1.9,4.9l-0.6-1.6C13.2,9.4,14,8.2,15.1,7.3z"/>
		</g>
		<path class="st2" d="M37.6,59.8l-1.8-1.2c-3.3-2.2-6.2-5-8.7-8.4c-2-2.7-3.8-5.8-5.2-9.2c-1.3-3-2.1-5.7-2.6-7.4
			c-0.3-1-0.4-1.8-0.5-2.2c-0.1-0.2-0.1-0.4-0.1-0.6c-3-3.2-5.2-6.3-6.5-9.3c-1.2-2.8-1.6-5.5-1.2-8.1c0.3-2.1,1.2-4,2.6-5.7
			c1.3-1.6,2.9-2.9,4.9-4l0.2-0.1h22.2l0.2,0.2c2.6,1.8,4.2,4.3,4.7,7.2c0.4,2.4,0.1,5-0.9,7.9c-1.1,3.1-2.9,6.5-5.6,10.1
			c-1.8,2.8-2.9,5.8-3.2,8.8c-0.2,2.4,0,4.9,0.7,7.4c1.3,4.2,3.5,6.9,3.5,7l1.4,1.7l-5.7-0.8L37.6,59.8z M20.4,30.4
			c0.2,0.9,1,5,3.1,10c1.4,3.2,3.1,6.2,5,8.8c1.9,2.6,4.1,4.8,6.5,6.7l-1.1-5l3.9,0.6c-0.8-1.3-1.9-3.3-2.7-5.9
			c-0.8-2.7-1.1-5.4-0.8-8c0.3-3.3,1.5-6.5,3.5-9.6l0,0c2.5-3.5,4.3-6.7,5.3-9.6c0.9-2.6,1.2-5,0.8-7.1c-0.4-2.4-1.7-4.4-3.8-5.9
			H19.1c-1.7,1-3.2,2.1-4.2,3.5c-1.2,1.5-1.9,3.1-2.2,4.9c-0.3,2.2,0,4.6,1.1,7.1c1.2,2.9,3.4,5.9,6.3,9l0.3,0.4L20.4,30.4z"/>
	</g>
	<g>
		<g>
			<path class="st0" d="M29.8,20c0.3,2.1,2.1,3.7,4.4,3.7c2.2,0,4-1.6,4.4-3.7L29.8,20z"/>
			<path class="st2" d="M34.1,24.2c-1.2,0-2.3-0.4-3.2-1.2c-0.9-0.8-1.5-1.8-1.6-3l-0.1-0.5l9.8,0l-0.1,0.5c-0.2,1.1-0.7,2.2-1.6,3
				C36.4,23.8,35.3,24.2,34.1,24.2z M30.4,20.5c0.2,0.7,0.6,1.3,1.2,1.8c0.7,0.6,1.6,1,2.6,1c0.9,0,1.9-0.3,2.6-1
				c0.6-0.5,1-1.1,1.2-1.8L30.4,20.5z"/>
		</g>
		<circle class="st2" cx="34.1" cy="20.9" r="1.1"/>
	</g>
	<g>
		<g>
			<path class="st0" d="M18.9,20.1c0.3,2.1,2.1,3.7,4.4,3.7c2.2,0,4-1.6,4.4-3.7L18.9,20.1z"/>
			<path class="st2" d="M23.3,24.3c-1.2,0-2.3-0.4-3.2-1.2c-0.9-0.8-1.5-1.8-1.6-3l-0.1-0.5l9.8,0l-0.1,0.5c-0.2,1.1-0.7,2.2-1.6,3
				C25.6,23.9,24.4,24.3,23.3,24.3z M19.5,20.6c0.2,0.7,0.6,1.3,1.2,1.8c0.7,0.6,1.6,1,2.6,1s1.9-0.3,2.6-1c0.6-0.5,1-1.1,1.2-1.8
				H19.5z"/>
		</g>
		<circle class="st2" cx="23.2" cy="21.1" r="1.1"/>
	</g>
</g>
</svg>
