<?xml version="1.0" encoding="UTF-8"?><svg id="a" xmlns="http://www.w3.org/2000/svg" viewBox="0 0 2269.13 1592.25"><defs><style>.b{fill:#fff;}.c{fill:#b3d133;}.d{fill:#390075;}.e{opacity:.3;}.f{opacity:.55;}</style></defs><polygon class="d" points="1892.69 302.57 1121.19 585.36 400.75 302.57 1121.19 19.78 1892.69 302.57"/><g class="e"><polygon points="1892.69 302.57 1121.19 585.36 1121.19 19.78 1892.69 302.57"/></g><path d="M1121.19,605.14c-2.45,0-4.9-.46-7.23-1.37L393.53,320.98c-7.57-2.97-12.55-10.28-12.55-18.41s4.98-15.44,12.55-18.41L1113.97,1.36c4.51-1.76,9.49-1.82,14.03-.16l771.5,282.79c7.79,2.86,12.97,10.27,12.97,18.57s-5.18,15.71-12.97,18.57l-771.5,282.79c-2.2,.81-4.5,1.21-6.81,1.21ZM454.88,302.57l666.55,261.64,713.79-261.64L1121.43,40.93,454.88,302.57Z"/><polygon class="c" points="1892.69 302.57 1892.69 1289.68 1121.19 1572.48 400.75 1289.68 400.75 302.57 1121.19 585.36 1892.69 302.57"/><g class="f"><polygon class="b" points="1892.69 302.57 1892.69 1289.68 1836.75 1310.18 1836.75 323.07 1892.69 302.57"/></g><polygon class="c" points="1121.19 585.36 1121.19 1572.48 1112.29 1568.98 400.75 1289.68 400.75 302.57 1121.19 585.36"/><path d="M1121.19,1592.25c-2.45,0-4.9-.46-7.23-1.37l-720.44-282.79c-7.57-2.97-12.55-10.28-12.55-18.41V302.57c0-6.54,3.23-12.66,8.64-16.34,5.4-3.68,12.28-4.45,18.37-2.07l713.45,280.05,764.45-280.21c6.07-2.23,12.84-1.34,18.13,2.35,5.3,3.7,8.45,9.76,8.45,16.22v987.11c0,8.3-5.18,15.71-12.97,18.57l-771.5,282.79c-2.2,.81-4.5,1.21-6.81,1.21Zm-700.66-316.06l700.9,275.13,751.48-275.45V330.88l-744.91,273.05c-4.54,1.66-9.53,1.6-14.03-.16L420.53,331.58v944.62Z"/><path d="M1121.19,1592.25c-10.92,0-19.78-8.86-19.78-19.78V585.36c0-10.92,8.85-19.78,19.78-19.78s19.78,8.86,19.78,19.78v987.11c0,10.92-8.85,19.78-19.78,19.78Z"/><g class="e"><polygon points="1892.69 699.59 1892.69 802.22 1374.52 992.16 1121.19 765.67 1121.19 590.98 1125.57 589.37 1432.87 868.16 1892.69 699.59"/><path d="M1373.97,994.99l-1.11-.99-254.15-227.22v-177.52l7.4-2.72,307.3,278.78,461.74-169.27v107.9l-1.62,.59-519.57,190.45Zm-250.31-230.42l251.39,224.76,515.16-188.84v-97.36l-457.9,167.87-1.11-1.01-306.19-277.78-1.35,.49v171.87Z"/></g><g class="e"><path d="M1115.14,1552.27s-1.02,6.13-2.84,16.7l-711.54-279.29V702.43l61.27,24.07,374.04,146.68-121.52,128.67-184.98-72.5c115.39,279.66,306.28,491.11,585.57,622.92Z"/><path d="M1114.22,1572.38l-715.94-281.02V698.81l64.65,25.4,377.45,148.02-125.18,132.55-181.12-70.99c117.84,282.26,313.67,489.57,582.11,616.25l1.69,.8-.31,1.84s-1.02,6.13-2.85,16.72l-.52,2.99Zm-710.99-284.38l707.15,277.57c.96-5.62,1.65-9.68,2.02-11.86-270.42-128.1-467.28-337.84-585.11-623.41l-2.21-5.36,188.83,74.01,117.86-124.79-428.53-168.09v581.93Z"/></g><polygon class="c" points="1892.68 302.57 1121.19 19.79 1477.87 34.38 2249.35 317.16 1892.68 302.57"/><path d="M2249.36,336.94c-.27,0-.54,0-.82-.02l-356.67-14.59c-2.05-.08-4.07-.48-6-1.19L1114.39,38.36c-9.15-3.35-14.49-12.87-12.59-22.42,1.9-9.56,10.55-16.47,20.21-15.91l356.67,14.58c2.05,.08,4.07,.48,6,1.19l771.48,282.78c9.15,3.35,14.49,12.87,12.59,22.42-1.85,9.29-10,15.93-19.39,15.93Zm-352.78-54l227.29,9.3L1473.96,54.01l-227.3-9.29,649.91,238.21Z"/><polygon class="c" points="400.77 302.57 1121.19 19.79 740.21 43.5 19.78 326.28 400.77 302.57"/><path d="M19.77,346.05c-9.21,0-17.28-6.4-19.3-15.5-2.11-9.51,3.02-19.13,12.08-22.69L732.98,25.09c1.92-.75,3.94-1.2,6-1.33L1119.97,.05c9.73-.57,18.43,5.96,20.54,15.46s-3.02,19.13-12.08,22.69L407.99,320.98c-1.92,.75-3.94,1.2-6,1.33L21.01,346.01c-.42,.02-.83,.04-1.24,.04Zm381-43.49h0ZM744.54,63.05L144.11,298.72l252.33-15.7L996.87,47.35l-252.33,15.7Z"/><polygon class="c" points="1121.19 585.36 845.84 877.13 125.4 594.33 380.55 324.01 400.75 302.57 1121.19 585.36"/><g class="f"><polygon class="b" points="1115.11 585.36 839.76 877.13 785.93 855.97 1027.58 599.95 360.97 338.31 394.67 302.57 1115.11 585.36"/></g><path d="M845.83,896.89c-2.43,0-4.87-.45-7.22-1.37L118.19,612.75c-6.12-2.4-10.64-7.68-12.08-14.09-1.43-6.41,.41-13.12,4.92-17.9L386.38,288.99c5.54-5.87,14.1-7.77,21.61-4.84l720.43,282.78c6.12,2.4,10.64,7.68,12.08,14.09,1.43,6.41-.41,13.12-4.92,17.9l-275.35,291.77c-3.81,4.04-9.05,6.21-14.39,6.21ZM159.89,586.62l680.74,267.2,246.09-260.76L405.98,325.86l-246.09,260.76Z"/><g class="e"><path d="M845.84,877.13L125.4,594.33l255.15-270.32c12.84,1.39,20.2,2.26,20.2,2.26-101.1,194.24,86.8,376.23,445.09,550.85Z"/><path d="M844.94,879.43L121.09,595.3,379.59,321.42l1.22,.13c12.85,1.39,20.23,2.26,20.23,2.26l3.55,.42-1.65,3.17c-29.24,56.19-34.6,113.35-15.94,169.93,40.59,123.01,191.03,246.51,459.92,377.56l-1.99,4.52ZM129.71,593.37l665.49,261.22c-239.19-122.57-374.44-239.17-412.89-355.7-18.75-56.81-13.83-114.18,14.62-170.57-3.18-.37-8.44-.96-15.42-1.72l-251.79,266.77Z"/></g><polygon class="c" points="1892.68 302.57 1121.19 585.35 1432.89 868.12 2204.37 585.35 1892.68 302.57"/><g class="f"><polygon class="b" points="2204.37 585.36 2143.03 607.83 1882.92 371.94 1172.84 632.26 1121.19 585.36 1892.69 302.57 2204.37 585.36"/></g><path d="M1432.89,887.9c-4.84,0-9.59-1.78-13.29-5.13l-311.69-282.78c-5.13-4.65-7.45-11.65-6.12-18.44,1.33-6.79,6.11-12.4,12.6-14.78l771.48-282.78c6.91-2.54,14.65-1.02,20.1,3.92l311.69,282.78c5.13,4.65,7.45,11.65,6.12,18.44-1.33,6.79-6.11,12.4-12.6,14.78l-771.48,282.78c-2.22,.82-4.52,1.21-6.8,1.21Zm-274.19-295.24l278.62,252.77,729.55-267.41-278.62-252.77-729.55,267.41Z"/></svg>