<?xml version="1.0" encoding="utf-8"?>
<!-- Generator: Adobe Illustrator 26.2.1, SVG Export Plug-In . SVG Version: 6.00 Build 0)  -->
<svg version="1.1" id="a" xmlns="http://www.w3.org/2000/svg" xmlns:xlink="http://www.w3.org/1999/xlink" x="0px" y="0px"
	 viewBox="0 0 503.8 487.5" style="enable-background:new 0 0 503.8 487.5;" xml:space="preserve">
<style type="text/css">
	.st0{opacity:0.2;}
	.st1{fill:#390075;}
	.st2{opacity:0.35;}
	.st3{fill:#FFFFFF;}
	.st4{opacity:0.15;}
	.st5{fill:#B3D133;}
	.st6{fill:#C3B2D3;}
	.st7{opacity:0.7;}
	.st8{opacity:0.3;}
	.st9{opacity:0.29;}
	.st10{opacity:0.48;}
</style>
<g class="st0">
	<ellipse cx="266" cy="445.1" rx="159.9" ry="42.4"/>
</g>
<g>
	<g>
		<path class="st1" d="M437.8,218.6c0,0-6.4-44.6,22.8-41.3c29.2,3.3,38.4-9.1,38.4-9.1s1.4,53.4-25,62.2
			c-18.8,6.2-30.5-8.1-30.5-8.1"/>
		<g class="st2">
			<path class="st3" d="M499,173.2c-4.4,5.9-15.3,16.2-36.4,13.8c-20.9-2.4-23.6,19.7-23.4,32.5l-1.4-0.9c0,0-6.4-44.6,22.8-41.3
				c29.2,3.3,38.4-9.1,38.4-9.1S499,170.1,499,173.2L499,173.2z"/>
		</g>
		<g class="st4">
			<path class="st1" d="M474,230.4c-18.9,6.2-30.5-8.1-30.5-8.1l-5.7-3.7c0,0-1.3-9-0.1-18.6c3.7,5,10.5,10.8,21.9,11.2
				c18.4,0.6,32.1-21.4,39.3-36.4C498.3,189.3,494.7,223.6,474,230.4L474,230.4z"/>
		</g>
		<path class="st1" d="M464.5,236.8c-15.2,0-24.2-10.9-24.6-11.5c-0.5-0.6-0.8-1.4-1-2.1c-0.1,0-0.3,0.1-0.4,0.1
			c-2.6,0.4-5-1.4-5.4-4c-0.2-1.1-3.8-27.8,8.4-40.4c4.9-5.1,11.6-7.2,19.6-6.3c25.6,2.9,34-7.1,34.1-7.2c1.2-1.6,3.3-2.3,5.2-1.7
			c1.9,0.6,3.2,2.4,3.3,4.4c0.1,2.3,1.1,57.1-28.3,66.8C471.5,236.2,467.9,236.8,464.5,236.8L464.5,236.8z M443.5,217.6
			c1.4,0,2.8,0.6,3.7,1.8c0.4,0.5,9.9,11.7,25.3,6.6c15.6-5.1,20.5-31.4,21.6-48.3c-6.6,3.3-17.4,6.2-34,4.4
			c-5.1-0.6-9,0.6-11.8,3.4c-7.4,7.6-6.8,25.7-5.9,32.3C442.8,217.6,443.2,217.6,443.5,217.6L443.5,217.6z"/>
		<path class="st5" d="M354.4,245.4c0,0,37.5,4.9,59.6-20.9c24.2-28.2,40.6-26.9,41.9-19.1c1.3,7.8-12.2,12.1-24,35.4
			c-11.1,21.9-26,41-60.3,36.5"/>
		<g class="st4">
			<path class="st1" d="M431.9,240.8c-11.1,21.9-26,41-60.3,36.5l-17.2-31.9c0,0,2.6,0.3,6.9,0.4l1.8,6
				c32.7,11.5,51.1-4.1,66.5-23.3c10.9-13.6,20.9-18.7,26.4-23C457.1,213.3,443.7,217.6,431.9,240.8L431.9,240.8z"/>
		</g>
		<path class="st1" d="M381.2,282.8c-3.2,0-6.6-0.2-10.2-0.7c-2.6-0.3-4.4-2.7-4.1-5.3c0.3-2.6,2.7-4.4,5.3-4.1
			c29.8,3.9,43.7-10.8,55.5-34c6.5-12.7,13.6-20.2,18.3-25.2c3.1-3.3,5.5-5.9,5.3-7.3c0-0.2-0.1-0.5-0.9-0.7
			c-3.9-1.1-15.6,2.2-32.7,22.1c-23.5,27.4-62.2,22.7-63.8,22.5c-2.6-0.3-4.4-2.7-4.1-5.3c0.3-2.6,2.7-4.4,5.3-4.1l0,0
			c0.4,0.1,35.3,4.2,55.4-19.2c16-18.7,31.9-28.1,42.4-25.1c4.2,1.2,7.1,4.3,7.7,8.3c1,6.1-2.9,10.2-7.8,15.3
			c-4.6,4.8-10.9,11.5-16.7,22.9C426,262.9,411.5,282.8,381.2,282.8L381.2,282.8z"/>
		<path class="st5" d="M251,437.2c-13.3,17.4-57.9,28-66.6,15.5c-3.3-4.7-4.1-11.6-6.3-18.9c-4.5-15.1-13.7-36.1-24.6-57.5
			c-11.2-21.7-24.2-43.8-36-60.3l121.2,9.3l15.3,1.2C254,326.4,273.2,408.3,251,437.2L251,437.2z"/>
		<g class="st4">
			<path class="st1" d="M231.3,385.1c-13.1,9.2-51.3-0.4-77.8-8.9c-11.2-21.7-24.2-43.8-36-60.3l121.2,9.3
				C241.9,348.7,242.9,377,231.3,385.1L231.3,385.1z"/>
		</g>
		<g>
			<path class="st3" d="M207.4,457.6c-10.5,1.3-19.5,0-22.9-5c-1.1-1.7-2-3.6-2.7-5.7c-1.7-7.6,1.8-14.3,7.5-15.4
				C202.9,428.9,206.3,447.7,207.4,457.6L207.4,457.6z"/>
			<path class="st1" d="M200.3,462.8c-9.5,0-16.4-2.6-19.8-7.5c-1.3-1.9-2.3-4-3.3-6.9l-0.1-0.5c-1.2-5.4-0.4-10.9,2.3-15
				c2.1-3.3,5.3-5.4,8.9-6.1c4.6-0.9,8.9,0,12.4,2.6c6.1,4.5,9.8,13.5,11.3,27.6l0.5,4.6l-4.6,0.6
				C205.3,462.7,202.7,462.8,200.3,462.8L200.3,462.8z M186.3,445.7c0.6,1.8,1.3,3.2,2,4.3c1.3,1.9,5.7,3.7,13.7,3.4
				c-1.8-10.9-5-14.8-6.8-16.2c-1.4-1-3-1.4-5-1c-1.4,0.3-2.3,1.2-2.8,2C186.1,440.1,185.8,442.9,186.3,445.7L186.3,445.7z"/>
		</g>
		<path class="st1" d="M200.3,462.8c-0.4,0-0.8,0-1.2,0c-8.9-0.2-15.2-2.8-18.4-7.5c-2.8-4-4-9-5.3-14.2c-0.5-2-1-4-1.6-6.1
			c-8.8-29.5-36.8-83.9-59.9-116.4c-1.5-2.1-1-5.1,1.1-6.6c2.1-1.5,5.1-1,6.6,1.1c24.1,33.8,52.2,88.3,61.3,119.2
			c0.7,2.3,1.2,4.4,1.7,6.5c1.1,4.5,2.1,8.4,3.9,11c1.4,2,5.4,3.2,10.9,3.4c15.1,0.4,39.4-7.9,48-19.1c20.6-26.8,2.3-106,2.1-106.8
			c-0.6-2.5,1-5.1,3.5-5.7s5.1,1,5.7,3.5c0.8,3.4,19.5,84.4-3.9,114.8C244.3,453.7,218,462.8,200.3,462.8L200.3,462.8z"/>
		<path class="st1" d="M200.3,462.8c-9.5,0-16.4-2.6-19.8-7.5c-1.3-1.9-2.3-4-3.3-6.9c-0.8-2.5,0.5-5.2,3-6c2.5-0.8,5.2,0.5,6,3
			c0.7,2,1.3,3.4,2.1,4.5c1.5,2.2,7.3,4.3,18.5,3c2.6-0.3,5,1.5,5.3,4.1c0.3,2.6-1.5,5-4.1,5.3C205.3,462.7,202.7,462.8,200.3,462.8
			L200.3,462.8z"/>
		<path class="st5" d="M363.7,368.9c-8.6,26.4,2.7,54.5-5.2,68.5c-6.3,11.2-58.3,17-71.8,5.1c-4-3.5-8.8-32.5-7.9-62
			c0.3-11.4,1.5-22.8,3.8-32.9c0.5-2.2,1.1-4.3,1.7-6.4l63-179.7c20.9,4.9,46.1,25.4,52.4,60C413.2,296.3,377.2,327.2,363.7,368.9
			L363.7,368.9z"/>
		<g class="st4">
			<path class="st1" d="M363.7,368.9c-8.6,26.4,2.7,54.5-5.2,68.5c-6.3,11.2-58.3,17-71.8,5.1c-1-0.9-2-3.2-3-6.7
				c18.3,7.6,61,1.9,66.7-8.2c7.9-14-5.4-32.2,10.3-67.6c4.4-9.9,11.9-19.5,20.4-29.5C374.6,343.5,368,355.6,363.7,368.9
				L363.7,368.9z"/>
		</g>
		<g class="st4">
			<path class="st1" d="M367.1,326c-24.1,43-72.6,52.5-88.3,54.5c0.3-11.4,1.5-22.8,3.8-32.9L367.1,326L367.1,326z"/>
		</g>
		<path class="st1" d="M338.2,449.7L338.2,449.7c-2.6,0-4.7-1.6-4.7-3.7c0-5.3-1.8-14.7-6.5-17.5c-0.9-0.5-2.4-1.1-5.1-0.5
			c-4.7,1.1-6.3,10.6-5.7,17.1c0.2,2-1.8,3.8-4.4,3.9c-2.6,0.1-4.9-1.4-5.1-3.4c-0.2-2.2-1.7-21.5,12.5-24.7
			c6.4-1.4,10.9,0.1,13.5,1.6c10,5.8,10.3,21.6,10.2,23.4C342.9,448,340.8,449.7,338.2,449.7L338.2,449.7z"/>
		<g>
			<path class="st3" d="M311.1,449c-10.4-0.4-19.7-2.4-24.4-6.5c-0.7-0.6-1.5-2.1-2.2-4.2c0.9-6.3,3.2-12.7,9-14.1
				C307.7,420.6,310.5,440.3,311.1,449z"/>
			<path class="st1" d="M311.8,449.7l-0.7,0c-11.6-0.4-20.4-2.8-24.8-6.6c-0.8-0.7-1.6-2.2-2.4-4.5l0-0.1l0-0.2
				c1.2-8.5,4.4-13.4,9.5-14.7c3.7-0.9,7-0.4,9.6,1.6c6.6,4.8,8.3,17,8.7,23.8L311.8,449.7L311.8,449.7z M285.2,438.3
				c0.9,2.5,1.6,3.4,1.9,3.8c4.1,3.6,12.3,5.8,23.2,6.3c-0.5-6.7-2.2-17.8-8.1-22.1c-2.4-1.7-5.2-2.2-8.5-1.4
				C289.2,426,286.3,430.5,285.2,438.3z"/>
		</g>
		<path class="st3" d="M337.8,446.8c-8.2,1.7-17.7,2.5-26.5,2.2c0-6.8,1-20.9,9.2-23.2C333.1,422.1,336.7,437.5,337.8,446.8z"/>
		<path class="st3" d="M337.8,446.8c-8.2,1.7-17.7,2.5-26.5,2.2c-0.1,0-0.1,0-0.2,0c-10.4-0.4-19.7-2.4-24.4-6.5
			c-0.7-0.6-1.5-2.1-2.2-4.2"/>
		<path class="st1" d="M316.1,453.9l-5.2-0.2c-8.9-0.3-20.8-1.9-27.3-7.6c-1.4-1.2-2.5-3.2-3.5-6.2l-0.4-1.1l0.1-1.1
			c1.8-12.8,7.8-16.9,12.5-18.1c4.9-1.2,9.4-0.4,13,2.2c7.5,5.5,9.8,17.6,10.4,26.8L316.1,453.9L316.1,453.9z M290,439.1
			c2.8,2.4,8.4,4.1,15.8,4.8c-1-7.1-3.2-12.4-6-14.4c-0.9-0.6-2.4-1.4-5.1-0.7c-3.1,0.8-4.6,5.1-5.3,9.1
			C289.7,438.6,289.9,438.9,290,439.1L290,439.1z"/>
		<path class="st1" d="M314.8,453.8c-1.2,0-2.5,0-3.7-0.1l-4.6-0.1V449c0-9,1.6-24.6,12.6-27.8c6-1.7,10.3-0.1,12.8,1.6
			c5.6,3.8,9.2,11.6,10.5,23.4l0.5,4.3l-4.2,0.9C331,453,322.7,453.8,314.8,453.8L314.8,453.8z M324.1,429.9c-0.6,0-1.4,0.1-2.3,0.4
			c-2.9,0.9-5,6.3-5.6,14c5.3-0.1,10.9-0.5,16.2-1.4c-1.2-6.1-3.2-10.6-5.7-12.2C326.2,430.3,325.4,429.9,324.1,429.9L324.1,429.9z"
			/>
		<path class="st1" d="M314.5,453.8c-11.8,0-24.2-1.8-30.9-7.7c-6.6-5.8-8.7-36.3-9.1-42.4c-0.9-14.5-1.4-42,5.3-63.9
			c0.8-2.5,3.4-3.9,5.9-3.1c2.5,0.8,3.9,3.4,3.1,5.9c-10.8,35.4-2.9,90.6,1.1,96.5c6.1,5.2,25.3,6.8,43.8,3.7
			c13.2-2.2,19.6-5.8,20.6-7.7c3.1-5.5,2.5-14.8,1.8-25.6c-0.8-12.9-1.7-27.5,3-42c3.9-12,9.5-22.9,15.4-34.4
			c14.7-28.7,29.9-58.4,20.5-110.6c-5.8-32.2-29.4-51.7-48.8-56.2c-2.5-0.6-4.1-3.1-3.5-5.7c0.6-2.5,3.1-4.1,5.7-3.5
			c23.1,5.4,49.4,27.2,56,63.8c10,55.4-6.7,87.9-21.4,116.6c-5.7,11.1-11.1,21.7-14.8,33c-4.2,12.9-3.3,26.5-2.5,38.5
			c0.8,12.3,1.4,22.9-3,30.8c-4,7.1-17,10.6-27.3,12.4C329.8,453,322.3,453.8,314.5,453.8L314.5,453.8z M290.1,439.2L290.1,439.2z"
			/>
		<path class="st1" d="M314.8,453.8c-1.2,0-2.5,0-3.6-0.1c-0.1,0-0.3,0-0.4,0c-8.8-0.3-20.7-1.9-27.2-7.6c-1.4-1.2-2.5-3.2-3.5-6.2
			c-0.9-2.5,0.5-5.2,3-6c2.5-0.8,5.2,0.5,6,3c0.5,1.4,0.9,2.1,1,2.3c3.5,2.9,11.2,4.8,21.3,5.2l0.4,0c8.1,0.3,17.2-0.5,25.2-2.1
			c2.6-0.5,5.1,1.1,5.6,3.7s-1.1,5.1-3.7,5.6C331.1,453,322.7,453.8,314.8,453.8L314.8,453.8z"/>
		<path class="st5" d="M377.6,154.3L367.1,326c-20.5,23.5-58.7,37.2-82.2,38.2c-23.2,2.9-46.3,9.4-64.5,7.8
			C99.7,361.5,84,261.3,77.7,213l106.1-53.7c0,0,31.5-11.7,70.8-18.6C296.1,133.4,346.3,131.5,377.6,154.3L377.6,154.3z"/>
		<g class="st4">
			<path class="st1" d="M367.1,326c-20.5,23.5-58.7,37.2-82.2,38.2c-23.2,2.9-46.3,9.4-64.5,7.8C99.7,361.5,84,261.3,77.7,213
				l106.1-53.7c0,0,31.5-11.7,70.8-18.6c8.9,15.9,20.2,42.9,16.9,74.3c-5.3,50.4-109.4,30.9-110.7,87.6c-1.2,54.5,77,42.6,77,42.6
				l45.2-11.3c0,0,2.4,8.5,26.7,9.9C334.1,345.2,367.1,326,367.1,326L367.1,326z"/>
		</g>
		<path class="st1" d="M374.8,158.1c-38.3-26.8-98.6-17.8-141.9-8.2c-16,3.7-32.1,8.3-47.4,13.8c2.4-1.4-106.1,53.9-105.6,53.5
			l2.6-4.8c7.7,62.3,29.7,122,93.2,145.1c12.8,4.8,26.4,7.6,40,9.3c10.6,1.5,20.9,0.7,31.6-0.9c12.3-1.8,24.7-4.3,37.5-5.7
			c7.3-0.2,14.8-1.5,22.1-3.4c14.5-3.8,28.7-9.8,41.3-18c6.3-4.1,12.2-8.9,17.3-14.4c2-2.2,5.5,0.7,3.6,3.1
			c-10.2,12.2-23.8,21.2-38,28c-14.5,6.7-29.7,11.5-45.8,12.7c-10.5,1.4-24.6,4.3-36.6,6.3c-9.4,1.5-19.5,2.8-29.1,2
			c-2.4-0.2-7.2-0.7-9.6-1c-31.9-4-63.7-16.5-86.9-39.5c-33.6-32.7-45.5-80.9-50.4-125.8l3-1.5L181.7,155
			c46.5-16.1,100.8-28.4,150-22.4c17.2,2.3,34.4,7.5,48.7,17.9C385.3,154.4,380,161.7,374.8,158.1L374.8,158.1L374.8,158.1z"/>
		<path class="st5" d="M186,339.5c8.5,25.7,16.7,69.2,19.6,93.8c0.5,4.1-2.6,12.1-0.7,17.2c6.6,16.9,56.8,12.8,69.6-5
			c17.3-24,8.5-111.5,8.5-111.5"/>
		<g class="st4">
			<path class="st1" d="M274.5,445.4c-12.8,17.8-63,21.8-69.6,5c-1.2-3.1-0.5-7.3,0.1-11.1c11.2,13.2,55.8,8.6,67.8-8
				c13-18,11.3-71.6,9.6-97.4l0.6,0C283,333.9,291.8,421.4,274.5,445.4L274.5,445.4z"/>
		</g>
		<path class="st3" d="M231.2,461.1c-12.6-0.1-23.5-3.5-26.3-10.7c-0.5-1.4-0.7-3-0.6-4.7c2.2-4.6,5.8-8.6,11.3-9.2
			C227.2,435.3,231.8,448.7,231.2,461.1z"/>
		<path class="st3" d="M258.5,456.3c-8.3,3.2-18.1,4.8-27.2,4.8c-0.1-3.2-0.5-21.8,10.6-23.6C252.2,435.9,257.2,446.9,258.5,456.3
			L258.5,456.3z"/>
		<path class="st3" d="M258.5,456.3c-8.3,3.2-18.1,4.8-27.2,4.8h-0.1c-12.6-0.1-23.5-3.5-26.3-10.7c-0.5-1.4-0.7-3-0.6-4.7"/>
		<path class="st1" d="M235.7,465.9l-4.5,0c-16.1-0.1-27.3-5.1-30.7-13.7c-0.7-1.9-1.1-4-1-6.6l0-1l0.4-0.9
			c4.4-8.9,10.6-11.3,15.1-11.8c5-0.5,9.6,1,13.1,4.4c5.4,5.1,8.3,14.5,7.8,25.2L235.7,465.9L235.7,465.9z M208.9,446.9
			c0,0.9,0.2,1.5,0.3,1.8c1.6,4,8.1,6.7,17.2,7.5c-0.4-5.8-2.1-10.6-4.8-13.1c-1.6-1.5-3.4-2-5.6-1.8
			C214.9,441.3,211.8,441.7,208.9,446.9L208.9,446.9z"/>
		<path class="st1" d="M231.6,465.8c-0.1,0-0.2,0-0.3,0l-4.5,0l-0.2-4.5c-0.6-12.5,2.9-26.6,14.6-28.5c4.4-0.7,8.5,0.3,12,2.9
			c7.2,5.4,9.4,15.7,9.9,20l0.5,3.7l-3.5,1.3C251.7,464,241.2,465.8,231.6,465.8L231.6,465.8z M243.9,442.1c-0.4,0-0.8,0-1.2,0.1
			c-4.6,0.7-6.3,8-6.6,14c5.8-0.4,11.7-1.4,17-3c-1.1-4.5-3.1-8.1-5.5-9.9C246.5,442.5,245.3,442.1,243.9,442.1L243.9,442.1z"/>
		<path class="st1" d="M188.2,338.7c12.2,29.6,17.6,61.4,22.2,93c0.9,5.2-1.6,11.1-1,16.1c0.5,2.2,2.2,3.5,4.8,4.9
			c14.4,6.6,45.1,2.5,55.7-9.9c14.2-20,10.5-82.4,10.7-108.7c-0.1-2.8,4.2-3.4,4.7-0.5c2.2,12.6,3.3,25.3,4,38.1
			c0.8,19.3,0.7,38.8-3.3,57.9c-3.5,16.3-9.8,25.5-25.8,31.5c-15.4,5.6-35.2,7.9-50.6,0.9c-4.9-2.4-9.3-6.6-10.3-12.3
			c-1-5.3,0.8-10.6,1.1-15.6c-0.6-6.6-1.6-13.2-2.6-19.8c-3.9-24.8-8.9-49.5-14.1-74.1C183.1,337.5,187,336.1,188.2,338.7
			L188.2,338.7L188.2,338.7z"/>
		<path class="st1" d="M259.3,458.5c-4.2,4.1-9.7,5.5-15.2,6.5c-12.5,2.4-32.8,2.3-41.1-9.5c-1.8-2.8-2.5-7-1.2-10
			c0.5-1.3,1.9-1.9,3.2-1.4c0.8,0.3,1.3,0.9,1.5,1.6c3,8.3,13.7,9.5,21.5,10c7.2,0.4,14.7-0.2,21.9-1.4c2.5-0.3,5-0.5,7.8-0.2
			C259.9,454.2,260.9,457.1,259.3,458.5L259.3,458.5L259.3,458.5z"/>
	</g>
	<g>
		<g>
			<g>
				<g>
					<g>
						<path class="st6" d="M110,72.4l1.1,28.8L93.5,102l0.2,4.4c0.3,6.6-4.9,12.2-11.5,12.4l-7.6,0.3c-6.6,0.3-12.2-4.9-12.4-11.5
							l-1.4-37c-0.3-6.6,4.9-12.2,11.5-12.4l7.6-0.3c6.6-0.3,12.2,4.9,12.4,11.5l0.1,3.7C92.3,73.1,110,72.4,110,72.4z"/>
						<g class="st7">
							<path class="st3" d="M98.2,74.9l0.1,3.7l11.9-0.5l-0.2-5.8l-12.1,0.5C98.1,73.6,98.2,74.2,98.2,74.9L98.2,74.9z"/>
							<path class="st3" d="M68.1,113.1l-1.4-37c-0.3-6.6,4.9-12.2,11.5-12.4l7.6-0.3c1.8-0.1,3.6,0.3,5.1,0.9
								c-2.1-4-6.3-6.7-11.1-6.5l-7.6,0.3c-6.6,0.3-11.7,5.8-11.5,12.4l1.4,37c0.2,4.8,3.2,8.8,7.3,10.6
								C68.6,116.6,68.1,114.9,68.1,113.1z"/>
						</g>
						<g class="st8">
							<path class="st1" d="M102,72.7l0.2,6.4c0.3,7.3-5.4,13.5-12.8,13.8l0,0C87,93,85.1,95,85.2,97.4l0,0
								c0.3,6.6-4.9,12.2-11.5,12.4l-7.6,0.3c-1.3,0.1-2.5-0.1-3.7-0.4c1.2,5.5,6.3,9.6,12.1,9.3l7.6-0.3
								c6.6-0.3,11.8-5.8,11.5-12.4l-0.2-4.4l17.7-0.7L110,72.4L102,72.7L102,72.7z"/>
						</g>
						<path class="st1" d="M82.3,122.8l-7.6,0.3c-8.8,0.3-16.3-6.6-16.6-15.4l-1.4-37C56.3,62,63.2,54.5,72,54.2l7.6-0.3
							c8.7-0.3,16.1,6.4,16.6,15.1l13.6-0.5c2.2-0.1,4.1,1.7,4.2,3.9l1.1,28.8c0.1,2.2-1.7,4.1-3.9,4.2l-13.6,0.5v0.4
							C98,115,91.1,122.5,82.3,122.8L82.3,122.8z M72.3,62.2c-4.4,0.2-7.8,3.9-7.6,8.2l1.4,37c0.2,4.4,3.9,7.8,8.2,7.6l7.6-0.3
							c4.4-0.2,7.8-3.9,7.6-8.2l-0.2-4.4c-0.1-2.2,1.7-4.1,3.9-4.2l13.6-0.5l-0.8-20.8l-13.6,0.5c-2.2,0.1-4.1-1.7-4.2-3.9l-0.1-3.7
							c-0.2-4.4-3.9-7.8-8.2-7.6L72.3,62.2L72.3,62.2z"/>
					</g>
					<path class="st5" d="M6.8,421.5c12.7-131.6,79.9-261.7,79.9-261.7C71.2,25.7,150.8-10.1,220.9,11.3l163.3,90.5
						c9.4,54.3-65.5,145.6-190.9,163.5c-124.1,24.5-136,145.5-136,145.5l-22.8-31.4L6.8,421.5L6.8,421.5z"/>
					<g class="st2">
						<path class="st3" d="M23.8,397.2c19.4-119.1,75.4-227.6,75.5-227.6C83.7,35.4,163.4-0.4,233.4,21l151.8,84.1
							c-0.1-0.9-0.2-1.8-0.4-2.8L221.5,11.9C151.4-9.5,71.8,26.3,87.3,160.4c0,0-67.2,130.1-79.9,261.7L23.8,397.2L23.8,397.2z"/>
						<path class="st3" d="M47,389.1l-2.5,3.8l13.3,18.4c0,0,0.2-2.2,0.9-6.1L47,389.1L47,389.1z"/>
					</g>
					<g>
						<path class="st1" d="M259.5,29.1C294.2,45.9,322.7,67,322.7,67l15.7,7.5l7.7,3.7c11.4,17.5,17,37.2,14,58.3l-13.8,13.1l3.6-45
							l-32.7,31.1l3.5-44.4L288.5,122l3.3-41.1l-29.9,28.4l3.5-44.4l-32.2,30.7l3.6-45.7l-33.2,31.6l2.9-37.2l-27,25.7l3.6-45
							l-32.7,31.1l3.5-43.9c12.8-4.1,26.6-6.1,40.8-6.3l5.6,2.7C200.3,8.6,224.7,12.4,259.5,29.1L259.5,29.1z"/>
						<path class="st1" d="M153.2,12.5l-31.5,30l1.1-14.3C131.8,21.3,142.1,16.1,153.2,12.5z"/>
					</g>
					<g>
						<path class="st1" d="M86.8,92.6h228.7c1.5,0,2.8-1.5,2.8-3.4s-1.3-3.4-2.8-3.4H86.8c-1.6,0-2.8,1.5-2.8,3.4
							S85.2,92.6,86.8,92.6z"/>
						<path class="st1" d="M293.6,105.4c2.2,0,4-2.2,4-4.8V77.2c0-2.7-1.8-4.8-4-4.8s-4,2.2-4,4.8v23.4
							C289.6,103.3,291.4,105.4,293.6,105.4z"/>
						<path class="st1" d="M259.1,105.4c2.2,0,4-2.2,4-4.8V77.2c0-2.7-1.8-4.8-4-4.8s-4,2.2-4,4.8v23.4
							C255.1,103.3,256.9,105.4,259.1,105.4z"/>
						<path class="st1" d="M221.3,105.4c2.2,0,4-2.2,4-4.8V77.2c0-2.7-1.8-4.8-4-4.8s-4,2.2-4,4.8v23.4
							C217.3,103.3,219.1,105.4,221.3,105.4z"/>
						<path class="st1" d="M114.2,105.4c2.2,0,4-2.2,4-4.8V77.2c0-2.7-1.8-4.8-4-4.8c-2.2,0-4,2.2-4,4.8v23.4
							C110.2,103.3,112,105.4,114.2,105.4z"/>
						<path class="st1" d="M148.8,105.4c2.2,0,4-2.2,4-4.8V77.2c0-2.7-1.8-4.8-4-4.8s-4,2.2-4,4.8v23.4
							C144.8,103.3,146.6,105.4,148.8,105.4z"/>
						<path class="st1" d="M183.4,105.4c2.2,0,4-2.2,4-4.8V77.2c0-2.7-1.8-4.8-4-4.8s-4,2.2-4,4.8v23.4
							C179.3,103.3,181.1,105.4,183.4,105.4z"/>
					</g>
					<path class="st1" d="M0,441.9l1.4-20.8C6,349.8,27.6,281.9,45,237.4c9.8-25.2,19.3-45.6,25.6-58.4c5.6-11.5,8.7-17.3,10.5-20.4
						C73,79,97.9,40.3,120.3,21.8C146.6,0,183.9-5.8,222.5,6l0.6,0.2l166.1,92.1l0.5,2.6c3.8,21.7-4.5,48-23.4,74
						c-36.1,49.8-100.4,85.6-172,95.9c-49.6,9.8-86.8,36.3-110.5,78.8c-17.8,32-21,61.5-21,61.8l-1.4,14.4L34.7,389L0,441.9z
						 M90.7,163.9c-7.3,13.3-63.2,117.9-76.5,236.2l20-30.5L54.1,397c2.7-12.3,8.3-31.7,19.9-52.5c17.4-31.4,52.1-71.6,118.3-84.6
						l0.3,0c68.7-9.8,130.3-44,164.8-91.5c16.1-22.2,24-45,21.9-63.1L218.8,16.4c-34.8-10.5-68.1-5.4-91.5,13.9
						c-20.5,16.9-43.2,53.1-35.1,129l0.4,3.8L90.7,163.9L90.7,163.9z"/>
					<path class="st9" d="M371.1,173.3c-13.7,19-24.1,55.6-41.4,85.6c-14.8,25.7-36.8,37.1-57.5,30.6c4.5,6,9.8,11.4,15.7,15.1
						c23.4,14.7,50.5,4.2,67.8-25.9s22.1-59.6,35.8-78.7"/>
					<g>
						<path class="st5" d="M234.6,232.5c0,0,12.5,40,35.8,54.7c23.4,14.7,50.5,4.2,67.8-25.9c17.3-30,22.1-59.6,35.8-78.7
							c13.7-19,52.2-31.8,44.1-64.6c-8.1-32.8-22-53.7-59.4-60.2S238.4,88.1,238.4,88.1L234.6,232.5L234.6,232.5z"/>
						<g class="st10">
							<path class="st3" d="M336.9,70.6c40.9,7.8,56.5,30.4,66.1,65.5c1.5,5.5,1.8,10.5,1,15c8-8.7,13-19.1,9.5-33.1
								c-8.1-32.8-22-53.7-59.4-60.2S234,88,234,88l0,1.6C263.6,79.3,310.4,65.5,336.9,70.6L336.9,70.6z"/>
						</g>
						<path class="st1" d="M292.2,298.9c-8.3,0-16.5-2.4-24.1-7.1c-2.8-1.2-15.9-7.5-26.4-24.8c-15.1-24.8-17.8-59.3-8.2-102.7
							l9.8,2.2c-8.8,39.8-6.6,72.5,6.6,94.7c9.8,16.5,22.2,21.5,22.4,21.5l0.5,0.2l0.4,0.3c8.6,5.4,18.1,7.1,27.3,4.8
							c12.6-3.1,24.5-13.4,33.5-28.9c8.3-14.4,13.8-29,18.6-41.9c5.2-13.9,10.1-26.9,17.5-37.2c4.7-6.5,11.6-12,18.9-17.9
							c15-11.9,29.2-23.2,24.4-42.7c-7.5-30.2-19.4-50.2-55.4-56.5c-35.5-6.1-116.6,29.4-117.4,29.8l-4-9.2
							C239.8,82,321,46.4,359.5,53c43.7,7.5,56.3,35.2,63.4,63.9c6.3,25.6-12.6,40.7-27.9,52.9c-6.8,5.4-13.1,10.5-17,15.9
							c-6.6,9.2-11.1,21.1-16.2,34.9c-5,13.3-10.6,28.3-19.3,43.4c-10.3,17.9-24.4,29.9-39.7,33.6
							C299.3,298.4,295.7,298.9,292.2,298.9L292.2,298.9z"/>
					</g>
					<g>
						<path class="st6" d="M236.7,69.4l-2.7,32.2l19.7,1.6l-0.4,4.9c-0.6,7.4,4.9,13.8,12.2,14.4l8.5,0.7
							c7.4,0.6,13.8-4.9,14.4-12.2l3.4-41.2c0.6-7.4-4.9-13.8-12.2-14.4l-8.5-0.7c-7.4-0.6-13.8,4.9-14.5,12.2l-0.4,4.2L236.7,69.4
							L236.7,69.4z"/>
						<g class="st7">
							<path class="st3" d="M249.8,72.7l-0.4,4.2l-13.3-1.1l0.5-6.4l13.5,1.1C250,71.2,249.9,71.9,249.8,72.7L249.8,72.7z"/>
							<path class="st3" d="M281.6,116.9l3.4-41.2c0.6-7.4-4.9-13.8-12.2-14.4l-8.5-0.7c-2-0.2-4,0.1-5.8,0.8
								c2.5-4.4,7.4-7.1,12.7-6.7l8.5,0.7c7.4,0.6,12.8,7.1,12.2,14.4l-3.4,41.2c-0.4,5.3-4,9.7-8.7,11.4
								C280.8,120.8,281.4,118.9,281.6,116.9L281.6,116.9z"/>
						</g>
						<g class="st8">
							<path class="st1" d="M245.7,70.1l-0.6,7.1c-0.7,8.2,5.4,15.3,13.6,16l0,0c2.7,0.2,4.7,2.6,4.5,5.3l0,0
								c-0.6,7.4,4.9,13.8,12.2,14.4l8.5,0.7c1.4,0.1,2.8,0,4.2-0.3c-1.6,6.1-7.5,10.4-14,9.8l-8.5-0.7c-7.4-0.6-12.9-7.1-12.2-14.4
								l0.4-4.9l-19.7-1.6l2.7-32.2L245.7,70.1L245.7,70.1z"/>
						</g>
						<path class="st1" d="M248.9,107.7l0-0.4l-15.2-1.3c-2.5-0.2-4.3-2.4-4.1-4.9l2.7-32.2c0.2-2.5,2.4-4.3,4.9-4.1l15.2,1.3
							c1-9.7,9.6-16.8,19.3-16l8.5,0.7c9.8,0.8,17.2,9.5,16.4,19.3l-3.4,41.2c-0.8,9.8-9.5,17.2-19.3,16.4l-8.5-0.7
							C255.4,126.2,248,117.5,248.9,107.7L248.9,107.7z M270.8,59.1c-4.9-0.4-9.2,3.2-9.6,8.1l-0.4,4.2c-0.2,2.5-2.4,4.3-4.9,4.1
							l-15.2-1.3l-1.9,23.2l15.2,1.3c2.5,0.2,4.3,2.4,4.1,4.9l-0.4,4.9c-0.4,4.9,3.2,9.2,8.1,9.6l8.5,0.7c4.9,0.4,9.2-3.2,9.6-8.1
							l3.4-41.2c0.4-4.9-3.2-9.2-8.1-9.6L270.8,59.1L270.8,59.1z"/>
					</g>
				</g>
				<g>
					<g>
						<path class="st3" d="M128.2,138.5c2.6,17.4,17.6,30.8,35.8,30.8c18.2,0,33.2-13.4,35.8-30.8H128.2L128.2,138.5z"/>
						<path class="st1" d="M164,173.3c-9.7,0-19-3.5-26.3-9.8c-7.2-6.3-12-14.9-13.4-24.3l-0.7-4.5h80.7l-0.7,4.5
							c-1.4,9.4-6.1,18.1-13.4,24.3C183.1,169.8,173.7,173.3,164,173.3L164,173.3z M133.1,142.5c1.8,5.8,5.1,11.1,9.8,15.1
							c5.9,5.1,13.4,7.9,21.2,7.9s15.3-2.8,21.2-7.9c4.6-4,8-9.3,9.8-15.1H133.1L133.1,142.5z"/>
					</g>
					<circle class="st1" cx="163.6" cy="146.2" r="8.9"/>
				</g>
			</g>
			<g>
				<path class="st3" d="M221.7,254.4c0,0-44.1,85.1-140.6,31.4c0,0,83.8,4.9,101.2-49.1l6.9-15.7
					C189.2,220.9,214.5,227.7,221.7,254.4L221.7,254.4z"/>
				<path class="st1" d="M141.6,307.1c-19.6,0-40.4-6.1-62.2-18.3l-13.5-7.5l15.5,0.9c0.8,0,81.2,4.1,97.6-46.7l0.1-0.3l8.1-18.4
					l2.9,0.8c1.1,0.3,27.4,7.7,35,35.9l0.4,1.3l-0.6,1.2c-0.8,1.4-18.9,35.7-57.5,47.3C159.1,305.8,150.5,307.1,141.6,307.1
					L141.6,307.1z M95.7,289.2c25.1,11.3,48.4,13.8,69.6,7.4c31.9-9.6,49.1-36.6,52.6-42.6c-5.6-18.4-20.4-26.1-26.8-28.6l-5.5,12.5
					c-7.6,23.3-28.2,39.5-59.7,47C114.6,287.6,103.9,288.7,95.7,289.2L95.7,289.2z"/>
			</g>
			<path class="st9" d="M98.3,290.8c84,34.3,122.5-40.1,122.5-40.1c-0.4-1.5-0.9-3-1.4-4.4C210.6,259,170.9,309,98.3,290.8z"/>
			<path class="st1" d="M226.1,269.5l-7-1c2.3-15.5-3.4-28-16.9-37.3c-10.4-7.2-21.8-9.6-21.9-9.7l1.4-6.9
				c0.5,0.1,12.7,2.7,24.3,10.6C221.8,236,228.8,251.3,226.1,269.5L226.1,269.5z"/>
			<path class="st9" d="M251.3,194c6.1-42.4,41-72.5,77.9-67.1c6.6,0.9,12.8,3,18.5,5.9c-8.8-8.2-19.6-13.8-31.8-15.6
				c-36.9-5.3-72,26.4-78.5,70.9c-6.5,44.5,8.5,95.8,45.4,101.1c2.4,0.4,4.8,0.5,7.2,0.6C257.2,280.8,245.5,233.6,251.3,194
				L251.3,194z"/>
		</g>
		<path class="st1" d="M87.6,255.2c1.1,0,2.2-0.6,2.7-1.7c0.8-1.5,0.2-3.4-1.3-4.2c-17.7-9.2-38.1-12-38.9-12.1
			c-1.7-0.2-3.2,1-3.5,2.7c-0.2,1.7,1,3.2,2.7,3.5c0.2,0,20.2,2.8,36.9,11.4C86.6,255.1,87.1,255.2,87.6,255.2L87.6,255.2z"/>
		<path class="st1" d="M65.5,296.5c1.2,0,2.4-0.8,2.9-2c0.6-1.6-0.2-3.4-1.8-4c-0.8-0.3-20.9-8-33.2-7.2c-1.7,0.1-3,1.6-2.9,3.3
			c0.1,1.7,1.6,3,3.3,2.9c11-0.7,30.4,6.7,30.6,6.8C64.8,296.4,65.1,296.5,65.5,296.5L65.5,296.5z"/>
		<path class="st1" d="M79.6,275.7c1.1,0,2.2-0.6,2.7-1.6c0.8-1.5,0.2-3.4-1.3-4.2c-0.9-0.5-22.6-12-39.7-10.4
			c-1.7,0.2-3,1.7-2.8,3.4c0.2,1.7,1.7,3,3.4,2.8c15.2-1.4,36,9.6,36.2,9.7C78.6,275.5,79.1,275.7,79.6,275.7L79.6,275.7z"/>
	</g>
</g>
</svg>
