<?xml version="1.0" encoding="UTF-8"?><svg id="a" xmlns="http://www.w3.org/2000/svg" viewBox="0 0 1417.37 1336.11"><defs><style>.b{fill:#fff;}.c{fill:#b3d133;}.d{fill:#390075;stroke:#000;stroke-miterlimit:10;stroke-width:30px;}.e{opacity:.3;}.f{opacity:.42;}.g{opacity:.55;}</style></defs><g><g><path class="c" d="M1241.61,515.77l-8.98,1.01c-61.88,7.46-99.87,21.24-120.6,45.32,10.43,8.79,17.82,21.3,19.91,35.9,.89,6.38,.76,12.7-.38,18.65v.06c-4.36,23.89-23.51,43.23-48.73,46.9-31.73,4.55-61.06-17.38-65.67-49.11-1.14-8.34-.57-16.43,1.64-24.02h-.06c11.25-64.72,50.44-100.69,93.92-121.23h.06c41.15-19.47,86.15-25.09,114.97-28.25,.63,0,1.2-.13,1.71-.19l1.9-.19c60.11-8.91,101.89-64.98,93.23-125.15-8.66-60.43-64.85-102.46-125.21-93.74-3.03,.44-6.07,.95-9.04,1.64l.13,.63c.19,1.39,.25,2.72,.38,4.11v.19c.51,7.4-.32,14.54-2.46,21.3-6.45,20.61-24.14,36.72-47.03,40.01-31.67,4.55-60.99-17.38-65.55-49.11-3.03-20.92,5.5-40.77,20.73-53.09v-.06c7.14-5.94,14.73-11.31,22.69-16.05l.06-.06c21.11-12.64,44.62-21.05,69.27-24.59,101.83-14.66,196.51,56.19,211.11,158.02,14.66,101.76-56.19,196.45-158.02,211.11Z"/><g class="e"><path d="M1268.91,427.78c38.81-21.68,62.32-65.73,55.62-112.32-7.71-53.6-52.84-92.79-105.11-94.75,0-2.59-.19-5.18-.57-7.77l-.13-.63c2.97-.7,6-1.2,9.04-1.64,60.36-8.72,116.55,33.31,125.21,93.74,8.22,57.08-28.95,110.42-84.06,123.38Z"/></g><g class="g"><path class="b" d="M1131.94,598c4.05,28.25-12.96,54.61-39.06,63.27,10.75-12.26,16.31-28.95,13.78-46.39-.74-5.16-2.14-10.06-4.1-14.62-7.17-16.69-1.06-36.39,15.27-44.35,.13-.06,.26-.13,.4-.19-2.21,2.02-4.3,4.17-6.19,6.38,10.43,8.79,17.82,21.3,19.91,35.9Z"/></g><g class="e"><path d="M1190.79,228.11s-.95,8.98-2.46,21.49c-6.45,20.61-24.14,36.72-47.03,40.01-31.67,4.55-60.99-17.38-65.55-49.11-3.03-20.92,5.5-40.77,20.73-53.09v-.06c7.14-5.94,14.73-11.31,22.69-16.05-41.53,52.4,30.02,109.22,71.61,56.82Z"/></g><g class="e"><path d="M1131.56,616.64v.06c-4.36,23.89-23.51,43.23-48.73,46.9-31.73,4.55-61.06-17.38-65.67-49.11-1.14-8.34-.57-16.43,1.64-24.02h-.06c11.25-64.72,50.44-100.69,93.92-121.23h.06c-65.55,63.21-52.59,203.9,18.84,147.4Z"/></g><g class="g"><path class="b" d="M1305.32,494.34c50.38-39.88,78.82-104.73,69.02-172.81-14.6-101.83-109.28-172.68-211.11-158.08-22.44,3.29-43.93,10.49-63.52,21.3,25.6-20.29,56.25-33.44,88.8-38.11,101.83-14.66,196.51,56.19,211.11,158.02,11.38,78.76-28.51,153.21-94.3,189.68Z"/></g><path d="M1074.51,680.02c-36.06,0-67.68-26.56-72.96-63.28-1.42-9.85-.87-19.64,1.63-29.14,24.63-140.64,168.58-156.39,222.79-162.31,.36-.04,.73-.07,1.1-.08l2.53-.32c50.89-7.55,86.74-55.67,79.33-107.21-7.2-50.05-52.45-85.37-102.29-80.94-.84,14.45-5.82,28.08-14.53,39.73-11.8,15.76-29.05,25.99-48.57,28.79-19.47,2.81-38.91-2.15-54.66-13.96-15.75-11.8-25.98-29.05-28.79-48.57-3.6-25.07,6.09-50.49,25.36-66.72,.31-.31,.64-.61,.98-.88,28.52-23.59,63.05-38.86,99.86-44.16,110.37-15.92,213.11,61.02,229,171.41h0c7.68,53.41-5.94,106.66-38.34,149.95-32.4,43.29-79.66,71.36-133.07,79.04l-9.42,1.09c-48.25,5.8-80.67,15.57-100.23,30.41,7.01,9.6,11.63,20.85,13.35,32.86,5.79,40.26-22.26,77.72-62.51,83.51-3.54,.51-7.06,.76-10.54,.76Zm-40-88.12c-.09,.96-.27,1.92-.54,2.88-1.61,5.66-1.99,11.53-1.14,17.47,3.31,23,24.71,39,47.73,35.73,23.01-3.31,39.03-24.73,35.73-47.74-1.47-10.21-6.6-19.46-14.44-26.04-3.23-2.72-5.24-6.62-5.59-10.83-.34-4.2,1.02-8.37,3.77-11.58,23.21-26.99,63.52-42.63,130.72-50.71l9.06-1.04c44.61-6.42,84.49-30.11,111.83-66.64,27.34-36.53,38.84-81.46,32.35-126.52-13.4-93.13-100.08-157.98-193.21-144.63-30.65,4.42-59.41,17.02-83.26,36.45-.34,.34-.7,.65-1.08,.96-11.56,9.34-17.2,23.76-15.07,38.57,1.6,11.16,7.45,21.03,16.45,27.77,9,6.74,20.1,9.57,31.21,7.97,11.17-1.61,21.03-7.45,27.77-16.45,6.74-9,9.57-20.12,7.96-31.28-1.17-8.13,4.01-16.44,12.02-18.28,3.38-.77,6.77-1.4,10.26-1.92,68.98-9.91,133.23,38.13,143.16,107.13,9.88,68.71-37.93,132.87-106.57,143.04l-2.47,.28c-.43,.07-1.24,.17-2.19,.24-80.88,8.89-175.8,32.39-194.47,135.15Z"/></g><g><path class="c" d="M175.76,515.77l8.98,1.01c61.88,7.46,99.87,21.24,120.6,45.32-10.43,8.79-17.82,21.3-19.91,35.9-.89,6.38-.76,12.7,.38,18.65v.06c4.36,23.89,23.51,43.23,48.73,46.9,31.73,4.55,61.06-17.38,65.67-49.11,1.14-8.34,.57-16.43-1.64-24.02h.06c-11.25-64.72-50.44-100.69-93.92-121.23h-.06c-41.15-19.47-86.15-25.09-114.97-28.25-.63,0-1.2-.13-1.71-.19l-1.9-.19c-60.11-8.91-101.89-64.98-93.23-125.15,8.66-60.43,64.85-102.46,125.21-93.74,3.03,.44,6.07,.95,9.04,1.64l-.13,.63c-.19,1.39-.25,2.72-.38,4.11v.19c-.51,7.4,.32,14.54,2.46,21.3,6.45,20.61,24.14,36.72,47.03,40.01,31.67,4.55,60.99-17.38,65.55-49.11,3.03-20.92-5.5-40.77-20.73-53.09v-.06c-7.14-5.94-14.73-11.31-22.69-16.05l-.06-.06c-21.11-12.64-44.62-21.05-69.27-24.59-101.83-14.66-196.51,56.19-211.11,158.02-14.66,101.76,56.19,196.45,158.02,211.11Z"/><g class="e"><path d="M148.46,427.78c-38.81-21.68-62.32-65.73-55.62-112.32,7.71-53.6,52.84-92.79,105.11-94.75,0-2.59,.19-5.18,.57-7.77l.13-.63c-2.97-.7-6-1.2-9.04-1.64-60.36-8.72-116.55,33.31-125.21,93.74-8.22,57.08,28.95,110.42,84.06,123.38Z"/></g><g class="g"><path class="b" d="M285.43,598c-4.05,28.25,12.96,54.61,39.06,63.27-10.75-12.26-16.31-28.95-13.78-46.39,.74-5.16,2.14-10.06,4.1-14.62,7.17-16.69,1.06-36.39-15.27-44.35-.13-.06-.26-.13-.4-.19,2.21,2.02,4.3,4.17,6.19,6.38-10.43,8.79-17.82,21.3-19.91,35.9Z"/></g><g class="e"><path d="M226.58,228.11s.95,8.98,2.46,21.49c6.45,20.61,24.14,36.72,47.03,40.01,31.67,4.55,60.99-17.38,65.55-49.11,3.03-20.92-5.5-40.77-20.73-53.09v-.06c-7.14-5.94-14.73-11.31-22.69-16.05,41.53,52.4-30.02,109.22-71.61,56.82Z"/></g><g class="e"><path d="M285.81,616.64v.06c4.36,23.89,23.51,43.23,48.73,46.9,31.73,4.55,61.06-17.38,65.67-49.11,1.14-8.34,.57-16.43-1.64-24.02h.06c-11.25-64.72-50.44-100.69-93.92-121.23h-.06c65.55,63.21,52.59,203.9-18.84,147.4Z"/></g><g class="g"><path class="b" d="M112.05,494.34c-50.38-39.88-78.82-104.73-69.02-172.81,14.6-101.83,109.28-172.68,211.11-158.08,22.44,3.29,43.93,10.49,63.52,21.3-25.6-20.29-56.25-33.44-88.8-38.11-101.83-14.66-196.51,56.19-211.11,158.02-11.38,78.76,28.51,153.21,94.3,189.68Z"/></g><path d="M342.99,680.03c-3.54,0-7.11-.26-10.67-.77-40.26-5.79-68.3-43.25-62.52-83.51,1.73-12.01,6.35-23.26,13.35-32.86-19.56-14.83-52-24.61-100.31-30.41l-8.91-1.03c-53.85-7.74-101.1-35.8-133.51-79.1C8.03,409.06-5.59,355.81,2.09,302.4h0c15.88-110.39,118.62-187.31,228.99-171.41,36.82,5.3,71.35,20.57,99.86,44.16,.34,.28,.68,.58,.99,.89,19.26,16.23,28.95,41.65,25.35,66.71-2.81,19.52-13.03,36.77-28.79,48.57-15.75,11.81-35.19,16.77-54.66,13.96-35.2-5.06-61.06-34.34-63.13-68.52-23.27-2.08-46.26,4.41-65.2,18.58-20.3,15.2-33.46,37.35-37.06,62.36-7.41,51.53,28.44,99.66,79.91,107.28l1.3,.13s.93,.12,.97,.13c54.98,5.99,198.94,21.73,223.57,162.37,2.5,9.49,3.04,19.3,1.62,29.15-2.8,19.51-13.03,36.77-28.79,48.57-12.88,9.64-28.21,14.71-44.04,14.71ZM33.38,306.89c-6.48,45.06,5.01,89.98,32.35,126.52,27.35,36.53,67.22,60.22,112.27,66.7l8.54,.98c67.27,8.08,107.58,23.72,130.79,50.71,2.75,3.2,4.11,7.37,3.77,11.58-.34,4.21-2.35,8.11-5.59,10.82-7.84,6.58-12.96,15.84-14.44,26.04-3.3,23.01,12.72,44.43,35.73,47.74,11.2,1.6,22.27-1.22,31.28-7.97,9-6.74,14.85-16.6,16.45-27.76,.86-5.94,.47-11.82-1.14-17.47-.28-.96-.46-1.93-.54-2.91-18.68-102.74-113.59-126.23-194.47-135.12-.97-.07-1.86-.18-2.76-.32l-1.31-.13c-69.23-10.24-117.04-74.4-107.16-143.11,4.8-33.37,22.35-62.91,49.41-83.17,27.06-20.27,60.36-28.79,93.72-23.96,3.52,.51,6.92,1.14,10.3,1.92,8.02,1.84,13.29,9.53,12.11,17.67-3.4,23.62,12.63,45.03,35.63,48.34,11.15,1.58,22.22-1.24,31.22-7.97,9-6.74,14.84-16.61,16.45-27.77,2.13-14.8-3.5-29.22-15.07-38.57-.38-.31-.75-.63-1.09-.97-23.85-19.44-52.61-32.03-83.26-36.44-93.12-13.39-179.81,51.49-193.21,144.63h0Z"/></g><g><path class="c" d="M319.87,15.8h793.24c24.42,0,44.24,19.83,44.24,44.24h0c0,24.42-19.83,44.24-44.24,44.24H319.87c-24.42,0-44.24-19.83-44.24-44.24h0c0-24.42,19.83-44.24,44.24-44.24Z"/><g class="g"><rect class="b" x="576.91" y="23.18" width="226.49" height="81.11"/></g><g class="g"><rect class="b" x="831.32" y="23.18" width="42.66" height="81.11"/></g><g class="e"><path d="M416.76,104.29h-96.9c-24.46,0-44.24-19.78-44.24-44.24,0-12.26,4.93-23.26,12.96-31.29,8.03-8.03,19.03-12.96,31.29-12.96h96.9c-12.2,0-23.26,4.93-31.29,12.96-7.96,8.03-12.96,19.03-12.96,31.29,0,24.46,19.85,44.24,44.24,44.24Z"/></g><g class="g"><path class="b" d="M1157.35,60.05c0,12.26-4.93,23.26-12.96,31.29-8.03,8.03-19.03,12.96-31.29,12.96h-54.8c12.2,0,23.32-4.93,31.29-12.96,8.03-8.03,12.96-19.03,12.96-31.29,0-24.46-19.78-44.24-44.24-44.24h54.8c24.46,0,44.24,19.78,44.24,44.24Z"/></g><path d="M1113.11,120.1H319.87c-33.11,0-60.05-26.94-60.05-60.05S286.76,0,319.87,0h793.24c33.11,0,60.05,26.94,60.05,60.05s-26.94,60.05-60.05,60.05ZM319.87,31.61c-15.68,0-28.45,12.76-28.45,28.44s12.76,28.44,28.45,28.44h793.24c15.68,0,28.45-12.76,28.45-28.44s-12.76-28.44-28.45-28.44H319.87Z"/><path class="c" d="M1102.55,104.29l-5.56,44.24-44.75,354.02c-21.81,172.74-168.7,302.25-342.83,302.25s-322.8-131.22-343.21-305.29l-41.15-350.99-5.18-44.24h782.69Z"/><g class="e"><path d="M1096.99,148.54H571.83c-79.79,0-141.71,69.62-132.4,148.86l18.98,161.54c20.35,174.07,166.61,319.55,341.82,319.55,31.67,0,63.78-18.56,93.04-26.65-53.47,33.69-116.68,52.97-183.87,52.97-175.27,0-322.8-131.22-343.21-305.29l-41.15-350.99-5.18-44.24h782.69l-5.56,44.24Z"/></g><g class="g"><path class="b" d="M1102.55,104.29l-50.31,398.26c-21.81,172.74-168.7,302.25-342.83,302.25-9.16,0-18.27-.38-27.24-1.07,161.87-12.83,294.67-137.6,315.34-301.18l50.31-398.26h54.74Z"/></g><path d="M709.43,820.63c-183.26,0-337.55-137.26-358.89-319.26l-48.43-412.88h818.39l-52.56,416.07c-22.76,180.19-176.88,316.07-358.51,316.07ZM337.63,120.1l44.29,377.59c19.48,166.09,160.28,291.34,327.51,291.34s306.39-124,327.16-288.43l48.06-380.5H337.63Z"/><path class="c" d="M825.86,872.25h-235.8c-22.5,0-40.75-18.24-40.75-40.75h0c0-22.5,18.24-40.75,40.75-40.75h235.8c22.5,0,40.75,18.24,40.75,40.75h0c0,22.5-18.24,40.75-40.75,40.75Z"/><g class="e"><path d="M664.4,872.25h-74.33c-22.5,0-40.77-18.27-40.77-40.77,0-11.25,4.55-21.43,11.95-28.76,7.39-7.4,17.57-11.95,28.82-11.95h74.33c-11.25,0-21.43,4.55-28.76,11.95-7.4,7.33-11.95,17.51-11.95,28.76,0,22.5,18.2,40.77,40.7,40.77Z"/></g><g class="g"><path class="b" d="M866.6,831.48c0,11.25-4.55,21.43-11.95,28.82-7.4,7.4-17.57,11.95-28.82,11.95h-56.89c11.25,0,21.43-4.55,28.82-11.95,7.4-7.4,11.95-17.57,11.95-28.82,0-22.5-18.27-40.7-40.77-40.7h56.89c22.5,0,40.77,18.2,40.77,40.7Z"/></g><g class="g"><rect class="b" x="697.79" y="796.4" width="38.85" height="75.85"/></g><path d="M825.86,888.05h-235.8c-31.18,0-56.55-25.37-56.55-56.55s25.36-56.55,56.55-56.55h235.8c31.18,0,56.55,25.37,56.55,56.55s-25.36,56.55-56.55,56.55Zm-235.8-81.49c-13.76,0-24.95,11.19-24.95,24.94s11.19,24.94,24.95,24.94h235.8c13.76,0,24.95-11.19,24.95-24.94s-11.19-24.94-24.95-24.94h-235.8Z"/></g><g><rect class="c" x="637.32" y="870.12" width="147.78" height="202.26"/><g class="g"><path class="b" d="M775.97,840.63c-26.64,81.47-26.64,162.93,0,244.4v-244.4Z"/></g><path d="M785.1,1088.19h-147.78c-8.73,0-15.8-7.08-15.8-15.8v-202.26c0-8.72,7.07-15.8,15.8-15.8h147.78c8.73,0,15.8,7.08,15.8,15.8v202.26c0,8.72-7.07,15.8-15.8,15.8Zm-131.98-31.61h116.18v-170.66h-116.18v170.66Z"/></g><path class="c" d="M828.31,1154.92h-245.23c-28.13,0-50.94-22.8-50.94-50.94h0c0-28.13,22.8-50.94,50.94-50.94h245.23c28.13,0,50.94,22.8,50.94,50.94h0c0,28.13-22.8,50.94-50.94,50.94Z"/><g class="e"><path d="M653.34,1154.91h-70.29c-28.13,0-50.94-22.82-50.94-50.94,0-14.09,5.69-26.8,14.92-36.03,9.23-9.23,22-14.92,36.03-14.92h70.29c-14.03,0-26.8,5.69-36.03,14.92-9.23,9.23-14.92,21.93-14.92,36.03,0,28.13,22.82,50.94,50.94,50.94Z"/></g><g class="g"><path class="b" d="M879.24,1103.97c0,14.1-5.69,26.8-14.92,36.03-9.23,9.23-22,14.92-36.03,14.92h-47.91c14.03,0,26.8-5.69,36.03-14.92,9.23-9.23,14.92-21.93,14.92-36.03,0-28.13-22.82-50.94-50.94-50.94h47.91c28.13,0,50.94,22.82,50.94,50.94Z"/></g><path d="M828.31,1170.73h-245.23c-36.8,0-66.73-29.94-66.73-66.74s29.93-66.73,66.73-66.73h245.23c36.8,0,66.73,29.94,66.73,66.73s-29.93,66.74-66.73,66.74Zm-245.23-101.87c-19.37,0-35.13,15.75-35.13,35.12s15.76,35.13,35.13,35.13h245.23c19.37,0,35.13-15.76,35.13-35.13s-15.76-35.12-35.13-35.12h-245.23Z"/><path class="c" d="M1043.58,1290.55c0,8.22-3.35,15.68-8.72,21.05-5.37,5.37-12.83,8.72-21.05,8.72H373.02c-16.43,0-29.71-13.34-29.71-29.77,0-37.48,15.17-71.36,39.69-95.88,14.92-14.98,33.31-26.42,53.85-33.12,13.21-4.3,27.37-6.64,42.03-6.64h429.05c74.9,0,135.64,60.74,135.64,135.64Z"/><g class="e"><path d="M664.4,1320.32H373.02c-16.43,0-29.71-13.34-29.71-29.77,0-37.48,15.17-71.36,39.69-95.88,14.92-14.98,33.31-26.42,53.85-33.12,7.21,109.22,100.06,148.16,227.54,158.77Z"/></g><g class="g"><path class="b" d="M1043.58,1290.55c0,8.22-3.35,15.68-8.72,21.05-3.29,3.29-7.33,5.81-11.88,7.27-.82-66.62-49.62-121.67-113.52-132.16-10.05,34.95-91.52,34.38-99.17-1.77H458.35c-37.48,0-71.36,15.17-95.88,39.76-1.58,1.58-3.16,3.29-4.68,4.93,6.51-13.02,15.04-24.78,25.22-34.95,24.52-24.59,58.47-39.76,95.88-39.76h429.05c74.9,0,135.64,60.74,135.64,135.64Z"/></g><path d="M1013.82,1336.11H373.05c-25.12,0-45.56-20.44-45.56-45.56,0-83.5,67.93-151.44,151.43-151.44h429.02c83.5,0,151.43,67.94,151.43,151.44,0,25.12-20.44,45.56-45.56,45.56Zm-534.89-165.39c-66.07,0-119.83,53.76-119.83,119.83,0,7.69,6.26,13.96,13.96,13.96H1013.82c7.69,0,13.96-6.26,13.96-13.96,0-66.07-53.76-119.83-119.83-119.83H478.93Z"/></g><path class="d" d="M523.21,330.65l171.3-144.78h153.02c3.34,0,5.61,1.43,6.81,4.3,1.19,2.87,.59,5.5-1.79,7.88l-27.24,27.24v431.47l29.39,29.39c2.38,2.15,2.98,4.78,1.79,7.88-1.43,2.87-3.71,4.3-6.81,4.3h-191.37c-3.11,0-5.26-1.43-6.45-4.3-1.2-3.1-.72-5.73,1.43-7.88l29.74-29.74V381.9l-67.73,57.7-92.1-108.94Z"/><g class="f"><path class="b" d="M922.01,392.07c25.88,6.2,38.39,46.61,27.93,90.24-10.46,43.64-39.92,73.98-65.8,67.78-25.88-6.2-19.95-42.19-9.49-85.82,10.46-43.64,21.48-78.4,47.36-72.2Z"/></g><g class="f"><path class="b" d="M846.75,632.61c-14.63,11.04-35.44,8.13-46.48-6.5-11.04-14.63-5.94-32.54,8.69-43.57s33.25-11.03,44.29,3.6c11.04,14.63,8.13,35.44-6.5,46.48Z"/></g></svg>