<?xml version="1.0" encoding="UTF-8"?><svg id="a" xmlns="http://www.w3.org/2000/svg" viewBox="0 0 3092.28 2105.5"><defs><style>.b{fill:#fff;}.c{fill:#b3d133;}.d{fill:#a6b1bc;}.e{fill:#390075;}.f{opacity:.3;}.g{opacity:.67;}.h{opacity:.55;}</style></defs><g><path class="d" d="M497.32,774.81h92.72V346.92c0-67.46-46.08-122.34-102.71-122.34h-26.72v110.45h26.72c5.51,0,9.98,5.33,9.98,11.89v427.89Z"/><path d="M592.55,777.31h-97.72V346.92c0-5.18-3.36-9.39-7.48-9.39h-29.22v-115.45h29.22c58.01,0,105.21,56,105.21,124.84v430.39Zm-92.72-5h87.72V346.92c0-66.08-44.95-119.84-100.21-119.84h-24.22v105.45h24.22c6.88,0,12.48,6.46,12.48,14.39v425.39Z"/></g><g class="h"><path class="b" d="M460.62,224.58v51.73h26.74c56.64,0,102.69,54.95,102.69,122.41v-51.82c0-67.47-46.05-122.32-102.69-122.32h-26.74Z"/></g><path d="M590.05,791.11h-92.72c-9,0-16.3-7.3-16.3-16.3V351.33h-20.41c-9,0-16.3-7.3-16.3-16.3v-110.45c0-9,7.3-16.3,16.3-16.3h26.72c65.62,0,119.01,62.19,119.01,138.64v427.89c0,9-7.3,16.3-16.3,16.3Zm-76.43-32.6h60.13V346.92c0-58.47-38.76-106.04-86.41-106.04h-10.42v77.85h10.42c14.49,0,26.28,12.64,26.28,28.19v411.59Z"/><g><path class="d" d="M473.15,645.81h134.38v277.27c0,28.03-22.75,50.78-50.78,50.78h-32.81c-28.03,0-50.78-22.75-50.78-50.78v-277.27h0Z" transform="translate(1080.68 1619.69) rotate(180)"/><path d="M610.03,976.37h-139.38v-279.77c0-29.38,23.9-53.28,53.28-53.28h32.81c29.38,0,53.28,23.9,53.28,53.28v279.77Zm-134.38-5h129.38v-274.77c0-26.62-21.66-48.28-48.28-48.28h-32.81c-26.62,0-48.28,21.66-48.28,48.28v274.77Z"/></g><g class="h"><path class="b" d="M473.15,696.57v46.25c0-28.06,22.75-50.81,50.75-50.81h32.88c28,0,50.75,22.75,50.75,50.81v-46.25c0-28-22.75-50.75-50.75-50.75h-32.88c-28,0-50.75,22.75-50.75,50.75Z"/></g><path d="M607.53,990.17h-134.38c-9,0-16.3-7.3-16.3-16.3v-277.27c0-36.99,30.09-67.08,67.08-67.08h32.81c36.99,0,67.08,30.09,67.08,67.08v277.27c0,9-7.3,16.3-16.3,16.3Zm-118.08-32.6h101.78v-260.97c0-19.01-15.47-34.48-34.48-34.48h-32.81c-19.01,0-34.48,15.47-34.48,34.48v260.97Z"/><polygon points="2997.18 1226.4 2982.22 729.43 3034.66 726.51 3049.62 1223.48 2997.18 1226.4"/><rect x="2212.25" y="462.81" width="374.54" height="52.52" transform="translate(539.77 2082.25) rotate(-52.11)"/><g><path class="c" d="M2274.89,77.08l-18.21,41.02c-14.64,32.98-3.33,71.71,26.76,91.64l465.34,308.1c27.3,18.08,63.24,16.04,88.33-5h0c36.04-30.23,35.06-85.97-2.01-114.92L2387.96,48.8c-37.92-29.61-93.56-15.69-113.08,28.28Z"/><path d="M2789.52,532.52c-14.68,0-29.38-4.16-42.12-12.6l-465.34-308.1c-31.22-20.67-42.85-60.51-27.67-94.73l18.21-41.03c9.62-21.67,28.32-37.4,51.32-43.15,23-5.75,46.9-.68,65.59,13.91l447.13,349.13c18.27,14.26,28.98,35.73,29.38,58.91,.41,23.17-9.55,45-27.3,59.9-14.04,11.77-31.59,17.76-49.19,17.76ZM2274.89,77.08l2.29,1.01-18.21,41.03c-14.19,31.98-3.32,69.22,25.85,88.54l465.34,308.1c26.18,17.34,61.28,15.35,85.34-4.83,16.6-13.92,25.9-34.32,25.52-55.98-.38-21.66-10.39-41.73-27.46-55.06L2386.43,50.77c-17.46-13.64-39.81-18.37-61.3-13-21.49,5.38-38.97,20.07-47.96,40.32l-2.29-1.01Z"/></g><g class="f"><path d="M2861.2,474.67c-3.64,14.34-11.68,27.76-24.12,38.2-25.05,21.03-61.02,23.04-88.29,5l-465.36-308.12c-30.1-19.94-41.4-58.68-26.73-91.66l18.2-41.02c5.22-11.68,12.93-21.3,22.22-28.42l-12.6,28.42c-14.62,32.98-3.31,71.72,26.79,91.6l465.3,308.12c26.02,17.22,59.77,16.19,84.6-2.12Z"/></g><g class="h"><path class="b" d="M2847.67,501.89c.33-2.55,.44-5.11,.44-7.66,0-21.79-9.51-43.52-28.42-58.24l-447.1-349.14c-37.92-29.61-93.56-15.7-113.12,28.25l-7.23,16.25c1.09-4.51,2.55-8.91,4.45-13.26l18.2-41.02c19.51-43.96,75.14-57.86,113.07-28.25l447.1,349.14c18.91,14.72,28.47,36.46,28.47,58.24,0,16.19-5.27,32.33-15.87,45.69Z"/></g><path d="M2789.5,546.3c-17.32,0-34.69-4.91-49.72-14.87l-465.34-308.1c-36.86-24.4-50.59-71.44-32.66-111.84l18.21-41.03h0c11.35-25.58,33.43-44.15,60.58-50.93,27.15-6.79,55.37-.81,77.43,16.42l447.13,349.13c21.56,16.84,34.21,42.19,34.69,69.54,.48,27.36-11.27,53.13-32.24,70.71-16.57,13.9-37.3,20.97-58.07,20.97Zm-499.72-462.61l-18.21,41.03c-11.45,25.81-2.68,55.85,20.86,71.43l465.34,308.1c21.12,13.98,49.43,12.39,68.85-3.9,13.39-11.23,20.89-27.69,20.59-45.16-.31-17.48-8.38-33.66-22.16-44.42L2377.93,61.64c-14.09-11-32.11-14.82-49.45-10.48-17.34,4.34-31.45,16.19-38.7,32.53h0Z"/><rect x="519.64" y="1600.65" width="614.45" height="147.59"/><g><path class="c" d="M2943.81,1245l-106.24,11.41-113.02-774.89c-6.2-42.48,24.14-81.6,66.82-86.19h0c42.12-4.52,79.76,26.4,83.48,68.6l68.97,781.07Z"/><path d="M2835.44,1259.15l-113.37-777.28c-3.1-21.22,2.44-42.25,15.58-59.2,13.14-16.95,32.12-27.54,53.45-29.83,21.06-2.28,41.64,3.9,58,17.33,16.35,13.44,26.38,32.45,28.24,53.54l69.18,783.51-111.07,11.93Zm-35.83-861.76c-2.65,0-5.31,.14-7.98,.43-19.96,2.14-37.73,12.06-50.03,27.93-12.3,15.87-17.48,35.54-14.58,55.41l112.68,772.51,101.41-10.89-68.75-778.62c-1.74-19.74-11.13-37.53-26.44-50.11-13.23-10.87-29.44-16.65-46.31-16.65Z"/></g><g class="h"><path class="b" d="M2943.79,1244.99l-34.83,3.75-68.08-771.25c-3.53-39.39-36.62-69-75.3-69-2.66,0-5.43,.16-8.15,.43-.76,.11-1.58,.16-2.34,.33,10.32-7.5,22.66-12.44,36.29-13.91,2.72-.27,5.49-.43,8.15-.43,38.68,0,71.77,29.61,75.3,69l68.95,781.08Z"/></g><g><path class="b" d="M2343.61,646.16l-142,200.88-78.07-55.19,142-200.88c8.55-12.1,25.3-14.98,37.4-6.42l34.25,24.21c12.1,8.55,14.98,25.3,6.42,37.4Z"/><path d="M2202.2,850.53l-82.15-58.07,143.45-202.92c9.34-13.21,27.68-16.35,40.88-7.02l34.25,24.21c13.21,9.34,16.36,27.68,7.02,40.88l-143.45,202.92Zm-75.18-59.27l73.99,52.3,140.56-198.84c3.75-5.31,5.21-11.76,4.11-18.16-1.1-6.41-4.63-12-9.93-15.75l-34.25-24.21c-10.96-7.75-26.17-5.13-33.92,5.82l-140.56,198.84Z"/></g><g class="f"><path d="M2348.03,635.82c-.71,3.64-2.12,7.12-4.4,10.32l-142.02,200.92-78.08-55.2,79.92-113.01,76.12,53.84,68.46-96.88Z"/></g><path d="M2201.6,863.34c-3.35,0-6.64-1.03-9.41-2.99l-78.07-55.19c-7.35-5.2-9.1-15.37-3.9-22.72l142-200.88c13.73-19.42,40.7-24.05,60.12-10.32l34.25,24.21c9.41,6.65,15.66,16.57,17.61,27.92,1.95,11.35-.64,22.79-7.29,32.2l-142,200.88c-2.5,3.53-6.29,5.92-10.55,6.66-.92,.16-1.84,.23-2.76,.23Zm-55.35-75.39l51.45,36.37,132.6-187.57h0c3.35-4.74,2.22-11.33-2.52-14.68l-34.25-24.21c-4.75-3.35-11.33-2.22-14.68,2.52l-132.59,187.57Z"/><path d="M2837.55,1272.71c-7.99,0-14.93-5.87-16.11-13.95l-113.02-774.89c-3.64-24.97,2.87-49.7,18.33-69.64,15.46-19.94,37.79-32.41,62.88-35.1,24.74-2.68,48.99,4.58,68.23,20.39,19.24,15.81,31.04,38.18,33.23,62.98l68.96,781.06c.78,8.85-5.67,16.69-14.5,17.64l-106.24,11.41c-.59,.06-1.18,.1-1.76,.1Zm-37.98-861.52c-2.15,0-4.3,.11-6.47,.35-16.2,1.74-30.62,9.79-40.6,22.66-9.98,12.88-14.18,28.84-11.83,44.96l110.76,759.37,74.73-8.03-67.56-765.13c-1.41-16.02-9.03-30.46-21.45-40.66-10.74-8.82-23.89-13.51-37.58-13.51Z"/><g><path class="c" d="M2164.03,803.76l242.52-669.77c13.28-36.69,.76-77.74-30.74-100.77h0c-42.75-31.25-103.23-17.84-128.75,28.56l-431.93,785.26"/><path d="M1817.33,848.25l-4.38-2.41L2244.88,60.58c12.51-22.74,34.22-39.01,59.56-44.64,25.34-5.61,51.9-.06,72.85,15.26,32.19,23.53,45.19,66.15,31.61,103.64l-242.51,669.77-4.7-1.7,242.51-669.77c12.82-35.41,.55-75.67-29.86-97.9-19.8-14.47-44.88-19.71-68.82-14.42-23.94,5.31-44.45,20.68-56.26,42.17l-431.93,785.26Z"/></g><g class="h"><path class="b" d="M2389.05,45.22c-10.05-3.86-20.54-5.71-31.02-5.71-30.75,0-60.85,16.14-76.99,45.48l-415.75,755.82-50.15,6.25L2247.08,61.79c16.14-29.34,46.24-45.53,77.04-45.53,17.88,0,35.97,5.49,51.67,16.95,4.89,3.59,9.35,7.61,13.26,12.01Z"/></g><polyline class="e" points="1095.51 1600.65 1095.51 1743 1738.06 1830.32 1738.06 1518.61"/><polyline class="e" points="1095.51 1600.65 1095.51 1743 1738.06 1830.32 1738.06 1518.61"/><path d="M1738.06,1846.62c-.73,0-1.46-.05-2.19-.15l-642.55-87.32c-8.08-1.1-14.1-8-14.1-16.15v-142.34c0-9,7.3-16.3,16.3-16.3s16.3,7.3,16.3,16.3v128.11l609.95,82.89v-293.04c0-9,7.3-16.3,16.3-16.3s16.3,7.3,16.3,16.3v311.7c0,4.7-2.03,9.18-5.58,12.28-2.99,2.61-6.8,4.02-10.72,4.02Z"/><path d="M2164.04,820.06c-1.84,0-3.72-.31-5.55-.98-8.46-3.07-12.84-12.41-9.78-20.88l242.51-669.77c10.75-29.69,.46-63.43-25.03-82.06-16.59-12.13-37.62-16.53-57.69-12.08-20.07,4.45-37.26,17.33-47.16,35.34l-379.36,689.69c-4.34,7.89-14.25,10.76-22.14,6.43-7.89-4.34-10.76-14.25-6.43-22.14L2232.79,53.93c14.42-26.22,39.45-44.98,68.66-51.46,29.21-6.48,59.83-.07,83.98,17.59,37.11,27.13,52.09,76.26,36.44,119.48l-242.51,669.77c-2.4,6.63-8.66,10.75-15.33,10.75Z"/><g><path class="c" d="M2101.16,1218.14l122.23-329.02c15.37-41.36-15.23-85.37-59.35-85.37h-216.82v406.25l153.94,8.13Z"/><path d="M2102.87,1220.74l-158.15-8.35v-411.12h219.32c21.86,0,41.56,10.3,54.04,28.24,12.48,17.95,15.27,40,7.66,60.5l-122.87,330.74Zm-153.15-13.1l149.74,7.91,121.59-327.29c7.04-18.94,4.46-39.31-7.08-55.9-11.53-16.58-29.73-26.1-49.93-26.1h-214.32v401.38Z"/></g><g class="h"><path class="b" d="M2223.39,889.12l-5.98,16.14c1.58-34.72-26.03-66.18-63.35-66.18h-206.84v-35.32h216.84c44.12,0,74.71,44.01,59.33,85.36Z"/></g><path d="M2101.16,1234.45c-1.88,0-3.8-.33-5.67-1.03-8.44-3.13-12.74-12.52-9.6-20.95l122.23-329.02c5.44-14.64,3.44-30.39-5.47-43.22-8.92-12.82-22.99-20.18-38.6-20.18h-216.82c-9,0-16.3-7.3-16.3-16.3s7.3-16.3,16.3-16.3h216.82c26.06,0,50.5,12.77,65.37,34.17,14.88,21.39,18.34,48.75,9.26,73.18l-122.23,329.02c-2.44,6.57-8.66,10.63-15.28,10.63Z"/><rect x="275.17" y="1261.13" width="1617.81" height="420.97"/><path class="c" d="M1950.6,246.74v923.98c-221.73,73.35-382.39,230.21-489.21,460.74H192.73v-362.02l3.31-22.33,44.34-297.14c0-39.45,30.26-72.26,69.55-75.41l563.43-44.34,253.95-631.67c19.67-48.9,67.1-80.96,119.8-80.96h574.35c71.34,0,129.15,57.81,129.15,129.15Z"/><g><circle class="e" cx="1973.04" cy="1726.73" r="360.41"/><path d="M1973.04,2089.64c-200.11,0-362.91-162.8-362.91-362.91s162.8-362.91,362.91-362.91,362.91,162.8,362.91,362.91-162.8,362.91-362.91,362.91Zm0-720.81c-197.35,0-357.91,160.56-357.91,357.91s160.56,357.91,357.91,357.91,357.91-160.56,357.91-357.91-160.56-357.91-357.91-357.91Z"/></g><g class="f"><path d="M2295.2,1888.45c-59.28,117.85-181.25,198.69-322.14,198.69-199.07,0-360.44-161.37-360.44-360.44,0-77.53,24.5-149.31,66.12-208.09-24.56,48.68-38.41,103.72-38.41,162.02,0,199.07,161.37,360.44,360.39,360.44,121.65,0,229.23-60.25,294.48-152.62Z"/></g><g class="h"><path class="b" d="M2255.64,1950.45c35.04-55.58,55.36-121.43,55.36-192.01,0-199.07-161.37-360.44-360.39-360.44-114.53,0-216.57,53.41-282.64,136.7,63.84-101.17,176.58-168.38,305.08-168.38,199.02,0,360.39,161.37,360.39,360.39,0,84.54-29.07,162.24-77.8,223.74Z"/></g><g><circle class="b" cx="1973.04" cy="1726.73" r="234.98" transform="translate(-643.09 1900.9) rotate(-45)"/><path d="M1973.04,1964.21c-130.95,0-237.48-106.53-237.48-237.48s106.53-237.48,237.48-237.48,237.48,106.53,237.48,237.48-106.53,237.48-237.48,237.48Zm0-469.96c-128.19,0-232.48,104.29-232.48,232.48s104.29,232.48,232.48,232.48,232.48-104.29,232.48-232.48-104.29-232.48-232.48-232.48Z"/></g><g class="h"><path class="b" d="M2151.87,1879.16c-41.78,65.14-114.8,108.34-197.93,108.34-129.8,0-234.99-105.19-234.99-234.99,0-57.92,20.97-110.95,55.74-151.86-23.2,36.46-36.62,79.65-36.62,126.05,0,129.8,105.19,234.99,234.99,234.99,71.56,0,135.67-32,178.81-82.53Z"/></g><g class="h"><path class="b" d="M2189.14,1819.24c4.35-17.88,6.68-36.62,6.68-55.85,0-129.75-105.24-234.93-234.99-234.93-96.98,0-180.22,58.73-216.08,142.51,24.99-102.85,117.74-179.19,228.31-179.19,129.75,0,234.99,105.19,234.99,234.93,0,32.82-6.74,64.11-18.91,92.53Z"/></g><circle class="d" cx="1973.04" cy="1726.73" r="161.17" transform="translate(-643.09 1900.9) rotate(-45)"/><g class="h"><path class="b" d="M2117.8,1797.56c-22.06,62.65-81.77,107.58-152.02,107.58-89,0-161.15-72.21-161.15-161.2,0-25.37,5.87-49.39,16.35-70.74-5.92,16.73-9.13,34.77-9.13,53.52,0,89.05,72.15,161.2,161.2,161.2,63.57,0,118.61-36.84,144.74-90.35Z"/></g><g class="f"><path d="M2117.31,1798.59c3.91-13.91,6.03-28.63,6.03-43.79,0-89-72.15-161.15-161.15-161.15-63.24,0-117.96,36.4-144.31,89.38,19.02-67.81,81.28-117.47,155.17-117.47,89,0,161.15,72.15,161.15,161.15,0,25.86-6.09,50.26-16.9,71.88Z"/></g><circle cx="1973.04" cy="1726.73" r="86.93"/><g class="h"><path class="b" d="M2021.5,1759.01c3.06-7.25,4.76-15.17,4.76-23.51,0-33.36-27.02-60.38-60.38-60.38-19.25,0-36.38,8.98-47.4,23.02,9.17-21.66,30.61-36.87,55.63-36.87,33.32,0,60.38,27.06,60.38,60.38,0,14.11-4.83,27.1-12.98,37.36Z"/><path d="M2015.86,1768.53l4.26-10.1c3.08-7.29,4.64-15.01,4.64-22.93,0-32.47-26.42-58.88-58.88-58.88-18.18,0-35.02,8.18-46.22,22.45l-6.95,8.85,4.39-10.37c9.72-22.95,32.1-37.79,57.01-37.79,34.12,0,61.88,27.76,61.88,61.88,0,14.09-4.6,27.33-13.31,38.29l-6.82,8.59Zm-49.98-94.91c34.12,0,61.88,27.76,61.88,61.88,0,4.57-.49,9.07-1.47,13.48,4.41-8.34,6.7-17.62,6.7-27.33,0-32.47-26.42-58.88-58.88-58.88-19.92,0-38.14,9.97-48.94,26.12,11.15-9.81,25.49-15.27,40.71-15.27Z"/></g><g class="f"><path d="M2035,1787.72c-12.01,33.58-44.12,57.65-81.88,57.65-48.03,0-86.93-38.96-86.93-86.93,0-23.8,9.56-45.37,25.05-61.07-3.31,9.13-5.11,19.02-5.11,29.34,0,48.03,38.9,86.93,86.93,86.93,24.23,0,46.18-9.94,61.94-25.92Z"/></g><path d="M1973.04,2103.44c-207.72,0-376.71-168.99-376.71-376.71s168.99-376.7,376.71-376.7,376.7,168.99,376.7,376.7-168.99,376.71-376.7,376.71Zm0-720.81c-189.74,0-344.11,154.37-344.11,344.11s154.37,344.11,344.11,344.11,344.11-154.37,344.11-344.11-154.37-344.11-344.11-344.11Z"/><path d="M1973.04,1978.01c-138.56,0-251.28-112.72-251.28-251.28s112.72-251.28,251.28-251.28,251.28,112.72,251.28,251.28-112.72,251.28-251.28,251.28Zm0-469.96c-120.58,0-218.68,98.1-218.68,218.68s98.1,218.68,218.68,218.68,218.68-98.1,218.68-218.68-98.1-218.68-218.68-218.68Z"/><g class="f"><path d="M1031.24,1506.44h-52.48c-31.02,0-56.13-25.1-56.13-56.13v-21.73c0-48.03-38.9-86.93-86.93-86.93h-277.1l-37.98-54.01c-16.46-23.47-43.36-37.44-72.05-37.44h-151.21l-101.33-3.1-3.31,22.33v328.55h958.97c-14.62-52.81-62.97-91.55-120.46-91.55Zm-409.56-103.83c0,11.25-9.13,20.43-20.37,20.43h-4.07c-11.3,0-20.43-9.18-20.43-20.43v-17.22c0,11.3,9.13,20.43,20.43,20.43h4.07c11.25,0,20.37-9.13,20.37-20.43v17.22Zm89,0c0,11.25-9.13,20.43-20.43,20.43h-4.08c-11.3,0-20.43-9.18-20.43-20.43v-17.22c0,11.3,9.13,20.43,20.43,20.43h4.08c11.3,0,20.43-9.13,20.43-20.43v17.22Zm88.94,0c0,11.25-9.13,20.43-20.37,20.43h-4.08c-11.3,0-20.43-9.18-20.43-20.43v-17.22c0,11.3,9.13,20.43,20.43,20.43h4.08c11.25,0,20.37-9.13,20.37-20.43v17.22Z"/></g><path d="M578.81,1809.23H192.74v-290.62c203.67-7.9,345.01,71.3,386.06,290.62Z"/><path class="b" d="M234.06,992.35h62.42c19.15,0,33.9,16.9,31.3,35.88l-35.11,256.24c-2.14,15.64-15.51,27.3-31.3,27.3h-68.64"/><g class="h"><path class="b" d="M1950.62,246.74v923.98c-1.52,.49-3.04,1.03-4.56,1.52V293.79c0-71.28-57.81-129.09-129.15-129.09h-574.3c-52.76,0-100.13,32.06-119.8,80.96l-241.99,601.79c-7.36,18.3-24.45,30.86-44.12,32.4l-531.32,41.78c-30.32,2.44-55.2,22.49-64.98,49.66v-21.35c0-39.45,30.26-72.21,69.55-75.41l563.42-44.31,253.95-631.67c19.67-48.9,67.1-80.96,119.8-80.96h574.35c71.28,0,129.15,57.81,129.15,129.15Z"/></g><path d="M904.5,1671.8H192.74c-9,0-16.3-7.3-16.3-16.3v-386.06c0-.81,.06-1.61,.18-2.4l47.49-318.38c.65-46.99,37.53-86.57,84.5-90.38l553.39-43.51,250.19-622.3c22.27-55.39,75.24-91.18,134.94-91.18h574.33c80.19,0,145.43,65.24,145.43,145.43v924.01c0,9-7.3,16.3-16.3,16.3s-16.3-7.3-16.3-16.3V246.73c0-62.22-50.62-112.84-112.84-112.84h-574.33c-46.32,0-87.41,27.77-104.69,70.74l-253.96,631.67c-2.31,5.74-7.68,9.69-13.85,10.17l-563.42,44.3c-30.55,2.48-54.51,28.46-54.51,59.15,0,.81-.06,1.61-.18,2.4l-47.48,318.32v368.55H904.5c9,0,16.3,7.3,16.3,16.3s-7.3,16.3-16.3,16.3Z"/><g><path class="c" d="M1542.02,1726.73h-124.96c0-306.57,249.42-555.99,555.99-555.99,84.07,0,164.88,18.31,240.17,54.42l-54.04,112.68c-58.29-27.96-120.92-42.13-186.13-42.13-237.67,0-431.02,193.36-431.02,431.02Z"/><path d="M1544.52,1729.23h-129.97v-2.5c0-307.95,250.54-558.49,558.49-558.49,84.45,0,165.62,18.39,241.26,54.67l2.25,1.08-56.2,117.18-2.25-1.08c-57.95-27.79-120.21-41.89-185.05-41.89-236.29,0-428.52,192.23-428.52,428.52v2.5Zm-124.96-5h119.97c1.35-237.9,195.3-431.02,433.52-431.02,64.76,0,126.97,13.89,184.96,41.3l51.88-108.17c-74.31-35.24-153.98-53.1-236.84-53.1-304.36,0-552.12,246.95-553.48,550.99Z"/></g><g class="h"><path class="b" d="M2213.21,1225.16l-10.87,22.6c-65.31-26.19-134.36-39.39-205.76-39.39-293.94,0-535.28,229.23-554.68,518.33h-24.83c0-306.54,249.39-555.99,555.98-555.99,84.05,0,164.85,18.31,240.15,54.44Z"/></g><path d="M1542.02,1743.03h-124.97c-9,0-16.3-7.3-16.3-16.3,0-315.56,256.73-572.29,572.29-572.29,86.54,0,169.71,18.85,247.22,56.03,8.12,3.89,11.54,13.63,7.65,21.75l-54.04,112.68c-1.87,3.9-5.21,6.89-9.29,8.33-4.07,1.44-8.55,1.19-12.46-.68-56.07-26.89-116.33-40.53-179.09-40.53-228.68,0-414.72,186.04-414.72,414.72,0,9-7.3,16.3-16.3,16.3Zm-108.42-32.6h92.42c8.6-239.15,205.83-431.02,447.03-431.02,62.19,0,122.11,12.42,178.36,36.95l39.97-83.33c-68.83-30.52-142.19-45.99-218.33-45.99-292.14,0-530.8,233.31-539.45,523.39Z"/><g><circle class="e" cx="275.18" cy="1830.32" r="258.88"/><path d="M275.18,2091.7c-144.13,0-261.38-117.25-261.38-261.38s117.25-261.38,261.38-261.38,261.38,117.26,261.38,261.38-117.26,261.38-261.38,261.38Zm0-517.76c-141.37,0-256.38,115.01-256.38,256.38s115.01,256.38,256.38,256.38,256.38-115.01,256.38-256.38-115.01-256.38-256.38-256.38Z"/></g><g class="f"><path d="M43.77,1946.49c42.58,84.65,130.2,142.72,231.39,142.72,143,0,258.91-115.91,258.91-258.91,0-55.69-17.6-107.25-47.5-149.47,17.64,34.97,27.59,74.5,27.59,116.38,0,143-115.91,258.91-258.87,258.91-87.38,0-164.66-43.28-211.53-109.63Z"/></g><g class="h"><path class="b" d="M72.19,1997.36c-25.17-39.92-39.77-87.23-39.77-137.92,0-143,115.91-258.91,258.87-258.91,82.27,0,155.56,38.36,203.02,98.19-45.86-72.67-126.84-120.95-219.14-120.95-142.96,0-258.87,115.91-258.87,258.87,0,60.73,20.88,116.54,55.89,160.71Z"/></g><g><circle class="b" cx="275.18" cy="1830.32" r="168.79"/><path d="M275.18,2001.61c-94.45,0-171.29-76.84-171.29-171.29s76.84-171.29,171.29-171.29,171.29,76.84,171.29,171.29-76.84,171.29-171.29,171.29Zm0-337.58c-91.69,0-166.29,74.6-166.29,166.29s74.59,166.29,166.29,166.29,166.29-74.59,166.29-166.29-74.6-166.29-166.29-166.29Z"/></g><g class="h"><path class="b" d="M150.8,1943.05c30.01,46.79,82.46,77.82,142.18,77.82,93.24,0,168.79-75.56,168.79-168.79,0-41.6-15.06-79.69-40.04-109.08,16.66,26.19,26.3,57.21,26.3,90.54,0,93.24-75.56,168.79-168.79,168.79-51.4,0-97.45-22.99-128.44-59.28Z"/></g><g class="h"><path class="b" d="M119.95,1896.77c-3.12-12.84-4.8-26.3-4.8-40.12,0-93.2,75.6-168.75,168.79-168.75,69.66,0,129.45,42.19,155.21,102.37-17.95-73.88-84.57-128.71-163.99-128.71-93.2,0-168.79,75.56-168.79,168.75,0,23.57,4.84,46.05,13.58,66.46Z"/></g><circle class="d" cx="275.18" cy="1830.32" r="115.77"/><g class="h"><path class="b" d="M171.2,1881.19c15.84,45,58.74,77.27,109.2,77.27,63.93,0,115.75-51.87,115.75-115.79,0-18.23-4.22-35.48-11.75-50.81,4.25,12.02,6.56,24.98,6.56,38.44,0,63.97-51.83,115.79-115.79,115.79-45.66,0-85.2-26.46-103.97-64.9Z"/></g><g class="f"><path d="M171.55,1881.94c-2.81-9.99-4.33-20.57-4.33-31.46,0-63.93,51.83-115.75,115.75-115.75,45.43,0,84.73,26.15,103.66,64.2-13.66-48.71-58.38-84.38-111.46-84.38-63.93,0-115.75,51.83-115.75,115.75,0,18.58,4.37,36.1,12.14,51.63Z"/></g><circle cx="275.18" cy="1830.32" r="62.44" transform="translate(-1213.63 730.67) rotate(-45)"/><g class="h"><path class="b" d="M238.5,1855.54c-2.32-5.51-3.61-11.53-3.61-17.87,0-25.35,20.53-45.88,45.88-45.88,14.62,0,27.64,6.83,36.02,17.49-6.97-16.46-23.26-28.02-42.27-28.02-25.32,0-45.88,20.56-45.88,45.88,0,10.72,3.67,20.59,9.86,28.39Z"/><path d="M245.41,1867.19l-8.35-10.51c-6.71-8.45-10.26-18.67-10.26-29.53,0-26.31,21.41-47.72,47.72-47.72,19.21,0,36.47,11.44,43.96,29.14l5.37,12.69-8.51-10.84c-8.37-10.67-20.97-16.79-34.57-16.79-24.29,0-44.05,19.76-44.05,44.05,0,5.92,1.17,11.69,3.47,17.15l5.22,12.37Zm29.11-84.09c-24.29,0-44.05,19.76-44.05,44.05,0,5.46,.97,10.73,2.85,15.67-.18-1.7-.27-3.42-.27-5.14,0-26.31,21.41-47.72,47.72-47.72,9.87,0,19.27,2.98,27.12,8.43-8.22-9.55-20.31-15.28-33.37-15.28Z"/></g><g class="f"><path d="M230.68,1874.13c8.63,24.12,31.69,41.41,58.81,41.41,34.5,0,62.44-27.98,62.44-62.44,0-17.09-6.87-32.59-17.99-43.87,2.38,6.56,3.67,13.66,3.67,21.07,0,34.5-27.94,62.44-62.44,62.44-17.41,0-33.17-7.14-44.49-18.62Z"/></g><path d="M275.18,2105.5C123.44,2105.5,0,1982.05,0,1830.32s123.44-275.18,275.18-275.18,275.18,123.44,275.18,275.18-123.44,275.18-275.18,275.18Zm0-517.76c-133.76,0-242.58,108.82-242.58,242.58s108.82,242.58,242.58,242.58,242.58-108.82,242.58-242.58-108.82-242.58-242.58-242.58Z"/><path d="M275.18,2014.11c-101.34,0-183.79-82.45-183.79-183.79s82.45-183.79,183.79-183.79,183.79,82.45,183.79,183.79-82.45,183.79-183.79,183.79Zm0-337.58c-84.8,0-153.79,68.99-153.79,153.79s68.99,153.79,153.79,153.79,153.79-68.99,153.79-153.79-68.99-153.79-153.79-153.79Z"/><path d="M1825.27,247.99h-582.66c-17.06,0-32.38,10.59-38.36,26.62l-12.33,33.14h565.6c27.01,0,48.9,21.89,48.9,48.9v718.22c6.48-1.62,13.01-3.19,19.6-4.64,23.37-5.18,40.17-25.63,40.17-49.57V288.9c0-22.6-18.32-40.91-40.91-40.91Z"/><path d="M1723.11,1006.85c-19.01,0-34.43-15.41-34.43-34.43v-282.52c0-38-30.81-68.81-68.81-68.81h0c-38,0-68.81,30.81-68.81,68.81v272.55c0,17.5-14.19,31.68-31.68,31.68h-136.99c-34.88,0-63.16,28.28-63.16,63.16s28.28,63.16,63.16,63.16h45.01c21.28,0,38.52,17.25,38.52,38.52-97.8,49.39-152.13,168.43-152.13,168.43h-198.69c-22.63,0-39.75-20.46-35.76-42.74l16.68-93.09-43.18-202.34,83.32-30.24,27.47,75.71c7.68,21.16,31.05,32.08,52.21,24.4h0c21.16-7.68,32.08-31.05,24.4-52.21l-77.84-214.51c-7.68-21.16-31.05-32.08-52.21-24.4-21.16,7.68-32.08,31.05-24.4,52.21l31.51,86.83-76.11,27.62-4.5-21.09h-56.13v475.41c0,32.98,26.73,59.77,59.77,59.77h274.16c33.79,0,65.04-18.42,80.79-48.3,91.06-172.4,231.67-286.01,430.86-330.23,23.36-5.16,40.04-25.7,40.04-49.61v-13.75h-143.08Z"/><g class="g"><path class="e" d="M1866.19,288.9V1020.6c0,23.91-16.68,44.44-40.04,49.61-24.18,5.38-47.54,11.79-70.03,19.23-43.95,14.4-84.65,32.71-122.19,54.77-76.39,44.66-139.96,104.7-191.58,178.75-16.95,24.34-32.65,50.15-47.05,77.48-15.76,29.88-47,48.3-80.79,48.3h-274.16c-33.03,0-59.77-26.79-59.77-59.77V874.55l53.08-142.3,110.4-296.17,56.02-150.28,4.18-11.19c5.98-16.03,21.3-26.62,38.36-26.62h582.66c22.6,0,40.91,18.31,40.91,40.91Z"/></g><g class="h"><path class="b" d="M1904.22,322.43v731.7c0,23.91-16.68,44.44-40.04,49.61-199.18,44.23-339.8,157.84-430.86,330.23-15.76,29.88-47,48.3-80.79,48.3h-274.16c-24.56,0-45.59-14.78-54.82-35.91,5.32,1.58,10.98,2.39,16.79,2.39h274.16c33.79,0,65.04-18.42,80.79-48.3,91.06-172.4,231.67-286.01,430.86-330.23,23.36-5.16,40.04-25.7,40.04-49.61V288.9c0-2.5-.22-4.94-.65-7.28,21.57,1.14,38.68,18.96,38.68,40.8Z"/></g><path d="M1314.49,1465.04h-274.16c-41.94,0-76.06-34.12-76.06-76.06V874.55c0-1.94,.35-3.87,1.03-5.69l223.69-599.94c8.3-22.27,29.86-37.23,53.63-37.23h582.66c31.55,0,57.21,25.66,57.21,57.21V1020.6c0,31.71-21.72,58.65-52.82,65.52-187.86,41.71-329.16,150.03-419.96,321.93-18.53,35.15-55.01,56.99-95.2,56.99Zm-317.63-587.55v511.48c0,23.97,19.5,43.47,43.47,43.47h274.16c28.06,0,53.49-15.18,66.37-39.6,95.48-180.76,244.1-294.66,441.75-338.54,16.06-3.55,27.28-17.4,27.28-33.69V288.9c0-13.57-11.04-24.61-24.61-24.61h-582.66c-10.24,0-19.51,6.44-23.09,16.02l-222.66,597.18Z"/><path d="M1867.71,751.47h-235.45c-10.01,0-18.12-8.11-18.12-18.12V247.99h-85.08v975.81l85.08-66.56v-315.21c0-10.01,8.11-18.12,18.12-18.12h235.45v-72.44Z"/><rect x="1423.38" y="936.2" width="53.43" height="112.29" rx="18.11" ry="18.11"/><rect x="754.72" y="1240.1" width="44.92" height="165.71" rx="20.42" ry="20.42"/><rect x="665.75" y="1240.1" width="44.92" height="165.71" rx="20.42" ry="20.42"/><rect x="576.78" y="1240.1" width="44.92" height="165.71" rx="20.42" ry="20.42"/><g><path class="c" d="M688.21,1830.32h-108.67c0-167.83-136.54-304.37-304.37-304.37-64.67,0-126.41,20-178.56,57.85l-63.82-87.95c70.82-51.4,154.64-78.56,242.38-78.56,227.75,0,413.03,185.29,413.03,413.04Z"/><path d="M690.71,1832.82h-113.66v-2.5c0-166.45-135.42-301.87-301.87-301.87-64.14,0-125.37,19.84-177.09,57.37l-2.02,1.47-66.76-91.99,2.02-1.47c71.25-51.71,155.57-79.04,243.85-79.04,229.13,0,415.53,186.41,415.53,415.53v2.5Zm-108.67-5h103.67c-1.34-225.23-184.99-408.03-410.52-408.03-86.38,0-168.93,26.49-238.88,76.63l60.89,83.9c52.15-37.21,113.64-56.86,178-56.86,168.37,0,305.51,136.31,306.86,304.37Z"/></g><g class="h"><path class="b" d="M688.24,1830.32h-10.49c-20.16-209.13-196.9-373.16-411.13-373.16-77.53,0-152.08,21.24-217.17,61.61l-16.63-22.93c70.79-51.4,154.63-78.56,242.38-78.56,227.71,0,413.04,185.27,413.04,413.04Z"/></g><path d="M688.21,1846.62h-108.66c-9,0-16.3-7.3-16.3-16.3,0-158.84-129.23-288.07-288.07-288.07-61.21,0-119.64,18.93-168.99,54.74-7.29,5.28-17.48,3.66-22.76-3.62l-63.82-87.94c-5.29-7.29-3.67-17.48,3.62-22.76,73.62-53.43,160.74-81.67,251.96-81.67,236.73,0,429.33,192.6,429.33,429.33,0,9-7.3,16.3-16.3,16.3Zm-92.77-32.6h76.14c-8.58-211.23-183.1-380.44-396.4-380.44-78.83,0-154.34,22.82-219.42,66.15l44.72,61.63c51.99-33.88,112.04-51.71,174.7-51.71,171.36,0,311.75,135.09,320.26,304.37Z"/><path d="M261.37,1328.07h-68.64c-9,0-16.3-7.3-16.3-16.3s7.3-16.3,16.3-16.3h68.64c7.6,0,14.12-5.68,15.15-13.21l35.11-256.24c.61-4.44-.68-8.75-3.63-12.13-2.95-3.38-7.04-5.24-11.52-5.24h-62.42c-9,0-16.3-7.3-16.3-16.3s7.3-16.3,16.3-16.3h62.42c13.84,0,26.99,5.98,36.09,16.41,9.1,10.43,13.24,24.27,11.36,37.98l-35.11,256.24c-3.23,23.6-23.63,41.39-47.45,41.39Z"/><g><polyline class="c" points="2960.84 1321.82 3075.98 1291.39 3062.07 1208.06 2947.83 1238.49"/><polygon points="2961.48 1324.24 2960.2 1319.4 3073.14 1289.56 3060.06 1211.19 2948.47 1240.91 2947.19 1236.08 3064.08 1204.94 3078.82 1293.23 2961.48 1324.24"/></g><g class="h"><polygon class="b" points="3075.98 1291.39 3074.73 1291.72 3066.09 1240 2952.75 1270.15 2947.81 1238.47 3062.07 1208.05 3075.98 1291.39"/></g><g><path class="c" d="M2295.2,1366.32l-11.84-150.23c-2.04-25.91,30.32-39.25,47.12-19.42l107.04,126.29"/><path d="M2292.71,1366.51l-11.84-150.23c-1.02-12.91,6.06-24.44,18.03-29.37,11.97-4.93,25.12-1.74,33.49,8.14l107.04,126.29-3.81,3.23-107.04-126.29c-6.94-8.19-17.84-10.84-27.77-6.75-9.93,4.09-15.8,13.65-14.95,24.36l11.84,150.23-4.99,.39Z"/></g><g><polygon class="c" points="2885.54 585.1 2950.86 574.39 2960.84 657.19 2893 669.61 2885.54 585.1"/><path d="M2890.75,672.57l-7.91-89.56,70.18-11.5,10.58,87.72-72.85,13.34Zm-2.52-85.38l7.02,79.47,62.83-11.51-9.39-77.88-60.45,9.91Z"/></g><path d="M2893,685.91c-3.54,0-7.01-1.15-9.88-3.33-3.65-2.78-5.96-6.97-6.36-11.54l-7.47-84.52c-.75-8.5,5.18-16.14,13.6-17.52l65.32-10.71c4.38-.72,8.87,.38,12.42,3.05,3.55,2.67,5.86,6.67,6.39,11.08l9.99,82.8c1.03,8.55-4.77,16.43-13.24,17.98l-67.84,12.42c-.98,.18-1.96,.27-2.94,.27Zm10.11-87.18l4.56,51.62,35.16-6.44-6.11-50.69-33.6,5.51Z"/><g><path class="c" d="M2937.25,1170.72l-642.05,195.6c251.28,255.27,504.07,390,665.64-44.5l-23.59-151.1Z"/><path d="M2683.13,1606.39c-105.55,0-230.9-76.98-389.71-238.32l-2.9-2.94,648.75-197.64,24.14,154.59-.23,.61c-62.13,167.06-139.58,258.38-236.78,279.17-14.06,3.01-28.47,4.52-43.28,4.52Zm-383.25-238.88c178.34,180.48,313.58,253.39,425.48,229.47,95.28-20.38,171.47-110.47,232.91-275.41l-23.05-147.61-635.34,193.55Z"/></g><g class="f"><path d="M2960.85,1321.82c-161.58,434.5-414.39,299.75-665.63,44.5l53.9-16.41c224.94,202.77,443.46,271.34,588.53-118.66l-9.02-57.86,8.64-2.66,23.58,151.1Z"/></g><g class="h"><path class="b" d="M2943.46,1210.55l-616.13,187.72c-10.7-10.43-21.41-21.08-32.11-31.95l642.05-195.6,6.19,39.83Z"/></g><path d="M2683.25,1620.18c-109.57,0-238.14-78.33-399.67-242.42-4-4.07-5.59-9.92-4.18-15.45,1.4-5.52,5.59-9.92,11.05-11.58l642.05-195.6c4.52-1.37,9.41-.73,13.41,1.78,4,2.51,6.72,6.63,7.44,11.29l23.59,151.1c.43,2.76,.15,5.58-.83,8.2-63.9,171.84-144.64,266-246.83,287.86-14.98,3.21-30.31,4.82-46.04,4.82Zm-357.37-246.17c166.66,164.97,293.07,231.62,396.59,209.47,88.41-18.91,162.96-107.52,221.61-263.37l-20.04-128.33-598.16,182.23Z"/><path d="M2960.83,1338.13c-7.22,0-13.82-4.83-15.75-12.14-2.3-8.7,2.89-17.62,11.59-19.92l100.78-26.63-8.51-51-96.92,25.82c-8.69,2.33-17.63-2.85-19.94-11.56-2.32-8.7,2.86-17.63,11.56-19.94l114.24-30.43c4.43-1.19,9.16-.44,13.02,2.05,3.86,2.49,6.49,6.49,7.25,11.02l13.91,83.33c1.39,8.3-3.77,16.29-11.91,18.44l-115.14,30.43c-1.4,.37-2.8,.54-4.17,.54Z"/><g><path class="b" d="M2968.16,924.7l-18.03-363.74c-1.14-26.38,19.32-48.68,45.7-49.82h0c26.38-1.14,48.68,19.32,49.82,45.7l18.03,363.74-95.52,4.13Z"/><path d="M2965.79,927.31l-18.16-366.22c-1.2-27.73,20.38-51.25,48.09-52.44,27.67-1.19,51.23,20.38,52.43,48.09l18.16,366.24-100.51,4.34Zm32.12-413.71c-.66,0-1.31,.01-1.98,.04-24.96,1.08-44.38,22.26-43.31,47.22l17.91,361.24,90.52-3.91-17.91-361.23c-1.05-24.31-21.15-43.36-45.24-43.36Z"/></g><g class="f"><path d="M2986.33,560.95l17.98,362.18-36.13,1.58-18.04-363.76c-1.14-26.35,19.29-48.68,45.69-49.82,.71-.05,1.41-.05,2.12-.05,6.36,0,12.44,1.25,18.04,3.53-18.15,7.44-30.53,25.65-29.67,46.35Z"/></g><path d="M2968.15,941c-8.64,0-15.84-6.78-16.27-15.49l-18.03-363.74c-1.53-35.42,25.96-65.39,61.27-66.91,35.3-1.56,65.29,25.97,66.81,61.28l18.03,363.64c.21,4.34-1.31,8.58-4.23,11.79-2.92,3.21-7.01,5.12-11.35,5.31l-95.52,4.13c-.24,0-.48,.01-.72,.01Zm29.75-413.61c-.46,0-.92,0-1.37,.03-17.35,.75-30.86,15.48-30.11,32.83l17.23,347.46,62.95-2.72-17.22-347.36c-.73-16.99-14.71-30.25-31.46-30.25Z"/><path d="M2295.18,1382.62c-8.42,0-15.56-6.48-16.23-15.02l-11.84-150.23c-1.5-18.99,8.92-35.96,26.53-43.22,17.62-7.26,36.96-2.56,49.28,11.98l107.04,126.29c5.82,6.87,4.97,17.15-1.89,22.97-6.87,5.82-17.16,4.97-22.97-1.89l-107.04-126.29c-4.45-5.25-9.87-3.79-11.99-2.91-2.12,.87-6.99,3.65-6.45,10.51l11.84,150.23c.71,8.97-6,16.82-14.97,17.53-.44,.03-.87,.05-1.3,.05Z"/><circle cx="2321.44" cy="113.52" r="34.18"/><circle cx="2799.6" cy="489.07" r="34.18"/><path d="M1023.58,1920.8h-96.04c-35.04,0-63.55-28.51-63.55-63.55v-143.29c0-9,7.3-16.3,16.3-16.3h190.54c9,0,16.3,7.3,16.3,16.3v143.29c0,35.04-28.51,63.55-63.55,63.55Zm-126.99-190.54v126.99c0,17.07,13.89,30.95,30.95,30.95h96.04c17.07,0,30.95-13.89,30.95-30.95v-126.99h-157.95Z"/><path d="M1070.83,1831.47h-190.54c-9,0-16.3-7.3-16.3-16.3s7.3-16.3,16.3-16.3h190.54c9,0,16.3,7.3,16.3,16.3s-7.3,16.3-16.3,16.3Z"/></svg>